<svg width="111" height="24" viewBox="0 0 111 24" fill="none" xmlns="http://www.w3.org/2000/svg">
<g clip-path="url(#clip0_1634_8440)">
<path d="M34.4353 24.0005V0.471196H35.7536V4.17238C35.9096 4.0088 36.0537 3.83479 36.1846 3.65166C36.7236 2.5684 37.5699 1.65633 38.6245 1.0222C39.6791 0.388066 40.8983 0.0581112 42.1394 0.0709575C43.5234 -0.0625943 44.917 0.20676 46.1422 0.844591C47.3674 1.48242 48.3684 2.45975 49.0174 3.65166C49.9303 5.26016 50.4326 7.05698 50.4825 8.892C50.5324 10.727 50.1283 12.547 49.304 14.1998C47.9678 17.1015 44.6674 18.5442 41.1352 18.0143C40.0366 17.9231 38.979 17.567 38.0587 16.9785C37.1385 16.39 36.3848 15.5878 35.8663 14.6449V24.0026L34.4353 24.0005ZM35.7536 8.79554C35.8705 9.94214 35.9158 10.759 36.0497 11.5584C36.5702 14.7031 38.4892 16.5716 41.5019 16.9106C42.9168 17.136 44.3687 16.879 45.61 16.1835C46.8513 15.4879 47.8052 14.3968 48.3092 13.0961C48.8882 11.7582 49.1668 10.3163 49.1265 8.8661C49.0861 7.41591 48.7278 5.99064 48.0753 4.68493C47.5375 3.5193 46.6229 2.55488 45.4696 1.93729C44.3162 1.31969 42.9868 1.08248 41.6821 1.26146C40.4569 1.34766 39.2898 1.80153 38.3431 2.55998C37.3964 3.31844 36.7171 4.3438 36.3995 5.49357C36.119 6.58131 35.9033 7.68379 35.7536 8.79554Z" fill="black"/>
<path d="M77.3732 11.992C77.1734 13.6486 76.3594 15.1786 75.0827 16.2974C73.8059 17.4162 72.1532 18.0476 70.432 18.0742C64.9081 18.3437 62.3179 14.7906 61.9038 10.6891C61.6182 8.46177 61.9917 6.20162 62.9808 4.172C63.6699 2.77996 64.7982 1.63647 66.2026 0.907026C67.6069 0.177579 69.2144 -0.0999939 70.7924 0.114481C72.2925 0.237717 73.7146 0.815093 74.8573 1.76485C75.9999 2.7146 76.8053 3.98859 77.1593 5.40641C77.4396 6.69753 77.6461 8.00268 77.7778 9.31588H63.2579C62.9892 13.0344 65.0493 16.0239 67.9746 16.7448C71.6164 17.6137 74.7282 16.0852 75.8578 12.7312C76.1086 11.8705 76.566 11.749 77.3732 11.992ZM63.2579 8.12027H76.234C76.154 4.15873 73.607 1.29069 70.1538 1.24781C66.2475 1.19165 63.4286 3.95452 63.2579 8.12027Z" fill="black"/>
<path d="M80.0455 12.0787H81.3164C81.3633 12.9866 81.6677 13.8643 82.1961 14.6155C82.7244 15.3666 83.4563 15.9621 84.3112 16.3364C85.3848 16.8045 86.5536 17.0321 87.7306 17.002C88.9075 16.972 90.0623 16.6851 91.109 16.1628C91.6792 15.9136 92.1567 15.5008 92.4771 14.9802C92.7974 14.4597 92.9452 13.8564 92.9004 13.2519C92.9332 12.6688 92.7688 12.0912 92.4323 11.6068C92.0957 11.1224 91.6052 10.7576 91.0353 10.5676C89.6359 10.0633 88.1469 9.78555 86.7211 9.34243C85.2375 8.93275 83.7868 8.41848 82.3807 7.80375C80.0856 6.71841 79.9422 2.4863 82.5419 1.14877C83.8736 0.420697 85.3722 0.0272998 86.901 0.00447155C88.4299 -0.0183567 89.9403 0.330111 91.2945 1.01808C92.1152 1.45631 92.7786 2.12652 93.1962 2.93937C93.6138 3.75222 93.7657 4.66908 93.6318 5.56773H92.538C92.538 5.51566 92.4389 5.47278 92.4389 5.4207C92.3051 2.04012 89.383 0.997664 86.2427 1.29274C85.3057 1.40484 84.3957 1.67251 83.5525 2.08402C83.0623 2.32695 82.6545 2.7013 82.3778 3.16246C82.101 3.62362 81.9669 4.15216 81.9914 4.68509C82.016 5.21803 82.1981 5.73289 82.5162 6.16834C82.8342 6.60378 83.2748 6.94145 83.7853 7.14112C85.1658 7.62712 86.6105 7.94057 88.0268 8.32243C89.1659 8.62874 90.3451 8.82681 91.4526 9.19132C92.2311 9.43863 92.9138 9.90922 93.4102 10.5408C93.9066 11.1724 94.1934 11.9351 94.2324 12.7281C94.3659 13.5964 94.2138 14.4834 93.7977 15.2632C93.3816 16.0431 92.7225 16.6761 91.9141 17.0725C88.9193 18.7143 83.9866 18.2804 81.7895 16.2037C81.2323 15.6616 80.7913 15.0181 80.492 14.3101C80.1927 13.6021 80.0409 12.8438 80.0455 12.0787Z" fill="black"/>
<path d="M110.374 5.56773H109.182C109.166 5.42404 109.139 5.28171 109.101 5.14197C109.082 4.27561 108.756 3.44193 108.178 2.7807C107.6 2.11948 106.805 1.67091 105.926 1.51021C104.268 1.04935 102.5 1.1319 100.895 1.74505C100.261 1.92133 99.7032 2.29165 99.3044 2.80067C98.9055 3.30969 98.6873 3.93009 98.6825 4.56918C98.6604 5.19696 98.8625 5.8129 99.2547 6.31307C99.6469 6.81323 100.205 7.167 100.835 7.31469C102.627 7.85276 104.467 8.18357 106.288 8.66958C106.877 8.80639 107.458 8.97686 108.027 9.18009C108.877 9.47449 109.615 10.0104 110.145 10.7177C110.675 11.425 110.973 12.2708 110.999 13.1447C111.025 14.0185 110.779 14.8796 110.292 15.6155C109.805 16.3515 109.1 16.9279 108.27 17.2696C107.004 17.8266 105.632 18.1213 104.242 18.1348C102.852 18.1484 101.475 17.8804 100.198 17.3482C99.1478 16.9095 98.2617 16.1697 97.6588 15.2283C97.056 14.2869 96.7652 13.1892 96.8257 12.0828H97.9912C98.2059 13.0915 98.6715 14.0342 99.3474 14.8291C100.023 15.624 100.889 16.2471 101.87 16.6443C102.851 17.0416 103.916 17.201 104.975 17.1087C106.034 17.0164 107.053 16.6753 107.945 16.1148C108.488 15.8411 108.939 15.4221 109.245 14.9077C109.55 14.3932 109.696 13.8048 109.667 13.2121C109.694 12.6287 109.524 12.0526 109.183 11.5713C108.841 11.09 108.347 10.7297 107.775 10.5452C106.376 10.0408 104.887 9.77125 103.461 9.32813C101.969 8.92727 100.509 8.4212 99.0934 7.81396C96.851 6.74496 96.6698 2.54859 99.2273 1.21003C100.575 0.451462 102.103 0.0440264 103.662 0.0273864C105.221 0.0107465 106.758 0.385471 108.123 1.11508C108.903 1.56607 109.531 2.22703 109.931 3.01753C110.331 3.80804 110.485 4.69403 110.374 5.56773Z" fill="black"/>
<path d="M32.2571 17.6487C31.7876 17.8214 31.2691 17.8213 30.7997 17.6484C30.3303 17.4754 29.9426 17.1417 29.7102 16.7104C28.2475 14.5908 26.6342 12.5661 25.082 10.4985L24.4097 9.62862C22.5624 12.027 20.7152 14.3253 19.0291 16.7196C18.8089 17.1315 18.4417 17.4519 17.9958 17.6209C17.5499 17.79 17.0558 17.7962 16.6055 17.6385L23.5403 8.63109L17.0923 0.489509C17.5564 0.327246 18.064 0.325077 18.5296 0.48337C18.9951 0.641663 19.39 0.950724 19.6477 1.35839C21.1451 3.47802 22.809 5.5027 24.455 7.64887C26.1136 5.52006 27.7544 3.48721 29.2887 1.38392C29.5096 0.978899 29.8763 0.666625 30.3193 0.506436C30.7622 0.346247 31.2505 0.349307 31.6913 0.515034L29.1896 3.73021C28.0684 5.15964 26.9661 6.60642 25.7996 8.00521C25.623 8.15892 25.5165 8.37421 25.5035 8.60389C25.4904 8.83356 25.5719 9.05888 25.7301 9.23043C25.7519 9.25425 25.775 9.27671 25.7996 9.29781C27.943 12.0535 30.0684 14.8164 32.2571 17.6487Z" fill="black"/>
<path d="M61.6889 0.401367V1.6174C59.9682 1.50821 58.2732 2.06568 56.9766 3.16721C55.6801 4.26874 54.8882 5.82412 54.7751 7.4913C54.761 7.70299 54.7579 7.91434 54.7656 8.12535V17.6831H53.4832V0.470797H54.7382V3.99841C56.2904 1.42647 58.6846 0.470796 61.6889 0.401367Z" fill="black"/>
<path d="M0.00010538 8.51654C0.187677 7.64766 0.304645 6.70117 0.564926 5.81493C2.11608 0.470935 8.4387 -1.75386 12.7887 1.5573C15.3356 3.49723 15.9721 6.2407 15.8446 9.33335H1.49751C1.26358 14.8601 5.38066 18.1968 10.6442 16.4937C11.4982 16.1979 12.2626 15.7005 12.8684 15.0467C13.4742 14.3928 13.9024 13.603 14.1143 12.7487C14.3925 11.8798 14.8414 11.7276 15.695 11.9839C15.5549 13.0415 15.1692 14.0545 14.5669 14.9469C13.9646 15.8392 13.1613 16.5877 12.2175 17.136C10.6565 17.9645 8.86495 18.2931 7.09942 18.0747C5.33389 17.8562 3.68501 17.102 2.389 15.9199C1.10971 14.5231 0.336683 12.7594 0.187677 10.8975C0.160253 10.6025 0.100195 10.3112 0.00853544 10.0287C0.00221281 9.51271 -0.000597134 9.00867 0.00010538 8.51654ZM1.51543 8.14285H14.4916C14.4104 4.1374 11.8013 1.29592 8.32173 1.27039C4.44807 1.21832 1.67665 3.99855 1.50594 8.12549L1.51543 8.14285Z" fill="black"/>
</g>
<defs>
<clipPath id="clip0_1634_8440">
<rect width="111" height="24" fill="white"/>
</clipPath>
</defs>
</svg>
