<svg width="113" height="68" viewBox="0 0 113 68" fill="none" xmlns="http://www.w3.org/2000/svg">
<g clip-path="url(#clip0_1634_23867)">
<path d="M26.7173 17.8949H47.9847V19.5848H28.6668V32.3038H46.8328V33.9937H28.6668V47.9579H48.2063V49.6478H26.7173V17.8949ZM49.89 17.8949H52.1496L62.163 31.8591L72.398 17.8949L86.3192 0.157227L63.448 33.3266L75.2337 49.6478H72.8854L62.163 34.7942L51.3964 49.6478H49.0924L60.9668 33.3266L49.89 17.8949ZM76.0755 19.5848V17.8949H100.312V19.5848H89.1461V49.6478H87.1966V19.5848H76.0755Z" fill="black"/>
<path d="M0.111084 17.895H2.54798L36.1513 68.1663L22.2647 49.6479L2.14921 20.2965L2.0606 49.6479H0.111084V17.895Z" fill="black"/>
<path d="M100.115 47.4478C100.518 47.4478 100.812 47.1392 100.812 46.7405C100.812 46.3418 100.518 46.0333 100.115 46.0333C99.7167 46.0333 99.418 46.3418 99.418 46.7405C99.418 47.1392 99.7167 47.4478 100.115 47.4478ZM102.031 45.5871C102.031 46.7643 102.879 47.5332 104.117 47.5332C105.435 47.5332 106.232 46.7405 106.232 45.364V40.5177H105.17V45.3593C105.17 46.1235 104.786 46.5317 104.107 46.5317C103.501 46.5317 103.088 46.1519 103.074 45.5871H102.031ZM107.621 45.5254C107.697 46.75 108.716 47.5332 110.234 47.5332C111.855 47.5332 112.87 46.712 112.87 45.402C112.87 44.372 112.292 43.8024 110.888 43.4748L110.134 43.2897C109.243 43.0809 108.882 42.8008 108.882 42.3119C108.882 41.6949 109.442 41.2914 110.281 41.2914C111.078 41.2914 111.628 41.6854 111.727 42.3167H112.761C112.699 41.1632 111.685 40.3516 110.295 40.3516C108.802 40.3516 107.806 41.1632 107.806 42.3831C107.806 43.3894 108.37 43.9875 109.608 44.277L110.49 44.4906C111.395 44.7042 111.794 45.0175 111.794 45.5396C111.794 46.1472 111.168 46.5886 110.314 46.5886C109.399 46.5886 108.764 46.1757 108.674 45.5254H107.621Z" fill="black"/>
</g>
<defs>
<clipPath id="clip0_1634_23867">
<rect width="113" height="68" fill="white"/>
</clipPath>
</defs>
</svg>
