<svg width="74" height="46" viewBox="0 0 74 46" fill="none" xmlns="http://www.w3.org/2000/svg">
<path d="M31.25 16.34H57.5C57.5 23.3019 54.7344 29.9787 49.8116 34.9015C44.8887 39.8244 38.2119 42.59 31.25 42.59C24.2881 42.59 17.6113 39.8244 12.6884 34.9015C7.76562 29.9787 5 23.3019 5 16.34C5 16.23 5 16.11 5 16L31.25 16.34Z" fill="#3C50E0"/>
<path d="M24.8768 29.73H24.2075C20.7923 29.5422 17.5646 28.1088 15.1351 25.7012C12.7057 23.2936 11.2432 20.079 11.0245 16.6656C10.9119 14.7828 11.1885 12.8971 11.8372 11.1259C12.4859 9.35483 13.4927 7.73643 14.7947 6.37174C16.0902 4.99882 17.6512 3.9034 19.3827 3.15191C21.1144 2.40041 22.9806 2.00852 24.8683 2.00001C26.4175 1.99823 27.9558 2.25892 29.418 2.77099C31.2532 3.40694 32.9193 4.45296 34.2896 5.82951L44.3293 15.8608L34.476 25.7226C33.0631 27.1703 31.3392 28.277 29.4349 28.959C27.9705 29.4736 26.4289 29.7344 24.8768 29.73ZM24.8768 6.6598C23.6238 6.65783 22.3835 6.9118 21.2321 7.40617C20.0807 7.90054 19.0424 8.62489 18.1809 9.53479C17.3195 10.4447 16.6529 11.521 16.2221 12.6976C15.7913 13.8743 15.6054 15.1266 15.6758 16.3776C15.7555 17.7986 16.1634 19.1818 16.8676 20.4186C17.5717 21.6553 18.5529 22.7122 19.7342 23.506C20.9155 24.2998 22.2646 24.809 23.6758 24.9937C25.087 25.1783 26.5217 25.0334 27.8676 24.5703C29.121 24.1182 30.2541 23.3849 31.1802 22.4268L37.7378 15.8608L30.96 9.0829C30.082 8.20935 29.0195 7.54351 27.8506 7.13425C26.8902 6.8097 25.882 6.64931 24.8683 6.6598H24.8768Z" fill="#0A1158"/>
<path d="M65.3054 6.3379C64.0021 4.96597 62.433 3.87382 60.6939 3.12804C58.9546 2.38226 57.0818 1.99847 55.1895 2.00006C53.6407 1.99556 52.1025 2.25338 50.6398 2.76257C48.8067 3.40711 47.1418 4.45525 45.7682 5.82956L40.7949 10.7944L44.1246 14.124L49.0894 9.15073C49.9731 8.27618 51.0413 7.61038 52.2157 7.20208C53.1818 6.86221 54.1991 6.69027 55.2233 6.69374C56.4698 6.69776 57.7024 6.955 58.8465 7.44985C59.9905 7.94469 61.0221 8.66683 61.8785 9.57243C62.735 10.478 63.3986 11.5482 63.8289 12.718C64.2592 13.8878 64.4474 15.1329 64.382 16.3777C64.2435 18.6463 63.2749 20.7846 61.6606 22.3847C60.0465 23.9848 57.8998 24.9347 55.63 25.0534C54.4798 25.112 53.3291 24.948 52.2411 24.5704L51.9107 24.4518C50.786 23.988 49.7682 23.2989 48.9199 22.4269L44.1246 17.6316L40.7949 20.9019L45.5903 25.6888C46.9959 27.1431 48.7181 28.2534 50.6229 28.9337L50.9956 29.0608C52.3324 29.4873 53.727 29.7045 55.1301 29.7047H55.8333C58.4874 29.5891 61.0524 28.7132 63.2229 27.1814C65.3933 25.6495 67.0779 23.5261 68.0758 21.0641C69.0739 18.6022 69.3434 15.9052 68.8521 13.2944C68.361 10.6836 67.1299 8.26892 65.3054 6.3379Z" fill="#0A1158"/>
</svg>
