<svg width="68" height="52" viewBox="0 0 68 52" fill="none" xmlns="http://www.w3.org/2000/svg">
<path d="M49.52 50.53H6V7" fill="#3C50E0"/>
<path d="M7.80218 4.51611C7.43608 5.2241 7.24525 6.00734 7.24525 6.80186C7.24525 7.59636 7.43608 8.37962 7.80218 9.08762H0.569432C0.423896 9.08113 0.286493 9.01971 0.185866 8.91589C0.0852378 8.81216 0.0291511 8.67419 0.0292972 8.53073V5.073C0.0292972 4.9253 0.0888718 4.78365 0.194915 4.67922C0.300958 4.57478 0.444784 4.51611 0.594751 4.51611H7.80218Z" fill="#0A1158"/>
<path d="M48.0003 5.073V8.53073C48.0003 8.67843 47.9407 8.82006 47.8347 8.92446C47.7286 9.02893 47.5848 9.08762 47.4348 9.08762H17.1113C17.4774 8.37962 17.6683 7.59636 17.6683 6.80186C17.6683 6.00734 17.4774 5.2241 17.1113 4.51611H47.4348C47.5848 4.51611 47.7286 4.57478 47.8347 4.67922C47.9407 4.78365 48.0003 4.9253 48.0003 5.073Z" fill="#0A1158"/>
<path d="M35.5347 16.7178C34.9749 17.3515 34.6665 18.1634 34.6665 19.0035C34.6665 19.8436 34.9749 20.6554 35.5347 21.2893H0.569432C0.423896 21.2828 0.286493 21.2213 0.185866 21.1175C0.0852378 21.0138 0.0291511 20.8758 0.0292972 20.7324V17.2747C0.0292972 17.127 0.0888718 16.9853 0.194915 16.8809C0.300958 16.7765 0.444784 16.7178 0.594751 16.7178H35.5347Z" fill="#0A1158"/>
<path d="M47.9986 17.2747V20.7324C47.9986 20.8801 47.939 21.0217 47.833 21.1261C47.7269 21.2306 47.5831 21.2893 47.4331 21.2893H40.8418C41.4017 20.6554 41.71 19.8436 41.71 19.0035C41.71 18.1634 41.4017 17.3515 40.8418 16.7178H47.4331C47.5831 16.7178 47.7269 16.7765 47.833 16.8809C47.939 16.9853 47.9986 17.127 47.9986 17.2747Z" fill="#0A1158"/>
<path d="M21.3477 28.9194C20.7879 29.5533 20.4795 30.3651 20.4795 31.2052C20.4795 32.0453 20.7879 32.8571 21.3477 33.4909H0.569432C0.423896 33.4845 0.286493 33.423 0.185866 33.3193C0.0852378 33.2155 0.0291511 33.0776 0.0292972 32.934V29.4763C0.0292972 29.3286 0.0888718 29.187 0.194915 29.0826C0.300958 28.9781 0.444784 28.9194 0.594751 28.9194H21.3477Z" fill="#0A1158"/>
<path d="M47.9987 29.4763V32.934C47.9987 33.0817 47.9392 33.2234 47.8331 33.3278C47.7271 33.4322 47.5832 33.4909 47.4332 33.4909H26.6465C27.2114 32.8595 27.5231 32.0468 27.5231 31.2052C27.5231 30.3636 27.2114 29.551 26.6465 28.9194H47.4332C47.5832 28.9194 47.7271 28.9781 47.8331 29.0826C47.9392 29.187 47.9987 29.3286 47.9987 29.4763Z" fill="#0A1158"/>
<path d="M12.4623 13.6173C11.1774 13.6246 9.91659 13.2742 8.8251 12.6066C7.73361 11.939 6.85583 10.9813 6.29293 9.84372C5.80509 8.91088 5.5532 7.87584 5.55868 6.82656C5.55569 5.76597 5.81033 4.72005 6.30137 3.77613C6.87222 2.6467 7.75163 1.69646 8.84071 1.03224C9.92984 0.368005 11.1855 0.0161133 12.4665 0.0161133C13.7475 0.0161133 15.0031 0.368005 16.0923 1.03224C17.1814 1.69646 18.0608 2.6467 18.6317 3.77613C19.1147 4.71037 19.3635 5.74494 19.3575 6.79331C19.3597 7.68726 19.183 8.57293 18.8378 9.39962C18.4924 10.2264 17.9852 10.978 17.3449 11.6117C16.7047 12.2454 15.9439 12.7486 15.1061 13.0928C14.2684 13.4369 13.37 13.6151 12.4623 13.6173ZM12.4623 3.35223C11.8111 3.35119 11.1723 3.52769 10.6167 3.86217C10.0611 4.19665 9.61032 4.67607 9.31434 5.24732C9.06309 5.72798 8.93287 6.26104 8.93456 6.80162C8.93363 7.32887 9.06402 7.84828 9.31434 8.31437C9.60205 8.89534 10.0497 9.38499 10.6063 9.72752C11.1629 10.07 11.806 10.2517 12.4623 10.2517C13.1186 10.2517 13.7617 10.07 14.3183 9.72752C14.8749 9.38499 15.3226 8.89534 15.6103 8.31437C15.8604 7.83632 15.9907 7.30618 15.9901 6.76838C15.9825 6.25807 15.8523 5.75677 15.6103 5.3055C15.3284 4.71689 14.8833 4.2188 14.3263 3.86876C13.7693 3.51872 13.1231 3.331 12.4623 3.3273V3.35223Z" fill="#0A1158"/>
<path d="M44.6845 16.7175C44.2066 15.3979 43.3259 14.2563 42.1632 13.449C41.0006 12.6418 39.6128 12.2085 38.1903 12.2085C36.7678 12.2085 35.38 12.6418 34.2173 13.449C33.0547 14.2563 32.174 15.3979 31.696 16.7175C31.156 18.1949 31.156 19.8115 31.696 21.289C32.174 22.6085 33.0547 23.7502 34.2173 24.5574C35.38 25.3647 36.7678 25.7979 38.1903 25.7979C39.6128 25.7979 41.0006 25.3647 42.1632 24.5574C43.3259 23.7502 44.2066 22.6085 44.6845 21.289C45.2245 19.8115 45.2245 18.1949 44.6845 16.7175ZM38.186 22.4776C37.3802 22.4771 36.5987 22.2051 35.9717 21.7065C35.3447 21.2079 34.9099 20.5129 34.7396 19.7372C34.5694 18.9613 34.674 18.1515 35.036 17.4424C35.398 16.7334 35.9957 16.1677 36.7295 15.8396C37.4634 15.5115 38.2891 15.4408 39.0694 15.6391C39.8497 15.8375 40.5376 16.293 41.0185 16.9298C41.4994 17.5668 41.7444 18.3466 41.7128 19.1396C41.6811 19.9327 41.3748 20.6913 40.8445 21.289C40.5139 21.6633 40.1055 21.9632 39.6467 22.1684C39.188 22.3734 38.6898 22.4789 38.186 22.4776Z" fill="#0A1158"/>
<path d="M30.497 28.9197C30.019 27.6001 29.1384 26.4585 27.9757 25.6513C26.813 24.844 25.4253 24.4106 24.0028 24.4106C22.5802 24.4106 21.1925 24.844 20.0298 25.6513C18.8672 26.4585 17.9864 27.6001 17.5085 28.9197C16.9685 30.3971 16.9685 32.0138 17.5085 33.4912C17.9864 34.8107 18.8672 35.9524 20.0298 36.7596C21.1925 37.5669 22.5802 38.0002 24.0028 38.0002C25.4253 38.0002 26.813 37.5669 27.9757 36.7596C29.1384 35.9524 30.019 34.8107 30.497 33.4912C31.037 32.0138 31.037 30.3971 30.497 28.9197ZM23.9985 34.6798C23.19 34.6822 22.4051 34.4116 21.7745 33.9132C21.144 33.4148 20.7059 32.7186 20.5332 31.9407C20.3607 31.1628 20.4639 30.3502 20.8258 29.6381C21.1877 28.9261 21.7865 28.3577 22.5223 28.0277C23.2581 27.6977 24.0866 27.626 24.8695 27.8245C25.6525 28.023 26.3428 28.4798 26.8253 29.1187C27.3078 29.7575 27.5535 30.54 27.5213 31.3357C27.4892 32.1313 27.1811 32.8921 26.6486 33.4912C26.3189 33.8645 25.9117 34.1638 25.4545 34.3688C24.9974 34.5739 24.5009 34.6799 23.9985 34.6798Z" fill="#0A1158"/>
</svg>
