<svg width="71" height="68" viewBox="0 0 71 68" fill="none" xmlns="http://www.w3.org/2000/svg">
<path d="M45 64.9996L4 65L4.94526 19L45 64.9996Z" fill="#FF5670"/>
<path d="M43.6012 28.1174C42.9322 28.2951 42.3311 28.6672 41.8735 29.1866C41.416 29.7061 41.1228 30.3495 41.031 31.0356C40.9391 31.7216 41.0528 32.4196 41.3575 33.041C41.6622 33.6625 42.1445 34.1796 42.7431 34.5271C43.3418 34.8746 44.03 35.0367 44.7208 34.993C45.4116 34.9493 46.074 34.7018 46.6242 34.2817C47.1743 33.8616 47.5875 33.2879 47.8115 32.633C48.0356 31.978 48.0604 31.2714 47.883 30.6024C47.765 30.158 47.5607 29.7413 47.2818 29.3759C47.0027 29.0105 46.6545 28.7036 46.2569 28.4729C45.8593 28.2421 45.4201 28.0919 44.9645 28.0309C44.5088 27.9699 44.0455 27.9993 43.6012 28.1174Z" fill="#0A1158"/>
<path d="M32.6012 21.1174C31.9323 21.2951 31.3311 21.6672 30.8735 22.1866C30.416 22.7061 30.1228 23.3495 30.031 24.0356C29.9391 24.7216 30.0527 25.4196 30.3575 26.041C30.6622 26.6625 31.1445 27.1796 31.7431 27.5271C32.3418 27.8746 33.03 28.0367 33.7208 27.993C34.4116 27.9493 35.074 27.7018 35.6242 27.2817C36.1743 26.8616 36.5875 26.2879 36.8115 25.633C37.0356 24.978 37.0604 24.2714 36.883 23.6024C36.765 23.158 36.5607 22.7413 36.2818 22.3759C36.0027 22.0105 35.6545 21.7036 35.2569 21.4729C34.8593 21.2421 34.4201 21.0919 33.9645 21.0309C33.5088 20.9699 33.0455 20.9993 32.6012 21.1174Z" fill="#0A1158"/>
<path d="M21.2296 28.1174C20.6562 28.2951 20.1409 28.6672 19.7487 29.1866C19.3566 29.7061 19.1053 30.3495 19.0266 31.0356C18.9478 31.7216 19.0452 32.4196 19.3064 33.041C19.5676 33.6625 19.981 34.1796 20.4941 34.5271C21.0072 34.8746 21.5972 35.0367 22.1893 34.993C22.7814 34.9493 23.3491 34.7018 23.8207 34.2817C24.2922 33.8616 24.6464 33.2879 24.8385 32.633C25.0305 31.978 25.0518 31.2714 24.8997 30.6024C24.7986 30.158 24.6235 29.7413 24.3844 29.3759C24.1452 29.0105 23.8467 28.7036 23.5059 28.4729C23.1651 28.2421 22.7886 28.0919 22.3981 28.0309C22.0075 27.9699 21.6105 27.9993 21.2296 28.1174Z" fill="#0A1158"/>
<path d="M21.2296 42.1174C20.6562 42.2951 20.1409 42.6672 19.7487 43.1866C19.3566 43.7061 19.1053 44.3495 19.0266 45.0356C18.9478 45.7216 19.0452 46.4196 19.3064 47.041C19.5676 47.6625 19.981 48.1796 20.4941 48.5271C21.0072 48.8746 21.5972 49.0367 22.1893 48.993C22.7814 48.9493 23.3491 48.7018 23.8207 48.2817C24.2922 47.8616 24.6464 47.2879 24.8385 46.633C25.0305 45.978 25.0518 45.2714 24.8997 44.6024C24.7986 44.158 24.6235 43.7413 24.3844 43.3759C24.1452 43.0105 23.8467 42.7036 23.5059 42.4729C23.1651 42.2421 22.7886 42.0919 22.3981 42.0309C22.0075 41.9699 21.6105 41.9993 21.2296 42.1174Z" fill="#0A1158"/>
<path d="M33.4547 10.0166C29.7652 9.88832 26.0876 10.5042 22.6413 11.8277C19.1949 13.1511 16.0504 15.1549 13.3949 17.7197C10.7396 20.2845 8.62777 23.3576 7.18547 26.756C5.74319 30.1545 4.99992 33.8085 5 37.5003C5.00849 44.7911 7.90844 51.7808 13.0637 56.9362C18.2189 62.0915 25.2085 64.9915 32.4991 65C33.2737 65 34.0344 64.9496 34.7907 64.8854C35.3645 64.837 35.8991 64.5744 36.288 64.1498C36.677 63.7252 36.8918 63.1696 36.8898 62.5938L36.8165 54.3714C36.7979 52.7465 37.2641 51.153 38.1553 49.7944C39.0466 48.4356 40.3226 47.3734 41.8203 46.7433C43.3181 46.1133 44.9697 45.9438 46.5642 46.2568C48.1586 46.5697 49.6237 47.3508 50.7723 48.5002L51.0014 48.7293C51.5217 49.254 52.1661 49.6386 52.8749 49.8473C53.5836 50.0561 54.3337 50.0822 55.0552 49.9233C55.7651 49.7743 56.4262 49.4491 56.9777 48.9778C57.529 48.5065 57.9531 47.9041 58.2107 47.226C59.476 43.9038 60.0809 40.3667 59.9913 36.8128C59.7334 29.8325 56.8624 23.2038 51.9474 18.2407C47.0324 13.2776 40.432 10.3423 33.4547 10.0166ZM54.0378 45.3079L54.0057 45.2758C52.2144 43.4876 49.9318 42.2725 47.448 41.7853C44.9642 41.2981 42.3917 41.5608 40.0577 42.5399C37.7236 43.5189 35.7336 45.1702 34.3407 47.2836C32.9478 49.397 32.215 51.877 32.2356 54.408L32.2906 60.4167C26.2129 60.3894 20.395 57.9487 16.1168 53.6318C11.8385 49.3148 9.45042 43.4749 9.47775 37.3972C9.50516 31.3194 11.9457 25.5013 16.2626 21.223C20.5795 16.9447 26.4191 14.5565 32.4969 14.5839C32.7649 14.5839 33.0353 14.5839 33.3058 14.5976C39.1181 14.8706 44.6158 17.3172 48.7095 21.4525C52.8031 25.5878 55.1939 31.1101 55.4082 36.9251C55.4838 39.775 55.0212 42.6135 54.0447 45.2919L54.0378 45.3079Z" fill="#0A1158"/>
</svg>
