<svg width="59" height="71" viewBox="0 0 59 71" fill="none" xmlns="http://www.w3.org/2000/svg">
<path fill-rule="evenodd" clip-rule="evenodd" d="M28 47.5V71C14.7498 71 4 60.4742 4 47.5C4 34.5258 14.7498 24 28 24V47.5Z" fill="#3C50E0"/>
<path d="M41.0555 7H21.9445C18.7778 7.00384 15.7419 8.27813 13.5026 10.5434C11.2634 12.8086 10.0038 15.8798 10 19.0834V52.9166C10.0038 56.1202 11.2634 59.1914 13.5026 61.4566C15.7419 63.7219 18.7778 64.9962 21.9445 65H41.0555C44.2222 64.9962 47.2582 63.7219 49.4974 61.4566C51.7366 59.1914 52.9963 56.1202 53 52.9166V19.0834C52.9963 15.8798 51.7366 12.8086 49.4974 10.5434C47.2582 8.27813 44.2222 7.00384 41.0555 7ZM48.2223 52.9166C48.2223 54.8395 47.4672 56.6835 46.1232 58.0432C44.7792 59.4028 42.9563 60.1666 41.0555 60.1666H33.8889V57.75C33.8889 57.1091 33.6372 56.4943 33.1892 56.0411C32.7412 55.5879 32.1336 55.3334 31.5 55.3334C30.8664 55.3334 30.2588 55.5879 29.8108 56.0411C29.3628 56.4943 29.1112 57.1091 29.1112 57.75V60.1666H21.9445C20.0438 60.1666 18.2209 59.4028 16.8769 58.0432C15.5329 56.6835 14.7777 54.8395 14.7777 52.9166V19.0834C14.7777 17.1605 15.5329 15.3165 16.8769 13.9568C18.2209 12.5972 20.0438 11.8333 21.9445 11.8333H41.0555C42.9563 11.8333 44.7792 12.5972 46.1232 13.9568C47.4672 15.3165 48.2223 17.1605 48.2223 19.0834V52.9166ZM41.0555 16.6666C41.0555 17.3076 40.8039 17.9223 40.3559 18.3755C39.9079 18.8287 39.3003 19.0834 38.6667 19.0834H24.3333C23.6998 19.0834 23.0922 18.8287 22.6441 18.3755C22.1961 17.9223 21.9445 17.3076 21.9445 16.6666C21.9445 16.0257 22.1961 15.411 22.6441 14.9578C23.0922 14.5046 23.6998 14.25 24.3333 14.25H38.6667C39.3003 14.25 39.9079 14.5046 40.3559 14.9578C40.8039 15.411 41.0555 16.0257 41.0555 16.6666Z" fill="#0A1158"/>
</svg>
