<svg width="69" height="63" viewBox="0 0 69 63" fill="none" xmlns="http://www.w3.org/2000/svg">
<g clip-path="url(#clip0_720_843)">
<path d="M26.2491 36.4201H52.4891C52.5573 39.9097 51.9288 43.3779 50.6404 46.6218C49.3521 49.8656 47.4298 52.8199 44.986 55.3119C42.5421 57.8039 39.6259 59.7835 36.4078 61.1349C33.1897 62.4863 29.7345 63.1824 26.2441 63.1824C22.7538 63.1824 19.2986 62.4863 16.0805 61.1349C12.8624 59.7835 9.94615 57.8039 7.50233 55.3119C5.05851 52.8199 3.13619 49.8656 1.84785 46.6218C0.559515 43.3779 -0.0689797 39.9097 -0.000859017 36.4201V36.0801L26.2491 36.4201Z" fill="#FDB400"/>
<path d="M46.5594 59.7598C47.8555 59.8073 49.1533 59.7471 50.4394 59.5798C52.8532 59.0192 55.0029 57.6507 56.5325 55.701C58.062 53.7514 58.8795 51.3377 58.8494 48.8598C58.8325 48.7587 58.8367 48.6552 58.8618 48.5559C58.887 48.4565 58.9325 48.3635 58.9955 48.2826C59.0584 48.2018 59.1375 48.1349 59.2277 48.0862C59.3179 48.0375 59.4173 48.0081 59.5194 47.9998C60.949 47.6886 62.3011 47.0926 63.4952 46.2473C64.6893 45.402 65.7008 44.3247 66.4694 43.0798C67.375 41.7114 67.9028 40.1279 67.9994 38.4898V35.9598C67.8694 35.4598 67.9294 34.9598 67.7894 34.4398C67.4466 33.1234 66.8745 31.8777 66.0994 30.7598C65.9932 30.6378 65.9347 30.4816 65.9347 30.3198C65.9347 30.1581 65.9932 30.0018 66.0994 29.8798C67.1872 28.3781 67.8442 26.6077 67.9994 24.7598V22.2598C67.9473 21.588 67.8538 20.9201 67.7194 20.2598C67.1573 18.3504 66.0922 16.6272 64.6354 15.2707C63.1787 13.9143 61.384 12.9745 59.4394 12.5498C58.9694 12.4398 58.7994 12.2298 58.8194 11.7698C58.8521 10.7513 58.7169 9.73443 58.4194 8.75982C57.6623 6.04415 55.8914 3.72283 53.4723 2.27508C51.0531 0.827325 48.1705 0.363669 45.4194 0.979823C42.8041 1.48177 40.4731 2.94887 38.8894 5.08982C38.5094 5.58982 38.4994 5.58982 38.1394 5.08982C37.4848 4.19664 36.6954 3.4106 35.7994 2.75982C33.7771 1.33106 31.3319 0.626392 28.8594 0.759823C27.4359 0.78345 26.0322 1.09715 24.734 1.68175C23.4359 2.26634 22.2706 3.10955 21.3094 4.15982C20.3273 5.17457 19.5565 6.37417 19.0415 7.68908C18.5265 9.00398 18.2777 10.408 18.3094 11.8198C18.3251 11.9085 18.3218 11.9995 18.2999 12.0869C18.278 12.1743 18.2379 12.256 18.1822 12.3268C18.1265 12.3976 18.0565 12.4558 17.9767 12.4977C17.897 12.5396 17.8093 12.5642 17.7194 12.5698C15.4325 13.0562 13.3616 14.2625 11.8104 16.0117C10.2591 17.761 9.30898 19.9612 9.09941 22.2898C8.95849 23.7049 9.07022 25.1338 9.42941 26.5098C9.73176 27.4823 10.1551 28.4129 10.6894 29.2798C11.4394 30.4798 11.4794 30.1098 10.6894 31.2798C10.5594 31.4898 10.4394 31.7098 10.3194 31.9298C9.33187 33.7673 8.89444 35.8503 9.05941 37.9298C9.10196 39.3363 9.42866 40.7196 10.0198 41.9965C10.611 43.2734 11.4545 44.4174 12.4994 45.3598C13.9544 46.7484 15.7759 47.6921 17.7494 48.0798C17.826 48.083 17.9011 48.1025 17.9696 48.1369C18.0381 48.1713 18.0985 48.22 18.1468 48.2796C18.195 48.3392 18.23 48.4084 18.2494 48.4826C18.2689 48.5568 18.2723 48.6342 18.2594 48.7098C18.2342 49.3058 18.2745 49.9027 18.3794 50.4898C18.5961 51.9548 19.1064 53.3609 19.8796 54.6239C20.6529 55.8868 21.6732 56.9807 22.8794 57.8398C24.3745 58.9431 26.1475 59.6079 27.9994 59.7598H30.4994C31.0394 59.6298 31.5894 59.6998 32.1294 59.5498C34.5797 58.9094 36.7363 57.4481 38.2394 55.4098C38.4894 55.0798 38.6294 55.0698 38.8694 55.4098C39.5501 56.3627 40.3929 57.1886 41.3594 57.8498C42.8658 58.9446 44.6436 59.6053 46.4994 59.7598H46.8494H46.5594ZM36.8494 30.2798C36.8494 36.4398 36.8494 42.5965 36.8494 48.7498C36.8251 49.7347 36.6071 50.7052 36.2077 51.6059C35.8084 52.5065 35.2355 53.3197 34.5219 53.9989C33.8083 54.6782 32.9679 55.2103 32.0486 55.5647C31.1294 55.9192 30.1493 56.0891 29.1644 56.0648C28.1795 56.0405 27.209 55.8225 26.3084 55.4231C25.4077 55.0238 24.5946 54.4509 23.9153 53.7373C23.236 53.0237 22.704 52.1833 22.3495 51.264C21.9951 50.3448 21.8251 49.3647 21.8494 48.3798C21.8494 48.0398 21.9894 47.9398 22.3094 47.8698C24.2536 47.4633 26.0468 46.5252 27.4894 45.1598C27.6985 45.0198 27.875 44.8363 28.0067 44.6219C28.1385 44.4074 28.2224 44.1671 28.2528 43.9173C28.2832 43.6674 28.2594 43.414 28.183 43.1742C28.1065 42.9344 27.9793 42.7139 27.8099 42.5278C27.6405 42.3417 27.4329 42.1943 27.2014 42.0957C26.9698 41.9971 26.7197 41.9496 26.4681 41.9564C26.2166 41.9632 25.9694 42.0243 25.7436 42.1353C25.5177 42.2463 25.3185 42.4048 25.1594 42.5998C23.7101 43.8242 21.8493 44.4512 19.9545 44.3536C18.0598 44.2561 16.2732 43.4412 14.9574 42.0745C13.6415 40.7077 12.895 38.8915 12.8694 36.9944C12.8438 35.0973 13.5409 33.2616 14.8194 31.8598C15.9994 30.7598 15.9994 29.8998 14.8294 28.7598C13.4885 27.3784 12.7328 25.5327 12.7197 23.6075C12.7067 21.6824 13.4374 19.8266 14.7595 18.4272C16.0815 17.0277 17.8928 16.1927 19.8156 16.0963C21.7383 16 23.624 16.6496 25.0794 17.9098C25.3791 18.238 25.7685 18.4709 26.1994 18.5798C26.5548 18.6546 26.9248 18.6157 27.2568 18.4685C27.5888 18.3213 27.8662 18.0734 28.0494 17.7598C28.2314 17.4179 28.2948 17.0252 28.2296 16.6434C28.1645 16.2615 27.9745 15.9121 27.6894 15.6498C26.2446 14.1979 24.4111 13.1943 22.4094 12.7598C21.9594 12.6698 21.8694 12.4798 21.8594 12.0798C21.7901 10.2068 22.4255 8.37581 23.6403 6.94841C24.855 5.52101 26.5608 4.60094 28.4208 4.36985C30.2808 4.13876 32.1599 4.61345 33.687 5.70019C35.2141 6.78694 36.2783 8.40675 36.6694 10.2398C36.7871 10.8425 36.8407 11.4559 36.8294 12.0698L36.8494 30.2798ZM40.2994 45.1998C40.3594 43.1298 40.1394 12.6298 40.4194 10.5698C40.6919 8.81211 41.5852 7.2102 42.9373 6.05444C44.2893 4.89868 46.0107 4.26555 47.7894 4.26982C49.5686 4.2774 51.2874 4.91555 52.6405 6.07087C53.9935 7.22618 54.8931 8.82382 55.1794 10.5798C55.3258 11.5791 55.2817 12.597 55.0494 13.5798C54.9386 13.8648 54.9048 14.1739 54.9514 14.4761C54.9981 14.7783 55.1235 15.0629 55.3151 15.3011C55.5068 15.5394 55.7578 15.723 56.0429 15.8333C56.3281 15.9437 56.6373 15.977 56.9394 15.9298C58.6639 15.8852 60.35 16.4429 61.7078 17.5069C63.0657 18.5709 64.0103 20.0747 64.3794 21.7598C64.6871 23.007 64.6556 24.3137 64.2881 25.5446C63.9206 26.7754 63.2305 27.8856 62.2894 28.7598C61.1694 29.8898 61.1494 30.7598 62.2894 31.8398C63.3689 32.8794 64.1108 34.2196 64.4186 35.6863C64.7265 37.153 64.586 38.6784 64.0155 40.0643C63.445 41.4501 62.4708 42.6323 61.2196 43.4572C59.9683 44.2821 58.4979 44.7116 56.9994 44.6898C56.553 44.6495 56.1068 44.7692 55.7404 45.0275C55.3741 45.2857 55.1114 45.6658 54.9994 46.0998C54.9564 46.4357 54.9871 46.777 55.0894 47.0998C55.3132 48.0585 55.3455 49.052 55.1846 50.0232C55.0236 50.9944 54.6725 51.9243 54.1514 52.7596C53.6302 53.5948 52.9494 54.319 52.1478 54.8905C51.3462 55.462 50.4397 55.8697 49.4802 56.0902C48.5208 56.3106 47.5272 56.3395 46.5565 56.1752C45.5859 56.0108 44.6572 55.6565 43.8238 55.1325C42.9904 54.6085 42.2686 53.9251 41.6998 53.1215C41.1311 52.318 40.7265 51.4101 40.5094 50.4498C40.3644 49.7158 40.304 48.9676 40.3294 48.2198C40.3294 46.7998 40.3294 45.3798 40.3294 43.9598L40.2994 45.1998ZM40.3294 28.1098C40.3294 25.7298 40.3294 23.3532 40.3294 20.9798V28.1098ZM40.3294 39.6598C40.3294 37.2698 40.3294 34.8698 40.3294 32.4698V39.6598Z" fill="#00005C" stroke="#00005C" stroke-width="1.5" stroke-miterlimit="10"/>
</g>
<defs>
<clipPath id="clip0_720_843">
<rect width="68.78" height="62.67" fill="white"/>
</clipPath>
</defs>
</svg>
