<svg width="77" height="65" viewBox="0 0 77 65" fill="none" xmlns="http://www.w3.org/2000/svg">
<path fill-rule="evenodd" clip-rule="evenodd" d="M7 65H32.4438C58.4571 62.0749 60.9823 32.9932 45.0888 21.2996C35.0419 14.1392 7.48137 13.6086 7 38.0544V65Z" fill="#FF5670"/>
<path d="M60.4999 5H25.5C22.186 5.00397 19.0089 6.32221 16.6655 8.66555C14.3222 11.0089 13.004 14.186 13 17.5V47.5C13.004 50.814 14.3222 53.9911 16.6655 56.3344C19.0089 58.6778 22.186 59.996 25.5 60H60.4999C63.814 59.996 66.9911 58.6778 69.3344 56.3344C71.6778 53.9911 72.996 50.814 73 47.5V17.5C72.996 14.186 71.6778 11.0089 69.3344 8.66555C66.9911 6.32221 63.814 5.00397 60.4999 5ZM25.5 10H60.4999C62.4891 10 64.3967 10.7902 65.8033 12.1967C67.2098 13.6032 68 15.5109 68 17.5V20H18V17.5C18 15.5109 18.7902 13.6032 20.1967 12.1967C21.6032 10.7902 23.5108 10 25.5 10ZM60.4999 55H25.5C23.5108 55 21.6032 54.2098 20.1967 52.8034C18.7902 51.3968 18 49.4891 18 47.5V25H68V47.5C68 49.4891 67.2098 51.3968 65.8033 52.8034C64.3967 54.2098 62.4891 55 60.4999 55ZM60.4999 35C60.4999 35.663 60.2366 36.299 59.7678 36.7678C59.2989 37.2366 58.663 37.5 57.9999 37.5H28C27.3369 37.5 26.7011 37.2366 26.2323 36.7678C25.7634 36.299 25.5 35.663 25.5 35C25.5 34.3369 25.7634 33.7011 26.2323 33.2322C26.7011 32.7634 27.3369 32.5 28 32.5H57.9999C58.663 32.5 59.2989 32.7634 59.7678 33.2322C60.2366 33.7011 60.4999 34.3369 60.4999 35ZM50.5 45C50.5 45.663 50.2366 46.299 49.7677 46.7678C49.2989 47.2366 48.6631 47.5 48 47.5H28C27.3369 47.5 26.7011 47.2366 26.2323 46.7678C25.7634 46.299 25.5 45.663 25.5 45C25.5 44.3369 25.7634 43.7011 26.2323 43.2323C26.7011 42.7634 27.3369 42.5 28 42.5H48C48.6631 42.5 49.2989 42.7634 49.7677 43.2323C50.2366 43.7011 50.5 44.3369 50.5 45ZM20.5 15C20.5 14.5056 20.6466 14.0222 20.9213 13.6111C21.196 13.2 21.5865 12.8795 22.0433 12.6903C22.5001 12.5011 23.0028 12.4516 23.4878 12.548C23.9727 12.6445 24.4181 12.8826 24.7678 13.2322C25.1174 13.5819 25.3555 14.0273 25.452 14.5123C25.5484 14.9972 25.4989 15.4999 25.3097 15.9567C25.1205 16.4135 24.8001 16.804 24.3889 17.0787C23.9778 17.3533 23.4944 17.5 23 17.5C22.3369 17.5 21.7011 17.2366 21.2322 16.7677C20.7634 16.2989 20.5 15.6631 20.5 15ZM28 15C28 14.5056 28.1467 14.0222 28.4213 13.6111C28.696 13.2 29.0865 12.8795 29.5433 12.6903C30.0001 12.5011 30.5028 12.4516 30.9877 12.548C31.4727 12.6445 31.9182 12.8826 32.2678 13.2322C32.6174 13.5819 32.8555 14.0273 32.9519 14.5123C33.0484 14.9972 32.9989 15.4999 32.8097 15.9567C32.6205 16.4135 32.3 16.804 31.8889 17.0787C31.4778 17.3533 30.9944 17.5 30.5 17.5C29.8369 17.5 29.2011 17.2366 28.7323 16.7677C28.2634 16.2989 28 15.6631 28 15ZM35.5 15C35.5 14.5056 35.6466 14.0222 35.9214 13.6111C36.1961 13.2 36.5864 12.8795 37.0433 12.6903C37.5001 12.5011 38.0028 12.4516 38.4877 12.548C38.9727 12.6445 39.4181 12.8826 39.7677 13.2322C40.1174 13.5819 40.3555 14.0273 40.4519 14.5123C40.5484 14.9972 40.4989 15.4999 40.3097 15.9567C40.1205 16.4135 39.8 16.804 39.3889 17.0787C38.9778 17.3533 38.4944 17.5 38 17.5C37.337 17.5 36.7011 17.2366 36.2322 16.7677C35.7633 16.2989 35.5 15.6631 35.5 15Z" fill="#0A1158"/>
</svg>
