<svg width="48" height="38" viewBox="0 0 48 38" fill="none" xmlns="http://www.w3.org/2000/svg">
<path d="M7.77288 4.5C7.40679 5.20799 7.21595 5.99123 7.21595 6.78574C7.21595 7.58025 7.40679 8.3635 7.77288 9.0715H0.540135C0.394599 9.06502 0.257196 9.0036 0.156569 8.89978C0.0559409 8.79605 -0.000145805 8.65807 2.84675e-07 8.51461V5.05689C2.84675e-07 4.90919 0.059575 4.76754 0.165618 4.6631C0.271661 4.55866 0.415487 4.5 0.565454 4.5H7.77288Z" fill="#0231C8"/>
<path d="M47.971 5.05689V8.51461C47.971 8.66231 47.9114 8.80395 47.8054 8.90834C47.6993 9.01282 47.5555 9.0715 47.4055 9.0715H17.082C17.4481 8.3635 17.639 7.58025 17.639 6.78574C17.639 5.99123 17.4481 5.20799 17.082 4.5H47.4055C47.5555 4.5 47.6993 4.55866 47.8054 4.6631C47.9114 4.76754 47.971 4.90919 47.971 5.05689Z" fill="#0231C8"/>
<path d="M35.5054 16.7017C34.9456 17.3354 34.6372 18.1472 34.6372 18.9874C34.6372 19.8275 34.9456 20.6393 35.5054 21.2731H0.540135C0.394599 21.2667 0.257196 21.2052 0.156569 21.1014C0.0559409 20.9977 -0.000145805 20.8597 2.84675e-07 20.7163V17.2586C2.84675e-07 17.1108 0.059575 16.9692 0.165618 16.8647C0.271661 16.7603 0.415487 16.7017 0.565454 16.7017H35.5054Z" fill="#0231C8"/>
<path d="M47.9693 17.2586V20.7163C47.9693 20.864 47.9097 21.0056 47.8037 21.11C47.6976 21.2145 47.5538 21.2731 47.4038 21.2731H40.8125C41.3724 20.6393 41.6807 19.8275 41.6807 18.9874C41.6807 18.1472 41.3724 17.3354 40.8125 16.7017H47.4038C47.5538 16.7017 47.6976 16.7603 47.8037 16.8647C47.9097 16.9692 47.9693 17.1108 47.9693 17.2586Z" fill="#0231C8"/>
<path d="M21.3184 28.9033C20.7586 29.5372 20.4502 30.349 20.4502 31.1891C20.4502 32.0292 20.7586 32.841 21.3184 33.4748H0.540136C0.394599 33.4684 0.257196 33.4069 0.156569 33.3032C0.055941 33.1994 -0.000145805 33.0615 2.84675e-07 32.9179V29.4602C2.84675e-07 29.3125 0.059575 29.1709 0.165618 29.0665C0.271661 28.962 0.415487 28.9033 0.565454 28.9033H21.3184Z" fill="#0231C8"/>
<path d="M47.9694 29.4602V32.9179C47.9694 33.0656 47.9099 33.2073 47.8038 33.3117C47.6978 33.4161 47.5539 33.4748 47.4039 33.4748H26.6172C27.1821 32.8434 27.4938 32.0307 27.4938 31.1891C27.4938 30.3475 27.1821 29.5349 26.6172 28.9033H47.4039C47.5539 28.9033 47.6978 28.962 47.8038 29.0665C47.9099 29.1709 47.9694 29.3125 47.9694 29.4602Z" fill="#0231C8"/>
<path d="M12.433 13.6012C11.1481 13.6085 9.88729 13.2581 8.7958 12.5905C7.70431 11.9229 6.82654 10.9652 6.26363 9.8276C5.7758 8.89477 5.52391 7.85973 5.52938 6.81045C5.52639 5.74985 5.78104 4.70394 6.27207 3.76002C6.84292 2.63059 7.72233 1.68035 8.81141 1.01612C9.90054 0.351892 11.1562 0 12.4372 0C13.7182 0 14.9738 0.351892 16.063 1.01612C17.1521 1.68035 18.0315 2.63059 18.6024 3.76002C19.0854 4.69426 19.3343 5.72883 19.3282 6.7772C19.3304 7.67115 19.1537 8.55681 18.8085 9.3835C18.4631 10.2103 17.9559 10.9619 17.3156 11.5956C16.6754 12.2293 15.9146 12.7325 15.0768 13.0767C14.2391 13.4208 13.3407 13.599 12.433 13.6012ZM12.433 3.33612C11.7818 3.33508 11.143 3.51157 10.5874 3.84605C10.0318 4.18054 9.58102 4.65995 9.28504 5.23121C9.0338 5.71187 8.90357 6.24493 8.90526 6.78551C8.90433 7.31275 9.03472 7.83217 9.28504 8.29826C9.57275 8.87923 10.0204 9.36888 10.577 9.7114C11.1336 10.0539 11.7767 10.2355 12.433 10.2355C13.0893 10.2355 13.7324 10.0539 14.289 9.7114C14.8456 9.36888 15.2933 8.87923 15.581 8.29826C15.8311 7.82021 15.9614 7.29007 15.9608 6.75226C15.9532 6.24195 15.823 5.74066 15.581 5.28939C15.2991 4.70078 14.854 4.20269 14.297 3.85265C13.74 3.5026 13.0938 3.31489 12.433 3.31118V3.33612Z" fill="#0231C8"/>
<path d="M44.6552 16.7014C44.1773 15.3818 43.2966 14.2402 42.1339 13.4329C40.9713 12.6257 39.5836 12.1924 38.161 12.1924C36.7385 12.1924 35.3507 12.6257 34.188 13.4329C33.0254 14.2402 32.1447 15.3818 31.6667 16.7014C31.1267 18.1788 31.1267 19.7954 31.6667 21.2729C32.1447 22.5924 33.0254 23.7341 34.188 24.5413C35.3507 25.3485 36.7385 25.7818 38.161 25.7818C39.5836 25.7818 40.9713 25.3485 42.1339 24.5413C43.2966 23.7341 44.1773 22.5924 44.6552 21.2729C45.1952 19.7954 45.1952 18.1788 44.6552 16.7014ZM38.1568 22.4614C37.3509 22.461 36.5694 22.189 35.9424 21.6904C35.3154 21.1918 34.8806 20.4968 34.7104 19.721C34.5401 18.9452 34.6447 18.1354 35.0068 17.4263C35.3687 16.7172 35.9664 16.1516 36.7002 15.8235C37.4341 15.4954 38.2598 15.4247 39.0401 15.623C39.8205 15.8214 40.5083 16.2769 40.9892 16.9137C41.4701 17.5507 41.7151 18.3305 41.6835 19.1235C41.6518 19.9166 41.3455 20.6751 40.8152 21.2729C40.4846 21.6472 40.0762 21.9471 39.6174 22.1522C39.1587 22.3573 38.6605 22.4628 38.1568 22.4614Z" fill="#0231C8"/>
<path d="M30.4678 28.9036C29.9897 27.584 29.1091 26.4424 27.9464 25.6351C26.7837 24.8279 25.396 24.3945 23.9735 24.3945C22.5509 24.3945 21.1632 24.8279 20.0005 25.6351C18.8379 26.4424 17.9571 27.584 17.4792 28.9036C16.9392 30.381 16.9392 31.9977 17.4792 33.4751C17.9571 34.7946 18.8379 35.9363 20.0005 36.7435C21.1632 37.5508 22.5509 37.9841 23.9735 37.9841C25.396 37.9841 26.7837 37.5508 27.9464 36.7435C29.1091 35.9363 29.9897 34.7946 30.4678 33.4751C31.0077 31.9977 31.0077 30.381 30.4678 28.9036ZM23.9693 34.6637C23.1607 34.6661 22.3758 34.3954 21.7452 33.8971C21.1147 33.3987 20.6766 32.7025 20.5039 31.9246C20.3314 31.1467 20.4346 30.3341 20.7965 29.622C21.1584 28.91 21.7572 28.3416 22.493 28.0116C23.2288 27.6816 24.0573 27.6099 24.8402 27.8084C25.6232 28.0068 26.3135 28.4637 26.796 29.1026C27.2785 29.7414 27.5242 30.5239 27.492 31.3196C27.4599 32.1152 27.1518 32.876 26.6193 33.4751C26.2896 33.8484 25.8824 34.1477 25.4253 34.3527C24.9681 34.5578 24.4716 34.6638 23.9693 34.6637Z" fill="#0231C8"/>
</svg>
