<svg width="55" height="55" viewBox="0 0 55 55" fill="none" xmlns="http://www.w3.org/2000/svg">
<path d="M38.6012 18.1174C37.9322 18.2951 37.3311 18.6672 36.8735 19.1866C36.416 19.7061 36.1228 20.3495 36.031 21.0356C35.9391 21.7216 36.0528 22.4196 36.3575 23.041C36.6622 23.6625 37.1445 24.1796 37.7431 24.5271C38.3418 24.8746 39.03 25.0367 39.7208 24.993C40.4116 24.9493 41.074 24.7018 41.6242 24.2817C42.1743 23.8616 42.5875 23.2879 42.8115 22.633C43.0356 21.978 43.0604 21.2714 42.883 20.6024C42.765 20.158 42.5607 19.7413 42.2818 19.3759C42.0027 19.0105 41.6545 18.7036 41.2569 18.4729C40.8593 18.2421 40.4201 18.0919 39.9645 18.0309C39.5088 17.9699 39.0455 17.9993 38.6012 18.1174Z" fill="#0231C8"/>
<path d="M27.6012 11.1174C26.9323 11.2951 26.3311 11.6672 25.8735 12.1866C25.416 12.7061 25.1228 13.3495 25.031 14.0356C24.9391 14.7216 25.0527 15.4196 25.3575 16.041C25.6622 16.6625 26.1445 17.1796 26.7431 17.5271C27.3418 17.8746 28.03 18.0367 28.7208 17.993C29.4116 17.9493 30.074 17.7018 30.6242 17.2817C31.1743 16.8616 31.5875 16.2879 31.8115 15.633C32.0356 14.978 32.0604 14.2714 31.883 13.6024C31.765 13.158 31.5607 12.7413 31.2818 12.3759C31.0027 12.0105 30.6545 11.7036 30.2569 11.4729C29.8593 11.2421 29.4201 11.0919 28.9645 11.0309C28.5088 10.9699 28.0455 10.9993 27.6012 11.1174Z" fill="#0231C8"/>
<path d="M16.2296 18.1174C15.6562 18.2951 15.1409 18.6672 14.7487 19.1866C14.3566 19.7061 14.1053 20.3495 14.0266 21.0356C13.9478 21.7216 14.0452 22.4196 14.3064 23.041C14.5676 23.6625 14.981 24.1796 15.4941 24.5271C16.0072 24.8746 16.5972 25.0367 17.1893 24.993C17.7814 24.9493 18.3491 24.7018 18.8207 24.2817C19.2922 23.8616 19.6464 23.2879 19.8385 22.633C20.0305 21.978 20.0518 21.2714 19.8997 20.6024C19.7986 20.158 19.6235 19.7413 19.3844 19.3759C19.1452 19.0105 18.8467 18.7036 18.5059 18.4729C18.1651 18.2421 17.7886 18.0919 17.3981 18.0309C17.0075 17.9699 16.6105 17.9993 16.2296 18.1174Z" fill="#0231C8"/>
<path d="M16.2296 32.1174C15.6562 32.2951 15.1409 32.6672 14.7487 33.1866C14.3566 33.7061 14.1053 34.3495 14.0266 35.0356C13.9478 35.7216 14.0452 36.4196 14.3064 37.041C14.5676 37.6625 14.981 38.1796 15.4941 38.5271C16.0072 38.8746 16.5972 39.0367 17.1893 38.993C17.7814 38.9493 18.3491 38.7018 18.8207 38.2817C19.2922 37.8616 19.6464 37.2879 19.8385 36.633C20.0305 35.978 20.0518 35.2714 19.8997 34.6024C19.7986 34.158 19.6235 33.7413 19.3844 33.3759C19.1452 33.0105 18.8467 32.7036 18.5059 32.4729C18.1651 32.2421 17.7886 32.0919 17.3981 32.0309C17.0075 31.9699 16.6105 31.9993 16.2296 32.1174Z" fill="#0231C8"/>
<path d="M28.4547 0.0166098C24.7652 -0.11168 21.0876 0.504249 17.6413 1.82768C14.1949 3.1511 11.0504 5.15494 8.39493 7.7197C5.73959 10.2845 3.62777 13.3576 2.18547 16.756C0.743186 20.1545 -7.61463e-05 23.8085 5.85113e-09 27.5003C0.00848674 34.7911 2.90844 41.7808 8.06367 46.9362C13.2189 52.0915 20.2085 54.9915 27.4991 55C28.2737 55 29.0344 54.9496 29.7907 54.8854C30.3645 54.837 30.8991 54.5744 31.288 54.1498C31.677 53.7252 31.8918 53.1696 31.8898 52.5938L31.8165 44.3714C31.7979 42.7465 32.2641 41.153 33.1553 39.7944C34.0466 38.4356 35.3226 37.3734 36.8203 36.7433C38.3181 36.1133 39.9697 35.9438 41.5642 36.2568C43.1586 36.5697 44.6237 37.3508 45.7723 38.5002L46.0014 38.7293C46.5217 39.254 47.1661 39.6386 47.8749 39.8473C48.5836 40.0561 49.3337 40.0822 50.0552 39.9233C50.7651 39.7743 51.4262 39.4491 51.9777 38.9778C52.529 38.5065 52.9531 37.9041 53.2107 37.226C54.476 33.9038 55.0809 30.3667 54.9913 26.8128C54.7334 19.8325 51.8624 13.2038 46.9474 8.2407C42.0324 3.27758 35.432 0.342281 28.4547 0.0166098ZM49.0378 35.3079L49.0057 35.2758C47.2144 33.4876 44.9318 32.2725 42.448 31.7853C39.9642 31.2981 37.3917 31.5608 35.0577 32.5399C32.7236 33.5189 30.7336 35.1702 29.3407 37.2836C27.9478 39.397 27.215 41.877 27.2356 44.408L27.2906 50.4167C21.2129 50.3894 15.395 47.9487 11.1168 43.6318C6.83855 39.3148 4.45042 33.4749 4.47775 27.3972C4.50516 21.3194 6.94567 15.5013 11.2626 11.223C15.5795 6.94468 21.4191 4.5565 27.4969 4.58385C27.7649 4.58385 28.0353 4.58385 28.3058 4.5976C34.1181 4.87061 39.6158 7.31719 43.7095 11.4525C47.8031 15.5878 50.1939 21.1101 50.4082 26.9251C50.4838 29.775 50.0212 32.6135 49.0447 35.2919L49.0378 35.3079Z" fill="#0231C8"/>
</svg>
