<svg width="59" height="28" viewBox="0 0 59 28" fill="none" xmlns="http://www.w3.org/2000/svg">
<path d="M13.8768 27.73H13.2075C9.79229 27.5422 6.56458 26.1088 4.13513 23.7012C1.70569 21.2936 0.243196 18.079 0.0244825 14.6656C-0.0881235 12.7828 0.18855 10.8971 0.837227 9.12591C1.4859 7.35483 2.49266 5.73643 3.79468 4.37174C5.09022 2.99882 6.65117 1.9034 8.38275 1.15191C10.1144 0.400414 11.9806 0.00852403 13.8683 9.00327e-06C15.4175 -0.00176596 16.9558 0.258918 18.418 0.770993C20.2532 1.40694 21.9193 2.45296 23.2896 3.82951L33.3293 13.8608L23.476 23.7226C22.0631 25.1703 20.3392 26.277 18.4349 26.959C16.9705 27.4736 15.4289 27.7344 13.8768 27.73ZM13.8768 4.6598C12.6238 4.65783 11.3835 4.9118 10.2321 5.40617C9.0807 5.90054 8.04241 6.62489 7.18094 7.53479C6.31947 8.44468 5.65287 9.52098 5.22205 10.6976C4.79132 11.8743 4.60543 13.1266 4.67584 14.3776C4.75548 15.7986 5.16342 17.1818 5.86756 18.4186C6.5717 19.6553 7.55288 20.7122 8.73418 21.506C9.91548 22.2998 11.2646 22.809 12.6758 22.9937C14.087 23.1783 15.5217 23.0334 16.8676 22.5703C18.121 22.1182 19.2541 21.3849 20.1802 20.4268L26.7378 13.8608L19.96 7.0829C19.082 6.20935 18.0195 5.54351 16.8506 5.13425C15.8902 4.8097 14.882 4.64931 13.8683 4.6598H13.8768Z" fill="#0231C8"/>
<path d="M54.3054 4.3379C53.0021 2.96597 51.433 1.87382 49.6939 1.12804C47.9546 0.382261 46.0818 -0.00153211 44.1895 5.78578e-05C42.6407 -0.00444031 41.1025 0.253376 39.6398 0.76257C37.8067 1.40711 36.1418 2.45525 34.7682 3.82956L29.7949 8.79439L33.1246 12.124L38.0894 7.15073C38.9731 6.27618 40.0413 5.61038 41.2157 5.20208C42.1818 4.86221 43.1991 4.69027 44.2233 4.69374C45.4698 4.69776 46.7024 4.955 47.8465 5.44985C48.9905 5.94469 50.0221 6.66683 50.8785 7.57243C51.735 8.47803 52.3986 9.54817 52.8289 10.718C53.2592 11.8878 53.4474 13.1329 53.382 14.3777C53.2435 16.6463 52.2749 18.7846 50.6606 20.3847C49.0465 21.9848 46.8998 22.9347 44.63 23.0534C43.4798 23.112 42.3291 22.948 41.2411 22.5704L40.9107 22.4518C39.786 21.988 38.7682 21.2989 37.9199 20.4269L33.1246 15.6316L29.7949 18.9019L34.5903 23.6888C35.9959 25.1431 37.7181 26.2534 39.6229 26.9337L39.9956 27.0608C41.3324 27.4873 42.727 27.7045 44.1301 27.7047H44.8333C47.4874 27.5891 50.0524 26.7132 52.2229 25.1814C54.3933 23.6495 56.0779 21.5261 57.0758 19.0641C58.0739 16.6022 58.3434 13.9052 57.8521 11.2944C57.361 8.68357 56.1299 6.26892 54.3054 4.3379Z" fill="#0231C8"/>
</svg>
