<svg width="35" height="52" viewBox="0 0 35 52" fill="none" xmlns="http://www.w3.org/2000/svg">
<path d="M27.6576 34.6436H7.01172" stroke="#0231C8" stroke-width="2" stroke-linecap="round" stroke-linejoin="round"/>
<path d="M29.587 41.165H5.39681C3.73011 41.165 2.37891 42.5248 2.37891 44.2021V46.8155C2.37891 48.4929 3.73011 49.8526 5.39681 49.8526H29.587C31.2537 49.8526 32.6049 48.4929 32.6049 46.8155V44.2021C32.6049 42.5248 31.2537 41.165 29.587 41.165Z" stroke="#0231C8" stroke-width="3.5" stroke-linecap="round" stroke-linejoin="round"/>
<path d="M5.9472 41.1532C5.9472 28.1217 15.656 27.9334 15.656 22.3182V20.1169L9.8775 21.7296L9.0937 22.9068C8.5145 23.7661 7.6202 24.3591 6.607 24.5555C5.5938 24.752 4.5446 24.5358 3.6896 23.9545L3.6077 23.8839C2.7917 23.288 2.237 22.397 2.0603 21.3981C1.8836 20.3992 2.0987 19.3703 2.6602 18.5277L7.8655 10.7935C8.4242 9.96864 9.1742 9.29319 10.0506 8.82554C10.927 8.35788 11.9034 8.11215 12.8954 8.1096H15.656V2C35.6234 9.65171 23.4347 37.6216 29.7045 41.1532" stroke="#0231C8" stroke-width="3.5" stroke-linecap="round" stroke-linejoin="round"/>
</svg>
