<svg width="43" height="58" viewBox="0 0 43 58" fill="none" xmlns="http://www.w3.org/2000/svg">
<path d="M31.0555 0H11.9445C8.77775 0.00383732 5.74185 1.27813 3.5026 3.54336C1.26344 5.8086 0.00381595 8.87981 0 12.0834V45.9166C0.00381595 49.1202 1.26344 52.1914 3.5026 54.4566C5.74185 56.7219 8.77775 57.9962 11.9445 58H31.0555C34.2222 57.9962 37.2582 56.7219 39.4974 54.4566C41.7366 52.1914 42.9963 49.1202 43 45.9166V12.0834C42.9963 8.87981 41.7366 5.8086 39.4974 3.54336C37.2582 1.27813 34.2222 0.00383732 31.0555 0ZM38.2223 45.9166C38.2223 47.8395 37.4672 49.6835 36.1232 51.0432C34.7792 52.4028 32.9563 53.1666 31.0555 53.1666H23.8889V50.75C23.8889 50.1091 23.6372 49.4943 23.1892 49.0411C22.7412 48.5879 22.1336 48.3334 21.5 48.3334C20.8664 48.3334 20.2588 48.5879 19.8108 49.0411C19.3628 49.4943 19.1112 50.1091 19.1112 50.75V53.1666H11.9445C10.0438 53.1666 8.22089 52.4028 6.87688 51.0432C5.53286 49.6835 4.77775 47.8395 4.77775 45.9166V12.0834C4.77775 10.1605 5.53286 8.31645 6.87688 6.95681C8.22089 5.59717 10.0438 4.83334 11.9445 4.83334H31.0555C32.9563 4.83334 34.7792 5.59717 36.1232 6.95681C37.4672 8.31645 38.2223 10.1605 38.2223 12.0834V45.9166ZM31.0555 9.66664C31.0555 10.3076 30.8039 10.9223 30.3559 11.3755C29.9079 11.8287 29.3003 12.0834 28.6667 12.0834H14.3333C13.6998 12.0834 13.0922 11.8287 12.6441 11.3755C12.1961 10.9223 11.9445 10.3076 11.9445 9.66664C11.9445 9.02569 12.1961 8.41104 12.6441 7.95782C13.0922 7.50461 13.6998 7.25 14.3333 7.25H28.6667C29.3003 7.25 29.9079 7.50461 30.3559 7.95782C30.8039 8.41104 31.0555 9.02569 31.0555 9.66664Z" fill="#0231C8"/>
</svg>
