<svg width="61" height="61" viewBox="0 0 61 61" fill="none" xmlns="http://www.w3.org/2000/svg">
<path d="M38.534 60.046C39.8301 60.0934 41.1279 60.0332 42.414 59.866C44.8278 59.3053 46.9776 57.9368 48.5071 55.9872C50.0366 54.0375 50.8541 51.6238 50.824 49.146C50.8071 49.0449 50.8113 48.9414 50.8364 48.842C50.8616 48.7427 50.9071 48.6496 50.9701 48.5687C51.0331 48.4879 51.1122 48.421 51.2023 48.3723C51.2925 48.3237 51.3919 48.2942 51.494 48.286C52.9236 47.9748 54.2757 47.3787 55.4698 46.5334C56.6639 45.6881 57.6755 44.6108 58.444 43.366C59.3496 41.9975 59.8774 40.4141 59.974 38.776V36.246C59.844 35.746 59.904 35.246 59.764 34.726C59.4212 33.4095 58.8491 32.1638 58.074 31.046C57.9678 30.924 57.9093 30.7677 57.9093 30.606C57.9093 30.4442 57.9678 30.2879 58.074 30.166C59.1619 28.6642 59.8188 26.8938 59.974 25.046V22.546C59.9219 21.8742 59.8284 21.2062 59.694 20.546C59.132 18.6365 58.0668 16.9133 56.6101 15.5569C55.1533 14.2004 53.3587 13.2606 51.414 12.836C50.944 12.726 50.774 12.516 50.794 12.056C50.8267 11.0375 50.6915 10.0206 50.394 9.04596C49.6369 6.33028 47.866 4.00896 45.4469 2.56121C43.0278 1.11346 40.1451 0.649801 37.394 1.26596C34.7787 1.76791 32.4478 3.235 30.864 5.37596C30.484 5.87596 30.474 5.87596 30.114 5.37596C29.4594 4.48278 28.67 3.69673 27.774 3.04596C25.7517 1.61719 23.3065 0.912525 20.834 1.04596C19.4105 1.06958 18.0068 1.38328 16.7086 1.96788C15.4105 2.55247 14.2452 3.39568 13.284 4.44596C12.302 5.46071 11.5311 6.66031 11.0161 7.97521C10.5011 9.29011 10.2523 10.6942 10.284 12.106C10.2997 12.1947 10.2964 12.2857 10.2745 12.373C10.2526 12.4604 10.2125 12.5421 10.1568 12.6129C10.1011 12.6837 10.0311 12.742 9.95134 12.7838C9.8716 12.8257 9.78391 12.8503 9.69402 12.856C7.40714 13.3424 5.33625 14.5486 3.78496 16.2979C2.23367 18.0471 1.28359 20.2473 1.07402 22.576C0.933096 23.9911 1.04483 25.42 1.40402 26.796C1.70637 27.7684 2.12968 28.699 2.66402 29.566C3.41402 30.766 3.45402 30.396 2.66402 31.566C2.53402 31.776 2.41402 31.996 2.29402 32.216C1.30648 34.0534 0.869048 36.1364 1.03402 38.216C1.07657 39.6224 1.40327 41.0057 1.99446 42.2826C2.58564 43.5595 3.42909 44.7036 4.47402 45.646C5.92898 47.0345 7.75053 47.9782 9.72402 48.366C9.80064 48.3691 9.8757 48.3886 9.94421 48.423C10.0127 48.4575 10.0731 48.5061 10.1214 48.5657C10.1696 48.6253 10.2046 48.6945 10.224 48.7687C10.2435 48.8429 10.2469 48.9204 10.234 48.996C10.2088 49.5919 10.2491 50.1888 10.354 50.776C10.5707 52.2409 11.081 53.647 11.8542 54.91C12.6275 56.173 13.6478 57.2668 14.854 58.126C16.3492 59.2292 18.1221 59.8941 19.974 60.046H22.474C23.014 59.916 23.564 59.986 24.104 59.836C26.5543 59.1955 28.7109 57.7343 30.214 55.696C30.464 55.366 30.604 55.356 30.844 55.696C31.5247 56.6488 32.3676 57.4747 33.334 58.136C34.8404 59.2308 36.6182 59.8914 38.474 60.046H38.824H38.534ZM28.824 30.566C28.824 36.726 28.824 42.8826 28.824 49.036C28.7997 50.0209 28.5817 50.9914 28.1823 51.892C27.783 52.7926 27.2101 53.6058 26.4965 54.2851C25.7829 54.9643 24.9425 55.4964 24.0232 55.8508C23.104 56.2053 22.1239 56.3753 21.139 56.351C20.1541 56.3267 19.1836 56.1086 18.283 55.7093C17.3823 55.3099 16.5692 54.7371 15.8899 54.0234C15.2106 53.3098 14.6786 52.4694 14.3241 51.5502C13.9697 50.6309 13.7997 49.6509 13.824 48.666C13.824 48.326 13.964 48.226 14.284 48.156C16.2282 47.7495 18.0215 46.8113 19.464 45.446C19.6731 45.3059 19.8496 45.1224 19.9813 44.908C20.1131 44.6936 20.197 44.4532 20.2274 44.2034C20.2579 43.9536 20.234 43.7001 20.1576 43.4603C20.0811 43.2206 19.9539 43.0001 19.7845 42.814C19.6151 42.6278 19.4075 42.4804 19.176 42.3818C18.9444 42.2832 18.6943 42.2357 18.4427 42.2425C18.1912 42.2494 17.944 42.3104 17.7182 42.4214C17.4923 42.5325 17.2931 42.6909 17.134 42.886C15.6847 44.1103 13.8239 44.7374 11.9292 44.6398C10.0344 44.5422 8.24782 43.7273 6.93197 42.3606C5.61612 40.9938 4.86962 39.1776 4.844 37.2805C4.81838 35.3835 5.51556 33.5477 6.79402 32.146C7.97402 31.046 7.97402 30.186 6.80402 29.046C5.46315 27.6645 4.70738 25.8188 4.69435 23.8937C4.68132 21.9686 5.41203 20.1127 6.73408 18.7133C8.05613 17.3139 9.86743 16.4789 11.7902 16.3825C13.7129 16.2861 15.5986 16.9358 17.054 18.196C17.3537 18.5241 17.7431 18.7571 18.174 18.866C18.5294 18.9408 18.8994 18.9018 19.2314 18.7547C19.5635 18.6075 19.8408 18.3595 20.024 18.046C20.206 17.704 20.2694 17.3113 20.2042 16.9295C20.1391 16.5477 19.9491 16.1982 19.664 15.936C18.2192 14.484 16.3857 13.4805 14.384 13.046C13.934 12.956 13.844 12.766 13.834 12.366C13.7647 10.4929 14.4001 8.66194 15.6149 7.23454C16.8296 5.80714 18.5354 4.88707 20.3954 4.65598C22.2555 4.42489 24.1345 4.89958 25.6616 5.98633C27.1888 7.07307 28.2529 8.69289 28.644 10.526C28.7617 11.1286 28.8153 11.742 28.804 12.356L28.824 30.566ZM32.274 45.486C32.334 43.416 32.114 12.916 32.394 10.856C32.6666 9.09824 33.5598 7.49633 34.9119 6.34057C36.2639 5.18481 37.9853 4.55169 39.764 4.55596C41.5432 4.56353 43.262 5.20169 44.6151 6.357C45.9682 7.51231 46.8678 9.10995 47.154 10.866C47.3004 11.8652 47.2563 12.8831 47.024 13.866C46.9132 14.1509 46.8794 14.4601 46.926 14.7622C46.9727 15.0644 47.0981 15.349 47.2897 15.5873C47.4814 15.8255 47.7324 16.0091 48.0176 16.1195C48.3027 16.2298 48.6119 16.2631 48.914 16.216C50.6385 16.1714 52.3246 16.729 53.6824 17.793C55.0403 18.857 55.9849 20.3609 56.354 22.046C56.6618 23.2931 56.6302 24.5999 56.2627 25.8307C55.8952 27.0616 55.2051 28.1717 54.264 29.046C53.144 30.176 53.124 31.046 54.264 32.126C55.3435 33.1655 56.0854 34.5057 56.3932 35.9724C56.7011 37.4392 56.5606 38.9646 55.9901 40.3504C55.4196 41.7362 54.4454 42.9184 53.1942 43.7433C51.943 44.5682 50.4725 44.9977 48.974 44.976C48.5276 44.9356 48.0814 45.0553 47.715 45.3136C47.3487 45.5719 47.086 45.9519 46.974 46.386C46.931 46.7219 46.9617 47.0631 47.064 47.386C47.2878 48.3447 47.3201 49.3381 47.1592 50.3093C46.9982 51.2806 46.6471 52.2104 46.126 53.0457C45.6049 53.8809 44.924 54.6051 44.1224 55.1766C43.3208 55.7482 42.4143 56.1559 41.4548 56.3763C40.4954 56.5968 39.5018 56.6257 38.5312 56.4613C37.5605 56.297 36.6318 55.9426 35.7984 55.4186C34.965 54.8946 34.2432 54.2112 33.6744 53.4077C33.1057 52.6041 32.7011 51.6962 32.484 50.736C32.339 50.0019 32.2786 49.2537 32.304 48.506C32.304 47.086 32.304 45.666 32.304 44.246L32.274 45.486ZM32.304 28.396C32.304 26.016 32.304 23.6393 32.304 21.266V28.396ZM32.304 39.946C32.304 37.556 32.304 35.156 32.304 32.756V39.946Z" fill="#0231C8" stroke="#0231C8" stroke-width="1.5" stroke-miterlimit="10"/>
</svg>
