<svg width="60" height="55" viewBox="0 0 60 55" fill="none" xmlns="http://www.w3.org/2000/svg">
<path d="M47.4999 0H12.5C9.18605 0.00396964 6.00891 1.32221 3.66553 3.66555C1.32221 6.00889 0.00396535 9.186 0 12.5V42.5C0.00396535 45.814 1.32221 48.9911 3.66553 51.3344C6.00891 53.6778 9.18605 54.996 12.5 55H47.4999C50.814 54.996 53.9911 53.6778 56.3344 51.3344C58.6778 48.9911 59.996 45.814 60 42.5V12.5C59.996 9.186 58.6778 6.00889 56.3344 3.66555C53.9911 1.32221 50.814 0.00396964 47.4999 0ZM12.5 5H47.4999C49.4891 5 51.3967 5.79018 52.8033 7.1967C54.2098 8.60322 55 10.5109 55 12.5V15H5.00004V12.5C5.00004 10.5109 5.79016 8.60322 7.19669 7.1967C8.60322 5.79018 10.5108 5 12.5 5ZM47.4999 50H12.5C10.5108 50 8.60322 49.2098 7.19669 47.8034C5.79016 46.3968 5.00004 44.4891 5.00004 42.5V20H55V42.5C55 44.4891 54.2098 46.3968 52.8033 47.8034C51.3967 49.2098 49.4891 50 47.4999 50ZM47.4999 30C47.4999 30.663 47.2366 31.299 46.7678 31.7678C46.2989 32.2366 45.663 32.5 44.9999 32.5H15C14.3369 32.5 13.7011 32.2366 13.2323 31.7678C12.7634 31.299 12.5 30.663 12.5 30C12.5 29.3369 12.7634 28.7011 13.2323 28.2322C13.7011 27.7634 14.3369 27.5 15 27.5H44.9999C45.663 27.5 46.2989 27.7634 46.7678 28.2322C47.2366 28.7011 47.4999 29.3369 47.4999 30ZM37.5 40C37.5 40.663 37.2366 41.299 36.7677 41.7678C36.2989 42.2366 35.6631 42.5 35 42.5H15C14.3369 42.5 13.7011 42.2366 13.2323 41.7678C12.7634 41.299 12.5 40.663 12.5 40C12.5 39.3369 12.7634 38.7011 13.2323 38.2323C13.7011 37.7634 14.3369 37.5 15 37.5H35C35.6631 37.5 36.2989 37.7634 36.7677 38.2323C37.2366 38.7011 37.5 39.3369 37.5 40ZM7.50003 9.99998C7.50003 9.50557 7.64659 9.02218 7.9213 8.61108C8.19601 8.19996 8.58647 7.87953 9.04331 7.69031C9.50006 7.50108 10.0028 7.45158 10.4878 7.54804C10.9727 7.6445 11.4181 7.88261 11.7678 8.23223C12.1174 8.58187 12.3555 9.0273 12.452 9.51225C12.5484 9.99721 12.4989 10.4999 12.3097 10.9567C12.1205 11.4135 11.8001 11.804 11.3889 12.0787C10.9778 12.3533 10.4944 12.5 10 12.5C9.33694 12.5 8.70109 12.2366 8.23219 11.7677C7.76338 11.2989 7.50003 10.6631 7.50003 9.99998ZM15 9.99998C15 9.50557 15.1467 9.02218 15.4213 8.61108C15.696 8.19996 16.0865 7.87953 16.5433 7.69031C17.0001 7.50108 17.5028 7.45158 17.9877 7.54804C18.4727 7.6445 18.9182 7.88261 19.2678 8.23223C19.6174 8.58187 19.8555 9.0273 19.9519 9.51225C20.0484 9.99721 19.9989 10.4999 19.8097 10.9567C19.6205 11.4135 19.3 11.804 18.8889 12.0787C18.4778 12.3533 17.9944 12.5 17.5 12.5C16.8369 12.5 16.2011 12.2366 15.7323 11.7677C15.2634 11.2989 15 10.6631 15 9.99998ZM22.5 9.99998C22.5 9.50557 22.6466 9.02218 22.9214 8.61108C23.1961 8.19996 23.5864 7.87953 24.0433 7.69031C24.5001 7.50108 25.0028 7.45158 25.4877 7.54804C25.9727 7.6445 26.4181 7.88261 26.7677 8.23223C27.1174 8.58187 27.3555 9.0273 27.4519 9.51225C27.5484 9.99721 27.4989 10.4999 27.3097 10.9567C27.1205 11.4135 26.8 11.804 26.3889 12.0787C25.9778 12.3533 25.4944 12.5 25 12.5C24.337 12.5 23.7011 12.2366 23.2322 11.7677C22.7633 11.2989 22.5 10.6631 22.5 9.99998Z" fill="#0231C8"/>
</svg>
