<svg width="710" height="292" viewBox="0 0 710 292" fill="none" xmlns="http://www.w3.org/2000/svg">
<g clip-path="url(#clip0_692_17702)">
<path d="M431.809 148.921L473.37 107.45L431.809 65.9789L444.48 53.339L498.713 107.45L444.48 161.56L431.809 148.921Z" fill="#E6E6E6"/>
<path d="M330.016 90.8126H313.121V107.722H330.016V90.8126Z" fill="#E6E6E6"/>
<path d="M397.934 90.8126H381.039V107.722H397.934V90.8126Z" fill="#E6E6E6"/>
<path d="M363.975 90.8126H347.08V107.722H363.975V90.8126Z" fill="#E6E6E6"/>
<path d="M290.229 148.498L248.625 107.027L290.186 65.5564L277.515 52.9165L223.324 107.027L277.557 161.138L290.229 148.498Z" fill="#E6E6E6"/>
<path d="M431.809 140.889L473.37 99.418L431.809 57.9466L444.48 45.3066L498.713 99.418L444.48 153.529L431.809 140.889Z" fill="#0231C8"/>
<path d="M313.121 102.377H330.016V85.4672H313.121L313.121 102.377ZM397.934 85.4672H381.039V102.377H397.934V85.4672ZM347.08 102.377H363.975V85.4672H347.08V102.377Z" fill="#0231C8"/>
<path d="M290.229 140.466L248.625 98.9949L290.186 57.5241L277.515 44.8842L223.324 98.9949L277.557 153.106L290.229 140.466Z" fill="#0231C8"/>
<path d="M86.7734 275.681L96.2316 277.969L109.552 242.547L95.5927 239.169L86.7734 275.681Z" fill="#A0616A"/>
<path d="M82.2949 284.181L85.1993 272.157L103.704 276.635C106.818 277.392 109.505 279.355 111.175 282.092C112.845 284.83 113.362 288.118 112.613 291.237L112.548 291.501L82.2949 284.181Z" fill="#2F2E41"/>
<path d="M128.642 282.13L138.373 282.129L143.001 244.565L128.641 244.566L128.642 282.13Z" fill="#A0616A"/>
<path d="M126.285 279.075L145.323 279.074H145.323C148.529 279.074 151.604 280.348 153.87 282.617C156.137 284.886 157.411 287.963 157.411 291.171V291.444L126.286 291.445L126.285 279.075Z" fill="#2F2E41"/>
<path d="M126.36 269.131L127.96 210.692L125.805 186.996L121.6 205.232L103.226 265.201L87.3867 261.029L105.731 196.368L101.747 154.895L113.194 147.53L113.348 147.558L152.458 154.773L143.01 267.465L126.36 269.131Z" fill="#2F2E41"/>
<path d="M141.839 162.909C138.689 162.909 135.006 161.893 130.906 158.997C117.785 149.729 102.142 159.699 101.985 159.8L101.35 160.213L101.372 159.455C101.388 158.915 102.959 105.245 102.959 87.9742C102.959 70.1313 114.59 57.1035 118.155 53.5358C121.654 50.0333 124.598 50.1109 128.325 50.2078C128.967 50.2241 129.637 50.242 130.341 50.242C135.211 50.242 139.946 54.9251 140.146 55.1245L140.241 55.2199L140.258 55.3534L153.773 157.198L153.669 157.329C153.607 157.409 149.169 162.909 141.839 162.909Z" fill="#CCCCCC"/>
<path d="M149.513 34.0776C154.677 24.6228 151.205 12.7683 141.758 7.59981C132.312 2.43135 120.467 5.9061 115.303 15.3609C110.139 24.8157 113.611 36.6702 123.058 41.8387C132.504 47.0071 144.349 43.5324 149.513 34.0776Z" fill="#A0616A"/>
<path d="M162.25 179.216C161.328 178.501 160.574 177.592 160.04 176.553C159.507 175.514 159.208 174.371 159.164 173.204C159.119 172.037 159.331 170.875 159.785 169.799C160.238 168.723 160.921 167.759 161.787 166.976L150.717 140.841L165.212 143.511L173.502 167.92C174.72 169.463 175.33 171.399 175.217 173.362C175.104 175.325 174.276 177.178 172.889 178.57C171.502 179.962 169.653 180.797 167.692 180.916C165.731 181.035 163.795 180.43 162.25 179.216Z" fill="#A0616A"/>
<path d="M159.114 164.339L139.111 123.498L130.34 92.759L130.347 66.0556C130.367 65.9501 132.428 55.5629 140.071 56.2812C147.001 56.953 150.733 60.3446 152.551 67.6218C154.095 73.8037 151.983 92.1438 151.779 93.8745C153.12 97.0566 173.237 145.031 169.907 150.808C169.782 151.033 169.6 151.221 169.38 151.354L172.945 158.887L159.114 164.339Z" fill="#CCCCCC"/>
<path d="M129.916 32.0697C132.253 32.374 134.016 29.9811 134.833 27.769C135.651 25.557 136.274 22.9818 138.305 21.7869C141.081 20.1544 144.632 22.1178 147.807 21.5792C151.391 20.971 153.722 17.1687 153.904 13.5344C154.087 9.90014 152.642 6.40471 151.224 3.05392L150.729 7.2182C150.795 5.80682 150.499 4.40206 149.867 3.13827C149.236 1.87448 148.291 0.793937 147.124 0L147.762 6.11042C147.626 5.26739 147.325 4.45951 146.877 3.73311C146.428 3.00672 145.841 2.37612 145.148 1.87752C144.455 1.37892 143.671 1.02213 142.841 0.827622C142.01 0.633116 141.149 0.604722 140.307 0.744075L140.408 4.3849C136.267 3.89216 132.091 3.39872 127.939 3.77412C123.786 4.14951 119.605 5.46445 116.457 8.20154C111.75 12.2958 110.03 19.0375 110.607 25.2528C111.185 31.4681 113.748 37.307 116.42 42.9473C117.092 44.3665 118.022 45.9679 119.581 46.1486C120.981 46.3111 122.263 45.1393 122.698 43.7971C123.033 42.42 123.021 40.9809 122.66 39.61C122.266 37.5151 121.77 35.3737 122.14 33.2745C122.511 31.1752 124.019 29.1007 126.134 28.8435C128.248 28.5862 130.412 31.0051 129.395 32.8784L129.916 32.0697Z" fill="#2F2E41"/>
<path d="M612.42 176.614C611.769 175.872 611.289 174.996 611.013 174.048C610.738 173.1 610.673 172.103 610.824 171.127C610.975 170.151 611.338 169.221 611.887 168.4C612.436 167.58 613.158 166.89 614.003 166.38L609.014 142.903L620.617 147.453L623.575 169.049C624.338 170.526 624.534 172.231 624.125 173.842C623.715 175.454 622.73 176.859 621.355 177.791C619.98 178.723 618.311 179.119 616.664 178.902C615.017 178.685 613.507 177.871 612.42 176.614V176.614Z" fill="#FFB8B8"/>
<path d="M611.103 158.297L611.04 158.066C604.768 134.846 598.284 110.843 590.368 84.7081L590.316 84.5369L590.491 84.4349C594.903 81.8581 601.535 82.0297 605.916 84.8337C607.9 86.1123 609.443 87.9701 610.336 90.1556C611.23 92.341 611.431 94.7485 610.912 97.052L616.685 127.181C619.032 137.029 621.462 147.223 623.783 157.275L623.849 157.56L623.49 157.583C619.262 157.852 614.895 158.13 611.396 158.284L611.103 158.297Z" fill="#CCCCCC"/>
<path d="M557.795 283.267H549.567L545.652 251.507H557.795V283.267Z" fill="#FFB8B8"/>
<path d="M559.893 291.25H533.365V290.914C533.368 288.174 534.457 285.547 536.393 283.61C538.329 281.672 540.953 280.582 543.691 280.579H559.893L559.893 291.25Z" fill="#2F2E41"/>
<path d="M635.322 276.475L627.482 278.975L614.117 249.903L625.687 246.213L635.322 276.475Z" fill="#FFB8B8"/>
<path d="M614.467 291.503L614.365 291.183C613.537 288.572 613.778 285.738 615.034 283.304C616.291 280.87 618.461 279.034 621.069 278.199L636.506 273.276L639.743 283.442L614.467 291.503Z" fill="#2F2E41"/>
<path d="M593.68 63.4296C602.783 63.4296 610.162 56.0438 610.162 46.933C610.162 37.8222 602.783 30.4364 593.68 30.4364C584.577 30.4364 577.197 37.8222 577.197 46.933C577.197 56.0438 584.577 63.4296 593.68 63.4296Z" fill="#FFB8B8"/>
<path d="M601.08 43.8756C601.174 37.2219 598.391 30.6323 594.089 27.3193C592.062 25.7116 589.54 24.8579 586.954 24.9036C584.368 24.9493 581.878 25.8918 579.908 27.5701C575.673 31.0342 573.021 37.7199 573.246 44.3679C582.735 44.3949 592.225 44.4219 601.08 43.8756Z" fill="#2F2E41"/>
<path d="M562.493 273.044L562.163 273.012C555.005 272.309 547.604 271.583 540.609 271.499L540.229 271.495L540.28 271.118C541.938 259.104 542.64 246.616 543.32 234.538C543.991 222.612 544.684 210.28 546.3 198.568C546.983 195.432 547.65 192.333 548.313 189.246C553.807 163.694 558.995 139.559 569.705 115.668L569.806 115.442L570.052 115.472C580.101 116.689 589.757 120.358 597.241 125.804L597.386 125.909L597.379 126.089C597.234 129.8 597.085 133.636 597.306 137.13C600.703 141.854 602.953 147.305 603.88 153.05C604.806 158.796 604.383 164.678 602.644 170.232C605.59 180.088 608.637 190.277 611.745 200.328C619.294 221.041 627.105 242.476 635.112 264.204L635.244 264.56L634.874 264.646C629.113 266 623.17 267.396 617.308 267.938L617.086 267.958L616.981 267.762C602.03 239.915 589.872 210.654 580.683 180.409C578.683 186.516 575.8 192.028 573.008 197.367C570.338 202.224 567.988 207.25 565.974 212.414C564.738 222.57 564.41 233.574 564.093 244.215C563.794 254.276 563.511 263.779 562.529 272.714L562.493 273.044Z" fill="#2F2E41"/>
<path d="M588.054 27.6244C595.198 26.0838 603.101 27.5495 608.711 32.3739C614.322 37.1984 617.171 45.5445 614.866 52.7024C612.561 59.8603 604.736 64.8965 597.66 63.0481C599.687 57.3307 597.406 50.3111 592.451 47.0178C586.575 43.1123 584.957 33.7882 588.054 27.6244Z" fill="#2F2E41"/>
<path d="M596.728 126.521L596.467 126.402C587.353 122.241 578.416 119.047 570.043 116.134L569.786 116.078L569.785 115.333L569.952 115.391C569.987 115.314 570.026 115.226 570.066 115.138C570.18 114.885 570.258 114.713 570.325 114.598L570.323 114.597C571.021 113.174 571.576 111.798 572.112 110.468C572.666 109.094 573.238 107.677 573.976 106.177C572.186 104.38 570.96 102.097 570.45 99.6114C569.94 97.1255 570.168 94.5445 571.107 92.1868C572.956 87.7991 577.673 84.3818 582.628 83.8147C584.444 78.8117 588.49 68.2994 588.49 68.2994C588.49 68.2994 596.998 68.0655 600.419 67.631L600.477 67.6238L600.533 67.6362C608.003 69.2744 614.239 76.3488 615.698 84.8399C616.93 92.0065 615.06 100.204 610.432 107.922C608.058 111.696 605.433 115.307 602.574 118.728C600.49 121.337 598.521 123.8 596.886 126.282L596.728 126.521Z" fill="#CCCCCC"/>
<path d="M613.225 37.4002C608.224 36.653 604.297 31.5363 604.865 26.5074C605.434 21.4785 610.404 17.3692 615.445 17.7593C620.487 18.1494 624.766 22.9743 624.556 28.0309C624.345 33.0875 619.61 38.3542 613.225 37.4002Z" fill="#2F2E41"/>
<path d="M612.443 34.1394C607.442 33.3922 603.515 28.2755 604.084 23.2466C604.332 21.5361 605.008 19.9163 606.05 18.5381C607.093 17.16 608.467 16.0684 610.044 15.3651C606.011 16.2486 602.54 19.7661 602.07 23.9183C601.502 28.9471 605.429 34.0638 610.43 34.811C612.293 35.1037 614.202 34.8366 615.914 34.0433C614.772 34.2833 613.596 34.3158 612.443 34.1394Z" fill="#2F2E41"/>
<path d="M515.433 122.783C515.916 121.922 516.581 121.177 517.382 120.601C518.184 120.025 519.101 119.632 520.071 119.449C521.04 119.266 522.038 119.298 522.994 119.543C523.949 119.788 524.84 120.24 525.602 120.867L546.056 108.337L545.635 120.802L526.277 130.79C525.14 132.002 523.599 132.755 521.944 132.905C520.29 133.056 518.638 132.594 517.302 131.607C515.965 130.62 515.037 129.177 514.692 127.55C514.348 125.924 514.612 124.228 515.433 122.783V122.783Z" fill="#FFB8B8"/>
<path d="M532.25 115.437L532.447 115.301C552.231 101.645 572.683 87.5293 594.666 71.3515L594.81 71.2455L594.964 71.3763C598.861 74.6813 600.909 80.9966 599.728 86.0658C599.184 88.3636 597.948 90.4386 596.187 92.0099C594.426 93.5813 592.225 94.5729 589.882 94.8506L563.423 110.337C554.927 115.834 546.133 121.523 537.438 127.063L537.191 127.22L537.05 126.888C535.388 122.988 533.67 118.96 532.36 115.709L532.25 115.437Z" fill="#CCCCCC"/>
<path d="M256.352 292H0.671077C0.493097 292 0.322405 291.929 0.196554 291.803C0.0707021 291.677 0 291.507 0 291.328C0 291.15 0.0707021 290.979 0.196554 290.853C0.322405 290.728 0.493097 290.657 0.671077 290.657H256.352C256.53 290.657 256.7 290.728 256.826 290.853C256.952 290.979 257.023 291.15 257.023 291.328C257.023 291.507 256.952 291.677 256.826 291.803C256.7 291.929 256.53 292 256.352 292Z" fill="#3F3D56"/>
<path d="M709.328 292H453.648C453.47 292 453.299 291.929 453.173 291.803C453.047 291.677 452.977 291.507 452.977 291.328C452.977 291.15 453.047 290.979 453.173 290.853C453.299 290.728 453.47 290.657 453.648 290.657H709.328C709.506 290.657 709.677 290.728 709.803 290.853C709.929 290.979 709.999 291.15 709.999 291.328C709.999 291.507 709.929 291.677 709.803 291.803C709.677 291.929 709.506 292 709.328 292Z" fill="#3F3D56"/>
</g>
<defs>
<clipPath id="clip0_692_17702">
<rect width="710" height="292" fill="white"/>
</clipPath>
</defs>
</svg>
