<svg width="710" height="438" viewBox="0 0 710 438" fill="none" xmlns="http://www.w3.org/2000/svg">
<g clip-path="url(#clip0_692_17832)">
<path d="M71.6646 401.886C74.6122 402.922 77.7769 403.181 80.8539 402.639C83.9309 402.098 86.8165 400.773 89.2326 398.793C95.3857 393.63 97.3153 385.128 98.8846 377.253L103.528 353.959L93.8072 360.65C86.8164 365.461 79.6686 370.427 74.8287 377.395C69.9888 384.364 67.8773 393.877 71.7648 401.418" fill="#E6E6E6"/>
<path d="M73.1652 431.709C71.9418 422.799 70.683 413.774 71.5433 404.769C72.3056 396.771 74.7467 388.961 79.7164 382.555C82.3543 379.162 85.5641 376.254 89.2016 373.963C90.1499 373.365 91.0229 374.867 90.0786 375.463C83.7846 379.439 78.9164 385.31 76.1758 392.23C73.149 399.924 72.663 408.313 73.1844 416.487C73.4995 421.43 74.1692 426.341 74.8417 431.246C74.8948 431.468 74.8617 431.701 74.749 431.9C74.6363 432.098 74.4524 432.246 74.2346 432.314C74.0124 432.374 73.7756 432.344 73.5755 432.23C73.3754 432.117 73.2282 431.929 73.1659 431.707L73.1652 431.709Z" fill="#F2F2F2"/>
<path d="M81.9727 417.412C83.2366 419.333 84.9742 420.896 87.0181 421.951C89.0619 423.006 91.3431 423.517 93.6418 423.434C99.5505 423.154 104.474 419.034 108.906 415.12L122.019 403.548L113.341 403.133C107.1 402.835 100.699 402.554 94.7546 404.48C88.8106 406.406 83.3288 411.034 82.242 417.184" fill="#E6E6E6"/>
<path d="M69.708 436.83C75.5982 426.413 82.4297 414.835 94.6375 411.134C98.0316 410.109 101.591 409.742 105.123 410.052C106.236 410.148 105.958 411.863 104.847 411.768C98.9261 411.277 93.0167 412.839 88.1137 416.193C83.3954 419.403 79.7216 423.866 76.6125 428.599C74.7079 431.498 73.0019 434.52 71.2959 437.538C70.7508 438.502 69.1566 437.806 69.708 436.83Z" fill="#F2F2F2"/>
<path d="M661.808 414.289C660.095 415.823 658.015 416.89 655.769 417.388C653.524 417.885 651.188 417.796 648.987 417.129C643.346 415.349 639.639 410.108 636.355 405.192L626.637 390.655L635.132 392.47C641.242 393.776 647.503 395.14 652.757 398.521C658.011 401.901 662.128 407.775 661.606 413.999" fill="#E6E6E6"/>
<path d="M668.7 436.195C665.669 424.619 662.025 411.68 651.169 404.984C648.149 403.125 644.803 401.861 641.308 401.259C640.207 401.067 640.038 402.797 641.136 402.988C646.986 404.026 652.3 407.046 656.182 411.541C659.923 415.85 662.334 421.103 664.129 426.473C665.23 429.762 666.106 433.12 666.984 436.473C667.264 437.545 668.984 437.279 668.7 436.195Z" fill="#F2F2F2"/>
<path d="M549.336 266.674H350.743C349.158 266.672 347.637 266.041 346.516 264.92C345.394 263.799 344.764 262.28 344.762 260.695V193.728C344.764 192.143 345.394 190.623 346.516 189.503C347.637 188.382 349.158 187.751 350.743 187.749H549.336C550.922 187.751 552.442 188.382 553.564 189.503C554.685 190.623 555.316 192.143 555.318 193.728V260.695C555.316 262.28 554.685 263.799 553.564 264.92C552.442 266.041 550.922 266.672 549.336 266.674Z" fill="#F1F1F1"/>
<path d="M428.506 205.687H375.867V211.666H428.506V205.687Z" fill="#0231C8"/>
<path d="M497.894 212.862C499.876 212.862 501.483 211.256 501.483 209.274C501.483 207.293 499.876 205.687 497.894 205.687C495.912 205.687 494.305 207.293 494.305 209.274C494.305 211.256 495.912 212.862 497.894 212.862Z" fill="#0231C8"/>
<path d="M509.857 212.862C511.839 212.862 513.446 211.256 513.446 209.274C513.446 207.293 511.839 205.687 509.857 205.687C507.874 205.687 506.268 207.293 506.268 209.274C506.268 211.256 507.874 212.862 509.857 212.862Z" fill="#0231C8"/>
<path d="M521.821 212.862C523.804 212.862 525.41 211.256 525.41 209.274C525.41 207.293 523.804 205.687 521.821 205.687C519.839 205.687 518.232 207.293 518.232 209.274C518.232 211.256 519.839 212.862 521.821 212.862Z" fill="#0231C8"/>
<path d="M549.336 351.577H350.743C349.158 351.575 347.637 350.945 346.516 349.824C345.394 348.703 344.764 347.183 344.762 345.598V278.632C344.764 277.047 345.394 275.527 346.516 274.406C347.637 273.285 349.158 272.655 350.743 272.653H549.336C550.922 272.655 552.442 273.285 553.564 274.406C554.685 275.527 555.316 277.047 555.318 278.632V345.598C555.316 347.183 554.685 348.703 553.564 349.824C552.442 350.945 550.922 351.575 549.336 351.577Z" fill="#F1F1F1"/>
<path d="M428.506 290.59H375.867V296.569H428.506V290.59Z" fill="#0231C8"/>
<path d="M497.894 297.765C499.876 297.765 501.483 296.159 501.483 294.178C501.483 292.197 499.876 290.59 497.894 290.59C495.912 290.59 494.305 292.197 494.305 294.178C494.305 296.159 495.912 297.765 497.894 297.765Z" fill="#0231C8"/>
<path d="M509.857 297.765C511.839 297.765 513.446 296.159 513.446 294.178C513.446 292.197 511.839 290.59 509.857 290.59C507.874 290.59 506.268 292.197 506.268 294.178C506.268 296.159 507.874 297.765 509.857 297.765Z" fill="#0231C8"/>
<path d="M521.821 297.765C523.804 297.765 525.41 296.159 525.41 294.178C525.41 292.197 523.804 290.59 521.821 290.59C519.839 290.59 518.232 292.197 518.232 294.178C518.232 296.159 519.839 297.765 521.821 297.765Z" fill="#0231C8"/>
<path d="M549.336 436.481H350.743C349.158 436.479 347.637 435.849 346.516 434.728C345.394 433.607 344.764 432.087 344.762 430.502V363.536C344.764 361.951 345.394 360.431 346.516 359.31C347.637 358.189 349.158 357.558 350.743 357.557H549.336C550.922 357.558 552.442 358.189 553.564 359.31C554.685 360.431 555.316 361.951 555.318 363.536V430.502C555.316 432.087 554.685 433.607 553.564 434.728C552.442 435.849 550.922 436.479 549.336 436.481Z" fill="#F1F1F1"/>
<path d="M428.506 375.494H375.867V381.473H428.506V375.494Z" fill="#0231C8"/>
<path d="M497.894 382.669C499.876 382.669 501.483 381.062 501.483 379.081C501.483 377.1 499.876 375.494 497.894 375.494C495.912 375.494 494.305 377.1 494.305 379.081C494.305 381.062 495.912 382.669 497.894 382.669Z" fill="#0231C8"/>
<path d="M509.857 382.669C511.839 382.669 513.446 381.062 513.446 379.081C513.446 377.1 511.839 375.494 509.857 375.494C507.874 375.494 506.268 377.1 506.268 379.081C506.268 381.062 507.874 382.669 509.857 382.669Z" fill="#0231C8"/>
<path d="M521.821 382.669C523.804 382.669 525.41 381.062 525.41 379.081C525.41 377.1 523.804 375.494 521.821 375.494C519.839 375.494 518.232 377.1 518.232 379.081C518.232 381.062 519.839 382.669 521.821 382.669Z" fill="#0231C8"/>
<path d="M474.47 122.358L474.25 122.195L474.245 122.191C473.962 121.981 473.64 121.829 473.298 121.743C472.955 121.657 472.6 121.639 472.251 121.691C471.901 121.742 471.566 121.862 471.263 122.043C470.96 122.224 470.696 122.463 470.486 122.746L425.785 182.906H420.867V181.751C420.867 181.466 420.754 181.192 420.553 180.991C420.351 180.79 420.078 180.676 419.793 180.676H416.858C416.573 180.676 416.3 180.79 416.099 180.991C415.897 181.192 415.784 181.466 415.784 181.751V182.906H414.085V181.751C414.085 181.466 413.972 181.192 413.771 180.991C413.569 180.79 413.296 180.676 413.011 180.676H410.077C409.791 180.676 409.518 180.79 409.317 180.991C409.115 181.192 409.002 181.466 409.002 181.751V182.906H407.309V181.751C407.309 181.466 407.196 181.192 406.994 180.991C406.793 180.79 406.519 180.676 406.234 180.676H403.3C403.015 180.676 402.742 180.79 402.54 180.991C402.339 181.192 402.225 181.466 402.225 181.751V182.906H400.527V181.751C400.527 181.466 400.414 181.192 400.212 180.991C400.011 180.79 399.737 180.676 399.452 180.676H396.518C396.233 180.676 395.96 180.79 395.758 180.991C395.557 181.192 395.443 181.466 395.443 181.751V182.906H393.751V181.751C393.751 181.466 393.637 181.192 393.436 180.991C393.234 180.79 392.961 180.676 392.676 180.676H389.742C389.6 180.676 389.461 180.704 389.33 180.758C389.2 180.812 389.081 180.891 388.982 180.991C388.882 181.091 388.803 181.209 388.749 181.34C388.695 181.47 388.667 181.61 388.667 181.751V182.906H386.969V181.751C386.969 181.466 386.855 181.192 386.654 180.991C386.452 180.79 386.179 180.676 385.894 180.676H382.96C382.675 180.676 382.401 180.79 382.2 180.991C381.998 181.192 381.885 181.466 381.885 181.751V182.906H380.187V181.751C380.187 181.466 380.073 181.192 379.872 180.991C379.67 180.79 379.397 180.676 379.112 180.676H376.178C375.893 180.676 375.619 180.79 375.418 180.991C375.216 181.192 375.103 181.466 375.103 181.751V182.906H373.41V181.751C373.41 181.466 373.297 181.192 373.095 180.991C372.894 180.79 372.621 180.676 372.335 180.676H369.401C369.116 180.676 368.843 180.79 368.641 180.991C368.44 181.192 368.327 181.466 368.327 181.751V182.906H366.628V181.751C366.628 181.466 366.515 181.192 366.313 180.991C366.112 180.79 365.839 180.676 365.554 180.676H362.619C362.334 180.676 362.061 180.79 361.859 180.991C361.658 181.192 361.545 181.466 361.545 181.751V182.906H359.852V181.751C359.852 181.466 359.739 181.192 359.537 180.991C359.335 180.79 359.062 180.676 358.777 180.676H355.843C355.558 180.676 355.284 180.79 355.083 180.991C354.881 181.192 354.768 181.466 354.768 181.751V182.906H352.64C352.287 182.906 351.938 182.975 351.612 183.11C351.286 183.245 350.99 183.443 350.74 183.692C350.491 183.942 350.293 184.238 350.158 184.564C350.023 184.889 349.953 185.239 349.953 185.591V188.154C349.953 188.506 350.023 188.856 350.158 189.181C350.293 189.507 350.491 189.803 350.74 190.053C350.99 190.302 351.286 190.5 351.612 190.635C351.938 190.77 352.287 190.839 352.64 190.839H425.339C426.26 190.839 427.152 190.522 427.867 189.941C428.581 189.36 429.073 188.551 429.259 187.65L429.287 187.67L475.021 126.12L475.025 126.115C475.45 125.543 475.63 124.826 475.526 124.121C475.422 123.417 475.042 122.782 474.47 122.358Z" fill="#3F3D56"/>
<path d="M191.967 413.668L200.997 418.287L223.118 385.67L209.791 378.853L191.967 413.668Z" fill="#FFB7B7"/>
<path d="M191.172 409.543L208.955 418.64L208.956 418.64C211.962 420.178 214.233 422.846 215.271 426.058C216.308 429.269 216.027 432.761 214.489 435.766L214.301 436.134L185.184 421.24L191.172 409.543Z" fill="#2F2E41"/>
<path d="M296.259 426.305H306.404L311.229 387.195H296.258L296.259 426.305Z" fill="#FFB7B7"/>
<path d="M293.672 422.995L313.649 422.994H313.65C317.026 422.994 320.264 424.335 322.652 426.721C325.039 429.108 326.381 432.344 326.381 435.719V436.133L293.672 436.134L293.672 422.995Z" fill="#2F2E41"/>
<path d="M248.811 107.297C248.811 107.297 242.018 102.095 242.018 114.802L240.945 156.792L252.922 196.46L259.894 183.594L257.034 155.72L248.811 107.297Z" fill="#2F2E41"/>
<path d="M321.473 222.148C321.473 222.148 329.35 260.492 319.373 291.96L313.859 412.951L293.641 411.377L286.552 321.618L279.725 277.001L265.547 317.681L218.81 403.765L197.279 386.969C197.279 386.969 221.139 321.895 238.765 308.233L247.605 207.591L321.473 222.148Z" fill="#2F2E41"/>
<path d="M317.737 44.0407C323.844 32.8741 319.738 18.8735 308.567 12.7693C297.395 6.66518 283.389 10.7691 277.282 21.9356C271.175 33.1021 275.281 47.1027 286.452 53.2068C297.623 59.311 311.63 55.2072 317.737 44.0407Z" fill="#FFB7B7"/>
<path d="M295.877 37.8756C298.64 38.235 300.725 35.4088 301.692 32.7963C302.659 30.1838 303.395 27.1424 305.798 25.7312C309.08 23.8032 313.28 26.122 317.034 25.4859C321.273 24.7676 324.029 20.277 324.245 15.9847C324.461 11.6925 322.752 7.56423 321.075 3.60682L320.49 8.52498C320.568 6.85809 320.217 5.19901 319.471 3.70642C318.724 2.21384 317.607 0.93767 316.226 0L316.981 7.21664C316.82 6.221 316.464 5.26685 315.934 4.40896C315.404 3.55106 314.709 2.80631 313.89 2.21745C313.071 1.62858 312.143 1.20719 311.161 0.977468C310.179 0.747745 309.161 0.714208 308.165 0.87878L308.284 5.17873C303.388 4.59679 298.449 4.01402 293.538 4.45737C288.628 4.90073 283.683 6.45374 279.961 9.68634C274.394 14.5218 272.36 22.484 273.043 29.8246C273.726 37.1651 276.757 44.061 279.917 50.7226C280.712 52.3986 281.811 54.2899 283.654 54.5034C285.311 54.6953 286.826 53.3114 287.341 51.7262C287.738 50.0998 287.722 48.4001 287.296 46.7811C286.831 44.3069 286.243 41.7779 286.681 39.2986C287.119 36.8193 288.904 34.3692 291.404 34.0654C293.904 33.7616 296.463 36.6183 295.261 38.8307L295.877 37.8756Z" fill="#2F2E41"/>
<path d="M322.901 232.402L245.951 227.44L251.743 203.455L322.073 219.17L322.901 232.402Z" fill="#CBCBCB"/>
<path d="M275.445 64.4133L280.271 57.7153C280.271 57.7153 285.666 59.5479 300.113 66.7362L301.134 73.0116L326.212 227.193L280.629 225.227L268.215 224.963L264.153 215.861L259.144 224.77L247.022 224.513L234.688 217.365L246.843 180.199L250.776 146.25L244.698 114.266C244.698 114.266 237.05 84.8953 266.507 69.0591L275.445 64.4133Z" fill="#2F2E41"/>
<path d="M378.188 181.129C377.071 181.413 375.906 181.448 374.775 181.233C373.644 181.018 372.573 180.557 371.639 179.884C370.705 179.211 369.93 178.341 369.368 177.335C368.807 176.33 368.473 175.214 368.39 174.066L341.346 166.825L352.225 157.169L376.238 165.526C378.177 165.514 380.054 166.213 381.511 167.492C382.969 168.77 383.906 170.539 384.147 172.462C384.387 174.385 383.913 176.33 382.815 177.928C381.717 179.525 380.07 180.664 378.188 181.129V181.129Z" fill="#FFB7B7"/>
<path d="M366.075 177.042C365.507 177.351 364.879 177.538 364.234 177.589C363.588 177.64 362.939 177.555 362.329 177.339L317.84 160.461C306.987 156.616 297.9 148.96 292.271 138.919L273.719 105.839C272.416 104.385 271.413 102.689 270.767 100.847C270.12 99.0059 269.844 97.055 269.953 95.1065C270.062 93.158 270.554 91.2501 271.401 89.492C272.249 87.7338 273.435 86.16 274.891 84.8604C276.348 83.5609 278.046 82.5612 279.89 81.9186C281.733 81.276 283.685 81.0031 285.635 81.1154C287.584 81.2278 289.492 81.7233 291.249 82.5734C293.006 83.4236 294.579 84.6119 295.876 86.0701L327.987 136.944L368.399 160.626C369.191 161.146 369.804 161.896 370.156 162.775C370.508 163.654 370.581 164.62 370.365 165.542L368.356 174.054C368.14 174.967 367.651 175.792 366.954 176.42C366.686 176.661 366.392 176.87 366.075 177.042Z" fill="#2F2E41"/>
<path d="M709.249 437.832H0.751323C0.55206 437.832 0.360957 437.752 0.220057 437.612C0.0791564 437.471 0 437.28 0 437.081C0 436.881 0.0791564 436.69 0.220057 436.55C0.360957 436.409 0.55206 436.33 0.751323 436.33H709.249C709.448 436.33 709.639 436.409 709.78 436.55C709.921 436.69 710 436.881 710 437.081C710 437.28 709.921 437.471 709.78 437.612C709.639 437.752 709.448 437.832 709.249 437.832Z" fill="#CBCBCB"/>
</g>
<defs>
<clipPath id="clip0_692_17832">
<rect width="710" height="438" fill="white"/>
</clipPath>
</defs>
</svg>
