<svg width="710" height="535" viewBox="0 0 710 535" fill="none" xmlns="http://www.w3.org/2000/svg">
<g clip-path="url(#clip0_692_17786)">
<path d="M610.022 397.409V459.94H99.9766V75.0603H610.022V397.409Z" fill="white"/>
<path d="M99.9766 459.356V460.523H610.022V459.356H99.9766ZM99.9766 74.4771V75.6437H610.022V74.4771H99.9766Z" fill="#F2F2F2"/>
<path d="M543.962 417.976C544.108 417.93 544.238 417.871 544.384 417.825C544.968 417.615 545.585 417.428 546.217 417.265H546.234C546.231 417.206 546.236 417.147 546.25 417.09C545.487 417.381 544.724 417.685 543.962 417.976ZM536.578 423.296C536.61 423.261 536.626 423.226 536.659 423.191C536.821 422.969 537.016 422.736 537.21 422.514C538.755 420.788 540.654 419.415 542.777 418.49C542.929 418.41 543.087 418.34 543.248 418.28C543.438 418.188 543.633 418.106 543.832 418.035C543.881 418.011 543.913 418 543.962 417.976C539.207 419.808 534.403 421.593 529.534 423.296H536.578ZM0 73.8936L3.61996 134.161L710 76.2268V73.8936H0ZM710 397.409V461.106H0V458.773L42.0929 396.651L316.708 458.773C373.6 458.908 430.266 451.594 485.262 437.016C486.365 436.736 487.453 436.432 488.54 436.129C493.311 434.822 498.001 433.469 502.691 432.046H502.74C511.828 429.327 520.76 426.411 529.534 423.296C534.354 421.604 539.12 419.851 543.832 418.035C543.873 418.01 543.916 417.991 543.962 417.976C544.724 417.685 545.487 417.381 546.25 417.09L549.122 415.97H549.171C559.428 411.91 569.392 407.593 579.162 403.032C579.876 402.705 580.574 402.379 581.272 402.04C586.936 399.369 592.513 396.612 598.004 393.769C604.885 390.222 611.62 386.551 618.209 382.756C631.712 374.986 644.592 366.719 656.85 357.954C669.469 348.969 681.584 339.295 693.138 328.975C697.812 324.798 702.351 320.54 706.754 316.2C707.842 315.127 708.929 314.054 710 312.969V397.409Z" fill="#F2F2F2"/>
<path d="M198.595 393.477H99.9766V398.809H198.595C199.302 398.809 199.98 398.528 200.479 398.028C200.979 397.528 201.259 396.85 201.259 396.143C201.259 395.436 200.979 394.758 200.479 394.258C199.98 393.758 199.302 393.477 198.595 393.477Z" fill="#F2F2F2"/>
<path d="M198.595 374.812H99.9766V380.143H198.595C199.302 380.143 199.98 379.862 200.479 379.362C200.979 378.862 201.259 378.184 201.259 377.477C201.259 376.77 200.979 376.092 200.479 375.592C199.98 375.092 199.302 374.812 198.595 374.812Z" fill="#F2F2F2"/>
<path d="M199.388 356.262C199.262 356.226 199.133 356.199 199.003 356.181C198.869 356.157 198.732 356.145 198.595 356.146H99.9766V361.477H198.595C199.223 361.473 199.829 361.25 200.309 360.847C200.674 360.538 200.948 360.138 201.105 359.687C201.262 359.236 201.295 358.751 201.201 358.283C201.107 357.814 200.889 357.38 200.571 357.025C200.252 356.669 199.843 356.406 199.388 356.262H199.388Z" fill="#F2F2F2"/>
<path d="M234.644 348.994L225.958 310.426L223.125 297.861C222.89 296.825 222.253 295.924 221.355 295.358C220.456 294.791 219.369 294.605 218.333 294.84L214.055 295.808L179.744 303.554C179.232 303.67 178.747 303.885 178.318 304.188C177.889 304.491 177.524 304.876 177.244 305.32C176.963 305.764 176.773 306.259 176.684 306.777C176.595 307.295 176.609 307.825 176.724 308.338C174.882 325.499 178.52 341.33 186.412 356.146C186.995 357.254 187.613 358.362 188.255 359.471C188.424 360.237 188.818 360.935 189.385 361.477C189.863 361.934 190.446 362.265 191.083 362.442C191.719 362.62 192.39 362.637 193.034 362.492L197.535 361.477L200.309 360.847L231.624 353.777C232.658 353.544 233.557 352.908 234.123 352.011C234.69 351.115 234.877 350.029 234.644 348.994Z" fill="#E6E6E6"/>
<path d="M231.053 346.848L222.776 310.157L220.794 301.349C220.575 300.38 219.981 299.536 219.142 299.005C218.302 298.473 217.286 298.297 216.317 298.515L213.682 299.11L183.149 306.004C182.179 306.223 181.337 306.817 180.805 307.657C180.274 308.497 180.098 309.514 180.316 310.484C180.584 323.842 181.983 335.963 187.73 343.359C188.384 346.236 189.788 348.889 191.799 351.046C193.81 353.204 196.356 354.79 199.179 355.644C199.249 355.667 199.307 355.691 199.377 355.714C199.424 355.726 199.482 355.749 199.529 355.761C202.185 356.509 204.986 356.581 207.678 355.971L228.22 351.327C229.189 351.109 230.032 350.514 230.563 349.674C231.094 348.834 231.271 347.818 231.053 346.848Z" fill="white"/>
<path d="M200.633 318.238C201.308 317.458 202.218 316.918 203.226 316.698C204.234 316.478 205.286 316.59 206.224 317.018C207.163 317.517 207.915 318.307 208.366 319.27C208.817 320.233 208.944 321.316 208.727 322.357C208.363 324.764 207.107 326.955 206.993 329.419C206.89 330.499 207.079 331.586 207.538 332.568C207.998 333.55 208.712 334.391 209.606 335.003C210.976 335.836 212.385 333.775 211.009 332.938C208.745 331.561 209.506 328.536 210.163 326.473C210.983 323.896 211.837 321.27 210.823 318.615C210.374 317.504 209.653 316.522 208.727 315.762C207.801 315.001 206.7 314.484 205.523 314.259C204.346 314.035 203.131 314.109 201.99 314.475C200.849 314.841 199.819 315.488 198.992 316.356C197.912 317.522 199.539 319.419 200.633 318.238Z" fill="#0231C8"/>
<path d="M211.624 342.199C213.003 342.199 214.12 341.082 214.12 339.702C214.12 338.323 213.003 337.205 211.624 337.205C210.246 337.205 209.129 338.323 209.129 339.702C209.129 341.082 210.246 342.199 211.624 342.199Z" fill="#0231C8"/>
<path d="M509.167 244.798C506.644 243.153 503.764 242.134 500.768 241.825C497.772 241.517 494.746 241.928 491.94 243.024C489.135 244.12 486.631 245.87 484.637 248.128C482.642 250.387 481.215 253.088 480.473 256.009L445.72 346.62L385.985 312.684C385.723 308.783 384.233 305.066 381.728 302.065C379.224 299.064 375.835 296.934 372.046 295.98C368.257 295.026 364.264 295.297 360.638 296.755C357.013 298.212 353.942 300.781 351.866 304.093C349.79 307.405 348.816 311.289 349.082 315.19C349.349 319.09 350.843 322.806 353.351 325.804C355.858 328.802 359.25 330.928 363.04 331.878C366.83 332.828 370.823 332.552 374.447 331.091C387.026 344.526 441.564 399.61 464.142 378.087C483.121 359.996 510.508 289.883 517.101 265.671C518.157 261.8 517.958 257.693 516.532 253.941C515.106 250.19 512.528 246.989 509.167 244.798Z" fill="#A0616A"/>
<path d="M443.912 381.884L454.878 431.485L535.071 438.743L542.441 395.554L443.912 381.884Z" fill="#A0616A"/>
<path d="M556.177 459.358H442.332L448.243 441.591L450.178 415.225L451.286 415.248L538.841 416.707L540.426 416.73L543.119 439.362C548.254 445.482 552.638 452.195 556.177 459.358Z" fill="#2F2E41"/>
<path d="M493.963 220.76L533.878 218.702L552.418 248.017C552.418 248.017 570.307 251.689 567.889 292.822C565.471 333.954 542.441 372.213 542.441 372.213L544.152 366.343L541.181 374.839L541.562 379.61L545.615 384.662L546.033 389.887L542.441 398.153L547.325 406.069L444.641 396.114L440.886 382.426L446.364 375.076L443.304 365.489L447.904 356.268L450.303 354.268C450.303 354.268 424.063 314.82 454.185 285.108L466.275 264.542L479.803 248.026L493.963 220.76Z" fill="#3F3D56"/>
<path d="M362.976 278.421C352.179 274.56 338.195 276.066 330.617 285.476C323.829 293.904 323.015 307.323 331.651 314.845C342.164 324.001 356.724 320.633 368.203 315.467C378.707 310.74 390.269 303.119 390.107 290.186C390.082 286.861 389.266 283.591 387.726 280.645C386.187 277.699 383.968 275.163 381.254 273.246C378.499 271.383 375.345 270.195 372.046 269.777C368.748 269.359 365.397 269.723 362.266 270.841C359.494 271.855 360.691 276.327 363.495 275.302C365.753 274.443 368.173 274.098 370.581 274.293C372.989 274.488 375.322 275.218 377.413 276.429C379.503 277.641 381.297 279.303 382.664 281.296C384.031 283.289 384.937 285.561 385.316 287.949C386.938 298.687 377.769 305.642 369.248 309.879C359.9 314.527 348.003 318.975 337.995 313.634C329.435 309.066 327.869 298.647 332.615 290.646C338.499 280.726 351.746 279.306 361.747 282.882C364.554 283.885 365.763 279.417 362.976 278.42V278.421Z" fill="#3F3D56"/>
<path d="M156.31 188.621C148.555 185.849 138.511 186.93 133.068 193.689C128.193 199.742 127.608 209.381 133.811 214.783C141.362 221.359 151.82 218.94 160.065 215.23C167.609 211.835 175.913 206.361 175.797 197.071C175.779 194.684 175.193 192.335 174.087 190.219C172.981 188.103 171.387 186.282 169.438 184.905C167.459 183.567 165.194 182.713 162.825 182.413C160.456 182.113 158.049 182.375 155.8 183.177C153.809 183.905 154.669 187.118 156.683 186.382C158.304 185.764 160.043 185.517 161.772 185.657C163.501 185.797 165.178 186.321 166.679 187.191C168.18 188.061 169.469 189.255 170.451 190.687C171.433 192.118 172.084 193.75 172.356 195.465C173.52 203.178 166.935 208.173 160.815 211.216C154.101 214.555 145.556 217.749 138.368 213.913C132.219 210.632 131.095 203.149 134.504 197.402C138.73 190.277 148.244 189.257 155.427 191.826C157.444 192.546 158.311 189.337 156.31 188.621V188.621Z" fill="#F2F2F2"/>
<path d="M250.552 210.628C261.726 207.587 269.115 198.979 267.055 191.402C264.996 183.825 254.268 180.148 243.094 183.189C231.92 186.231 224.531 194.838 226.59 202.415C228.65 209.992 239.378 213.669 250.552 210.628Z" fill="#F2F2F2"/>
<path d="M198.598 184.21L198.639 210.335C198.654 210.789 198.846 211.219 199.172 211.534C199.498 211.849 199.934 212.026 200.388 212.026C200.841 212.026 201.277 211.849 201.603 211.534C201.929 211.219 202.121 210.789 202.136 210.335L202.095 184.21C202.079 183.757 201.888 183.327 201.562 183.012C201.236 182.696 200.8 182.52 200.346 182.52C199.893 182.52 199.457 182.696 199.131 183.012C198.804 183.327 198.613 183.757 198.598 184.21Z" fill="#F2F2F2"/>
<path d="M186.4 198.263L211.847 198.326C212.3 198.31 212.73 198.119 213.045 197.792C213.36 197.466 213.536 197.03 213.536 196.576C213.536 196.122 213.36 195.686 213.045 195.359C212.73 195.033 212.3 194.841 211.847 194.826L186.4 194.763C185.947 194.779 185.517 194.97 185.202 195.297C184.887 195.623 184.711 196.059 184.711 196.513C184.711 196.967 184.887 197.403 185.202 197.73C185.517 198.056 185.947 198.248 186.4 198.263Z" fill="#F2F2F2"/>
<path d="M101.341 211.007C101.372 211.402 101.247 211.794 100.992 212.098C100.736 212.402 100.372 212.592 99.9766 212.628V209.198C100.378 209.294 100.734 209.527 100.983 209.857C101.232 210.187 101.358 210.594 101.341 211.007Z" fill="#F2F2F2"/>
<path d="M107.595 213.307C108.883 213.307 109.927 212.262 109.927 210.973C109.927 209.685 108.883 208.64 107.595 208.64C106.308 208.64 105.264 209.685 105.264 210.973C105.264 212.262 106.308 213.307 107.595 213.307Z" fill="#F2F2F2"/>
<path d="M185.538 423.296C181.295 423.296 177.832 426.178 177.832 429.713C177.832 433.247 181.295 436.129 185.538 436.129H610.023V423.296H185.538Z" fill="white"/>
<path d="M508.431 423.296V436.129H185.538C181.295 436.129 177.832 433.247 177.832 429.713C177.832 426.178 181.295 423.296 185.538 423.296H508.431Z" fill="#0231C8"/>
<path d="M496.774 442.149C503.856 442.149 509.598 436.403 509.598 429.316C509.598 422.229 503.856 416.483 496.774 416.483C489.691 416.483 483.949 422.229 483.949 429.316C483.949 436.403 489.691 442.149 496.774 442.149Z" fill="#0231C8"/>
<path d="M170.86 239.962H99.9766V245.305H170.86C171.568 245.305 172.247 245.024 172.748 244.523C173.248 244.022 173.53 243.342 173.53 242.633C173.53 241.925 173.248 241.245 172.748 240.744C172.247 240.243 171.568 239.962 170.86 239.962Z" fill="white"/>
<path d="M348.493 197.474C350.805 191.527 359.366 189.569 364.103 193.699C366.93 196.165 369.038 199.55 372.775 200.76C376.809 202.066 380.636 199.91 384.081 198.042C385.856 196.952 387.813 196.193 389.859 195.804C391.711 195.599 393.585 195.759 395.376 196.276C399.354 197.324 403.007 199.324 406.788 200.898C410.852 202.628 415.236 203.479 419.652 203.394C424.906 203.315 430.16 203.107 435.412 202.959C441.294 202.794 447.176 202.628 453.058 202.463C458.857 202.432 464.644 201.936 470.364 200.98C472.573 200.559 471.638 197.185 469.434 197.605C464.205 198.473 458.914 198.922 453.613 198.947C448.222 199.102 442.83 199.254 437.439 199.402C431.954 199.557 426.47 199.723 420.985 199.865C418.543 200.02 416.091 199.892 413.678 199.481C411.634 199.02 409.638 198.364 407.717 197.523C403.813 195.883 400.031 193.803 395.892 192.796C391.948 191.786 387.772 192.239 384.136 194.07C380.801 195.699 376.696 199.068 372.854 197.016C369.515 195.232 367.682 191.504 364.38 189.604C357.466 185.626 347.965 189.228 345.12 196.543C344.304 198.643 347.684 199.553 348.493 197.474V197.474Z" fill="#F2F2F2"/>
<path d="M357.461 225.455C359.941 221.779 362.735 217.553 367.262 216.303C368.242 215.989 369.278 215.894 370.298 216.025C371.319 216.157 372.298 216.511 373.165 217.064C374.771 218.144 375.996 219.721 377.533 220.898C380.774 223.38 384.357 222.995 387.843 221.278C390.789 219.827 394.11 216.961 397.603 218.109C400.044 218.911 401.946 220.872 404.309 221.871C405.401 222.415 406.607 222.69 407.827 222.674C409.046 222.657 410.245 222.35 411.322 221.777C411.705 221.535 411.98 221.153 412.087 220.711C412.195 220.27 412.127 219.805 411.898 219.413C411.669 219.021 411.297 218.733 410.86 218.61C410.423 218.488 409.956 218.539 409.556 218.755C407.54 219.936 405.186 218.542 403.461 217.424C401.667 216.035 399.606 215.03 397.408 214.47C393.505 213.81 390.187 216.073 386.911 217.825C385.474 218.782 383.777 219.273 382.051 219.232C380.144 218.976 378.76 217.38 377.444 216.129C376.044 214.646 374.306 213.525 372.378 212.861C370.167 212.269 367.829 212.365 365.674 213.135C360.54 214.895 357.352 219.375 354.441 223.689C353.178 225.56 356.206 227.314 357.461 225.455Z" fill="#F2F2F2"/>
<path d="M313.986 186.359C313.422 186.656 312.781 186.776 312.148 186.703C311.515 186.631 310.918 186.368 310.436 185.95C309.954 185.533 309.61 184.979 309.448 184.362C309.285 183.745 309.313 183.094 309.527 182.493C310.545 179.914 314.246 180.511 315.648 182.324C317.649 184.911 316.724 188.498 314.892 190.877C312.622 193.824 309.127 195.498 305.878 197.119C305.588 197.298 305.356 197.556 305.209 197.864C305.062 198.172 305.008 198.516 305.052 198.854C305.096 199.192 305.237 199.51 305.458 199.77C305.679 200.029 305.97 200.22 306.296 200.318L319.139 203.107C321.334 203.584 322.271 200.211 320.069 199.732L307.226 196.943L307.644 200.141C311.295 198.319 315.015 196.369 317.573 193.085C318.791 191.66 319.625 189.947 319.996 188.109C320.368 186.272 320.264 184.369 319.696 182.583C319.14 180.896 318.02 179.453 316.523 178.498C315.027 177.543 313.247 177.134 311.484 177.342C310.603 177.443 309.753 177.728 308.988 178.177C308.223 178.626 307.56 179.229 307.041 179.949C306.523 180.669 306.16 181.489 305.976 182.357C305.792 183.225 305.791 184.122 305.972 184.99C306.831 189.463 311.9 191.31 315.751 189.381C317.764 188.373 315.995 185.352 313.986 186.359V186.359Z" fill="#F2F2F2"/>
<path d="M326.191 204.557C327.479 204.557 328.523 203.512 328.523 202.224C328.523 200.935 327.479 199.89 326.191 199.89C324.903 199.89 323.859 200.935 323.859 202.224C323.859 203.512 324.903 204.557 326.191 204.557Z" fill="#F2F2F2"/>
<path d="M383.044 240.16H305.924C305.217 240.16 304.54 240.441 304.04 240.941C303.54 241.441 303.26 242.119 303.26 242.826C303.26 243.533 303.54 244.211 304.04 244.711C304.54 245.211 305.217 245.492 305.924 245.492H383.044C383.751 245.492 384.429 245.211 384.928 244.711C385.428 244.211 385.708 243.533 385.708 242.826C385.708 242.119 385.428 241.441 384.928 240.941C384.429 240.441 383.751 240.16 383.044 240.16Z" fill="#F2F2F2"/>
<path d="M326.852 295.276H231.914C231.605 295.276 231.308 295.153 231.089 294.934C230.871 294.715 230.748 294.419 230.748 294.109C230.748 293.8 230.871 293.503 231.089 293.284C231.308 293.066 231.605 292.943 231.914 292.943H326.852C327.162 292.943 327.458 293.066 327.677 293.284C327.895 293.503 328.018 293.8 328.018 294.109C328.018 294.419 327.895 294.715 327.677 294.934C327.458 295.153 327.162 295.276 326.852 295.276Z" fill="#3F3D56"/>
<path d="M225.326 310.442C231.765 310.442 236.985 305.219 236.985 298.776C236.985 292.333 231.765 287.11 225.326 287.11C218.888 287.11 213.668 292.333 213.668 298.776C213.668 305.219 218.888 310.442 225.326 310.442Z" fill="#0231C8"/>
<path d="M150.866 129.098C148.767 132.096 145.351 133.834 142.064 135.468C131.268 140.834 120.468 146.197 109.665 151.555L110.248 152.255L110.656 152.757L111.227 153.434C108.254 157.424 105.281 161.41 102.308 165.392C101.527 166.43 100.758 167.48 99.9766 168.518V103.491C100.758 103.176 101.527 102.861 102.308 102.557C109.735 99.5709 117.157 96.5921 124.576 93.6211C128.435 92.0812 132.539 90.5062 136.619 91.2179C144.838 92.6411 148.662 102.009 151.041 110.012C152.918 116.335 154.643 123.685 150.866 129.098Z" fill="white"/>
<path d="M111.938 153.959C108.732 158.264 105.522 162.572 102.308 166.885C101.527 167.923 100.758 168.973 99.9766 170.011V167.037C100.758 165.998 101.539 164.948 102.308 163.91C105.048 160.247 107.78 156.584 110.504 152.92C110.548 152.861 110.599 152.806 110.656 152.757C111.379 152.151 112.579 153.096 111.938 153.959Z" fill="#CCCCCC"/>
<path d="M152.276 128.491C150.481 131.758 147.287 133.776 144.069 135.444C140.396 137.346 136.654 139.143 132.947 140.986C125.369 144.742 117.802 148.499 110.248 152.255C110.178 152.29 110.096 152.325 110.026 152.36C109 152.874 107.951 149.561 109.082 147.962C113.57 141.616 128.808 141.068 135.92 137.533C137.715 136.634 139.51 135.748 141.317 134.85C142.972 134.077 144.58 133.209 146.132 132.248C148.939 130.605 150.987 127.923 151.833 124.782C152.415 121.835 152.347 118.798 151.635 115.88C150.982 112.719 150.106 109.608 149.012 106.571C146.96 100.761 143.637 93.6795 137.015 92.1862C133.891 91.4863 130.697 92.2912 127.759 93.3412C124.331 94.5778 120.962 96.0244 117.581 97.3777C112.486 99.4193 107.395 101.461 102.308 103.502C101.527 103.817 100.758 104.121 99.9766 104.436V102.534C100.758 102.219 101.527 101.904 102.308 101.589C108.79 98.9992 115.276 96.4016 121.766 93.7961C124.96 92.329 128.296 91.1953 131.723 90.4129C134.993 89.7734 138.384 90.35 141.259 92.0345C144.132 93.9514 146.445 96.5962 147.963 99.6992C149.626 102.941 150.95 106.346 151.915 109.86C153.664 115.764 155.436 122.74 152.276 128.491Z" fill="#CCCCCC"/>
<path d="M109.995 113.887C109.985 113.909 109.977 113.931 109.968 113.953C108.316 113.265 106.461 113.253 104.8 113.92C103.14 114.587 101.807 115.879 101.089 117.519C100.369 119.164 100.325 121.027 100.968 122.705C101.61 124.382 102.886 125.739 104.521 126.482L104.52 126.484L104.604 126.521L117.031 131.969L122.513 119.45L122.477 119.434C122.486 119.413 122.497 119.393 122.506 119.372C123.233 117.712 123.271 115.831 122.611 114.143C121.952 112.455 120.65 111.097 118.991 110.37C118.169 110.01 117.285 109.815 116.388 109.797C115.492 109.779 114.6 109.938 113.765 110.264C112.929 110.591 112.166 111.079 111.52 111.701C110.873 112.322 110.354 113.065 109.995 113.887Z" fill="#0231C8"/>
<path d="M610.024 352.097C609.278 350.511 608.508 348.901 607.692 347.279C604.766 341.365 601.443 335.181 597.911 328.975C588.199 311.826 576.925 294.443 568.053 281.937V281.925C564.474 276.874 561.28 272.639 558.738 269.512C557.162 267.57 555.216 265.958 553.014 264.772C550.812 263.586 548.397 262.847 545.908 262.6C543.419 262.353 540.906 262.601 538.513 263.331C536.121 264.061 533.897 265.258 531.969 266.852C530.041 268.447 528.448 270.408 527.282 272.622C526.116 274.836 525.399 277.259 525.174 279.751C524.949 282.244 525.219 284.757 525.969 287.144C526.72 289.531 527.935 291.747 529.545 293.661L558.307 337.375L571.842 357.954L582.871 374.73L545.028 392.194L538.837 395.052L520.592 403.475L520.487 403.522C520.452 403.499 520.405 403.475 520.37 403.452C519.471 402.903 518.527 402.431 517.549 402.04C515.136 401.088 512.55 400.654 509.959 400.769C508.042 400.849 506.15 401.23 504.352 401.9C501.338 403.014 498.666 404.894 496.6 407.355C494.533 409.815 493.142 412.773 492.565 415.935C492.483 416.308 492.437 416.693 492.39 417.09C492.38 417.148 492.376 417.206 492.378 417.265H492.367C491.971 421.011 492.722 424.788 494.521 428.097C496.32 431.406 499.082 434.089 502.44 435.791C502.673 435.907 502.906 436.024 503.151 436.129C504.316 436.661 505.535 437.064 506.788 437.331C508.353 437.674 509.956 437.811 511.556 437.739C513.045 437.674 514.521 437.431 515.952 437.016H515.963C516.783 436.774 517.585 436.478 518.365 436.129C520.923 434.965 523.183 433.237 524.976 431.072C526.769 428.908 528.049 426.365 528.718 423.635C529.464 423.541 530.303 423.424 531.224 423.296C533.113 423.028 535.351 422.69 537.881 422.281C538.884 422.118 539.933 421.943 541.017 421.756C559.974 418.49 590.951 411.537 607.692 399.24C608.508 398.634 609.289 398.027 610.024 397.409V352.097Z" fill="#A0616A"/>
<path d="M577.67 0H132.329C123.752 0.0102532 115.529 3.42434 109.464 9.49336C103.399 15.5624 99.9868 23.7908 99.9766 32.3737V502.638C99.9873 511.22 103.4 519.447 109.465 525.514C115.53 531.581 123.753 534.992 132.329 535H577.67C586.246 534.992 594.469 531.581 600.534 525.514C606.599 519.447 610.012 511.22 610.022 502.638V32.3737C610.012 23.7908 606.6 15.5624 600.535 9.49336C594.47 3.42434 586.247 0.0102656 577.67 0ZM607.691 502.638C607.68 510.601 604.513 518.234 598.885 523.864C593.257 529.493 585.628 532.659 577.67 532.667H132.329C124.371 532.659 116.742 529.493 111.114 523.864C105.486 518.234 102.319 510.601 102.308 502.638V32.3737C102.317 24.4091 105.482 16.7731 111.11 11.1412C116.738 5.50935 124.369 2.34168 132.329 2.33324H577.67C585.629 2.34168 593.26 5.50935 598.889 11.1412C604.517 16.7731 607.682 24.4091 607.691 32.3737V502.638ZM99.9766 75.6436V458.773H102.308V75.6436H99.9766Z" fill="#3F3D56"/>
<path d="M142.355 446.815C152.657 446.815 161.008 438.458 161.008 428.149C161.008 417.84 152.657 409.483 142.355 409.483C132.053 409.483 123.701 417.84 123.701 428.149C123.701 438.458 132.053 446.815 142.355 446.815Z" fill="#0231C8"/>
<path d="M139.525 438.207C139.363 438.206 139.202 438.174 139.052 438.111C138.828 438.021 138.637 437.866 138.503 437.665C138.369 437.464 138.298 437.228 138.301 436.986V419.804C138.301 419.564 138.372 419.328 138.506 419.128C138.64 418.928 138.83 418.772 139.052 418.68C139.274 418.587 139.519 418.563 139.755 418.61C139.991 418.657 140.207 418.773 140.378 418.944L148.963 427.535C149.191 427.763 149.319 428.073 149.319 428.395C149.319 428.718 149.191 429.028 148.963 429.256L140.378 437.847C140.266 437.961 140.134 438.051 139.987 438.113C139.841 438.175 139.684 438.207 139.525 438.207Z" fill="white"/>
<path d="M522.536 150.549C534.126 150.549 543.521 141.147 543.521 129.549C543.521 117.952 534.126 108.55 522.536 108.55C510.946 108.55 501.551 117.952 501.551 129.549C501.551 141.147 510.946 150.549 522.536 150.549Z" fill="#2F2E41"/>
<path d="M522.706 159.971C512.686 154.143 509.938 140.836 516.105 131.017C517.572 128.682 519.484 126.66 521.731 125.064C523.979 123.469 526.519 122.332 529.206 121.719C531.892 121.105 534.674 121.027 537.39 121.49C540.107 121.952 542.707 122.945 545.04 124.413C554.852 130.584 547.485 142.54 551.64 153.366C557.518 168.682 536.218 167.831 522.706 159.971Z" fill="#2F2E41"/>
<path d="M473.981 153.471C473.252 155.172 450.765 154.99 449.735 156.504C441.794 168.196 470.419 217.94 462.478 229.646L461.372 230.966C463.962 229.771 466.451 228.366 468.812 226.765C469.024 221.973 469.237 217.166 469.464 212.375C471.842 215.419 473.762 218.796 475.162 222.398C477.011 221.094 478.527 218.676 486.451 213.921C489.66 210.395 493.358 207.348 497.433 204.876L473.981 153.471Z" fill="#2F2E41"/>
<path d="M485.128 208.637C505.683 208.637 522.347 191.962 522.347 171.393C522.347 150.823 505.683 134.148 485.128 134.148C464.572 134.148 447.908 150.823 447.908 171.393C447.908 191.962 464.572 208.637 485.128 208.637Z" fill="#A0616A"/>
<path d="M513.396 225.045C510.365 222.511 508.255 219.046 507.395 215.189C506.706 219.872 506.886 224.642 507.925 229.261C505.91 230.777 503.955 232.218 502.106 233.522C500.706 229.92 498.787 226.543 496.408 223.498C496.181 228.29 495.969 233.097 495.757 237.889C493.395 239.49 490.907 240.895 488.316 242.089L489.422 240.77C497.363 229.064 476.814 207.516 484.755 195.824C486.983 192.549 476.92 166.664 469.252 165.496C462.433 164.465 462.721 166.436 456.114 167.877C455.428 165.014 454.363 162.255 452.947 159.673C453.324 162.55 453.237 165.468 452.689 168.317C450.34 168.408 448.492 166.91 445.991 166.527C430.034 164.086 431.656 146.814 436.096 141.34C440.551 135.881 455.341 134.243 462.16 132.469C462.782 131.863 464.191 132.242 464.812 131.666C477.881 119.697 495.36 117.715 511.089 123.02C527.863 128.677 538.321 139.625 543.688 156.504L545.228 170.011C546.609 174.354 544.871 194.562 543.688 198.963C539.089 216.071 529.294 207.531 513.396 225.045Z" fill="#2F2E41"/>
</g>
<defs>
<clipPath id="clip0_692_17786">
<rect width="710" height="535" fill="white"/>
</clipPath>
</defs>
</svg>
