<svg width="710" height="501" viewBox="0 0 710 501" fill="none" xmlns="http://www.w3.org/2000/svg">
<g clip-path="url(#clip0_692_17606)">
<path d="M157.33 50.1857H112.052C107.699 50.1896 103.525 51.923 100.447 55.0053C97.3689 58.0875 95.6379 62.2669 95.634 66.6258V115.782C95.0551 115.747 94.4762 115.695 93.9058 115.626C83.179 114.496 72.9808 110.388 64.461 103.764C55.9412 97.1407 49.4386 88.2657 45.6864 78.1395C41.9342 68.0134 41.0815 57.039 43.2246 46.4536C45.3677 35.8682 50.4212 26.0928 57.8155 18.2295C65.2098 10.3663 74.6507 4.72791 85.0739 1.9501C95.497 -0.827718 106.488 -0.634492 116.807 2.508C127.127 5.6505 136.364 11.6173 143.478 19.7356C150.592 27.8539 155.3 37.8009 157.071 48.4552C157.166 49.0262 157.252 49.606 157.33 50.1857Z" fill="#F2F2F2"/>
<path d="M691.855 48.4552H112.052C107.241 48.4604 102.629 50.3765 99.2269 53.783C95.825 57.1896 93.9115 61.8083 93.9062 66.6258V372.932C93.9115 377.749 95.825 382.368 99.2269 385.774C102.629 389.181 107.241 391.097 112.052 391.102H691.855C696.666 391.097 701.278 389.181 704.68 385.774C708.082 382.368 709.995 377.749 710 372.932V66.6258C709.995 61.8083 708.082 57.1896 704.68 53.783C701.278 50.3765 696.666 48.4604 691.855 48.4552ZM708.272 372.932C708.268 377.291 706.537 381.47 703.459 384.552C700.381 387.635 696.208 389.368 691.855 389.372H112.052C107.699 389.368 103.525 387.635 100.447 384.552C97.3693 381.47 95.6384 377.291 95.6344 372.932V66.6258C95.6384 62.2669 97.3693 58.0875 100.447 55.0053C103.525 51.923 107.699 50.1896 112.052 50.1857H691.855C696.208 50.1896 700.381 51.923 703.459 55.0053C706.537 58.0875 708.268 62.2669 708.272 66.6258V372.932Z" fill="#3F3D56"/>
<path d="M663.34 98.0954H140.567C140.338 98.0954 140.118 98.0043 139.956 97.842C139.794 97.6797 139.703 97.4596 139.703 97.2301C139.703 97.0007 139.794 96.7806 139.956 96.6183C140.118 96.456 140.338 96.3649 140.567 96.3649H663.34C663.569 96.3649 663.789 96.456 663.951 96.6183C664.113 96.7806 664.204 97.0007 664.204 97.2301C664.204 97.4596 664.113 97.6797 663.951 97.842C663.789 98.0043 663.569 98.0954 663.34 98.0954Z" fill="#3F3D56"/>
<path d="M288.325 353.896C288.096 353.896 287.876 353.805 287.714 353.642C287.552 353.48 287.461 353.26 287.461 353.03V68.3564C287.461 68.1269 287.552 67.9068 287.714 67.7446C287.876 67.5823 288.096 67.4911 288.325 67.4911C288.554 67.4911 288.774 67.5823 288.936 67.7446C289.098 67.9068 289.189 68.1269 289.189 68.3564V353.03C289.189 353.26 289.098 353.48 288.936 353.642C288.774 353.805 288.554 353.896 288.325 353.896Z" fill="#3F3D56"/>
<path d="M418.804 353.896C418.574 353.896 418.355 353.805 418.193 353.642C418.031 353.48 417.939 353.26 417.939 353.03V68.3564C417.939 68.1269 418.031 67.9068 418.193 67.7446C418.355 67.5823 418.574 67.4911 418.804 67.4911C419.033 67.4911 419.252 67.5823 419.415 67.7446C419.577 67.9068 419.668 68.1269 419.668 68.3564V353.03C419.668 353.26 419.577 353.48 419.415 353.642C419.252 353.805 419.033 353.896 418.804 353.896Z" fill="#3F3D56"/>
<path d="M549.28 353.896C549.051 353.896 548.831 353.805 548.669 353.642C548.507 353.48 548.416 353.26 548.416 353.03V68.3564C548.416 68.1269 548.507 67.9068 548.669 67.7446C548.831 67.5823 549.051 67.4911 549.28 67.4911C549.509 67.4911 549.729 67.5823 549.891 67.7446C550.053 67.9068 550.144 68.1269 550.144 68.3564V353.03C550.144 353.26 550.053 353.48 549.891 353.642C549.729 353.805 549.509 353.896 549.28 353.896Z" fill="#3F3D56"/>
<path d="M204.437 187.407H172.863C171.832 187.406 170.844 186.995 170.115 186.265C169.386 185.535 168.976 184.545 168.975 183.513V146.203C168.976 145.171 169.386 144.181 170.115 143.451C170.844 142.721 171.832 142.31 172.863 142.309H204.437C205.468 142.31 206.456 142.721 207.185 143.451C207.914 144.181 208.324 145.171 208.325 146.203V183.513C208.324 184.545 207.914 185.535 207.185 186.265C206.456 186.995 205.468 187.406 204.437 187.407Z" fill="#0231C8"/>
<path d="M249.368 293.835H217.795C216.764 293.834 215.775 293.423 215.046 292.693C214.317 291.963 213.907 290.974 213.906 289.941V252.631C213.907 251.599 214.317 250.609 215.046 249.879C215.775 249.149 216.764 248.739 217.795 248.737H249.368C250.399 248.739 251.388 249.149 252.117 249.879C252.846 250.609 253.256 251.599 253.257 252.631V289.941C253.256 290.974 252.846 291.963 252.117 292.693C251.388 293.423 250.399 293.834 249.368 293.835Z" fill="#0231C8"/>
<path d="M351.331 209.904H319.758C318.727 209.903 317.738 209.492 317.009 208.762C316.28 208.032 315.87 207.042 315.869 206.01V168.7C315.87 167.668 316.28 166.678 317.009 165.948C317.738 165.218 318.727 164.807 319.758 164.806H351.331C352.362 164.807 353.351 165.218 354.079 165.948C354.808 166.678 355.218 167.668 355.22 168.7V206.01C355.218 207.042 354.808 208.032 354.079 208.762C353.351 209.492 352.362 209.903 351.331 209.904Z" fill="#0231C8"/>
<path d="M483.536 169.236H451.963C450.932 169.235 449.943 168.824 449.214 168.094C448.485 167.364 448.075 166.375 448.074 165.342V128.032C448.075 127 448.485 126.01 449.214 125.28C449.943 124.55 450.932 124.14 451.963 124.138H483.536C484.567 124.14 485.556 124.55 486.285 125.28C487.014 126.01 487.424 127 487.425 128.032V165.342C487.424 166.375 487.014 167.364 486.285 168.094C485.556 168.824 484.567 169.235 483.536 169.236Z" fill="#0231C8"/>
<path d="M605.372 169.236H573.799C572.768 169.235 571.779 168.824 571.05 168.094C570.321 167.364 569.911 166.375 569.91 165.342V128.032C569.911 127 570.321 126.01 571.05 125.28C571.779 124.55 572.768 124.14 573.799 124.138H605.372C606.403 124.14 607.392 124.55 608.12 125.28C608.849 126.01 609.26 127 609.261 128.032V165.342C609.26 166.375 608.849 167.364 608.12 168.094C607.392 168.824 606.403 169.235 605.372 169.236Z" fill="#0231C8"/>
<path d="M661.538 179.619H629.965C628.934 179.618 627.945 179.208 627.216 178.478C626.487 177.748 626.077 176.758 626.076 175.726V138.415C626.077 137.383 626.487 136.393 627.216 135.663C627.945 134.933 628.934 134.523 629.965 134.522H661.538C662.569 134.523 663.558 134.933 664.287 135.663C665.015 136.393 665.426 137.383 665.427 138.415V175.726C665.426 176.758 665.015 177.748 664.287 178.478C663.558 179.208 662.569 179.618 661.538 179.619Z" fill="#E6E6E6"/>
<path d="M636.48 246.245H604.906C603.875 246.244 602.887 245.833 602.158 245.103C601.429 244.373 601.019 243.384 601.018 242.351V205.041C601.019 204.009 601.429 203.019 602.158 202.289C602.887 201.559 603.875 201.149 604.906 201.148H636.48C637.511 201.149 638.499 201.559 639.228 202.289C639.957 203.019 640.367 204.009 640.368 205.041V242.351C640.367 243.384 639.957 244.373 639.228 245.103C638.499 245.833 637.511 246.244 636.48 246.245Z" fill="#E6E6E6"/>
<path d="M529.333 232.401H497.759C496.729 232.4 495.74 231.989 495.011 231.259C494.282 230.529 493.872 229.539 493.871 228.507V191.197C493.872 190.165 494.282 189.175 495.011 188.445C495.74 187.715 496.729 187.304 497.759 187.303H529.333C530.364 187.304 531.352 187.715 532.081 188.445C532.81 189.175 533.22 190.165 533.222 191.197V228.507C533.22 229.539 532.81 230.529 532.081 231.259C531.352 231.989 530.364 232.4 529.333 232.401Z" fill="#FF6584"/>
<path d="M467.984 246.245H436.41C435.379 246.244 434.391 245.833 433.662 245.103C432.933 244.373 432.523 243.384 432.521 242.351V205.041C432.523 204.009 432.933 203.019 433.662 202.289C434.391 201.559 435.379 201.149 436.41 201.148H467.984C469.015 201.149 470.003 201.559 470.732 202.289C471.461 203.019 471.871 204.009 471.872 205.041V242.351C471.871 243.384 471.461 244.373 470.732 245.103C470.003 245.833 469.015 246.244 467.984 246.245Z" fill="#E6E6E6"/>
<path d="M335.777 305.083H304.203C303.172 305.082 302.184 304.672 301.455 303.942C300.726 303.212 300.316 302.222 300.314 301.19V263.88C300.316 262.847 300.726 261.858 301.455 261.128C302.184 260.398 303.172 259.987 304.203 259.986H335.777C336.807 259.987 337.796 260.398 338.525 261.128C339.254 261.858 339.664 262.847 339.665 263.88V301.19C339.664 302.222 339.254 303.212 338.525 303.942C337.796 304.672 336.807 305.082 335.777 305.083Z" fill="#E6E6E6"/>
<path d="M175.921 255.763H144.347C143.316 255.762 142.328 255.351 141.599 254.621C140.87 253.891 140.46 252.902 140.459 251.869V214.559C140.46 213.527 140.87 212.537 141.599 211.807C142.328 211.077 143.316 210.667 144.347 210.666H175.921C176.952 210.667 177.94 211.077 178.669 211.807C179.398 212.537 179.808 213.527 179.81 214.559V251.869C179.808 252.902 179.398 253.891 178.669 254.621C177.94 255.351 176.952 255.762 175.921 255.763Z" fill="#FF6584"/>
<path d="M264.923 187.407H233.349C232.318 187.406 231.33 186.995 230.601 186.265C229.872 185.535 229.462 184.545 229.461 183.513V146.203C229.462 145.171 229.872 144.181 230.601 143.451C231.33 142.721 232.318 142.31 233.349 142.309H264.923C265.954 142.31 266.942 142.721 267.671 143.451C268.4 144.181 268.81 145.171 268.811 146.203V183.513C268.81 184.545 268.4 185.535 267.671 186.265C266.942 186.995 265.954 187.406 264.923 187.407Z" fill="#E6E6E6"/>
<path d="M239.073 83.9313H189.82C188.903 83.9313 188.024 83.5666 187.376 82.9175C186.727 82.2685 186.363 81.3881 186.363 80.4702C186.363 79.5522 186.727 78.6719 187.376 78.0228C188.024 77.3737 188.903 77.0091 189.82 77.0091H239.073C239.989 77.0091 240.868 77.3737 241.517 78.0228C242.165 78.6719 242.529 79.5522 242.529 80.4702C242.529 81.3881 242.165 82.2685 241.517 82.9175C240.868 83.5666 239.989 83.9313 239.073 83.9313Z" fill="#CCCCCC"/>
<path d="M378.19 83.9313H328.937C328.02 83.9313 327.141 83.5666 326.493 82.9175C325.845 82.2685 325.48 81.3881 325.48 80.4702C325.48 79.5522 325.845 78.6719 326.493 78.0228C327.141 77.3737 328.02 77.0091 328.937 77.0091H378.19C379.106 77.0091 379.986 77.3737 380.634 78.0228C381.282 78.6719 381.646 79.5522 381.646 80.4702C381.646 81.3881 381.282 82.2685 380.634 82.9175C379.986 83.5666 379.106 83.9313 378.19 83.9313Z" fill="#CCCCCC"/>
<path d="M508.668 83.9313H459.415C458.499 83.9313 457.62 83.5666 456.971 82.9175C456.323 82.2685 455.959 81.3881 455.959 80.4702C455.959 79.5522 456.323 78.6719 456.971 78.0228C457.62 77.3737 458.499 77.0091 459.415 77.0091H508.668C509.585 77.0091 510.464 77.3737 511.112 78.0228C511.761 78.6719 512.125 79.5522 512.125 80.4702C512.125 81.3881 511.761 82.2685 511.112 82.9175C510.464 83.5666 509.585 83.9313 508.668 83.9313Z" fill="#CCCCCC"/>
<path d="M630.504 83.9313H581.251C580.335 83.9313 579.455 83.5666 578.807 82.9175C578.159 82.2685 577.795 81.3881 577.795 80.4702C577.795 79.5522 578.159 78.6719 578.807 78.0228C579.455 77.3737 580.335 77.0091 581.251 77.0091H630.504C631.421 77.0091 632.3 77.3737 632.948 78.0228C633.596 78.6719 633.961 79.5522 633.961 80.4702C633.961 81.3881 633.596 82.2685 632.948 82.9175C632.3 83.5666 631.421 83.9313 630.504 83.9313Z" fill="#CCCCCC"/>
<path d="M128.757 337.362C127.492 337.238 126.271 336.838 125.177 336.19C124.084 335.542 123.146 334.662 122.43 333.611C121.713 332.561 121.235 331.366 121.029 330.111C120.823 328.856 120.895 327.571 121.239 326.346L99.0898 305.7L110.801 302.725L132.581 320.414C134.597 321.129 136.281 322.56 137.314 324.435C138.347 326.31 138.657 328.5 138.186 330.589C137.714 332.678 136.494 334.521 134.756 335.769C133.018 337.018 130.884 337.584 128.757 337.362Z" fill="#FFB8B8"/>
<path d="M159.342 489.962H169.935L174.975 449.045H159.34L159.342 489.962Z" fill="#FFB8B8"/>
<path d="M190.365 499.811L157.071 499.813L157.071 486.931L177.501 486.93C180.913 486.93 184.185 488.287 186.597 490.703C189.01 493.118 190.365 496.395 190.365 499.811L190.365 499.811Z" fill="#2F2E41"/>
<path d="M86.707 482.303L96.9447 485.032L112.326 446.79L97.2178 442.763L86.707 482.303Z" fill="#FFB8B8"/>
<path d="M114.156 499.814L81.9827 491.239L85.2914 478.791L105.034 484.053C108.331 484.932 111.144 487.086 112.855 490.042C114.566 492.998 115.034 496.513 114.156 499.814Z" fill="#2F2E41"/>
<path d="M172.784 482.215H156.619C155.598 482.219 154.613 481.839 153.857 481.152C153.101 480.465 152.63 479.519 152.536 478.501L142.723 376.458C142.651 375.709 142.321 375.009 141.791 374.477C141.26 373.945 140.561 373.614 139.814 373.541C139.067 373.468 138.317 373.657 137.694 374.076C137.07 374.496 136.612 375.119 136.397 375.839L107.905 471.191C107.603 472.205 106.923 473.063 106.005 473.586C105.088 474.109 104.004 474.258 102.98 474L87.9417 470.235C87.4169 470.104 86.9232 469.87 86.489 469.546C86.0548 469.223 85.6888 468.817 85.4119 468.352C85.135 467.886 84.9528 467.371 84.8758 466.835C84.7988 466.298 84.8284 465.752 84.963 465.227C85.2086 464.267 109.512 369.158 109.724 368.18C115.231 327.54 121.819 316.65 125.358 310.8C125.651 310.316 125.921 309.871 126.163 309.45C126.466 308.924 128.334 303.701 129.519 300.309C129.673 299.757 129.939 299.243 130.301 298.8C130.663 298.357 131.113 297.993 131.623 297.733C146.494 290.117 163.894 295.389 168.873 297.186C169.698 297.477 170.407 298.028 170.893 298.757C185.829 321.315 178.499 452.335 176.878 478.37C176.811 479.412 176.35 480.389 175.59 481.103C174.829 481.817 173.826 482.214 172.784 482.215Z" fill="#2F2E41"/>
<path d="M131.069 223.746C142.79 223.746 152.291 214.231 152.291 202.494C152.291 190.757 142.79 181.242 131.069 181.242C119.347 181.242 109.846 190.757 109.846 202.494C109.846 214.231 119.347 223.746 131.069 223.746Z" fill="#FFB8B8"/>
<path d="M128.82 304.435L128.668 304.287C128.382 304.01 100.105 276.27 103.764 250.619C105.329 239.648 114.194 232.638 129.4 230.345C134.986 229.515 140.684 230.731 145.446 233.77C150.209 236.81 153.716 241.469 155.322 246.89L170.357 298.36L128.82 304.435Z" fill="#CCCCCC"/>
<path d="M114.347 324.166L94.1984 304.116C92.8207 302.738 91.8204 301.027 91.2938 299.149C90.7672 297.272 90.732 295.29 91.1916 293.394L100.946 253.662C101.238 252.471 101.771 251.354 102.512 250.378C103.253 249.402 104.186 248.588 105.254 247.988C106.321 247.388 107.501 247.013 108.719 246.888C109.937 246.763 111.167 246.889 112.334 247.259C114.559 247.977 116.418 249.534 117.516 251.6C118.614 253.667 118.866 256.08 118.218 258.329L107.949 293.283L124.555 311.139L114.347 324.166Z" fill="#CCCCCC"/>
<path d="M222.42 255.741C221.887 256.896 221.108 257.92 220.137 258.741C219.166 259.561 218.028 260.159 216.802 260.491C215.576 260.823 214.292 260.882 213.04 260.664C211.789 260.446 210.6 259.955 209.559 259.227L182.66 273.188L183.849 261.329L207.695 246.551C209.033 244.88 210.936 243.758 213.044 243.398C215.152 243.038 217.319 243.464 219.134 244.597C220.949 245.73 222.286 247.49 222.891 249.544C223.497 251.598 223.329 253.803 222.42 255.741H222.42Z" fill="#FFB8B8"/>
<path d="M206.622 264.569L180.4 275.916C178.655 276.665 176.747 276.952 174.859 276.749C172.97 276.547 171.166 275.861 169.619 274.758L136.275 250.834C135.28 250.12 134.442 249.209 133.812 248.157C133.183 247.106 132.776 245.936 132.616 244.721C132.456 243.505 132.547 242.27 132.883 241.091C133.219 239.912 133.793 238.815 134.57 237.867C136.062 236.065 138.196 234.916 140.52 234.663C142.844 234.409 145.176 235.072 147.02 236.51L175.611 259.044L198.337 250.239L206.622 264.569Z" fill="#CCCCCC"/>
<path d="M134.587 209.304C137.205 206.019 142.096 205.843 145.693 203.676C150.403 200.837 152.351 194.495 150.833 189.203C149.315 183.912 144.838 179.788 139.705 177.816C134.572 175.844 128.861 175.82 123.446 176.773C115.384 178.192 107.447 181.96 102.53 188.514C97.6126 195.067 96.3613 204.665 100.817 211.541C102.866 214.701 106.027 217.309 106.845 220.987C107.918 225.815 104.537 230.471 100.914 233.833C96.7861 237.663 92.0507 240.87 88.4345 245.188C84.8184 249.505 82.407 255.403 84.0571 260.79C85.4396 265.304 89.4627 268.629 93.8744 270.294C98.286 271.96 103.091 272.2 107.805 272.293C112.382 272.382 117.243 272.271 121.099 269.8C125.227 267.154 127.431 262.135 127.594 257.23C127.757 252.325 126.12 247.519 123.926 243.131C122.619 240.515 121.098 237.98 120.23 235.187C119.361 232.394 119.21 229.225 120.602 226.653C122.064 223.95 125.023 222.319 128.036 221.726C128.193 221.695 128.359 221.668 128.532 221.643C129.389 221.532 130.215 221.248 130.959 220.808C131.704 220.368 132.351 219.781 132.863 219.083C133.374 218.385 133.739 217.591 133.936 216.748C134.132 215.905 134.155 215.03 134.004 214.178C133.661 212.262 133.691 210.428 134.587 209.304Z" fill="#2F2E41"/>
<path d="M417.551 490.868H406.957L401.918 449.951L417.553 449.952L417.551 490.868Z" fill="#A0616A"/>
<path d="M399.391 487.837H419.821V500.718H386.527C386.527 499.026 386.86 497.351 387.507 495.789C388.153 494.226 389.1 492.806 390.295 491.61C391.489 490.414 392.908 489.465 394.468 488.817C396.029 488.17 397.702 487.837 399.391 487.837Z" fill="#2F2E41"/>
<path d="M494.417 478.852L484.781 483.259L463.219 448.138L477.441 441.633L494.417 478.852Z" fill="#A0616A"/>
<path d="M476.64 483.65L495.224 475.151L500.568 486.867L470.284 500.719C469.582 499.18 469.19 497.518 469.129 495.828C469.069 494.137 469.342 492.451 469.932 490.866C470.522 489.281 471.418 487.828 472.569 486.59C473.72 485.352 475.104 484.353 476.64 483.65Z" fill="#2F2E41"/>
<path d="M463.568 352.907C464.583 352.142 465.418 351.163 466.014 350.04C466.611 348.917 466.954 347.677 467.02 346.407C467.086 345.136 466.873 343.867 466.396 342.688C465.919 341.509 465.19 340.449 464.26 339.583L476.713 311.289L460.893 313.973L451.492 340.43C450.143 342.092 449.449 344.191 449.541 346.331C449.634 348.47 450.508 350.501 451.996 352.039C453.484 353.577 455.485 354.515 457.617 354.675C459.75 354.835 461.867 354.205 463.568 352.907Z" fill="#A0616A"/>
<path d="M416.877 480.079H406.757C405.776 480.076 404.831 479.702 404.113 479.033C403.394 478.364 402.953 477.448 402.879 476.468L397.36 328.888C397.319 328.323 397.402 327.755 397.602 327.225C397.803 326.695 398.117 326.215 398.523 325.819C398.928 325.423 399.415 325.121 399.949 324.933C400.483 324.745 401.052 324.676 401.616 324.731L460.145 330.955C461.093 331.048 461.975 331.487 462.622 332.188C463.269 332.888 463.636 333.803 463.655 334.757L464.881 399.856C464.888 400.209 464.956 400.559 465.083 400.888L489.092 463.234C489.278 463.715 489.366 464.229 489.351 464.745C489.336 465.261 489.219 465.769 489.007 466.239C488.794 466.71 488.49 467.133 488.113 467.485C487.736 467.836 487.292 468.109 486.808 468.287L476.553 472.071C475.662 472.4 474.682 472.391 473.798 472.046C472.913 471.701 472.185 471.044 471.751 470.199L442.257 412.772C442.097 412.459 441.979 412.127 441.908 411.783L436.87 387.474C436.724 386.769 436.332 386.14 435.764 385.698C435.196 385.257 434.49 385.032 433.772 385.064C433.054 385.097 432.371 385.385 431.845 385.876C431.32 386.367 430.986 387.029 430.904 387.745L420.74 476.628C420.632 477.578 420.178 478.455 419.466 479.091C418.753 479.728 417.832 480.08 416.877 480.079Z" fill="#2F2E41"/>
<path d="M421.916 213.496C433.637 213.496 443.139 203.981 443.139 192.244C443.139 180.507 433.637 170.992 421.916 170.992C410.195 170.992 400.693 180.507 400.693 192.244C400.693 203.981 410.195 213.496 421.916 213.496Z" fill="#A0616A"/>
<path d="M436.47 342.383C422.078 342.224 408.029 337.962 395.968 330.097L395.762 329.955L395.783 329.704L403.901 235.03C404.181 231.818 405.613 228.816 407.932 226.579C410.251 224.342 413.3 223.022 416.516 222.863C427.037 222.378 441.169 222.989 448.734 228.631C460.167 237.158 465.677 249.998 463.852 263.858C460.067 292.601 464.355 331.375 464.856 335.701L464.892 336.013L464.607 336.144C455.794 340.25 446.191 342.379 436.47 342.383Z" fill="#0231C8"/>
<path d="M464.757 335.861C464.159 335.86 463.567 335.735 463.02 335.494C462.473 335.252 461.981 334.899 461.577 334.458L456.934 329.386C456.433 328.835 456.081 328.164 455.913 327.437C455.745 326.711 455.767 325.953 455.976 325.237L466.562 289.36L450.455 255.49C449.703 253.905 449.519 252.108 449.933 250.403C450.299 248.906 451.109 247.555 452.257 246.528C453.405 245.502 454.836 244.848 456.363 244.652C457.889 244.457 459.439 244.73 460.808 245.434C462.177 246.139 463.3 247.243 464.029 248.6L485.886 284.112C486.774 285.553 487.295 287.19 487.404 288.879C487.512 290.569 487.205 292.259 486.508 293.802L468.7 333.314C468.406 333.967 467.955 334.537 467.387 334.972C466.819 335.407 466.152 335.694 465.445 335.806C465.218 335.843 464.988 335.861 464.757 335.861Z" fill="#0231C8"/>
<path d="M315.165 267.328C316.185 268.087 317.358 268.613 318.602 268.869C319.846 269.125 321.132 269.105 322.367 268.81C323.603 268.514 324.759 267.952 325.754 267.161C326.749 266.37 327.558 265.37 328.125 264.232L358.747 268.209L351.71 253.769L323.71 252.206C321.737 251.379 319.53 251.304 317.507 251.997C315.483 252.69 313.784 254.103 312.73 255.967C311.677 257.83 311.343 260.016 311.792 262.11C312.241 264.204 313.441 266.061 315.165 267.328V267.328Z" fill="#A0616A"/>
<path d="M382.66 275.214C382.127 275.214 381.595 275.177 381.066 275.104L332.893 268.413C332.105 268.305 331.358 268.002 330.716 267.532C330.075 267.062 329.561 266.44 329.22 265.721C329.11 265.489 329.018 265.249 328.945 265.004H328.945C328.758 264.365 328.706 263.694 328.792 263.034C328.877 262.374 329.099 261.739 329.442 261.169L333.428 254.551C333.857 253.843 334.46 253.258 335.18 252.851C335.899 252.444 336.711 252.229 337.538 252.226H337.544L379.535 252.275L410.896 224.139C412.356 222.833 414.219 222.069 416.174 221.976C417.89 221.896 419.59 222.339 421.05 223.247C422.509 224.154 423.66 225.484 424.35 227.059C425.04 228.635 425.237 230.383 424.914 232.073C424.592 233.763 423.765 235.316 422.544 236.526L391.251 271.377C390.168 272.585 388.844 273.55 387.364 274.211C385.883 274.872 384.281 275.214 382.66 275.214Z" fill="#0231C8"/>
<path d="M424.329 211.15C426.268 206.656 427.909 200.67 424.19 197.492C422.032 195.649 418.924 195.645 416.097 195.415C408.132 194.769 399.934 191.1 396.041 184.112C392.148 177.124 394.322 166.733 401.666 163.581C406.617 161.456 412.292 162.903 417.474 164.375L433.033 168.793C437.656 170.106 442.51 171.553 445.838 175.024C451.146 180.559 450.749 189.917 446.533 196.325C442.317 202.734 435.968 209.418 428.7 211.851L424.329 211.15Z" fill="#2F2E41"/>
<path d="M638.978 501H1.02793C0.892571 501 0.758466 500.974 0.633295 500.922C0.508124 500.871 0.394358 500.795 0.298503 500.699C0.202649 500.604 0.126594 500.49 0.0747023 500.365C0.0228106 500.24 -0.00390625 500.105 -0.00390625 499.97C-0.00390625 499.834 0.0228106 499.7 0.0747023 499.575C0.126594 499.45 0.202649 499.336 0.298503 499.24C0.394358 499.144 0.508124 499.069 0.633295 499.017C0.758466 498.965 0.892571 498.939 1.02793 498.939H638.978C639.114 498.939 639.248 498.965 639.373 499.017C639.498 499.069 639.612 499.144 639.708 499.24C639.804 499.336 639.88 499.45 639.932 499.575C639.984 499.7 640.01 499.834 640.01 499.97C640.01 500.105 639.984 500.24 639.932 500.365C639.88 500.49 639.804 500.604 639.708 500.699C639.612 500.795 639.498 500.871 639.373 500.922C639.248 500.974 639.114 501 638.978 501Z" fill="#3F3D56"/>
</g>
<defs>
<clipPath id="clip0_692_17606">
<rect width="710" height="501" fill="white"/>
</clipPath>
</defs>
</svg>
