<svg width="710" height="446" viewBox="0 0 710 446" fill="none" xmlns="http://www.w3.org/2000/svg">
<g clip-path="url(#clip0_692_17654)">
<path d="M478.644 196.287H0V0H478.644V196.287ZM1.45653 194.83H477.187V1.45777H1.45653V194.83Z" fill="#3F3D56"/>
<path d="M67.604 74.8104H37.5239C35.4712 62.9336 35.4712 50.7922 37.5239 38.9153H67.604C64.2152 50.64 64.2152 63.0857 67.604 74.8104V74.8104Z" fill="#FF6584"/>
<path d="M93.6445 90.1007H123.725C125.777 78.2239 125.777 66.0825 123.725 54.2056H93.6445C97.0333 65.9303 97.0333 78.376 93.6445 90.1007V90.1007Z" fill="#E6E6E6"/>
<path d="M287.758 97.4401H328.633C328.916 97.4302 329.185 97.3108 329.381 97.1068C329.578 96.9028 329.688 96.6303 329.688 96.3467C329.688 96.0632 329.578 95.7906 329.381 95.5867C329.185 95.3827 328.916 95.2632 328.633 95.2534H287.758C287.475 95.2632 287.207 95.3827 287.01 95.5867C286.813 95.7906 286.703 96.0632 286.703 96.3467C286.703 96.6303 286.813 96.9028 287.01 97.1068C287.207 97.3108 287.475 97.4302 287.758 97.4401V97.4401Z" fill="#E6E6E6"/>
<path d="M327.571 87.1253L333.957 92.9593C334.688 93.6265 336.696 95.0039 337.15 95.8763C338.089 97.6799 337.08 97.2684 335.473 97.8934C331.522 99.4668 327.882 101.729 324.721 104.575C323.664 105.508 325.214 107.049 326.266 106.122C329.148 103.528 332.461 101.458 336.053 100.002C337.342 99.4919 339.786 99.1932 340.398 97.6573C341.147 95.7775 338.761 94.3904 337.631 93.3577L329.116 85.579C328.079 84.632 326.53 86.1741 327.571 87.1252L327.571 87.1253Z" fill="#E6E6E6"/>
<path d="M58.6875 141.851H88.7676C90.8203 129.975 90.8203 117.833 88.7676 105.956H58.6875C62.0763 117.681 62.0763 130.127 58.6875 141.851V141.851Z" fill="#0231C8"/>
<path d="M292.463 71.8786H322.543C324.596 60.0018 324.596 47.8603 322.543 35.9835H292.463C295.852 47.7082 295.852 60.1539 292.463 71.8786V71.8786Z" fill="#0231C8"/>
<path d="M197.234 130.859V42.2643L189.223 40.4771V138.876L249.669 138.257L249.465 130.324L197.234 130.859Z" fill="#F2F2F2"/>
<path d="M256.952 146.275H184.125V28.9251H256.952V146.275ZM185.582 144.818H255.495V30.3829H185.582V144.818Z" fill="#3F3D56"/>
<path d="M202.475 36.2139H190.68V37.6717H202.475V36.2139Z" fill="#3F3D56"/>
<path d="M202.475 39.8583H190.68V41.3161H202.475V39.8583Z" fill="#3F3D56"/>
<path d="M202.475 43.5027H190.68V44.9605H202.475V43.5027Z" fill="#3F3D56"/>
<path d="M246.9 106.187H196.506V107.644H246.9V106.187Z" fill="#3F3D56"/>
<path d="M246.9 114.204H196.506V115.662H246.9V114.204Z" fill="#3F3D56"/>
<path d="M246.9 122.222H196.506V123.68H246.9V122.222Z" fill="#3F3D56"/>
<path d="M246.028 45.6894C245.019 45.6894 244.034 45.3902 243.195 44.8295C242.357 44.2689 241.704 43.472 241.318 42.5397C240.932 41.6074 240.831 40.5816 241.028 39.5918C241.224 38.6021 241.71 37.693 242.423 36.9794C243.136 36.2659 244.044 35.78 245.033 35.5831C246.022 35.3862 247.047 35.4873 247.978 35.8734C248.91 36.2596 249.706 36.9136 250.266 37.7526C250.826 38.5917 251.125 39.5781 251.125 40.5872C251.124 41.9399 250.586 43.2368 249.631 44.1933C248.675 45.1499 247.379 45.6879 246.028 45.6894ZM246.028 36.9428C245.307 36.9428 244.603 37.1566 244.005 37.557C243.406 37.9575 242.939 38.5266 242.663 39.1926C242.388 39.8585 242.316 40.5913 242.456 41.2982C242.597 42.0052 242.943 42.6545 243.453 43.1642C243.962 43.6739 244.611 44.021 245.317 44.1616C246.024 44.3022 246.756 44.2301 247.421 43.9542C248.086 43.6784 248.655 43.2113 249.055 42.612C249.455 42.0126 249.669 41.308 249.669 40.5872C249.668 39.621 249.284 38.6947 248.601 38.0115C247.919 37.3282 246.993 36.9439 246.028 36.9428V36.9428Z" fill="#3F3D56"/>
<path d="M247.484 89.4224H195.777V55.8938H247.484V89.4224ZM197.234 87.9647H246.028V57.3516H197.234V87.9647Z" fill="#3F3D56"/>
<path d="M196.898 56.0083L196.115 57.2375L246.366 89.3086L247.149 88.0794L196.898 56.0083Z" fill="#3F3D56"/>
<path d="M246.364 56.0083L196.113 88.0786L196.896 89.3079L247.147 57.2375L246.364 56.0083Z" fill="#3F3D56"/>
<path d="M382.212 130.859V42.2643L374.201 40.4771V138.876L434.647 138.257L434.443 130.324L382.212 130.859Z" fill="#F2F2F2"/>
<path d="M442.659 144.818H369.832V27.4673H442.659V144.818ZM371.289 143.36H441.202V28.9251H371.289V143.36Z" fill="#3F3D56"/>
<path d="M388.182 34.7562H376.387V36.2139H388.182V34.7562Z" fill="#3F3D56"/>
<path d="M388.182 38.4006H376.387V39.8583H388.182V38.4006Z" fill="#3F3D56"/>
<path d="M388.182 42.045H376.387V43.5027H388.182V42.045Z" fill="#3F3D56"/>
<path d="M431.735 44.2316C430.726 44.2316 429.741 43.9324 428.902 43.3718C428.064 42.8111 427.411 42.0143 427.025 41.082C426.639 40.1497 426.538 39.1238 426.735 38.1341C426.931 37.1444 427.417 36.2352 428.13 35.5217C428.843 34.8081 429.751 34.3222 430.74 34.1253C431.729 33.9285 432.754 34.0295 433.685 34.4157C434.617 34.8018 435.413 35.4558 435.973 36.2948C436.533 37.1339 436.832 38.1203 436.832 39.1295C436.831 40.4822 436.293 41.7791 435.338 42.7356C434.382 43.6921 433.086 44.2301 431.735 44.2316ZM431.735 35.485C431.014 35.485 430.31 35.6988 429.712 36.0992C429.113 36.4997 428.646 37.0689 428.37 37.7348C428.095 38.4007 428.023 39.1335 428.163 39.8404C428.304 40.5474 428.651 41.1968 429.16 41.7065C429.669 42.2161 430.318 42.5632 431.024 42.7039C431.731 42.8445 432.463 42.7723 433.128 42.4965C433.793 42.2206 434.362 41.7535 434.762 41.1542C435.162 40.5549 435.376 39.8503 435.376 39.1295C435.375 38.1632 434.991 37.2369 434.308 36.5537C433.626 35.8705 432.7 35.4862 431.735 35.485V35.485Z" fill="#3F3D56"/>
<path d="M433.191 87.9647H381.484V54.436H433.191V87.9647ZM382.941 86.5069H431.735V55.8938H382.941V86.5069Z" fill="#3F3D56"/>
<path d="M382.605 54.5503L381.822 55.7795L432.073 87.8503L432.856 86.6211L382.605 54.5503Z" fill="#3F3D56"/>
<path d="M432.074 54.5531L381.82 86.6182L382.603 87.8475L432.857 55.7824L432.074 54.5531Z" fill="#3F3D56"/>
<path d="M433.191 131.698H381.484V98.1689H433.191V131.698ZM382.941 130.24H431.735V99.6267H382.941V130.24Z" fill="#3F3D56"/>
<path d="M382.605 98.2832L381.822 99.5125L432.073 131.583L432.856 130.354L382.605 98.2832Z" fill="#3F3D56"/>
<path d="M432.074 98.286L381.82 130.351L382.603 131.58L432.857 99.5153L432.074 98.286Z" fill="#3F3D56"/>
<path d="M209.439 168.82H239.52C241.572 156.943 241.572 144.802 239.52 132.925H209.439C212.828 144.65 212.828 157.095 209.439 168.82V168.82Z" fill="#0231C8"/>
<path d="M582.22 163.188C592.548 157.537 596.344 144.576 590.698 134.239C585.052 123.902 572.102 120.103 561.774 125.754C551.445 131.404 547.649 144.365 553.295 154.702C558.941 165.04 571.891 168.839 582.22 163.188Z" fill="#FFB8B8"/>
<path d="M605.41 136.856C615.823 136.856 624.265 128.407 624.265 117.985C624.265 107.562 615.823 99.1136 605.41 99.1136C594.996 99.1136 586.555 107.562 586.555 117.985C586.555 128.407 594.996 136.856 605.41 136.856Z" fill="#2F2E41"/>
<path d="M621.674 133.611C619.234 135.376 616.406 136.531 613.428 136.979C610.451 137.426 607.409 137.153 604.558 136.183C601.707 135.213 599.13 133.574 597.042 131.402C594.954 129.231 593.416 126.591 592.557 123.702C592.882 126.291 593.74 128.783 595.076 131.023C596.413 133.263 598.198 135.201 600.321 136.715C602.444 138.23 604.857 139.287 607.408 139.821C609.96 140.354 612.594 140.353 615.145 139.816C617.696 139.279 620.107 138.219 622.228 136.702C624.349 135.186 626.132 133.245 627.466 131.004C628.8 128.763 629.655 126.269 629.977 123.68C630.299 121.091 630.082 118.464 629.338 115.963C629.76 119.323 629.272 122.734 627.923 125.839C626.575 128.944 624.416 131.629 621.674 133.611V133.611Z" fill="#2F2E41"/>
<path d="M547.264 133.632C550.555 127.734 551.815 125.27 556.059 121.684C559.812 118.512 564.428 117.581 568.152 120.586C572.557 118.681 577.458 118.249 582.128 119.354C586.798 120.46 590.987 123.043 594.073 126.72C597.159 130.398 598.977 134.974 599.258 139.768C599.538 144.563 598.266 149.32 595.63 153.333C592.995 157.346 589.136 160.401 584.627 162.044C580.118 163.688 575.2 163.832 570.603 162.455C566.006 161.078 561.975 158.253 559.11 154.401C556.244 150.549 554.697 145.875 554.697 141.072C554.701 140.229 554.751 139.386 554.849 138.548C551.613 138.093 550.5 134.087 547.264 133.632Z" fill="#2F2E41"/>
<path d="M520.383 435.658L510.635 432.824L516.917 393.843L531.304 398.026L520.383 435.658Z" fill="#FFB8B8"/>
<path d="M503.054 427.598L523.28 433.478L519.842 445.326L489.204 436.419L489.618 434.992C490.016 433.623 490.678 432.346 491.568 431.234C492.458 430.122 493.559 429.196 494.806 428.51C496.054 427.823 497.424 427.389 498.839 427.233C500.255 427.077 501.687 427.201 503.054 427.598V427.598Z" fill="#2F2E41"/>
<path d="M621.125 435.892L610.974 435.891L606.145 396.703L621.126 396.703L621.125 435.892Z" fill="#FFB8B8"/>
<path d="M602.238 432.988H623.301V445.325H591.396V443.839C591.396 442.414 591.677 441.003 592.222 439.686C592.767 438.37 593.565 437.174 594.572 436.166C595.579 435.158 596.774 434.359 598.089 433.814C599.405 433.269 600.814 432.988 602.238 432.988V432.988Z" fill="#2F2E41"/>
<path d="M597.239 299.475C596.465 298.535 595.905 297.436 595.601 296.257C595.297 295.077 595.254 293.845 595.477 292.647C595.7 291.45 596.182 290.315 596.89 289.324C597.598 288.334 598.515 287.51 599.576 286.912L594.305 257.772L608.443 263.82L611.281 290.565C612.167 292.414 612.344 294.525 611.779 296.496C611.213 298.468 609.945 300.164 608.214 301.262C606.483 302.36 604.41 302.785 602.387 302.455C600.364 302.126 598.533 301.065 597.239 299.474V299.475Z" fill="#FFB8B8"/>
<path d="M604.82 229.704L588.232 179.304C587.886 178.726 583.757 172.222 574.766 174.988C573.773 175.268 572.849 175.748 572.05 176.4C571.251 177.052 570.594 177.862 570.121 178.779C567.489 183.828 569.944 191.63 569.955 191.671L590.378 237.475L590.399 237.522L596.845 284.561L610.766 281.732L604.82 229.704Z" fill="#0231C8"/>
<path d="M494.564 416.159L519.532 339.533L548.481 273.307L548.064 241.188L582.418 233.17L586.418 246.631C609.555 261.911 601.933 291.303 601.389 293.273L636.251 422.037L598.239 426.264L572.724 304.348L549.193 353.887L532.555 427.989L494.564 416.159Z" fill="#2F2E41"/>
<path d="M545.588 214.225C538.757 201.121 543.695 196.132 551.163 188.584C554.215 185.603 557.078 182.435 559.737 179.098C571.387 164.108 584.908 171.47 585.043 171.546L585.12 171.589L588.46 176.604C599.469 187.693 582.775 218.163 581.507 220.432L582.344 242.221L546.842 245.605L545.588 214.225Z" fill="#0231C8"/>
<path d="M559.113 298.341C558.601 297.235 558.338 296.031 558.342 294.813C558.345 293.594 558.616 292.392 559.134 291.289C559.653 290.187 560.406 289.212 561.342 288.432C562.277 287.653 563.372 287.088 564.549 286.778L566.817 257.251L578.967 266.683L574.951 293.276C575.34 295.29 574.978 297.377 573.932 299.141C572.887 300.905 571.232 302.225 569.279 302.849C567.327 303.473 565.214 303.359 563.34 302.528C561.467 301.697 559.963 300.207 559.113 298.341Z" fill="#FFB8B8"/>
<path d="M561.686 284.497L567.422 236.688L559.246 187.215C559.227 186.868 558.821 178.664 562.848 174.217C563.602 173.377 564.52 172.701 565.545 172.231C566.571 171.761 567.682 171.507 568.81 171.486C579.024 171.038 581.466 179.555 581.49 179.641L584.816 232.789L577.312 285.366L561.686 284.497Z" fill="#0231C8"/>
<path d="M431.802 446H709.272C709.465 446 709.651 445.923 709.787 445.787C709.924 445.65 710.001 445.464 710.001 445.271C710.001 445.078 709.924 444.892 709.787 444.756C709.651 444.619 709.465 444.542 709.272 444.542H431.802C431.609 444.542 431.424 444.619 431.288 444.756C431.151 444.892 431.074 445.078 431.074 445.271C431.074 445.464 431.151 445.65 431.288 445.787C431.424 445.923 431.609 446 431.802 446Z" fill="#CCCCCC"/>
</g>
<defs>
<clipPath id="clip0_692_17654">
<rect width="710" height="446" fill="white"/>
</clipPath>
</defs>
</svg>
