<svg width="65" height="19" viewBox="0 0 65 19" fill="none" xmlns="http://www.w3.org/2000/svg">
<path d="M11.148 18H14.964L11.1 10.464C13.284 9.528 14.244 7.896 14.244 5.88C14.244 2.232 12.06 0.599999 6.324 0.599999H0.612002V18H4.044V11.184H6.876H7.692L11.148 18ZM6.708 3.288C9.036 3.288 10.716 3.888 10.716 5.904C10.716 7.632 9.564 8.52 6.876 8.52H4.044V3.288H6.708ZM22.1404 7.392C23.9644 7.392 25.2604 8.856 25.2604 11.568C25.2604 14.28 23.9644 15.72 22.1404 15.72C20.3164 15.72 19.0204 14.28 19.0204 11.568C19.0204 8.856 20.3164 7.392 22.1404 7.392ZM22.1404 18.312C25.4044 18.312 28.6204 16.08 28.6204 11.568C28.6204 7.032 25.4044 4.8 22.1404 4.8C18.8764 4.8 15.6604 7.032 15.6604 11.568C15.6604 16.08 18.8764 18.312 22.1404 18.312ZM36.531 7.392C38.355 7.392 39.651 8.856 39.651 11.568C39.651 14.28 38.355 15.72 36.531 15.72C34.707 15.72 33.411 14.28 33.411 11.568C33.411 8.856 34.707 7.392 36.531 7.392ZM36.531 18.312C39.795 18.312 43.011 16.08 43.011 11.568C43.011 7.032 39.795 4.8 36.531 4.8C33.267 4.8 30.051 7.032 30.051 11.568C30.051 16.08 33.267 18.312 36.531 18.312ZM61.0061 18H64.3181V9.864C64.3181 6.816 63.1901 4.8 59.9501 4.8C58.0061 4.8 56.7341 5.472 55.7021 6.912C55.1981 5.976 54.2141 4.8 52.0301 4.8C50.4701 4.8 49.1741 5.52 48.4301 6.792V5.088H45.1181V18H48.4301V11.28C48.4301 9.312 48.7901 7.464 50.9981 7.464C52.9421 7.464 53.0621 9.072 53.0621 10.488V18H56.3741V11.28C56.3741 9.312 56.7341 7.464 58.9421 7.464C60.8861 7.464 61.0061 9.072 61.0061 10.488V18Z" fill="#131313"/>
</svg>
