<svg width="246" height="35" viewBox="0 0 246 35" fill="none" xmlns="http://www.w3.org/2000/svg">
<path d="M122.581 14.0327C122.258 12.2585 120.484 10.8069 118.387 10.8069C114.677 10.8069 113.226 14.0327 113.226 17.2585C113.226 20.4844 114.677 23.7102 118.387 23.7102C120.968 23.7102 122.419 21.936 122.742 19.3553H126.774C126.29 24.194 123.064 27.2585 118.387 27.2585C112.419 27.2585 109.032 22.9037 109.032 17.2585C109.032 11.6134 112.419 7.25854 118.387 7.25854C122.581 7.25854 126.129 9.6779 126.613 14.0327H122.581ZM129.194 7.74242H143.548V11.2908H133.387V15.3231H142.581V18.5489H133.387V23.2263H143.71V26.7747H129.194V7.74242ZM150.484 16.2908H155.161C157.097 16.2908 158.064 15.4844 158.064 13.5489C158.064 11.7747 157.097 10.9682 155.161 10.9682H150.484V16.2908ZM146.29 7.74242H156.613C160 7.74242 162.258 10.0005 162.258 12.9037C162.258 15.1618 161.29 16.936 159.194 17.7424C161.29 18.3876 161.935 20.3231 161.935 22.2585C162.097 23.5489 162.097 25.6456 162.742 26.7747H158.548C158.064 25.6456 158.064 23.7102 157.903 22.2585C157.581 20.1618 156.935 19.3553 154.677 19.3553H150.484V26.7747H146.29V7.74242ZM169.355 11.2908H163.71V7.74242H179.355V11.2908H173.548V26.7747H169.355V11.2908ZM181.129 7.74242H185.323V26.7747H181.129V7.74242ZM188.064 7.74242H201.613V11.2908H192.419V15.6456H200.323V18.8714H192.419V26.7747H188.064V7.74242ZM204.355 7.74242H208.548V26.7747H204.355V7.74242ZM211.29 7.74242H225.645V11.2908H215.484V15.3231H224.677V18.5489H215.484V23.2263H225.806V26.7747H211.29V7.74242ZM232.581 23.2263H236.29C238.71 23.2263 241.129 21.7747 241.129 17.5811C241.129 13.7102 239.677 11.2908 235.645 11.2908H232.581V23.2263ZM228.387 7.74242H236.613C241.613 7.74242 245.323 10.8069 245.323 17.0973C245.323 22.7424 242.419 26.7747 236.613 26.7747H228.387V7.74242Z" fill="#67696E"/>
<path d="M68.3867 29.3548L84.8383 35L101.451 29.3548V5.32258L84.8383 0L68.3867 5.32258V29.3548Z" fill="#F79310"/>
<path d="M95.3226 13.3875L82.5806 25.9681L74.5161 17.7423L78.0645 14.194L82.7419 18.8714L91.7742 9.83911L95.3226 13.3875Z" fill="white"/>
<path d="M11.7742 17.7421C10.9677 18.5485 9.19354 18.5485 7.74193 18.8711C6.29032 19.1937 4.83871 19.6776 4.83871 21.7743C4.83871 23.7098 6.29032 24.1937 7.90322 24.1937C11.6129 24.1937 11.7742 20.8066 11.7742 19.6776V17.7421ZM0.483871 13.7098C0.806451 8.70983 4.83871 7.09692 8.87096 7.09692C12.4193 7.09692 16.6129 8.06467 16.6129 12.7421V22.9034C16.6129 24.6776 16.7742 26.4518 17.2581 27.2582H12.2581L11.9355 25.3227C11.1793 26.1393 10.2527 26.7794 9.22127 27.1976C8.18988 27.6157 7.07907 27.8016 5.96774 27.7421C2.74193 27.7421 0 25.9679 0 21.9356C0 17.4195 3.06451 16.4518 5.96774 15.9679C9.03225 15.484 11.7742 15.6453 11.7742 13.3872C11.7742 11.1292 10.3226 10.8066 8.54838 10.8066C6.77419 10.8066 5.64516 11.6131 5.48387 13.7098H0.483871ZM38.7097 27.2582H33.7097L30.6451 14.1937H30.4839L27.4193 27.2582H22.4193L16.9355 7.74209H21.9355L25.3226 20.9679L28.2258 7.74209H32.9032L35.9677 20.9679L39.1935 7.74209H44.1935L38.7097 27.2582ZM48.5484 20.9679C48.5484 23.226 50.3226 24.1937 52.258 24.1937C53.5484 24.1937 55.3225 23.5485 55.3225 21.7743C55.3225 20.0001 53.3871 19.5163 49.8387 18.7098C47.0967 17.9034 44.3548 16.9356 44.3548 13.3872C44.3548 8.38725 48.2258 7.09692 51.9355 7.09692C55.8064 7.09692 59.3548 8.54854 59.6774 13.3872H55.1613C55 11.2905 53.5484 10.8066 51.7742 10.8066C50.8064 10.8066 49.1935 10.9679 49.1935 12.5808C49.1935 14.5163 51.7742 14.8389 54.6774 15.484C57.4193 16.1292 60.1613 17.2582 60.1613 20.9679C60.1613 26.1292 56.129 27.7421 52.0967 27.7421C48.0645 27.7421 44.0322 26.1292 43.8709 20.9679H48.5484Z" fill="#3E3C40"/>
</svg>
