<svg width="50" height="50" viewBox="0 0 50 50" fill="none" xmlns="http://www.w3.org/2000/svg">
<path fill-rule="evenodd" clip-rule="evenodd" d="M0 50H19.613C39.6649 47.7452 41.6113 25.3281 29.3601 16.3142C21.6156 10.7948 0.371056 10.3858 0 29.2294V50Z" fill="#FF5670"/>
<path d="M14.5833 0H8.33333C6.1232 0 4.00358 0.877974 2.44078 2.44078C0.877974 4.00358 0 6.1232 0 8.33333L0 14.5833C0 16.7935 0.877974 18.9131 2.44078 20.4759C4.00358 22.0387 6.1232 22.9167 8.33333 22.9167H14.5833C16.7935 22.9167 18.9131 22.0387 20.4759 20.4759C22.0387 18.9131 22.9167 16.7935 22.9167 14.5833V8.33333C22.9167 6.1232 22.0387 4.00358 20.4759 2.44078C18.9131 0.877974 16.7935 0 14.5833 0V0ZM18.75 14.5833C18.75 15.6884 18.311 16.7482 17.5296 17.5296C16.7482 18.311 15.6884 18.75 14.5833 18.75H8.33333C7.22827 18.75 6.16846 18.311 5.38706 17.5296C4.60565 16.7482 4.16667 15.6884 4.16667 14.5833V8.33333C4.16667 7.22827 4.60565 6.16846 5.38706 5.38706C6.16846 4.60565 7.22827 4.16667 8.33333 4.16667H14.5833C15.6884 4.16667 16.7482 4.60565 17.5296 5.38706C18.311 6.16846 18.75 7.22827 18.75 8.33333V14.5833Z" fill="#00005C"/>
<path d="M41.6668 0H35.4168C33.2067 0 31.0871 0.877974 29.5243 2.44078C27.9615 4.00358 27.0835 6.1232 27.0835 8.33333V14.5833C27.0835 16.7935 27.9615 18.9131 29.5243 20.4759C31.0871 22.0387 33.2067 22.9167 35.4168 22.9167H41.6668C43.877 22.9167 45.9966 22.0387 47.5594 20.4759C49.1222 18.9131 50.0002 16.7935 50.0002 14.5833V8.33333C50.0002 6.1232 49.1222 4.00358 47.5594 2.44078C45.9966 0.877974 43.877 0 41.6668 0V0ZM45.8335 14.5833C45.8335 15.6884 45.3945 16.7482 44.6131 17.5296C43.8317 18.311 42.7719 18.75 41.6668 18.75H35.4168C34.3118 18.75 33.252 18.311 32.4706 17.5296C31.6892 16.7482 31.2502 15.6884 31.2502 14.5833V8.33333C31.2502 7.22827 31.6892 6.16846 32.4706 5.38706C33.252 4.60565 34.3118 4.16667 35.4168 4.16667H41.6668C42.7719 4.16667 43.8317 4.60565 44.6131 5.38706C45.3945 6.16846 45.8335 7.22827 45.8335 8.33333V14.5833Z" fill="#00005C"/>
<path d="M14.5833 27.0835H8.33333C6.1232 27.0835 4.00358 27.9615 2.44078 29.5243C0.877974 31.0871 0 33.2067 0 35.4168L0 41.6668C0 43.877 0.877974 45.9966 2.44078 47.5594C4.00358 49.1222 6.1232 50.0002 8.33333 50.0002H14.5833C16.7935 50.0002 18.9131 49.1222 20.4759 47.5594C22.0387 45.9966 22.9167 43.877 22.9167 41.6668V35.4168C22.9167 33.2067 22.0387 31.0871 20.4759 29.5243C18.9131 27.9615 16.7935 27.0835 14.5833 27.0835ZM18.75 41.6668C18.75 42.7719 18.311 43.8317 17.5296 44.6131C16.7482 45.3945 15.6884 45.8335 14.5833 45.8335H8.33333C7.22827 45.8335 6.16846 45.3945 5.38706 44.6131C4.60565 43.8317 4.16667 42.7719 4.16667 41.6668V35.4168C4.16667 34.3118 4.60565 33.252 5.38706 32.4706C6.16846 31.6892 7.22827 31.2502 8.33333 31.2502H14.5833C15.6884 31.2502 16.7482 31.6892 17.5296 32.4706C18.311 33.252 18.75 34.3118 18.75 35.4168V41.6668Z" fill="#00005C"/>
<path d="M41.6668 27.0835H35.4168C33.2067 27.0835 31.0871 27.9615 29.5243 29.5243C27.9615 31.0871 27.0835 33.2067 27.0835 35.4168V41.6668C27.0835 43.877 27.9615 45.9966 29.5243 47.5594C31.0871 49.1222 33.2067 50.0002 35.4168 50.0002H41.6668C43.877 50.0002 45.9966 49.1222 47.5594 47.5594C49.1222 45.9966 50.0002 43.877 50.0002 41.6668V35.4168C50.0002 33.2067 49.1222 31.0871 47.5594 29.5243C45.9966 27.9615 43.877 27.0835 41.6668 27.0835ZM45.8335 41.6668C45.8335 42.7719 45.3945 43.8317 44.6131 44.6131C43.8317 45.3945 42.7719 45.8335 41.6668 45.8335H35.4168C34.3118 45.8335 33.252 45.3945 32.4706 44.6131C31.6892 43.8317 31.2502 42.7719 31.2502 41.6668V35.4168C31.2502 34.3118 31.6892 33.252 32.4706 32.4706C33.252 31.6892 34.3118 31.2502 35.4168 31.2502H41.6668C42.7719 31.2502 43.8317 31.6892 44.6131 32.4706C45.3945 33.252 45.8335 34.3118 45.8335 35.4168V41.6668Z" fill="#00005C"/>
</svg>
