<svg width="54" height="61" viewBox="0 0 54 61" fill="none" xmlns="http://www.w3.org/2000/svg">
<path d="M52.0502 59.4098L-8.77955e-05 59.4103L1.19993 9.43246e-05L52.0502 59.4098Z" fill="#FDB400"/>
<path d="M15.5833 10.0002H9.33333C7.1232 10.0002 5.00358 10.8782 3.44078 12.441C1.87797 14.0038 1 16.1234 1 18.3336L1 24.5836C1 26.7937 1.87797 28.9133 3.44078 30.4761C5.00358 32.0389 7.1232 32.9169 9.33333 32.9169H15.5833C17.7935 32.9169 19.9131 32.0389 21.4759 30.4761C23.0387 28.9133 23.9167 26.7937 23.9167 24.5836V18.3336C23.9167 16.1234 23.0387 14.0038 21.4759 12.441C19.9131 10.8782 17.7935 10.0002 15.5833 10.0002V10.0002ZM19.75 24.5836C19.75 25.6886 19.311 26.7485 18.5296 27.5299C17.7482 28.3113 16.6884 28.7502 15.5833 28.7502H9.33333C8.22826 28.7502 7.16846 28.3113 6.38705 27.5299C5.60565 26.7485 5.16667 25.6886 5.16667 24.5836V18.3336C5.16667 17.2285 5.60565 16.1687 6.38705 15.3873C7.16846 14.6059 8.22826 14.1669 9.33333 14.1669H15.5833C16.6884 14.1669 17.7482 14.6059 18.5296 15.3873C19.311 16.1687 19.75 17.2285 19.75 18.3336V24.5836Z" fill="#00005C"/>
<path d="M15.5833 37.0835H9.33333C7.1232 37.0835 5.00358 37.9615 3.44078 39.5243C1.87797 41.0871 1 43.2067 1 45.4168L1 51.6668C1 53.877 1.87797 55.9966 3.44078 57.5594C5.00358 59.1222 7.1232 60.0002 9.33333 60.0002H15.5833C17.7935 60.0002 19.9131 59.1222 21.4759 57.5594C23.0387 55.9966 23.9167 53.877 23.9167 51.6668V45.4168C23.9167 43.2067 23.0387 41.0871 21.4759 39.5243C19.9131 37.9615 17.7935 37.0835 15.5833 37.0835ZM19.75 51.6668C19.75 52.7719 19.311 53.8317 18.5296 54.6131C17.7482 55.3945 16.6884 55.8335 15.5833 55.8335H9.33333C8.22826 55.8335 7.16846 55.3945 6.38705 54.6131C5.60565 53.8317 5.16667 52.7719 5.16667 51.6668V45.4168C5.16667 44.3118 5.60565 43.252 6.38705 42.4706C7.16846 41.6892 8.22826 41.2502 9.33333 41.2502H15.5833C16.6884 41.2502 17.7482 41.6892 18.5296 42.4706C19.311 43.252 19.75 44.3118 19.75 45.4168V51.6668Z" fill="#00005C"/>
<path d="M42.6668 37.0835H36.4168C34.2067 37.0835 32.0871 37.9615 30.5243 39.5243C28.9615 41.0871 28.0835 43.2067 28.0835 45.4168V51.6668C28.0835 53.877 28.9615 55.9966 30.5243 57.5594C32.0871 59.1222 34.2067 60.0002 36.4168 60.0002H42.6668C44.877 60.0002 46.9966 59.1222 48.5594 57.5594C50.1222 55.9966 51.0002 53.877 51.0002 51.6668V45.4168C51.0002 43.2067 50.1222 41.0871 48.5594 39.5243C46.9966 37.9615 44.877 37.0835 42.6668 37.0835ZM46.8335 51.6668C46.8335 52.7719 46.3945 53.8317 45.6131 54.6131C44.8317 55.3945 43.7719 55.8335 42.6668 55.8335H36.4168C35.3118 55.8335 34.252 55.3945 33.4706 54.6131C32.6892 53.8317 32.2502 52.7719 32.2502 51.6668V45.4168C32.2502 44.3118 32.6892 43.252 33.4706 42.4706C34.252 41.6892 35.3118 41.2502 36.4168 41.2502H42.6668C43.7719 41.2502 44.8317 41.6892 45.6131 42.4706C46.3945 43.252 46.8335 44.3118 46.8335 45.4168V51.6668Z" fill="#00005C"/>
<path d="M30.1668 24.5837H46.8335C47.386 24.5837 47.9159 24.3642 48.3066 23.9735C48.6973 23.5828 48.9168 23.0529 48.9168 22.5003C48.9168 21.9478 48.6973 21.4179 48.3066 21.0272C47.9159 20.6365 47.386 20.417 46.8335 20.417H30.1668C29.6143 20.417 29.0844 20.6365 28.6937 21.0272C28.303 21.4179 28.0835 21.9478 28.0835 22.5003C28.0835 23.0529 28.303 23.5828 28.6937 23.9735C29.0844 24.3642 29.6143 24.5837 30.1668 24.5837Z" fill="#00005C"/>
</svg>
