<svg width="51" height="61" viewBox="0 0 51 61" fill="none" xmlns="http://www.w3.org/2000/svg">
<path fill-rule="evenodd" clip-rule="evenodd" d="M0 33.5V61C15.4586 61 28 48.6826 28 33.5C28 18.3174 15.4586 6 0 6V33.5Z" fill="#3C50E0"/>
<path d="M15.5833 0H9.33333C7.1232 0 5.00358 0.877974 3.44078 2.44078C1.87797 4.00358 1 6.1232 1 8.33333L1 14.5833C1 16.7935 1.87797 18.9131 3.44078 20.4759C5.00358 22.0387 7.1232 22.9167 9.33333 22.9167H15.5833C17.7935 22.9167 19.9131 22.0387 21.4759 20.4759C23.0387 18.9131 23.9167 16.7935 23.9167 14.5833V8.33333C23.9167 6.1232 23.0387 4.00358 21.4759 2.44078C19.9131 0.877974 17.7935 0 15.5833 0V0ZM19.75 14.5833C19.75 15.6884 19.311 16.7482 18.5296 17.5296C17.7482 18.311 16.6884 18.75 15.5833 18.75H9.33333C8.22826 18.75 7.16846 18.311 6.38705 17.5296C5.60565 16.7482 5.16667 15.6884 5.16667 14.5833V8.33333C5.16667 7.22826 5.60565 6.16846 6.38705 5.38705C7.16846 4.60565 8.22826 4.16667 9.33333 4.16667H15.5833C16.6884 4.16667 17.7482 4.60565 18.5296 5.38705C19.311 6.16846 19.75 7.22826 19.75 8.33333V14.5833Z" fill="#00005C"/>
<path d="M15.5833 27.0833H9.33333C7.1232 27.0833 5.00358 27.9612 3.44078 29.524C1.87797 31.0868 1 33.2064 1 35.4166L1 41.6666C1 43.8767 1.87797 45.9963 3.44078 47.5591C5.00358 49.1219 7.1232 49.9999 9.33333 49.9999H15.5833C17.7935 49.9999 19.9131 49.1219 21.4759 47.5591C23.0387 45.9963 23.9167 43.8767 23.9167 41.6666V35.4166C23.9167 33.2064 23.0387 31.0868 21.4759 29.524C19.9131 27.9612 17.7935 27.0833 15.5833 27.0833ZM19.75 41.6666C19.75 42.7717 19.311 43.8315 18.5296 44.6129C17.7482 45.3943 16.6884 45.8333 15.5833 45.8333H9.33333C8.22826 45.8333 7.16846 45.3943 6.38705 44.6129C5.60565 43.8315 5.16667 42.7717 5.16667 41.6666V35.4166C5.16667 34.3115 5.60565 33.2517 6.38705 32.4703C7.16846 31.6889 8.22826 31.2499 9.33333 31.2499H15.5833C16.6884 31.2499 17.7482 31.6889 18.5296 32.4703C19.311 33.2517 19.75 34.3115 19.75 35.4166V41.6666Z" fill="#00005C"/>
<path d="M42.6666 27.0833H36.4166C34.2064 27.0833 32.0868 27.9612 30.524 29.524C28.9612 31.0868 28.0833 33.2064 28.0833 35.4166V41.6666C28.0833 43.8767 28.9612 45.9963 30.524 47.5591C32.0868 49.1219 34.2064 49.9999 36.4166 49.9999H42.6666C44.8767 49.9999 46.9963 49.1219 48.5591 47.5591C50.1219 45.9963 50.9999 43.8767 50.9999 41.6666V35.4166C50.9999 33.2064 50.1219 31.0868 48.5591 29.524C46.9963 27.9612 44.8767 27.0833 42.6666 27.0833ZM46.8333 41.6666C46.8333 42.7717 46.3943 43.8315 45.6129 44.6129C44.8315 45.3943 43.7717 45.8333 42.6666 45.8333H36.4166C35.3115 45.8333 34.2517 45.3943 33.4703 44.6129C32.6889 43.8315 32.2499 42.7717 32.2499 41.6666V35.4166C32.2499 34.3115 32.6889 33.2517 33.4703 32.4703C34.2517 31.6889 35.3115 31.2499 36.4166 31.2499H42.6666C43.7717 31.2499 44.8315 31.6889 45.6129 32.4703C46.3943 33.2517 46.8333 34.3115 46.8333 35.4166V41.6666Z" fill="#00005C"/>
<path d="M30.1666 14.5833H36.4166V20.8333C36.4166 21.3858 36.6361 21.9157 37.0268 22.3064C37.4175 22.6971 37.9474 22.9166 38.4999 22.9166C39.0525 22.9166 39.5824 22.6971 39.9731 22.3064C40.3638 21.9157 40.5833 21.3858 40.5833 20.8333V14.5833H46.8333C47.3858 14.5833 47.9157 14.3638 48.3064 13.9731C48.6971 13.5824 48.9166 13.0525 48.9166 12.4999C48.9166 11.9474 48.6971 11.4175 48.3064 11.0268C47.9157 10.6361 47.3858 10.4166 46.8333 10.4166H40.5833V4.16659C40.5833 3.61405 40.3638 3.08415 39.9731 2.69345C39.5824 2.30275 39.0525 2.08325 38.4999 2.08325C37.9474 2.08325 37.4175 2.30275 37.0268 2.69345C36.6361 3.08415 36.4166 3.61405 36.4166 4.16659V10.4166H30.1666C29.6141 10.4166 29.0841 10.6361 28.6934 11.0268C28.3027 11.4175 28.0833 11.9474 28.0833 12.4999C28.0833 13.0525 28.3027 13.5824 28.6934 13.9731C29.0841 14.3638 29.6141 14.5833 30.1666 14.5833Z" fill="#00005C"/>
</svg>
