<svg width="141" height="40" viewBox="0 0 141 40" fill="none" xmlns="http://www.w3.org/2000/svg">
<path d="M36.6196 0H43.0985V40H36.6196V0Z" fill="#17313B"/>
<path d="M65.6337 27.3239C65.6337 33.5211 60.5633 34.0845 58.8731 34.0845C54.9295 34.0845 54.3661 30.4225 54.3661 28.4507V12.9578H47.8872V28.169C47.8872 31.831 49.014 35.2113 51.2675 37.1831C53.2393 39.1549 55.7745 40 58.8731 40C61.1266 40 63.9435 39.4366 65.6337 37.7465V40H72.1126V12.9578H65.6337V27.3239Z" fill="#17313B"/>
<path d="M84.7888 3.09888H78.31V12.958H73.5212V19.1552H78.31V40.0003H84.7888V19.1552H89.5776V12.958H84.7888V3.09888Z" fill="#17313B"/>
<path d="M109.859 31.8309C108.451 32.9577 106.479 33.8027 104.507 33.8027C100 33.8027 96.9015 30.4224 96.9015 25.9154C96.9015 21.4084 100 18.3098 104.507 18.3098C106.479 18.3098 108.451 18.8732 109.859 20.2816L110.704 21.1267L115.211 16.9013L114.085 16.0563C111.549 13.8027 108.169 12.3943 104.507 12.3943C96.6198 12.3943 90.7043 18.3098 90.7043 26.1971C90.7043 34.0844 96.6198 39.9999 104.507 39.9999C108.169 39.9999 111.549 38.5915 114.085 36.3379L115.211 35.4929L110.704 30.9858L109.859 31.8309Z" fill="#17313B"/>
<path d="M138.028 15.2113C136.056 13.2394 134.084 12.3944 130.986 12.3944C128.732 12.3944 126.479 12.9577 124.788 14.6479V0H118.31V40H124.788V25.0704C124.788 18.8732 129.014 18.3098 130.704 18.3098C134.648 18.3098 134.366 21.9718 134.366 23.9436V39.7183H140.845V24.2253C140.845 20.5634 140 17.1831 138.028 15.2113Z" fill="#17313B"/>
<path d="M104.225 30.704C106.714 30.704 108.732 28.6862 108.732 26.197C108.732 23.7078 106.714 21.6899 104.225 21.6899C101.736 21.6899 99.7183 23.7078 99.7183 26.197C99.7183 28.6862 101.736 30.704 104.225 30.704Z" fill="#EF4335"/>
<path d="M27.6056 30.1408C25.3521 32.3944 21.9718 33.8028 18.3098 33.8028C11.2676 33.8028 6.19718 28.169 6.19718 20.5634C6.19718 12.9577 11.2676 7.32395 18.5915 7.32395C21.9718 7.32395 25.3521 8.73239 27.8873 11.2676L28.7324 12.1127L32.9577 7.88732L32.1127 7.04225C28.4507 3.38028 23.662 1.40845 18.5915 1.40845C7.88732 1.12676 0 9.57746 0 20.5634C0 31.5493 7.88732 40 18.3098 40C23.3803 40 28.4507 38.0281 31.831 34.3662L32.676 33.5211L28.4507 29.2958L27.6056 30.1408Z" fill="#17313B"/>
</svg>
