<svg width="40" height="37" viewBox="0 0 40 37" fill="none" xmlns="http://www.w3.org/2000/svg">
<path d="M36.6418 21.2787C38.8806 21.2787 40 22.391 40 24.6157V33.6629C40 35.8876 38.8806 37 36.6418 37H27.9851C25.7463 37 24.6269 35.8876 24.6269 33.6629V24.6157C24.6269 19.4247 25.1741 14.9011 26.2687 11.0449C27.4129 7.13933 29.6269 3.72809 32.9104 0.811236C34.005 -0.12809 34.9254 -0.251685 35.6716 0.440449L39.0299 3.55506C39.7761 4.24719 39.602 5.08764 38.5075 6.0764C36.8159 7.55955 35.4229 9.71011 34.3284 12.5281C33.2836 15.2966 32.7612 18.2135 32.7612 21.2787H36.6418ZM12.0149 21.2787C14.2537 21.2787 15.3731 22.391 15.3731 24.6157V33.6629C15.3731 35.8876 14.2537 37 12.0149 37H3.35821C1.1194 37 0 35.8876 0 33.6629V24.6157C0 19.4247 0.547264 14.9011 1.64179 11.0449C2.78607 7.13933 5 3.72809 8.28358 0.811236C9.37811 -0.12809 10.2985 -0.251685 11.0448 0.440449L14.403 3.55506C15.1493 4.24719 14.9751 5.08764 13.8806 6.0764C12.1891 7.55955 10.796 9.71011 9.70149 12.5281C8.65672 15.2966 8.13433 18.2135 8.13433 21.2787H12.0149Z" fill="#FDB400"/>
</svg>
