<svg width="781" height="589" viewBox="0 0 781 589" fill="none" xmlns="http://www.w3.org/2000/svg">
<g clip-path="url(#clip0_689_15057)">
<path d="M450.068 28.6668C456.767 42.9095 442.571 46.9437 426.31 54.5776C410.05 62.2115 397.881 70.5542 391.182 56.3116C384.483 42.0689 379.047 13.7998 402.051 3.00028C425.847 -8.17124 443.368 14.4241 450.068 28.6668Z" fill="#2F2E41"/>
<path d="M416.891 56.6765C428.981 56.6765 438.781 46.8849 438.781 34.8064C438.781 22.7279 428.981 12.9363 416.891 12.9363C404.801 12.9363 395 22.7279 395 34.8064C395 46.8849 404.801 56.6765 416.891 56.6765Z" fill="#FFB8B8"/>
<path d="M525.342 131.796C524.584 130.807 523.826 129.837 523.06 128.893C522.071 127.664 521.076 126.474 520.074 125.322C508.728 112.242 496.66 104.005 483.372 103.124H483.354L483.158 103.106L456.678 128.893L447.676 137.655L447.872 138.136L452.729 150.219H537.837C534.002 143.861 529.831 137.711 525.342 131.796V131.796Z" fill="#2F2E41"/>
<path d="M393.087 43.6113L400.923 39.9325L399.831 28.6388L405.071 37.985L408.817 36.2267L408.18 29.6387L411.237 35.0906L439.066 22.0256C436.452 16.4685 431.736 12.1763 425.955 10.0933C420.173 8.01026 413.8 8.30708 408.238 10.9184L404.205 12.8119C398.642 15.4233 394.346 20.1352 392.261 25.9112C390.176 31.6872 390.473 38.0541 393.087 43.6113V43.6113Z" fill="#2F2E41"/>
<path d="M574.451 440.588H117.37C113.471 440.584 109.733 439.035 106.976 436.28C104.219 433.526 102.668 429.792 102.664 425.896V151.505C102.667 148.651 103.803 145.915 105.823 143.897C107.843 141.879 110.581 140.744 113.438 140.741H578.197C581.103 140.744 583.888 141.899 585.943 143.952C587.998 146.004 589.154 148.788 589.157 151.691V425.896C589.152 429.792 587.602 433.526 584.845 436.28C582.088 439.035 578.35 440.584 574.451 440.588Z" fill="#F2F2F2"/>
<path d="M131.631 425.896H560.19C563.973 425.896 567.6 424.395 570.274 421.723C572.948 419.052 574.451 415.428 574.451 411.649V178.757C574.451 174.979 572.948 171.355 570.274 168.683C567.6 166.011 563.973 164.51 560.19 164.51H131.631C127.848 164.51 124.221 166.011 121.547 168.683C118.873 171.355 117.37 174.979 117.37 178.757V411.649C117.37 415.428 118.873 419.052 121.547 421.723C124.221 424.395 127.848 425.896 131.631 425.896Z" fill="white"/>
<path d="M588.952 150.664H102.458V143.184C102.464 139.276 104.021 135.53 106.788 132.767C109.555 130.004 113.306 128.451 117.218 128.448H574.193C578.105 128.451 581.856 130.004 584.623 132.767C587.39 135.53 588.947 139.276 588.952 143.184V150.664Z" fill="#0231C8"/>
<path d="M129.281 143.392C131.389 143.392 133.098 141.685 133.098 139.578C133.098 137.472 131.389 135.764 129.281 135.764C127.172 135.764 125.463 137.472 125.463 139.578C125.463 141.685 127.172 143.392 129.281 143.392Z" fill="white"/>
<path d="M143.772 143.392C145.88 143.392 147.59 141.685 147.59 139.578C147.59 137.472 145.88 135.764 143.772 135.764C141.663 135.764 139.954 137.472 139.954 139.578C139.954 141.685 141.663 143.392 143.772 143.392Z" fill="white"/>
<path d="M158.263 143.392C160.371 143.392 162.081 141.685 162.081 139.578C162.081 137.472 160.371 135.764 158.263 135.764C156.155 135.764 154.445 137.472 154.445 139.578C154.445 141.685 156.155 143.392 158.263 143.392Z" fill="white"/>
<path d="M359.282 375.39H320.957C318.713 375.387 316.56 374.495 314.973 372.909C313.386 371.323 312.493 369.173 312.49 366.931V328.642C312.493 326.399 313.386 324.249 314.973 322.663C316.56 321.077 318.713 320.185 320.957 320.183H359.282C361.527 320.185 363.679 321.077 365.267 322.663C366.854 324.249 367.747 326.399 367.749 328.642V366.931C367.747 369.173 366.854 371.323 365.267 372.909C363.679 374.495 361.527 375.387 359.282 375.39V375.39ZM320.957 321.963C319.185 321.965 317.486 322.67 316.233 323.922C314.98 325.174 314.275 326.871 314.273 328.642V366.931C314.275 368.701 314.98 370.399 316.233 371.651C317.486 372.903 319.185 373.607 320.957 373.609H359.282C361.054 373.607 362.754 372.903 364.007 371.651C365.26 370.399 365.965 368.701 365.967 366.931V328.642C365.965 326.871 365.26 325.174 364.007 323.922C362.754 322.67 361.054 321.965 359.282 321.963H320.957Z" fill="#CCCCCC"/>
<path d="M351.706 364.704H328.533C327.824 364.704 327.145 364.422 326.643 363.921C326.142 363.42 325.86 362.741 325.859 362.033V333.539C325.86 332.831 326.142 332.152 326.643 331.651C327.145 331.15 327.824 330.869 328.533 330.868H345.324C345.933 330.868 346.524 331.076 346.999 331.457L353.381 336.58C353.694 336.83 353.946 337.147 354.119 337.507C354.292 337.868 354.381 338.263 354.38 338.663V362.033C354.379 362.741 354.097 363.42 353.596 363.921C353.095 364.422 352.415 364.704 351.706 364.704V364.704ZM328.533 332.649C328.297 332.649 328.07 332.743 327.903 332.91C327.736 333.077 327.642 333.303 327.642 333.539V362.033C327.642 362.269 327.736 362.496 327.903 362.662C328.07 362.829 328.297 362.923 328.533 362.924H351.706C351.943 362.923 352.169 362.829 352.336 362.662C352.503 362.496 352.597 362.269 352.598 362.033V338.663C352.598 338.529 352.568 338.398 352.511 338.278C352.453 338.158 352.369 338.052 352.265 337.969L345.882 332.845C345.724 332.718 345.527 332.649 345.324 332.649H328.533Z" fill="#CCCCCC"/>
<path d="M347.25 343.334H332.99C332.754 343.334 332.527 343.24 332.36 343.073C332.192 342.906 332.099 342.68 332.099 342.444C332.099 342.207 332.192 341.981 332.36 341.814C332.527 341.647 332.754 341.553 332.99 341.553H347.25C347.487 341.553 347.713 341.647 347.881 341.814C348.048 341.981 348.142 342.207 348.142 342.444C348.142 342.68 348.048 342.906 347.881 343.073C347.713 343.24 347.487 343.334 347.25 343.334Z" fill="#CCCCCC"/>
<path d="M347.25 348.677H332.99C332.754 348.677 332.527 348.583 332.36 348.416C332.192 348.249 332.099 348.022 332.099 347.786C332.099 347.55 332.192 347.324 332.36 347.157C332.527 346.99 332.754 346.896 332.99 346.896H347.25C347.487 346.896 347.713 346.99 347.881 347.157C348.048 347.324 348.142 347.55 348.142 347.786C348.142 348.022 348.048 348.249 347.881 348.416C347.713 348.583 347.487 348.677 347.25 348.677Z" fill="#CCCCCC"/>
<path d="M347.25 354.019H332.99C332.754 354.019 332.527 353.925 332.36 353.758C332.192 353.591 332.099 353.365 332.099 353.129C332.099 352.893 332.192 352.666 332.36 352.499C332.527 352.332 332.754 352.238 332.99 352.238H347.25C347.487 352.238 347.713 352.332 347.881 352.499C348.048 352.666 348.142 352.893 348.142 353.129C348.142 353.365 348.048 353.591 347.881 353.758C347.713 353.925 347.487 354.019 347.25 354.019Z" fill="#CCCCCC"/>
<path d="M450.192 375.39H411.868C409.623 375.387 407.471 374.495 405.883 372.909C404.296 371.323 403.403 369.173 403.4 366.931V328.642C403.403 326.399 404.296 324.249 405.883 322.663C407.471 321.077 409.623 320.185 411.868 320.183H450.192C452.437 320.185 454.589 321.077 456.177 322.663C457.764 324.249 458.657 326.399 458.66 328.642V366.931C458.657 369.173 457.764 371.323 456.177 372.909C454.589 374.495 452.437 375.387 450.192 375.39V375.39ZM411.868 321.963C410.095 321.965 408.396 322.67 407.143 323.922C405.89 325.174 405.185 326.871 405.183 328.642V366.931C405.185 368.701 405.89 370.399 407.143 371.651C408.396 372.903 410.095 373.607 411.868 373.609H450.192C451.965 373.607 453.664 372.903 454.917 371.651C456.17 370.399 456.875 368.701 456.877 366.931V328.642C456.875 326.871 456.17 325.174 454.917 323.922C453.664 322.67 451.965 321.965 450.192 321.963H411.868Z" fill="#CCCCCC"/>
<path d="M443.508 357.581H418.553C417.844 357.58 417.164 357.299 416.663 356.798C416.162 356.297 415.88 355.618 415.879 354.91V340.663C415.88 339.954 416.162 339.275 416.663 338.775C417.164 338.274 417.844 337.992 418.553 337.991H443.508C444.217 337.992 444.897 338.274 445.398 338.775C445.9 339.275 446.182 339.954 446.182 340.663V354.91C446.182 355.618 445.9 356.297 445.398 356.798C444.897 357.299 444.217 357.58 443.508 357.581V357.581ZM418.553 339.772C418.316 339.772 418.09 339.866 417.923 340.033C417.756 340.2 417.662 340.427 417.661 340.663V354.91C417.662 355.146 417.756 355.372 417.923 355.539C418.09 355.706 418.316 355.8 418.553 355.8H443.508C443.745 355.8 443.971 355.706 444.138 355.539C444.306 355.372 444.4 355.146 444.4 354.91V340.663C444.4 340.427 444.306 340.2 444.138 340.033C443.971 339.866 443.745 339.772 443.508 339.772H418.553Z" fill="#CCCCCC"/>
<path d="M431.03 350.135C430.53 350.136 430.039 349.996 429.613 349.732L416.297 341.418C416.097 341.292 415.955 341.093 415.902 340.863C415.85 340.633 415.89 340.391 416.015 340.191C416.141 339.991 416.34 339.849 416.57 339.796C416.8 339.743 417.042 339.783 417.243 339.907L430.559 348.222C430.7 348.31 430.864 348.356 431.031 348.356C431.198 348.356 431.361 348.31 431.503 348.222L444.818 339.907C445.019 339.783 445.26 339.743 445.49 339.796C445.721 339.849 445.92 339.991 446.045 340.191C446.17 340.391 446.211 340.633 446.158 340.863C446.105 341.093 445.963 341.292 445.763 341.418L432.448 349.732C432.023 349.996 431.531 350.136 431.03 350.135V350.135Z" fill="#CCCCCC"/>
<path d="M268.372 375.39H230.047C227.802 375.387 225.65 374.495 224.063 372.909C222.476 371.323 221.583 369.173 221.58 366.931V328.642C221.583 326.399 222.476 324.249 224.063 322.663C225.65 321.077 227.802 320.185 230.047 320.183H268.372C270.617 320.185 272.769 321.077 274.356 322.663C275.944 324.249 276.837 326.399 276.839 328.642V366.931C276.837 369.173 275.944 371.323 274.356 372.909C272.769 374.495 270.617 375.387 268.372 375.39V375.39ZM230.047 321.963C228.275 321.965 226.576 322.67 225.323 323.922C224.07 325.174 223.365 326.871 223.363 328.642V366.931C223.365 368.701 224.07 370.399 225.323 371.651C226.576 372.903 228.275 373.607 230.047 373.609H268.372C270.144 373.607 271.843 372.903 273.097 371.651C274.35 370.399 275.055 368.701 275.057 366.931V328.642C275.055 326.871 274.35 325.174 273.097 323.922C271.843 322.67 270.144 321.965 268.372 321.963H230.047Z" fill="#CCCCCC"/>
<path d="M261.688 357.581H236.732C236.024 357.58 235.344 357.299 234.843 356.798C234.341 356.297 234.059 355.618 234.059 354.91V340.663C234.059 339.954 234.341 339.275 234.843 338.775C235.344 338.274 236.024 337.992 236.732 337.991H261.688C262.397 337.992 263.077 338.274 263.578 338.775C264.079 339.275 264.361 339.954 264.362 340.663V354.91C264.361 355.618 264.079 356.297 263.578 356.798C263.077 357.299 262.397 357.58 261.688 357.581V357.581ZM236.732 339.772C236.496 339.772 236.27 339.866 236.102 340.033C235.935 340.2 235.841 340.427 235.841 340.663V354.91C235.841 355.146 235.935 355.372 236.102 355.539C236.27 355.706 236.496 355.8 236.732 355.8H261.688C261.924 355.8 262.151 355.706 262.318 355.539C262.485 355.372 262.579 355.146 262.579 354.91V340.663C262.579 340.427 262.485 340.2 262.318 340.033C262.151 339.866 261.924 339.772 261.688 339.772H236.732Z" fill="#CCCCCC"/>
<path d="M257.732 357.581H239.796C239.483 357.581 239.176 357.499 238.905 357.343C238.634 357.186 238.409 356.961 238.252 356.691C238.096 356.42 238.014 356.113 238.014 355.8C238.014 355.487 238.096 355.18 238.253 354.91L243.655 345.56C243.812 345.289 244.037 345.065 244.308 344.908C244.579 344.752 244.886 344.67 245.199 344.67C245.512 344.67 245.819 344.752 246.09 344.908C246.361 345.065 246.586 345.289 246.743 345.56L250.232 351.598L252.254 348.1C252.41 347.829 252.635 347.605 252.906 347.448C253.177 347.292 253.485 347.21 253.798 347.21C254.111 347.21 254.418 347.292 254.689 347.448C254.96 347.605 255.185 347.829 255.341 348.1L259.276 354.91C259.433 355.18 259.515 355.488 259.515 355.8C259.515 356.113 259.433 356.42 259.276 356.691C259.12 356.961 258.895 357.186 258.624 357.343C258.353 357.499 258.045 357.581 257.732 357.581H257.732ZM257.732 355.8L253.797 348.991L251.004 353.824C250.926 353.96 250.814 354.072 250.678 354.15C250.543 354.229 250.389 354.27 250.232 354.27V354.27C250.076 354.27 249.922 354.229 249.787 354.15C249.651 354.072 249.539 353.96 249.46 353.824L245.199 346.451L239.796 355.8H257.732Z" fill="#CCCCCC"/>
<path d="M259.014 345.115C259.998 345.115 260.797 344.317 260.797 343.334C260.797 342.35 259.998 341.553 259.014 341.553C258.03 341.553 257.231 342.35 257.231 343.334C257.231 344.317 258.03 345.115 259.014 345.115Z" fill="#CCCCCC"/>
<path d="M685.235 577.137L674.308 577.136L669.11 535.029L685.237 535.03L685.235 577.137Z" fill="#FFB8B8"/>
<path d="M688.022 587.719L652.789 587.717V587.272C652.789 585.473 653.144 583.691 653.833 582.029C654.522 580.367 655.532 578.857 656.806 577.584C658.079 576.312 659.591 575.303 661.255 574.615C662.918 573.926 664.702 573.572 666.503 573.572H666.504L688.022 573.573L688.022 587.719Z" fill="#2F2E41"/>
<path d="M729.799 577.137L718.872 577.136L713.674 535.029L729.801 535.03L729.799 577.137Z" fill="#FFB8B8"/>
<path d="M732.586 587.719L697.354 587.717V587.272C697.353 585.473 697.708 583.691 698.397 582.029C699.086 580.367 700.097 578.857 701.37 577.584C702.644 576.312 704.155 575.303 705.819 574.615C707.483 573.926 709.266 573.572 711.067 573.572H711.068L732.587 573.573L732.586 587.719Z" fill="#2F2E41"/>
<path d="M726.524 558.883L716.404 555.808C715.649 555.579 714.979 555.134 714.477 554.526C713.975 553.919 713.664 553.178 713.582 552.395L704.147 463.06C704.14 462.952 704.092 462.851 704.012 462.777C703.933 462.703 703.829 462.662 703.721 462.662C703.612 462.652 703.504 462.684 703.419 462.752C703.334 462.82 703.279 462.918 703.266 463.026L687.462 549.576C687.366 550.101 687.166 550.602 686.874 551.049C686.582 551.496 686.203 551.88 685.76 552.178C685.317 552.477 684.819 552.684 684.295 552.788C683.771 552.891 683.231 552.889 682.708 552.781L669.774 550.12C668.825 549.921 667.98 549.388 667.394 548.617C666.807 547.846 666.519 546.89 666.582 545.924L676.194 404.066L741.381 397.039L731.694 555.294C731.631 556.311 731.183 557.266 730.441 557.966C729.699 558.665 728.718 559.055 727.697 559.058C727.3 559.058 726.904 558.999 726.524 558.883V558.883Z" fill="#2F2E41"/>
<path d="M726.462 280.53C738.552 280.53 748.353 270.739 748.353 258.66C748.353 246.582 738.552 236.79 726.462 236.79C714.372 236.79 704.571 246.582 704.571 258.66C704.571 270.739 714.372 280.53 726.462 280.53Z" fill="#FFB8B8"/>
<path d="M676.094 404.899L690.228 315.988C690.979 311.261 692.73 306.748 695.363 302.749C697.996 298.75 701.452 295.358 705.5 292.797C709.547 290.236 714.095 288.566 718.839 287.897C723.583 287.229 728.415 287.577 733.014 288.919V288.919C741.054 291.243 747.939 296.477 752.323 303.601C756.708 310.724 758.276 319.225 756.723 327.442L741.935 406.844L676.094 404.899Z" fill="#0231C8"/>
<path d="M732.505 420.808C733.599 420.087 734.521 419.135 735.206 418.019C735.891 416.903 736.323 415.651 736.472 414.35C736.62 413.05 736.481 411.732 736.065 410.491C735.649 409.25 734.965 408.115 734.062 407.166L748.676 378.894L732.219 380.648L720.864 407.227C719.37 408.848 718.522 410.961 718.482 413.164C718.442 415.368 719.212 417.509 720.647 419.183C722.082 420.857 724.082 421.947 726.267 422.247C728.453 422.546 730.672 422.034 732.505 420.808V420.808Z" fill="#FFB8B8"/>
<path d="M735.634 402.179C734.825 402.065 734.071 401.708 733.471 401.155L727.88 395.993C727.276 395.433 726.859 394.701 726.684 393.896C726.51 393.091 726.588 392.252 726.907 391.493L738.081 365.031L736.496 312.744C736.724 311.063 737.281 309.444 738.136 307.978C738.99 306.513 740.126 305.23 741.477 304.203C742.828 303.176 744.369 302.426 746.011 301.994C747.653 301.562 749.363 301.458 751.046 301.687C752.728 301.916 754.348 302.475 755.814 303.33C757.28 304.185 758.563 305.321 759.59 306.672C760.617 308.023 761.367 309.562 761.797 311.203C762.228 312.844 762.331 314.553 762.1 316.233L764.81 349.102C765.634 359.077 762.803 369.012 756.844 377.058L739.418 400.595C739.082 401.047 738.656 401.424 738.165 401.701C737.674 401.977 737.131 402.148 736.57 402.201C736.258 402.231 735.944 402.223 735.634 402.179V402.179Z" fill="#0231C8"/>
<path d="M600.4 246.745C600.638 248.032 601.156 249.251 601.918 250.317C602.679 251.382 603.665 252.268 604.805 252.911C605.946 253.555 607.215 253.941 608.521 254.042C609.827 254.143 611.14 253.957 612.366 253.496L632.728 277.964L637.528 262.139L617.456 241.33C616.545 239.323 614.928 237.72 612.913 236.824C610.897 235.928 608.623 235.801 606.52 236.469C604.418 237.136 602.634 238.551 601.506 240.445C600.378 242.339 599.984 244.58 600.4 246.745V246.745Z" fill="#FFB8B8"/>
<path d="M616.351 256.887C616.771 256.187 617.395 255.633 618.139 255.297L625.076 252.165C625.828 251.828 626.665 251.73 627.475 251.883C628.285 252.037 629.028 252.435 629.604 253.025L649.638 273.622L698.449 292.55C699.91 293.415 701.186 294.559 702.204 295.917C703.222 297.274 703.962 298.819 704.382 300.463C704.802 302.107 704.893 303.817 704.651 305.496C704.409 307.175 703.838 308.79 702.971 310.248C702.103 311.707 700.957 312.98 699.597 313.995C698.237 315.011 696.689 315.748 695.044 316.166C693.398 316.584 691.686 316.673 690.006 316.429C688.325 316.185 686.709 315.613 685.251 314.745L653.899 304.423C644.382 301.292 636.329 294.814 631.236 286.194L616.336 260.986C616.05 260.501 615.869 259.961 615.805 259.402C615.741 258.843 615.796 258.276 615.966 257.74C616.06 257.441 616.189 257.155 616.351 256.887V256.887Z" fill="#0231C8"/>
<path opacity="0.1" d="M744.218 334.495L743.326 362.989L726.907 391.492L740.617 359.728L744.218 334.495Z" fill="black"/>
<path d="M723.954 262.77C722.579 262.949 721.186 262.623 720.034 261.853C718.881 261.083 718.048 259.921 717.688 258.583C717.341 257.044 716.581 255.627 715.489 254.487C714.398 253.346 713.016 252.523 711.493 252.107C707.477 251.19 702.569 253.078 699.627 250.039C698.997 249.345 698.541 248.511 698.297 247.607C698.053 246.702 698.027 245.753 698.223 244.837C698.765 241.883 700.88 239.651 703.181 237.867C708.024 234.128 713.886 231.94 719.996 231.588C723.159 231.497 726.324 231.654 729.462 232.059C732.748 232.266 735.998 232.859 739.145 233.827C742.73 235.178 745.916 237.411 748.408 240.318C750.901 243.226 752.62 246.714 753.407 250.46C754.126 254.219 754.015 258.088 753.083 261.799C752.15 265.511 750.418 268.974 748.008 271.947C745.122 275.537 741.401 278.367 737.17 280.191C736.161 280.667 735.006 280.725 733.955 280.354C731.32 279.307 731.75 276.045 732.952 273.869C734.238 271.541 736.217 269.287 735.183 266.453C734.664 265.139 733.669 264.069 732.396 263.456C729.775 262.121 726.845 262.437 724.028 262.762L723.954 262.77Z" fill="#2F2E41"/>
<path d="M593.085 275.121H322.137C318.238 275.116 314.5 273.567 311.743 270.813C308.986 268.058 307.435 264.324 307.431 260.429V202.55C307.435 198.655 308.986 194.92 311.743 192.166C314.5 189.412 318.238 187.862 322.137 187.858H593.085C596.984 187.862 600.721 189.412 603.478 192.166C606.235 194.92 607.786 198.655 607.791 202.55V260.429C607.786 264.324 606.235 268.058 603.478 270.813C600.721 273.567 596.984 275.116 593.085 275.121V275.121Z" fill="white"/>
<path d="M593.085 275.566H322.137C318.12 275.562 314.269 273.965 311.428 271.127C308.588 268.29 306.99 264.442 306.985 260.429V202.55C306.99 198.537 308.588 194.689 311.428 191.851C314.269 189.014 318.12 187.417 322.137 187.413H593.085C597.102 187.417 600.953 189.014 603.794 191.851C606.634 194.689 608.232 198.537 608.237 202.55V260.429C608.232 264.442 606.634 268.29 603.794 271.127C600.953 273.965 597.102 275.562 593.085 275.566ZM322.137 189.194C318.593 189.198 315.194 190.606 312.688 193.11C310.182 195.614 308.772 199.009 308.768 202.55V260.429C308.772 263.97 310.182 267.365 312.688 269.869C315.194 272.373 318.593 273.781 322.137 273.785H593.085C596.629 273.781 600.028 272.373 602.534 269.869C605.04 267.365 606.45 263.97 606.454 260.429V202.55C606.45 199.009 605.04 195.614 602.534 193.11C600.028 190.606 596.629 189.198 593.085 189.194H322.137Z" fill="#3F3D56"/>
<path d="M560.108 260.874H355.114C351.215 260.869 347.477 259.32 344.72 256.566C341.963 253.811 340.413 250.077 340.408 246.182V215.907C340.413 212.012 341.963 208.277 344.72 205.523C347.477 202.768 351.215 201.219 355.114 201.215H560.108C564.007 201.219 567.745 202.768 570.502 205.523C573.259 208.277 574.809 212.012 574.814 215.907V246.182C574.809 250.077 573.259 253.811 570.502 256.566C567.745 259.32 564.007 260.869 560.108 260.874V260.874Z" fill="#F2F2F2"/>
<path d="M399.228 244.556C408.941 244.556 416.814 236.69 416.814 226.986C416.814 217.282 408.941 209.415 399.228 209.415C389.515 209.415 381.641 217.282 381.641 226.986C381.641 236.69 389.515 244.556 399.228 244.556Z" fill="#FF6584"/>
<path d="M547.368 259.101L522.544 238.3L498.148 217.859C497.505 217.32 496.691 217.025 495.851 217.026C495.01 217.028 494.198 217.326 493.556 217.868L469.239 238.403L463.299 243.419L454.344 235.915L427.127 213.11C426.483 212.571 425.669 212.276 424.829 212.278C423.989 212.279 423.176 212.577 422.534 213.119L395.406 236.029L367.85 259.299C367.711 259.417 367.611 259.575 367.564 259.751C367.517 259.928 367.526 260.114 367.589 260.286C367.652 260.457 367.766 260.605 367.916 260.709C368.066 260.814 368.244 260.87 368.427 260.869L424.922 260.76L442.805 260.726L442.63 260.874L495.935 260.771L546.797 260.673C546.98 260.673 547.159 260.617 547.308 260.512C547.458 260.407 547.571 260.258 547.634 260.087C547.696 259.915 547.704 259.728 547.657 259.552C547.609 259.376 547.508 259.218 547.368 259.101Z" fill="#3F3D56"/>
<path d="M780.109 589H608.984C608.748 589 608.521 588.906 608.354 588.739C608.187 588.572 608.093 588.346 608.093 588.11C608.093 587.873 608.187 587.647 608.354 587.48C608.521 587.313 608.748 587.219 608.984 587.219H780.109C780.345 587.219 780.572 587.313 780.739 587.48C780.906 587.647 781 587.873 781 588.11C781 588.346 780.906 588.572 780.739 588.739C780.572 588.906 780.345 589 780.109 589Z" fill="#CCCCCC"/>
<path d="M538.381 117.46C537.669 116.304 536.729 115.305 535.618 114.525C534.507 113.744 533.249 113.197 531.919 112.918C531.432 112.816 530.938 112.754 530.44 112.731L462.533 52.0748C461.2 50.7051 459.42 49.8558 457.516 49.6795C457.14 49.6364 456.761 49.6245 456.384 49.6439C454.817 49.715 453.305 50.2407 452.032 51.1567C450.76 52.0726 449.782 53.3392 449.219 54.8015C448.655 56.2637 448.53 57.8584 448.859 59.3904C449.189 60.9224 449.957 62.3254 451.072 63.4279L477.07 86.0717L519.762 123.247C519.797 123.948 519.902 124.643 520.074 125.322C520.585 127.291 521.683 129.058 523.222 130.389C524.762 131.72 526.669 132.552 528.693 132.775C530.538 132.991 532.407 132.682 534.085 131.885C535.416 131.263 536.595 130.361 537.543 129.24C537.641 129.124 537.731 129.017 537.82 128.893C539.066 127.27 539.787 125.307 539.888 123.264C539.988 121.221 539.462 119.196 538.381 117.46H538.381Z" fill="#FFB8B8"/>
<path d="M422.23 175.917L421.597 150.219L421.062 128.893L420.697 113.969L419.975 84.8785C419.832 83.321 419.238 81.8387 418.266 80.6126C417.294 79.3865 415.986 78.4696 414.501 77.9739C413.017 77.4781 411.419 77.425 409.905 77.821C408.39 78.217 407.024 79.0449 405.973 80.2037C405.725 80.4685 405.502 80.7545 405.304 81.0586C404.207 82.6286 403.713 84.5413 403.914 86.4457L405.501 128.893L406.294 150.219L407.31 177.422C407.017 177.821 406.752 178.241 406.517 178.677C405.883 179.878 405.5 181.195 405.391 182.548C405.282 183.901 405.45 185.262 405.884 186.549C406.337 187.898 407.07 189.136 408.037 190.181C409.003 191.226 410.18 192.055 411.49 192.613C412.801 193.17 414.214 193.444 415.638 193.417C417.062 193.389 418.464 193.06 419.752 192.452C421.247 191.746 422.546 190.682 423.532 189.355C424.519 188.029 425.163 186.48 425.408 184.845C425.653 183.211 425.491 181.541 424.937 179.984C424.382 178.427 423.453 177.03 422.23 175.917H422.23Z" fill="#FFB8B8"/>
<path d="M483.372 103.124L477.07 86.0717L466.874 58.4504C466.138 56.4407 464.959 54.6223 463.424 53.1301C461.889 51.6379 460.037 50.5103 458.006 49.8309C457.845 49.7775 457.676 49.7241 457.516 49.6795C455.548 49.0829 453.475 48.9188 451.438 49.1986C449.401 49.4783 447.449 50.1953 445.715 51.3001L411.374 73.0624C408.229 75.0509 405.981 78.1829 405.105 81.7967C404.228 85.4106 404.792 89.2233 406.677 92.4294C410.972 99.8483 415.651 107.038 420.697 113.969C424.699 119.41 432.15 119.988 433.442 128.893H458.763L484.397 105.902L483.372 103.124Z" fill="#CCCCCC"/>
<path d="M90.166 311.523C101.572 311.523 110.818 302.285 110.818 290.89C110.818 279.495 101.572 270.257 90.166 270.257C78.76 270.257 69.5137 279.495 69.5137 290.89C69.5137 302.285 78.76 311.523 90.166 311.523Z" fill="#A0616A"/>
<path d="M140.868 276.687C141.071 276.849 141.269 277.021 141.46 277.202C142.408 278.095 143.158 279.178 143.658 280.38C144.159 281.583 144.399 282.877 144.364 284.179C144.329 285.481 144.019 286.76 143.454 287.934C142.89 289.107 142.083 290.149 141.088 290.989C140.856 291.184 140.614 291.366 140.363 291.535L141.76 338.68C141.8 340.223 141.341 341.738 140.45 343C139.56 344.262 138.286 345.203 136.818 345.685L136.733 345.703L98.4182 349.779C97.3765 349.89 96.3232 349.793 95.3191 349.495C94.315 349.197 93.38 348.703 92.5681 348.042C91.7562 347.38 91.0834 346.565 90.5887 345.642C90.094 344.72 89.787 343.709 89.6857 342.667C89.5843 341.625 89.6905 340.574 89.9981 339.574C90.3057 338.573 90.8086 337.643 91.4778 336.838C92.147 336.033 92.9692 335.368 93.897 334.883C94.8248 334.397 95.8398 334.099 96.8833 334.007L124.196 331.604L128.919 290.777C128.61 290.503 128.321 290.209 128.053 289.895C126.572 288.144 125.796 285.906 125.874 283.614C125.952 281.323 126.88 279.143 128.477 277.497C130.074 275.851 132.227 274.856 134.516 274.707C136.806 274.557 139.07 275.263 140.868 276.687H140.868Z" fill="#A0616A"/>
<path d="M124.18 578.049H134.489L139.393 538.324H124.178L124.18 578.049Z" fill="#A0616A"/>
<path d="M121.551 574.686L141.852 574.685H141.853C143.552 574.685 145.235 575.02 146.804 575.669C148.374 576.319 149.8 577.271 151.002 578.471C152.203 579.671 153.156 581.096 153.806 582.664C154.456 584.233 154.791 585.913 154.791 587.611V588.031L121.551 588.032L121.551 574.686Z" fill="#2F2E41"/>
<path d="M21.7168 563.809L30.5743 569.078L55.1316 537.452L42.0584 529.676L21.7168 563.809Z" fill="#A0616A"/>
<path d="M21.1796 559.576L38.6234 569.952L38.6241 569.953C40.0839 570.821 41.3582 571.968 42.3743 573.329C43.3904 574.689 44.1283 576.236 44.5459 577.881C44.9635 579.527 45.0526 581.238 44.8082 582.918C44.5638 584.598 43.9906 586.213 43.1213 587.671L42.9062 588.032L14.3457 571.043L21.1796 559.576Z" fill="#2F2E41"/>
<path d="M136.921 564.018H125.378C124.443 564.019 123.541 563.674 122.846 563.05C122.151 562.426 121.712 561.566 121.615 560.637L109.978 451.347C109.948 451.072 109.829 450.814 109.639 450.613C109.448 450.413 109.197 450.28 108.923 450.236C108.65 450.192 108.37 450.24 108.126 450.371C107.882 450.502 107.688 450.709 107.574 450.961L86.5794 497.406L49.41 557.958C48.9289 558.734 48.1841 559.311 47.3118 559.583C46.4396 559.856 45.4984 559.805 44.6605 559.441L29.8116 552.914C29.3206 552.698 28.8812 552.38 28.5225 551.982C28.1637 551.583 27.8939 551.113 27.7308 550.603C27.5678 550.092 27.5152 549.553 27.5767 549.02C27.6381 548.488 27.8121 547.974 28.0872 547.514L62.2561 490.355L72.7354 442.196C69.4395 421.311 83.5689 390.26 83.7121 389.948L83.7821 389.797L122.702 374.599L122.897 374.838C138.246 425.16 147.599 479.315 140.693 560.554C140.608 561.497 140.174 562.374 139.477 563.014C138.78 563.654 137.868 564.012 136.921 564.018V564.018Z" fill="#2F2E41"/>
<path d="M82.2145 394.885L82.0332 394.505C81.9466 394.323 73.2925 376.087 66.6213 356.598C65.3392 352.829 64.8545 348.835 65.1979 344.869C65.5414 340.903 66.7055 337.052 68.6164 333.559C70.5523 330.03 73.2007 326.941 76.3938 324.488C79.5869 322.035 83.2552 320.271 87.1662 319.308V319.308C93.956 317.682 101.104 318.547 107.309 321.746C113.514 324.944 118.362 330.263 120.97 336.734C126.262 349.954 124.576 364.065 122.988 375.162L122.957 375.385L122.754 375.482L82.2145 394.885Z" fill="#3F3D56"/>
<path d="M115.206 279.235H82.4121V264.954C89.6099 262.097 96.6533 259.667 100.911 264.954C104.702 264.954 108.338 266.458 111.019 269.137C113.7 271.815 115.206 275.447 115.206 279.235V279.235Z" fill="#2F2E41"/>
<path d="M80.5968 262.434C60.9922 262.434 55.5049 286.984 55.5049 300.834C55.5049 308.558 59.0014 311.321 64.4957 312.256L66.436 301.917L70.9807 312.701C72.524 312.708 74.1454 312.678 75.8263 312.647L77.3672 309.477L80.8033 312.59C94.5654 312.611 105.688 314.615 105.688 300.834C105.688 286.984 100.876 262.434 80.5968 262.434Z" fill="#2F2E41"/>
<path d="M172.016 589H0.891276C0.654895 589 0.428195 588.906 0.261048 588.739C0.0939014 588.572 0 588.346 0 588.11C0 587.873 0.0939014 587.647 0.261048 587.48C0.428195 587.313 0.654895 587.219 0.891276 587.219H172.016C172.253 587.219 172.479 587.313 172.647 587.48C172.814 587.647 172.908 587.873 172.908 588.11C172.908 588.346 172.814 588.572 172.647 588.739C172.479 588.906 172.253 589 172.016 589Z" fill="#CCCCCC"/>
<path d="M175.234 296.046H136.91C134.665 296.044 132.513 295.152 130.925 293.566C129.338 291.98 128.445 289.83 128.442 287.587V249.298C128.445 247.055 129.338 244.905 130.925 243.319C132.513 241.734 134.665 240.842 136.91 240.839H175.234C177.479 240.842 179.631 241.734 181.219 243.319C182.806 244.905 183.699 247.055 183.701 249.298V287.587C183.699 289.83 182.806 291.98 181.219 293.566C179.631 295.152 177.479 296.044 175.234 296.046V296.046Z" fill="white"/>
<path d="M175.234 296.046H136.91C134.665 296.044 132.513 295.152 130.925 293.566C129.338 291.98 128.445 289.83 128.442 287.587V249.298C128.445 247.055 129.338 244.905 130.925 243.319C132.513 241.734 134.665 240.842 136.91 240.839H175.234C177.479 240.842 179.631 241.734 181.219 243.319C182.806 244.905 183.699 247.055 183.701 249.298V287.587C183.699 289.83 182.806 291.98 181.219 293.566C179.631 295.152 177.479 296.044 175.234 296.046V296.046ZM136.91 242.62C135.137 242.622 133.438 243.326 132.185 244.578C130.932 245.83 130.227 247.528 130.225 249.298V287.587C130.227 289.358 130.932 291.055 132.185 292.307C133.438 293.559 135.137 294.263 136.91 294.265H175.234C177.007 294.263 178.706 293.559 179.959 292.307C181.212 291.055 181.917 289.358 181.919 287.587V249.298C181.917 247.528 181.212 245.83 179.959 244.578C178.706 243.326 177.007 242.622 175.234 242.62H136.91Z" fill="#3F3D56"/>
<path d="M168.549 280.463H143.594C142.885 280.463 142.205 280.181 141.704 279.68C141.203 279.179 140.921 278.5 140.92 277.792V259.093C140.921 258.385 141.203 257.706 141.704 257.205C142.205 256.704 142.885 256.422 143.594 256.422H150.619C151.076 256.42 151.526 256.536 151.925 256.759C152.324 256.981 152.658 257.303 152.896 257.693L154.856 260.874H168.549C169.258 260.875 169.938 261.156 170.439 261.657C170.941 262.158 171.223 262.837 171.223 263.545V277.792C171.223 278.5 170.941 279.179 170.439 279.68C169.938 280.181 169.258 280.463 168.549 280.463V280.463Z" fill="#0231C8"/>
<path d="M167.737 289.91C167.862 290.138 167.977 290.373 168.083 290.614C168.611 291.805 168.88 293.093 168.875 294.396C168.869 295.698 168.588 296.984 168.05 298.17C167.512 299.356 166.729 300.415 165.753 301.278C164.777 302.141 163.629 302.788 162.385 303.177C162.096 303.266 161.802 303.34 161.505 303.399L144.482 347.391C143.919 348.829 142.907 350.047 141.597 350.865C140.286 351.683 138.746 352.057 137.206 351.931L137.121 351.915L100.225 340.818C99.2215 340.516 98.2881 340.019 97.4785 339.355C96.6688 338.691 95.9988 337.873 95.5073 336.949C95.0157 336.024 94.7124 335.012 94.6146 333.97C94.5169 332.928 94.6268 331.877 94.938 330.877C95.2492 329.878 95.7555 328.95 96.4276 328.147C97.0997 327.345 97.9244 326.683 98.854 326.2C99.7836 325.717 100.8 325.424 101.844 325.336C102.888 325.247 103.939 325.367 104.936 325.687L131.042 334.06L151.253 298.263C151.074 297.892 150.922 297.508 150.797 297.115C150.112 294.927 150.266 292.563 151.228 290.482C152.19 288.401 153.892 286.751 156.003 285.853C158.115 284.955 160.485 284.873 162.653 285.623C164.821 286.373 166.633 287.901 167.737 289.91H167.737Z" fill="#A0616A"/>
</g>
<defs>
<clipPath id="clip0_689_15057">
<rect width="781" height="589" fill="white"/>
</clipPath>
</defs>
</svg>
