<svg width="71" height="68" viewBox="0 0 71 68" fill="none" xmlns="http://www.w3.org/2000/svg">
<path d="M52.8358 66.623L0.785556 66.6235L1.98558 7.21323L52.8358 66.623Z" fill="#FDB400"/>
<path d="M51.1273 21.8027C50.3508 22.009 49.653 22.4409 49.1219 23.0438C48.5909 23.6467 48.2506 24.3936 48.144 25.1899C48.0373 25.9862 48.1693 26.7963 48.523 27.5176C48.8767 28.239 49.4364 28.8392 50.1313 29.2425C50.8262 29.6458 51.625 29.834 52.4268 29.7833C53.2286 29.7326 53.9974 29.4453 54.636 28.9577C55.2745 28.4701 55.7541 27.8042 56.0142 27.044C56.2743 26.2838 56.3031 25.4636 56.0971 24.6871C55.9602 24.1713 55.7231 23.6876 55.3993 23.2635C55.0754 22.8394 54.6712 22.4832 54.2097 22.2154C53.7482 21.9475 53.2384 21.7732 52.7096 21.7024C52.1807 21.6316 51.643 21.6657 51.1273 21.8027Z" fill="#00005C"/>
<path d="M37.5858 13.6777C36.8093 13.884 36.1115 14.3159 35.5804 14.9188C35.0494 15.5217 34.7091 16.2686 34.6025 17.0649C34.4958 17.8612 34.6277 18.6713 34.9815 19.3926C35.3352 20.114 35.8949 20.7142 36.5898 21.1175C37.2846 21.5208 38.0835 21.709 38.8853 21.6583C39.6871 21.6076 40.4559 21.3203 41.0945 20.8327C41.733 20.3451 42.2127 19.6792 42.4727 18.919C42.7328 18.1588 42.7616 17.3386 42.5556 16.5621C42.4187 16.0463 42.1816 15.5626 41.8578 15.1385C41.5339 14.7144 41.1297 14.3582 40.6682 14.0904C40.2067 13.8225 39.6969 13.6482 39.1681 13.5774C38.6392 13.5066 38.1015 13.5407 37.5858 13.6777V13.6777Z" fill="#00005C"/>
<path d="M24.0443 21.8027C23.2678 22.009 22.57 22.4409 22.0389 23.0438C21.5079 23.6467 21.1676 24.3936 21.061 25.1899C20.9543 25.9862 21.0862 26.7963 21.44 27.5176C21.7937 28.239 22.3534 28.8392 23.0483 29.2425C23.7431 29.6458 24.542 29.834 25.3438 29.7833C26.1456 29.7326 26.9144 29.4453 27.553 28.9577C28.1915 28.4701 28.6711 27.8042 28.9312 27.044C29.1913 26.2838 29.2201 25.4636 29.0141 24.6871C28.8772 24.1713 28.6401 23.6876 28.3163 23.2635C27.9924 22.8394 27.5882 22.4832 27.1267 22.2154C26.6652 21.9475 26.1554 21.7732 25.6266 21.7024C25.0977 21.6316 24.56 21.6657 24.0443 21.8027Z" fill="#00005C"/>
<path d="M24.0443 38.0527C23.2678 38.259 22.57 38.6909 22.0389 39.2938C21.5079 39.8967 21.1676 40.6436 21.061 41.4399C20.9543 42.2362 21.0862 43.0463 21.44 43.7676C21.7937 44.489 22.3534 45.0892 23.0483 45.4925C23.7431 45.8958 24.542 46.084 25.3438 46.0333C26.1456 45.9826 26.9144 45.6953 27.553 45.2077C28.1915 44.7201 28.6711 44.0542 28.9312 43.294C29.1913 42.5338 29.2201 41.7136 29.0141 40.9371C28.8772 40.4213 28.6401 39.9376 28.3163 39.5135C27.9924 39.0894 27.5882 38.7332 27.1267 38.4654C26.6652 38.1975 26.1554 38.0232 25.6266 37.9524C25.0977 37.8816 24.56 37.9157 24.0443 38.0527V38.0527Z" fill="#00005C"/>
<path d="M38.629 0.0196297C34.2686 -0.131986 29.9223 0.59593 25.8493 2.15998C21.7762 3.72403 18.0598 6.0922 14.9215 9.12328C11.7833 12.1544 9.28746 15.7863 7.58289 19.8026C5.87833 23.8189 4.99991 28.1373 5 32.5003C5.01003 41.1167 8.43732 49.3773 14.53 55.47C20.6227 61.5627 28.8833 64.99 37.4997 65C38.4151 65 39.3142 64.9404 40.208 64.8646C40.8861 64.8074 41.5179 64.497 41.9776 63.9952C42.4373 63.4934 42.6912 62.8368 42.6888 62.1563L42.6021 52.4389C42.5802 50.5186 43.1311 48.6354 44.1844 47.0297C45.2378 45.4239 46.7458 44.1686 48.5159 43.4239C50.286 42.6793 52.238 42.479 54.1224 42.8489C56.0068 43.2187 57.7383 44.1418 59.0957 45.5002L59.3665 45.771C59.9814 46.3911 60.743 46.8456 61.5807 47.0923C62.4183 47.339 63.3047 47.3699 64.1575 47.1821C64.9965 47.006 65.7778 46.6217 66.4295 46.0647C67.0811 45.5077 67.5823 44.7957 67.8868 43.9944C69.3821 40.0681 70.097 35.8879 69.9912 31.6878C69.6864 23.4384 66.2933 15.6045 60.4845 9.73901C54.6757 3.8735 46.8751 0.404514 38.629 0.0196297V0.0196297ZM62.955 41.7275L62.9171 41.6896C60.8001 39.5762 58.1024 38.1402 55.1669 37.5644C52.2315 36.9887 49.1912 37.2991 46.4327 38.4562C43.6742 39.6133 41.3223 41.5648 39.6761 44.0624C38.0299 46.5601 37.1639 49.491 37.1882 52.4822L37.2532 59.5834C30.0703 59.5511 23.1945 56.6667 18.1383 51.5648C13.0821 46.4629 10.2597 39.5613 10.292 32.3785C10.3244 25.1956 13.2087 18.3197 18.3106 13.2635C23.4126 8.20735 30.3141 5.38496 37.497 5.41728C37.8138 5.41728 38.1334 5.41728 38.453 5.43353C45.3223 5.75618 51.8197 8.64759 56.6578 13.5348C61.4958 18.422 64.3214 24.9483 64.5746 31.8206C64.664 35.1886 64.1173 38.5432 62.9632 41.7086L62.955 41.7275Z" fill="#00005C"/>
</svg>
