<svg width="787" height="538" viewBox="0 0 787 538" fill="none" xmlns="http://www.w3.org/2000/svg">
<path d="M675.647 224.636C686.495 236.005 698.598 237.819 711.955 230.078C706.35 221.101 705.015 211.337 706.509 201.051H680.488C681.641 210.09 681.331 218.506 675.647 224.636Z" fill="#FFB8B8"/>
<path d="M718.61 522.166L732.529 514.91L738.58 438.108V397.59L706.508 396.986L715.584 437.503L718.61 522.166Z" fill="#FFB8B8"/>
<path d="M678.267 522.166L664.35 514.91L658.299 438.108V397.59L690.37 396.986L681.293 437.503L678.267 522.166Z" fill="#FFB8B8"/>
<path d="M656.888 406.057L690.775 403.033L696.221 372.191L702.878 402.428L739.79 400.009C740.597 385.315 738.548 370.192 733.739 354.654L652.652 352.84L656.888 406.057Z" fill="#2F2E41"/>
<path d="M621.667 290.23L580.905 258.861C580.482 258.536 580.017 258.269 579.522 258.068L573.597 255.659C568.839 253.724 559.775 247.288 564.195 240.662C567.759 235.319 581.402 244.89 583.08 248.436C583.61 249.551 584.48 250.471 585.565 251.063L593.849 255.599C594.05 255.71 594.258 255.808 594.471 255.894L626.009 268.669C626.883 269.024 627.83 269.164 628.769 269.079C629.709 268.995 630.614 268.687 631.411 268.182L637.129 264.559C637.942 264.044 638.869 263.734 639.83 263.657C640.79 263.58 641.754 263.738 642.64 264.117C643.525 264.497 644.305 265.086 644.911 265.834C645.517 266.582 645.932 267.467 646.119 268.411L648.009 277.943C648.281 279.315 648.058 280.739 647.38 281.963C646.702 283.187 645.613 284.132 644.305 284.631L627.396 291.072C626.449 291.432 625.425 291.545 624.422 291.397C623.419 291.25 622.47 290.848 621.667 290.23Z" fill="#FFB8B8"/>
<path d="M629.238 267.375C640.524 264.35 639.339 280.107 647.949 287.855L664.878 274.498L655.073 227.054C652.442 227.806 650.022 229.158 648.004 231.005C645.986 232.851 644.426 235.141 643.446 237.694L629.238 267.375Z" fill="#0231C8"/>
<path d="M650.231 355.863H735.554C721.745 318.676 723.09 280.428 734.847 241.453C735.044 240.806 735.01 240.11 734.749 239.486C734.488 238.862 734.017 238.348 733.418 238.034L708.928 225.24C699.315 231.491 688.983 229.57 678.067 221.007L651.442 228.264C658.69 271.768 658.896 314.378 650.231 355.863Z" fill="#0231C8"/>
<path d="M671.567 536.37L636.01 537.876C634.462 537.941 632.944 537.432 631.748 536.447C630.553 535.461 629.765 534.068 629.536 532.537C629.304 530.99 629.659 529.412 630.531 528.113C631.403 526.814 632.729 525.888 634.25 525.516L640.281 524.038L663.985 510.308C667.496 513.942 672.332 517.015 678.244 519.632L678.313 529.285C678.326 531.11 677.63 532.868 676.372 534.189C675.113 535.511 673.391 536.292 671.567 536.37Z" fill="#2F2E41"/>
<path d="M786.648 538H0.286133V536.058H787L786.648 538Z" fill="#3F3D56"/>
<path d="M725.016 535.83L760.573 537.336C762.121 537.402 763.639 536.893 764.834 535.907C766.03 534.921 766.818 533.529 767.047 531.997C767.279 530.45 766.924 528.873 766.052 527.574C765.18 526.275 763.853 525.348 762.333 524.976L756.302 523.499L732.598 509.768C729.086 513.402 724.251 516.475 718.339 519.092L718.27 528.746C718.257 530.57 718.953 532.328 720.211 533.65C721.47 534.971 723.192 535.753 725.016 535.83Z" fill="#2F2E41"/>
<path d="M690.775 211.936C701.47 211.936 710.139 203.272 710.139 192.584C710.139 181.897 701.47 173.233 690.775 173.233C680.081 173.233 671.411 181.897 671.411 192.584C671.411 203.272 680.081 211.936 690.775 211.936Z" fill="#FFB8B8"/>
<path d="M721.032 349.816L714.634 362.247C714.07 363.344 713.744 364.548 713.678 365.78C713.613 367.012 713.809 368.244 714.253 369.395C714.698 370.545 715.381 371.589 716.258 372.457C717.135 373.325 718.186 373.998 719.342 374.431C720.565 374.889 721.876 375.068 723.177 374.954C724.479 374.84 725.738 374.436 726.863 373.772C727.988 373.108 728.949 372.201 729.677 371.116C730.405 370.032 730.881 368.799 731.069 367.507L733.739 349.211L743.421 303.251L742.816 280.271H723.452C730.057 297.363 726.781 322.574 721.032 349.816Z" fill="#FFB8B8"/>
<path d="M720.426 282.69H746.446L742.669 254.172C742.157 250.305 740.684 246.627 738.384 243.474C736.084 240.322 733.031 237.796 729.503 236.125L720.426 282.69Z" fill="#0231C8"/>
<path d="M711.362 181.926C711.749 179.34 711.586 176.703 710.885 174.185C710.184 171.667 708.959 169.324 707.292 167.311C703.988 163.404 698.45 160.206 689.263 161.715C669.218 165.006 663.437 181.683 665.401 185.877C667.365 190.071 673.385 199.793 673.385 199.793C673.385 199.793 668.967 190.169 673.762 188.21C678.556 186.251 697.112 178.534 703.589 182.011C705.422 182.93 706.979 184.319 708.1 186.036C709.222 187.753 709.868 189.736 709.973 191.783L711.362 181.926Z" fill="#2F2E41"/>
<path d="M379.933 101.388L372.148 105.336C363.18 87.6892 351.3 71.68 337.006 57.981C266.811 -9.45878 154.803 -7.25391 87.3198 62.896C19.8369 133.046 22.0432 244.983 92.238 312.423C105.598 325.284 120.904 335.96 137.591 344.057L133.782 351.908C107.332 339.073 84.3174 320.132 66.6398 296.651C48.9623 273.169 37.1294 245.821 32.1188 216.866C27.1082 187.911 29.0637 158.18 37.8238 130.13C46.5839 102.079 61.8971 76.5146 82.4982 55.5478C103.099 34.5811 128.397 18.8141 156.301 9.54962C184.205 0.285154 213.914 -2.21086 242.974 2.26779C272.034 6.74645 299.611 18.0712 323.426 35.3064C347.24 52.5416 366.61 75.1925 379.933 101.388Z" fill="#E6E6E6"/>
<path d="M116.536 263.703C105.085 275.607 98.8342 291.57 99.1596 308.079C99.485 324.589 106.36 340.294 118.272 351.738C130.183 363.182 146.156 369.429 162.677 369.104C179.197 368.778 194.912 361.908 206.363 350.004L217.089 338.854L127.262 252.553L116.536 263.703Z" fill="#E6E6E6"/>
<path d="M121.244 246.22C118.695 248.876 117.304 252.434 117.377 256.113C117.449 259.792 118.979 263.293 121.631 265.846L204.02 345.001C206.675 347.553 210.236 348.945 213.919 348.873C217.602 348.8 221.105 347.269 223.658 344.615C226.211 341.961 227.604 338.402 227.532 334.722C227.459 331.041 225.927 327.54 223.271 324.989L140.882 245.834C138.225 243.286 134.665 241.897 130.983 241.969C127.302 242.041 123.799 243.57 121.244 246.22Z" fill="#535461"/>
<path d="M368.35 181.615L379.076 170.465C390.528 158.561 396.778 142.598 396.453 126.088C396.127 109.578 389.253 93.874 377.341 82.4298C371.443 76.7631 364.486 72.313 356.866 69.3334C349.247 66.3538 341.116 64.9031 332.936 65.0641C316.415 65.3893 300.701 72.2597 289.249 84.1638L278.523 95.3135L368.35 181.615Z" fill="#E6E6E6"/>
<path d="M271.955 89.5529C269.406 92.2087 268.015 95.7664 268.088 99.4457C268.16 103.125 269.69 106.625 272.342 109.179L354.731 188.334C357.387 190.882 360.947 192.272 364.628 192.198C368.309 192.125 371.81 190.593 374.362 187.941C376.913 185.288 378.307 181.731 378.236 178.052C378.164 174.374 376.634 170.874 373.982 168.322L291.593 89.1663C288.936 86.6189 285.376 85.2291 281.694 85.3015C278.012 85.374 274.51 86.9029 271.955 89.5529Z" fill="#535461"/>
<path d="M306.71 272.479V266.048C306.71 266.048 334.792 250.262 357.608 266.048V271.894L306.71 272.479Z" fill="#535461"/>
<path d="M562.371 272.479V266.048C562.371 266.048 590.453 250.262 613.269 266.048V271.894L562.371 272.479Z" fill="#535461"/>
<path d="M390.955 271.894H363.458C363.458 271.894 356.438 263.709 333.037 264.294C309.635 264.878 304.955 271.894 304.955 271.894C304.955 271.894 281.846 287.388 276.58 306.682C276.58 306.682 248.206 391.75 247.621 458.402C247.036 525.054 272.778 534.408 286.234 536.162C299.689 537.916 323.676 535.577 347.077 476.527L357.023 442.031C357.023 442.031 358.778 421.568 379.839 434.431C400.901 447.293 419.622 427.415 419.622 427.415H498.602C498.602 427.415 524.929 443.785 548.915 430.923C548.915 430.923 558.276 418.645 567.051 460.156C567.051 460.156 593.963 545.517 635.501 536.747C677.038 527.977 672.358 456.648 672.358 456.648C672.358 456.648 666.8 347.608 643.984 309.021C643.984 309.021 622.045 268.971 607.419 267.217C607.419 267.217 575.827 261.371 563.541 266.632L556.521 272.479L390.955 271.894Z" fill="#E6E6E6"/>
<path d="M327.186 380.057C355.297 380.057 378.084 357.284 378.084 329.191C378.084 301.099 355.297 278.326 327.186 278.326C299.076 278.326 276.288 301.099 276.288 329.191C276.288 357.284 299.076 380.057 327.186 380.057Z" fill="#535461"/>
<path d="M592.793 380.057C620.903 380.057 643.691 357.284 643.691 329.191C643.691 301.099 620.903 278.326 592.793 278.326C564.682 278.326 541.895 301.099 541.895 329.191C541.895 357.284 564.682 380.057 592.793 380.057Z" fill="#535461"/>
<path d="M336.055 317.849L329.269 323.848C328.694 324.353 327.954 324.632 327.189 324.632C326.423 324.632 325.684 324.353 325.109 323.848L318.311 317.849C317.978 317.556 317.712 317.196 317.528 316.793C317.345 316.39 317.249 315.953 317.246 315.51V299.005C317.248 298.172 317.58 297.373 318.17 296.785C318.76 296.196 319.56 295.865 320.394 295.865H333.996C334.829 295.864 335.629 296.193 336.219 296.781C336.809 297.369 337.142 298.167 337.143 298.999V315.499C337.139 315.945 337.041 316.386 336.853 316.791C336.665 317.196 336.393 317.557 336.055 317.849Z" fill="#E6E6E6"/>
<path d="M336.055 340.528L329.269 334.535C328.694 334.029 327.954 333.75 327.189 333.75C326.423 333.75 325.684 334.029 325.109 334.535L318.311 340.534C317.978 340.826 317.712 341.186 317.528 341.589C317.345 341.992 317.249 342.43 317.246 342.872V359.36C317.245 360.193 317.574 360.992 318.162 361.582C318.75 362.172 319.549 362.504 320.382 362.505H333.996C334.829 362.507 335.629 362.178 336.219 361.59C336.809 361.002 337.142 360.204 337.143 359.372V342.878C337.14 342.432 337.041 341.991 336.853 341.586C336.665 341.18 336.393 340.82 336.055 340.528Z" fill="#E6E6E6"/>
<path d="M315.842 338.066L321.845 331.273C322.351 330.698 322.63 329.959 322.63 329.194C322.63 328.429 322.351 327.69 321.845 327.116L315.842 320.322C315.549 319.99 315.189 319.724 314.786 319.54C314.383 319.357 313.945 319.261 313.502 319.258H297.004C296.17 319.259 295.371 319.591 294.782 320.181C294.193 320.771 293.862 321.57 293.862 322.403V335.997C293.861 336.829 294.19 337.629 294.778 338.218C295.366 338.808 296.165 339.141 296.998 339.142H313.508C313.951 339.137 314.388 339.039 314.79 338.854C315.192 338.668 315.551 338.4 315.842 338.066Z" fill="#E6E6E6"/>
<path d="M338.536 338.067L332.545 331.267C332.038 330.693 331.758 329.954 331.758 329.189C331.758 328.423 332.038 327.684 332.545 327.11L338.547 320.316C338.84 319.984 339.2 319.717 339.603 319.534C340.007 319.351 340.444 319.255 340.887 319.252H357.385C358.219 319.251 359.018 319.58 359.609 320.168C360.199 320.755 360.531 321.553 360.533 322.386V335.991C360.535 336.824 360.205 337.623 359.617 338.213C359.029 338.803 358.23 339.135 357.397 339.137H340.893C340.447 339.136 340.006 339.04 339.599 338.856C339.192 338.671 338.83 338.402 338.536 338.067Z" fill="#E6E6E6"/>
<path d="M396.221 421.568C416.576 421.568 433.078 405.077 433.078 384.734C433.078 364.392 416.576 347.901 396.221 347.901C375.865 347.901 359.363 364.392 359.363 384.734C359.363 405.077 375.865 421.568 396.221 421.568Z" fill="#535461"/>
<path d="M523.759 421.568C544.114 421.568 560.616 405.077 560.616 384.734C560.616 364.392 544.114 347.901 523.759 347.901C503.403 347.901 486.901 364.392 486.901 384.734C486.901 405.077 503.403 421.568 523.759 421.568Z" fill="#535461"/>
<path d="M396.221 409.29C409.791 409.29 420.792 398.296 420.792 384.734C420.792 371.172 409.791 360.178 396.221 360.178C382.65 360.178 371.649 371.172 371.649 384.734C371.649 398.296 382.65 409.29 396.221 409.29Z" fill="#E6E6E6"/>
<path d="M396.221 401.69C392.865 401.69 389.585 400.695 386.795 398.832C384.005 396.969 381.83 394.321 380.546 391.223C379.262 388.125 378.926 384.715 379.581 381.426C380.236 378.138 381.851 375.116 384.224 372.745C386.597 370.374 389.62 368.759 392.911 368.105C396.202 367.451 399.613 367.786 402.714 369.07C405.814 370.353 408.463 372.526 410.328 375.314C412.192 378.103 413.187 381.381 413.187 384.734C413.182 389.23 411.393 393.539 408.212 396.718C405.032 399.896 400.719 401.684 396.221 401.69ZM396.221 368.948C393.097 368.948 390.043 369.874 387.445 371.609C384.848 373.343 382.823 375.809 381.627 378.693C380.432 381.578 380.119 384.752 380.729 387.814C381.338 390.876 382.842 393.689 385.052 395.897C387.261 398.104 390.075 399.608 393.139 400.217C396.203 400.826 399.38 400.513 402.266 399.319C405.152 398.124 407.619 396.1 409.355 393.505C411.091 390.909 412.017 387.856 412.017 384.734C412.012 380.549 410.346 376.537 407.385 373.577C404.424 370.618 400.409 368.953 396.221 368.948Z" fill="#535461"/>
<path d="M523.759 409.29C537.33 409.29 548.331 398.296 548.331 384.734C548.331 371.172 537.33 360.178 523.759 360.178C510.189 360.178 499.188 371.172 499.188 384.734C499.188 398.296 510.189 409.29 523.759 409.29Z" fill="#E6E6E6"/>
<path d="M523.759 401.69C520.403 401.69 517.123 400.695 514.333 398.832C511.543 396.969 509.369 394.321 508.084 391.223C506.8 388.125 506.464 384.715 507.119 381.426C507.774 378.138 509.389 375.116 511.762 372.745C514.135 370.374 517.158 368.759 520.449 368.105C523.74 367.451 527.152 367.786 530.252 369.07C533.352 370.353 536.002 372.526 537.866 375.314C539.73 378.103 540.725 381.381 540.725 384.734C540.72 389.23 538.931 393.539 535.75 396.718C532.569 399.896 528.257 401.684 523.759 401.69ZM523.759 368.948C520.635 368.948 517.581 369.874 514.983 371.609C512.386 373.343 510.361 375.809 509.165 378.693C507.97 381.578 507.657 384.752 508.267 387.814C508.876 390.876 510.38 393.689 512.59 395.897C514.799 398.104 517.613 399.608 520.677 400.217C523.742 400.826 526.918 400.513 529.804 399.319C532.69 398.124 535.157 396.1 536.893 393.505C538.629 390.909 539.555 387.856 539.555 384.734C539.55 380.549 537.885 376.537 534.923 373.577C531.962 370.618 527.947 368.953 523.759 368.948Z" fill="#535461"/>
<path d="M461.16 399.351C466.976 399.351 471.69 394.639 471.69 388.827C471.69 383.015 466.976 378.303 461.16 378.303C455.344 378.303 450.629 383.015 450.629 388.827C450.629 394.639 455.344 399.351 461.16 399.351Z" fill="#535461"/>
<path d="M445.065 355.998C446.335 355.998 447.364 354.969 447.364 353.7C447.364 352.431 446.335 351.403 445.065 351.403C443.795 351.403 442.766 352.431 442.766 353.7C442.766 354.969 443.795 355.998 445.065 355.998Z" fill="#535461"/>
<path d="M453.677 355.998C454.947 355.998 455.976 354.969 455.976 353.7C455.976 352.431 454.947 351.403 453.677 351.403C452.407 351.403 451.378 352.431 451.378 353.7C451.378 354.969 452.407 355.998 453.677 355.998Z" fill="#535461"/>
<path d="M452.531 366.902C453.8 366.902 454.83 365.873 454.83 364.604C454.83 363.335 453.8 362.307 452.531 362.307C451.261 362.307 450.231 363.335 450.231 364.604C450.231 365.873 451.261 366.902 452.531 366.902Z" fill="#535461"/>
<path d="M460.575 367.194C461.867 367.194 462.915 366.147 462.915 364.856C462.915 363.564 461.867 362.517 460.575 362.517C459.282 362.517 458.234 363.564 458.234 364.856C458.234 366.147 459.282 367.194 460.575 367.194Z" fill="#535461"/>
<path d="M468.607 366.902C469.877 366.902 470.906 365.873 470.906 364.604C470.906 363.335 469.877 362.307 468.607 362.307C467.337 362.307 466.308 363.335 466.308 364.604C466.308 365.873 467.337 366.902 468.607 366.902Z" fill="#535461"/>
<path d="M449.084 361.739C450.354 361.739 451.384 360.711 451.384 359.442C451.384 358.173 450.354 357.144 449.084 357.144C447.815 357.144 446.785 358.173 446.785 359.442C446.785 360.711 447.815 361.739 449.084 361.739Z" fill="#535461"/>
<path d="M456.48 361.932C457.772 361.932 458.82 360.885 458.82 359.594C458.82 358.302 457.772 357.255 456.48 357.255C455.187 357.255 454.14 358.302 454.14 359.594C454.14 360.885 455.187 361.932 456.48 361.932Z" fill="#535461"/>
<path d="M464.085 361.932C465.378 361.932 466.425 360.885 466.425 359.594C466.425 358.302 465.378 357.255 464.085 357.255C462.793 357.255 461.745 358.302 461.745 359.594C461.745 360.885 462.793 361.932 464.085 361.932Z" fill="#535461"/>
<path d="M472.053 361.739C473.323 361.739 474.352 360.711 474.352 359.442C474.352 358.173 473.323 357.144 472.053 357.144C470.783 357.144 469.754 358.173 469.754 359.442C469.754 360.711 470.783 361.739 472.053 361.739Z" fill="#535461"/>
<path d="M460.575 356.086C461.867 356.086 462.915 355.039 462.915 353.747C462.915 352.456 461.867 351.408 460.575 351.408C459.282 351.408 458.234 352.456 458.234 353.747C458.234 355.039 459.282 356.086 460.575 356.086Z" fill="#535461"/>
<path d="M468.765 356.086C470.057 356.086 471.105 355.039 471.105 353.747C471.105 352.456 470.057 351.408 468.765 351.408C467.473 351.408 466.425 352.456 466.425 353.747C466.425 355.039 467.473 356.086 468.765 356.086Z" fill="#535461"/>
<path d="M475.498 355.998C476.768 355.998 477.798 354.969 477.798 353.7C477.798 352.431 476.768 351.403 475.498 351.403C474.229 351.403 473.199 352.431 473.199 353.7C473.199 354.969 474.229 355.998 475.498 355.998Z" fill="#535461"/>
<path d="M373.696 276.877C372.614 276.879 371.576 277.309 370.811 278.074C370.046 278.838 369.615 279.875 369.614 280.957V293.235C369.615 294.316 370.046 295.353 370.811 296.118C371.576 296.883 372.614 297.313 373.696 297.314H376.621C377.704 297.313 378.741 296.883 379.506 296.118C380.271 295.353 380.702 294.316 380.703 293.235V280.957C380.702 279.875 380.271 278.838 379.506 278.074C378.741 277.309 377.704 276.879 376.621 276.877H373.696Z" fill="#535461"/>
<path d="M544.527 276.877C543.445 276.879 542.407 277.309 541.642 278.073C540.877 278.838 540.446 279.875 540.445 280.957V293.235C540.446 294.316 540.877 295.353 541.642 296.118C542.407 296.883 543.445 297.313 544.527 297.314H547.452C548.535 297.313 549.572 296.883 550.337 296.118C551.103 295.353 551.533 294.316 551.534 293.235V280.957C551.533 279.875 551.103 278.838 550.337 278.073C549.572 277.309 548.535 276.879 547.452 276.877H544.527Z" fill="#535461"/>
<path d="M593.378 312.236C601.132 312.236 607.419 305.954 607.419 298.204C607.419 290.455 601.132 284.172 593.378 284.172C585.623 284.172 579.337 290.455 579.337 298.204C579.337 305.954 585.623 312.236 593.378 312.236Z" fill="#E6E6E6"/>
<path d="M563.541 342.054C571.295 342.054 577.582 335.772 577.582 328.022C577.582 320.273 571.295 313.99 563.541 313.99C555.786 313.99 549.5 320.273 549.5 328.022C549.5 335.772 555.786 342.054 563.541 342.054Z" fill="#E6E6E6"/>
<path d="M624.385 340.3C632.139 340.3 638.426 334.018 638.426 326.268C638.426 318.518 632.139 312.236 624.385 312.236C616.63 312.236 610.344 318.518 610.344 326.268C610.344 334.018 616.63 340.3 624.385 340.3Z" fill="#E6E6E6"/>
<path d="M595.718 371.287C603.472 371.287 609.759 365.005 609.759 357.255C609.759 349.505 603.472 343.223 595.718 343.223C587.963 343.223 581.677 349.505 581.677 357.255C581.677 365.005 587.963 371.287 595.718 371.287Z" fill="#E6E6E6"/>
<path d="M400.17 268.692C397.032 268.696 394.024 269.943 391.806 272.16C389.587 274.377 388.34 277.383 388.336 280.518V332.845C388.34 335.981 389.587 338.987 391.806 341.204C394.024 343.421 397.032 344.668 400.17 344.671H520.394C523.532 344.668 526.54 343.421 528.758 341.204C530.977 338.987 532.224 335.981 532.228 332.845V280.518C532.224 277.383 530.977 274.377 528.758 272.16C526.54 269.943 523.532 268.696 520.394 268.692H400.17Z" fill="#535461"/>
<path d="M602.916 304.636H583.876L593.068 288.888L602.916 304.636ZM585.913 303.466H600.805L593.102 291.15L585.913 303.466Z" fill="#535461"/>
<path d="M571.44 335.038H555.644V321.006H571.44V335.038ZM556.814 333.868H570.269V322.175H556.814V333.868Z" fill="#535461"/>
<path d="M624.385 335.038C622.649 335.038 620.953 334.524 619.51 333.56C618.066 332.596 616.942 331.227 616.277 329.624C615.613 328.022 615.439 326.258 615.778 324.557C616.117 322.856 616.952 321.293 618.18 320.067C619.407 318.84 620.971 318.005 622.673 317.667C624.375 317.328 626.14 317.502 627.743 318.166C629.347 318.829 630.717 319.953 631.681 321.396C632.646 322.838 633.16 324.533 633.16 326.268C633.158 328.593 632.232 330.822 630.587 332.466C628.942 334.11 626.712 335.035 624.385 335.038ZM624.385 318.667C622.881 318.667 621.41 319.113 620.16 319.948C618.909 320.783 617.934 321.97 617.358 323.359C616.783 324.748 616.632 326.276 616.926 327.751C617.219 329.225 617.943 330.579 619.007 331.642C620.071 332.705 621.426 333.429 622.901 333.722C624.376 334.016 625.906 333.865 627.295 333.29C628.685 332.715 629.873 331.74 630.709 330.491C631.544 329.241 631.99 327.771 631.99 326.268C631.988 324.253 631.186 322.321 629.76 320.896C628.334 319.471 626.401 318.67 624.385 318.667Z" fill="#535461"/>
<path d="M589.403 350.264L588.576 351.091L601.74 364.246L602.567 363.419L589.403 350.264Z" fill="#535461"/>
<path d="M602.041 350.254L588.587 363.118L589.396 363.963L602.85 351.099L602.041 350.254Z" fill="#535461"/>
<path d="M124.359 135.092C92.4158 143.893 57.4369 150.518 44.9033 140.24C51.7655 128.823 55.7235 117.57 56.0592 106.522C56.1349 101.467 58.1836 96.6409 61.7686 93.0738C64.142 90.7824 67.0068 89.0617 70.1452 88.0425C73.2837 87.0233 76.6134 86.7324 79.8812 87.1919L88.1712 88.3544C88.4503 88.3936 88.7279 88.438 89.004 88.4877C92.9831 89.2411 96.6262 91.2208 99.4219 94.149C102.218 97.0772 104.026 100.807 104.592 104.814C106.339 116.795 112.212 127.166 124.359 135.092Z" fill="#2F2E41"/>
<path d="M155.172 248.751L167.59 251.31C168.539 251.505 169.432 251.909 170.204 252.493C170.977 253.076 171.61 253.824 172.058 254.683C172.505 255.541 172.755 256.488 172.791 257.455C172.826 258.422 172.646 259.385 172.262 260.274C171.892 261.133 171.341 261.902 170.647 262.529C169.952 263.156 169.131 263.627 168.239 263.909C167.347 264.191 166.404 264.278 165.475 264.163C164.546 264.049 163.653 263.736 162.856 263.246L143.86 251.57L111.596 175.771L128.307 170.94L155.172 248.751Z" fill="#A0616A"/>
<path d="M66.7086 348.214L57.3058 350.947L50.1885 336.257L57.4261 332.488L66.7086 348.214Z" fill="#A0616A"/>
<path d="M61.9313 411.153L50.3945 408.1L52.2006 388.292L62.1291 388.903L61.9313 411.153Z" fill="#A0616A"/>
<path d="M63.1345 334.482L50.9155 342.518L3.91994 289.394C2.90056 288.242 2.1478 286.879 1.71522 285.403C1.28263 283.927 1.18086 282.374 1.41713 280.854C1.6534 279.334 2.2219 277.885 3.0822 276.61C3.94251 275.335 5.07346 274.265 6.39462 273.476L64.9394 238.516L73.9063 264.258L43.4218 292.847L63.1345 334.482Z" fill="#2F2E41"/>
<path d="M73.4243 362.29C73.3937 362.33 73.363 362.37 73.3322 362.409C72.5513 366.979 71.1797 371.147 68.1167 374.165C67.2086 376.211 65.578 377.852 63.5363 378.774C61.4945 379.695 59.1847 379.833 57.0477 379.16C55.0324 378.526 53.3002 377.212 52.1473 375.443C50.9944 373.673 50.4925 371.558 50.7274 369.46L53.0107 349.064C58.4878 347.806 62.6651 344.693 64.7795 338.637L70.1025 342.261C71.6778 343.324 73.0196 344.698 74.0462 346.297C75.0728 347.896 75.7625 349.687 76.0734 351.561C76.3842 353.436 76.3097 355.354 75.8542 357.198C75.3988 359.043 74.572 360.775 73.4243 362.29Z" fill="#2F2E41"/>
<path d="M79.2171 130.724C89.6039 130.724 98.024 122.309 98.024 111.929C98.024 101.549 89.6039 93.1343 79.2171 93.1343C68.8303 93.1343 60.4102 101.549 60.4102 111.929C60.4102 122.309 68.8303 130.724 79.2171 130.724Z" fill="#A0616A"/>
<path d="M95.5041 141.975L65.8551 166.514L63.5459 156.413L68.721 148.529C70.1571 140.795 69.2299 132.265 66.7621 123.218L86.1059 123.236C86.941 130.547 89.7892 136.925 95.5041 141.975Z" fill="#A0616A"/>
<path d="M103.851 206.344L63.8246 218.529L60.7107 204.302C53.2096 194.237 49.9488 185.05 54.8563 177.555L52.3867 166.272C59.4709 160.698 65.0417 154.995 68.1006 149.077L92.7274 139.461L110.831 140.574L116.177 158.478L103.851 206.344Z" fill="#0231C8"/>
<path d="M132.287 172.942C123.755 172.852 115.405 175.409 108.388 180.26L110.831 140.574C113.311 140.905 115.663 141.875 117.653 143.39C119.644 144.905 121.206 146.911 122.186 149.212L132.287 172.942Z" fill="#0231C8"/>
<path d="M63.009 393.644L50.3047 390.519L52.1746 282.64L69.234 263.971L65.4153 240.303L62.9443 213.788L104.615 203.462C118.7 229.02 127.213 252.257 114.786 266.772L63.009 393.644Z" fill="#2F2E41"/>
<path d="M60.0914 430.068C60.0344 430.09 59.9774 430.112 59.9203 430.134C56.2313 434.415 52.1782 437.905 47.0823 439.132C44.8471 440.699 42.1127 441.388 39.4014 441.068C36.69 440.748 34.1917 439.441 32.3833 437.397C30.6779 435.469 29.6956 433.009 29.6046 430.437C29.5136 427.866 30.3194 425.342 31.8843 423.299L47.0942 403.437C53.6042 405.563 59.9233 404.937 65.9393 399.942L69.2187 407.068C70.1945 409.168 70.732 411.445 70.7983 413.759C70.8645 416.073 70.4582 418.377 69.6041 420.529C68.75 422.682 67.4659 424.637 65.8304 426.277C64.1949 427.917 62.2422 429.207 60.0914 430.068Z" fill="#2F2E41"/>
<path d="M13.6819 261.727L2.53094 271.268C1.60559 272.06 0.895227 273.072 0.465706 274.211C0.0361847 275.351 -0.0985971 276.58 0.073852 277.785C0.246301 278.99 0.720403 280.132 1.45221 281.105C2.18401 282.079 3.14983 282.852 4.26014 283.352C5.93161 284.106 7.82719 284.198 9.56367 283.609C11.3002 283.02 12.748 281.793 13.6145 280.178L21.6783 265.148L58.6583 197.707L44.75 195.094L13.6819 261.727Z" fill="#A0616A"/>
<path d="M60.8865 199.601C53.6635 197.422 46.8977 196.139 41.6504 197.833C42.7503 184.23 45.0173 172.079 52.3867 166.272L62.8628 167.502L60.8865 199.601Z" fill="#0231C8"/>
<path d="M100.212 107.571L59.9873 105.098L60.4823 97.0579C74.5238 87.596 87.9319 88.4205 100.707 99.5313L100.212 107.571Z" fill="#2F2E41"/>
</svg>
