<svg width="235" height="35" viewBox="0 0 235 35" fill="none" xmlns="http://www.w3.org/2000/svg">
<path d="M14.3883 12.3083C14.3883 12.3083 12.445 12.115 12.445 13.8467V21.5383H25.2783V23.8467C25.2783 23.8467 25.3167 25 24.1117 25H12.445V35H26.445C26.445 35 34.9217 33.6917 35 25V12.3083H14.3883ZM34.61 0H9.33333C0.193333 2.15333 0 9.65333 0 9.65333V35H9.72333V11.9233C9.72333 9.96167 11.6667 9.61667 11.6667 9.61667H34.6117V0H34.61ZM67.98 27.7467C67.3133 28.1917 66.82 28.5183 66.4717 28.7267C65.225 29.4983 64.0367 30.0933 62.935 30.5683C61.34 31.2217 59.9183 31.5483 58.6433 31.5483C54.265 31.5483 50.64 30.2117 47.71 27.5083C44.78 24.805 43.3333 21.42 43.3333 17.3217C43.3333 13.3717 44.6383 9.955 47.2767 7.04333C49.915 4.13333 53.105 2.70667 56.875 2.70667C58.4417 2.70667 60.1217 2.97333 61.8617 3.54C64.1233 4.25167 65.95 5.32167 67.4 6.71667L64.8767 9.50833C63.805 8.47 62.4133 7.69667 60.7883 7.22167C59.5717 6.865 58.2383 6.68833 56.7583 6.68833C54.12 6.68833 51.8867 7.755 50.1183 9.865C48.35 12.0033 47.4517 14.5283 47.4517 17.4983C47.4517 20.44 48.465 22.845 50.495 24.7767C52.525 26.7067 55.105 27.6867 58.2367 27.6867C59.5417 27.6867 60.8767 27.27 62.2383 26.47C63.37 25.6083 63.95 25.1917 63.9783 25.1617V19.0733H55.5117L56.7283 15.2717H67.98V27.7467ZM93.555 20.32C93.555 23.26 92.5117 25.815 90.4233 27.9533C88.335 30.0917 85.755 31.1917 82.6817 31.1917C79.84 31.1917 77.3467 30.1217 75.2 28.0133C73.0533 25.905 72.01 23.35 72.01 20.35C72.01 17.38 73.0267 14.825 75.055 12.6267C77.0833 10.4283 79.5783 9.36 82.5067 9.36C85.755 9.36 88.3933 10.4 90.4517 12.5083C92.5117 14.5583 93.555 17.1717 93.555 20.32ZM89.5817 20.38C89.5817 18.39 88.915 16.6967 87.5817 15.33C86.2483 13.9333 84.595 13.25 82.6233 13.25C80.7683 13.25 79.2017 13.9633 77.8967 15.39C76.5917 16.815 75.9533 18.4483 75.9533 20.29C75.9533 22.2217 76.62 23.855 77.925 25.2217C79.23 26.5883 80.855 27.3 82.825 27.3C84.6533 27.3 86.2183 26.6167 87.5533 25.25C88.915 23.8833 89.5833 22.25 89.5833 20.38H89.5817ZM118.782 20.32C118.782 23.26 117.738 25.815 115.65 27.9533C113.562 30.0917 110.982 31.1917 107.908 31.1917C105.067 31.1917 102.573 30.1217 100.427 28.0133C98.2817 25.905 97.2367 23.35 97.2367 20.35C97.2367 17.38 98.2533 14.825 100.282 12.6267C102.312 10.4283 104.805 9.36 107.733 9.36C110.982 9.36 113.62 10.4 115.678 12.5083C117.738 14.5583 118.782 17.1717 118.782 20.32ZM114.808 20.38C114.808 18.39 114.142 16.6967 112.808 15.33C111.475 13.9333 109.822 13.25 107.85 13.25C105.995 13.25 104.428 13.9633 103.123 15.39C101.818 16.815 101.18 18.4483 101.18 20.29C101.18 22.2217 101.847 23.855 103.153 25.2217C104.457 26.5883 106.082 27.3 108.053 27.3C109.88 27.3 111.445 26.6167 112.78 25.25C114.142 23.8833 114.81 22.25 114.81 20.38H114.808ZM142.125 30.5967L138.472 31.1617V27.6267L137.688 28.5167C136.998 29.1631 136.217 29.7039 135.368 30.1217C134.123 30.6959 132.768 30.99 131.397 30.9833C128.555 30.9833 126.118 29.9433 124.147 27.8333C122.175 25.7233 121.19 23.23 121.19 20.32C121.19 17.32 122.175 14.7367 124.118 12.5967C126.062 10.4567 128.438 9.38833 131.28 9.38833C132.905 9.38833 134.325 9.655 135.513 10.19C136.355 10.5767 137.08 11.0817 137.688 11.7067C137.892 11.9733 138.095 12.27 138.298 12.5367V3.27L142.182 2.705L142.125 30.5967ZM138.703 20.5867C138.703 18.5083 138.007 16.755 136.587 15.33C135.167 13.8733 133.57 13.1617 131.745 13.1617C129.715 13.1617 128.092 13.845 126.845 15.2117C125.683 16.5167 125.075 18.1217 125.075 19.9933C125.075 22.1017 125.683 23.8533 126.902 25.22C128.118 26.5867 129.657 27.27 131.542 27.27C133.397 27.27 135.022 26.6467 136.472 25.37C137.95 24.0617 138.705 22.4583 138.705 20.5867H138.703ZM162.625 7.13333H151.752V14.5283H160.188V18.33H151.752V30.5683L147.518 31.1917V3.3H161.783L162.625 7.13333ZM171.353 4.96333L168.743 8.26L166.25 4.96333L168.888 1.69667L171.353 4.96333ZM170.57 30.5967L166.685 31.1317V10.4883L170.57 9.895V30.5983V30.5967ZM188.113 9.68667L186.287 13.9033C186.047 13.8667 185.804 13.8472 185.562 13.845C185.185 13.845 184.808 13.875 184.43 13.9333C184.052 13.9917 183.647 14.1417 183.213 14.35C182.402 14.7067 181.705 15.4783 181.097 16.6367C180.423 17.9513 180.075 19.408 180.08 20.885V30.5683L176.197 31.1917V10.4883L179.792 9.835V14.1417C180.255 13.3983 180.748 12.6567 181.212 11.885C181.878 11.1117 182.662 10.5483 183.532 10.22C183.995 10.0433 184.837 9.89333 186.112 9.775C187.33 9.68667 188.027 9.62667 188.113 9.68667ZM217.05 30.5967L213.165 31.1617V16.9933C213.165 15.685 212.875 14.735 212.295 14.1417C211.715 13.5467 210.845 13.25 209.713 13.25C208.352 13.25 207.307 13.815 206.612 14.9433C206.147 15.715 205.887 16.5467 205.887 17.3783V30.5667L202.002 31.28V17.0817C202.002 15.835 201.712 14.8833 201.16 14.2317C200.58 13.5767 199.827 13.25 198.84 13.25H198.463C197.1 13.25 196.113 13.815 195.505 14.9733C195.042 15.835 194.81 16.9333 194.81 18.27V30.5667L190.78 31.28V10.4883L194.403 9.865V12.5083C194.81 11.8833 195.215 11.3783 195.593 11.0233C196.637 10.0433 197.855 9.56667 199.217 9.56667C200.753 9.56667 201.883 9.805 202.667 10.31C203.333 10.7267 203.972 11.5567 204.61 12.745C205.943 10.6367 207.828 9.56667 210.323 9.56667C212.7 9.56667 214.47 10.31 215.628 11.825C216.587 13.0717 217.05 14.9133 217.05 17.32V30.5967ZM234.8 24.33C234.8 26.23 234.133 27.805 232.8 29.0233C231.467 30.27 229.783 30.865 227.753 30.865C226.217 30.865 224.853 30.5083 223.607 29.795C222.36 29.0833 221.433 28.28 220.823 27.33L223.55 24.895C223.752 25.1917 223.927 25.4283 224.1 25.6067C225.117 26.6467 226.333 27.1817 227.753 27.1817C228.74 27.1817 229.523 26.915 230.073 26.41C230.653 25.905 230.915 25.1917 230.915 24.27C230.915 23.2317 230.248 22.5183 228.915 22.1317C226.275 21.33 224.853 20.885 224.652 20.795C223.433 20.1717 222.563 19.5183 222.012 18.775C221.403 17.9133 221.085 16.785 221.085 15.33C221.085 13.5467 221.752 12.0633 223.057 10.875C224.362 9.68667 225.927 9.12167 227.723 9.12167C229.088 9.12167 230.363 9.41833 231.523 10.0433C232.683 10.6667 233.523 11.32 234.017 12.0933L231.697 14.6167C231.348 14.2679 230.97 13.95 230.567 13.6667C229.638 13.0133 228.74 12.6867 227.9 12.6867C227.087 12.6867 226.42 12.865 225.898 13.22C225.288 13.6667 224.97 14.32 224.97 15.1817C224.97 16.0133 225.26 16.6367 225.87 17.0233C226.392 17.35 227.493 17.7067 229.233 18.0917C230.972 18.5083 232.307 19.2217 233.263 20.2317C234.337 21.3 234.8 22.6367 234.8 24.33Z" fill="#3A7AF3"/>
</svg>
