<svg width="46" height="46" viewBox="0 0 46 46" fill="none" xmlns="http://www.w3.org/2000/svg">
<path d="M23.5 17.2941H46C46 23.316 43.6295 29.0914 39.4099 33.3495C35.1903 37.6078 29.4673 40 23.5 40C17.5327 40 11.8097 37.6078 7.5901 33.3495C3.37053 29.0914 1 23.316 1 17.2941C1 17.1989 1 17.0951 1 17L23.5 17.2941Z" fill="#FF5670"/>
<path d="M42.1911 5.18833C41.9966 4.72 41.6244 4.34783 41.1561 4.15333C40.9257 4.05512 40.6782 4.00303 40.4278 4H30.8444C30.3361 4 29.8486 4.20193 29.4892 4.56138C29.1297 4.92082 28.9278 5.40834 28.9278 5.91667C28.9278 6.425 29.1297 6.91251 29.4892 7.27195C29.8486 7.6314 30.3361 7.83333 30.8444 7.83333H35.8086L25.0944 18.5475L18.7886 12.2225C18.6104 12.0429 18.3984 11.9003 18.1649 11.803C17.9313 11.7057 17.6808 11.6556 17.4278 11.6556C17.1748 11.6556 16.9242 11.7057 16.6907 11.803C16.4571 11.9003 16.2451 12.0429 16.0669 12.2225L4.56695 23.7225C4.3873 23.9007 4.24471 24.1127 4.1474 24.3462C4.0501 24.5798 4 24.8303 4 25.0833C4 25.3364 4.0501 25.5869 4.1474 25.8204C4.24471 26.054 4.3873 26.266 4.56695 26.4442C4.74513 26.6238 4.95711 26.7664 5.19068 26.8637C5.42424 26.961 5.67476 27.0111 5.92778 27.0111C6.1808 27.0111 6.43132 26.961 6.66489 26.8637C6.89845 26.7664 7.11043 26.6238 7.28861 26.4442L17.4278 16.2858L23.7336 22.6108C23.9118 22.7905 24.1238 22.9331 24.3573 23.0304C24.5909 23.1277 24.8414 23.1778 25.0944 23.1778C25.3475 23.1778 25.598 23.1277 25.8316 23.0304C26.0651 22.9331 26.2771 22.7905 26.4553 22.6108L38.5111 10.5358V15.5C38.5111 16.0083 38.713 16.4958 39.0725 16.8553C39.4319 17.2147 39.9195 17.4167 40.4278 17.4167C40.9361 17.4167 41.4236 17.2147 41.7831 16.8553C42.1425 16.4958 42.3444 16.0083 42.3444 15.5V5.91667C42.3414 5.6662 42.2893 5.41876 42.1911 5.18833V5.18833Z" fill="#0A1158" stroke="#0A1158"/>
</svg>
