<svg width="847" height="438" viewBox="0 0 847 438" fill="none" xmlns="http://www.w3.org/2000/svg">
<path d="M164.314 380.121C163.538 380.121 162.866 379.552 162.763 378.776L150.143 278.129C147.66 258.475 153.091 240.011 165.349 226.099C177.554 212.238 195.139 204.635 214.844 204.635H281.511C282.391 204.635 283.063 205.307 283.063 206.186C283.063 207.066 282.391 207.738 281.511 207.738H214.844C196.07 207.738 179.313 214.979 167.676 228.167C155.987 241.408 150.867 258.992 153.246 277.767L165.866 378.414C165.969 379.241 165.349 380.017 164.521 380.121C164.469 380.069 164.418 380.121 164.314 380.121Z" fill="#3C50E0"/>
<path d="M225.447 436.598C225.447 436.598 225.396 436.598 225.447 436.598C208.793 436.443 203.518 421.496 198.449 407.118C198.139 406.187 197.829 405.308 197.467 404.377C191.674 388.085 190.278 366.156 193.639 342.623C197.053 318.625 205.173 294.42 216.551 274.456C228.809 252.941 250.531 225.995 284.77 218.444C280.374 208.772 279.96 200.342 283.632 193.308C289.115 182.705 303.855 175.568 327.336 172.103C328.008 171.999 328.629 172.309 328.939 172.93C329.559 174.12 330.128 175.258 330.749 176.344C330.852 176.499 330.904 176.654 330.904 176.861L333.076 192.532C333.128 192.946 333.025 193.308 332.818 193.67L324.543 205.307C324.025 206.031 323.094 206.186 322.37 205.669C321.646 205.152 321.491 204.221 322.008 203.497L329.922 192.325L327.853 177.585C327.491 176.861 327.077 176.137 326.663 175.361C304.837 178.774 291.287 185.291 286.373 194.756C282.96 201.273 283.632 209.393 288.39 218.909C288.597 219.323 288.597 219.84 288.39 220.306C288.184 220.719 287.77 221.03 287.304 221.133C253.066 227.805 231.395 254.699 219.241 276.06C196.329 316.298 188.416 369.88 200.363 403.394C200.673 404.325 201.035 405.204 201.346 406.135C206.518 420.772 211.017 433.392 225.447 433.547C226.326 433.547 226.999 434.271 226.999 435.099C226.999 435.926 226.275 436.598 225.447 436.598Z" fill="#3C50E0"/>
<path d="M346.834 246.218C346.834 246.114 346.834 246.011 346.834 245.907C349.265 246.166 351.644 246.166 353.971 244.149C359.66 239.235 361.677 237.736 361.677 237.736C361.677 237.736 362.195 238.356 363.126 239.391C364.263 237.322 365.401 235.201 366.591 232.977C342.024 213.944 323.25 204.324 323.25 204.324L321.853 203.342L312.854 214.358C312.854 214.41 327.542 224.495 346.834 246.218Z" fill="#FDB400"/>
<path d="M465.531 424.806C465.531 424.806 426.224 319.091 431.241 286.352C433.982 268.509 429.689 248.235 423.793 232.563L412.518 233.288L399.019 265.147C399.899 265.354 400.778 265.561 401.657 265.664C401.657 265.664 401.14 269.026 399.847 276.681C398.968 281.801 400.467 282.37 401.605 285.938C403.105 288.318 404.243 291.007 403.002 295.196C402.588 296.541 401.605 309.368 399.381 326.745C403.519 335.538 407.45 344.796 411.173 354.674C435.016 418.238 432.534 425.169 432.534 425.169L465.531 424.806Z" fill="#FDB400"/>
<path d="M598.658 435.771C597.882 435.771 597.262 435.202 597.107 434.478C594.262 415.497 574.04 316.401 459.273 229.253C458.963 228.995 458.756 228.684 458.704 228.271C455.756 210.324 448.308 188.395 416.966 177.637C416.139 177.378 415.725 176.499 415.983 175.672C416.242 174.844 417.121 174.43 417.949 174.689C433.051 179.861 444.429 188.291 451.774 199.67C457.98 209.289 460.307 219.323 461.652 227.133C576.936 314.902 597.262 414.825 600.21 433.961C600.313 434.788 599.744 435.616 598.917 435.719C598.813 435.771 598.71 435.771 598.658 435.771Z" fill="#3C50E0"/>
<path d="M446.757 340.865C445.878 340.865 445.05 340.296 444.792 339.417C437.396 315.108 438.482 282.111 438.533 280.715C438.585 279.577 439.568 278.698 440.654 278.749C441.792 278.801 442.671 279.732 442.671 280.87C442.671 281.18 441.533 314.591 448.722 338.227C449.033 339.313 448.464 340.451 447.326 340.813C447.171 340.813 446.964 340.865 446.757 340.865Z" fill="#3C50E0"/>
<path d="M458.704 227.65C459.066 229.874 459.377 231.891 459.635 233.649C462.79 254.234 456.015 267.94 451.515 277.404C463.566 268.871 471.738 252.631 475.824 240.27C470.858 236.287 464.083 231.632 458.704 227.65Z" fill="#3C50E0"/>
<path d="M288.184 218.651C279.753 220.358 265.892 224.599 255.859 231.477C262.841 235.305 297.441 255.993 325.681 268.405C325.887 268.25 327.439 265.664 328.215 264.682C312.647 252.321 296.2 234.632 288.184 218.651Z" fill="#3C50E0"/>
<path d="M310.113 166.931C308.768 166.931 307.475 166.724 306.234 166.362C302.769 165.276 300.079 162.638 298.114 158.552C295.735 153.535 295.476 148.984 297.338 144.95C300.751 137.554 310.165 134.916 310.527 134.813C311.354 134.606 312.182 135.071 312.44 135.899C312.647 136.726 312.182 137.554 311.354 137.812C311.251 137.812 302.924 140.191 300.131 146.294C298.683 149.449 298.941 153.121 300.907 157.259C302.458 160.569 304.579 162.638 307.165 163.465C310.578 164.552 315.078 163.517 320.508 160.466C321.233 160.052 322.215 160.311 322.629 161.035C323.043 161.759 322.784 162.741 322.06 163.155C317.509 165.689 313.578 166.931 310.113 166.931Z" fill="#3C50E0"/>
<path d="M312.492 145.726C312.492 145.726 302.613 134.244 295.476 120.538C288.752 107.66 291.545 91.6782 302.665 82.3686C311.975 74.5589 320.871 76.6277 320.871 76.6277C320.871 76.6277 304.786 60.2842 317.457 39.079C321.957 31.5796 329.301 26.3042 337.835 24.3906C358.626 19.8392 369.384 35.6655 369.384 35.6655C369.384 35.6655 381.331 -10.4687 432.637 2.20271C437.809 3.49571 444.636 8.97802 448.257 12.9087C470.134 36.8551 429.017 81.8514 403.984 90.8507C376.521 100.729 358.833 100.212 348.024 95.5572C355.782 97.9363 356.092 141.743 312.492 145.726Z" fill="#3C50E0"/>
<path d="M401.502 159.328L391.52 159.276C390.382 159.276 389.451 158.345 389.451 157.207C389.451 156.07 390.382 155.139 391.52 155.139L398.502 155.19L389.865 132.227C389.451 131.141 390.02 129.951 391.054 129.537C392.141 129.124 393.33 129.692 393.744 130.727L403.416 156.535C403.674 157.156 403.571 157.88 403.157 158.449C402.795 159.018 402.174 159.328 401.502 159.328Z" fill="#3C50E0"/>
<path d="M386.503 179.602C389.217 179.602 391.416 177.402 391.416 174.689C391.416 171.975 389.217 169.775 386.503 169.775C383.789 169.775 381.59 171.975 381.59 174.689C381.59 177.402 383.789 179.602 386.503 179.602Z" fill="#3C50E0"/>
<path d="M403.265 133.594C404.762 133.22 405.503 131.029 404.921 128.702C404.338 126.374 402.654 124.791 401.157 125.165C399.661 125.539 398.92 127.729 399.502 130.057C400.084 132.385 401.769 133.968 403.265 133.594Z" fill="#3C50E0"/>
<path d="M376.944 139.702C378.441 139.328 379.182 137.138 378.6 134.81C378.018 132.483 376.333 130.899 374.836 131.273C373.34 131.647 372.599 133.838 373.181 136.165C373.763 138.493 375.448 140.076 376.944 139.702Z" fill="#3C50E0"/>
<path d="M358.781 121.107C358.523 121.107 358.212 121.055 357.954 120.952C356.919 120.486 356.454 119.245 356.919 118.211C359.143 113.246 363.85 109.884 369.28 109.367C370.418 109.263 371.401 110.091 371.504 111.229C371.608 112.366 370.78 113.349 369.642 113.453C365.712 113.815 362.298 116.245 360.695 119.814C360.333 120.693 359.557 121.107 358.781 121.107Z" fill="#3C50E0"/>
<path d="M404.76 108.694C404.036 108.694 403.364 108.332 403.002 107.711C400.623 103.781 395.502 106.47 395.295 106.625C394.313 107.194 393.02 106.78 392.503 105.798C391.934 104.815 392.347 103.522 393.33 103.005C396.382 101.35 403.053 99.7464 406.57 105.591C407.139 106.573 406.829 107.866 405.846 108.435C405.484 108.591 405.122 108.694 404.76 108.694Z" fill="#3C50E0"/>
<path d="M700.288 291.266H499.201C496.563 291.266 494.288 293.076 493.667 295.662L465.686 413.997H392.813C392.813 413.997 388.779 434.84 412.311 434.84H669.049C671.687 434.84 673.963 433.03 674.583 430.444L705.822 298.248C706.546 295.196 704.633 292.145 701.581 291.421C701.167 291.317 700.754 291.266 700.288 291.266Z" fill="#3C50E0"/>
<path d="M569.902 106.78H611.174C612.623 106.78 613.76 107.918 613.76 109.366V113.452C613.76 114.9 612.623 116.038 611.174 116.038H569.902C568.454 116.038 567.316 114.9 567.316 113.452V109.366C567.316 107.97 568.454 106.78 569.902 106.78Z" fill="#3C50E0"/>
<path d="M569.902 149.76H615.364C616.812 149.76 617.95 150.898 617.95 152.346V156.432C617.95 157.88 616.812 159.018 615.364 159.018H569.902C568.454 159.018 567.316 157.88 567.316 156.432V152.346C567.316 150.949 568.454 149.76 569.902 149.76Z" fill="#3C50E0"/>
<path d="M582.677 135.485H656.067C657.516 135.485 658.653 136.623 658.653 138.071V142.157C658.653 143.605 657.516 144.743 656.067 144.743H582.677C581.229 144.743 580.091 143.605 580.091 142.157V138.071C580.091 136.623 581.28 135.485 582.677 135.485Z" fill="#FF5670"/>
<path d="M665.636 135.485H702.874C704.322 135.485 705.46 136.623 705.46 138.071V142.157C705.46 143.605 704.322 144.743 702.874 144.743H665.636C664.187 144.743 663.05 143.605 663.05 142.157V138.071C663.05 136.623 664.239 135.485 665.636 135.485Z" fill="#FF5670"/>
<path d="M715.7 121.159H717.304C718.752 121.159 719.89 122.297 719.89 123.745V127.831C719.89 129.279 718.752 130.417 717.304 130.417H715.7C714.252 130.417 713.115 129.279 713.115 127.831V123.745C713.115 122.297 714.252 121.159 715.7 121.159Z" fill="#3C50E0"/>
<path d="M569.902 121.159H645.982C647.43 121.159 648.568 122.297 648.568 123.745V127.831C648.568 129.279 647.43 130.417 645.982 130.417H569.902C568.454 130.417 567.316 129.279 567.316 127.831V123.745C567.316 122.297 568.454 121.159 569.902 121.159Z" fill="#3C50E0"/>
<path d="M628.656 106.78H669.928C671.377 106.78 672.514 107.918 672.514 109.366V113.452C672.514 114.9 671.377 116.038 669.928 116.038H628.656C627.208 116.038 626.07 114.9 626.07 113.452V109.366C626.07 107.97 627.259 106.78 628.656 106.78Z" fill="#3C50E0"/>
<path d="M654.774 121.107H706.908C708.356 121.107 709.494 122.245 709.494 123.693V127.831C709.494 129.279 708.356 130.417 706.908 130.417H654.774C653.326 130.417 652.188 129.279 652.188 127.831V123.693C652.188 122.245 653.326 121.107 654.774 121.107Z" fill="#FF5670"/>
<path d="M569.902 199.566H611.174C612.623 199.566 613.76 200.704 613.76 202.152V206.238C613.76 207.686 612.623 208.824 611.174 208.824H569.902C568.454 208.824 567.316 207.686 567.316 206.238V202.152C567.316 200.704 568.454 199.566 569.902 199.566Z" fill="#3C50E0"/>
<path d="M569.902 242.545H615.364C616.812 242.545 617.95 243.683 617.95 245.131V249.217C617.95 250.665 616.812 251.803 615.364 251.803H569.902C568.454 251.803 567.316 250.665 567.316 249.217V245.131C567.316 243.683 568.454 242.545 569.902 242.545Z" fill="#3C50E0"/>
<path d="M582.677 228.219H656.067C657.516 228.219 658.653 229.357 658.653 230.805V234.891C658.653 236.339 657.516 237.477 656.067 237.477H582.677C581.229 237.477 580.091 236.339 580.091 234.891V230.805C580.091 229.408 581.28 228.219 582.677 228.219Z" fill="#FF5670"/>
<path d="M665.636 228.219H702.874C704.322 228.219 705.46 229.357 705.46 230.805V234.891C705.46 236.339 704.322 237.477 702.874 237.477H665.636C664.187 237.477 663.05 236.339 663.05 234.891V230.805C663.05 229.408 664.239 228.219 665.636 228.219Z" fill="#FF5670"/>
<path d="M715.7 213.944H717.304C718.752 213.944 719.89 215.082 719.89 216.53V220.616C719.89 222.064 718.752 223.202 717.304 223.202H715.7C714.252 223.202 713.115 222.064 713.115 220.616V216.53C713.115 215.082 714.252 213.944 715.7 213.944Z" fill="#3C50E0"/>
<path d="M727.493 199.566H729.096C730.544 199.566 731.682 200.704 731.682 202.152V206.238C731.682 207.686 730.544 208.824 729.096 208.824H727.493C726.045 208.824 724.907 207.686 724.907 206.238V202.152C724.907 200.704 726.096 199.566 727.493 199.566Z" fill="#3C50E0"/>
<path d="M569.902 213.893H645.982C647.43 213.893 648.568 215.03 648.568 216.479V220.564C648.568 222.013 647.43 223.15 645.982 223.15H569.902C568.454 223.15 567.316 222.013 567.316 220.564V216.479C567.316 215.082 568.454 213.893 569.902 213.893Z" fill="#3C50E0"/>
<path d="M618.933 199.566H669.929C671.377 199.566 672.515 200.704 672.515 202.152V206.238C672.515 207.686 671.377 208.824 669.929 208.824H618.933C617.485 208.824 616.347 207.686 616.347 206.238V202.152C616.347 200.704 617.485 199.566 618.933 199.566Z" fill="#FF5670"/>
<path d="M678.669 199.566H719.942C721.39 199.566 722.528 200.704 722.528 202.152V206.238C722.528 207.686 721.39 208.824 719.942 208.824H678.669C677.221 208.824 676.083 207.686 676.083 206.238V202.152C676.083 200.704 677.273 199.566 678.669 199.566Z" fill="#FF5670"/>
<path d="M618.933 185.705H620.536C621.984 185.705 623.122 186.843 623.122 188.291V192.377C623.122 193.825 621.984 194.963 620.536 194.963H618.933C617.485 194.963 616.347 193.825 616.347 192.377V188.291C616.347 186.843 617.485 185.705 618.933 185.705Z" fill="#FF5670"/>
<path d="M569.902 185.705H611.174C612.623 185.705 613.76 186.843 613.76 188.291V192.377C613.76 193.825 612.623 194.963 611.174 194.963H569.902C568.454 194.963 567.316 193.825 567.316 192.377V188.291C567.316 186.843 568.454 185.705 569.902 185.705Z" fill="#3C50E0"/>
<path d="M628.656 185.705H669.928C671.377 185.705 672.514 186.843 672.514 188.291V192.377C672.514 193.825 671.377 194.963 669.928 194.963H628.656C627.208 194.963 626.07 193.825 626.07 192.377V188.291C626.07 186.843 627.259 185.705 628.656 185.705Z" fill="#3C50E0"/>
<path d="M654.774 213.893H706.908C708.356 213.893 709.494 215.03 709.494 216.479V220.616C709.494 222.064 708.356 223.202 706.908 223.202H654.774C653.326 223.202 652.188 222.064 652.188 220.616V216.479C652.188 215.03 653.326 213.893 654.774 213.893Z" fill="#FF5670"/>
<path d="M772.179 408.256C771.403 408.256 770.627 408.204 769.851 408.101C769.024 407.946 768.403 407.17 768.558 406.342C768.713 405.515 769.489 404.894 770.317 405.049C771.196 405.204 772.127 405.204 773.006 405.153C776.161 404.946 779.109 403.446 781.178 401.067C783.247 398.688 784.281 395.584 784.074 392.378C783.609 385.809 777.868 380.844 771.299 381.31C770.265 381.413 769.179 381.62 768.196 381.982C767.369 382.241 766.489 381.827 766.231 381.051C765.972 380.224 766.386 379.344 767.162 379.086C768.403 378.672 769.748 378.362 771.041 378.258C779.316 377.638 786.505 383.896 787.126 392.171C787.436 396.153 786.143 400.032 783.505 403.084C780.868 406.135 777.247 407.946 773.213 408.256C772.903 408.204 772.541 408.256 772.179 408.256Z" fill="#3C50E0"/>
<path d="M735.199 383.793C734.734 383.793 734.32 383.586 734.01 383.224L714.718 359.691C714.201 359.019 714.253 358.036 714.925 357.519C715.597 357.002 716.58 357.053 717.097 357.726L736.389 381.258C736.906 381.931 736.854 382.913 736.182 383.43C735.923 383.689 735.561 383.793 735.199 383.793Z" fill="#3C50E0"/>
<path d="M713.115 374.948V419.324C713.115 427.909 720.045 434.84 728.63 434.84H754.801C763.386 434.84 770.317 427.909 770.317 419.324V374.948H713.115ZM736.233 407.428C736.544 407.635 736.75 407.946 736.75 408.359C736.75 408.928 736.285 409.394 735.716 409.394C735.561 409.394 735.354 409.342 735.199 409.239L724.855 403.032C724.338 402.774 724.131 402.153 724.338 401.636C724.441 401.429 724.596 401.222 724.855 401.119L735.199 394.912C735.354 394.809 735.561 394.757 735.716 394.757C736.285 394.757 736.75 395.222 736.75 395.791C736.75 396.153 736.544 396.515 736.233 396.722L727.337 402.049L736.233 407.428ZM749.163 392.171L740.836 413.014C740.785 413.118 740.733 413.221 740.629 413.273C740.423 413.48 740.164 413.583 739.905 413.583C739.336 413.583 738.871 413.118 738.871 412.549C738.871 412.393 738.923 412.238 738.974 412.135L747.301 391.292C747.353 391.188 747.457 391.085 747.508 390.981C747.715 390.775 747.974 390.671 748.232 390.671C748.801 390.671 749.267 391.137 749.267 391.705C749.267 391.861 749.215 392.016 749.163 392.171ZM763.283 403.032L752.939 409.239C752.784 409.342 752.577 409.394 752.422 409.394C751.853 409.394 751.387 408.928 751.387 408.359C751.387 407.997 751.594 407.635 751.904 407.428L760.8 402.101L751.904 396.774C751.594 396.567 751.387 396.257 751.387 395.843C751.387 395.584 751.491 395.326 751.698 395.119C751.904 394.912 752.163 394.809 752.422 394.809C752.577 394.809 752.784 394.86 752.939 394.964L763.283 401.17C763.8 401.429 764.007 402.049 763.8 402.567C763.697 402.774 763.49 402.929 763.283 403.032Z" fill="#3C50E0"/>
<path d="M125.783 408.256C122.162 408.256 118.749 406.963 116.008 404.584C112.956 401.946 111.146 398.326 110.836 394.292C110.525 390.309 111.818 386.43 114.456 383.379C117.094 380.327 120.714 378.517 124.748 378.207C125.628 378.155 126.559 378.155 127.49 378.259C128.317 378.362 128.938 379.138 128.886 379.965C128.783 380.793 128.007 381.413 127.179 381.362C126.455 381.258 125.731 381.258 125.007 381.31C121.8 381.569 118.904 383.017 116.835 385.396C114.767 387.827 113.732 390.878 113.991 394.085C114.249 397.24 115.697 400.136 118.077 402.257C120.507 404.325 123.559 405.36 126.766 405.101C127.645 405.049 128.369 405.67 128.421 406.549C128.472 407.429 127.852 408.153 126.972 408.204C126.559 408.204 126.197 408.256 125.783 408.256Z" fill="#3C50E0"/>
<path d="M125.059 374.948V419.324C125.059 427.909 131.989 434.84 140.575 434.84H166.745C175.33 434.84 182.261 427.909 182.261 419.324V374.948H125.059ZM148.229 407.428C148.54 407.635 148.746 407.946 148.746 408.359C148.746 408.928 148.281 409.394 147.712 409.394C147.557 409.394 147.35 409.342 147.195 409.239L136.851 403.032C136.334 402.774 136.127 402.153 136.334 401.636C136.437 401.429 136.592 401.222 136.851 401.119L147.195 394.912C147.35 394.809 147.557 394.757 147.712 394.757C148.281 394.757 148.746 395.222 148.746 395.791C148.746 396.153 148.54 396.515 148.229 396.722L139.333 402.049L148.229 407.428ZM170.003 403.032L159.659 409.239C159.504 409.342 159.297 409.394 159.142 409.394C158.884 409.394 158.573 409.29 158.418 409.083C158.211 408.877 158.108 408.618 158.108 408.359C158.108 407.997 158.315 407.635 158.625 407.428L167.521 402.101L158.625 396.774C158.315 396.567 158.108 396.257 158.108 395.843C158.108 395.274 158.573 394.809 159.142 394.809C159.297 394.809 159.504 394.86 159.659 394.964L170.003 401.17C170.521 401.429 170.727 402.049 170.521 402.567C170.417 402.774 170.262 402.929 170.003 403.032Z" fill="#3C50E0"/>
<path d="M220.999 358.605C220.43 358.605 219.913 358.295 219.655 357.778L212.569 345.003C212.155 344.227 212.414 343.296 213.19 342.882C213.965 342.469 214.896 342.727 215.31 343.503L222.396 356.329C222.81 357.105 222.551 358.036 221.775 358.45C221.517 358.553 221.258 358.605 220.999 358.605Z" fill="#3C50E0"/>
<path d="M244.532 360.001H205.328C204.449 360.001 203.777 359.329 203.777 358.45C203.777 357.57 204.449 356.898 205.328 356.898H244.532C245.411 356.898 246.084 357.57 246.084 358.45C246.084 359.329 245.359 360.001 244.532 360.001Z" fill="#3C50E0"/>
<path d="M239.101 400.239C237.912 399.05 235.998 399.05 234.808 400.239C233.619 401.429 233.619 403.343 234.808 404.532C235.998 405.722 237.912 405.722 239.101 404.532C239.67 403.963 239.98 403.187 239.98 402.36C239.98 401.584 239.67 400.808 239.101 400.239Z" fill="#3C50E0"/>
<path d="M236.929 395.688C238.584 395.688 239.98 394.343 239.98 392.688C239.98 391.033 238.636 389.637 236.981 389.637C235.326 389.637 233.929 390.981 233.929 392.637C233.929 393.464 234.24 394.24 234.808 394.809C235.377 395.378 236.153 395.688 236.929 395.688Z" fill="#3C50E0"/>
<path d="M239.101 414.256C240.291 413.066 240.291 411.153 239.101 409.963C237.912 408.773 235.998 408.773 234.808 409.963C233.619 411.153 233.619 413.066 234.808 414.256C235.377 414.825 236.153 415.135 236.981 415.135C237.756 415.135 238.532 414.825 239.101 414.256Z" fill="#3C50E0"/>
<path d="M248.359 367.811L241.48 358.863H208.328L201.449 367.811C200.777 368.638 200.415 369.673 200.415 370.707V425.168C200.467 426.927 201.449 428.582 203.001 429.461C205.121 430.806 207.862 432.823 208.018 434.788H241.791C241.998 432.823 244.687 430.754 246.808 429.461C248.359 428.582 249.29 426.978 249.342 425.168V370.707C249.394 369.673 249.032 368.638 248.359 367.811ZM233.981 378.258L237.601 372.207C237.705 372 237.912 371.897 238.119 371.845C238.326 371.845 238.584 372 238.688 372.207L242.308 378.258C242.36 378.362 242.411 378.465 242.36 378.569C242.36 378.724 242.308 378.879 242.204 378.982C242.101 379.086 241.946 379.189 241.791 379.138C241.584 379.138 241.377 379.034 241.274 378.827L238.17 373.655L235.067 378.827C234.964 379.034 234.757 379.138 234.55 379.138C234.395 379.138 234.24 379.086 234.136 378.982C234.033 378.879 233.929 378.724 233.929 378.569C233.878 378.465 233.929 378.362 233.981 378.258ZM234.188 380.534C234.291 380.482 234.395 380.431 234.55 380.431C234.705 380.431 234.86 380.482 234.964 380.586C235.067 380.689 235.119 380.844 235.119 380.999C235.119 381.155 235.067 381.31 234.964 381.413L234.757 381.62C234.188 382.189 233.878 382.965 233.878 383.792C233.826 384.568 234.136 385.292 234.653 385.809C234.809 385.913 234.964 386.016 235.171 385.965C235.377 385.965 235.584 385.809 235.636 385.602L236.877 381.879C236.981 381.517 237.188 381.206 237.395 380.896C237.705 380.534 238.17 380.379 238.688 380.379C239.205 380.379 239.67 380.586 239.981 380.948C240.756 381.724 241.118 382.758 241.067 383.792C241.067 385.034 240.498 386.275 239.515 387.051C239.412 387.154 239.308 387.154 239.153 387.154C238.843 387.154 238.532 386.896 238.532 386.585C238.532 386.43 238.584 386.275 238.688 386.171L238.894 385.965C239.463 385.396 239.774 384.62 239.774 383.792C239.825 383.016 239.515 382.292 238.998 381.775C238.843 381.672 238.688 381.568 238.481 381.62C238.274 381.62 238.067 381.775 238.015 381.982L236.774 385.706C236.67 386.068 236.515 386.378 236.257 386.689C235.946 387.051 235.481 387.206 234.964 387.206C234.447 387.206 233.981 386.999 233.671 386.637C232.895 385.861 232.533 384.827 232.585 383.792C232.688 382.499 233.257 381.31 234.188 380.534ZM233.929 389.637C235.584 387.982 238.274 387.982 239.929 389.637C241.584 391.292 241.584 393.981 239.929 395.636C238.274 397.291 235.584 397.291 233.929 395.636C233.154 394.86 232.688 393.774 232.688 392.636C232.688 391.55 233.102 390.464 233.929 389.637ZM232.843 416.169C232.585 415.91 232.636 415.548 232.843 415.29C232.947 415.186 233.102 415.135 233.257 415.135H233.929C232.274 413.48 232.223 410.79 233.878 409.135C235.533 407.48 238.222 407.428 239.877 409.083C241.532 410.738 241.584 413.428 239.929 415.083C239.101 415.91 238.015 416.376 236.877 416.376H233.257C233.154 416.376 232.998 416.272 232.843 416.169ZM242.308 418.445L238.688 424.496C238.584 424.703 238.377 424.806 238.119 424.858C237.912 424.858 237.705 424.703 237.601 424.496L233.981 418.445C233.929 418.341 233.878 418.238 233.929 418.134C233.929 417.979 233.981 417.824 234.136 417.721C234.24 417.617 234.395 417.514 234.55 417.565C234.757 417.565 234.964 417.669 235.067 417.876L238.17 423.048L241.274 417.876C241.377 417.669 241.584 417.565 241.791 417.565C242.101 417.565 242.411 417.824 242.411 418.186C242.411 418.289 242.36 418.393 242.308 418.445ZM244.687 406.446C244.584 406.549 244.428 406.601 244.273 406.601H236.981C234.653 406.601 232.74 404.687 232.74 402.36C232.74 400.032 234.653 398.119 236.981 398.119C239.308 398.119 241.222 400.032 241.222 402.36C241.222 403.498 240.756 404.584 239.981 405.36L239.929 405.411H244.273C244.428 405.411 244.584 405.463 244.687 405.566C244.791 405.67 244.894 405.825 244.894 405.98C244.842 406.187 244.791 406.342 244.687 406.446Z" fill="#3C50E0"/>
<path d="M376.624 215.392C376.624 215.392 376.573 215.392 376.624 215.392C375.694 215.34 375.021 214.668 375.073 213.789C375.383 203.445 374.659 195.997 373.004 192.739C370.522 187.929 370.78 182.809 373.573 180.791C374.711 179.964 377.917 178.619 382.934 183.791C387.589 188.601 389.865 194.963 390.951 199.411C391.158 200.238 390.641 201.066 389.813 201.273C388.986 201.479 388.158 200.962 387.951 200.135C386.968 196.049 384.9 190.256 380.762 185.963C378.486 183.636 376.418 182.602 375.435 183.326C374.297 184.153 373.883 187.567 375.797 191.291C378.228 196.049 378.486 206.186 378.228 213.841C378.124 214.72 377.452 215.392 376.624 215.392Z" fill="#3C50E0"/>
<path d="M441.74 204.635C433.465 204.635 426.689 197.911 426.689 189.584C426.689 181.257 433.413 174.534 441.74 174.534C450.067 174.534 456.79 181.257 456.79 189.584C456.79 197.911 450.015 204.635 441.74 204.635ZM441.74 177.689C435.172 177.689 429.793 183.016 429.793 189.636C429.793 196.204 435.12 201.583 441.74 201.583C448.36 201.583 453.687 196.256 453.687 189.636C453.687 183.016 448.308 177.689 441.74 177.689Z" fill="#3C50E0"/>
<path d="M354.385 437.943C353.558 437.943 352.885 437.323 352.833 436.495C352.782 435.616 353.402 434.892 354.282 434.84C368.091 433.806 379.573 415.187 388.417 379.5C395.658 350.278 399.071 317.126 400.519 302.954C401.088 297.42 401.295 295.455 401.502 294.783C402.795 290.542 401.243 288.214 399.433 285.473C397.881 283.146 396.123 280.508 396.744 276.681C397.468 272.129 397.313 269.285 397.157 267.888C380.917 264.578 365.763 247.252 361.781 242.442C360.695 243.321 358.833 244.821 355.885 247.355C352.989 249.838 349.885 249.476 347.196 249.166C344.196 248.804 341.558 248.493 338.766 251.7C335.662 255.269 306.441 303.937 291.442 329.125C291.028 329.849 290.045 330.107 289.321 329.642C288.597 329.228 288.339 328.245 288.804 327.521C290.563 324.522 332.404 254.338 336.438 249.631C340.317 245.183 344.351 245.649 347.558 246.062C350.041 246.373 352.006 246.58 353.868 244.976C359.143 240.477 361.057 239.08 361.109 239.029C361.781 238.511 362.712 238.667 363.229 239.339C363.384 239.546 381.021 262.147 398.709 265.044C399.33 265.147 399.795 265.561 399.95 266.182C400.002 266.337 400.881 269.802 399.743 277.198C399.33 279.836 400.571 281.646 401.967 283.766C403.829 286.559 406.157 290.024 404.398 295.662C404.243 296.179 403.933 299.489 403.519 303.265C402.071 317.488 398.606 350.847 391.313 380.276C382.107 417.411 369.694 436.857 354.385 437.995C354.488 437.943 354.437 437.943 354.385 437.943Z" fill="#3C50E0"/>
<path d="M399.899 276.681C401.192 268.974 401.709 265.664 401.709 265.664C382.004 262.613 361.678 237.787 361.678 237.787C361.678 237.787 359.661 239.287 353.971 244.2C351.696 246.166 349.317 246.166 346.834 245.959C345.076 267.526 383.814 286.714 402.123 287.645C400.933 282.421 398.916 282.525 399.899 276.681Z" fill="#3C50E0"/>
<path d="M264.548 317.643C264.134 317.643 263.668 317.436 263.358 317.126C262.789 316.453 262.893 315.522 263.513 314.953C264.496 314.074 288.08 294.059 302.458 307.557C303.079 308.126 303.131 309.109 302.51 309.73C301.941 310.35 300.958 310.402 300.338 309.781C287.977 298.196 265.789 317.074 265.53 317.281C265.272 317.539 264.91 317.643 264.548 317.643Z" fill="#3C50E0"/>
<path d="M393.071 280.818C392.813 280.818 392.554 280.766 392.296 280.611L353.195 257.906C352.471 257.492 352.213 256.561 352.626 255.837C355.161 250.976 377.555 208.41 382.417 204.169C386.451 200.652 412.518 182.809 417.018 182.395C419.655 182.136 422.397 183.998 423.328 186.584C424.31 189.326 422.966 192.222 419.811 194.291C418.466 195.17 416.759 196.204 414.949 197.239C420.38 195.687 425.5 194.498 427.258 194.963C429.431 195.532 430.827 197.446 430.93 199.928C430.982 202.566 429.379 205.772 425.758 207.686C427.724 207.324 429.224 207.169 429.896 207.221C432.017 207.376 433.827 209.445 433.982 211.927C434.085 213.479 433.62 218.185 425.138 220.978C426.172 220.926 427.051 220.926 427.62 220.978C429.793 221.185 431.241 223.047 431.137 225.426C430.93 229.564 426.224 234.425 413.656 234.632L394.468 279.939C394.313 280.353 393.951 280.663 393.537 280.818C393.382 280.766 393.227 280.818 393.071 280.818ZM356.04 255.941L392.296 277.043L411.173 232.408C411.432 231.839 412.001 231.477 412.622 231.477C412.622 231.477 412.673 231.477 412.725 231.477C423.741 231.477 427.931 227.753 428.034 225.219C428.034 224.65 427.827 224.03 427.362 224.03C424.259 223.771 410.036 225.581 404.812 226.357C404.243 226.46 403.674 226.202 403.364 225.736C403.002 225.271 402.95 224.702 403.209 224.185C403.519 223.512 404.139 222.064 420.38 218.961C428.396 217.461 431.086 214.41 430.93 212.082C430.879 210.996 430.206 210.324 429.741 210.272C427.465 210.117 411.794 213.789 402.433 216.116C401.657 216.323 400.829 215.858 400.571 215.082C400.312 214.306 400.778 213.427 401.553 213.168L422.603 205.669H422.655C426.379 204.479 427.982 201.997 427.931 199.98C427.931 199.566 427.775 198.273 426.586 197.963C424.931 197.549 414.639 200.187 400.209 205.255C399.433 205.514 398.605 205.152 398.295 204.428C397.985 203.704 398.295 202.824 399.019 202.411C399.174 202.359 412.156 195.687 418.207 191.705C419.345 190.981 421.155 189.429 420.483 187.619C420.069 186.378 418.621 185.395 417.431 185.498C414.483 185.86 390.175 201.687 384.589 206.548C381.176 209.341 365.918 237.115 356.04 255.941Z" fill="#3C50E0"/>
<path d="M331.68 408.256C330.18 408.256 328.732 408.049 327.284 407.584C326.456 407.325 325.991 406.446 326.249 405.67C326.508 404.843 327.387 404.377 328.163 404.636C329.559 405.05 331.059 405.256 332.559 405.153C339.127 404.688 344.093 398.947 343.575 392.378C343.369 389.223 341.869 386.275 339.49 384.206C337.059 382.138 334.007 381.103 330.801 381.31C330.18 381.362 329.508 381.465 328.887 381.62C328.059 381.827 327.232 381.31 327.025 380.483C326.818 379.655 327.335 378.828 328.163 378.621C328.939 378.414 329.766 378.31 330.542 378.259C334.576 377.948 338.455 379.241 341.455 381.879C344.506 384.517 346.317 388.137 346.627 392.171C347.248 400.447 340.989 407.636 332.714 408.256C332.404 408.205 332.042 408.256 331.68 408.256Z" fill="#3C50E0"/>
<path d="M272.616 374.948V419.324C272.616 427.909 279.546 434.84 288.132 434.84H314.302C322.888 434.84 329.818 427.909 329.818 419.324V374.948H272.616ZM295.735 407.428C296.045 407.635 296.252 407.946 296.252 408.359C296.252 408.928 295.786 409.394 295.217 409.394C295.062 409.394 294.855 409.342 294.7 409.239L284.356 403.032C283.839 402.774 283.632 402.153 283.839 401.636C283.943 401.429 284.098 401.222 284.356 401.119L294.7 394.912C294.855 394.809 295.062 394.757 295.217 394.757C295.476 394.757 295.735 394.86 295.942 395.067C296.148 395.274 296.252 395.533 296.252 395.791C296.252 396.153 296.045 396.515 295.735 396.722L286.839 402.049L295.735 407.428ZM308.665 392.171L300.338 413.014C300.286 413.118 300.234 413.221 300.131 413.273C299.924 413.48 299.665 413.583 299.407 413.583C298.838 413.583 298.372 413.118 298.372 412.549C298.372 412.393 298.424 412.238 298.476 412.135L306.803 391.292C306.854 391.188 306.958 391.085 307.01 390.981C307.216 390.775 307.475 390.671 307.734 390.671C308.303 390.671 308.768 391.137 308.768 391.705C308.768 391.861 308.768 392.016 308.665 392.171ZM322.784 403.032L312.44 409.239C312.285 409.342 312.078 409.394 311.923 409.394C311.354 409.394 310.889 408.928 310.889 408.359C310.889 407.997 311.095 407.635 311.406 407.428L320.302 402.101L311.406 396.774C311.095 396.567 310.889 396.257 310.889 395.843C310.889 395.584 310.992 395.274 311.199 395.119C311.406 394.912 311.664 394.809 311.923 394.809C312.078 394.809 312.285 394.86 312.44 394.964L322.784 401.17C323.301 401.429 323.508 402.049 323.301 402.567C323.198 402.722 322.991 402.929 322.784 403.032Z" fill="#3C50E0"/>
<path d="M847.948 437.685H1.5516C0.672359 437.685 0 437.012 0 436.133C0 435.254 0.672359 434.582 1.5516 434.582H847.948C848.828 434.582 849.5 435.254 849.5 436.133C849.5 437.012 848.776 437.685 847.948 437.685Z" fill="#3C50E0"/>
<path d="M441.533 215.806L438.688 171.534L381.59 175.206L383.555 205.152C388.624 200.807 413.553 184.153 417.173 183.843C420.793 183.533 425.138 188.808 418.931 192.894C412.725 196.98 399.588 203.704 399.588 203.704C410.501 199.876 424.31 195.739 426.896 196.411C430.827 197.445 430.568 204.686 423.069 207.065L402.019 214.565C402.019 214.565 426.534 208.41 429.844 208.669C433.154 208.927 436.051 217.513 420.638 220.409C405.226 223.305 404.605 224.702 404.605 224.702C404.605 224.702 423.586 222.012 427.517 222.374C431.448 222.736 431.551 232.977 412.673 232.925L412.57 233.184L427.103 232.253C435.585 231.736 442.102 224.391 441.533 215.806Z" fill="#3C50E0"/>
<path d="M321.181 138.226C323.594 152.449 335.818 180.688 375.745 204.686" stroke="#3C50E0" stroke-width="3"/>
<path d="M407.553 85.9893C427.724 99.9536 444.791 151.156 431.344 174.689" stroke="#3C50E0" stroke-width="3"/>
</svg>
