<svg id="Layer_1" data-name="Layer 1" xmlns="http://www.w3.org/2000/svg" viewBox="0 0 70.97 63.72"><defs><style>.cls-1{fill:#3c50e0;}.cls-2{fill:none;stroke:#00005c;stroke-width:6px;}</style></defs><polyline class="cls-1" points="0 11.89 0 63.36 38.5 63.36"/><path class="cls-2" d="M48.32,23.07a7.15,7.15,0,1,0,5,2.09A7.13,7.13,0,0,0,48.32,23.07Z" transform="translate(0 -1.64)"/><path class="cls-2" d="M47.64,10.76a16.59,16.59,0,0,1,14.49,5.07c3.71,4,5.84,10,5.84,17.1a36.19,36.19,0,0,1-6.73,20.36c-3.79,5.3-8.77,9.07-13.81,9.07a15.84,15.84,0,0,1-8-2.35c-.31-.18-.62-.37-.91-.56-.3.19-.6.38-.91.56a15.84,15.84,0,0,1-8,2.35c-5,0-10-3.77-13.81-9.07A36.2,36.2,0,0,1,9,32.92c0-7.12,2.13-13.1,5.84-17.09a16.59,16.59,0,0,1,14.49-5.07,19.34,19.34,0,0,1,8.15,3.36c.34.23.67.47,1,.71.33-.24.66-.48,1-.71a19.25,19.25,0,0,1,8.14-3.36ZM38.5,14.14V1.64" transform="translate(0 -1.64)"/></svg>