<svg width="74" height="46" viewBox="0 0 74 46" fill="none" xmlns="http://www.w3.org/2000/svg">
<g clip-path="url(#clip0)">
<path d="M26.25 19.3698H52.5C52.5 26.3317 49.7344 33.0085 44.8116 37.9313C39.8887 42.8542 33.2119 45.6198 26.25 45.6198C19.2881 45.6198 12.6113 42.8542 7.68845 37.9313C2.76562 33.0085 0 26.3317 0 19.3698C0 19.2598 0 19.1398 0 19.0298L26.25 19.3698Z" fill="#FDB400"/>
<path d="M21.72 32.73H20.93C16.899 32.5083 13.0893 30.8165 10.2218 27.9748C7.3543 25.1331 5.62811 21.3388 5.36996 17.31C5.23705 15.0877 5.56361 12.8619 6.32925 10.7714C7.09489 8.68098 8.28318 6.77076 9.81996 5.16001C11.3491 3.53954 13.1915 2.2466 15.2353 1.35961C17.2792 0.472613 19.4819 0.010061 21.71 1.06267e-05C23.5385 -0.00208438 25.3542 0.305603 27.08 0.910011C29.2461 1.66063 31.2126 2.89525 32.83 4.52001L44.68 16.36L33.05 28C31.3824 29.7087 29.3476 31.015 27.1 31.82C25.3715 32.4274 23.552 32.7352 21.72 32.73ZM21.72 5.50001C20.241 5.49768 18.7771 5.79745 17.4181 6.38096C16.0591 6.96447 14.8336 7.81942 13.8168 8.89338C12.8 9.96734 12.0132 11.2377 11.5047 12.6265C10.9963 14.0153 10.7769 15.4934 10.86 16.97C10.954 18.6472 11.4355 20.2798 12.2666 21.7396C13.0977 23.1994 14.2558 24.4468 15.6501 25.3837C17.0444 26.3207 18.6368 26.9217 20.3024 27.1397C21.9681 27.3576 23.6615 27.1866 25.25 26.64C26.7294 26.1063 28.0669 25.2408 29.16 24.11L36.9 16.36L28.9 8.36001C27.8637 7.32896 26.6097 6.54306 25.23 6.06001C24.0964 5.67693 22.9064 5.48762 21.71 5.50001H21.72Z" fill="#00005C"/>
<path d="M69.44 5.12007C67.9016 3.50076 66.0496 2.21169 63.9969 1.33144C61.9441 0.451186 59.7336 -0.00180837 57.5 6.82901e-05C55.672 -0.00524094 53.8564 0.299062 52.13 0.900069C49.9664 1.66082 48.0013 2.89795 46.38 4.52007L40.51 10.3801L44.44 14.3101L50.3 8.44007C51.3431 7.40784 52.6039 6.62199 53.99 6.14007C55.1304 5.73891 56.3311 5.53597 57.54 5.54007C59.0112 5.54481 60.4661 5.84844 61.8164 6.43251C63.1667 7.01658 64.3843 7.86892 65.3952 8.93781C66.4061 10.0067 67.1893 11.2698 67.6972 12.6506C68.2051 14.0313 68.4272 15.5009 68.35 16.9701C68.1866 19.6478 67.0433 22.1716 65.138 24.0603C63.2328 25.9489 60.699 27.0701 58.02 27.2101C56.6624 27.2793 55.3042 27.0858 54.02 26.6401L53.63 26.5001C52.3026 25.9527 51.1012 25.1393 50.1 24.1101L44.44 18.4501L40.51 22.3101L46.17 27.9601C47.8291 29.6766 49.8618 30.9872 52.11 31.7901L52.55 31.9401C54.1278 32.4435 55.7739 32.6999 57.43 32.7001H58.26C61.3926 32.5637 64.4201 31.5299 66.9819 29.7218C69.5437 27.9137 71.532 25.4075 72.7099 22.5016C73.8879 19.5957 74.206 16.4124 73.6262 13.3309C73.0465 10.2493 71.5934 7.39927 69.44 5.12007Z" fill="#00005C"/>
</g>
<defs>
<clipPath id="clip0">
<rect width="73.87" height="45.61" fill="white"/>
</clipPath>
</defs>
</svg>
