<svg width="51" height="51" viewBox="0 0 51 51" fill="none" xmlns="http://www.w3.org/2000/svg">
<g clip-path="url(#clip0)">
<path d="M5 50.5301H50.66V4.87012" fill="#FDB400"/>
<path d="M22.51 0.930098C22.42 0.930098 22.3 1.0001 22.25 0.850098H22.52C22.52 0.850098 22.53 0.930098 22.51 0.930098Z" fill="#00005C" stroke="#00005C" stroke-width="1.7" stroke-miterlimit="10"/>
<path d="M22.51 0.930098C22.5149 0.903655 22.5149 0.87654 22.51 0.850098H22.78C22.78 0.850098 22.78 0.850098 22.78 0.910098L22.51 0.930098Z" fill="#00005C" stroke="#00005C" stroke-width="1.7" stroke-miterlimit="10"/>
<path d="M22.78 0.930098C22.7849 0.903655 22.7849 0.87654 22.78 0.850098H22.96C22.9432 0.881599 22.9164 0.906585 22.8838 0.921081C22.8512 0.935577 22.8147 0.93875 22.78 0.930098Z" fill="#00005C" stroke="#00005C" stroke-width="1.7" stroke-miterlimit="10"/>
<path d="M24.76 0.930098C24.7253 0.940729 24.6881 0.938487 24.655 0.923784C24.6219 0.909081 24.5953 0.882909 24.58 0.850098H24.76C24.76 0.850098 24.77 0.930098 24.76 0.930098Z" fill="#00005C" stroke="#00005C" stroke-width="1.7" stroke-miterlimit="10"/>
<path d="M24.76 0.930098V0.850098H24.94L24.76 0.930098Z" fill="#00005C" stroke="#00005C" stroke-width="1.7" stroke-miterlimit="10"/>
<path d="M24.9399 0.930098V0.850098H25.1199L24.9399 0.930098Z" fill="#00005C" stroke="#00005C" stroke-width="1.7" stroke-miterlimit="10"/>
<path d="M25.12 0.930098V0.850098H25.3C25.25 0.960098 25.25 0.940098 25.12 0.930098Z" fill="#00005C" stroke="#00005C" stroke-width="1.7" stroke-miterlimit="10"/>
<path d="M0.849976 22.26C0.949976 22.26 0.929975 22.36 0.919975 22.43C0.909975 22.5 0.869976 22.48 0.849976 22.43V22.26Z" fill="#00005C" stroke="#00005C" stroke-width="1.7" stroke-miterlimit="10"/>
<path d="M0.849976 22.4399H0.919975V22.6199C0.919975 22.6199 0.869976 22.6199 0.849976 22.6199V22.4399Z" fill="#00005C" stroke="#00005C" stroke-width="1.7" stroke-miterlimit="10"/>
<path d="M0.849966 22.6201H0.919966V22.8001C0.919966 22.8001 0.919966 22.8001 0.839966 22.8001L0.849966 22.6201Z" fill="#00005C" stroke="#00005C" stroke-width="1.7" stroke-miterlimit="10"/>
<path d="M0.849976 22.79H0.929976C0.938628 22.8247 0.935454 22.8612 0.920958 22.8938C0.906462 22.9264 0.881477 22.9533 0.849976 22.97V22.79Z" fill="#00005C" stroke="#00005C" stroke-width="1.7" stroke-miterlimit="10"/>
<path d="M0.849976 24.5901C0.881477 24.6069 0.906462 24.6337 0.920958 24.6663C0.935454 24.6989 0.938628 24.7355 0.929976 24.7701C0.929976 24.7701 0.869976 24.7701 0.849976 24.7701V24.5901Z" fill="#00005C" stroke="#00005C" stroke-width="1.7" stroke-miterlimit="10"/>
<path d="M0.849976 24.77H0.929976V24.95C0.929976 24.95 0.879975 24.95 0.859975 24.95L0.849976 24.77Z" fill="#00005C" stroke="#00005C" stroke-width="1.7" stroke-miterlimit="10"/>
<path d="M0.849976 24.9399H0.919975V25.1199C0.919975 25.1199 0.869976 25.1199 0.849976 25.1199V24.9399Z" fill="#00005C" stroke="#00005C" stroke-width="1.7" stroke-miterlimit="10"/>
<path d="M0.849976 25.1201H0.919975C0.919975 25.1901 0.919976 25.2701 0.849976 25.2901V25.1201Z" fill="#00005C" stroke="#00005C" stroke-width="1.7" stroke-miterlimit="10"/>
<path d="M46.68 21.3601C46.4044 18.0777 45.378 14.9026 43.68 12.0801C42.3167 9.77575 40.5641 7.72536 38.5 6.0201C35.6681 3.65952 32.3049 2.02254 28.7 1.2501C27.6793 1.05234 26.6473 0.918742 25.61 0.850098H25.34C25.28 0.910098 25.21 0.850098 25.14 0.850098H24.82C24.75 0.850098 24.68 0.850098 24.62 0.850098H22.97C22.91 0.920098 22.83 0.850098 22.76 0.850098H22.53C22.43 0.850098 22.33 0.850098 22.25 0.850098H21.89C21.44 0.950098 20.98 0.910098 20.53 0.970098C18.0928 1.29585 15.727 2.02587 13.53 3.1301C10.7073 4.54196 8.2054 6.51966 6.17998 8.9401C3.89117 11.6112 2.25476 14.7779 1.39997 18.1901C1.10727 19.3742 0.923174 20.5825 0.849976 21.8001V22.2501C0.909976 22.3001 0.849976 22.3801 0.849976 22.4501V22.7701C0.849976 22.8301 0.849976 22.9101 0.849976 22.9601V24.5901C0.909976 24.6401 0.849976 24.7201 0.849976 24.7801V25.1001C0.849976 25.1701 0.849976 25.2501 0.849976 25.3001V25.6601C0.929976 26.0801 0.899975 26.5201 0.949975 26.9401C1.2896 29.5666 2.09917 32.1104 3.33998 34.4501C4.5277 36.7132 6.0859 38.7615 7.94998 40.5101C9.96817 42.4231 12.3116 43.9605 14.87 45.0501C18.4514 46.5179 22.3392 47.0812 26.19 46.6901C28.8605 46.4563 31.4628 45.7201 33.86 44.5201C36.3547 43.2938 38.6075 41.627 40.51 39.6001C42.4196 37.5793 43.9566 35.2365 45.05 32.6801C46.5282 29.1016 47.0885 25.2103 46.68 21.3601ZM23.75 43.9701C19.7576 43.9661 15.8561 42.7787 12.5385 40.5578C9.22087 38.3368 6.63618 35.1822 5.11111 31.4926C3.58605 27.803 3.18907 23.7441 3.97036 19.829C4.75165 15.9138 6.67614 12.3182 9.50056 9.49656C12.325 6.67493 15.9225 4.75401 19.8385 3.97659C23.7544 3.19918 27.8129 3.60017 31.501 5.12889C35.189 6.65761 38.3411 9.24542 40.5587 12.5652C42.7764 15.885 43.96 19.7877 43.96 23.7801C43.9587 26.4328 43.4349 29.0593 42.4185 31.5095C41.4022 33.9598 39.9131 36.1859 38.0365 38.0607C36.1598 39.9355 33.9322 41.4224 31.4809 42.4363C29.0297 43.4502 26.4027 43.9714 23.75 43.9701Z" fill="#00005C" stroke="#00005C" stroke-width="1.7" stroke-miterlimit="10"/>
<path d="M14.73 15.82C14.73 15.32 14.73 14.82 14.73 14.34C14.7266 13.9863 14.8581 13.6446 15.0978 13.3845C15.3374 13.1244 15.6673 12.9654 16.02 12.94C16.1969 12.9264 16.3747 12.948 16.5431 13.0037C16.7116 13.0593 16.8673 13.1478 17.0012 13.2641C17.1352 13.3804 17.2447 13.5221 17.3235 13.681C17.4022 13.84 17.4486 14.013 17.46 14.19C17.46 15.26 17.46 16.34 17.46 17.41C17.4538 17.5856 17.4122 17.7582 17.3378 17.9174C17.2635 18.0766 17.1578 18.2193 17.0272 18.3368C16.8966 18.4544 16.7437 18.5445 16.5775 18.6017C16.4113 18.659 16.2354 18.6822 16.06 18.67C15.7054 18.657 15.3697 18.507 15.1235 18.2515C14.8773 17.9959 14.7398 17.6548 14.74 17.3C14.72 16.83 14.73 16.32 14.73 15.82Z" fill="#00005C" stroke="#00005C" stroke-width="1.7" stroke-miterlimit="10"/>
<path d="M32.82 15.8399C32.82 16.3299 32.82 16.8399 32.82 17.3199C32.8255 17.6739 32.6928 18.0161 32.4501 18.2738C32.2073 18.5315 31.8736 18.6843 31.52 18.6999C31.3404 18.7135 31.1599 18.6905 30.9895 18.6323C30.8191 18.5741 30.6623 18.4819 30.5286 18.3613C30.3949 18.2407 30.2871 18.0941 30.2117 17.9306C30.1363 17.7671 30.0949 17.5899 30.09 17.4099C30.09 16.3499 30.09 15.2899 30.09 14.2399C30.0963 14.0599 30.1386 13.8831 30.2144 13.7197C30.2901 13.5563 30.3978 13.4097 30.531 13.2886C30.6643 13.1674 30.8204 13.0742 30.9903 13.0143C31.1601 12.9544 31.3402 12.9291 31.52 12.9399C31.8737 12.9604 32.2059 13.1162 32.4479 13.375C32.6899 13.6337 32.8231 13.9756 32.82 14.3299C32.83 14.8299 32.82 15.3399 32.82 15.8399Z" fill="#00005C" stroke="#00005C" stroke-width="1.7" stroke-miterlimit="10"/>
<path d="M37.16 22.4101C32.72 22.4101 28.27 22.4101 23.82 22.4101H10.3C10.0872 22.3845 9.87135 22.4085 9.66936 22.4801C9.46737 22.5518 9.28468 22.6691 9.13557 22.8231C8.98646 22.977 8.87497 23.1634 8.80981 23.3676C8.74465 23.5717 8.72759 23.7882 8.75996 24.0001C8.79483 25.6286 9.08503 27.2415 9.61997 28.7801C10.7708 32.119 13.0628 34.9448 16.0923 36.7598C19.1219 38.5748 22.6947 39.2627 26.1816 38.7022C29.6685 38.1418 32.8459 36.369 35.1541 33.696C37.4623 31.0231 38.7534 27.6214 38.8 24.0901C38.8244 23.867 38.7991 23.6412 38.7259 23.429C38.6527 23.2168 38.5335 23.0234 38.3767 22.8628C38.2199 22.7022 38.0295 22.5783 37.8191 22.5C37.6087 22.4217 37.3836 22.391 37.16 22.4101ZM16.06 33.3101C18.2365 31.5415 20.9555 30.5761 23.76 30.5761C26.5644 30.5761 29.2834 31.5415 31.46 33.3101C29.2907 35.0947 26.5689 36.0704 23.76 36.0704C20.951 36.0704 18.2292 35.0947 16.06 33.3101ZM35.94 25.5701C35.6327 27.5173 34.8761 29.3662 33.73 30.9701C33.53 31.2601 33.42 31.3301 33.1 31.0801C30.4444 28.9651 27.1499 27.8134 23.755 27.8134C20.3601 27.8134 17.0655 28.9651 14.41 31.0801C14.17 31.2701 14.06 31.2801 13.87 31.0201C12.6921 29.3951 11.9175 27.5134 11.61 25.5301C11.56 25.2201 11.61 25.1001 11.98 25.1001C15.92 25.1001 19.86 25.1001 23.8 25.1001H35.53C35.87 25.1301 36 25.1901 35.94 25.5701Z" fill="#00005C" stroke="#00005C" stroke-width="1.7" stroke-miterlimit="10"/>
</g>
<defs>
<clipPath id="clip0">
<rect width="50.66" height="50.53" fill="white"/>
</clipPath>
</defs>
</svg>
