<svg id="Layer_1" data-name="Layer 1" xmlns="http://www.w3.org/2000/svg" viewBox="0 0 58.47 64.68"><defs><style>.cls-1{fill:#ff5670;}.cls-2,.cls-3,.cls-4{fill:none;stroke:#00005c;stroke-width:6px;}.cls-3{fill-rule:evenodd;}</style></defs><path class="cls-1" d="M0,13.21H23.24A28.22,28.22,0,0,1,51.47,41.44V64.68a0,0,0,0,1,0,0H28.22A28.22,28.22,0,0,1,0,36.46V13.21A0,0,0,0,1,0,13.21Z"/><path class="cls-2" d="M48.51,35.87V23.68H10.21V62h38.3V49.79a7,7,0,1,1,0-13.92ZM10.21,23.68a19.15,19.15,0,0,1,38.3,0" transform="translate(0 -0.32)"/><path class="cls-3" d="M55.47,42.83a7,7,0,1,1-2-4.92A6.94,6.94,0,0,1,55.47,42.83Z" transform="translate(0 -0.32)"/><path class="cls-4" d="M8.56,2.36l6.87,7.4" transform="translate(0 -0.32)"/><path class="cls-4" d="M50.16,2.36l-6.88,7.4" transform="translate(0 -0.32)"/></svg>