<svg id="Layer_1" data-name="Layer 1" xmlns="http://www.w3.org/2000/svg" viewBox="0 0 68.78 62.67"><defs><style>.cls-1{fill:#fdb400;}.cls-2{fill:#00005c;stroke:#00005c;stroke-miterlimit:10;stroke-width:1.5px;}</style></defs><path class="cls-1" d="M26.25,38.66H52.49A26.25,26.25,0,1,1,0,38.66v-.34Z" transform="translate(0 -2.24)"/><path class="cls-2" d="M46.56,62a23.44,23.44,0,0,0,3.88-.18,10.87,10.87,0,0,0,8.41-10.72.74.74,0,0,1,.67-.86,10.89,10.89,0,0,0,6.95-4.92A9.31,9.31,0,0,0,68,40.73V38.2c-.13-.5-.07-1-.21-1.52A11.58,11.58,0,0,0,66.1,33a.67.67,0,0,1,0-.88A10.18,10.18,0,0,0,68,27V24.5a16.39,16.39,0,0,0-.28-2,11.1,11.1,0,0,0-8.28-7.71c-.47-.11-.64-.32-.62-.78A9.29,9.29,0,0,0,58.42,11a11,11,0,0,0-13-7.78,10.61,10.61,0,0,0-6.53,4.11c-.38.5-.39.5-.75,0A10.69,10.69,0,0,0,35.8,5a11,11,0,0,0-6.94-2,10.47,10.47,0,0,0-7.55,3.4,10.67,10.67,0,0,0-3,7.66.64.64,0,0,1-.59.75,10.94,10.94,0,0,0-8.62,9.72,12,12,0,0,0,.33,4.22,12.16,12.16,0,0,0,1.26,2.77c.75,1.2.79.83,0,2-.13.21-.25.43-.37.65a10.86,10.86,0,0,0-1.26,6A10.43,10.43,0,0,0,12.5,47.6a10.55,10.55,0,0,0,5.25,2.72.54.54,0,0,1,.51.63,8.16,8.16,0,0,0,.12,1.78,11,11,0,0,0,4.5,7.35A10,10,0,0,0,28,62H30.5c.54-.13,1.09-.06,1.63-.21a11.07,11.07,0,0,0,6.11-4.14c.25-.33.39-.34.63,0a10,10,0,0,0,2.49,2.44A10.18,10.18,0,0,0,46.5,62h.35m-10-29.48q0,9.24,0,18.47a7.49,7.49,0,1,1-15-.37c0-.34.14-.44.46-.51a10.73,10.73,0,0,0,5.18-2.71,1.75,1.75,0,1,0-2.33-2.56A7.47,7.47,0,0,1,14.82,34.1C16,33,16,32.14,14.83,31A7.47,7.47,0,0,1,25.08,20.15a2.27,2.27,0,0,0,1.12.67A1.73,1.73,0,0,0,28.05,20a1.75,1.75,0,0,0-.36-2.11A10.63,10.63,0,0,0,22.41,15c-.45-.09-.54-.28-.55-.68a7.49,7.49,0,0,1,14.81-1.84,8.71,8.71,0,0,1,.16,1.83Zm3.45,14.92c.06-2.07-.16-32.57.12-34.63a7.44,7.44,0,0,1,7.37-6.3,7.52,7.52,0,0,1,7.39,6.31,8,8,0,0,1-.13,3,1.74,1.74,0,0,0,1.89,2.35A7.42,7.42,0,0,1,64.38,24a7.2,7.2,0,0,1-2.09,7c-1.12,1.13-1.14,2,0,3.08A7.47,7.47,0,0,1,57,46.93,1.89,1.89,0,0,0,55,48.34a2.33,2.33,0,0,0,.09,1,7.48,7.48,0,1,1-14.58,3.35,9.79,9.79,0,0,1-.18-2.23c0-1.42,0-2.84,0-4.26m0-15.85q0-3.57,0-7.13m0,18.68c0-2.39,0-4.79,0-7.19M54.1,44" transform="translate(0 -2.24)"/></svg>