<svg width="68" height="52" viewBox="0 0 68 52" fill="none" xmlns="http://www.w3.org/2000/svg">
<g clip-path="url(#clip0)">
<path d="M67.06 51.7702H23.54V8.24023" fill="#FF5670"/>
<path d="M9.24003 5.43018C8.80625 6.28197 8.58013 7.22429 8.58013 8.18018C8.58013 9.13606 8.80625 10.0784 9.24003 10.9302H0.67003C0.497585 10.9224 0.334778 10.8485 0.215546 10.7236C0.0963131 10.5988 0.0298565 10.4328 0.0300296 10.2602V6.10018C0.0300296 5.92248 0.100619 5.75206 0.226268 5.62641C0.351918 5.50076 0.522335 5.43018 0.70003 5.43018H9.24003Z" fill="#00005C"/>
<path d="M56.87 6.10018V10.2602C56.87 10.4379 56.7994 10.6083 56.6738 10.7339C56.5481 10.8596 56.3777 10.9302 56.2 10.9302H20.27C20.7038 10.0784 20.9299 9.13606 20.9299 8.18018C20.9299 7.22429 20.7038 6.28197 20.27 5.43018H56.2C56.3777 5.43018 56.5481 5.50076 56.6738 5.62641C56.7994 5.75206 56.87 5.92248 56.87 6.10018Z" fill="#00005C"/>
<path d="M42.1 20.1099C41.4367 20.8724 41.0713 21.8491 41.0713 22.8599C41.0713 23.8706 41.4367 24.8473 42.1 25.6099H0.67003C0.497585 25.6021 0.334778 25.5281 0.215546 25.4033C0.0963131 25.2785 0.0298565 25.1125 0.0300296 24.9399V20.7799C0.0300296 20.6022 0.100619 20.4318 0.226268 20.3061C0.351918 20.1805 0.522335 20.1099 0.70003 20.1099H42.1Z" fill="#00005C"/>
<path d="M56.87 20.7799V24.9399C56.87 25.1176 56.7994 25.288 56.6738 25.4136C56.5481 25.5393 56.3777 25.6099 56.2 25.6099H48.39C49.0534 24.8473 49.4187 23.8706 49.4187 22.8599C49.4187 21.8491 49.0534 20.8724 48.39 20.1099H56.2C56.3777 20.1099 56.5481 20.1805 56.6738 20.3061C56.7994 20.4318 56.87 20.6022 56.87 20.7799Z" fill="#00005C"/>
<path d="M25.29 34.79C24.6267 35.5526 24.2613 36.5293 24.2613 37.54C24.2613 38.5508 24.6267 39.5275 25.29 40.29H0.67003C0.497585 40.2823 0.334778 40.2083 0.215546 40.0835C0.0963131 39.9587 0.0298565 39.7927 0.0300296 39.62V35.46C0.0300296 35.2823 0.100619 35.1119 0.226268 34.9863C0.351918 34.8606 0.522335 34.79 0.70003 34.79H25.29Z" fill="#00005C"/>
<path d="M56.8699 35.46V39.62C56.8699 39.7977 56.7994 39.9682 56.6737 40.0938C56.5481 40.2194 56.3776 40.29 56.1999 40.29H31.5699C32.2393 39.5303 32.6086 38.5526 32.6086 37.54C32.6086 36.5275 32.2393 35.5498 31.5699 34.79H56.1999C56.3776 34.79 56.5481 34.8606 56.6737 34.9863C56.7994 35.1119 56.8699 35.2823 56.8699 35.46Z" fill="#00005C"/>
<path d="M14.7601 16.3798C13.2376 16.3886 11.7437 15.9671 10.4504 15.1639C9.15711 14.3607 8.11704 13.2084 7.45006 11.8398C6.87203 10.7175 6.57357 9.47223 6.58006 8.20983C6.57651 6.93382 6.87824 5.67547 7.46006 4.53983C8.13646 3.181 9.17846 2.03776 10.4689 1.23862C11.7594 0.439478 13.2472 0.0161133 14.7651 0.0161133C16.2829 0.0161133 17.7707 0.439478 19.0612 1.23862C20.3517 2.03776 21.3937 3.181 22.0701 4.53983C22.6424 5.66382 22.9373 6.90852 22.9301 8.16983C22.9327 9.24535 22.7234 10.3109 22.3143 11.3055C21.9051 12.3002 21.3041 13.2045 20.5454 13.9669C19.7868 14.7293 18.8854 15.3347 17.8927 15.7488C16.9001 16.1628 15.8356 16.3772 14.7601 16.3798ZM14.7601 4.02983C13.9885 4.02858 13.2316 4.24092 12.5732 4.64334C11.9149 5.04576 11.3808 5.62255 11.0301 6.30983C10.7324 6.88812 10.5781 7.52945 10.5801 8.17983C10.579 8.81416 10.7335 9.43907 11.0301 9.99983C11.371 10.6988 11.9014 11.2879 12.5609 11.7C13.2204 12.1121 13.9824 12.3306 14.7601 12.3306C15.5377 12.3306 16.2997 12.1121 16.9592 11.7C17.6187 11.2879 18.1492 10.6988 18.4901 9.99983C18.7865 9.42468 18.9408 8.78687 18.9401 8.13983C18.9311 7.52587 18.7769 6.92276 18.4901 6.37983C18.1561 5.67167 17.6287 5.07241 16.9687 4.65127C16.3087 4.23013 15.543 4.00429 14.7601 3.99983V4.02983Z" fill="#00005C"/>
<path d="M52.94 20.1099C52.3737 18.5223 51.3302 17.1488 49.9525 16.1776C48.5749 15.2064 46.9306 14.6851 45.245 14.6851C43.5595 14.6851 41.9152 15.2064 40.5375 16.1776C39.1599 17.1488 38.1164 18.5223 37.55 20.1099C36.9102 21.8874 36.9102 23.8324 37.55 25.6099C38.1164 27.1975 39.1599 28.571 40.5375 29.5422C41.9152 30.5134 43.5595 31.0347 45.245 31.0347C46.9306 31.0347 48.5749 30.5134 49.9525 29.5422C51.3302 28.571 52.3737 27.1975 52.94 25.6099C53.5798 23.8324 53.5798 21.8874 52.94 20.1099ZM45.24 27.0399C44.2851 27.0394 43.3592 26.7121 42.6162 26.1122C41.8733 25.5124 41.3581 24.6762 41.1564 23.7429C40.9547 22.8095 41.0786 21.8352 41.5076 20.9821C41.9365 20.129 42.6447 19.4485 43.5142 19.0537C44.3837 18.659 45.3621 18.5739 46.2867 18.8125C47.2113 19.0512 48.0263 19.5992 48.5961 20.3654C49.166 21.1317 49.4563 22.0699 49.4188 23.024C49.3813 23.9782 49.0183 24.8908 48.39 25.6099C47.9983 26.0603 47.5143 26.4211 46.9707 26.6679C46.4272 26.9146 45.8369 27.0415 45.24 27.0399Z" fill="#00005C"/>
<path d="M36.13 34.7901C35.5636 33.2025 34.5201 31.829 33.1425 30.8578C31.7648 29.8866 30.1205 29.3652 28.435 29.3652C26.7494 29.3652 25.1051 29.8866 23.7275 30.8578C22.3499 31.829 21.3063 33.2025 20.74 34.7901C20.1002 36.5676 20.1002 38.5126 20.74 40.2901C21.3063 41.8776 22.3499 43.2512 23.7275 44.2224C25.1051 45.1936 26.7494 45.7149 28.435 45.7149C30.1205 45.7149 31.7648 45.1936 33.1425 44.2224C34.5201 43.2512 35.5636 41.8776 36.13 40.2901C36.7698 38.5126 36.7698 36.5676 36.13 34.7901ZM28.43 41.7201C27.472 41.723 26.5419 41.3974 25.7948 40.7978C25.0477 40.1982 24.5286 39.3606 24.324 38.4247C24.1195 37.4888 24.2418 36.5111 24.6707 35.6544C25.0995 34.7978 25.809 34.114 26.6808 33.7169C27.5527 33.3199 28.5343 33.2336 29.462 33.4724C30.3898 33.7112 31.2077 34.2608 31.7794 35.0295C32.3511 35.7981 32.6422 36.7395 32.6041 37.6968C32.566 38.654 32.201 39.5693 31.57 40.2901C31.1794 40.7392 30.6969 41.0993 30.1552 41.346C29.6135 41.5927 29.0252 41.7202 28.43 41.7201Z" fill="#00005C"/>
</g>
<defs>
<clipPath id="clip0">
<rect width="67.06" height="51.77" fill="white"/>
</clipPath>
</defs>
</svg>
