<svg id="Layer_1" data-name="Layer 1" xmlns="http://www.w3.org/2000/svg" viewBox="0 0 73.61 58.42"><defs><style>.cls-1{fill:#fdb400;}.cls-2{fill:none;stroke:#00005c;stroke-width:6px;}</style></defs><polyline class="cls-1" points="73.61 57.62 22.9 57.62 22.9 6.91"/><path class="cls-2" d="M28.17,15.58A23.92,23.92,0,0,0,10.29,45.09m6.3,10.82a23.9,23.9,0,0,0,34.06-.49M56.4,45.33A23.9,23.9,0,0,0,40.65,16.14" transform="translate(-3.39 -7.38)"/><path class="cls-2" d="M54.19,44.3a6.18,6.18,0,1,1-4.36,1.81A6.11,6.11,0,0,1,54.19,44.3Zm-41.63,0A6.18,6.18,0,1,1,8.2,46.11,6.11,6.11,0,0,1,12.56,44.3ZM34.15,10.38a6.18,6.18,0,1,1-4.36,1.81A6.14,6.14,0,0,1,34.15,10.38Z" transform="translate(-3.39 -7.38)"/></svg>