<svg width="41" height="58" viewBox="0 0 41 58" fill="none" xmlns="http://www.w3.org/2000/svg">
<g clip-path="url(#clip0)">
<path d="M17.21 15.1399L3.78998 28.5599C1.78703 30.5741 0.66272 33.2993 0.66272 36.1399C0.66272 38.9805 1.78703 41.7056 3.78998 43.7199L17.21 57.1399" fill="#FF5670"/>
<path d="M40.0401 34.68C39.6638 33.2854 39.0044 31.9832 38.1029 30.8546C37.2013 29.726 36.0771 28.7951 34.8001 28.12C32.3918 26.7906 29.82 25.782 27.1501 25.12C27.0707 25.1116 26.994 25.087 26.9246 25.0476C26.8552 25.0083 26.7947 24.955 26.7468 24.8912C26.6989 24.8274 26.6648 24.7544 26.6464 24.6767C26.628 24.5991 26.6259 24.5185 26.6401 24.44C26.6401 20.78 26.6401 17.12 26.6401 13.44C26.6401 12.21 26.6401 12.23 27.8701 12.53C30.0705 13.0865 32.1421 14.0646 33.9701 15.41C34.2833 15.6313 34.637 15.7887 35.011 15.8733C35.3851 15.9579 35.7721 15.968 36.1501 15.903C36.528 15.838 36.8894 15.6992 37.2137 15.4945C37.538 15.2898 37.8188 15.0232 38.0401 14.71C38.492 14.1012 38.6837 13.3379 38.5731 12.5879C38.4625 11.8378 38.0585 11.1624 37.4501 10.71C34.4823 8.29351 30.8539 6.8296 27.0401 6.51C26.6701 6.51 26.5901 6.36 26.5901 6.01C26.5901 4.71 26.5901 3.4 26.5901 2.1C26.5865 1.68878 26.461 1.28786 26.2296 0.947901C25.9983 0.60794 25.6713 0.344197 25.2901 0.19C25.1601 0.13 24.9801 0.19 24.9101 0H23.9101C22.4001 0.58 22.0401 1.14 22.0401 2.78C22.0401 3.78 22.0401 4.78 22.0401 5.78C22.0401 6.22 21.9201 6.33 21.4901 6.37C18.1679 6.59056 14.9973 7.84203 12.4201 9.95C10.7273 11.3655 9.4868 13.2463 8.85225 15.3597C8.2177 17.4731 8.21694 19.7262 8.85006 21.84C9.25097 23.1341 9.91065 24.3332 10.7891 25.3646C11.6675 26.396 12.7463 27.2382 13.9601 27.84C16.3484 29.0781 18.8811 30.0153 21.5001 30.63C21.5833 30.6384 21.6639 30.6638 21.7369 30.7047C21.8099 30.7456 21.8737 30.8011 21.9244 30.8676C21.975 30.9342 22.0114 31.0105 22.0313 31.0918C22.0512 31.1731 22.0542 31.2575 22.0401 31.34C22.0401 35.77 22.0401 40.2 22.0401 44.62C22.0401 45.2 21.8401 45.2 21.4001 45.13C18.2779 44.5937 15.3409 43.28 12.8601 41.31C12.6299 41.1189 12.3859 40.9451 12.1301 40.79C11.5193 40.4223 10.7914 40.3013 10.0945 40.4518C9.39772 40.6023 8.78455 41.013 8.38006 41.6C7.94098 42.1688 7.72066 42.8764 7.7592 43.594C7.79774 44.3116 8.09257 44.9914 8.59006 45.51C10.5009 47.2303 12.7107 48.586 15.1101 49.51C17.1354 50.3052 19.2768 50.7645 21.4501 50.87C21.9401 50.87 22.1001 51.05 22.0801 51.55C22.0801 52.61 22.0801 53.67 22.0801 54.73C22.0677 55.1595 22.1713 55.5844 22.3801 55.96C22.6204 56.3956 22.9972 56.7402 23.4525 56.9407C23.9078 57.1413 24.4164 57.1867 24.9001 57.07C25.4041 56.9594 25.8526 56.6736 26.1657 56.2635C26.4788 55.8533 26.6363 55.3454 26.6101 54.83C26.6101 53.68 26.6101 52.52 26.6101 51.37C26.6101 50.98 26.7201 50.88 27.0901 50.85C29.3711 50.6828 31.6018 50.0963 33.6701 49.12C39.4901 46.28 41.3401 40.07 40.0401 34.68ZM22.0401 23.82C20.5825 23.4557 19.1703 22.929 17.8301 22.25C17.1563 21.9212 16.5493 21.4702 16.0401 20.92C15.4025 20.1012 15.0456 19.0989 15.0222 18.0615C14.9988 17.0241 15.3101 16.0067 15.9101 15.16C16.5219 14.3158 17.3065 13.6116 18.2118 13.0943C19.117 12.577 20.1221 12.2585 21.1601 12.16L22.0401 12.07V23.82ZM32.5401 42.4C31.1146 44.0708 29.0883 45.1127 26.9001 45.3C26.6701 45.3 26.6001 45.3 26.6101 45.04C26.6101 44.57 26.6101 44.11 26.6101 43.64V32.23C28.4766 32.6509 30.2429 33.4322 31.8101 34.53C32.3776 34.9966 32.8472 35.571 33.1918 36.2199C33.5365 36.8688 33.7493 37.5795 33.8181 38.311C33.8869 39.0425 33.8102 39.7804 33.5926 40.4822C33.375 41.184 33.0207 41.8357 32.5501 42.4H32.5401Z" fill="#00005C"/>
</g>
<defs>
<clipPath id="clip0">
<rect width="39.76" height="57.14" fill="white" transform="translate(0.660034)"/>
</clipPath>
</defs>
</svg>
