<svg id="Layer_1" data-name="Layer 1" xmlns="http://www.w3.org/2000/svg" viewBox="0 0 77.09 55.58"><defs><style>.cls-1{fill:#3c50e0;}.cls-2{fill:none;stroke:#00005c;stroke-width:6px;}</style></defs><path class="cls-1" d="M0,16.16H0A39.43,39.43,0,0,1,39.43,55.58v0a0,0,0,0,1,0,0H0a0,0,0,0,1,0,0V16.16A0,0,0,0,1,0,16.16Z"/><path class="cls-2" d="M10.74,59.5H74.09v1.26H10.74Zm0-37.51V12.42H74.09v38H10.74V31.7" transform="translate(0 -9.42)"/><path class="cls-2" d="M10.74,21.29a5.07,5.07,0,1,1,0,10.13,5.05,5.05,0,0,1-5.07-5.07,5.05,5.05,0,0,1,5.07-5.06Zm19.2,0a5.07,5.07,0,1,1-3.58,1.48,5,5,0,0,1,3.58-1.48Zm19.25,0a5.09,5.09,0,0,1,3.62,1.48,5,5,0,0,1,0,7.16,5.14,5.14,0,0,1-7.24,0,5,5,0,0,1,0-7.16,5.13,5.13,0,0,1,3.62-1.48Z" transform="translate(0 -9.42)"/></svg>