<svg width="742" height="408" viewBox="0 0 742 408" fill="none" xmlns="http://www.w3.org/2000/svg">
<path d="M640.78 375.495C640.78 375.495 766.403 184.033 633.033 131.669C599.438 118.478 587.719 -66.1839 438.497 26.1472C379.154 62.8659 293.705 18.4314 211.874 42.7181C136.723 65.0225 134.996 129.362 144.497 152.525C154.88 177.834 113.477 208.093 71.0739 228.874C4.5608 261.473 53.471 376.038 116.307 376.586C179.142 377.134 640.78 375.495 640.78 375.495Z" fill="#CBD6FF"/>
<path d="M494.726 166.929L484.291 166.691C487.644 171.011 488.397 174.991 486.31 178.358C484.223 181.793 479.228 184.616 471.77 186.759C480.805 162.689 482.686 136.529 477.188 111.419C471.69 86.3087 459.046 63.314 440.773 45.1937C421.764 26.3468 397.573 13.5543 371.268 8.4375C344.962 3.32074 317.725 6.11017 293.011 16.4522C291.026 17.3025 289.042 18.1868 287.126 19.1051L287.108 19.1139C281.312 17.3556 275.667 15.9144 270.22 14.8169C242.724 9.26934 223.211 13.1033 215.285 25.6129C207.742 37.5101 211.848 55.4192 226.816 76.3065L226.81 76.3164C224.791 80.024 222.978 83.8335 221.302 87.779C220.036 90.7383 218.907 93.6974 217.88 96.7247C189.758 98.3913 174.705 103.312 169.231 112.224C162.867 122.598 171.557 136.521 199.372 150.058C203.203 151.929 207.309 153.766 211.62 155.603C213.062 168.16 216.323 180.442 221.302 192.066C228.063 208.006 237.871 222.482 250.177 234.685C275.477 259.849 309.747 273.981 345.475 273.981C381.203 273.981 415.473 259.849 440.773 234.685C452.749 222.805 462.361 208.771 469.101 193.324C482.82 190.501 491.852 186.079 495.444 180.229C497.942 176.181 497.634 171.691 494.726 166.929ZM462.532 188.868C453.398 190.501 442.005 191.453 428.696 191.589C408.045 191.84 384.328 190.218 359.334 186.943C361.437 182.392 363.495 177.721 365.51 172.93C372.866 175.407 380.367 177.435 387.971 179.002C396.195 180.661 403.7 181.481 410.399 181.481C426.101 181.481 437.351 176.974 442.906 168.206C443.821 166.762 444.571 165.222 445.142 163.612H437.137C437.005 163.854 436.864 164.094 436.716 164.327C432.589 170.84 423.367 174.205 410.417 174.202C404.224 174.202 397.173 173.433 389.424 171.869C382.27 170.396 375.211 168.497 368.284 166.184C370.211 161.39 372.082 156.51 373.895 151.544C378.774 138.169 382.951 124.91 386.33 112.178C401.729 114.435 418.256 115.568 435.819 115.568C446.754 115.568 458.081 115.129 469.802 114.251C471.55 122.697 472.427 131.299 472.419 139.922C472.455 156.735 469.093 173.382 462.532 188.868ZM295.77 255.289C291.877 253.886 289.901 248.331 288.929 243.918C287.392 236.944 287.114 227.148 288.125 215.59C288.637 209.745 289.459 203.529 290.565 197.028C306.649 201.301 322.405 206.722 337.71 213.248C334.244 219.189 330.74 224.699 327.235 229.693C320.559 239.208 314.03 246.549 308.354 250.922C304.762 253.689 299.664 256.693 295.77 255.289ZM341.235 207.028C325.214 200.156 308.706 194.473 291.847 190.024C292.436 187.006 293.082 183.938 293.785 180.82C298.435 181.871 303.149 182.887 307.927 183.868C321.902 186.71 335.843 189.122 349.489 191.074C346.787 196.634 344.035 201.952 341.235 207.028ZM311.006 178.834C305.607 177.729 300.29 176.577 295.056 175.377C297.518 165.192 300.542 154.575 304.073 143.756C322.426 154.972 341.091 164.097 358.764 170.572C356.547 175.834 354.273 180.954 351.943 185.932C338.52 184.017 324.786 181.643 311.006 178.834ZM266.181 41.356C267.659 44.3455 269.316 47.2438 271.142 50.0352C280.421 64.2911 292.675 74.6251 301.321 80.7839C306.401 84.3909 311.704 87.6737 317.2 90.6128C312.074 101.717 307.192 113.568 302.703 125.873C301.867 128.168 301.051 130.458 300.257 132.743C273.445 115.392 250.745 95.4816 235.853 76.2131L235.847 76.2051C239.582 69.8747 243.862 63.8801 248.637 58.2891C250.622 55.9762 252.674 53.7312 254.83 51.5543C255.138 51.2483 255.411 50.9761 255.719 50.67C259.033 47.3769 262.526 44.2676 266.181 41.356ZM380.828 22.1278C384.721 23.5316 386.697 29.0866 387.669 33.4995C389.206 40.4734 389.484 50.269 388.473 61.8271C387.366 74.4784 384.818 88.8479 381.025 104.148C376.445 103.365 371.975 102.476 367.616 101.483C352.564 98.0413 338.843 93.334 326.589 87.421C333.901 72.2611 341.633 58.7415 349.363 47.7247C356.039 38.2096 362.569 30.8687 368.245 26.4954C371.206 24.2135 375.192 21.771 378.682 21.771C379.413 21.7644 380.139 21.8852 380.828 22.1278ZM365.527 108.288C369.987 109.317 374.561 110.235 379.251 111.042C375.96 123.354 371.906 136.177 367.183 149.124C365.362 154.114 363.481 159.02 361.538 163.842C343.796 157.365 324.965 148.103 306.451 136.661C307.408 133.88 308.396 131.091 309.415 128.294C313.803 116.265 318.566 104.688 323.56 93.8457C336.143 99.9093 350.176 104.744 365.527 108.288ZM435.231 50.67C451.019 66.2999 462.373 85.8234 468.139 107.253C438.879 109.381 412.066 108.713 388.098 105.264C391.902 89.8136 394.462 75.2797 395.585 62.4421C396.825 48.2657 396.674 31.474 390.893 22.0246C392.233 22.5366 393.567 23.0714 394.895 23.6291C409.971 29.9474 423.671 39.1317 435.231 50.67ZM345.492 13.697C354.192 13.6889 362.869 14.5686 371.389 16.3222C361.417 20.6379 351.236 32.6496 343.507 43.6637C335.598 54.9363 327.699 68.7323 320.24 84.1754C315.314 81.5241 310.55 78.5823 305.975 75.3656C291.14 64.9016 282.253 53.9447 277.409 46.5957C275.371 43.5296 273.562 40.3172 272 36.9846C277.213 33.2966 282.697 30.0064 288.407 27.1422L288.412 27.1439C290.743 25.9741 293.117 24.8771 295.533 23.8529C295.707 23.7789 295.88 23.7025 296.055 23.6291C296.095 23.6112 296.137 23.5955 296.177 23.5779C296.692 23.3617 297.208 23.1515 297.726 22.9433C297.865 22.8888 298.006 22.833 298.142 22.7787C313.196 16.75 329.271 13.6667 345.492 13.697ZM221.475 29.4916C225.602 22.9781 234.825 19.6168 247.774 19.6168C253.968 19.6168 261.018 20.3853 268.767 21.9493C271.709 22.5414 274.71 23.2383 277.77 24.0398L277.778 24.0419C267.685 29.8506 258.404 36.9626 250.177 45.1937C248.432 46.8944 246.756 48.6632 245.113 50.4999C243.061 52.7449 241.111 55.0918 239.229 57.4728C236.235 61.2777 233.449 65.2403 230.881 69.3436L230.875 69.3539C219.432 52.4623 215.992 38.1394 221.475 29.4916ZM228.486 90.8063C229.615 88.2213 230.778 85.6703 232.044 83.1872L232.048 83.181C247.728 102.666 270.839 122.585 297.843 139.861C294.014 151.447 290.747 162.834 288.111 173.746C268.465 169.02 250.258 163.673 234.302 157.95C230.95 156.759 227.7 155.535 224.586 154.31C222.739 153.596 220.925 152.847 219.146 152.099C218.873 149.378 218.667 146.623 218.599 143.868C218.565 142.541 218.53 141.249 218.53 139.922C218.53 138.392 218.565 136.827 218.599 135.296C219.03 123.931 220.986 112.674 224.415 101.827C224.997 99.9902 225.612 98.1873 226.297 96.3847C226.981 94.5137 227.7 92.6431 228.486 90.8063ZM205.598 146.045C181.342 134.276 170.257 122.915 175.218 114.854C179.221 108.323 193.795 103.902 216.102 102.269C213.369 111.486 211.671 120.977 211.038 130.568C210.833 133.425 210.73 136.283 210.696 139.174V139.922C210.696 142.813 210.799 145.705 210.97 148.562C209.122 147.745 207.343 146.895 205.598 146.045ZM224.005 160.501C227.289 161.725 230.642 162.949 234.097 164.14C249.981 169.612 267.787 174.698 286.834 179.211C286.142 182.279 285.504 185.302 284.918 188.279C283.362 187.904 281.804 187.539 280.246 187.183C253.914 181.225 234.154 180.013 224.995 179.807C222.726 173.02 221.055 166.047 220.002 158.97C221.336 159.48 222.67 159.99 224.005 160.501ZM228.486 189.038C228.196 188.353 227.913 187.666 227.636 186.977C238.775 187.428 257.287 189.249 278.929 194.165C280.495 194.521 282.06 194.89 283.625 195.271C282.434 202.176 281.555 208.774 281.013 214.975C279.985 226.724 279.912 240.271 283.208 249.944C258.739 236.211 239.502 214.8 228.486 189.038ZM394.895 256.215C366.997 267.895 335.851 269.322 306.998 260.242C316.389 255.348 325.824 244.109 333.091 233.754C336.839 228.412 340.584 222.501 344.281 216.121C365.745 225.803 386.202 237.569 405.355 251.249C401.958 253.054 398.471 254.71 394.895 256.215ZM435.231 229.175C428.273 236.119 420.524 242.226 412.141 247.37C392.021 232.734 370.458 220.182 347.786 209.908C350.882 204.269 353.932 198.313 356.911 192.095C377.52 194.811 397.333 196.44 415.422 196.861C420.143 196.997 424.728 196.997 429.175 196.963C440.705 196.827 450.968 196.147 459.761 194.923C453.577 207.637 445.284 219.218 435.231 229.175Z" fill="#0231C8"/>
<path d="M348.139 275.492C348.139 275.492 353.51 204.823 312.364 228.233C271.218 251.642 253.342 316.81 235.466 278.345L221.89 249.132C217.265 239.182 204.845 237.132 197.898 245.337C195.094 248.648 192.758 253.614 191.565 260.99C186.986 289.315 173.067 365.078 147.117 338.059C121.168 311.039 46.1143 324.434 40.0342 371.547H351.483L348.139 275.492Z" fill="#BBC8F8"/>
<path d="M687.243 373.137C687.243 373.137 731.662 346.44 724.078 319.624C716.494 292.809 678.575 316.893 687.243 293.971C695.91 271.049 726.195 255.403 717.552 228.235L708.911 201.066C708.911 201.066 641.74 152.777 619.53 338.059V372.682L687.243 373.137Z" fill="#CFD7F4"/>
<path d="M636.18 373.137H228.146L340.034 122.246C340.579 121.025 341.466 119.988 342.588 119.26C343.71 118.532 345.019 118.145 346.357 118.145H731.194C732.356 118.145 733.504 118.383 734.57 118.844C735.636 119.304 736.595 119.979 737.39 120.825L737.492 120.933C739.735 123.32 741.222 126.316 741.768 129.545C742.313 132.773 741.893 136.091 740.559 139.082L636.18 373.137Z" fill="#364154"/>
<path d="M621.156 373.137H228.146L340.11 122.077C340.632 120.906 341.482 119.912 342.558 119.214C343.634 118.516 344.889 118.145 346.171 118.145H729.949C730.482 118.145 731.006 118.278 731.474 118.532C731.943 118.786 732.34 119.153 732.63 119.6C732.92 120.046 733.094 120.558 733.136 121.089C733.177 121.62 733.085 122.152 732.869 122.639L621.156 373.137Z" fill="#657285"/>
<path d="M614.41 367.017H240.269L341.98 141.001C342.477 139.887 343.286 138.94 344.31 138.276C345.334 137.611 346.529 137.258 347.75 137.258H713.104C713.611 137.258 714.11 137.385 714.556 137.627C715.001 137.868 715.38 138.218 715.656 138.643C715.932 139.068 716.098 139.555 716.137 140.061C716.177 140.566 716.089 141.073 715.883 141.536L614.41 367.017Z" fill="#D5D6DA"/>
<path d="M635.794 373.138H160.372C158.569 373.138 156.784 372.783 155.118 372.093C153.452 371.404 151.938 370.393 150.663 369.119C149.388 367.845 148.377 366.333 147.687 364.668C146.997 363.004 146.642 361.22 146.642 359.418V355.346H635.794V373.138Z" fill="#364154"/>
<path d="M470.156 355.346V360.907C470.156 364.151 471.446 367.262 473.741 369.555C476.037 371.849 479.15 373.138 482.396 373.138H635.794V355.346H470.156Z" fill="#364154"/>
<path d="M487.04 125.832H560.484C561.006 125.832 561.506 126.039 561.875 126.408C562.244 126.776 562.451 127.276 562.451 127.797V127.837C562.451 128.358 562.244 128.858 561.875 129.226C561.506 129.595 561.006 129.802 560.484 129.802H487.04C486.518 129.802 486.018 129.595 485.649 129.226C485.28 128.858 485.073 128.358 485.073 127.837V127.797C485.073 127.539 485.124 127.283 485.223 127.045C485.322 126.807 485.467 126.59 485.649 126.408C485.832 126.225 486.049 126.08 486.287 125.982C486.526 125.883 486.781 125.832 487.04 125.832Z" fill="#364154"/>
<path d="M214.381 360.689C214.381 360.689 213.599 372.528 215.958 372.7C216.272 372.723 227.925 372.723 227.925 372.723L242.801 372.638C242.801 372.638 242.704 369.119 238.355 368.376C234.007 367.632 226.368 364.904 225.076 358.83C223.783 352.755 214.381 360.689 214.381 360.689Z" fill="#131F2D"/>
<path d="M242.706 360.689C242.706 360.689 241.924 372.528 244.284 372.7C244.597 372.723 256.251 372.723 256.251 372.723L271.126 372.638C271.126 372.638 271.029 369.119 266.681 368.376C262.332 367.632 254.693 364.904 253.401 358.83C252.108 352.755 242.706 360.689 242.706 360.689Z" fill="#131F2D"/>
<path d="M180.563 274.886L167.526 278.995C167.526 278.995 159.231 263.56 157.211 261.463C154.906 259.072 153.249 240.671 152.206 224.026C151.295 209.47 150.852 196.257 150.852 196.257C150.852 196.257 155.288 197.179 158.186 204.027C163.152 215.766 163.115 238.687 165.878 250.506C167.468 257.31 177.878 273.92 180.563 274.886Z" fill="#364154"/>
<path d="M167.526 278.995C162.556 273.71 159.231 263.56 157.211 261.463C154.906 259.072 144 245.483 154.19 224.116C159.185 237.63 155.017 244.994 156.587 252.971C158.146 260.883 167.072 273.71 167.526 278.995Z" fill="#131F2D"/>
<path d="M129.887 367.474C129.887 367.474 128.668 368.463 125.78 368.463C122.507 368.463 121.673 367.474 121.673 367.474V325.462H129.887V367.474Z" fill="#364154"/>
<path d="M175.083 308.392C175.078 308.421 175.075 308.455 175.069 308.487C174.804 310.248 174.41 311.988 173.89 313.691C173.128 316.292 172.011 318.775 170.571 321.071C166.122 327.929 157.686 335.561 137.456 338.053C136.476 338.171 135.465 338.284 134.427 338.379C132.54 338.556 130.555 338.687 128.472 338.774C128.339 338.78 128.207 338.785 128.074 338.787C127.942 338.795 127.809 338.798 127.674 338.801C121.79 338.666 115.206 337.681 107.861 336.088C92.7893 332.82 82.9696 326.09 76.7604 317.905C76.7604 317.905 76.7575 317.905 76.7575 317.902C76.2303 317.207 75.728 316.502 75.2506 315.788C74.0314 313.956 72.9516 312.035 72.0206 310.041C68.5714 302.677 67.252 294.739 67.1279 287.379C67.2202 281.364 68.1008 275.387 69.7472 269.601C70.758 266.095 72.3801 262.795 74.5388 259.851C76.9867 256.536 80.155 253.819 83.8052 251.903C91.0058 248.153 114.688 244.416 134.747 254.092C171.672 271.898 177.23 293.897 175.083 308.392Z" fill="#657285"/>
<path d="M168.877 323.444C162.988 329.709 157.686 336.127 137.456 338.184C136.476 338.282 135.465 338.374 134.427 338.45C132.54 338.598 130.555 338.707 128.472 338.777C128.339 338.782 128.207 338.787 128.074 338.787C127.942 338.795 127.809 338.798 127.673 338.801C121.79 338.666 115.206 337.681 107.861 336.088C92.7892 332.82 82.9694 326.09 76.7603 317.905C76.7603 317.905 76.7574 317.905 76.7574 317.902C76.2301 317.207 75.7278 316.502 75.2505 315.788C86.6864 313.294 111.112 308.922 135.378 310.707C148.543 311.677 162.198 312.748 173.89 313.691C174.285 313.723 170.818 321.379 168.877 323.444Z" fill="#364154"/>
<path d="M99.6133 213.592C99.8021 212.883 100.003 212.185 100.216 211.499C103.108 202.152 107.819 195.375 115.222 194.266C116.151 196.578 125.214 200.419 133.144 200.043C134.019 200.002 135.311 198.915 135.326 198.912C141.59 198.104 144.569 195.036 144.275 194.622C144.539 194.641 150.85 196.257 150.85 196.257C156.329 218.156 156.985 230.325 150.392 261.554C147.985 272.96 151.666 279.157 150.85 279.905C149.424 281.211 133.642 281.587 120.952 282.036C119.43 282.088 117.925 282.137 116.463 282.181C107.187 282.458 99.5475 282.556 99.5475 282.556C98.9182 281.839 97.7581 275.22 96.967 265.901C95.6991 251.021 95.3666 229.253 99.6133 213.592Z" fill="#364154"/>
<path d="M119.58 195.318L127.123 201.03L138.611 199.408C138.503 198.397 137.93 194.014 137.439 190.275C137.034 187.22 136.683 184.599 136.683 184.599L122.96 179.58L122.546 179.429C122.553 179.492 122.556 179.555 122.559 179.618C122.598 180.12 122.621 180.61 122.633 181.092C122.867 189.664 119.58 195.318 119.58 195.318Z" fill="#FFAE98"/>
<path d="M151.249 313.273C189.651 315.793 201.607 315.339 202.955 317.026C211.433 327.644 212.289 329.477 229.485 350.754C232.767 354.813 236.641 359.58 241.279 365.25H259.234C259.234 365.25 239.864 331.466 224.376 308.578C218.264 299.543 212.755 292.207 209.281 289.314C197.278 279.316 149.463 279.549 149.463 279.549C149.463 279.549 107.946 278.631 104.679 284.252C103.97 285.474 122.335 311.372 151.249 313.273Z" fill="#0231C8"/>
<path d="M151.249 313.273C189.651 315.793 201.607 315.339 202.955 317.026C211.433 327.644 212.289 329.477 229.485 350.754L224.376 308.578C218.264 299.543 212.755 292.207 209.281 289.314C197.278 279.316 149.463 279.549 149.463 279.549C149.463 279.549 107.946 278.631 104.679 284.252C103.97 285.474 122.335 311.372 151.249 313.273Z" fill="#016EB9"/>
<path d="M129.191 200.178L136.747 199.445C136.883 199.476 137.011 199.534 137.123 199.616C137.236 199.698 137.331 199.802 137.402 199.921C137.474 200.04 137.52 200.173 137.539 200.311C137.558 200.448 137.549 200.588 137.512 200.723C137.33 201.81 134.839 204.756 133.9 204.903C132.961 205.051 127.143 202.179 129.191 200.178Z" fill="#0231C8"/>
<path d="M101.131 290.083C101.131 290.083 102.412 311.338 131.328 313.238C169.73 315.76 177.653 314.927 180.164 317.073C192.509 327.62 184.35 329.857 213.289 365.252H231.466C231.466 365.252 209.28 298.08 199.234 290.044C187.031 280.283 137.183 279.548 137.183 279.548C137.183 279.548 103.959 277.21 100.692 282.83C99.982 284.053 101.131 290.083 101.131 290.083Z" fill="#0231C8"/>
<path d="M137.457 338.054C137.457 338.159 133.475 338.681 131.3 338.77C130.421 338.807 129.528 338.82 128.614 338.812C128.537 338.815 128.459 338.815 128.381 338.812C128.148 338.807 127.911 338.805 127.675 338.799C121.791 338.665 115.208 337.68 107.863 336.086C88.1748 331.817 77.4504 321.641 72.0221 310.04C68.5729 302.676 67.2535 294.738 67.1294 287.377C67.2219 281.363 68.1024 275.386 69.7486 269.6C70.76 266.094 72.3821 262.794 74.5403 259.85C74.9669 259.271 75.4202 258.706 75.9002 258.157C76.0531 257.978 76.2116 257.801 76.3727 257.625C89.9382 270.593 130.931 311.82 137.457 338.054Z" fill="#364154"/>
<path d="M136.429 338.054C136.429 338.159 132.447 338.681 130.271 338.77C129.724 338.794 129.173 338.807 128.614 338.812C128.537 338.815 128.459 338.815 128.381 338.812C128.148 338.807 127.911 338.805 127.675 338.799C121.791 338.665 115.208 337.68 107.863 336.087C88.1748 331.817 77.4504 321.641 72.0221 310.04C68.5729 302.676 67.2535 294.738 67.1294 287.377C67.2219 281.363 68.1024 275.386 69.7486 269.6C70.76 266.094 72.3821 262.794 74.5403 259.85C74.9669 259.271 75.4202 258.706 75.9002 258.157C89.9929 271.686 129.989 312.168 136.429 338.054Z" fill="#657285"/>
<path d="M137.721 192.428C137.721 192.428 136.463 197.56 133.146 200.043L138.261 206.124C138.261 206.124 144.458 199.42 144.276 194.621C144.276 194.621 139.362 192.606 137.721 192.428Z" fill="#131F2D"/>
<path d="M137.721 192.428C137.721 192.428 136.763 197.259 133.446 199.742L138.361 205.272C138.361 205.272 143.755 199.541 144.277 194.621C144.277 194.621 139.362 192.606 137.721 192.428Z" fill="#364154"/>
<path d="M120.507 192.428C120.507 192.428 128.33 199.203 133.446 199.742L129.945 207.731C129.945 207.731 114.706 199.48 114.661 194.537C114.661 194.537 118.855 192.471 120.507 192.428Z" fill="#131F2D"/>
<path d="M121.065 192.156C121.065 192.156 128.33 199.203 133.446 199.742L130.611 207.105C130.611 207.105 115.265 199.209 115.22 194.265C115.22 194.265 119.413 192.2 121.065 192.156Z" fill="#364154"/>
<path d="M96.9671 265.901C97.7581 275.22 97.5453 280.091 100.692 282.83C100.692 282.83 107.061 285.022 116.463 282.181C119.672 280.683 122.178 278.62 123.419 275.798C129.614 261.737 117.825 250.049 117.226 240.735C116.626 231.421 107.286 224.618 107.286 224.618C107.286 224.618 95.6992 251.021 96.9671 265.901Z" fill="#131F2D"/>
<path d="M132.731 204.096C132.731 204.096 131.298 216.452 131.043 220.587C130.327 232.216 130.065 267.171 130.065 267.171C129.991 268.163 130.117 269.159 130.435 270.101C130.753 271.044 131.257 271.912 131.917 272.657C133.305 274.161 134.83 275.534 136.472 276.757C138.702 274.751 140.291 272.132 141.039 269.229C141.902 265.96 139.831 238.514 137.741 220.231C137.114 214.723 136.184 209.253 134.956 203.847C134.956 203.847 133.248 203.575 132.731 204.096Z" fill="#FFC261"/>
<path d="M79.2964 372.682H169.141C164.865 364.135 146.379 357.706 124.219 357.706C102.059 357.706 83.5731 364.135 79.2964 372.682Z" fill="#657285"/>
<path d="M125.518 267.764C125.518 267.764 131.612 269.225 133.61 270.229C135.608 271.234 139.616 276.05 138.717 276.804C134.205 280.584 133.51 276.393 127.965 275.023C126.958 274.774 122.321 270.046 122.321 270.046L125.518 267.764Z" fill="#FFAE98"/>
<path d="M130.471 279.421L139.621 250.505H191.902L182.462 280.593H182.283H130.101H113.83V279.421H130.471Z" fill="#657285"/>
<path d="M165.835 265.061C166.167 264.003 165.498 263.146 164.341 263.146C163.752 263.162 163.181 263.353 162.701 263.694C162.221 264.035 161.853 264.511 161.645 265.061C161.313 266.118 161.982 266.976 163.139 266.976C163.728 266.96 164.298 266.769 164.778 266.428C165.258 266.087 165.626 265.611 165.835 265.061Z" fill="white"/>
<path d="M115.22 194.266C115.22 194.266 104.838 195.809 99.6436 200.74C94.4487 205.671 85.6574 246.031 87.8552 251.693C90.0529 257.354 107.635 268.859 120.223 273.608C120.223 273.608 126.417 271.051 126.817 266.668C126.817 266.668 105.438 250.232 104.439 245.849C103.44 241.466 115.22 194.266 115.22 194.266Z" fill="#364154"/>
<path d="M122.559 179.618C122.598 180.12 122.621 180.61 122.634 181.092C125.289 183.708 131.532 189.286 137.439 190.275C137.034 187.22 136.684 184.599 136.684 184.599L122.96 179.58L122.559 179.618Z" fill="#EF6343"/>
<path d="M138.115 185.609C138.115 185.609 121.657 186.296 121.347 176.922C121.036 167.547 118.703 161.323 129.198 160.487C139.692 159.652 141.853 163.173 142.789 166.279C143.725 169.385 142.388 185.188 138.115 185.609Z" fill="#FFAE98"/>
<path d="M121.347 176.922C121.347 176.922 122.577 164.413 137.238 164.861C151.898 165.31 145.556 152.635 132.959 150.768C132.959 150.768 134.274 155.234 126.349 155.939C109.715 157.42 119.869 174.937 121.347 176.922Z" fill="#131F2D"/>
<path d="M390.314 317.439H286.417C285.504 317.439 284.606 317.211 283.803 316.775C283.001 316.34 282.32 315.711 281.823 314.946C281.326 314.181 281.028 313.303 280.957 312.394C280.886 311.484 281.043 310.571 281.415 309.738L347.167 162.369C347.598 161.403 348.3 160.583 349.187 160.007C350.075 159.431 351.111 159.125 352.169 159.125H456.066C456.979 159.125 457.878 159.353 458.68 159.788C459.482 160.224 460.163 160.853 460.66 161.618C461.157 162.383 461.455 163.26 461.526 164.17C461.598 165.079 461.44 165.992 461.068 166.825L395.317 314.195C394.886 315.16 394.184 315.981 393.296 316.557C392.408 317.132 391.373 317.439 390.314 317.439Z" fill="#EAEAEA"/>
<path d="M526.249 290.308H441.311C440.565 290.308 439.83 290.122 439.174 289.766C438.519 289.41 437.962 288.896 437.556 288.27C437.149 287.644 436.906 286.927 436.848 286.184C436.789 285.44 436.918 284.694 437.222 284.013L479.36 189.932C479.713 189.142 480.286 188.471 481.012 188.001C481.738 187.53 482.584 187.28 483.45 187.28H568.387C569.134 187.28 569.868 187.466 570.524 187.822C571.18 188.178 571.736 188.692 572.143 189.318C572.549 189.943 572.792 190.66 572.851 191.404C572.909 192.147 572.78 192.894 572.476 193.575L530.338 287.656C529.986 288.446 529.412 289.116 528.686 289.587C527.961 290.058 527.114 290.308 526.249 290.308Z" fill="#EAEAEA"/>
<path d="M633.957 290.909H549.019C548.273 290.909 547.538 290.722 546.882 290.366C546.227 290.011 545.67 289.496 545.264 288.871C544.857 288.245 544.614 287.528 544.556 286.785C544.497 286.041 544.626 285.295 544.93 284.614L587.068 190.532C587.421 189.743 587.994 189.072 588.72 188.601C589.446 188.131 590.292 187.88 591.158 187.88H676.095C676.841 187.88 677.576 188.067 678.232 188.423C678.888 188.779 679.444 189.293 679.851 189.918C680.257 190.544 680.5 191.261 680.559 192.005C680.617 192.748 680.488 193.494 680.184 194.176L638.046 288.257C637.694 289.046 637.12 289.717 636.394 290.188C635.669 290.658 634.822 290.909 633.957 290.909Z" fill="#EAEAEA"/>
<path d="M393.837 217.664C393.837 217.664 392.878 213.031 394.412 211.786C395.946 210.54 400.596 206.234 401.466 206.727C402.337 207.22 403.762 210.141 403.296 211.853C402.831 213.566 396.972 219.761 396.972 219.761L393.837 217.664Z" fill="#FFAE98"/>
<path d="M363.306 280.611C362.816 290.129 361.155 303.71 359.921 317.439H339.088C338.64 313.758 337.989 310.171 337.27 306.669C336.103 300.995 334.76 295.537 333.82 290.257C331.924 279.628 332.279 271.321 333.921 264.874C335.329 259.339 337.687 255.176 340.382 252.09C346.289 245.329 362.737 258.543 362.737 258.543C362.737 258.543 363.79 271.148 363.306 280.611Z" fill="#0231C8"/>
<path d="M353.843 283.636C353.843 283.636 353.839 283.704 353.829 283.835C353.68 285.788 352.369 301.778 348.252 317.439H339.089C338.64 313.758 337.989 310.171 337.271 306.669C338.832 297.488 340.316 290.197 340.316 290.197L353.843 283.636Z" fill="#016EB9"/>
<path d="M355.064 279.766C354.839 280.668 354.4 282.095 353.829 283.835C351.478 290.97 346.87 303.37 345.557 306.468C344.021 310.095 342.572 313.763 341.207 317.439H318.407C318.878 308.601 318.993 290.252 319.419 285.366C321.133 265.722 324.853 263.811 324.853 263.811L333.921 264.874L355.051 267.352C355.051 267.352 358.519 265.853 355.064 279.766Z" fill="#0231C8"/>
<path d="M358.879 173.461C359.899 165.138 357.298 151.819 340.672 153.947C324.045 156.075 318.806 172.402 322.159 179.661C325.512 186.921 317.332 188.671 314.764 196.478C312.558 203.184 311.789 211.511 308.219 215.248C296.709 227.296 319.269 245.823 332.869 241.916C357.641 234.8 360.832 233.738 359.952 214.29C359.502 204.326 351.743 200.465 356.669 197.582C368.569 190.617 356.571 192.295 358.879 173.461Z" fill="#131F2D"/>
<path d="M353.848 200.182L348.916 207.567L339.023 207.084L334.446 195.253C334.446 195.253 335.299 195.097 335.996 188.067C336.166 186.221 336.337 183.906 336.493 180.994C336.491 180.992 336.49 180.99 336.489 180.988C336.488 180.985 336.487 180.983 336.487 180.98C336.487 180.977 336.488 180.975 336.489 180.972C336.49 180.97 336.491 180.968 336.493 180.966C336.493 180.724 336.507 180.483 336.521 180.241L337.801 180.625L348.888 184.005C348.888 184.005 348.831 184.375 348.76 185.013C348.539 187.346 348.649 189.699 349.087 192.001C349.684 194.927 351.02 198.051 353.848 200.182Z" fill="#FFAE98"/>
<path d="M353.882 194.832C353.246 194.832 342.449 192.636 324.215 197.297C324.215 197.297 334.201 243.012 330.809 251.629C328.746 256.893 327.179 262.338 326.127 267.892L362.929 268.348C362.929 268.348 362.414 238.774 364.11 228.307C365.807 217.839 353.882 194.832 353.882 194.832Z" fill="#FFAE98"/>
<path d="M393.647 213.049C393.647 213.049 381.892 228.984 379.817 228.828C377.586 228.643 371.985 208.845 367.75 201.545C364.78 196.449 354.552 194.927 353.883 194.832L353.881 194.832V194.832L353.848 194.827L353.873 194.928C353.785 195.871 352.952 203.431 348.763 204.122C341.039 205.396 334.815 198.325 332.997 195.479C332.997 195.479 324.125 197.716 321.522 200.682C319.056 203.49 322.43 224.294 323.179 226.289C323.827 228.001 324.439 229.672 324.972 231.352C326.382 235.783 327.244 240.282 326.749 245.824C326.211 251.875 320.553 265.703 321.777 268.649C323.059 271.742 324.842 273.309 328.741 274.203C331.428 274.822 335.121 275.12 340.348 275.38C351.436 275.931 363.317 274.538 364.933 269.272C365.709 266.744 365.41 256.964 364.999 252.449C364.46 246.514 364.981 238.94 365.5 231.98L365.575 232.094C365.575 232.096 365.575 232.098 365.576 232.1C365.577 232.102 365.578 232.103 365.579 232.105C365.58 232.106 365.582 232.107 365.583 232.108C365.585 232.108 365.587 232.109 365.589 232.109C366.783 233.941 368.162 235.901 369.569 237.733C371.701 240.474 373.918 242.874 375.809 243.982C376.221 244.228 376.666 244.415 377.131 244.536C379.225 244.922 381.389 244.544 383.228 243.47C383.636 243.24 384.026 242.979 384.394 242.689C391.359 237.165 397.556 219.909 397.556 219.909C398.224 215.89 393.647 213.049 393.647 213.049Z" fill="#657285"/>
<path d="M321.776 268.649C323.059 271.742 324.841 273.309 328.741 274.203C333.953 273.202 337.39 263.619 339.16 258.903C341.2 253.468 332.806 227.98 329.873 228.235C327.693 228.423 325.612 231.447 325.541 233.266C326.951 237.697 327.244 240.282 326.749 245.824C326.211 251.875 320.552 265.703 321.776 268.649Z" fill="#364154"/>
<path d="M383.228 243.47C381.389 244.544 379.225 244.922 377.131 244.536C376.666 244.415 376.221 244.228 375.809 243.982C373.918 242.874 371.701 240.474 369.569 237.733C368.162 235.901 366.783 233.941 365.589 232.109C365.859 231.115 366.84 230.646 370.009 233.898C375.339 239.366 376.32 243.03 379.703 243.315C380.869 243.414 382.049 243.47 383.228 243.47Z" fill="#364154"/>
<path d="M349.087 192.001C345.576 192.967 337.005 181.676 336.493 180.994L336.465 180.966H336.493L337.801 180.625L348.888 184.005C348.888 184.005 348.831 184.375 348.76 185.013C348.54 187.346 348.65 189.699 349.087 192.001Z" fill="#EF6343"/>
<path d="M352.12 184.849C352.12 184.849 337.311 187.821 335.601 178.578C333.89 169.334 330.827 163.493 340.21 161.204C349.593 158.916 352.088 162.103 353.41 165.05C354.732 167.996 355.928 183.838 352.12 184.849Z" fill="#FFAE98"/>
<path d="M353.595 159.549C346.29 152.356 339.899 156.572 341.487 158.497C338.852 158.452 335.238 159.001 332.733 161.817C328.354 166.739 336.35 183.43 336.35 183.43C336.35 183.43 335.401 172.672 340.271 167.352C342.592 164.816 343.747 162.779 344.321 161.339C345.206 162.069 346.206 162.647 347.28 163.048C351.992 164.7 354.582 172.275 354.582 172.275C356.267 168.74 356.743 162.648 353.595 159.549Z" fill="#131F2D"/>
<path d="M336.213 253.93L339.513 255.519C340.973 255.948 341.544 256.344 342.421 256.246C344.538 256.01 348.811 256.142 351.765 260.267C351.765 260.267 353.26 262.715 351.138 262.968C349.017 263.22 349.771 262.84 346.793 263.257C343.815 263.673 340.815 260.864 339.882 259.849L336.425 258.584L336.213 253.93Z" fill="#FFAE98"/>
<path d="M332.996 195.479C332.996 195.479 324.242 195.825 320.183 199.599C315.593 203.867 307.363 229.75 307.363 246.005C307.363 246.005 307.198 254.958 338.373 260.99C338.373 260.99 339.867 259.753 340.428 258.559C340.995 257.448 341.332 256.235 341.419 254.991C341.419 254.991 323.139 244.631 322.481 241.37C321.604 237.018 334.118 220.069 332.996 195.479Z" fill="#657285"/>
<path d="M431.215 195.672C431.215 195.672 405.402 190.525 374.531 190.941L372.745 182.536L370.785 173.326C370.785 173.326 403.037 165.509 424.167 150.579L431.215 195.672Z" fill="#0231C8"/>
<path d="M431.216 195.672C431.752 195.616 432.271 195.451 432.741 195.186C433.21 194.92 433.62 194.562 433.945 194.131C434.27 193.701 434.502 193.209 434.628 192.685C434.755 192.161 434.771 191.617 434.678 191.086L427.724 152.584C427.387 150.718 426.033 150.127 424.167 150.579L431.216 195.672Z" fill="#FF8888"/>
<path d="M401.246 191.846C418.963 193.229 431.216 195.672 431.216 195.672C431.216 195.672 401.848 181.579 372.745 182.536L374.531 190.941C380.002 190.868 385.314 190.969 390.352 191.185C390.343 191.34 390.339 191.496 390.344 191.654L391.105 218.162C391.151 219.603 391.766 220.968 392.815 221.958C393.864 222.948 395.263 223.482 396.706 223.445C398.148 223.4 399.514 222.786 400.504 221.737C401.495 220.689 402.03 219.291 401.993 217.85L401.246 191.846Z" fill="#016EB9"/>
<path d="M383.035 190.966L374.684 191.03C374.807 191.056 366.898 191.256 365.558 183.983C365.41 183.476 365.333 182.952 365.33 182.424C364.837 173.557 369.748 172.772 369.748 172.772L380.88 170.438L382.173 182.841L382.164 182.883L383.035 190.966Z" fill="#364154"/>
<path d="M383.035 190.966L374.684 191.03C374.807 191.056 366.898 191.256 365.559 183.983C370.719 181.393 382.173 182.841 382.173 182.841L382.164 182.883L383.035 190.966Z" fill="#131F2D"/>
<path d="M386.573 325.709H278.503C276.51 325.709 274.894 327.324 274.894 329.316V329.388C274.894 331.38 276.51 332.995 278.503 332.995H386.573C388.566 332.995 390.182 331.38 390.182 329.388V329.316C390.182 327.324 388.566 325.709 386.573 325.709Z" fill="#0231C8"/>
<path d="M270.264 338.059H378.334C379.291 338.059 380.209 338.439 380.886 339.115C381.563 339.792 381.943 340.709 381.943 341.665V341.738C381.943 342.695 381.563 343.612 380.886 344.288C380.209 344.965 379.291 345.345 378.334 345.345H270.264C269.306 345.345 268.388 344.965 267.711 344.288C267.035 343.612 266.654 342.695 266.654 341.738V341.665C266.654 340.709 267.035 339.792 267.711 339.115C268.388 338.439 269.306 338.059 270.264 338.059Z" fill="#0231C8"/>
<path d="M435.592 299.988H520.119C520.593 299.988 521.062 300.082 521.5 300.263C521.938 300.444 522.336 300.71 522.671 301.045C523.007 301.38 523.272 301.777 523.454 302.215C523.635 302.652 523.729 303.121 523.729 303.595V303.668C523.729 304.141 523.635 304.61 523.454 305.048C523.272 305.485 523.007 305.883 522.671 306.218C522.336 306.553 521.938 306.819 521.5 307C521.062 307.181 520.593 307.274 520.119 307.274H435.592C434.635 307.274 433.716 306.894 433.04 306.218C432.363 305.542 431.982 304.624 431.982 303.668V303.595C431.982 302.638 432.363 301.721 433.04 301.045C433.716 300.368 434.635 299.988 435.592 299.988Z" fill="#0231C8"/>
<path d="M427.353 312.338H511.88C512.837 312.338 513.755 312.718 514.432 313.395C515.109 314.071 515.489 314.988 515.489 315.945V316.018C515.489 316.974 515.109 317.892 514.432 318.568C513.755 319.244 512.837 319.624 511.88 319.624H427.353C426.395 319.624 425.477 319.244 424.8 318.568C424.123 317.892 423.743 316.974 423.743 316.018V315.945C423.743 314.988 424.123 314.071 424.8 313.395C425.477 312.718 426.395 312.338 427.353 312.338Z" fill="#0231C8"/>
<path d="M541.534 299.988H626.061C627.019 299.988 627.937 300.368 628.614 301.045C629.291 301.721 629.671 302.638 629.671 303.595V303.668C629.671 304.624 629.291 305.542 628.614 306.218C627.937 306.894 627.019 307.274 626.061 307.274H541.534C540.577 307.274 539.659 306.894 538.982 306.218C538.305 305.542 537.925 304.624 537.925 303.668V303.595C537.925 302.638 538.305 301.721 538.982 301.045C539.659 300.368 540.577 299.988 541.534 299.988Z" fill="#0231C8"/>
<path d="M533.294 312.338H617.821C618.779 312.338 619.697 312.718 620.374 313.395C621.05 314.071 621.431 314.988 621.431 315.945V316.018C621.431 316.974 621.05 317.892 620.374 318.568C619.697 319.244 618.779 319.624 617.821 319.624H533.294C532.82 319.624 532.351 319.531 531.913 319.35C531.475 319.168 531.077 318.903 530.742 318.568C530.407 318.233 530.141 317.835 529.959 317.398C529.778 316.96 529.685 316.491 529.685 316.018V315.945C529.685 314.988 530.065 314.071 530.742 313.395C531.419 312.718 532.337 312.338 533.294 312.338Z" fill="#0231C8"/>
<path d="M409.974 293.971C423.592 293.971 434.632 282.94 434.632 269.333C434.632 255.726 423.592 244.695 409.974 244.695C396.356 244.695 385.316 255.726 385.316 269.333C385.316 282.94 396.356 293.971 409.974 293.971Z" fill="#0231C8"/>
<path d="M408.09 258.042L420.917 265.442C421.601 265.836 422.169 266.404 422.563 267.087C422.958 267.77 423.166 268.545 423.166 269.333C423.166 270.122 422.958 270.897 422.563 271.58C422.169 272.263 421.601 272.83 420.917 273.225L408.09 280.624C407.407 281.019 406.631 281.226 405.842 281.226C405.052 281.226 404.277 281.019 403.593 280.624C402.91 280.23 402.342 279.663 401.947 278.98C401.553 278.297 401.345 277.522 401.345 276.733V261.933C401.345 261.145 401.553 260.37 401.947 259.687C402.342 259.004 402.91 258.437 403.593 258.042C404.277 257.648 405.052 257.44 405.842 257.44C406.631 257.44 407.407 257.648 408.09 258.042Z" fill="#FF8888"/>
<path d="M488.861 405.558C488.671 407.912 485.345 407.913 481.573 407.448C477.802 406.982 478.798 407.944 473.513 407.979C468.228 408.013 466.419 406.254 466.169 405.498C465.946 404.827 468.495 404.282 471.223 403.64C471.566 403.56 471.911 403.476 472.255 403.392C475.344 402.655 478.086 400.882 480.023 398.368C482.316 395.432 484.411 382.068 484.411 382.068L492.67 383.608C492.67 383.608 487.863 395.063 487.37 398.82C487.148 400.506 488.348 401.631 488.629 403.106C488.816 403.909 488.894 404.734 488.861 405.558Z" fill="#B77446"/>
<path d="M481.845 407.801C478.074 407.336 478.798 407.944 473.513 407.979C468.228 408.013 466.419 406.255 466.169 405.498C465.946 404.827 468.495 404.282 471.223 403.64L471.255 403.69C473.659 404.861 476.335 405.361 479 405.135C482.55 404.806 486.18 403.353 488.629 403.106C488.816 403.91 488.894 404.734 488.861 405.558C488.671 407.912 485.616 408.266 481.845 407.801Z" fill="#365DA4"/>
<path d="M481.477 391.565C481.477 391.565 483.64 392.995 485.674 393.365C488.725 393.919 490.141 393.304 490.141 393.304C490.141 393.304 504.816 356.489 503.978 344.049C503.957 343.75 503.946 343.432 503.943 343.096C503.993 340.297 504.268 337.506 504.766 334.75C504.963 333.537 505.191 332.265 505.444 330.95C506.032 327.883 506.761 324.574 507.561 321.2C507.913 319.715 508.281 318.216 508.654 316.72C512.343 302 516.851 287.495 516.851 287.495C516.851 287.495 490.371 278.852 488.873 286.929C488.298 290.03 486.384 302.434 487.246 321.401C487.915 335.076 487.556 348.781 486.171 362.401C485.244 372.214 483.676 381.957 481.477 391.565Z" fill="#365DA4"/>
<path d="M503.942 343.096C503.993 340.296 504.268 337.506 504.765 334.75C504.963 333.536 505.191 332.265 505.444 330.95C506.032 327.883 506.76 324.574 507.561 321.2C507.912 319.715 508.281 318.216 508.654 316.72C508.131 312.228 507.709 309.147 507.709 309.147C507.709 309.147 496.714 324.068 503.942 343.096Z" fill="#285493"/>
<path d="M522.268 405.558C522.077 407.912 518.751 407.913 514.98 407.448C511.208 406.982 512.205 407.944 506.919 407.979C501.634 408.013 499.825 406.255 499.575 405.498C499.352 404.827 501.902 404.282 504.63 403.64C504.973 403.56 505.317 403.476 505.661 403.392C508.738 402.635 510.788 400.354 513.429 398.368C515.932 396.487 514.181 387.365 514.181 387.365L521.947 384.594C521.947 384.594 520.776 393.77 520.776 398.82C520.776 400.52 521.754 401.631 522.036 403.106C522.222 403.91 522.3 404.734 522.268 405.558Z" fill="#B77446"/>
<path d="M515.393 407.826C511.621 407.361 512.205 407.944 506.919 407.979C501.634 408.013 499.825 406.255 499.575 405.498C499.352 404.827 501.902 404.282 504.63 403.64L504.662 403.69C507.065 404.861 509.741 405.361 512.406 405.135C515.956 404.806 519.587 403.353 522.036 403.106C522.222 403.91 522.3 404.734 522.268 405.558C522.077 407.912 519.164 408.292 515.393 407.826Z" fill="#365DA4"/>
<path d="M500.9 284.614C500.9 284.614 509.516 327.517 510.971 350.868C512.427 374.218 514.243 393.55 514.243 393.55C515.545 393.976 516.912 394.164 518.28 394.104C519.674 394.02 521.049 393.74 522.364 393.273C522.364 393.273 530.903 358.141 528.074 344.078C525.246 330.016 527.602 317.044 528.96 305.38C530.907 288.655 523.417 280.881 518.188 275.582C512.895 270.218 500.9 284.614 500.9 284.614Z" fill="#365DA4"/>
<path d="M494.794 206.034C493.938 199.049 496.121 187.872 510.074 189.657C524.026 191.444 528.423 205.145 525.609 211.237C522.795 217.329 529.66 218.798 531.815 225.349C533.667 230.977 534.312 237.965 537.308 241.101C546.967 251.211 528.035 266.759 516.622 263.481C495.833 257.509 493.155 256.618 493.893 240.297C494.272 231.935 500.783 228.695 496.649 226.276C486.662 220.431 496.731 221.839 494.794 206.034Z" fill="#131F2D"/>
<path d="M499.018 228.465L503.145 234.65L511.46 234.241L515.301 224.321C515.301 224.321 514.116 224.096 513.564 211.725L503.185 214.889C503.502 217.129 503.44 219.406 503.002 221.626C502.491 224.075 501.367 226.689 499.018 228.465Z" fill="#FFAE98"/>
<path d="M497.861 224.101C498.394 224.101 508.172 220.832 522.132 226.514C522.132 226.514 515.504 264.401 518.351 271.632C520.082 276.049 521.398 280.618 522.28 285.28L491.396 285.663C491.396 285.663 491.828 260.844 490.405 252.06C488.981 243.276 497.861 224.101 497.861 224.101Z" fill="#FFAE98"/>
<path d="M446.566 249.594C446.659 248.515 446.998 248.269 446.998 248.269C456.873 249.717 463.417 249.636 466.623 250.261C469.142 250.748 470.172 250.819 470.604 250.209C484.245 231.044 493.899 225.024 493.899 225.024C493.899 225.024 494.929 224.413 498.956 223.859C498.956 223.859 499.535 231.145 503.283 231.764C509.766 232.832 514.613 226.895 516.138 224.506C516.138 224.506 523.959 226.388 526.145 228.877C527.715 230.665 527.509 234.944 527.043 237.634C526.941 238.297 526.782 238.949 526.57 239.585C526.11 240.803 524.366 249.738 523.571 253.294C523.552 253.385 523.534 253.468 523.517 253.546C523.462 253.784 523.414 253.993 523.369 254.166C523.367 254.172 523.367 254.176 523.366 254.181C523.319 254.371 523.281 254.519 523.249 254.615C523.231 254.673 523.212 254.732 523.194 254.789C523.193 254.793 523.192 254.797 523.19 254.8C521.895 258.646 521.407 262.717 521.757 266.759C521.827 267.406 521.945 268.047 522.112 268.675C523.149 273.989 527.46 284.465 528.354 289.274C527.838 290.36 526.67 291.22 525.248 291.905C523.338 292.75 521.343 293.389 519.298 293.812C517.296 294.241 515.274 294.563 513.238 294.776C511.916 294.924 510.5 295.05 509.058 295.133C508.854 295.146 508.652 295.157 508.449 295.166C499.145 295.628 488.727 295.399 487.37 290.979C486.719 288.858 489.313 276.108 489.659 272.319C490.263 265.664 489.278 256.55 488.833 249.494C481.197 257.901 473.317 260.925 473.317 260.925C471.184 260.786 469.066 260.468 466.986 259.975C464.545 259.43 461.988 258.706 459.541 257.93C454.97 256.443 450.49 254.69 446.124 252.68C446.372 251.668 446.52 250.634 446.566 249.594Z" fill="#657285"/>
<path d="M501.844 280.919C503.606 286.892 504.631 291.809 509.057 295.133C510.5 295.05 511.916 294.924 513.238 294.776C515.273 294.563 517.296 294.241 519.297 293.812C521.343 293.389 523.338 292.75 525.248 291.905C526.67 291.22 527.838 290.36 528.354 289.274C527.459 284.465 523.149 273.989 522.112 268.675C522.018 268.215 521.949 267.75 521.906 267.282C521.571 263.078 522.006 258.848 523.19 254.8C523.192 254.797 523.193 254.793 523.193 254.789C523.251 254.586 523.308 254.384 523.365 254.181C523.367 254.176 523.367 254.172 523.369 254.166C523.406 254.035 523.456 253.823 523.517 253.546C523.534 253.468 523.552 253.385 523.571 253.294C524.281 249.924 526.139 239.349 526.612 237.969C526.821 237.28 526.976 236.575 527.076 235.862L523.358 232.287C523.358 232.287 502.023 241.39 497.323 253.947C492.623 266.503 499.313 272.35 501.844 280.919Z" fill="#364154"/>
<path d="M459.541 257.93C464.264 259.426 469.402 260.738 473.316 260.925C473.316 260.925 481.15 258.029 488.833 249.494C489.156 248.043 489.622 245.442 487.863 246.144C485.396 247.129 476.275 258.831 472.823 259.077C470.352 259.253 463.33 258.419 459.541 257.93Z" fill="#364154"/>
<path d="M476.391 254.597C476.391 254.597 486.907 259.875 496.025 262.059C498.42 262.671 500.866 263.064 503.332 263.234C503.332 263.234 513.138 260.221 520.621 249.747C535.075 229.516 523.916 227.334 523.916 227.334C523.916 227.334 514.26 233.353 500.622 252.518C500.145 253.189 498.946 253.037 495.844 252.411C492.53 251.742 485.935 251.822 476.83 250.486C476.681 250.944 476.598 251.421 476.584 251.903C476.379 254.285 476.391 254.597 476.391 254.597Z" fill="#657285"/>
<path d="M446.124 252.68C450.49 254.69 454.97 256.443 459.541 257.93C461.988 258.706 464.545 259.43 466.986 259.975C467.762 256.765 467.636 253.404 466.623 250.261C463.417 249.636 456.564 249.594 446.69 248.146L446.124 252.68Z" fill="#A86337"/>
<path d="M449.156 248.759C447.575 248.432 446.038 247.92 444.577 247.234C442.496 246.194 436.946 245.501 435.766 246.61C434.587 247.72 437.015 252.225 442.079 252.364C447.144 252.503 448.601 253.334 448.601 253.334L449.156 248.759Z" fill="#FFAE98"/>
<path d="M440.151 233.408L468.388 238.893C469.006 239.03 469.562 239.367 469.968 239.852C470.375 240.337 470.61 240.943 470.636 241.575V261.074C470.646 261.353 470.59 261.631 470.474 261.886C470.357 262.14 470.183 262.364 469.965 262.54C469.747 262.716 469.491 262.838 469.217 262.898C468.943 262.957 468.66 262.952 468.388 262.883L440.151 257.399C439.533 257.262 438.977 256.924 438.571 256.439C438.164 255.954 437.93 255.348 437.903 254.716V235.218C437.894 234.938 437.949 234.66 438.066 234.405C438.182 234.151 438.356 233.927 438.574 233.751C438.792 233.576 439.049 233.453 439.322 233.394C439.596 233.334 439.88 233.339 440.151 233.408Z" fill="#131F2D"/>
<path d="M439.026 233.408L467.263 238.893C467.881 239.03 468.437 239.367 468.843 239.852C469.25 240.337 469.484 240.943 469.511 241.575V261.074C469.521 261.353 469.465 261.631 469.349 261.886C469.232 262.14 469.058 262.364 468.84 262.54C468.622 262.716 468.366 262.838 468.092 262.897C467.818 262.957 467.535 262.952 467.263 262.883L439.026 257.399C438.408 257.262 437.852 256.924 437.446 256.439C437.039 255.954 436.805 255.348 436.778 254.716V235.218C436.769 234.938 436.824 234.66 436.941 234.405C437.057 234.151 437.231 233.927 437.449 233.751C437.667 233.576 437.924 233.453 438.197 233.394C438.471 233.334 438.755 233.339 439.026 233.408Z" fill="#131F2D"/>
<path d="M466.794 240.416C467.048 240.472 467.276 240.61 467.443 240.809C467.61 241.009 467.706 241.258 467.717 241.518C467.721 241.633 467.699 241.747 467.651 241.852C467.603 241.957 467.532 242.049 467.442 242.121C467.352 242.193 467.247 242.243 467.134 242.268C467.022 242.292 466.905 242.289 466.794 242.261C466.54 242.205 466.311 242.067 466.144 241.867C465.977 241.668 465.881 241.419 465.871 241.159C465.866 241.044 465.889 240.93 465.936 240.825C465.984 240.72 466.056 240.628 466.145 240.556C466.235 240.484 466.34 240.434 466.453 240.409C466.566 240.385 466.682 240.387 466.794 240.416Z" fill="#0231C8"/>
<path d="M463.645 248.111C464.904 246.927 470.83 247.667 473.051 248.777C474.247 249.35 475.497 249.803 476.782 250.132L476.784 250.117C485.889 251.452 492.531 251.742 495.844 252.411C495.118 253.922 494.756 255.581 494.787 257.257C494.819 258.932 495.243 260.577 496.025 262.059C487.318 259.973 477.113 255.318 476.213 254.904C474.3 254.479 472.346 254.261 470.385 254.254C464.979 254.106 462.386 249.295 463.645 248.111Z" fill="#FFAE98"/>
<path d="M503.002 221.626C507.292 221.279 513.564 211.725 513.564 211.725L503.186 214.889C503.502 217.129 503.44 219.406 503.002 221.626Z" fill="#EF6343"/>
<path d="M500.467 215.59C500.467 215.59 512.895 218.084 514.33 210.327C515.765 202.57 518.336 197.668 510.462 195.748C502.588 193.828 500.494 196.502 499.385 198.975C498.275 201.447 497.272 214.742 500.467 215.59Z" fill="#FFAE98"/>
<path d="M499.228 194.359C505.359 188.322 511.008 191.342 510.108 192.556C512.232 192.623 514.883 193.206 516.778 195.337C520.453 199.468 513.596 212.38 513.596 212.38C513.596 212.38 514.54 204.446 510.452 199.981C509.206 198.676 508.158 197.196 507.341 195.587C506.515 196.323 505.562 196.902 504.528 197.295C500.573 198.681 498.401 205.038 498.401 205.038C496.986 202.072 496.587 196.959 499.228 194.359Z" fill="#131F2D"/>
<path d="M504.339 211.774C504.339 211.774 503.874 212.952 501.534 212.534C501.534 212.534 499.703 211.926 499.884 210.893C499.884 210.893 501.534 211.872 504.339 211.774Z" fill="white"/>
<path d="M598.181 355.182C598.187 355.519 598.095 355.851 597.918 356.138C597.74 356.424 597.483 356.653 597.178 356.798L597.169 356.802C596.003 357.443 593.958 357.507 591.733 357.41C591.448 357.398 591.192 357.391 590.963 357.391C590.903 357.391 590.843 357.391 590.785 357.392C590.738 357.392 590.692 357.394 590.647 357.394C588.445 357.449 588.678 358.107 584.492 358.466C579.721 358.872 577.963 357.414 577.682 356.749C577.445 356.186 579.492 355.546 581.78 354.816C581.891 354.781 582.001 354.744 582.114 354.71C582.418 354.613 582.724 354.512 583.028 354.413C585.752 353.509 588.433 352.436 589.102 349.681C589.812 346.76 587.679 338.607 587.679 338.607L595.24 337.792C595.24 337.792 595.969 346.315 596.443 348.97C596.699 350.388 597.343 351.516 597.719 352.73C597.746 352.815 597.771 352.9 597.795 352.986C598.021 353.697 598.151 354.436 598.181 355.182Z" fill="#FFAE98"/>
<path d="M598.181 355.182C598.187 355.519 598.095 355.851 597.918 356.138C597.74 356.424 597.483 356.653 597.178 356.798L597.169 356.802C595.928 357.375 593.916 357.458 591.737 357.396C591.452 357.389 591.196 357.387 590.963 357.391C590.903 357.391 590.843 357.391 590.785 357.392C590.738 357.392 590.692 357.394 590.647 357.394C588.445 357.449 588.678 358.107 584.492 358.466C579.721 358.872 577.963 357.414 577.682 356.749C577.445 356.186 579.492 355.546 581.78 354.816C584.122 355.665 586.648 355.88 589.1 355.44C592.283 354.841 595.445 353.259 597.719 352.73C597.746 352.815 597.771 352.9 597.795 352.986C598.021 353.697 598.151 354.436 598.181 355.182Z" fill="#9E3A38"/>
<path d="M549.121 345.54C548.701 347.637 545.708 347.288 542.364 346.471C539.02 345.655 539.815 346.625 535.056 346.099C530.297 345.573 528.855 343.799 528.71 343.092C528.58 342.465 530.932 342.244 533.454 341.953C533.771 341.918 534.09 341.879 534.408 341.84C537.256 341.482 539.342 339.646 541.928 338.138C544.378 336.71 548.035 330.891 548.035 330.891L554.562 331.407C554.562 331.407 551.137 336.605 549.812 338.865C549.033 340.194 549.074 341.952 549.171 343.309C549.254 344.051 549.237 344.802 549.121 345.54Z" fill="#FFAE98"/>
<path d="M542.364 346.471C539.02 345.655 539.815 346.625 535.056 346.099C530.297 345.572 528.855 343.799 528.71 343.092C528.58 342.465 530.932 342.244 533.454 341.953L533.478 342.002C535.516 343.309 537.872 344.041 540.293 344.119C543.522 344.197 546.942 343.273 549.171 343.309C549.254 344.051 549.237 344.802 549.121 345.54C548.701 347.637 545.708 347.288 542.364 346.471Z" fill="#9E3A38"/>
<path d="M563.643 249.757C563.643 249.757 562.088 245.95 560.378 245.795C558.668 245.639 553.225 244.785 552.836 245.562C552.447 246.339 552.836 249.135 554.002 250.145C555.169 251.155 562.399 252.787 562.399 252.787L563.643 249.757Z" fill="#FFAE98"/>
<path d="M574.133 303.84L588.199 341.664C589.622 341.77 591.052 341.639 592.432 341.277C593.873 340.787 595.247 340.118 596.523 339.286C596.523 339.286 593.033 302.969 586.636 295.415C580.239 287.861 574.133 303.84 574.133 303.84Z" fill="#0F133A"/>
<path d="M629.767 288.539C629.767 288.539 589.349 274.883 580.335 277.788C571.321 280.694 544.257 334.497 544.257 334.497C544.257 334.497 544.867 335.309 546.535 335.934C548.086 336.515 551.839 336.478 551.839 336.478C551.839 336.478 576.265 315.559 579.172 309.457C582.08 303.356 583.243 297.545 586.151 298.126C589.058 298.707 623.661 312.363 631.512 304.228C639.363 296.093 637.309 285.523 637.309 285.523L629.767 288.539Z" fill="#0A1158"/>
<path d="M605.069 225.012C604.423 223.681 603.702 221.316 603.348 217.1C603.403 217.518 604.13 222.835 606.176 225.845C614.582 231.36 630.693 249.772 630.374 253.261C630.374 253.261 636.049 243.643 636.147 243.586C636.147 243.586 646.615 230.285 634.208 222.666C627.903 218.794 627.935 213.824 628.198 209.507C628.464 205.189 626.478 186.605 613.847 191.468C613.847 191.468 611.82 190.568 610.912 190.703C611.324 190.783 611.708 190.965 612.03 191.234C610.566 191.147 608.472 191.256 606.725 192.248C602.095 194.877 597.951 218.466 605.069 225.012Z" fill="#131F2D"/>
<path d="M606.673 226.12C606.631 226.139 610.731 228.266 613.816 227.423C616.717 226.633 618.613 222.874 618.573 222.865C617.344 222.622 616.99 220.935 617.016 213.685L616.461 213.794L607.121 215.642C607.121 215.642 607.334 218.579 607.34 221.346C607.346 223.669 607.205 225.872 606.673 226.12Z" fill="#FFAE98"/>
<path d="M607.121 215.642C607.121 215.642 607.334 218.579 607.34 221.345C612.566 221.198 615.329 216.435 616.46 213.794L607.121 215.642Z" fill="#EF6343"/>
<path d="M617.426 212.778C617.426 212.778 620.165 208.454 620.822 204.757C621.291 202.117 619.946 192.333 610.106 193.742C608.124 194.017 606.229 194.732 604.561 195.836C602.425 197.278 599.341 200.391 602.789 208.929L603.684 211.813L617.426 212.778Z" fill="#131F2D"/>
<path d="M605.376 218.262C605.376 218.262 617.741 218.466 617.75 210.77C617.758 203.073 619.36 197.916 611.465 197.461C603.571 197.005 602.034 199.94 601.406 202.509C600.778 205.077 602.16 218.01 605.376 218.262Z" fill="#FFAE98"/>
<path d="M605.834 197.272C605.834 197.272 609.22 206.301 614.415 207.636C619.611 208.971 621.865 207.58 621.865 207.58C619.301 205.33 617.6 202.26 617.052 198.895C617.052 198.895 608.388 192.975 605.834 197.272Z" fill="#131F2D"/>
<path d="M606.673 198.005C606.673 198.005 604.145 200.021 603.528 201.981C602.912 203.941 602.635 207.975 601.458 207.838C601.458 207.838 598.907 201.701 601.773 198.23C604.813 194.548 606.673 198.005 606.673 198.005Z" fill="#131F2D"/>
<path d="M634.208 259.359C635.428 254.249 631.279 244.333 626.948 236.124C623.019 228.684 618.94 222.648 618.573 222.865C608.21 229.012 607.273 223.902 607.273 223.902C607.273 223.902 597.86 225.151 595.194 229.736C591.507 236.076 587.492 255.101 583.547 254.821C581.736 254.691 563.514 247.847 563.514 247.847C563.514 247.847 560.478 250.689 561.059 254.176C561.059 254.176 570.056 260.196 577.665 264.037C581.69 266.069 585.327 267.491 587.037 267.088C590.503 266.272 595.917 258.243 598.843 253.517L598.862 253.485C602.596 274.604 597.519 279.414 600.089 281.641C602.803 283.992 606.68 280.521 615.21 284.215C620.805 286.64 628.569 290.146 633.795 290.756C636.536 291.078 638.582 290.601 639.249 288.752C641.187 283.376 631.882 269.1 634.208 259.359Z" fill="#0231C8"/>
<path d="M608.125 213.596C608.125 213.596 607.894 214.574 605.46 214.423C605.46 214.423 603.417 214.297 603.479 213.223C603.479 213.223 605.461 212.458 608.125 213.596Z" fill="white"/>
<path d="M639.248 288.752C638.581 290.601 636.536 291.078 633.795 290.756C630.178 289.182 614.551 283.132 614.725 279.033C614.985 272.965 617.73 272.771 615.791 265.281C614.235 259.266 628.674 248.083 630.977 245.652C635.308 253.861 635.427 254.249 634.208 259.359C631.882 269.1 641.187 283.376 639.248 288.752Z" fill="#016EB9"/>
<path d="M598.842 253.517C595.917 258.243 590.502 266.272 587.036 267.088C585.326 267.491 581.69 266.069 577.665 264.037C580.469 264.699 583.368 264.857 586.228 264.506C589.233 264.215 590.105 260.535 594.855 255.014C597.935 251.435 598.691 252.335 598.842 253.517Z" fill="#3B76CA"/>
<path d="M608.911 264.435C608.521 264.195 607.762 264.289 607.212 264.404V263.608C607.212 263.435 607.2 263.261 607.178 263.089H598.929C598.906 263.261 598.895 263.435 598.895 263.608V265.226C598.893 266.07 599.15 266.895 599.631 267.59C600.111 268.285 600.792 268.817 601.583 269.115C602.374 269.413 603.237 269.462 604.057 269.257C604.877 269.052 605.614 268.602 606.171 267.967L606.171 267.968C606.171 267.968 608.134 267.485 608.75 266.754C609.366 266.023 609.566 264.839 608.911 264.435ZM608.476 265.931C608.267 266.469 607.331 266.758 606.87 266.871C607.058 266.437 607.171 265.975 607.202 265.503C607.316 265.326 607.474 265.181 607.66 265.084C607.847 264.986 608.056 264.938 608.266 264.945C608.561 264.999 608.739 265.25 608.476 265.931Z" fill="#131F2D"/>
<path d="M599.57 263.607V265.226C599.574 266.327 600.013 267.382 600.792 268.16C601.571 268.939 602.626 269.378 603.728 269.382C603.915 269.382 604.102 269.368 604.287 269.341C603.292 269.203 602.379 268.711 601.718 267.955C601.057 267.199 600.691 266.23 600.688 265.226V263.607C600.688 263.434 600.7 263.26 600.722 263.088H599.604C599.582 263.26 599.57 263.434 599.57 263.607Z" fill="#131F2D"/>
<path d="M604.747 269.019H601.353V269.526H604.747V269.019Z" fill="#131F2D"/>
<path d="M613.319 265.135C613.319 265.135 610.702 263.101 608.23 263.586C605.759 264.07 604.547 265.765 604.644 266.54C604.741 267.315 606.05 269.494 607.94 269.687C609.83 269.881 615.209 268.525 615.209 268.525L613.319 265.135Z" fill="#FFAE98"/>
<path d="M618.573 222.865C618.573 222.865 628.651 223.486 632.14 228.348C637.051 235.192 648.838 265.636 643.255 269.526C636.967 273.907 612.592 269.397 612.592 269.397C612.592 269.397 611.849 265.926 612.883 264.248C613.917 262.569 630.718 259.857 631.494 259.082C632.269 258.307 621.801 243.973 621.801 241.649C621.801 239.324 618.573 222.865 618.573 222.865Z" fill="#0231C8"/>
<path d="M561.831 241.57L555.628 239.909C555.537 239.881 555.441 239.876 555.348 239.895C555.256 239.913 555.169 239.955 555.097 240.016L555.089 240.014L554.222 240.537L554.914 254.206L560.872 255.801L561.311 255.766L562.315 255.152L562.314 255.147C562.388 255.097 562.448 255.029 562.488 254.949C562.529 254.869 562.548 254.781 562.544 254.691V242.474C562.533 242.269 562.459 242.071 562.331 241.909C562.203 241.747 562.028 241.629 561.831 241.57Z" fill="#131F2D"/>
<path d="M560.872 255.801L554.67 254.14C554.472 254.081 554.297 253.963 554.169 253.801C554.042 253.639 553.967 253.442 553.956 253.236V241.019C553.952 240.932 553.969 240.844 554.007 240.765C554.045 240.686 554.102 240.618 554.172 240.566C554.243 240.515 554.325 240.481 554.412 240.469C554.499 240.457 554.587 240.467 554.67 240.497L560.872 242.158C561.07 242.217 561.245 242.335 561.373 242.497C561.5 242.659 561.575 242.856 561.586 243.062V255.279C561.59 255.366 561.573 255.454 561.535 255.533C561.497 255.612 561.44 255.68 561.37 255.732C561.299 255.783 561.217 255.817 561.13 255.829C561.043 255.841 560.955 255.832 560.872 255.801Z" fill="#131F2D"/>
<path d="M556.298 242.398L554.852 241.967C554.744 241.931 554.649 241.862 554.58 241.77C554.512 241.678 554.474 241.568 554.471 241.453C554.47 241.405 554.481 241.357 554.503 241.313C554.526 241.27 554.558 241.233 554.598 241.206C554.638 241.178 554.685 241.161 554.733 241.155C554.781 241.15 554.83 241.157 554.875 241.175L556.32 241.607C556.429 241.643 556.524 241.711 556.592 241.803C556.661 241.895 556.699 242.006 556.702 242.12C556.703 242.169 556.692 242.217 556.669 242.26C556.647 242.303 556.615 242.34 556.575 242.368C556.535 242.395 556.488 242.413 556.44 242.418C556.392 242.423 556.343 242.417 556.298 242.398Z" fill="#0231C8"/>
<path d="M732.626 373.818H1.14304C0.841069 373.818 0.551376 373.698 0.337211 373.486C0.123045 373.273 0.0018113 372.984 0 372.682C0.00181367 372.381 0.123045 372.092 0.337211 371.879C0.551377 371.666 0.841074 371.547 1.14304 371.547H732.626C732.928 371.547 733.218 371.667 733.432 371.879C733.646 372.092 733.768 372.381 733.77 372.682C733.768 372.984 733.646 373.273 733.432 373.486C733.218 373.698 732.928 373.818 732.626 373.818Z" fill="#131F2D"/>
</svg>
