<svg width="59" height="71" viewBox="0 0 59 71" fill="none" xmlns="http://www.w3.org/2000/svg">
<path fill-rule="evenodd" clip-rule="evenodd" d="M28 43.5V71C12.5414 71 0 58.6826 0 43.5C0 28.3174 12.5414 16 28 16V43.5Z" fill="#3C50E0"/>
<path d="M44.9949 0H23.4596C19.8912 0.00430045 16.4702 1.43239 13.9469 3.97101C11.4237 6.50964 10.0043 9.95151 10 13.5417V51.4583C10.0043 55.0485 11.4237 58.4904 13.9469 61.029C16.4702 63.5676 19.8912 64.9957 23.4596 65H44.9949C48.5633 64.9957 51.9844 63.5676 54.5076 61.029C57.0308 58.4904 58.4503 55.0485 58.4545 51.4583V13.5417C58.4503 9.95151 57.0308 6.50964 54.5076 3.97101C51.9844 1.43239 48.5633 0.00430045 44.9949 0ZM53.0707 51.4583C53.0707 53.6132 52.2199 55.6798 50.7054 57.2036C49.1909 58.7273 47.1368 59.5833 44.9949 59.5833H36.9192V56.875C36.9192 56.1567 36.6356 55.4678 36.1307 54.9599C35.6259 54.452 34.9412 54.1667 34.2273 54.1667C33.5133 54.1667 32.8286 54.452 32.3238 54.9599C31.819 55.4678 31.5354 56.1567 31.5354 56.875V59.5833H23.4596C21.3178 59.5833 19.2637 58.7273 17.7492 57.2036C16.2347 55.6798 15.3838 53.6132 15.3838 51.4583V13.5417C15.3838 11.3868 16.2347 9.32016 17.7492 7.79642C19.2637 6.27269 21.3178 5.41667 23.4596 5.41667H44.9949C47.1368 5.41667 49.1909 6.27269 50.7054 7.79642C52.2199 9.32016 53.0707 11.3868 53.0707 13.5417V51.4583ZM44.9949 10.8333C44.9949 11.5516 44.7113 12.2405 44.2065 12.7484C43.7017 13.2563 43.017 13.5417 42.303 13.5417H26.1515C25.4376 13.5417 24.7529 13.2563 24.248 12.7484C23.7432 12.2405 23.4596 11.5516 23.4596 10.8333C23.4596 10.115 23.7432 9.42616 24.248 8.91825C24.7529 8.41034 25.4376 8.125 26.1515 8.125H42.303C43.017 8.125 43.7017 8.41034 44.2065 8.91825C44.7113 9.42616 44.9949 10.115 44.9949 10.8333Z" fill="#00005C"/>
</svg>
