<svg width="209" height="40" viewBox="0 0 209 40" fill="none" xmlns="http://www.w3.org/2000/svg">
<path fill-rule="evenodd" clip-rule="evenodd" d="M6.90877 26.1339C7.5204 26.1421 8.1274 26.0268 8.69346 25.795C9.25952 25.5632 9.77301 25.2196 10.2032 24.7848C10.6334 24.35 10.9715 23.8328 11.1972 23.2643C11.4229 22.6958 11.5316 22.0876 11.5168 21.4761C11.5168 18.8685 9.52631 16.7983 6.90877 16.7983C6.29703 16.7942 5.69068 16.9129 5.12569 17.1475C4.56071 17.3821 4.0486 17.7278 3.61975 18.1641C3.1909 18.6004 2.85405 19.1183 2.62918 19.6873C2.4043 20.2562 2.29599 20.8645 2.31067 21.4761C2.31067 24.1235 4.30119 26.1339 6.90877 26.1339ZM6.90877 14.6784C7.80014 14.6784 8.68278 14.854 9.5063 15.1951C10.3298 15.5362 11.0781 16.0362 11.7084 16.6665C12.3387 17.2968 12.8387 18.0451 13.1798 18.8686C13.5209 19.6921 13.6964 20.5747 13.6964 21.4661C13.6964 22.3575 13.5209 23.2401 13.1798 24.0636C12.8387 24.8872 12.3387 25.6354 11.7084 26.2657C11.0781 26.896 10.3298 27.396 9.5063 27.7371C8.68278 28.0782 7.80014 28.2538 6.90877 28.2538C5.10857 28.2538 3.3821 27.5387 2.10916 26.2657C0.836222 24.9928 0.121094 23.2663 0.121094 21.4661C0.121094 19.6659 0.836222 17.9394 2.10916 16.6665C3.3821 15.3936 5.10857 14.6784 6.90877 14.6784M18.195 14.9073H20.2652L27.1922 23.9841V14.8974H29.4614V27.9851H27.5505L20.4742 18.7291V27.9851H18.195V14.9073ZM34.5372 14.9073H36.886V25.8751H42.0813V27.995H34.5372V14.9073ZM46.3808 27.995H48.7296V14.9073H46.3808V27.995ZM53.895 14.9073H55.9652L62.8922 23.9841V14.8974H65.1614V27.9851H63.2505L56.1642 18.7291V27.9851H53.895V14.9073ZM70.2272 14.9073H78.5675V17.0173H72.5761V20.1325H78.1993V22.2524H72.5761V25.8652H78.6969V27.9851H70.2372L70.2272 14.9073ZM132.541 25.8751C135.974 25.8751 137.218 23.9742 137.218 21.4761C137.218 18.9182 135.974 17.0272 132.521 17.0272H130.361V25.8751H132.55H132.541ZM128.012 14.9073H132.69C137.119 14.9073 139.557 17.6443 139.557 21.4761C139.557 25.3277 137.139 27.995 132.71 27.995H128.012V14.9073V14.9073ZM143.956 14.9073H152.296V17.0173H146.305V20.1325H151.918V22.2524H146.305V25.8652H152.426V27.9851H143.966L143.956 14.9073ZM163.244 14.6784C164.146 14.6661 165.041 14.8341 165.877 15.1725C166.712 15.5109 167.472 16.0129 168.111 16.649L166.549 18.0723C165.658 17.2291 164.471 16.7714 163.244 16.7983C162.632 16.7888 162.024 16.903 161.457 17.1342C160.889 17.3654 160.375 17.7088 159.943 18.1438C159.512 18.5788 159.173 19.0964 158.947 19.6656C158.721 20.2348 158.611 20.8438 158.626 21.4562C158.626 24.1235 160.617 26.0941 163.244 26.0941C164.392 26.1165 165.508 25.7163 166.379 24.9694V22.5609H162.737V20.4808H168.599V25.7557C167.946 26.5381 167.126 27.1649 166.199 27.5902C165.273 28.0155 164.264 28.2286 163.244 28.214C159.393 28.214 156.297 25.3675 156.297 21.4562C156.294 20.5509 156.473 19.6543 156.823 18.8195C157.174 17.9847 157.688 17.2287 158.336 16.5966C158.984 15.9644 159.752 15.4688 160.595 15.1393C161.439 14.8098 162.339 14.6531 163.244 14.6784M178.024 21.2272C179.298 21.2272 180.184 20.3514 180.184 19.0874C180.184 17.8931 179.338 17.0272 178.213 17.0272H175.526V21.2272H178.014H178.024ZM173.177 14.9073H178.263C180.592 14.9073 182.513 16.6889 182.513 19.0576C182.513 20.7794 181.537 22.1926 180.124 22.7699L183.299 27.995H180.651L177.855 23.3372H175.526V27.995H173.177V14.9073ZM187.3 14.9073H195.64V17.0173H189.649V20.1325H195.262V22.2524H189.649V25.8652H195.769V27.9851H187.3V14.9073ZM200.328 14.9073H208.668V17.0173H202.677V20.1325H208.29V22.2524H202.677V25.8652H208.797V27.9851H200.338L200.328 14.9073Z" fill="#121830"/>
<path fill-rule="evenodd" clip-rule="evenodd" d="M183.944 36.9629C184.282 36.9629 184.571 37.2316 184.571 37.58C184.571 37.9382 184.272 38.2169 183.944 38.2169C183.774 38.2169 183.611 38.1501 183.49 38.031C183.369 37.9118 183.299 37.7498 183.297 37.58C183.297 37.2316 183.595 36.9629 183.944 36.9629Z" fill="#060000"/>
<path fill-rule="evenodd" clip-rule="evenodd" d="M189.202 31.6367C190.227 31.6367 191.122 32.0746 191.74 32.7813L190.963 33.4481C190.744 33.2009 190.474 33.0036 190.172 32.8697C189.87 32.7358 189.542 32.6683 189.212 32.6718C187.918 32.6718 186.952 33.6471 186.952 34.9509C186.952 36.2448 187.928 37.2102 189.212 37.2102C189.908 37.2102 190.545 36.9216 190.983 36.414L191.75 37.0907C191.437 37.4583 191.048 37.7531 190.61 37.9542C190.171 38.1554 189.694 38.2581 189.212 38.2552C188.334 38.2552 187.492 37.9066 186.872 37.2859C186.251 36.6653 185.902 35.8236 185.902 34.946C185.902 34.0683 186.251 33.2266 186.872 32.606C187.492 31.9854 188.334 31.6367 189.212 31.6367M196.756 37.2301C198.03 37.2301 199.005 36.2348 199.005 34.9609C199.005 33.687 198.03 32.6718 196.756 32.6718C195.482 32.6718 194.506 33.667 194.506 34.9609C194.506 36.2547 195.482 37.2301 196.756 37.2301ZM196.756 31.6367C197.636 31.6367 198.48 31.9864 199.103 32.6089C199.725 33.2314 200.075 34.0756 200.075 34.9559C200.075 35.8362 199.725 36.6805 199.103 37.3029C198.48 37.9254 197.636 38.2751 196.756 38.2751C195.875 38.2751 195.031 37.9254 194.409 37.3029C193.786 36.6805 193.436 35.8362 193.436 34.9559C193.436 34.0756 193.786 33.2314 194.409 32.6089C195.031 31.9864 195.875 31.6367 196.756 31.6367M202.269 31.7462H203.245L205.544 35.3291L207.833 31.7462H208.798V38.1457H207.713V33.8064L205.544 37.1903L203.354 33.8163V38.1457H202.259L202.269 31.7462Z" fill="#121830"/>
<path fill-rule="evenodd" clip-rule="evenodd" d="M110.616 16.6193C110.814 16.6028 111.013 16.6275 111.2 16.6918C111.388 16.7561 111.56 16.8585 111.706 16.9928C111.852 17.127 111.968 17.2901 112.048 17.4716C112.128 17.6532 112.169 17.8493 112.169 18.0475C112.169 18.2458 112.128 18.4419 112.048 18.6235C111.968 18.805 111.852 18.9681 111.706 19.1023C111.56 19.2365 111.388 19.339 111.2 19.4033C111.013 19.4676 110.814 19.4922 110.616 19.4757C110.236 19.4757 109.872 19.3247 109.603 19.056C109.334 18.7872 109.183 18.4227 109.183 18.0426C109.183 17.6625 109.334 17.2979 109.603 17.0291C109.872 16.7604 110.236 16.6094 110.616 16.6094V16.6193ZM98.1757 19.4757C97.978 19.4915 97.7793 19.4662 97.592 19.4012C97.4046 19.3363 97.2328 19.2332 97.0874 19.0984C96.942 18.9637 96.8261 18.8003 96.747 18.6184C96.668 18.4366 96.6276 18.2404 96.6283 18.0421C96.6289 17.8439 96.6708 17.6479 96.7511 17.4666C96.8314 17.2854 96.9484 17.1227 97.0948 16.989C97.2411 16.8553 97.4136 16.7534 97.6014 16.6898C97.7892 16.6261 97.9881 16.6022 98.1856 16.6193C98.5438 16.6493 98.8777 16.8127 99.121 17.0772C99.3644 17.3418 99.4995 17.6881 99.4995 18.0475C99.4995 18.407 99.3644 18.7533 99.121 19.0178C98.8777 19.2824 98.5438 19.4458 98.1856 19.4757H98.1757ZM104.406 22.7402L101.649 13.6136L93.0899 9.86152V17.1468C93.0846 20.1242 93.6659 23.0734 94.8004 25.8261C95.935 28.5788 97.6006 31.0811 99.7022 33.19C101.804 35.299 104.3 36.9734 107.049 38.1176C109.798 39.2618 112.745 39.8534 115.722 39.8587V9.85156L107.153 13.6037L104.406 22.7302V22.7402Z" fill="#0232A4"/>
<path fill-rule="evenodd" clip-rule="evenodd" d="M119.432 6.46732L104.403 0.0976562L89.375 6.46732V16.5394H91.3755V7.32325L104.403 12.837L119.432 6.46732Z" fill="#0232A4"/>
</svg>
