<svg width="127" height="150" viewBox="0 0 127 150" fill="none" xmlns="http://www.w3.org/2000/svg">
<path fill-rule="evenodd" clip-rule="evenodd" d="M88.6848 45.6488C102.036 56.4165 118.565 63.7512 124.441 76.0916C130.29 88.4319 125.452 105.718 115.219 116.626C104.987 127.508 89.3875 131.998 74.9056 135.458C60.4304 138.945 47.1063 141.387 38.199 136.214C29.285 131.014 24.7878 118.172 18.1559 106.588C11.5239 95.0371 2.72371 84.7178 0.729436 72.0963C-1.26483 59.4481 3.54015 44.4375 13.719 33.1344C23.9245 21.8046 39.524 14.1554 52.3998 17.4212C65.2421 20.687 75.3606 34.8878 88.6848 45.6488Z" fill="#F0F0F0"/>
<path d="M114.316 43.3802L123.705 64.9089C123.785 65.0963 123.698 65.3171 123.511 65.3974C123.484 65.4108 123.451 65.4175 123.424 65.4242L85.1313 71.9424C84.9305 71.9759 84.7364 71.8353 84.703 71.6346C84.6829 71.5007 84.7297 71.3736 84.8234 71.2933L113.714 43.253C113.861 43.1058 114.102 43.1125 114.242 43.2597C114.276 43.2999 114.302 43.34 114.316 43.3802ZM122.828 64.7684L113.847 44.1631L86.202 71.0055L122.828 64.7684Z" fill="#B6C6FC"/>
<path fill-rule="evenodd" clip-rule="evenodd" d="M80.5069 72.3171C80.5069 56.1822 80.1923 39.947 58.8443 39.947C39.35 39.947 37.697 62.3658 37.5966 70.4165C37.4962 78.5876 34.9331 83.3257 31.7343 86.9796V125.694C42.2945 135.25 56.5422 144.519 63.415 144.519C69.6655 144.519 81.2564 140.136 90.6857 134.748V96.1011C85.2985 89.7636 80.5069 82.5494 80.5069 72.3171Z" fill="#FB5D64"/>
<path d="M18.0555 105.959C18.0488 106.166 17.8681 106.327 17.6674 106.313C17.4599 106.307 17.2993 106.126 17.3127 105.925C17.7008 97.6069 21.85 93.779 26.1798 89.7838C30.9714 85.3602 35.9906 80.7292 36.1378 69.3191C36.1579 67.5456 36.2582 65.0829 36.5928 62.3391C36.9342 59.5753 37.5231 56.5102 38.5269 53.5121C38.5938 53.3181 38.808 53.211 39.002 53.2779C39.1961 53.3448 39.3032 53.5523 39.2363 53.7531C38.2525 56.6842 37.677 59.7091 37.3357 62.4328C36.9944 65.1699 36.9007 67.5925 36.8806 69.3325C36.7334 81.0639 31.5938 85.8086 26.6817 90.3392C22.4656 94.2207 18.4303 97.9415 18.0555 105.959Z" fill="#1B3C87"/>
<path d="M102.337 123.305C102.464 123.138 102.698 123.111 102.859 123.231C103.02 123.358 103.053 123.593 102.933 123.753C99.6935 128.023 92.3321 132.915 84.4755 136.79C76.2642 140.845 67.4907 143.803 62.3177 143.803C58.463 143.803 52.3798 140.972 45.9218 136.823C38.788 132.232 31.1656 126.022 25.591 120.253C25.4504 120.106 25.4504 119.865 25.6044 119.725C25.7516 119.584 25.9925 119.584 26.133 119.731C31.6675 125.466 39.243 131.637 46.33 136.194C52.6742 140.276 58.6169 143.053 62.3177 143.053C67.3836 143.053 76.0233 140.129 84.1476 136.12C91.9105 132.292 99.1715 127.481 102.337 123.305Z" fill="#1B3C87"/>
<path d="M87.8349 93.4845C87.7077 93.3239 87.7278 93.0896 87.8884 92.9625C88.049 92.8353 88.2832 92.8554 88.4171 93.016C90.0634 95.0638 91.8167 97.0113 93.5299 98.9252C98.3081 104.246 102.812 109.258 104.244 115.455C104.291 115.656 104.164 115.856 103.963 115.903C103.762 115.95 103.561 115.823 103.515 115.622C102.129 109.619 97.6857 104.674 92.9745 99.4271C91.2613 97.5065 89.5079 95.559 87.8349 93.4845Z" fill="#1B3C87"/>
<path d="M45.2459 43.7951C45.092 43.9356 44.8577 43.9289 44.7172 43.775C44.5767 43.6211 44.5833 43.3869 44.7373 43.2463C46.2899 41.8008 48.1235 40.6096 50.2784 39.7798C52.4333 38.95 54.9027 38.4815 57.7469 38.4815C68.6083 38.4815 74.1226 42.6307 76.9267 48.8343C79.7039 54.9844 79.7842 63.1154 79.7842 71.2197C79.7842 74.6327 80.3263 77.7044 81.2431 80.5151C82.1666 83.3325 83.4649 85.8956 84.9907 88.2713C85.1045 88.4453 85.051 88.6796 84.877 88.7866C84.703 88.9004 84.4688 88.8469 84.3617 88.6729C82.8091 86.2436 81.4773 83.627 80.5337 80.7426C79.5902 77.8583 79.0347 74.7063 79.0347 71.213C79.0347 63.189 78.9544 55.1317 76.2441 49.1355C73.5538 43.1928 68.2402 39.2243 57.7469 39.2243C54.9964 39.2243 52.614 39.6727 50.5461 40.4691C48.4849 41.2721 46.7315 42.4165 45.2459 43.7951Z" fill="#1B3C87"/>
<path fill-rule="evenodd" clip-rule="evenodd" d="M31.7345 136.736C31.7478 141.829 35.8702 145.958 40.963 145.965H81.4507C86.5434 145.951 90.6658 141.822 90.6792 136.736V117.262C83.7795 104.359 72.6571 95.9874 60.116 95.9874C48.8196 95.9874 38.6742 102.787 31.7211 113.568L31.7345 136.736Z" fill="#FDB400"/>
<path fill-rule="evenodd" clip-rule="evenodd" d="M0 123.847C0 118.266 4.52392 113.742 10.1052 113.742C15.6865 113.742 20.2104 118.266 20.2104 123.847C20.2104 129.428 15.6865 133.952 10.1052 133.952C4.52392 133.946 0 129.422 0 123.847Z" fill="#EAEFFF"/>
<path d="M26.4275 38.0465L44.4094 16.665L25.6713 0.904869L7.68941 22.2797L26.4275 38.0465ZM45.2259 16.859L26.7621 38.8094C26.6283 38.9633 26.3941 38.9901 26.2335 38.8562L6.91981 22.6143C6.7592 22.4805 6.73912 22.2462 6.87297 22.0856L25.3367 0.135268C25.4705 -0.0253448 25.7048 -0.0454222 25.8654 0.0884215L45.179 16.3303C45.3329 16.4709 45.353 16.7051 45.2259 16.859Z" fill="#B6C6FC"/>
<path d="M88.0423 114.09C87.9352 113.916 87.9887 113.681 88.1694 113.574C88.3501 113.467 88.5776 113.528 88.6847 113.702C89.0929 114.377 89.4945 115.073 89.8893 115.803C90.2842 116.532 90.6656 117.262 91.0203 117.991C91.1073 118.179 91.0337 118.399 90.8463 118.493C90.6589 118.587 90.4381 118.507 90.3444 118.319C89.9763 117.57 89.6082 116.854 89.2335 116.164C88.8587 115.468 88.4572 114.779 88.0423 114.09Z" fill="#1B3C87"/>
<path d="M45.7812 98.8182C45.6005 98.9119 45.373 98.845 45.2793 98.6643C45.1856 98.4836 45.2525 98.2561 45.4332 98.1557C47.5948 97.018 49.8434 96.1413 52.1722 95.5457C54.4409 94.9702 56.7832 94.6691 59.179 94.6691C63.4954 94.6691 67.6513 95.6528 71.526 97.4597C75.5346 99.3268 79.2421 102.084 82.528 105.557C82.6685 105.704 82.6618 105.945 82.5146 106.086C82.3674 106.226 82.1264 106.22 81.9859 106.073C78.7603 102.666 75.1331 99.9693 71.2115 98.1356C67.4371 96.3756 63.395 95.4186 59.179 95.4186C56.8434 95.4186 54.568 95.713 52.3529 96.2752C50.0843 96.8507 47.8892 97.7073 45.7812 98.8182Z" fill="#1B3C87"/>
<path d="M32.0423 111.426C31.9285 111.6 31.6943 111.64 31.5203 111.527C31.353 111.413 31.3061 111.179 31.4199 111.005C32.4906 109.445 33.6685 107.953 34.9333 106.534C36.1914 105.129 37.5432 103.804 38.9687 102.572C39.1226 102.439 39.3635 102.452 39.4974 102.613C39.6312 102.773 39.6178 103.007 39.4572 103.141C38.0518 104.353 36.7268 105.658 35.4887 107.036C34.2507 108.415 33.0996 109.887 32.0423 111.426Z" fill="#1B3C87"/>
<path d="M93.5902 139.614C93.5902 139.406 93.7575 139.239 93.965 139.239C94.1724 139.239 94.3397 139.406 94.3397 139.614C94.333 142.478 93.1686 145.068 91.2881 146.948C89.4076 148.829 86.8177 149.987 83.9535 150H38.4667C35.6025 149.993 33.0126 148.829 31.1321 146.955C29.2516 145.075 28.0871 142.485 28.0804 139.62V64.4271C28.0804 64.2197 28.2477 64.0524 28.4552 64.0524C28.6627 64.0524 28.83 64.2197 28.83 64.4271V139.62C28.8367 142.277 29.9208 144.68 31.6608 146.426C33.4074 148.173 35.8099 149.251 38.4667 149.257H83.9602C86.617 149.251 89.0195 148.166 90.7594 146.426C92.5061 144.673 93.5835 142.271 93.5902 139.614Z" fill="#1B3C87"/>
<path d="M28.8231 46.278C28.8231 46.4854 28.6558 46.6527 28.4484 46.6527C28.2409 46.6527 28.0736 46.4854 28.0736 46.278V25.1508C28.0803 22.2865 29.2447 19.6966 31.1252 17.8228C33.0057 15.949 35.5956 14.7846 38.4532 14.7712H83.9466C86.8109 14.7779 89.4075 15.9423 91.2813 17.8161C93.1618 19.6899 94.3262 22.2865 94.3329 25.1508V116.934C94.3329 117.141 94.1656 117.309 93.9581 117.309C93.7507 117.309 93.5834 117.141 93.5834 116.934V25.1508C93.5767 22.494 92.4926 20.0915 90.7526 18.3448C89.0059 16.6048 86.6034 15.5207 83.9399 15.514H38.4465C35.7897 15.5207 33.3872 16.6048 31.6472 18.3448C29.9073 20.0848 28.8231 22.494 28.8164 25.1441L28.8231 46.278Z" fill="#1B3C87"/>
<path d="M35.1474 143.401C35.3013 143.535 35.3214 143.776 35.1809 143.93C35.047 144.084 34.8061 144.104 34.6522 143.964C33.6082 143.053 32.7851 141.943 32.2229 140.705C31.6608 139.473 31.3596 138.121 31.3596 136.729V28.0216C31.3663 25.3715 32.4438 22.9756 34.177 21.2357C35.9103 19.4957 38.3128 18.425 40.9629 18.4183H70.0806C70.288 18.4183 70.4553 18.5856 70.4553 18.793C70.4553 19.0005 70.288 19.1678 70.0806 19.1678H40.9629C38.5203 19.1745 36.3118 20.1716 34.7057 21.7711C33.0996 23.3772 32.1091 25.5856 32.1024 28.0282V136.743C32.1024 138.021 32.3835 139.266 32.8988 140.403C33.4208 141.534 34.1837 142.558 35.1474 143.401Z" fill="#1B3C87"/>
<path d="M84.1675 19.596C83.9735 19.5291 83.8664 19.3216 83.9266 19.1276C83.9935 18.9335 84.201 18.8264 84.4018 18.8866C86.3826 19.5291 88.0423 20.7738 89.2067 22.38C90.3712 23.9861 91.0471 25.9469 91.0538 28.0282V136.743C91.0471 139.393 89.9697 141.789 88.2364 143.529C86.5031 145.262 84.1006 146.339 81.4505 146.346H53.7449C53.5374 146.346 53.3701 146.179 53.3701 145.971C53.3701 145.764 53.5374 145.596 53.7449 145.596H81.4505C83.8932 145.59 86.1016 144.599 87.7077 142.993C89.3138 141.387 90.3043 139.179 90.311 136.736V28.0282C90.3043 26.1075 89.6819 24.3006 88.6111 22.8216C87.527 21.336 85.9945 20.1916 84.1675 19.596Z" fill="#1B3C87"/>
<path d="M77.7832 18.9203C77.7096 18.7263 77.81 18.5121 78.0041 18.4385C78.1982 18.3649 78.4123 18.4653 78.4859 18.6593C78.5662 18.8735 78.6265 19.101 78.6666 19.3219L78.6733 19.3553C78.7135 19.5762 78.7268 19.7903 78.7268 20.0045V20.1985C78.7201 21.2827 78.2852 22.2664 77.5758 22.9758C76.8664 23.6852 75.8827 24.1268 74.7985 24.1268H50.178C49.9705 24.1268 49.8032 23.9595 49.8032 23.7521C49.8032 23.5446 49.9705 23.3773 50.178 23.3773H74.7985C75.6752 23.3773 76.4649 23.0159 77.0471 22.4404C77.6226 21.8649 77.9773 21.0685 77.984 20.1985V20.0045C77.984 19.8238 77.9706 19.6498 77.9438 19.4825L77.9372 19.449C77.897 19.275 77.8435 19.0943 77.7832 18.9203Z" fill="#1B3C87"/>
<path d="M47.2468 142.384C47.0394 142.384 46.8721 142.217 46.8721 142.01C46.8721 141.802 47.0394 141.635 47.2468 141.635H75.1599C75.3674 141.635 75.5347 141.802 75.5347 142.01C75.5347 142.217 75.3674 142.384 75.1599 142.384H47.2468Z" fill="#1B3C87"/>
<path fill-rule="evenodd" clip-rule="evenodd" d="M48.679 83.0515C49.308 86.6586 49.6627 96.7169 49.134 101.957C51.1484 103.65 59.982 105.183 65.8578 102.907C65.0614 99.9961 64.6398 93.063 65.3291 88.8336C61.5681 87.4617 48.679 83.0515 48.679 83.0515Z" fill="white"/>
<path d="M48.2307 93.8324C48.2307 93.6249 48.398 93.4576 48.6055 93.4576C48.8129 93.4576 48.9802 93.6249 48.9802 93.8324C48.9869 95.2578 48.9735 96.6498 48.9267 97.9414C48.8865 99.059 48.8263 100.103 48.7393 101.006C49.3617 101.455 50.5194 101.89 51.985 102.231C53.5108 102.592 55.3579 102.84 57.2718 102.894C57.4793 102.9 57.6399 103.068 57.6332 103.275C57.6265 103.483 57.4592 103.643 57.2518 103.636C55.2709 103.583 53.377 103.329 51.811 102.961C50.1112 102.559 48.7728 102.024 48.1036 101.461C48.0166 101.381 47.963 101.267 47.9764 101.14C48.0701 100.197 48.137 99.1058 48.1772 97.9146C48.224 96.6297 48.2374 95.2445 48.2307 93.8324Z" fill="#1B3C87"/>
<path d="M65.4295 102.024C65.483 102.225 65.3692 102.425 65.1685 102.485C64.9677 102.539 64.7669 102.425 64.7134 102.225C64.2851 100.665 63.9706 97.9884 63.8635 95.1776C63.7765 92.7818 63.8367 90.279 64.1312 88.2914C60.6044 87.0132 50.8539 83.6738 48.3644 82.8172C48.4447 83.4061 48.525 84.1155 48.5986 84.9118C48.699 86.0294 48.7793 87.3076 48.8462 88.6594C48.8596 88.8669 48.699 89.0409 48.4915 89.0476C48.2841 89.061 48.1101 88.9004 48.1034 88.6929C48.0432 87.3344 47.9562 86.0696 47.8625 84.9721C47.7688 83.9214 47.6617 83.0179 47.5413 82.3353C47.5279 82.2684 47.5279 82.2015 47.5546 82.1346C47.6216 81.9405 47.8357 81.8334 48.0298 81.9003C48.0699 81.9137 60.8587 86.2904 64.6732 87.6824C64.8406 87.7426 64.9543 87.9099 64.9209 88.0973C64.5996 90.0782 64.526 92.6614 64.613 95.1442C64.7067 97.908 65.0212 100.518 65.4295 102.024Z" fill="#1B3C87"/>
<path d="M61.3072 91.3632C71.0535 91.3632 78.9545 80.8286 78.9545 67.8335C78.9545 54.8384 71.0535 44.3038 61.3072 44.3038C51.5609 44.3038 43.6599 54.8384 43.6599 67.8335C43.6599 80.8286 51.5609 91.3632 61.3072 91.3632Z" fill="white"/>
<path d="M74.6648 79.4041C74.7518 79.2167 74.9793 79.1431 75.1667 79.2301C75.3541 79.3171 75.4277 79.5447 75.3407 79.732C73.7145 83.0647 71.4726 85.8286 68.8292 87.7359C66.2661 89.5896 63.3282 90.6403 60.2097 90.6403C59.4936 90.6403 58.7775 90.5801 58.0548 90.473C57.3387 90.3592 56.636 90.1919 55.9534 89.9711C55.7594 89.9108 55.6456 89.6967 55.7125 89.5026C55.7727 89.3085 55.9869 89.1948 56.181 89.2617C56.8301 89.4692 57.4993 89.6298 58.1685 89.7368C58.8378 89.8439 59.5204 89.8975 60.203 89.8975C63.1609 89.8975 65.9516 88.9003 68.3875 87.1336C70.9305 85.2932 73.0921 82.6298 74.6648 79.4041Z" fill="#1B3C87"/>
<path d="M44.3492 75.9376C44.4161 76.1317 44.3023 76.3458 44.1083 76.4061C43.9142 76.4663 43.7 76.3592 43.6398 76.1651C43.158 74.6661 42.7966 73.1202 42.549 71.5609C42.3014 69.9949 42.1809 68.4156 42.1809 66.8362V66.7425C42.1809 60.1641 44.1886 54.2014 47.4276 49.8782C50.6934 45.5283 55.2106 42.8381 60.203 42.8381C65.202 42.8381 69.7192 45.5283 72.9783 49.8782C76.2173 54.2014 78.225 60.1641 78.225 66.7425V66.7961C78.225 68.0475 78.1447 69.299 77.9975 70.5437C77.8435 71.7885 77.616 73.0265 77.3149 74.2512C77.268 74.4519 77.0606 74.5724 76.8598 74.5256C76.659 74.4787 76.5386 74.2712 76.5854 74.0705C76.8799 72.8793 77.1007 71.6747 77.2479 70.45C77.3952 69.2387 77.4688 68.0141 77.4688 66.7894V66.7359C77.4688 60.3181 75.5214 54.5159 72.376 50.3199C69.2508 46.1574 64.9477 43.5809 60.1963 43.5809C55.4448 43.5809 51.1417 46.1574 48.0165 50.3199C44.8712 54.5159 42.9237 60.3181 42.9237 66.7359V66.8295C42.9237 68.3821 43.0442 69.9213 43.2784 71.4405C43.526 72.9663 43.8807 74.4653 44.3492 75.9376Z" fill="#1B3C87"/>
<path d="M70.6627 70.2158C71.2134 70.2158 71.6598 69.2121 71.6598 67.9739C71.6598 66.7358 71.2134 65.7321 70.6627 65.7321C70.112 65.7321 69.6655 66.7358 69.6655 67.9739C69.6655 69.2121 70.112 70.2158 70.6627 70.2158Z" fill="#1B3C87"/>
<path d="M64.7401 71.668C64.6932 71.4673 64.8137 71.2665 65.0144 71.213C65.2152 71.1661 65.416 71.2866 65.4695 71.4873C65.6904 72.3774 66.0116 73.3143 66.4666 74.1642C66.8414 74.8602 67.2965 75.496 67.8653 75.9979C68.0192 76.1317 68.0326 76.3726 67.8988 76.5266C67.7649 76.6805 67.524 76.6939 67.3701 76.56C66.7343 75.9979 66.219 75.2885 65.8108 74.5122C65.3156 73.6021 64.9743 72.6049 64.7401 71.668Z" fill="#1B3C87"/>
<path d="M64.3052 68.4892C64.3052 68.2817 64.4725 68.1144 64.6799 68.1144C64.8874 68.1144 65.0547 68.2817 65.0547 68.4892C65.0547 68.6431 65.0614 68.8037 65.0681 68.971C65.0815 69.1383 65.0949 69.3123 65.1082 69.4796C65.1283 69.6871 64.9811 69.8678 64.7736 69.8946C64.5662 69.9146 64.3855 69.7674 64.3587 69.56C64.3386 69.3793 64.3253 69.1986 64.3119 69.0112C64.3119 68.8439 64.3119 68.6699 64.3052 68.4892Z" fill="#1B3C87"/>
<path d="M59.5268 80.3142C59.5268 79.9194 59.3662 79.5647 59.1119 79.3104C58.8576 79.0561 58.5029 78.8955 58.1081 78.8955C57.7132 78.8955 57.3586 79.0561 57.1043 79.3104C56.8499 79.5647 56.6893 79.9194 56.6893 80.3142C56.6893 80.7024 56.8499 81.0637 57.1043 81.318C57.3586 81.5723 57.7132 81.7329 58.1081 81.7329C58.5029 81.7329 58.8576 81.5723 59.1119 81.318C59.3662 81.0637 59.5268 80.709 59.5268 80.3142ZM59.6406 78.7817C60.0354 79.1765 60.2763 79.7186 60.2763 80.3142C60.2763 80.9098 60.0354 81.4519 59.6406 81.8467C59.2458 82.2416 58.7037 82.4825 58.1081 82.4825C57.5125 82.4825 56.9704 82.2416 56.5756 81.8467C56.1807 81.4519 55.9398 80.9098 55.9398 80.3142C55.9398 79.7186 56.1807 79.1698 56.5756 78.7817C56.9704 78.3935 57.5125 78.1459 58.1081 78.1459C58.7104 78.1459 59.2524 78.3935 59.6406 78.7817Z" fill="#1B3C87"/>
<path fill-rule="evenodd" clip-rule="evenodd" d="M65.155 49.296C65.1684 49.3763 65.1885 49.4633 65.222 49.5369C66.0919 52.1268 75.1732 68.5159 79.3759 71.4471C79.5231 68.884 79.7774 58.3438 78.1312 55.3591C76.4916 52.3744 69.6789 44.5178 67.5374 44.5178C65.4026 44.5178 65.155 49.3495 65.155 49.3495V49.296Z" fill="#FB5D64"/>
<path d="M74.27 66.4348C74.1495 66.2675 74.1896 66.0333 74.357 65.9128C74.5243 65.7924 74.7585 65.8325 74.8789 65.9998C75.2671 66.5419 75.6686 67.0639 76.0768 67.5658C76.4918 68.0744 76.9201 68.5696 77.3684 69.0582C77.509 69.2121 77.4956 69.4463 77.3484 69.5868C77.1944 69.7274 76.9602 69.714 76.8197 69.5668C76.3713 69.0782 75.9296 68.5696 75.5013 68.041C75.0596 67.5056 74.6514 66.9702 74.27 66.4348Z" fill="#1B3C87"/>
<path d="M63.8433 48.4126C63.8099 48.2051 63.9504 48.0178 64.1512 47.9843C64.3586 47.9508 64.546 48.0914 64.5795 48.2988C64.5861 48.3256 64.5928 48.3524 64.5995 48.3858C64.6062 48.4193 64.6196 48.4461 64.6263 48.4728L64.633 48.4862C64.9274 49.3629 66.2057 51.8858 67.9189 54.9442C69.3376 57.4671 71.0441 60.3381 72.7439 62.9212C72.8577 63.0952 72.8108 63.3228 72.6368 63.4365C72.4628 63.5503 72.2353 63.5035 72.1215 63.3295C70.4016 60.7128 68.6818 57.8285 67.263 55.3055C65.5297 52.2137 64.2315 49.6373 63.9169 48.7204C63.8968 48.6669 63.8835 48.62 63.8701 48.5732C63.8634 48.5264 63.85 48.4728 63.8433 48.4126Z" fill="#1B3C87"/>
<path fill-rule="evenodd" clip-rule="evenodd" d="M69.3109 44.3037C69.3109 45.8696 54.9963 72.9997 47.6951 76.7942C44.6903 78.7952 38.9016 79.5112 38.9016 77.9386C38.9016 76.3659 41.6922 49.3897 47.6349 46.3046C53.5776 43.2262 62.2975 39.6526 69.3109 44.3037Z" fill="#FF5670"/>
<path d="M61.6016 56.2761C61.7086 56.0954 61.9362 56.0351 62.1102 56.1422C62.2909 56.2493 62.3511 56.4768 62.244 56.6508C59.6073 61.1881 56.5021 66.0935 53.5643 69.9147C51.2086 72.9797 48.9533 75.3689 47.0996 76.3325C46.4505 76.7608 45.6675 77.1356 44.8443 77.4434C43.9476 77.778 42.9973 78.0323 42.1072 78.193C41.9065 78.2264 41.7124 78.0926 41.6722 77.8851C41.6388 77.6844 41.7726 77.4903 41.9734 77.4501C42.83 77.2962 43.7334 77.0553 44.5833 76.7408C45.3529 76.453 46.0824 76.0983 46.6981 75.6968C46.7115 75.6901 46.7181 75.6834 46.7315 75.6767C48.4782 74.7666 50.6665 72.4511 52.9686 69.453C55.8931 65.6585 58.9782 60.7866 61.6016 56.2761Z" fill="#1B3C87"/>
<path d="M68.1532 43.5206C68.1532 43.3132 68.3205 43.1459 68.5279 43.1459C68.7354 43.1459 68.9027 43.3132 68.9027 43.5206C68.9027 43.7749 68.6484 44.4709 68.1866 45.4814C67.7449 46.4451 67.1226 47.7166 66.353 49.2023C66.2593 49.383 66.0317 49.4566 65.8511 49.3629C65.6704 49.2692 65.5968 49.0417 65.6904 48.861C66.46 47.3753 67.0824 46.1172 67.5107 45.1736C67.9256 44.2635 68.1532 43.6746 68.1532 43.5206Z" fill="#1B3C87"/>
<path d="M48.8502 79.0281C50.6195 77.2588 50.6195 74.3902 48.8502 72.6209C47.0809 70.8516 44.2123 70.8516 42.443 72.6209C40.6737 74.3902 40.6737 77.2588 42.443 79.0281C44.2123 80.7974 47.0809 80.7974 48.8502 79.0281Z" fill="white"/>
<path d="M43.5261 71.1109C43.3387 71.1979 43.1179 71.1109 43.0309 70.9168C42.9506 70.7295 43.0309 70.5086 43.225 70.4216C43.5328 70.2878 43.8607 70.1807 44.1953 70.1071C44.5299 70.0335 44.8712 70 45.2058 70C45.6944 70 46.1762 70.0736 46.638 70.2142C47.0997 70.3547 47.5481 70.5688 47.9496 70.8365C48.1236 70.9503 48.1638 71.1845 48.05 71.3585C47.9363 71.5325 47.702 71.5727 47.528 71.4589C47.18 71.2247 46.812 71.0507 46.4238 70.9302C46.0357 70.8098 45.6275 70.7495 45.2058 70.7495C44.9114 70.7495 44.6236 70.7763 44.3493 70.8365C44.0682 70.9034 43.7871 70.9904 43.5261 71.1109Z" fill="#1B3C87"/>
<path d="M46.0422 79.0295C46.2429 78.9693 46.4504 79.0831 46.5039 79.2838C46.5642 79.4846 46.4504 79.692 46.2496 79.7456C46.0221 79.8125 45.7946 79.8593 45.567 79.8928C45.3328 79.9263 45.0986 79.9464 44.871 79.9464C43.5125 79.9464 42.2879 79.3976 41.3978 78.5075C40.5077 77.6175 39.959 76.3928 39.959 75.0343C39.959 74.8201 39.9724 74.606 40.0058 74.3851C40.0326 74.171 40.0794 73.9568 40.133 73.7427C40.1865 73.5419 40.394 73.4282 40.5881 73.4817C40.7888 73.5352 40.9026 73.7427 40.849 73.9368C40.8022 74.1108 40.762 74.2915 40.742 74.4788C40.7152 74.6595 40.7085 74.8402 40.7085 75.0276C40.7085 76.1787 41.177 77.2159 41.9265 77.9655C42.676 78.7217 43.72 79.1834 44.8644 79.1834C45.0651 79.1834 45.2592 79.1701 45.4533 79.1433C45.6607 79.1232 45.8548 79.0831 46.0422 79.0295Z" fill="#1B3C87"/>
</svg>
