<svg width="116" height="150" viewBox="0 0 116 150" fill="none" xmlns="http://www.w3.org/2000/svg">
<g clip-path="url(#clip0)">
<path fill-rule="evenodd" clip-rule="evenodd" d="M17.3274 97.8546C17.2001 99.1046 14.7729 117.146 14.2683 121.518C13.7683 125.891 10.5047 137.291 9.57288 138.873C10.5456 139.477 13.432 141.086 13.432 141.086C13.432 141.086 22.2229 127.536 22.582 126.25C22.9411 124.964 24.4683 118.723 24.4683 118.723L22.3638 96.6455L17.3274 97.8546Z" fill="#3B3744"/>
<path fill-rule="evenodd" clip-rule="evenodd" d="M77.2453 27.259C86.1544 34.8681 93.0271 44.759 92.7226 54.2272C92.418 63.6954 84.9635 72.8045 78.5226 81.109C72.0816 89.4136 66.6453 96.8681 58.5589 101.918C50.4726 106.968 39.7635 109.532 31.0271 106.427C22.2907 103.323 15.5271 94.5681 11.2362 85.2909C6.94529 76.0136 5.05893 66.1909 8.44074 59.1045C11.8226 52.0181 20.4726 47.6363 27.6907 39.7454C34.9089 31.8545 40.718 20.3863 49.0817 17.35C57.4453 14.3136 68.3589 19.65 77.2453 27.259Z" fill="#F0F0F0"/>
<path fill-rule="evenodd" clip-rule="evenodd" d="M16.2182 74.9818C15.6273 74.15 14.2864 70.5591 14.2864 69.8546C14.2864 69.15 18.3591 54.95 18.6182 53.7409C18.8773 52.5318 18.8682 49.1182 18.6182 47.9955C18.7273 47.5773 19.0136 47.4409 19.0909 47.6955C19.2909 47.8545 20.4136 48.5273 20.4136 48.5273C20.4136 48.5273 23.0409 52.15 22.4546 52.9682C21.9773 53.6182 21.55 54.3091 21.2 55.0318C21.0591 55.9455 18.9818 67.7046 19.0864 68.4591C19.1909 69.2136 21.2818 73.0182 21.3364 73.2864C20.8773 73.5273 16.4864 75.2637 16.2182 74.9818Z" fill="white"/>
<path d="M16.15 60.5272C16.1273 60.609 16.0455 60.6545 15.9637 60.6318C15.8818 60.609 15.8364 60.5272 15.8591 60.4454L16.2955 58.8681C17.0864 56.0181 17.7682 53.5727 17.8637 53.1045C17.9864 52.5136 18.0455 51.3682 18.0455 50.2318C18.0455 49.0954 17.9864 47.9727 17.8637 47.4227C17.8591 47.4 17.8591 47.3727 17.8637 47.3545C17.9182 47.1454 18.0137 46.9954 18.1137 46.9091C18.1682 46.8591 18.2318 46.8273 18.2909 46.8182C18.3637 46.8045 18.4364 46.8182 18.5 46.8591C18.5591 46.9 18.6046 46.9591 18.6273 47.05C18.65 47.1318 18.6046 47.2136 18.5227 47.2363C18.4409 47.2591 18.3591 47.2136 18.3364 47.1363L18.3318 47.1227C18.3273 47.1273 18.3182 47.1318 18.3091 47.1409C18.2546 47.1863 18.2 47.2773 18.1637 47.4C18.2864 47.9863 18.3455 49.1091 18.3455 50.2363C18.3455 51.3863 18.2818 52.5545 18.1546 53.1681C18.0546 53.6454 17.3773 56.0954 16.5818 58.95L16.15 60.5272Z" fill="#1B3C87"/>
<path d="M15.7364 74.2909C15.7864 74.3591 15.7683 74.4545 15.7001 74.5C15.6319 74.55 15.5364 74.5318 15.491 74.4636C15.191 74.0409 14.7046 72.9409 14.2955 71.85C13.8728 70.7364 13.5273 69.6227 13.5273 69.2455C13.5273 69.1 13.6773 68.4682 13.9183 67.5318C14.1546 66.6136 14.4864 65.3864 14.8592 64.0318C14.8819 63.95 14.9637 63.9046 15.0455 63.9273C15.1273 63.95 15.1728 64.0318 15.1501 64.1136C14.7819 65.4591 14.4501 66.6818 14.2092 67.6091C13.9728 68.5182 13.8273 69.1227 13.8273 69.2455C13.8273 69.5864 14.1637 70.6546 14.5728 71.7409C14.9819 72.8182 15.4546 73.8909 15.7364 74.2909Z" fill="#1B3C87"/>
<path d="M83.0264 -0.000917448L11.4586 18.399L27.8756 82.254L99.4434 63.854L83.0264 -0.000917448Z" fill="#EEF5FF"/>
<path d="M30.1317 13.5981L11.4573 18.3993L27.8743 82.2542L46.5487 77.4531L30.1317 13.5981Z" fill="#BFDAFF"/>
<path d="M23.1729 31.2227C26.4716 31.2227 29.1456 28.5486 29.1456 25.25C29.1456 21.9513 26.4716 19.2772 23.1729 19.2772C19.8743 19.2772 17.2002 21.9513 17.2002 25.25C17.2002 28.5486 19.8743 31.2227 23.1729 31.2227Z" fill="#EAF0FF"/>
<path d="M32.58 32.4506L18.5455 36.0588L18.8919 37.4059L32.9263 33.7977L32.58 32.4506Z" fill="#EAF0FF"/>
<path d="M33.4158 35.6959L19.3813 39.3041L19.7277 40.6512L33.7621 37.043L33.4158 35.6959Z" fill="#EAF0FF"/>
<path d="M49.7181 41.6182C50.6343 41.6182 51.3771 40.8754 51.3771 39.9591C51.3771 39.0428 50.6343 38.3 49.7181 38.3C48.8018 38.3 48.059 39.0428 48.059 39.9591C48.059 40.8754 48.8018 41.6182 49.7181 41.6182Z" fill="#B2C3FB"/>
<path d="M80.034 31.4453L53.431 38.2848L53.7774 39.6319L80.3803 32.7924L80.034 31.4453Z" fill="#D8DFFF"/>
<path d="M74.0007 7.97071L41.8817 16.2285L47.3077 37.3329L79.4267 29.0752L74.0007 7.97071Z" fill="white"/>
<path d="M57.3909 71.4727C58.3072 71.4727 59.05 70.7299 59.05 69.8136C59.05 68.8973 58.3072 68.1545 57.3909 68.1545C56.4746 68.1545 55.7318 68.8973 55.7318 69.8136C55.7318 70.7299 56.4746 71.4727 57.3909 71.4727Z" fill="#B2C3FB"/>
<path d="M87.7112 61.3L61.1083 68.1395L61.4546 69.4866L88.0575 62.6471L87.7112 61.3Z" fill="#D8DFFF"/>
<path d="M82.119 38.0001L50 46.2578L55.4259 67.3623L87.5449 59.1046L82.119 38.0001Z" fill="white"/>
<path fill-rule="evenodd" clip-rule="evenodd" d="M8.83642 140.041L7.35006 142.659L5.49097 144.091L10.5728 150H14.7455L12.0273 145.809L12.4864 142.118L8.83642 140.041Z" fill="white"/>
<path fill-rule="evenodd" clip-rule="evenodd" d="M27.9362 144.209L28.668 146.859L28.1498 150H39.3771L32.7862 146.109L32.9452 144.209H27.9362Z" fill="white"/>
<path d="M13.9544 116C13.9635 115.918 14.0408 115.859 14.1226 115.868C14.2044 115.877 14.2635 115.955 14.2544 116.036C14.1362 116.959 14.0181 117.877 13.9044 118.805C13.8044 119.618 13.7226 120.295 13.6635 120.782C13.4317 122.818 12.6044 126.359 11.6908 129.736C10.6772 133.477 9.55897 137.014 9.01806 138.064C9.94988 138.632 12.0908 139.832 12.6272 140.132C13.4817 138.814 21.3499 126.655 21.6817 125.455C22.0271 124.214 23.459 118.377 23.5635 117.955L21.4771 96.0818L16.7044 97.2227C16.6181 97.9681 16.2181 101.027 15.7271 104.741L15.3272 107.782C15.3181 107.864 15.2408 107.923 15.159 107.914C15.0772 107.905 15.0181 107.827 15.0272 107.745L15.4271 104.705C15.9453 100.777 16.3635 97.5863 16.4135 97.0863C16.4181 97.0227 16.4635 96.9681 16.5271 96.9545L21.5635 95.7499C21.5726 95.7454 21.5817 95.7454 21.5908 95.7454C21.6726 95.7363 21.7453 95.7999 21.7544 95.8818L23.859 117.945C23.8635 117.964 23.859 117.982 23.8544 118.005C23.8499 118.023 22.3271 124.241 21.9681 125.536C21.6044 126.85 12.8226 140.377 12.7953 140.418C12.7544 140.482 12.6635 140.505 12.5953 140.468C12.5862 140.464 9.72261 138.864 8.74079 138.255L8.73625 138.25C8.66352 138.209 8.64079 138.114 8.6817 138.045C9.17716 137.214 10.3408 133.555 11.3908 129.664C12.2999 126.3 13.1226 122.773 13.3544 120.755C13.4135 120.245 13.4953 119.573 13.5953 118.777C13.6908 118.082 13.8135 117.127 13.9544 116Z" fill="#1B3C87"/>
<path d="M26.0544 142.536C25.9726 142.536 25.9044 142.468 25.9044 142.386C25.9044 142.304 25.9726 142.236 26.0544 142.236H33.4953C33.5772 142.236 33.6453 142.304 33.6453 142.386C33.6453 142.468 33.5772 142.536 33.4953 142.536H26.0544Z" fill="#1B3C87"/>
<path d="M26.0544 143.759C25.9726 143.759 25.9044 143.691 25.9044 143.609C25.9044 143.527 25.9726 143.459 26.0544 143.459H33.4953C33.5772 143.459 33.6453 143.527 33.6453 143.609C33.6453 143.691 33.5772 143.759 33.4953 143.759H26.0544Z" fill="#1B3C87"/>
<path d="M37.4046 149.55C37.3228 149.55 37.2546 149.482 37.2546 149.4C37.2546 149.318 37.3228 149.25 37.4046 149.25H38.2228L32.1046 145.636C32.0546 145.605 32.0273 145.55 32.0319 145.495L32.191 143.595C32.2 143.514 32.2728 143.45 32.3546 143.459C32.4364 143.464 32.5 143.541 32.491 143.623L32.341 145.427L38.841 149.264C38.891 149.291 38.9228 149.341 38.9228 149.395C38.9228 149.477 38.8546 149.545 38.7728 149.545H37.4046V149.55Z" fill="#1B3C87"/>
<path d="M27.1864 143.65C27.1637 143.568 27.2091 143.487 27.2909 143.464C27.3727 143.441 27.4546 143.487 27.4773 143.568L28.2091 146.214C28.2137 146.237 28.2182 146.259 28.2137 146.277L27.7273 149.246H34.1318C34.2136 149.246 34.2818 149.314 34.2818 149.396C34.2818 149.477 34.2136 149.546 34.1318 149.546H27.55C27.5409 149.546 27.5364 149.546 27.5273 149.541C27.4455 149.527 27.3909 149.45 27.4046 149.368L27.9137 146.255L27.1864 143.65Z" fill="#1B3C87"/>
<path d="M7.79075 137.741C7.71802 137.7 7.69529 137.609 7.73166 137.536C7.76802 137.464 7.86348 137.441 7.9362 137.477L13.1908 140.468C13.2635 140.509 13.2862 140.6 13.2453 140.673C13.2044 140.745 13.1135 140.768 13.0407 140.727L7.79075 137.741Z" fill="#1B3C87"/>
<path d="M7.26823 139.064C7.1955 139.023 7.17277 138.932 7.21368 138.859C7.25459 138.787 7.3455 138.764 7.41823 138.8L12.6728 141.791C12.7455 141.832 12.7682 141.923 12.7273 141.996C12.6864 142.068 12.5955 142.091 12.5228 142.055L7.26823 139.064Z" fill="#1B3C87"/>
<path d="M11.9091 145.677C11.9546 145.745 11.9364 145.841 11.8637 145.886C11.7955 145.932 11.7 145.914 11.6546 145.841L11.2955 145.286C11.2773 145.255 11.2682 145.223 11.2728 145.186L11.7319 141.5C11.7409 141.418 11.8182 141.359 11.9 141.368C11.9819 141.377 12.0409 141.455 12.0319 141.536L11.5819 145.173L11.9091 145.677Z" fill="#1B3C87"/>
<path d="M7.10008 141.123C7.14099 141.05 7.2319 141.027 7.30463 141.064C7.37735 141.105 7.40008 141.196 7.35917 141.268L6.87281 142.127C6.86372 142.146 6.84553 142.164 6.8319 142.177L5.10008 143.509L10.0364 149.246H13.8637L12.9364 147.818C12.891 147.75 12.9092 147.655 12.9819 147.609C13.0501 147.564 13.1455 147.582 13.191 147.655L14.2637 149.309C14.2819 149.337 14.2955 149.368 14.2955 149.4C14.2955 149.482 14.2273 149.55 14.1455 149.55H9.97281C9.9319 149.55 9.88644 149.532 9.85917 149.496L4.76826 143.582C4.71826 143.518 4.7319 143.423 4.79554 143.373L6.6319 141.959L7.10008 141.123Z" fill="#1B3C87"/>
<path fill-rule="evenodd" clip-rule="evenodd" d="M19.5498 98.9454C19.5498 99.6999 20.1771 108.668 22.3271 115.768C23.7453 122.55 27.8634 143.141 27.8634 143.141H33.0998L31.2135 97.1408L19.5498 98.9454Z" fill="#3B3744"/>
<path d="M24.3228 129.277C24.3091 129.195 24.3591 129.118 24.441 129.1C24.5228 129.082 24.6001 129.136 24.6182 129.218C25.9001 135.591 27.0501 141.336 27.2319 142.236H32.1864L30.3182 96.5636L18.9501 98.3272C18.9819 99.1681 19.2546 102.859 19.9682 107.177C20.3864 109.714 20.9546 112.464 21.7182 114.977C21.7182 114.986 21.7228 114.991 21.7228 115C21.8728 115.723 22.0637 116.632 22.2773 117.677C22.4955 118.745 22.7501 119.986 23.0273 121.345C23.0455 121.427 22.991 121.505 22.9091 121.523C22.8273 121.541 22.7501 121.486 22.7319 121.405C22.4682 120.114 22.2182 118.877 21.9819 117.736C21.7728 116.727 21.5864 115.818 21.4273 115.059C20.6637 112.532 20.091 109.768 19.6682 107.223C18.9046 102.6 18.6455 98.6863 18.6455 98.1954C18.6455 98.1227 18.7001 98.059 18.7728 98.0454L30.4319 96.2363C30.441 96.2363 30.4455 96.2318 30.4546 96.2318C30.5364 96.2272 30.6092 96.2954 30.6092 96.3772L32.4955 142.382C32.4955 142.464 32.4273 142.532 32.3455 142.532H27.1092C27.041 142.532 26.9773 142.482 26.9592 142.409C26.9546 142.395 25.6682 135.95 24.3228 129.277Z" fill="#1B3C87"/>
<path fill-rule="evenodd" clip-rule="evenodd" d="M37.4772 78.6636C38.6817 79.3046 42.5226 81.0409 42.9863 81.0409C43.4499 81.0409 50.0772 78.8546 50.4272 78.1864C50.7772 77.5182 51.1408 75.7364 51.7454 75.5591C52.3499 75.3818 52.009 76.9455 52.009 76.9455C52.3681 76.8273 58.0363 75.35 58.009 75.3818C58.159 76.1909 55.0908 78.4955 54.7726 78.5773C53.1954 80.3455 43.3772 85.85 42.9544 85.85C42.5272 85.85 35.8954 84.0409 35.4772 83.8864C35.5635 83.2682 36.9044 79.0955 37.4772 78.6636Z" fill="white"/>
<path d="M21.2454 53.7682C21.1954 53.8364 21.1 53.85 21.0363 53.8C20.9682 53.75 20.9545 53.6546 21.0045 53.5909L21.0227 53.5682C21.3818 53.0864 21.7727 52.5636 21.7545 51.8455C21.7545 51.7636 21.8182 51.6955 21.9 51.6909C21.9818 51.6909 22.05 51.7546 22.0545 51.8364C22.0773 52.6591 21.65 53.2273 21.2636 53.7455L21.2454 53.7682Z" fill="#1B3C87"/>
<path d="M20.7682 72.3727C20.7955 72.45 20.7501 72.5363 20.6728 72.5636C20.5955 72.5909 20.5091 72.5454 20.4819 72.4682C20.3637 72.1045 19.991 71.3818 19.591 70.6136C19.0046 69.4863 18.3637 68.2454 18.3364 67.7545C18.3182 67.4409 18.5955 65.5454 18.9546 63.2863C19.491 59.9318 20.2046 55.7636 20.4001 54.7954C20.4182 54.7136 20.4955 54.6591 20.5773 54.6772C20.6591 54.6909 20.7137 54.7727 20.6955 54.8545C20.5001 55.8272 19.7864 59.9909 19.2546 63.3363C18.8955 65.5772 18.6228 67.45 18.641 67.7409C18.6682 68.1682 19.291 69.3772 19.8637 70.4772C20.2637 71.2545 20.641 71.9818 20.7682 72.3727Z" fill="#1B3C87"/>
<path fill-rule="evenodd" clip-rule="evenodd" d="M21.4365 83.291C19.3502 84.1955 14.6456 76.6955 15.6684 75.5C17.1002 73.8546 21.1274 72.5909 22.5093 73.1228C23.2047 74.0773 24.9865 81.7591 21.4365 83.291Z" fill="#FF5670"/>
<path d="M20.8773 82.8319C20.2773 83.0819 19.5091 82.7364 18.7227 82.0637C18.0545 81.491 17.3682 80.6819 16.7545 79.8046C16.1455 78.9319 15.6091 77.9955 15.25 77.1637C14.7864 76.091 14.6182 75.1864 14.95 74.8001C15.6591 73.9819 16.9864 73.2592 18.3273 72.7955C19.7591 72.3001 21.2136 72.0955 21.9591 72.3819C21.9909 72.3955 22.0136 72.4137 22.0318 72.441C22.0909 72.5228 22.1546 72.6455 22.2227 72.7955C22.5864 73.6364 23.0591 75.5682 23.1182 77.5273C23.1773 79.5091 22.8046 81.5228 21.4636 82.5001C21.2864 82.6273 21.1 82.7364 20.8955 82.8273L20.8773 82.8319ZM18.9182 81.8319C19.6182 82.4319 20.2818 82.7546 20.7636 82.5501L20.7727 82.5455C20.9591 82.4637 21.1318 82.3682 21.2864 82.2546C22.5318 81.3455 22.8727 79.4273 22.8182 77.5319C22.7636 75.6137 22.3 73.7273 21.9455 72.9092C21.8955 72.7955 21.85 72.7046 21.8091 72.641C21.1182 72.4046 19.7682 72.6046 18.4273 73.0728C17.1318 73.5228 15.8545 74.2137 15.1818 74.991C14.9364 75.2819 15.1091 76.0728 15.5318 77.041C15.8818 77.8501 16.4091 78.7682 17.0045 79.6273C17.6 80.4864 18.2727 81.2773 18.9182 81.8319Z" fill="#1B3C87"/>
<path d="M40.3365 85.0273C40.2547 85.0092 40.2047 84.9273 40.2228 84.8455C40.241 84.7637 40.3228 84.7137 40.4047 84.7319C40.8774 84.841 41.3047 84.9319 41.641 84.9955C41.9456 85.0546 42.1683 85.0864 42.2819 85.0864C42.6956 85.0864 45.7228 83.441 48.641 81.6546C50.9501 80.241 53.1865 78.7455 53.991 77.9046C54.0001 77.8955 54.0137 77.8864 54.0228 77.8773C54.8592 77.391 55.5501 76.8819 56.0819 76.3819C56.6683 75.841 57.0637 75.3137 57.2728 74.8682C57.3092 74.7909 57.3956 74.7591 57.4728 74.7955C57.5501 74.8319 57.5819 74.9182 57.5456 74.9955C57.3228 75.4773 56.9001 76.0364 56.2865 76.6046C55.741 77.1137 55.041 77.6319 54.191 78.1273C53.3547 78.9864 51.1092 80.4955 48.7956 81.9091C45.8365 83.7182 42.7365 85.3864 42.2774 85.3864C42.1501 85.3864 41.9047 85.3501 41.5819 85.291C41.241 85.2319 40.8092 85.141 40.3365 85.0273Z" fill="#1B3C87"/>
<path d="M35.0544 83.5955C34.9771 83.5682 34.9362 83.4773 34.968 83.4C34.9998 83.3228 35.0862 83.2819 35.1635 83.3137C35.318 83.3728 35.5771 83.4546 35.9044 83.5546C36.2635 83.6591 36.6862 83.7819 37.1407 83.9046C37.2226 83.9273 37.268 84.0091 37.2453 84.091C37.2226 84.1728 37.1407 84.2182 37.0589 84.1955C36.5817 84.0637 36.1544 83.9455 35.818 83.8455C35.4816 83.7455 35.218 83.6591 35.0544 83.5955Z" fill="#1B3C87"/>
<path d="M46.5229 79.2819C46.4456 79.3091 46.3592 79.2682 46.3274 79.1909C46.3002 79.1137 46.3411 79.0273 46.4183 78.9955C47.3092 78.6682 48.1774 78.3273 48.8047 78.0364C49.3002 77.8046 49.6365 77.6182 49.6956 77.5046L49.7002 77.4955C49.8093 77.2864 49.9229 76.9637 50.0411 76.6182C50.3093 75.8364 50.6229 74.9455 51.1047 74.8C51.9593 74.5501 51.5593 76.3591 51.5593 76.3637C51.5411 76.4455 51.4638 76.4955 51.382 76.4819C51.3002 76.4682 51.2502 76.3864 51.2638 76.3046C51.2638 76.3 51.5502 74.9864 51.1911 75.091C50.8547 75.191 50.5729 76.0046 50.3274 76.7182C50.2047 77.0773 50.0865 77.4137 49.9684 77.6364L49.9638 77.6455C49.8729 77.8182 49.4865 78.05 48.9365 78.3091C48.2956 78.6046 47.4229 78.95 46.5229 79.2819Z" fill="#1B3C87"/>
<path d="M36.8046 78.191C36.7319 78.1546 36.7046 78.0637 36.741 77.9864C36.7774 77.9092 36.8683 77.8864 36.9456 77.9228C37.6183 78.2773 39.1183 78.9819 40.3865 79.5273C41.3547 79.9455 42.1819 80.2728 42.3774 80.2819C42.5047 80.2591 42.6365 80.2319 42.7637 80.2C42.9001 80.1637 43.0365 80.1273 43.1683 80.0819C43.2456 80.0546 43.3319 80.1 43.3592 80.1773C43.3865 80.2546 43.341 80.341 43.2637 80.3682C43.1228 80.4137 42.9819 80.4546 42.8365 80.491C42.7001 80.5273 42.5592 80.5546 42.4183 80.5773C42.4047 80.5819 42.3956 80.5819 42.3819 80.5819C42.1547 80.5819 41.2774 80.241 40.2637 79.8046C38.991 79.2546 37.4819 78.5501 36.8046 78.191Z" fill="#1B3C87"/>
<path fill-rule="evenodd" clip-rule="evenodd" d="M25.6955 74.3137C32.65 74.3137 33.1818 88.1137 31.2591 98.8092C29.3864 99.5637 18.7955 99.8774 17.0318 98.1683C16.3909 95.8183 14.1091 74.3183 25.6955 74.3137Z" fill="#FF5670"/>
<path d="M16.5635 83.3182C16.5498 83.4 16.468 83.4545 16.3862 83.4364C16.3044 83.4227 16.2498 83.3409 16.268 83.2591C16.8089 80.4545 17.7771 77.8318 19.418 76.0227C20.7953 74.5045 22.6408 73.5545 25.0908 73.5545C27.3589 73.5545 28.9589 74.9727 30.0271 77.2545C31.2453 79.8682 31.7635 83.6318 31.768 87.6909C31.768 87.7727 31.6998 87.8409 31.618 87.8409C31.5362 87.8409 31.468 87.7727 31.468 87.6909C31.4589 83.6682 30.9544 79.95 29.7544 77.3818C28.7408 75.2136 27.2271 73.8636 25.0908 73.8636C22.7317 73.8636 20.9589 74.7727 19.6408 76.2318C18.0453 77.9909 17.0953 80.5636 16.5635 83.3182Z" fill="#1B3C87"/>
<path d="M16.9091 97.7182C16.9819 97.7546 17.0137 97.8455 16.9773 97.9228C16.9409 98.0001 16.85 98.0273 16.7728 97.9864C16.6955 97.9455 16.6137 97.9001 16.5409 97.8455C16.4637 97.791 16.3955 97.7364 16.3273 97.6728C16.3046 97.6501 16.2864 97.6228 16.2819 97.591C16.15 97.1001 15.9546 95.8455 15.8182 94.1546C15.7182 92.9319 15.6546 91.4682 15.6682 89.8955C15.6682 89.8137 15.7364 89.7455 15.8182 89.7455C15.9 89.7455 15.9682 89.8137 15.9682 89.8955C15.9546 91.4501 16.0228 92.9046 16.1182 94.1273C16.25 95.7637 16.4364 96.9819 16.5637 97.4773C16.6137 97.5182 16.6591 97.5591 16.7137 97.5955C16.7728 97.641 16.8364 97.6819 16.9091 97.7182Z" fill="#1B3C87"/>
<path d="M31.2546 92.5227C31.2637 92.4409 31.3364 92.3772 31.4182 92.3863C31.5 92.3954 31.5637 92.4682 31.5546 92.55C31.4728 93.5 31.3682 94.4591 31.2409 95.4045C31.1137 96.3636 30.9637 97.309 30.7955 98.2363C30.7864 98.2909 30.75 98.3318 30.7 98.35C30.1455 98.5681 28.8909 98.7499 27.3409 98.859C25.8455 98.9636 24.0637 99 22.3682 98.9318C22.2864 98.9272 22.2182 98.859 22.2227 98.7772C22.2273 98.6954 22.2955 98.6272 22.3773 98.6318C24.0637 98.6954 25.8318 98.659 27.3182 98.559C28.7728 98.459 29.9546 98.2954 30.5137 98.1C30.6728 97.209 30.8182 96.2954 30.9409 95.3681C31.0728 94.4318 31.1728 93.4818 31.2546 92.5227Z" fill="#1B3C87"/>
<path fill-rule="evenodd" clip-rule="evenodd" d="M26.8635 77.3091C27.5135 74.9591 37.0862 76.0273 37.4089 77.6864C37.8362 79.9864 36.1816 84.2137 34.7862 85.0137C33.5044 84.9591 25.7544 81.3091 26.8635 77.3091Z" fill="#FF5670"/>
<path d="M36.1819 76.6C36.1092 76.5591 36.0865 76.4637 36.1274 76.3955C36.1683 76.3228 36.2638 76.3 36.3319 76.3455C36.5047 76.45 36.6456 76.5591 36.7501 76.6728C36.8592 76.7955 36.9319 76.9228 36.9547 77.0546V77.0682C37.1638 78.2091 36.8774 79.8001 36.3683 81.2273C35.8229 82.7592 35.0092 84.1137 34.2592 84.541C34.2319 84.5546 34.2047 84.5637 34.1774 84.5592C33.9683 84.5501 33.3001 84.3001 32.5228 83.9682C31.641 83.591 30.6047 83.1092 29.9456 82.7592C29.8728 82.7228 29.841 82.6319 29.8819 82.5546C29.9183 82.4819 30.0092 82.4501 30.0865 82.491C30.741 82.8319 31.7683 83.3137 32.6456 83.691C33.3456 83.991 33.9365 84.2182 34.1547 84.2546C34.8274 83.8319 35.5729 82.5637 36.0865 81.1228C36.5819 79.7364 36.8592 78.2046 36.6592 77.1182V77.1091C36.6456 77.0319 36.6001 76.95 36.5274 76.8728C36.4456 76.7773 36.3274 76.6864 36.1819 76.6Z" fill="#1B3C87"/>
<path d="M26.3091 77.6773C26.3136 77.7591 26.25 77.8319 26.1682 77.8364C26.0863 77.841 26.0136 77.7773 26.0091 77.6955C26.0091 77.6682 26.0045 77.6319 26.0045 77.5955V77.4955C26.0045 77.3591 26.0136 77.2182 26.0318 77.0773C26.05 76.9409 26.0772 76.8 26.1182 76.6682C26.3227 75.9273 27.2818 75.5046 28.5545 75.3137C30.0409 75.0955 31.9681 75.1864 33.5954 75.4773C33.6772 75.4909 33.7318 75.5728 33.7181 75.6546C33.7045 75.7364 33.6272 75.7909 33.5454 75.7773C31.9454 75.4909 30.0545 75.4 28.6 75.6137C27.4409 75.7864 26.5772 76.1455 26.4091 76.7455C26.3772 76.8682 26.35 76.9909 26.3318 77.1182C26.3136 77.2409 26.3091 77.3682 26.3091 77.4955V77.5864V77.6773Z" fill="#1B3C87"/>
<path fill-rule="evenodd" clip-rule="evenodd" d="M26.2093 75.8727C26.2093 76.4864 22.3184 76.5636 22.3184 75.8727V70.35H26.2093V75.8727Z" fill="white"/>
<path d="M25.4546 73.4954C25.4546 73.4136 25.5228 73.3454 25.6046 73.3454C25.6864 73.3454 25.7546 73.4136 25.7546 73.4954V75.2727C25.7546 75.3545 25.6864 75.4227 25.6046 75.4227C25.5228 75.4227 25.4546 75.3545 25.4546 75.2727V73.4954Z" fill="#1B3C87"/>
<path d="M24.0002 75.6C24.082 75.5954 24.1547 75.6591 24.1593 75.7454C24.1638 75.8273 24.1002 75.9 24.0138 75.9045C23.8638 75.9136 23.7138 75.9182 23.5729 75.9182C23.0956 75.9182 22.6229 75.8773 22.2684 75.7954C21.8547 75.7 21.5775 75.5363 21.5684 75.2909V75.2727V69.75C21.5684 69.6682 21.6365 69.6 21.7184 69.6H25.6093C25.6911 69.6 25.7593 69.6682 25.7593 69.75V72.2273C25.7593 72.3091 25.6911 72.3773 25.6093 72.3773C25.5275 72.3773 25.4593 72.3091 25.4593 72.2273V69.9H21.8684V75.2727C21.8729 75.3591 22.0593 75.4363 22.3365 75.5C22.6684 75.5773 23.1184 75.6136 23.5775 75.6136C23.7184 75.6091 23.8638 75.6045 24.0002 75.6Z" fill="#1B3C87"/>
<path d="M25.1636 71.5545C27.3627 71.5545 29.1454 69.2122 29.1454 66.3227C29.1454 63.4333 27.3627 61.0909 25.1636 61.0909C22.9645 61.0909 21.1818 63.4333 21.1818 66.3227C21.1818 69.2122 22.9645 71.5545 25.1636 71.5545Z" fill="white"/>
<path d="M27.1907 69.5955C27.2453 69.5319 27.3407 69.5273 27.4044 69.5819C27.468 69.6364 27.4725 69.7319 27.418 69.7955C27.0498 70.2091 26.6271 70.541 26.1634 70.7682C25.7134 70.9864 25.2271 71.1046 24.718 71.1046C23.568 71.1046 22.5316 70.4955 21.7816 69.5137L21.7771 69.5046C21.0407 68.5319 20.5862 67.1955 20.5862 65.7228C20.5862 64.2455 21.0453 62.9046 21.7862 61.9319C22.5362 60.95 23.5725 60.341 24.7225 60.341C25.8725 60.341 26.9089 60.95 27.6544 61.9319C28.3953 62.9046 28.8498 64.2455 28.8498 65.7228V65.7773C28.8498 66.25 28.7998 66.7228 28.6998 67.1819C28.5998 67.641 28.4498 68.091 28.2544 68.5228C28.218 68.6 28.1316 68.6319 28.0544 68.5955C27.9771 68.5591 27.9453 68.4728 27.9816 68.3955C28.168 67.9864 28.3089 67.5546 28.4044 67.1137C28.4998 66.6728 28.5498 66.2228 28.5498 65.7728V65.7364V65.7228C28.5498 64.3091 28.118 63.0319 27.4134 62.1137C26.7225 61.2046 25.768 60.641 24.718 60.641C23.668 60.641 22.7135 61.2046 22.0225 62.1137C21.3225 63.0364 20.8862 64.3091 20.8862 65.7228C20.8862 67.1319 21.318 68.4046 22.0135 69.3228L22.018 69.3319C22.7089 70.241 23.6635 70.8046 24.7134 70.8046C25.1771 70.8046 25.618 70.6955 26.0271 70.4955C26.4544 70.2864 26.8498 69.9773 27.1907 69.5955Z" fill="#1B3C87"/>
<path fill-rule="evenodd" clip-rule="evenodd" d="M20.4955 66.8909C20.4955 62.7227 21.8773 58.7318 23.2728 58.7318C24.6682 58.7318 23.9 60.7091 23.9 60.7091C24.4773 59.55 26.2682 57.7591 27.0546 57.7591C27.8364 57.7591 28.0273 58.9682 27.2273 60.1955C27.9318 59.4091 28.9182 58.9364 29.9727 58.8818C30.8773 58.8818 30.9955 59.9546 30.9955 61.0136C30.9955 62.8818 27.0728 65.7546 26.6318 66.2455C26.5955 66.8591 26.0864 71.8546 24.8409 71.8546C23.5909 71.8637 20.4955 71.5546 20.4955 66.8909Z" fill="#ECC953"/>
<path d="M25.4365 69.7909C25.4638 69.7137 25.5456 69.6682 25.6274 69.6955C25.7047 69.7228 25.7501 69.8046 25.7229 69.8864C25.5774 70.3319 25.4047 70.7228 25.2092 70.991C25.0138 71.2546 24.7911 71.4091 24.5365 71.4091C24.1774 71.4091 23.6683 71.3819 23.1183 71.241C22.5638 71.0955 21.9729 70.8364 21.4547 70.3591C21.3911 70.3046 21.3911 70.2091 21.4456 70.1455C21.5001 70.0864 21.5956 70.0819 21.6592 70.1364C22.132 70.5728 22.682 70.8182 23.1911 70.95C23.7047 71.0819 24.1911 71.1091 24.532 71.1091C24.682 71.1091 24.8274 71 24.9638 70.8137C25.1411 70.5728 25.3001 70.2137 25.4365 69.7909Z" fill="#1B3C87"/>
<path d="M30.2408 61.3863C30.2817 61.3136 30.3726 61.2863 30.4453 61.3227C30.5181 61.3636 30.5453 61.4545 30.509 61.5272C29.7862 62.8772 28.0362 64.3636 27.0635 65.1954L26.9908 65.2591C26.9271 65.3136 26.8317 65.3045 26.7771 65.2409C26.7226 65.1773 26.7317 65.0818 26.7953 65.0273L26.8681 64.9636C27.8226 64.1454 29.5453 62.6818 30.2408 61.3863Z" fill="#1B3C87"/>
<path d="M28.6864 58.6181C28.6092 58.6454 28.5228 58.6045 28.4955 58.5272C28.4682 58.4499 28.5092 58.3636 28.5864 58.3363C28.7592 58.2772 28.9364 58.2272 29.1182 58.1954C29.3001 58.1636 29.4819 58.1409 29.6637 58.1363H29.6682C30.1137 58.1363 30.3955 58.3545 30.5728 58.6999C30.7364 59.0136 30.8046 59.4363 30.8273 59.8863C30.8319 59.9681 30.7682 60.0409 30.6864 60.0454C30.6046 60.05 30.5319 59.9863 30.5273 59.9045C30.5046 59.4954 30.4455 59.1136 30.3046 58.8409C30.1773 58.5954 29.9819 58.4409 29.6682 58.4409C29.5001 58.4454 29.3364 58.4636 29.1728 58.4909C29.0091 58.5181 28.8455 58.559 28.6864 58.6181Z" fill="#1B3C87"/>
<path d="M20.3499 65.7819C20.3499 65.8637 20.2772 65.9319 20.1954 65.9273C20.1135 65.9273 20.0454 65.8546 20.0499 65.7728C20.1044 63.7637 20.4635 61.8364 20.9817 60.4046C21.5181 58.9273 22.2317 57.9728 22.9681 57.9728C23.8772 57.9728 24.0044 58.6637 23.9453 59.2637C24.2635 58.8319 24.6635 58.3864 25.0726 58.0046C25.6908 57.4273 26.3317 56.9955 26.7499 56.9955C26.909 56.9955 27.0544 57.0364 27.1726 57.1182C27.309 57.2091 27.4135 57.3409 27.4863 57.5091C27.5544 57.6682 27.5863 57.8546 27.5863 58.0637C27.5863 58.5228 27.4181 59.0955 27.0453 59.6682C26.9999 59.7364 26.909 59.7591 26.8363 59.7137C26.7681 59.6682 26.7453 59.5773 26.7908 59.5046C27.1317 58.9819 27.2817 58.4728 27.2817 58.0637C27.2817 57.8955 27.2544 57.7455 27.2044 57.6228C27.159 57.5091 27.0908 57.4228 27.0044 57.3682C26.9317 57.3228 26.8453 57.2955 26.7453 57.2955C26.409 57.2955 25.8408 57.6864 25.2726 58.2182C24.6408 58.8091 24.0226 59.5637 23.7272 60.1546C23.6953 60.2273 23.6135 60.2637 23.5363 60.2364C23.459 60.2046 23.4181 60.1182 23.4499 60.041C23.4499 60.0364 24.1363 58.2682 22.9635 58.2682C22.3681 58.2682 21.7499 59.1455 21.259 60.5046C20.759 61.9137 20.4044 63.8091 20.3499 65.7819Z" fill="#1B3C87"/>
<path d="M26.8089 68.1637C27.5068 68.1637 28.0726 67.5979 28.0726 66.9C28.0726 66.2021 27.5068 65.6364 26.8089 65.6364C26.111 65.6364 25.5453 66.2021 25.5453 66.9C25.5453 67.5979 26.111 68.1637 26.8089 68.1637Z" fill="white"/>
<path d="M25.3955 66.7272C25.4 66.8091 25.3318 66.8818 25.25 66.8818C25.1682 66.8863 25.1 66.8182 25.0955 66.7363C25.0955 66.6863 25.0955 66.6409 25.0955 66.5909C25.0955 66.2 25.2546 65.8454 25.5091 65.5909C25.7636 65.3363 26.1182 65.1772 26.5091 65.1772C26.6273 65.1772 26.7409 65.1909 26.8546 65.2227C26.9682 65.25 27.0773 65.2954 27.1818 65.35C27.2546 65.3909 27.2818 65.4818 27.2409 65.5545C27.2 65.6272 27.1091 65.6545 27.0364 65.6136C26.9546 65.5682 26.8682 65.5363 26.7773 65.5136C26.6864 65.4909 26.5955 65.4772 26.5046 65.4772C26.1955 65.4772 25.9182 65.6 25.7182 65.8045C25.5182 66.0045 25.3909 66.2863 25.3909 66.5909C25.3909 66.6363 25.3909 66.6772 25.3955 66.7272Z" fill="#1B3C87"/>
<path d="M26.8227 67.6682C26.9045 67.6455 26.9864 67.6909 27.0091 67.7682C27.0318 67.85 26.9864 67.9318 26.9091 67.9546C26.8455 67.9728 26.7773 67.9909 26.7091 68C26.6409 68.0091 26.5727 68.0137 26.5045 68.0137H26.5C26.3182 68.0137 26.1409 67.9773 25.9727 67.9137C25.8091 67.8455 25.6545 67.75 25.5227 67.6227C25.4636 67.5636 25.4591 67.4682 25.5182 67.4091C25.5773 67.35 25.6727 67.3454 25.7318 67.4045C25.8364 67.5045 25.9545 67.5818 26.0864 67.6318C26.2136 67.6864 26.3545 67.7136 26.5 67.7136H26.5045C26.5591 67.7136 26.6136 67.7091 26.6636 67.7C26.7182 67.6955 26.7727 67.6818 26.8227 67.6682Z" fill="#1B3C87"/>
<path d="M99.2729 16.5591H91.4593L95.3638 23.3227L99.2729 16.5591ZM91.2002 16.2545H99.532C99.5592 16.2545 99.5819 16.2591 99.6092 16.2773C99.6819 16.3182 99.7047 16.4091 99.6638 16.4818L95.4956 23.7C95.482 23.7227 95.4638 23.7409 95.4411 23.7546C95.3683 23.7955 95.2774 23.7727 95.2365 23.7L91.0729 16.4909C91.0593 16.4682 91.0457 16.4364 91.0457 16.4045C91.0502 16.3227 91.1138 16.2545 91.2002 16.2545Z" fill="#B6C6FC"/>
<path d="M0.559231 31.0864L3.29105 32.8454L6.91832 27.2182L4.18196 25.4591L0.559231 31.0864ZM3.25014 33.1818L0.268321 31.2591C0.20014 31.2136 0.177412 31.1227 0.222867 31.05L4.01378 25.1682C4.05923 25.1 4.15014 25.0773 4.22287 25.1227L7.20469 27.0454C7.27287 27.0909 7.2956 27.1818 7.25014 27.2545L3.45923 33.1364C3.41378 33.2045 3.32287 33.2273 3.25014 33.1818Z" fill="#B6C6FC"/>
<path d="M58.3399 91.1548L45.2031 127.286L64.4349 134.278L77.5717 98.1472L58.3399 91.1548Z" fill="#EEF5FF"/>
<path d="M60.7365 91.8637C60.7365 90.9409 60.3638 90.1046 59.7547 89.5C59.1502 88.8955 58.3138 88.5227 57.3911 88.5227C56.4683 88.5227 55.632 88.8955 55.0274 89.5C54.4229 90.1046 54.0456 90.9409 54.0456 91.8637C54.0456 92.7864 54.4183 93.6228 55.0274 94.2273C55.632 94.8319 56.4683 95.2046 57.3911 95.2046C58.3138 95.2046 59.1502 94.8319 59.7547 94.2273C60.3593 93.6228 60.7365 92.7909 60.7365 91.8637ZM59.9683 89.2864C60.6274 89.9455 61.0365 90.8591 61.0365 91.8637C61.0365 92.8728 60.6274 93.7818 59.9683 94.4409C59.3093 95.1 58.3956 95.5091 57.3911 95.5091C56.382 95.5091 55.4729 95.1 54.8138 94.4409C54.1547 93.7818 53.7456 92.8682 53.7456 91.8637C53.7456 90.8591 54.1547 89.9455 54.8138 89.2864C55.4729 88.6273 56.3865 88.2182 57.3911 88.2182C58.3956 88.2227 59.3093 88.6273 59.9683 89.2864Z" fill="#B6C6FC"/>
<path fill-rule="evenodd" clip-rule="evenodd" d="M104.573 74.0865L103.941 87.1364L115.559 81.1637L104.573 74.0865Z" fill="#EEF5FF"/>
</g>
<defs>
<clipPath id="clip0">
<rect width="115.909" height="150" fill="white"/>
</clipPath>
</defs>
</svg>
