<svg width="150" height="150" viewBox="0 0 150 150" fill="none" xmlns="http://www.w3.org/2000/svg">
<path fill-rule="evenodd" clip-rule="evenodd" d="M116.453 33.758C131.48 46.9066 147.934 60.5483 149.542 75.7455C151.192 90.9838 137.914 107.789 122.863 117.222C107.819 126.649 91.0249 128.704 70.803 132.02C50.634 135.378 27.0897 140.086 13.4656 130.653C-0.158459 121.226 -3.8976 97.6755 4.60205 82.6486C13.1017 67.6216 33.8812 61.1118 47.4994 47.9104C61.1411 34.7617 67.6332 14.9331 77.706 11.4053C87.7671 7.8364 101.409 20.6094 116.453 33.758Z" fill="#F2F2F2"/>
<path fill-rule="evenodd" clip-rule="evenodd" d="M91.8057 40.5847H137.474V5.99915H91.8057V40.5847Z" fill="#EEF5FF"/>
<path fill-rule="evenodd" clip-rule="evenodd" d="M116.453 36.4876H129.831V12.5031H116.453V36.4876Z" fill="#EAF0FF"/>
<path fill-rule="evenodd" clip-rule="evenodd" d="M112.051 17.7801C112.051 20.8324 109.586 23.3037 106.527 23.3037C103.469 23.3037 101.004 20.8383 101.004 17.7801C101.004 14.7277 103.469 12.2565 106.527 12.2565C109.586 12.2565 112.051 14.7453 112.051 17.7801Z" fill="#FB5D64"/>
<path fill-rule="evenodd" clip-rule="evenodd" d="M138.025 76.6555C138.025 84.1103 131.991 90.1445 124.536 90.1445C117.081 90.1445 111.047 84.1103 111.047 76.6555C111.047 69.2007 117.081 63.1664 124.536 63.1664C131.991 63.1664 138.025 69.2007 138.025 76.6555Z" fill="white"/>
<path d="M117.762 80.2242H146.108V51.8725H117.762V80.2242ZM146.396 80.7936H117.481C117.322 80.7936 117.199 80.6644 117.199 80.5118V51.5966C117.199 51.4381 117.328 51.3148 117.481 51.3148H146.396C146.554 51.3148 146.683 51.444 146.683 51.5966V80.5118C146.678 80.6644 146.548 80.7936 146.396 80.7936Z" fill="#B2C3FB"/>
<path d="M70.0811 149.994C69.8874 149.994 69.7289 149.836 69.7289 149.642C69.7289 149.448 69.8874 149.29 70.0811 149.29H141.823C142.017 149.29 142.175 149.448 142.175 149.642C142.175 149.836 142.017 149.994 141.823 149.994H70.0811Z" fill="#1B3C87"/>
<path d="M0.352195 149.994C0.158488 149.994 0 149.836 0 149.642C0 149.448 0.158488 149.29 0.352195 149.29H53.2167C53.4104 149.29 53.5689 149.448 53.5689 149.642C53.5689 149.836 53.4104 149.994 53.2167 149.994H0.352195Z" fill="#1B3C87"/>
<path fill-rule="evenodd" clip-rule="evenodd" d="M82.8305 52.1251L82.5487 53.5456L80.5764 54.1502C80.5764 54.1502 79.6079 51.092 79.4553 50.4111C78.5043 51.1155 73.0394 52.6475 72.0944 52.7825C71.9594 52.0429 71.9594 45.6858 77.2717 45.6858C81.9382 45.6858 84.0455 50.37 84.1571 50.9218C83.8929 51.0803 82.8305 51.4559 82.8305 52.1251Z" fill="#FDB400"/>
<path fill-rule="evenodd" clip-rule="evenodd" d="M84.1395 64.3578C82.9421 64.3578 74.3485 73.0453 73.9905 74.8708L71.2198 89.2169L85.5835 85.196L86.4171 66.9229L84.3685 64.3637H84.1395V64.3578Z" fill="#FDB400"/>
<path fill-rule="evenodd" clip-rule="evenodd" d="M66.4182 89.5752C66.4006 88.5714 74.6361 62.5559 75.5636 61.6637C76.1917 61.0356 77.0428 60.7128 77.9174 60.7539C78.3342 60.7715 80.2889 61.7048 80.7056 62.6909C80.0012 64.3815 78.2755 65.3089 78.2755 65.3089L74.9531 85.8595L66.4182 89.5752Z" fill="white"/>
<path fill-rule="evenodd" clip-rule="evenodd" d="M76.4558 105.189L88.3718 119.934L82.584 125.739L65.0917 110.448L69.23 104.755L76.4558 105.189Z" fill="#3C3744"/>
<path fill-rule="evenodd" clip-rule="evenodd" d="M73.3271 131.586C71.7129 130.125 52.8939 106.674 52.8939 103.769C52.8939 97.2999 60.2372 95.0048 62.2506 94.4882C65.0036 94.2417 77.26 93.2145 79.1736 93.2908C80.5589 94.7876 96.6835 98.2626 99.0198 97.975C99.0198 99.149 97.159 107.332 83.9751 107.332C82.5898 107.332 72.1942 106.915 72.0005 106.915C72.0005 109.345 78.6629 125.188 79.3027 126.268L73.3271 131.586Z" fill="#3C3744"/>
<path fill-rule="evenodd" clip-rule="evenodd" d="M90.385 60.1317C101.068 60.1317 103.363 79.3909 103.363 84.8558C103.363 91.8176 100.534 97.3998 99.1898 97.9105C95.3744 99.3721 81.3746 94.5705 80.4824 92.293C76.1504 81.2106 83.2882 60.1317 90.385 60.1317Z" fill="#FDB400"/>
<path d="M81.046 47.2001C80.9051 47.071 80.8875 46.8538 81.0167 46.707C81.1458 46.5661 81.363 46.5485 81.5097 46.6777C81.9676 47.0886 82.3844 47.5347 82.7542 48.016C83.1298 48.5091 83.4644 49.0315 83.752 49.5833L83.8225 49.7242C83.8988 49.8709 83.9692 50.0118 84.0279 50.1585C84.0984 50.3405 84.0103 50.5401 83.8342 50.6105C83.6581 50.681 83.4527 50.5929 83.3822 50.4168C83.3294 50.2818 83.2649 50.1644 83.2003 50.0353L83.1298 49.8944C82.8598 49.3778 82.5546 48.8848 82.2024 48.4328C81.8502 47.9984 81.4687 47.5816 81.046 47.2001Z" fill="#1B3C87"/>
<path d="M72.7459 55.242C72.8339 55.4122 72.7694 55.6235 72.5933 55.7116C72.423 55.7996 72.2117 55.7292 72.1237 55.5589C71.0906 53.5514 70.7912 51.403 71.1434 49.5481C71.5015 47.6639 72.5346 46.079 74.1488 45.2396L74.1723 45.2279C74.6947 44.9696 75.2523 44.7935 75.8276 44.7113C76.4028 44.6291 76.9898 44.6291 77.5768 44.7348C77.7705 44.77 77.8938 44.9461 77.8645 45.1398C77.8292 45.3277 77.6531 45.4568 77.4594 45.4274C76.9487 45.3394 76.4322 45.3335 75.9274 45.4098C75.4226 45.4861 74.9412 45.6388 74.4834 45.8618L74.4716 45.8677C73.057 46.6014 72.1472 48.0043 71.8302 49.6831C71.5073 51.3913 71.7832 53.3812 72.7459 55.242Z" fill="#1B3C87"/>
<path d="M82.7191 58.2473C82.8482 58.1006 83.0654 58.0889 83.2122 58.2121C83.3589 58.3413 83.3707 58.5585 83.2474 58.7052C83.0361 58.9459 82.7954 59.1689 82.5371 59.3685C82.2789 59.5681 81.9971 59.75 81.6977 59.9027L81.6801 59.9144C80.6001 60.4662 79.3967 60.6071 78.1934 60.4016C76.9607 60.1903 75.728 59.6092 74.6421 58.7228C74.4895 58.5995 74.4719 58.3824 74.5893 58.2297C74.7125 58.0771 74.9297 58.0595 75.0823 58.1769C76.0744 58.987 77.1955 59.5152 78.3108 59.709C79.3674 59.8909 80.4181 59.7618 81.3631 59.2863L81.3808 59.2746C81.6332 59.1396 81.8797 58.987 82.1086 58.8109C82.3317 58.6465 82.5371 58.4587 82.7191 58.2473Z" fill="#1B3C87"/>
<path d="M82.4724 51.5673C82.4019 51.7493 82.1965 51.8315 82.0145 51.761C81.8384 51.6906 81.7504 51.4851 81.8208 51.3032C82.0439 50.7514 82.4724 50.3346 82.9831 50.1174C83.4879 49.9003 84.0807 49.8709 84.6443 50.0822L84.6501 50.0881C85.2019 50.3111 85.6187 50.7397 85.8358 51.2503C86.053 51.7552 86.0824 52.348 85.8711 52.9115L85.8652 52.9291C85.7067 53.3342 85.425 53.6687 85.0786 53.9035C84.7264 54.1442 84.2979 54.2792 83.8577 54.2792C83.6992 54.2792 83.5407 54.2557 83.3822 54.2205C83.2237 54.1794 83.0594 54.1266 82.9126 54.0562C82.7365 53.974 82.6602 53.7685 82.7424 53.5924C82.8246 53.4163 83.03 53.34 83.2061 53.4222C83.3118 53.4692 83.4292 53.5103 83.5466 53.5396C83.6522 53.5631 83.7579 53.5807 83.8577 53.5807C84.1571 53.5807 84.4447 53.4868 84.6853 53.3283C84.9201 53.1698 85.108 52.9467 85.2136 52.6826L85.2195 52.6709C85.3663 52.2834 85.3486 51.8784 85.196 51.5321C85.0434 51.1858 84.7675 50.8981 84.386 50.7455C84.0044 50.6046 83.5994 50.6223 83.259 50.769C82.9126 50.9157 82.625 51.1916 82.4724 51.5673Z" fill="#1B3C87"/>
<path d="M84.0221 64.6454C84.075 64.8332 83.9634 65.021 83.7814 65.0739C83.5995 65.1267 83.4058 65.0152 83.3529 64.8332C83.1945 64.258 82.7718 62.9372 82.1966 61.7574C81.8502 61.0354 81.4452 60.3779 81.0226 59.9847C80.8817 59.8555 80.87 59.6325 81.005 59.4916C81.1341 59.3507 81.3572 59.339 81.4981 59.474C81.997 59.9318 82.449 60.6656 82.8305 61.458C83.4175 62.6848 83.8578 64.0525 84.0221 64.6454Z" fill="#1B3C87"/>
<path d="M84.3216 54.479C84.2687 54.297 84.3685 54.0974 84.5564 54.0446C84.7383 53.9918 84.9379 54.0915 84.9907 54.2794C85.1551 54.8135 85.9358 56.0345 86.8104 57.2613C87.8435 58.7112 88.9882 60.1376 89.4049 60.4545C89.5106 60.5308 89.5575 60.66 89.5399 60.7833C89.4988 61.1237 89.2112 61.564 88.7827 62.0218C88.3425 62.4914 87.732 63.0138 87.0863 63.4834C86.9278 63.595 86.7106 63.5597 86.5991 63.4071C86.4876 63.2545 86.5228 63.0314 86.6754 62.9199C87.2859 62.4738 87.8553 61.9866 88.272 61.5463C88.5303 61.2705 88.7181 61.0298 88.8003 60.8537C88.2485 60.3195 87.192 58.9929 86.241 57.6663C85.3253 56.3926 84.5035 55.0953 84.3216 54.479Z" fill="#1B3C87"/>
<path d="M80.4882 53.6511C80.3063 53.7098 80.1067 53.6041 80.0539 53.4222C79.9952 53.2402 80.1008 53.0406 80.2828 52.9878L81.5624 52.5945L81.809 51.3736C81.8442 51.1857 82.032 51.0625 82.2199 51.0977C82.4077 51.1329 82.531 51.3207 82.4958 51.5086L82.214 52.9291C82.1905 53.0524 82.1025 53.158 81.9733 53.1932L80.4882 53.6511Z" fill="#1B3C87"/>
<path d="M76.491 51.0508C76.309 51.1095 76.1095 51.0097 76.0508 50.8278C75.9921 50.6458 76.0919 50.4462 76.2738 50.3875C76.8373 50.2055 77.3539 50.0177 77.7648 49.8475C78.1404 49.6949 78.4222 49.554 78.569 49.4542C78.7274 49.3427 78.9446 49.3779 79.0562 49.5305C79.0855 49.5716 79.1031 49.6186 79.1149 49.6714C79.1618 49.9003 79.3203 50.4579 79.5023 51.0626C79.6901 51.6906 79.8956 52.3481 80.0364 52.8001C80.0951 52.982 79.9895 53.1816 79.8075 53.2403C79.6255 53.299 79.426 53.1933 79.3731 53.0114C79.2323 52.5535 79.0151 51.8726 78.8331 51.268C78.7216 50.8982 78.6218 50.5519 78.5455 50.2701C78.3987 50.3406 78.2226 50.4169 78.0348 50.499C77.5946 50.6693 77.0604 50.863 76.491 51.0508Z" fill="#1B3C87"/>
<path d="M71.4604 52.4477C71.2726 52.4771 71.0906 52.3479 71.0613 52.1542C71.0319 51.9664 71.1611 51.7844 71.3548 51.7551C71.5367 51.7257 71.9183 51.6436 72.429 51.5144C72.8634 51.4029 73.374 51.2679 73.8906 51.1211C74.0784 51.0683 74.2663 51.174 74.325 51.3618C74.3778 51.5496 74.2721 51.7375 74.0843 51.7962C73.5266 51.9605 73.016 52.0955 72.5933 52.2012C72.0826 52.3245 71.6718 52.4125 71.4604 52.4477Z" fill="#1B3C87"/>
<path d="M82.4549 93.0735C82.6251 93.1557 82.7014 93.367 82.6134 93.5431C82.5312 93.7133 82.3199 93.7896 82.1438 93.7016C81.3631 93.3142 80.6939 92.9267 80.2008 92.5569C79.6902 92.1813 79.3438 91.8056 79.203 91.4651L79.1971 91.4475C78.5455 89.7687 78.1522 87.8727 77.9761 85.8535C77.7883 83.6992 77.8529 81.4041 78.117 79.0913C78.1405 78.8976 78.3107 78.7626 78.5044 78.7861C78.6981 78.8096 78.8331 78.9798 78.8097 79.1735C78.5455 81.4393 78.4868 83.6816 78.6688 85.7948C78.839 87.7495 79.2206 89.5868 79.8428 91.1951L79.8486 91.201C79.9367 91.4182 80.2008 91.6882 80.6117 91.9876C81.0813 92.3397 81.7094 92.7096 82.4549 93.0735Z" fill="#1B3C87"/>
<path d="M100.593 73.0042C100.546 72.8163 100.658 72.6285 100.845 72.5815C101.033 72.5346 101.221 72.6461 101.268 72.8339C101.755 74.7769 102.102 76.7081 102.336 78.4456C102.642 80.7231 102.759 82.6719 102.759 83.9046C102.759 86.9217 102.231 89.6865 101.526 91.9053C100.564 94.9224 99.2135 96.9593 98.3624 97.288C97.4701 97.6285 96.0848 97.6578 94.4589 97.4582C92.6568 97.2411 90.5319 96.7597 88.4598 96.1375C88.272 96.0847 88.1722 95.8851 88.225 95.7031C88.2778 95.5153 88.4774 95.4155 88.6594 95.4683C90.6962 96.0788 92.7801 96.5543 94.541 96.7656C96.0614 96.9476 97.3351 96.9299 98.11 96.6364C98.7967 96.3723 99.959 94.5115 100.857 91.6998C101.544 89.5456 102.055 86.8572 102.055 83.9105C102.055 82.6954 101.943 80.7759 101.638 78.5454C101.415 76.8255 101.074 74.9236 100.593 73.0042Z" fill="#1B3C87"/>
<path d="M88.1309 59.7733C87.9489 59.8379 87.7493 59.7498 87.6848 59.5678C87.6202 59.3859 87.7083 59.1863 87.8902 59.1217C88.1368 59.0278 88.3892 58.9574 88.6416 58.9104C88.8999 58.8635 89.164 58.8341 89.434 58.8341C90.8311 58.8341 92.099 59.157 93.2377 59.7263C94.4763 60.3486 95.5622 61.2584 96.5073 62.3678C96.6305 62.5146 96.6129 62.7376 96.4662 62.8609C96.3194 62.9841 96.0964 62.9665 95.9731 62.8198C95.0809 61.7749 94.0654 60.9238 92.9208 60.3485C91.8759 59.8261 90.7137 59.5326 89.4281 59.5326C89.1992 59.5326 88.982 59.5561 88.7648 59.5972C88.5535 59.6324 88.3422 59.697 88.1309 59.7733Z" fill="#1B3C87"/>
<path d="M80.9229 70.0517C80.8583 70.2337 80.6646 70.3335 80.4768 70.2689C80.2948 70.2043 80.195 70.0106 80.2596 69.8286C80.6176 68.7779 81.0403 67.7448 81.5157 66.7352C82.0029 65.6962 82.5488 64.6866 83.1358 63.7122C83.2356 63.5478 83.4528 63.495 83.6172 63.5948C83.7815 63.6946 83.8344 63.9118 83.7346 64.0761C83.1534 65.0388 82.6193 66.0308 82.1438 67.0346C81.686 68.009 81.2751 69.0186 80.9229 70.0517Z" fill="#1B3C87"/>
<path d="M74.278 62.2742C74.2075 62.4562 74.0021 62.5384 73.8201 62.4679C73.6381 62.3975 73.556 62.192 73.6264 62.0101C73.7908 61.605 73.9316 61.2705 74.0432 61.0298C74.1664 60.7656 74.2721 60.5837 74.366 60.4898C74.7123 60.1434 75.1174 59.8852 75.5635 59.7091C76.0096 59.5388 76.4909 59.4567 76.9781 59.4801C77.2716 59.4919 78.158 59.8558 78.9035 60.3724C79.4141 60.7304 79.8779 61.1648 80.0774 61.6344C80.1537 61.8105 80.0657 62.0159 79.8896 62.0922C79.7135 62.1686 79.5081 62.0805 79.4317 61.9044C79.2909 61.5757 78.9211 61.2411 78.5043 60.9476C77.8645 60.5015 77.1542 60.1904 76.9488 60.1787C76.5555 60.161 76.1739 60.2256 75.8159 60.3665C75.4637 60.5015 75.135 60.7128 74.8591 60.9887L74.8356 61.0122C74.8239 61.0239 74.7652 61.1355 74.6771 61.3292C74.5715 61.5581 74.4364 61.8809 74.278 62.2742Z" fill="#1B3C87"/>
<path d="M68.1205 80.6118C68.0618 80.7938 67.8681 80.8994 67.6803 80.8407C67.4983 80.782 67.3926 80.5883 67.4513 80.4063C68.2027 78.0114 69.0597 75.323 69.9108 72.7226C70.6387 70.4979 71.3666 68.3143 72.0299 66.3948C72.0944 66.2129 72.2881 66.1131 72.476 66.1777C72.6579 66.2422 72.7577 66.4359 72.6932 66.6238C72.0533 68.4728 71.3255 70.6623 70.58 72.9398C69.7289 75.5284 68.8718 78.211 68.1205 80.6118Z" fill="#1B3C87"/>
<path d="M65.8019 88.4949C65.8019 88.6886 65.6434 88.8471 65.4497 88.8471C65.256 88.8471 65.0975 88.6886 65.0975 88.4949C65.0975 88.3716 65.1738 88.0311 65.3088 87.5205C65.4439 87.0156 65.6258 86.3582 65.8489 85.5716C65.9017 85.3838 66.0954 85.2781 66.2833 85.331C66.4711 85.3838 66.5767 85.5775 66.5239 85.7653C66.295 86.5754 66.1072 87.2328 65.9839 87.6965C65.8665 88.1485 65.8019 88.4303 65.8019 88.4949Z" fill="#1B3C87"/>
<path d="M77.2247 61.8807C77.031 61.8514 76.9019 61.6753 76.9254 61.4874C76.9547 61.2937 77.1308 61.1646 77.3186 61.1881C77.5769 61.2233 77.9996 61.4287 78.4222 61.7046C78.792 61.9453 79.1677 62.2564 79.4318 62.5557C79.5609 62.7025 79.5433 62.9256 79.3966 63.0488C79.2498 63.178 79.0268 63.1604 78.9035 63.0136C78.6805 62.7553 78.3576 62.497 78.0348 62.2857C77.7002 62.0627 77.3832 61.9042 77.2247 61.8807Z" fill="#1B3C87"/>
<path d="M76.0861 63.3189C75.8923 63.2896 75.7632 63.1135 75.7867 62.9257C75.816 62.732 75.9921 62.6028 76.18 62.6263C76.4382 62.6615 76.8609 62.867 77.2835 63.1428C77.6533 63.3835 78.029 63.6946 78.2931 63.994C78.4223 64.1407 78.4047 64.3638 78.2579 64.4871C78.1112 64.6162 77.8881 64.5986 77.7648 64.4518C77.5418 64.1936 77.2189 63.9353 76.8961 63.724C76.5615 63.5009 76.2445 63.3424 76.0861 63.3189Z" fill="#1B3C87"/>
<path d="M74.3602 84.8085C74.3543 85.0022 74.19 85.149 73.9963 85.1431C73.8025 85.1373 73.6558 84.9729 73.6617 84.7792C73.6851 84.2039 74.5715 77.8233 75.4755 72.376C76.0155 69.1006 76.5673 66.1539 76.9429 64.9741C77.0016 64.7921 77.1954 64.6864 77.3773 64.7451C77.5593 64.8038 77.665 64.9975 77.6063 65.1795C77.2423 66.3183 76.7023 69.2356 76.1623 72.4876C75.2642 77.9172 74.3837 84.245 74.3602 84.8085Z" fill="#1B3C87"/>
<path d="M79.0855 67.2341C78.9564 67.3749 78.7333 67.3808 78.5924 67.2517C78.4516 67.1225 78.4457 66.8995 78.5748 66.7586C79.2733 66.0073 80.0482 65.2324 80.8171 64.5633C81.5978 63.8823 82.3844 63.3071 83.0888 62.9784C83.2649 62.8962 83.4703 62.9725 83.5525 63.1486C83.6347 63.3247 83.5584 63.5302 83.3823 63.6123C82.7425 63.9117 82.0146 64.4459 81.2809 65.0857C80.5236 65.7431 79.7664 66.5062 79.0855 67.2341Z" fill="#1B3C87"/>
<path d="M34.9671 75.1291C34.8673 74.9647 34.9201 74.7476 35.0845 74.6478C35.2489 74.548 35.466 74.6008 35.5658 74.7652L44.2944 88.9586C44.3942 89.123 44.3414 89.3402 44.177 89.44C44.0126 89.5398 43.7955 89.4869 43.6957 89.3226L34.9671 75.1291Z" fill="#1B3C87"/>
<path d="M97.7165 97.0122C97.7165 96.8185 97.875 96.66 98.0687 96.66C98.2624 96.66 98.4209 96.8185 98.4209 97.0122C98.4209 97.8047 97.6285 101.62 93.4491 104.215C91.1481 105.647 87.8198 106.715 83.0241 106.715C82.038 106.715 76.2032 106.492 73.0511 106.369L71.4369 106.31C71.6188 107.449 72.4817 109.979 73.5559 112.826C75.5576 118.12 78.2636 124.46 78.6569 125.123C78.7567 125.288 78.7038 125.505 78.5336 125.605C78.3693 125.704 78.1521 125.652 78.0523 125.481C77.6472 124.8 74.906 118.396 72.8985 113.072C71.6658 109.809 70.7031 106.932 70.6973 105.958V105.946C70.6973 105.753 70.8558 105.594 71.0495 105.594C71.0788 105.594 71.8889 105.623 73.0687 105.67C76.1974 105.788 81.9851 106.011 83.0182 106.011C87.6672 106.011 90.8722 104.984 93.0734 103.616C96.9769 101.197 97.7165 97.7342 97.7165 97.0122Z" fill="#1B3C87"/>
<path d="M61.1588 93.2144C61.3408 93.1499 61.5404 93.2379 61.6049 93.4199C61.6754 93.6019 61.5815 93.8014 61.3995 93.866C61.2351 93.9247 61.0708 93.9834 60.8771 94.0538C58.4645 94.8991 52.2718 97.0768 52.2718 102.818C52.2718 103.827 54.925 107.789 58.3178 112.403C63.9588 120.081 71.5955 129.473 72.5934 130.377C72.7343 130.506 72.746 130.729 72.6169 130.87C72.4878 131.011 72.2647 131.023 72.1238 130.893C71.1083 129.978 63.4129 120.521 57.7543 112.82C54.2851 108.101 51.5732 104.003 51.5732 102.823C51.5732 96.5838 58.1006 94.2945 60.6481 93.4023C60.8536 93.326 61.0297 93.2614 61.1588 93.2144Z" fill="#1B3C87"/>
<path d="M71.6132 131.974C71.4489 132.079 71.2375 132.026 71.1319 131.868C71.0262 131.703 71.079 131.492 71.2375 131.387L79.8722 125.886C80.0365 125.781 80.2479 125.834 80.3535 125.992C80.4592 126.156 80.4064 126.368 80.2479 126.473L71.6132 131.974Z" fill="#1B3C87"/>
<path d="M72.5582 133.494C72.3938 133.594 72.1825 133.541 72.0768 133.376C71.9771 133.212 72.0299 132.995 72.1942 132.895L81.093 127.506C81.2574 127.407 81.4687 127.459 81.5744 127.624C81.6742 127.788 81.6213 127.999 81.457 128.099L72.5582 133.494Z" fill="#1B3C87"/>
<path d="M75.6928 120.04C75.5519 119.911 75.5343 119.688 75.6693 119.547C75.7985 119.406 76.0215 119.394 76.1624 119.523L81.7036 124.513C81.8445 124.642 81.8562 124.865 81.7271 125.006C81.5979 125.147 81.3749 125.158 81.234 125.029L75.6928 120.04Z" fill="#1B3C87"/>
<path d="M78.8976 108.975C78.7744 108.823 78.7978 108.605 78.9504 108.482C79.1031 108.359 79.3203 108.388 79.4435 108.535L87.679 118.76C87.8023 118.913 87.7788 119.13 87.6262 119.254C87.4736 119.377 87.2564 119.347 87.1331 119.201L78.8976 108.975Z" fill="#1B3C87"/>
<path d="M88.131 117.997C88.2719 117.862 88.4891 117.868 88.6241 118.003C88.7591 118.144 88.7532 118.361 88.6182 118.496L81.3336 125.575C81.1928 125.71 80.9756 125.704 80.8406 125.569C80.7055 125.428 80.7114 125.211 80.8464 125.076L88.131 117.997Z" fill="#1B3C87"/>
<path d="M89.0409 119.359C89.1759 119.224 89.399 119.23 89.534 119.365C89.669 119.506 89.6631 119.723 89.5281 119.858L82.2435 126.937C82.1085 127.072 81.8855 127.066 81.7505 126.931C81.6155 126.79 81.6213 126.573 81.7563 126.438L89.0409 119.359Z" fill="#1B3C87"/>
<path d="M30.9697 143.349C30.9697 143.156 31.1282 142.997 31.3219 142.997C31.5156 142.997 31.6741 143.156 31.6741 143.349V149.63C31.6741 149.824 31.5156 149.982 31.3219 149.982C31.1282 149.982 30.9697 149.824 30.9697 149.63V143.349Z" fill="#1B3C87"/>
<path d="M30.9697 93.5434C30.9697 93.3496 31.1282 93.1912 31.3219 93.1912C31.5156 93.1912 31.6741 93.3496 31.6741 93.5434V131.68C31.6741 131.874 31.5156 132.032 31.3219 132.032C31.1282 132.032 30.9697 131.874 30.9697 131.68V93.5434Z" fill="#1B3C87"/>
<path d="M59.9965 93.5434C59.9965 93.3496 60.1549 93.1912 60.3487 93.1912C60.5424 93.1912 60.7009 93.3496 60.7009 93.5434V149.648C60.7009 149.842 60.5424 150 60.3487 150C60.1549 150 59.9965 149.842 59.9965 149.648V93.5434Z" fill="#1B3C87"/>
<path fill-rule="evenodd" clip-rule="evenodd" d="M94.1183 64.7746C99.2017 66.5415 96.6013 77.4302 95.1808 77.7882C93.7602 78.1463 85.1256 74.7535 84.8614 73.8202C84.5973 72.8986 88.1838 62.7084 94.1183 64.7746Z" fill="#F2AD01"/>
<path d="M87.9196 65.6904C87.7845 65.8254 87.5615 65.8254 87.4265 65.6904C87.2915 65.5554 87.2915 65.3323 87.4265 65.1973C88.2013 64.4225 89.0759 63.8003 90.0503 63.4657C91.0365 63.1311 92.1224 63.0959 93.2905 63.5009L93.3081 63.5068C94.9048 64.0703 95.7911 65.438 96.2138 67.105C96.5483 68.4199 96.5894 69.9226 96.4544 71.3549C96.3253 72.7812 96.02 74.1372 95.662 75.1644C95.2687 76.2915 94.7756 77.0604 94.3178 77.1778C93.5488 77.3715 91.0541 76.6378 88.6768 75.7279C86.1645 74.7594 83.7402 73.5502 83.5758 72.9691C83.5699 72.9515 83.5641 72.928 83.5641 72.9104C83.5347 72.7402 83.5641 72.4525 83.6463 72.0827C83.7226 71.7423 83.8458 71.3138 84.0161 70.8383C84.0806 70.6563 84.2802 70.5624 84.4622 70.627C84.6441 70.6915 84.7381 70.8911 84.6735 71.0731C84.515 71.5309 84.3976 71.9301 84.3272 72.2412C84.2626 72.5171 84.2332 72.7049 84.245 72.7695V72.7754C84.3506 73.1452 86.5812 74.1724 88.9233 75.0764C91.1891 75.9451 93.5195 76.6554 94.1475 76.4969C94.3706 76.4382 94.6876 75.8395 94.9987 74.9355C95.3391 73.9552 95.6268 72.6521 95.7559 71.2844C95.8792 69.9226 95.844 68.5021 95.5328 67.2694C95.163 65.8136 94.4058 64.6279 93.0675 64.1525L93.0499 64.1466C92.0402 63.7944 91.1128 63.8237 90.2617 64.1172C89.4105 64.4225 88.6239 64.986 87.9196 65.6904Z" fill="#1B3C87"/>
<path fill-rule="evenodd" clip-rule="evenodd" d="M85.4484 74.3778C85.0316 74.9824 82.7365 82.3844 82.7365 82.3844C82.7365 82.3844 66.5531 89.3637 65.7548 89.7276C65.4731 89.3285 64.5045 88.5889 62.5322 88.5889C58.9281 88.5889 58.3176 90.9779 58.3176 91.4886C58.3176 91.9993 63.7825 93.1381 65.2441 93.1029C66.7057 93.0618 87.2152 89.9507 87.9549 89.575C88.6945 89.1935 93.59 77.6239 93.59 77.6239C92.281 77.5652 86.1528 75.6692 85.4484 74.3778Z" fill="white"/>
<path d="M75.2114 90.2735C75.4051 90.2442 75.5812 90.3792 75.6105 90.567C75.6399 90.7607 75.5049 90.9369 75.317 90.9662C72.6697 91.3712 70.0223 91.7645 67.962 92.0521C66.0543 92.3222 64.6807 92.4924 64.3227 92.5041H64.2405C63.4363 92.5041 61.6988 92.2224 60.155 91.876C58.4997 91.5062 57.0498 90.9897 57.0381 90.5494V90.5436C57.0381 90.1738 57.314 88.9469 58.5232 88.1193C59.21 87.6438 60.1961 87.2916 61.599 87.2916C62.4502 87.2916 63.1311 87.4266 63.6594 87.6086C64.2581 87.8199 64.669 88.1075 64.9214 88.3541C66.9583 87.4677 80.0012 81.8326 81.5215 81.1752C81.8561 80.1068 83.8225 73.826 84.2334 73.2273C84.345 73.0688 84.5621 73.0277 84.7206 73.1393C84.8791 73.2508 84.9202 73.468 84.8087 73.6265C84.433 74.1724 82.2729 81.1106 82.1496 81.5156C82.1261 81.6213 82.0498 81.7093 81.95 81.7563C81.9031 81.7739 65.7725 88.7415 64.9683 89.0996C64.8216 89.1641 64.6396 89.1172 64.5398 88.9822C64.399 88.7885 64.0526 88.495 63.4246 88.2719C62.9667 88.1075 62.368 87.996 61.599 87.996C60.3546 87.996 59.4976 88.2954 58.9165 88.6945C57.9597 89.352 57.7366 90.2677 57.7366 90.5436C57.7836 90.614 58.9576 90.9016 60.3076 91.201C61.7986 91.5356 63.4774 91.8056 64.2346 91.8056H64.2992C64.622 91.7939 65.9662 91.6236 67.8564 91.3595C69.8639 91.0836 72.5053 90.6903 75.2114 90.2735Z" fill="#1B3C87"/>
<path d="M92.3397 76.5379C92.416 76.3618 92.6215 76.2797 92.7976 76.3501C92.9737 76.4264 93.0559 76.6319 92.9854 76.808C92.9737 76.8432 88.0253 88.5185 87.1859 88.9352L87.1742 88.9411C87.0451 88.9998 86.505 89.1172 85.6715 89.2757C84.8791 89.4224 83.8049 89.6161 82.5487 89.8216C82.3609 89.8509 82.1789 89.7218 82.1495 89.5339C82.1202 89.3461 82.2493 89.1641 82.4372 89.1348C83.6816 88.9294 84.7499 88.7415 85.5424 88.5948C86.2996 88.4539 86.7809 88.3482 86.8807 88.313C87.5029 87.9491 92.3221 76.5673 92.3397 76.5379Z" fill="#1B3C87"/>
<path fill-rule="evenodd" clip-rule="evenodd" d="M78.5044 109.709H109.815V106.803H78.5044V109.709Z" fill="#3C50E0"/>
<path d="M97.1586 108.406C97.3524 108.406 97.5108 108.564 97.5108 108.758C97.5108 108.952 97.3524 109.11 97.1586 109.11H77.559C77.3653 109.11 77.2068 108.952 77.2068 108.758V105.858C77.2068 105.664 77.3653 105.506 77.559 105.506H108.863C109.057 105.506 109.215 105.664 109.215 105.858V108.758C109.215 108.952 109.057 109.11 108.863 109.11H103.363C103.169 109.11 103.011 108.952 103.011 108.758C103.011 108.564 103.169 108.406 103.363 108.406H108.517V106.204H77.9112V108.406H97.1586Z" fill="#1B3C87"/>
<path fill-rule="evenodd" clip-rule="evenodd" d="M22.84 94.3592H70.4802V91.9642H22.84V94.3592Z" fill="#3C50E0"/>
<path d="M35.2666 91.5004C35.0729 91.5004 34.9144 91.3419 34.9144 91.1482C34.9144 90.9545 35.0729 90.796 35.2666 90.796H69.6644C69.8581 90.796 70.0166 90.9545 70.0166 91.1482V93.5373C70.0166 93.731 69.8581 93.8895 69.6644 93.8895H22.0182C21.8245 93.8895 21.666 93.731 21.666 93.5373V91.1482C21.666 90.9545 21.8245 90.796 22.0182 90.796H29.3439C29.5376 90.796 29.6961 90.9545 29.6961 91.1482C29.6961 91.3419 29.5376 91.5004 29.3439 91.5004H22.3704V93.191H69.3122V91.5004H35.2666Z" fill="#1B3C87"/>
<path fill-rule="evenodd" clip-rule="evenodd" d="M44.8109 91.9641H61.5813V89.9565H44.8109V91.9641Z" fill="#FB5D64"/>
<path d="M44.3415 90.802H60.4133V89.493H44.3415V90.802ZM60.7655 91.5005H43.9951C43.8014 91.5005 43.6429 91.342 43.6429 91.1483V89.1349C43.6429 88.9412 43.8014 88.7827 43.9951 88.7827H60.7655C60.9592 88.7827 61.1177 88.9412 61.1177 89.1349V91.1483C61.1177 91.342 60.9592 91.5005 60.7655 91.5005Z" fill="#1B3C87"/>
<path fill-rule="evenodd" clip-rule="evenodd" d="M74.0079 133.729L79.5081 139.745L76.4909 148.092L85.7126 140.919L80.3592 129.878L74.0079 133.729Z" fill="white"/>
<path d="M82.9362 135.378C83.0184 135.554 82.9479 135.76 82.7718 135.842C82.5957 135.924 82.3903 135.854 82.3081 135.677L79.1031 129.074C79.021 128.898 79.0914 128.692 79.2675 128.61C79.4436 128.528 79.649 128.598 79.7312 128.774L82.9362 135.378Z" fill="#1B3C87"/>
<path d="M72.8048 133.012C72.6757 132.872 72.6874 132.649 72.8283 132.519C72.9691 132.39 73.1922 132.396 73.3213 132.543L78.8215 138.56C78.9095 138.659 78.933 138.794 78.8919 138.912L76.2857 146.126L84.3274 139.869L83.5057 138.19C83.4235 138.019 83.4939 137.808 83.6641 137.726C83.8344 137.644 84.0457 137.714 84.1279 137.884L85.0612 139.792C85.1492 139.945 85.114 140.139 84.979 140.25L75.7574 147.417C75.6634 147.488 75.5402 147.511 75.4228 147.47C75.2408 147.406 75.1469 147.206 75.2115 147.024L78.1582 138.871L72.8048 133.012Z" fill="#1B3C87"/>
<path fill-rule="evenodd" clip-rule="evenodd" d="M89.0759 121.678L92.1283 126.878L94.2356 127.982L90.2147 137.339L89.3048 131.457L83.9926 126.62L89.0759 121.678Z" fill="white"/>
<path d="M84.662 126.638C84.8028 126.767 84.8146 126.99 84.6854 127.131C84.5563 127.272 84.3333 127.284 84.1924 127.154L82.8482 125.922C82.7073 125.793 82.6955 125.57 82.8247 125.429C82.9538 125.288 83.1769 125.276 83.3178 125.405L84.662 126.638Z" fill="#1B3C87"/>
<path d="M87.8259 120.909C87.7261 120.744 87.7848 120.527 87.9491 120.433C88.1135 120.339 88.3307 120.392 88.4246 120.557L91.43 125.669L93.4493 126.72C93.6136 126.802 93.6782 127.002 93.6077 127.166L89.5868 136.523C89.5105 136.699 89.3051 136.781 89.129 136.705C89.0057 136.652 88.9294 136.534 88.9177 136.411L88.0313 130.676L86.9865 129.714C86.8456 129.584 86.8339 129.361 86.963 129.221C87.0921 129.08 87.3152 129.068 87.4561 129.197L88.5831 130.23C88.6477 130.283 88.6887 130.353 88.7005 130.441L89.4225 135.12L92.8388 127.178L91.025 126.233C90.9663 126.203 90.9134 126.156 90.8782 126.098L87.8259 120.909Z" fill="#1B3C87"/>
<path d="M85.29 108.758C85.29 108.564 85.4485 108.406 85.6422 108.406C85.8359 108.406 85.9944 108.564 85.9944 108.758V149.36C85.9944 149.554 85.8359 149.713 85.6422 149.713C85.4485 149.713 85.29 149.554 85.29 149.36V108.758Z" fill="#1B3C87"/>
<path d="M100.428 124.243C100.428 124.049 100.587 123.891 100.781 123.891C100.974 123.891 101.133 124.049 101.133 124.243V149.366C101.133 149.56 100.974 149.718 100.781 149.718C100.587 149.718 100.428 149.56 100.428 149.366V124.243Z" fill="#1B3C87"/>
<path d="M100.428 108.758C100.428 108.564 100.587 108.406 100.781 108.406C100.974 108.406 101.133 108.564 101.133 108.758V117.317C101.133 117.51 100.974 117.669 100.781 117.669C100.587 117.669 100.428 117.51 100.428 117.317V108.758Z" fill="#1B3C87"/>
<path fill-rule="evenodd" clip-rule="evenodd" d="M76.4969 52.8417C76.5909 53.1648 76.8024 53.3939 76.9727 53.3352C77.1431 53.2764 77.2195 52.971 77.1255 52.6714C77.0315 52.3659 76.82 52.1192 76.6496 52.1779C76.4734 52.2366 76.397 52.5421 76.4969 52.8417Z" fill="#1B3C87"/>
<path d="M74.096 56.3397C74.1254 56.1752 74.2781 56.0695 74.4367 56.093C74.5953 56.1165 74.707 56.2751 74.6835 56.4337C74.66 56.5747 74.613 56.7157 74.5425 56.8567C74.4661 57.0035 74.2899 57.0623 74.143 56.9918C73.9961 56.9213 73.9374 56.7392 74.0079 56.5923C74.049 56.5159 74.0784 56.4278 74.096 56.3397Z" fill="#1B3C87"/>
<path d="M73.9024 54.6139C73.8496 54.4613 73.9259 54.2911 74.0785 54.2324C74.2311 54.1796 74.4014 54.2559 74.4601 54.4085C74.5423 54.6315 74.601 54.8605 74.6479 55.0953C74.689 55.3301 74.7184 55.5649 74.7242 55.8055C74.7301 55.9699 74.601 56.1108 74.4366 56.1166C74.2722 56.1225 74.1372 55.9934 74.1255 55.829C74.1137 55.6177 74.0961 55.4064 74.0551 55.2009C74.0257 55.0072 73.9729 54.8076 73.9024 54.6139Z" fill="#1B3C87"/>
<path d="M79.0854 56.2399C79.062 56.0756 79.1794 55.9288 79.3378 55.9053C79.4963 55.8819 79.6489 55.9993 79.6724 56.1577C79.7135 56.4395 79.6313 56.7917 79.4435 57.1263C79.285 57.4139 79.0443 57.7015 78.7332 57.9187C78.5982 58.0126 78.4163 57.9774 78.3223 57.8424C78.2284 57.7074 78.2637 57.5254 78.3928 57.4315C78.6217 57.273 78.8037 57.0558 78.927 56.8387C79.0502 56.6215 79.103 56.3984 79.0854 56.2399Z" fill="#1B3C87"/>
<path fill-rule="evenodd" clip-rule="evenodd" d="M3.97998 63.3541H53.9565V48.2684H3.97998V63.3541Z" fill="#EEF5FF"/>
<path fill-rule="evenodd" clip-rule="evenodd" d="M49.6654 55.7468C49.6654 58.1769 47.6931 60.1492 45.2629 60.1492C42.8328 60.1492 40.8605 58.1769 40.8605 55.7468C40.8605 53.3167 42.8328 51.3444 45.2629 51.3444C47.6931 51.3444 49.6477 53.3167 49.6654 55.7468Z" fill="#B2C3FB"/>
<path d="M36.9334 52.8354C37.1271 52.8354 37.2856 52.9939 37.2856 53.1876C37.2856 53.3814 37.1271 53.5398 36.9334 53.5398H12.0978C11.9041 53.5398 11.7456 53.3814 11.7456 53.1876C11.7456 52.9939 11.9041 52.8354 12.0978 52.8354H36.9334Z" fill="#EAF0FF"/>
<path d="M36.9336 57.9362C37.1273 57.9362 37.2858 58.0946 37.2858 58.2884C37.2858 58.4821 37.1273 58.6405 36.9336 58.6405H23.7674C23.5736 58.6405 23.4152 58.4821 23.4152 58.2884C23.4152 58.0946 23.5736 57.9362 23.7674 57.9362H36.9336Z" fill="#EAF0FF"/>
<path fill-rule="evenodd" clip-rule="evenodd" d="M41.3359 37.7025H71.0495V0H41.3359V37.7025Z" fill="#EEF5FF"/>
<path d="M53.387 13.947L61.7281 33.5525L79.244 21.3959L53.387 13.947ZM61.3407 34.0925L52.6298 13.6241C52.6063 13.5654 52.6004 13.5009 52.618 13.4363C52.6591 13.2837 52.8176 13.2015 52.9702 13.2426L79.9542 21.0202C80.0188 21.0378 80.0834 21.0731 80.1245 21.1376C80.2125 21.2668 80.1832 21.4429 80.054 21.5309L61.7751 34.2158C61.7575 34.2276 61.734 34.2393 61.7105 34.251C61.5697 34.3039 61.3994 34.2393 61.3407 34.0925Z" fill="#B2C3FB"/>
<path fill-rule="evenodd" clip-rule="evenodd" d="M9.86133 26.1095H26.9545V18.9541H9.86133V26.1095Z" fill="#EEF5FF"/>
<path fill-rule="evenodd" clip-rule="evenodd" d="M1.90771 34.9143H19.0244V27.7765H1.90771V34.9143Z" fill="#EEF5FF"/>
</svg>
