<svg width="150" height="151" viewBox="0 0 150 151" fill="none" xmlns="http://www.w3.org/2000/svg">
<path fill-rule="evenodd" clip-rule="evenodd" d="M116.545 33.7846C131.584 46.9435 148.05 60.596 149.66 75.8051C151.31 91.0554 138.022 107.874 122.96 117.315C107.903 126.749 91.0964 128.805 70.8586 132.124C50.6737 135.485 27.111 140.196 13.4762 130.756C-0.15864 121.321 -3.90072 97.7524 4.60561 82.7136C13.1119 67.6748 33.9078 61.1599 47.5367 47.9481C61.1891 34.7891 67.6864 14.9449 77.7671 11.4143C87.8361 7.84262 101.488 20.6256 116.545 33.7846Z" fill="#F2F2F2"/>
<path fill-rule="evenodd" clip-rule="evenodd" d="M91.8779 40.6167H137.582V6.00391H91.8779V40.6167Z" fill="#EEF5FF"/>
<path fill-rule="evenodd" clip-rule="evenodd" d="M116.545 36.5163H129.933V12.5129H116.545V36.5163Z" fill="#EAF0FF"/>
<path fill-rule="evenodd" clip-rule="evenodd" d="M112.139 17.7941C112.139 20.8488 109.672 23.322 106.611 23.322C103.551 23.322 101.083 20.8547 101.083 17.7941C101.083 14.7393 103.551 12.2661 106.611 12.2661C109.672 12.2661 112.139 14.7569 112.139 17.7941Z" fill="#FB5D64"/>
<path fill-rule="evenodd" clip-rule="evenodd" d="M138.134 76.7157C138.134 84.1764 132.095 90.2154 124.634 90.2154C117.173 90.2154 111.134 84.1764 111.134 76.7157C111.134 69.2551 117.173 63.2161 124.634 63.2161C132.095 63.2161 138.134 69.2551 138.134 76.7157Z" fill="white"/>
<path d="M117.855 80.2873H146.223V51.9133H117.855V80.2873ZM146.511 80.8571H117.573C117.414 80.8571 117.291 80.7279 117.291 80.5752V51.6372C117.291 51.4786 117.42 51.3552 117.573 51.3552H146.511C146.669 51.3552 146.799 51.4845 146.799 51.6372V80.5752C146.793 80.7279 146.664 80.8571 146.511 80.8571Z" fill="#B2C3FB"/>
<path d="M70.1362 150.112C69.9423 150.112 69.7837 149.954 69.7837 149.76C69.7837 149.566 69.9423 149.407 70.1362 149.407H141.935C142.129 149.407 142.287 149.566 142.287 149.76C142.287 149.954 142.129 150.112 141.935 150.112H70.1362Z" fill="#1B3C87"/>
<path d="M0.352472 150.112C0.158613 150.112 0 149.954 0 149.76C0 149.566 0.158613 149.407 0.352472 149.407H53.2586C53.4524 149.407 53.611 149.566 53.611 149.76C53.611 149.954 53.4524 150.112 53.2586 150.112H0.352472Z" fill="#1B3C87"/>
<path fill-rule="evenodd" clip-rule="evenodd" d="M82.8957 52.1661L82.6137 53.5877L80.6399 54.1928C80.6399 54.1928 79.6706 51.1321 79.5178 50.4507C78.5662 51.1556 73.097 52.6889 72.1512 52.824C72.0161 52.0838 72.0161 45.7217 77.3325 45.7217C82.0028 45.7217 84.1117 50.4096 84.2234 50.9618C83.959 51.1204 82.8957 51.4964 82.8957 52.1661Z" fill="#FDB400"/>
<path fill-rule="evenodd" clip-rule="evenodd" d="M84.2056 64.4084C83.0072 64.4084 74.4069 73.1028 74.0485 74.9297L71.2758 89.2871L85.6508 85.2631L86.4849 66.9756L84.4347 64.4143H84.2056V64.4084Z" fill="#FDB400"/>
<path fill-rule="evenodd" clip-rule="evenodd" d="M66.4705 89.6456C66.4529 88.641 74.6948 62.6051 75.623 61.7121C76.2516 61.0836 77.1034 60.7605 77.9787 60.8016C78.3958 60.8192 80.352 61.7533 80.7691 62.7402C80.0642 64.4321 78.3371 65.3602 78.3371 65.3602L75.0121 85.927L66.4705 89.6456Z" fill="white"/>
<path fill-rule="evenodd" clip-rule="evenodd" d="M76.5158 105.272L88.4411 120.028L82.6488 125.838L65.1427 110.535L69.2842 104.837L76.5158 105.272Z" fill="#3C3744"/>
<path fill-rule="evenodd" clip-rule="evenodd" d="M73.3848 131.69C71.7693 130.227 52.9355 106.758 52.9355 103.85C52.9355 97.3765 60.2846 95.0795 62.2996 94.5626C65.0547 94.3158 77.3207 93.2878 79.2358 93.3641C80.6222 94.8622 96.7596 98.3399 99.0977 98.052C99.0977 99.2269 97.2354 107.416 84.0412 107.416C82.6548 107.416 72.251 106.999 72.0572 106.999C72.0572 109.431 78.7248 125.286 79.3651 126.367L73.3848 131.69Z" fill="#3C3744"/>
<path fill-rule="evenodd" clip-rule="evenodd" d="M90.456 60.179C101.148 60.179 103.445 79.4533 103.445 84.9225C103.445 91.8897 100.613 97.4764 99.2678 97.9875C95.4494 99.4502 81.4386 94.6449 80.5457 92.3656C76.2103 81.2744 83.3537 60.179 90.456 60.179Z" fill="#FDB400"/>
<path d="M81.1097 47.2372C80.9687 47.108 80.9511 46.8906 81.0803 46.7437C81.2096 46.6028 81.4269 46.5851 81.5738 46.7144C82.032 47.1256 82.4491 47.5721 82.8192 48.0538C83.1952 48.5472 83.53 49.0701 83.8179 49.6223L83.8884 49.7633C83.9647 49.9101 84.0352 50.0511 84.094 50.198C84.1645 50.3801 84.0763 50.5798 83.9001 50.6503C83.7239 50.7208 83.5183 50.6327 83.4478 50.4564C83.3949 50.3213 83.3303 50.2038 83.2657 50.0746L83.1952 49.9336C82.9249 49.4167 82.6195 48.9232 82.267 48.4709C81.9145 48.0361 81.5327 47.619 81.1097 47.2372Z" fill="#1B3C87"/>
<path d="M72.8032 55.2854C72.8913 55.4558 72.8267 55.6673 72.6504 55.7554C72.4801 55.8435 72.2686 55.773 72.1805 55.6027C71.1465 53.5936 70.8469 51.4435 71.1994 49.5871C71.5578 47.7014 72.5917 46.1153 74.2072 45.2752L74.2307 45.2635C74.7535 45.005 75.3116 44.8288 75.8873 44.7465C76.463 44.6643 77.0505 44.6643 77.6379 44.77C77.8318 44.8053 77.9551 44.9815 77.9258 45.1754C77.8905 45.3634 77.7143 45.4926 77.5204 45.4632C77.0093 45.3751 76.4924 45.3692 75.9872 45.4456C75.482 45.522 75.0002 45.6747 74.542 45.8979L74.5303 45.9038C73.1145 46.6381 72.204 48.0421 71.8867 49.7223C71.5636 51.4317 71.8397 53.4232 72.8032 55.2854Z" fill="#1B3C87"/>
<path d="M82.784 58.2931C82.9133 58.1462 83.1306 58.1345 83.2775 58.2579C83.4244 58.3871 83.4361 58.6045 83.3127 58.7513C83.1013 58.9922 82.8604 59.2154 82.6019 59.4151C82.3434 59.6149 82.0615 59.797 81.7619 59.9497L81.7442 59.9615C80.6633 60.5137 79.459 60.6547 78.2548 60.4491C77.0211 60.2376 75.7875 59.656 74.7007 58.7689C74.5479 58.6456 74.5303 58.4282 74.6478 58.2755C74.7712 58.1228 74.9885 58.1051 75.1413 58.2226C76.1341 59.0333 77.2561 59.562 78.3722 59.7559C79.4297 59.938 80.4812 59.8087 81.427 59.3329L81.4446 59.3212C81.6972 59.186 81.944 59.0333 82.1731 58.8571C82.3963 58.6926 82.6019 58.5046 82.784 58.2931Z" fill="#1B3C87"/>
<path d="M82.5372 51.6079C82.4668 51.79 82.2611 51.8723 82.079 51.8018C81.9028 51.7313 81.8147 51.5257 81.8852 51.3435C82.1084 50.7913 82.5372 50.3742 83.0483 50.1569C83.5535 49.9395 84.1469 49.9102 84.7108 50.1216L84.7167 50.1275C85.2689 50.3507 85.686 50.7796 85.9034 51.2907C86.1207 51.7959 86.1501 52.3892 85.9386 52.9532L85.9327 52.9708C85.7741 53.3761 85.4921 53.711 85.1455 53.946C84.7931 54.1868 84.3642 54.3219 83.9236 54.3219C83.765 54.3219 83.6064 54.2984 83.4478 54.2632C83.2892 54.2221 83.1247 54.1692 82.9778 54.0987C82.8016 54.0165 82.7252 53.8109 82.8075 53.6346C82.8897 53.4584 83.0953 53.382 83.2716 53.4643C83.3773 53.5113 83.4948 53.5524 83.6123 53.5817C83.718 53.6052 83.8238 53.6229 83.9236 53.6229C84.2232 53.6229 84.5111 53.5289 84.7519 53.3703C84.9869 53.2117 85.1749 52.9884 85.2807 52.7241L85.2865 52.7123C85.4334 52.3246 85.4158 51.9192 85.263 51.5726C85.1103 51.2261 84.8342 50.9382 84.4523 50.7855C84.0705 50.6445 83.6652 50.6621 83.3244 50.809C82.9778 50.9558 82.69 51.2319 82.5372 51.6079Z" fill="#1B3C87"/>
<path d="M84.0882 64.6963C84.141 64.8843 84.0294 65.0722 83.8473 65.1251C83.6652 65.178 83.4713 65.0664 83.4185 64.8843C83.2599 64.3086 82.8369 62.9868 82.2612 61.806C81.9146 61.0834 81.5092 60.4255 81.0863 60.0319C80.9453 59.9026 80.9335 59.6794 81.0687 59.5384C81.1979 59.3974 81.4211 59.3857 81.5621 59.5208C82.0615 59.979 82.5138 60.7133 82.8956 61.5064C83.4831 62.7342 83.9237 64.1029 84.0882 64.6963Z" fill="#1B3C87"/>
<path d="M84.3879 54.5218C84.335 54.3397 84.4349 54.1399 84.6228 54.0871C84.805 54.0342 85.0047 54.1341 85.0576 54.3221C85.222 54.8566 86.0034 56.0786 86.8787 57.3063C87.9126 58.7573 89.0581 60.1848 89.4752 60.5021C89.5809 60.5784 89.6279 60.7077 89.6103 60.8311C89.5692 61.1718 89.2814 61.6124 88.8525 62.0706C88.4119 62.5405 87.801 63.0634 87.1548 63.5333C86.9962 63.645 86.7788 63.6097 86.6672 63.457C86.5556 63.3042 86.5908 63.081 86.7435 62.9694C87.3545 62.5229 87.9243 62.0353 88.3414 61.5947C88.5999 61.3186 88.7879 61.0778 88.8701 60.9015C88.3179 60.367 87.2605 59.0393 86.3088 57.7117C85.3924 56.4369 84.57 55.1386 84.3879 54.5218Z" fill="#1B3C87"/>
<path d="M80.5517 53.6933C80.3696 53.752 80.1699 53.6463 80.117 53.4642C80.0582 53.2821 80.164 53.0823 80.3461 53.0294L81.6267 52.6359L81.8735 51.4139C81.9087 51.226 82.0967 51.1026 82.2847 51.1378C82.4727 51.1731 82.596 51.3611 82.5608 51.5491L82.2788 52.9707C82.2553 53.0941 82.1672 53.1998 82.038 53.2351L80.5517 53.6933Z" fill="#1B3C87"/>
<path d="M76.5512 51.0909C76.3691 51.1497 76.1693 51.0498 76.1106 50.8677C76.0518 50.6856 76.1517 50.4859 76.3338 50.4271C76.8978 50.245 77.4147 50.057 77.826 49.8867C78.2019 49.7339 78.4839 49.5929 78.6308 49.4931C78.7894 49.3815 79.0067 49.4167 79.1183 49.5694C79.1477 49.6106 79.1653 49.6576 79.1771 49.7104C79.2241 49.9395 79.3827 50.4976 79.5648 51.1027C79.7528 51.7313 79.9584 52.3892 80.0994 52.8416C80.1581 53.0237 80.0524 53.2234 79.8703 53.2821C79.6882 53.3409 79.4884 53.2351 79.4356 53.053C79.2946 52.5948 79.0772 51.9134 78.8951 51.3083C78.7835 50.9382 78.6836 50.5916 78.6073 50.3096C78.4604 50.3801 78.2842 50.4565 78.0962 50.5387C77.6556 50.7091 77.121 50.903 76.5512 51.0909Z" fill="#1B3C87"/>
<path d="M71.5167 52.489C71.3287 52.5183 71.1466 52.3891 71.1172 52.1952C71.0878 52.0072 71.2171 51.8251 71.4109 51.7958C71.593 51.7664 71.9749 51.6841 72.486 51.5549C72.9207 51.4433 73.4318 51.3082 73.9487 51.1613C74.1367 51.1084 74.3247 51.2142 74.3834 51.4022C74.4363 51.5901 74.3306 51.7781 74.1426 51.8369C73.5845 52.0014 73.0734 52.1365 72.6504 52.2422C72.1394 52.3656 71.7281 52.4537 71.5167 52.489Z" fill="#1B3C87"/>
<path d="M82.5197 93.1467C82.69 93.229 82.7664 93.4405 82.6783 93.6167C82.596 93.7871 82.3845 93.8634 82.2083 93.7753C81.427 93.3876 80.7573 92.9999 80.2638 92.6298C79.7527 92.2538 79.4061 91.8778 79.2652 91.5371L79.2593 91.5195C78.6072 89.8394 78.2136 87.9419 78.0374 85.9211C77.8494 83.7651 77.914 81.4682 78.1784 79.1536C78.2019 78.9597 78.3722 78.8246 78.5661 78.8481C78.76 78.8716 78.8951 79.042 78.8716 79.2358C78.6072 81.5034 78.5485 83.7475 78.7306 85.8623C78.9009 87.8185 79.2828 89.6573 79.9055 91.2669L79.9114 91.2728C79.9995 91.4901 80.2638 91.7603 80.675 92.0599C81.145 92.4124 81.7736 92.7825 82.5197 93.1467Z" fill="#1B3C87"/>
<path d="M100.672 73.0616C100.625 72.8736 100.737 72.6857 100.925 72.6387C101.113 72.5917 101.301 72.7033 101.348 72.8913C101.835 74.8357 102.182 76.7685 102.417 78.5073C102.722 80.7866 102.84 82.737 102.84 83.9706C102.84 86.9901 102.311 89.7571 101.606 91.9776C100.643 94.9971 99.2915 97.0356 98.4397 97.3646C97.5467 97.7053 96.1604 97.7347 94.5331 97.5349C92.7296 97.3176 90.603 96.8359 88.5293 96.2132C88.3414 96.1603 88.2415 95.9606 88.2944 95.7785C88.3472 95.5905 88.547 95.4906 88.7291 95.5435C90.7675 96.1544 92.853 96.6303 94.6154 96.8418C96.1369 97.0239 97.4116 97.0062 98.1871 96.7125C98.8744 96.4482 100.038 94.5859 100.936 91.772C101.624 89.6161 102.135 86.9255 102.135 83.9765C102.135 82.7605 102.023 80.8395 101.718 78.6072C101.494 76.8859 101.154 74.9826 100.672 73.0616Z" fill="#1B3C87"/>
<path d="M88.2004 59.8203C88.0182 59.8849 87.8185 59.7968 87.7539 59.6147C87.6893 59.4326 87.7774 59.2328 87.9595 59.1682C88.2062 59.0742 88.4588 59.0037 88.7114 58.9567C88.9699 58.9097 89.2343 58.8804 89.5045 58.8804C90.9026 58.8804 92.1715 59.2035 93.3112 59.7733C94.5507 60.396 95.6375 61.3066 96.5833 62.4168C96.7067 62.5637 96.6891 62.7869 96.5422 62.9103C96.3953 63.0337 96.1721 63.016 96.0487 62.8692C95.1558 61.8235 94.1395 60.9717 92.994 60.396C91.9483 59.8732 90.7852 59.5794 89.4986 59.5794C89.2695 59.5794 89.0522 59.6029 88.8348 59.6441C88.6233 59.6793 88.4118 59.7439 88.2004 59.8203Z" fill="#1B3C87"/>
<path d="M80.9865 70.1067C80.9219 70.2889 80.728 70.3887 80.5401 70.3241C80.3579 70.2595 80.2581 70.0656 80.3227 69.8835C80.681 68.832 81.104 67.7981 81.5798 66.7876C82.0674 65.7478 82.6138 64.7374 83.2012 63.7622C83.3011 63.5978 83.5184 63.5449 83.6829 63.6448C83.8474 63.7446 83.9003 63.962 83.8004 64.1265C83.2188 65.0899 82.6843 66.0827 82.2084 67.0872C81.7502 68.0624 81.339 69.0728 80.9865 70.1067Z" fill="#1B3C87"/>
<path d="M74.3365 62.3232C74.266 62.5053 74.0604 62.5875 73.8783 62.517C73.6961 62.4465 73.6139 62.2409 73.6844 62.0588C73.8489 61.6535 73.9899 61.3186 74.1015 61.0778C74.2249 60.8134 74.3306 60.6313 74.4246 60.5373C74.7712 60.1907 75.1765 59.9322 75.623 59.756C76.0695 59.5856 76.5512 59.5034 77.0388 59.5269C77.3325 59.5386 78.2195 59.9029 78.9656 60.4198C79.4767 60.7782 79.9408 61.2129 80.1405 61.6828C80.2169 61.8591 80.1288 62.0647 79.9525 62.1411C79.7763 62.2174 79.5707 62.1293 79.4943 61.9531C79.3533 61.6241 78.9832 61.2893 78.5661 60.9955C77.9258 60.5491 77.215 60.2377 77.0094 60.226C76.6158 60.2083 76.2339 60.273 75.8756 60.4139C75.5231 60.5491 75.1942 60.7605 74.918 61.0367L74.8946 61.0601C74.8828 61.0719 74.8241 61.1835 74.7359 61.3774C74.6302 61.6065 74.4951 61.9296 74.3365 62.3232Z" fill="#1B3C87"/>
<path d="M68.1741 80.6752C68.1154 80.8573 67.9215 80.963 67.7335 80.9043C67.5514 80.8455 67.4457 80.6517 67.5044 80.4696C68.2564 78.0727 69.1141 75.3822 69.9659 72.7798C70.6943 70.5533 71.4228 68.368 72.0866 66.447C72.1512 66.2649 72.3451 66.1651 72.533 66.2297C72.7151 66.2943 72.815 66.4882 72.7504 66.6761C72.1101 68.5266 71.3816 70.7178 70.6356 72.9971C69.7838 75.5878 68.9261 78.2725 68.1741 80.6752Z" fill="#1B3C87"/>
<path d="M65.8537 88.5645C65.8537 88.7584 65.6951 88.917 65.5013 88.917C65.3074 88.917 65.1488 88.7584 65.1488 88.5645C65.1488 88.4411 65.2252 88.1004 65.3603 87.5893C65.4954 87.0841 65.6775 86.4262 65.9007 85.639C65.9536 85.451 66.1475 85.3452 66.3355 85.3981C66.5234 85.451 66.6292 85.6448 66.5763 85.8328C66.3472 86.6435 66.1592 87.3015 66.0359 87.7656C65.9184 88.2179 65.8537 88.4999 65.8537 88.5645Z" fill="#1B3C87"/>
<path d="M77.2855 61.9293C77.0916 61.9 76.9624 61.7237 76.9859 61.5358C77.0153 61.3419 77.1915 61.2127 77.3795 61.2362C77.638 61.2714 78.0609 61.477 78.4839 61.7531C78.854 61.994 79.23 62.3053 79.4943 62.6049C79.6236 62.7518 79.6059 62.975 79.4591 63.0984C79.3122 63.2276 79.089 63.21 78.9656 63.0631C78.7424 62.8047 78.4193 62.5462 78.0962 62.3347C77.7613 62.1115 77.4441 61.9528 77.2855 61.9293Z" fill="#1B3C87"/>
<path d="M76.1457 63.3688C75.9519 63.3394 75.8226 63.1632 75.8461 62.9752C75.8755 62.7814 76.0517 62.6521 76.2397 62.6756C76.4982 62.7109 76.9212 62.9165 77.3441 63.1926C77.7142 63.4334 78.0902 63.7448 78.3546 64.0444C78.4838 64.1912 78.4662 64.4145 78.3193 64.5378C78.1725 64.6671 77.9492 64.6495 77.8259 64.5026C77.6026 64.2441 77.2795 63.9856 76.9564 63.7741C76.6216 63.5509 76.3043 63.3923 76.1457 63.3688Z" fill="#1B3C87"/>
<path d="M74.4187 84.8752C74.4128 85.0691 74.2484 85.216 74.0545 85.2101C73.8606 85.2042 73.7138 85.0397 73.7197 84.8459C73.7432 84.2702 74.6302 77.8845 75.5349 72.433C76.0753 69.155 76.6275 66.2059 77.0035 65.0252C77.0623 64.8431 77.2561 64.7373 77.4382 64.7961C77.6203 64.8548 77.7261 65.0487 77.6673 65.2308C77.3031 66.3704 76.7627 69.2901 76.2222 72.5446C75.3234 77.9785 74.4422 84.3113 74.4187 84.8752Z" fill="#1B3C87"/>
<path d="M79.1476 67.287C79.0184 67.428 78.7952 67.4339 78.6542 67.3046C78.5132 67.1754 78.5073 66.9522 78.6365 66.8112C79.3356 66.0592 80.111 65.2838 80.8806 64.6141C81.6619 63.9326 82.4491 63.3569 83.1541 63.028C83.3303 62.9457 83.5359 63.0221 83.6181 63.1983C83.7004 63.3746 83.624 63.5802 83.4478 63.6624C82.8075 63.962 82.079 64.4966 81.3447 65.1369C80.5869 65.7949 79.8291 66.5586 79.1476 67.287Z" fill="#1B3C87"/>
<path d="M34.9946 75.1882C34.8947 75.0237 34.9476 74.8064 35.1121 74.7065C35.2766 74.6067 35.4939 74.6595 35.5938 74.824L44.3292 89.0286C44.4291 89.1931 44.3762 89.4105 44.2118 89.5104C44.0473 89.6102 43.8299 89.5574 43.73 89.3929L34.9946 75.1882Z" fill="#1B3C87"/>
<path d="M97.7935 97.0886C97.7935 96.8947 97.9522 96.7361 98.146 96.7361C98.3399 96.7361 98.4985 96.8947 98.4985 97.0886C98.4985 97.8816 97.7054 101.7 93.5228 104.297C91.2199 105.73 87.8891 106.799 83.0896 106.799C82.1027 106.799 76.2634 106.576 73.1087 106.453L71.4932 106.394C71.6754 107.533 72.5389 110.065 73.6139 112.915C75.6172 118.213 78.3253 124.558 78.7189 125.222C78.8188 125.386 78.7659 125.604 78.5956 125.703C78.4311 125.803 78.2137 125.75 78.1138 125.58C77.7085 124.899 74.9651 118.49 72.956 113.161C71.7224 109.895 70.7589 107.017 70.7531 106.041V106.03C70.7531 105.836 70.9117 105.677 71.1055 105.677C71.1349 105.677 71.9456 105.707 73.1264 105.753C76.2575 105.871 82.0498 106.094 83.0837 106.094C87.7363 106.094 90.9438 105.066 93.1468 103.697C97.0534 101.277 97.7935 97.8111 97.7935 97.0886Z" fill="#1B3C87"/>
<path d="M61.2069 93.2877C61.389 93.2231 61.5887 93.3112 61.6534 93.4933C61.7239 93.6754 61.6299 93.8752 61.4477 93.9398C61.2833 93.9985 61.1188 94.0573 60.9249 94.1278C58.5105 94.9737 52.3128 97.1531 52.3128 102.898C52.3128 103.909 54.9681 107.874 58.3636 112.492C64.009 120.175 71.6518 129.575 72.6505 130.479C72.7915 130.609 72.8032 130.832 72.674 130.973C72.5447 131.114 72.3215 131.126 72.1805 130.996C71.1642 130.08 63.4627 120.616 57.7997 112.909C54.3278 108.186 51.6138 104.085 51.6138 102.904C51.6138 96.6597 58.1463 94.3686 60.6958 93.4757C60.9014 93.3993 61.0777 93.3347 61.2069 93.2877Z" fill="#1B3C87"/>
<path d="M71.6695 132.077C71.5051 132.183 71.2936 132.13 71.1878 131.972C71.0821 131.807 71.135 131.596 71.2936 131.49L79.935 125.985C80.0995 125.88 80.311 125.933 80.4167 126.091C80.5225 126.256 80.4696 126.467 80.311 126.573L71.6695 132.077Z" fill="#1B3C87"/>
<path d="M72.6152 133.599C72.4507 133.699 72.2393 133.646 72.1335 133.481C72.0337 133.317 72.0865 133.099 72.251 132.999L81.1568 127.607C81.3213 127.507 81.5328 127.56 81.6385 127.724C81.7384 127.889 81.6855 128.1 81.521 128.2L72.6152 133.599Z" fill="#1B3C87"/>
<path d="M75.7523 120.134C75.6113 120.005 75.5937 119.782 75.7288 119.641C75.8581 119.5 76.0813 119.488 76.2223 119.617L81.7679 124.611C81.9089 124.74 81.9206 124.963 81.7914 125.104C81.6621 125.245 81.4389 125.257 81.2979 125.128L75.7523 120.134Z" fill="#1B3C87"/>
<path d="M78.9598 109.061C78.8364 108.908 78.8599 108.691 79.0127 108.567C79.1654 108.444 79.3828 108.473 79.5061 108.62L87.7481 118.854C87.8715 119.007 87.848 119.224 87.6952 119.347C87.5425 119.471 87.3252 119.441 87.2018 119.294L78.9598 109.061Z" fill="#1B3C87"/>
<path d="M88.2003 118.09C88.3413 117.955 88.5586 117.961 88.6937 118.096C88.8289 118.237 88.823 118.454 88.6879 118.589L81.3976 125.674C81.2566 125.809 81.0392 125.803 80.9041 125.668C80.769 125.527 80.7749 125.31 80.91 125.175L88.2003 118.09Z" fill="#1B3C87"/>
<path d="M89.1109 119.453C89.246 119.318 89.4693 119.324 89.6044 119.459C89.7395 119.6 89.7336 119.817 89.5985 119.952L82.3082 127.037C82.1731 127.172 81.9499 127.166 81.8148 127.031C81.6796 126.89 81.6855 126.673 81.8206 126.538L89.1109 119.453Z" fill="#1B3C87"/>
<path d="M30.9941 143.462C30.9941 143.268 31.1528 143.11 31.3466 143.11C31.5405 143.11 31.6991 143.268 31.6991 143.462V149.748C31.6991 149.942 31.5405 150.1 31.3466 150.1C31.1528 150.1 30.9941 149.942 30.9941 149.748V143.462Z" fill="#1B3C87"/>
<path d="M30.9941 93.6169C30.9941 93.423 31.1528 93.2644 31.3466 93.2644C31.5405 93.2644 31.6991 93.423 31.6991 93.6169V131.784C31.6991 131.978 31.5405 132.136 31.3466 132.136C31.1528 132.136 30.9941 131.978 30.9941 131.784V93.6169Z" fill="#1B3C87"/>
<path d="M60.0437 93.6169C60.0437 93.423 60.2023 93.2644 60.3962 93.2644C60.59 93.2644 60.7486 93.423 60.7486 93.6169V149.766C60.7486 149.96 60.59 150.118 60.3962 150.118C60.2023 150.118 60.0437 149.96 60.0437 149.766V93.6169Z" fill="#1B3C87"/>
<path fill-rule="evenodd" clip-rule="evenodd" d="M94.1924 64.8256C99.2797 66.5938 96.6773 77.4911 95.2557 77.8495C93.834 78.2078 85.1926 74.8123 84.9282 73.8783C84.6639 72.956 88.2532 62.7578 94.1924 64.8256Z" fill="#F2AD01"/>
<path d="M87.9888 65.742C87.8537 65.8771 87.6304 65.8771 87.4953 65.742C87.3602 65.6069 87.3602 65.3837 87.4953 65.2486C88.2708 64.4731 89.1461 63.8504 90.1212 63.5156C91.1082 63.1807 92.195 63.1455 93.364 63.5508L93.3816 63.5567C94.9795 64.1206 95.8665 65.4894 96.2895 67.1578C96.6244 68.4737 96.6655 69.9776 96.5304 71.4109C96.4011 72.8385 96.0956 74.1955 95.7373 75.2235C95.3437 76.3514 94.8502 77.121 94.392 77.2385C93.6225 77.4323 91.1258 76.698 88.7466 75.7875C86.2323 74.8182 83.8061 73.608 83.6416 73.0264C83.6358 73.0088 83.6299 72.9853 83.6299 72.9677C83.6005 72.7973 83.6299 72.5095 83.7121 72.1394C83.7885 71.7987 83.9119 71.3698 84.0822 70.894C84.1468 70.7119 84.3466 70.6179 84.5287 70.6825C84.7108 70.7471 84.8048 70.9469 84.7402 71.129C84.5816 71.5872 84.4641 71.9866 84.3936 72.298C84.329 72.5741 84.2996 72.7621 84.3113 72.8267V72.8326C84.4171 73.2027 86.6494 74.2307 88.9933 75.1354C91.2609 76.0048 93.5931 76.7157 94.2217 76.557C94.4449 76.4983 94.7621 75.8991 95.0735 74.9944C95.4142 74.0134 95.7021 72.7092 95.8313 71.3404C95.9547 69.9776 95.9194 68.5559 95.6081 67.3223C95.238 65.8654 94.4802 64.6787 93.1408 64.2029L93.1231 64.197C92.1127 63.8445 91.1845 63.8739 90.3327 64.1676C89.4809 64.4731 88.6937 65.0371 87.9888 65.742Z" fill="#1B3C87"/>
<path fill-rule="evenodd" clip-rule="evenodd" d="M85.5156 74.4363C85.0985 75.0414 82.8016 82.4492 82.8016 82.4492C82.8016 82.4492 66.6055 89.434 65.8066 89.7982C65.5246 89.3987 64.5553 88.6585 62.5814 88.6585C58.9745 88.6585 58.3635 91.0495 58.3635 91.5606C58.3635 92.0716 63.8327 93.2113 65.2955 93.1761C66.7582 93.1349 87.2839 90.0214 88.0241 89.6455C88.7643 89.2636 93.6636 77.6849 93.6636 77.6849C92.3536 77.6261 86.2206 75.7287 85.5156 74.4363Z" fill="white"/>
<path d="M75.2707 90.3446C75.4646 90.3152 75.6408 90.4503 75.6702 90.6383C75.6995 90.8322 75.5644 91.0084 75.3764 91.0378C72.727 91.4431 70.0776 91.8367 68.0156 92.1246C66.1064 92.3948 64.7318 92.5651 64.3734 92.5769H64.2912C63.4864 92.5769 61.7475 92.2949 60.2025 91.9483C58.5459 91.5782 57.0949 91.0613 57.0831 90.6207V90.6148C57.0831 90.2447 57.3592 89.0169 58.5694 88.1886C59.2567 87.7128 60.2436 87.3603 61.6476 87.3603C62.4995 87.3603 63.1809 87.4954 63.7096 87.6775C64.3088 87.889 64.72 88.1769 64.9726 88.4236C67.0111 87.5365 80.0643 81.897 81.5858 81.239C81.9207 80.1699 83.8886 73.8841 84.2999 73.2849C84.4115 73.1263 84.6288 73.0852 84.7874 73.1968C84.9461 73.3084 84.9872 73.5258 84.8756 73.6844C84.4996 74.2307 82.3378 81.1744 82.2144 81.5798C82.1909 81.6855 82.1145 81.7736 82.0147 81.8206C81.9677 81.8382 65.8244 88.8113 65.0196 89.1697C64.8728 89.2343 64.6907 89.1873 64.5908 89.0522C64.4498 88.8583 64.1032 88.5646 63.4746 88.3414C63.0164 88.1769 62.4172 88.0653 61.6476 88.0653C60.4022 88.0653 59.5446 88.3649 58.963 88.7643C58.0054 89.4223 57.7822 90.3387 57.7822 90.6148C57.8292 90.6853 59.0041 90.9731 60.3553 91.2727C61.8474 91.6076 63.5275 91.8778 64.2853 91.8778H64.3499C64.673 91.8661 66.0183 91.6957 67.9099 91.4314C69.919 91.1553 72.5625 90.7617 75.2707 90.3446Z" fill="#1B3C87"/>
<path d="M92.4124 76.5982C92.4888 76.4219 92.6944 76.3397 92.8707 76.4102C93.0469 76.4866 93.1291 76.6922 93.0586 76.8684C93.0469 76.9037 88.0947 88.5881 87.2546 89.0052L87.2428 89.0111C87.1136 89.0698 86.5732 89.1873 85.739 89.3459C84.9459 89.4928 83.8709 89.6866 82.6137 89.8923C82.4257 89.9216 82.2436 89.7924 82.2142 89.6044C82.1849 89.4164 82.3141 89.2343 82.5021 89.2049C83.7475 88.9993 84.8167 88.8113 85.6097 88.6645C86.3675 88.5235 86.8493 88.4177 86.9491 88.3825C87.5718 88.0183 92.3948 76.6275 92.4124 76.5982Z" fill="#1B3C87"/>
<path fill-rule="evenodd" clip-rule="evenodd" d="M78.5662 109.795H109.901V106.887H78.5662V109.795Z" fill="#3C50E0"/>
<path d="M97.2353 108.491C97.4291 108.491 97.5877 108.65 97.5877 108.843C97.5877 109.037 97.4291 109.196 97.2353 109.196H77.6202C77.4263 109.196 77.2677 109.037 77.2677 108.843V105.941C77.2677 105.747 77.4263 105.589 77.6202 105.589H108.949C109.143 105.589 109.302 105.747 109.302 105.941V108.843C109.302 109.037 109.143 109.196 108.949 109.196H103.445C103.251 109.196 103.092 109.037 103.092 108.843C103.092 108.65 103.251 108.491 103.445 108.491H108.602V106.288H77.9726V108.491H97.2353Z" fill="#1B3C87"/>
<path fill-rule="evenodd" clip-rule="evenodd" d="M22.8579 94.4334H70.5357V92.0366H22.8579V94.4334Z" fill="#3C50E0"/>
<path d="M35.2943 91.5724C35.1004 91.5724 34.9418 91.4138 34.9418 91.2199C34.9418 91.026 35.1004 90.8674 35.2943 90.8674H69.7191C69.9129 90.8674 70.0715 91.026 70.0715 91.2199V93.6108C70.0715 93.8047 69.9129 93.9633 69.7191 93.9633H22.0355C21.8416 93.9633 21.683 93.8047 21.683 93.6108V91.2199C21.683 91.026 21.8416 90.8674 22.0355 90.8674H29.3669C29.5607 90.8674 29.7193 91.026 29.7193 91.2199C29.7193 91.4138 29.5607 91.5724 29.3669 91.5724H22.3879V93.2642H69.3666V91.5724H35.2943Z" fill="#1B3C87"/>
<path fill-rule="evenodd" clip-rule="evenodd" d="M44.8462 92.0364H61.6297V90.0273H44.8462V92.0364Z" fill="#FB5D64"/>
<path d="M44.3763 90.8734H60.4608V89.5634H44.3763V90.8734ZM60.8133 91.5724H44.0297C43.8359 91.5724 43.6772 91.4138 43.6772 91.22V89.205C43.6772 89.0112 43.8359 88.8525 44.0297 88.8525H60.8133C61.0071 88.8525 61.1657 89.0112 61.1657 89.205V91.22C61.1657 91.4138 61.0071 91.5724 60.8133 91.5724Z" fill="#1B3C87"/>
<path fill-rule="evenodd" clip-rule="evenodd" d="M74.0662 133.834L79.5706 139.855L76.5511 148.209L85.78 141.03L80.4224 129.98L74.0662 133.834Z" fill="white"/>
<path d="M83.0014 135.485C83.0836 135.661 83.0131 135.866 82.8369 135.949C82.6606 136.031 82.455 135.96 82.3728 135.784L79.1653 129.175C79.0831 128.999 79.1535 128.793 79.3298 128.711C79.506 128.629 79.7116 128.699 79.7939 128.876L83.0014 135.485Z" fill="#1B3C87"/>
<path d="M72.8619 133.117C72.7326 132.976 72.7444 132.753 72.8854 132.624C73.0264 132.494 73.2496 132.5 73.3788 132.647L78.8833 138.668C78.9714 138.768 78.9949 138.903 78.9538 139.021L76.3455 146.241L84.3936 139.979L83.5712 138.298C83.4889 138.128 83.5594 137.917 83.7298 137.834C83.9001 137.752 84.1116 137.823 84.1939 137.993L85.1279 139.902C85.216 140.055 85.1808 140.249 85.0457 140.36L75.8168 147.533C75.7228 147.604 75.5994 147.627 75.4819 147.586C75.2998 147.521 75.2058 147.322 75.2704 147.14L78.2194 138.98L72.8619 133.117Z" fill="#1B3C87"/>
<path fill-rule="evenodd" clip-rule="evenodd" d="M89.1461 121.773L92.2008 126.978L94.3098 128.083L90.2857 137.447L89.3752 131.56L84.0587 126.72L89.1461 121.773Z" fill="white"/>
<path d="M84.7285 126.737C84.8695 126.867 84.8813 127.09 84.752 127.231C84.6228 127.372 84.3996 127.384 84.2586 127.254L82.9133 126.021C82.7723 125.892 82.7606 125.668 82.8898 125.527C83.0191 125.386 83.2423 125.375 83.3833 125.504L84.7285 126.737Z" fill="#1B3C87"/>
<path d="M87.8949 121.004C87.795 120.839 87.8537 120.622 88.0182 120.528C88.1827 120.434 88.4001 120.487 88.4941 120.651L91.5018 125.768L93.5227 126.82C93.6872 126.902 93.7518 127.102 93.6813 127.266L89.6572 136.63C89.5808 136.806 89.3752 136.889 89.199 136.812C89.0756 136.759 88.9993 136.642 88.9875 136.519L88.1005 130.779L87.0548 129.816C86.9138 129.686 86.9021 129.463 87.0313 129.322C87.1605 129.181 87.3838 129.169 87.5248 129.299L88.6527 130.333C88.7173 130.385 88.7584 130.456 88.7702 130.544L89.4927 135.226L92.9117 127.278L91.0965 126.332C91.0377 126.303 90.9849 126.256 90.9496 126.197L87.8949 121.004Z" fill="#1B3C87"/>
<path d="M85.3572 108.844C85.3572 108.65 85.5158 108.491 85.7097 108.491C85.9035 108.491 86.0621 108.65 86.0621 108.844V149.478C86.0621 149.672 85.9035 149.83 85.7097 149.83C85.5158 149.83 85.3572 149.672 85.3572 149.478V108.844Z" fill="#1B3C87"/>
<path d="M100.507 124.341C100.507 124.147 100.666 123.988 100.86 123.988C101.054 123.988 101.212 124.147 101.212 124.341V149.484C101.212 149.677 101.054 149.836 100.86 149.836C100.666 149.836 100.507 149.677 100.507 149.484V124.341Z" fill="#1B3C87"/>
<path d="M100.507 108.844C100.507 108.65 100.666 108.491 100.86 108.491C101.054 108.491 101.212 108.65 101.212 108.844V117.409C101.212 117.603 101.054 117.761 100.86 117.761C100.666 117.761 100.507 117.603 100.507 117.409V108.844Z" fill="#1B3C87"/>
<path fill-rule="evenodd" clip-rule="evenodd" d="M76.5571 52.8827C76.6511 53.2058 76.8625 53.4349 77.0329 53.3762C77.2033 53.3175 77.2796 53.012 77.1856 52.7124C77.0916 52.4069 76.8802 52.1602 76.7098 52.2189C76.5336 52.2777 76.4572 52.5831 76.5571 52.8827Z" fill="#1B3C87"/>
<path d="M74.1542 56.3838C74.1836 56.2193 74.3363 56.1136 74.495 56.137C74.6536 56.1605 74.7652 56.3192 74.7417 56.4778C74.7182 56.6188 74.6712 56.7597 74.6007 56.9007C74.5243 57.0476 74.3481 57.1063 74.2012 57.0358C74.0544 56.9654 73.9956 56.7832 74.0661 56.6364C74.1072 56.56 74.1366 56.4719 74.1542 56.3838Z" fill="#1B3C87"/>
<path d="M73.9606 54.6569C73.9077 54.5041 73.9841 54.3338 74.1368 54.275C74.2895 54.2221 74.4599 54.2985 74.5186 54.4512C74.6009 54.6745 74.6596 54.9036 74.7066 55.1386C74.7477 55.3735 74.7771 55.6085 74.783 55.8494C74.7889 56.0139 74.6596 56.1549 74.4951 56.1607C74.3306 56.1666 74.1955 56.0374 74.1838 55.8729C74.172 55.6614 74.1544 55.4499 74.1133 55.2443C74.0839 55.0504 74.031 54.8507 73.9606 54.6569Z" fill="#1B3C87"/>
<path d="M79.1477 56.2841C79.1242 56.1197 79.2417 55.9728 79.4003 55.9493C79.5589 55.9258 79.7117 56.0433 79.7352 56.2019C79.7763 56.4839 79.6941 56.8363 79.5061 57.1712C79.3475 57.459 79.1066 57.7469 78.7953 57.9643C78.6601 58.0582 78.478 58.023 78.384 57.8879C78.29 57.7528 78.3253 57.5707 78.4545 57.4767C78.6836 57.3181 78.8657 57.1007 78.9891 56.8833C79.1125 56.666 79.1653 56.4428 79.1477 56.2841Z" fill="#1B3C87"/>
<path fill-rule="evenodd" clip-rule="evenodd" d="M3.98303 63.404H53.9988V48.3064H3.98303V63.404Z" fill="#EEF5FF"/>
<path fill-rule="evenodd" clip-rule="evenodd" d="M49.7045 55.7907C49.7045 58.2227 47.7307 60.1966 45.2986 60.1966C42.8665 60.1966 40.8927 58.2227 40.8927 55.7907C40.8927 53.3586 42.8665 51.3848 45.2986 51.3848C47.7307 51.3848 49.6869 53.3586 49.7045 55.7907Z" fill="#B2C3FB"/>
<path d="M36.9626 52.877C37.1565 52.877 37.3151 53.0356 37.3151 53.2294C37.3151 53.4233 37.1565 53.5819 36.9626 53.5819H12.1075C11.9136 53.5819 11.755 53.4233 11.755 53.2294C11.755 53.0356 11.9136 52.877 12.1075 52.877H36.9626Z" fill="#EAF0FF"/>
<path d="M36.9627 57.9817C37.1565 57.9817 37.3151 58.1403 37.3151 58.3342C37.3151 58.528 37.1565 58.6866 36.9627 58.6866H23.7861C23.5922 58.6866 23.4336 58.528 23.4336 58.3342C23.4336 58.1403 23.5922 57.9817 23.7861 57.9817H36.9627Z" fill="#EAF0FF"/>
<path fill-rule="evenodd" clip-rule="evenodd" d="M41.3684 37.7322H71.1053V0H41.3684V37.7322Z" fill="#EEF5FF"/>
<path d="M53.4289 13.9579L61.7766 33.5789L79.3062 21.4127L53.4289 13.9579ZM61.3889 34.1193L52.671 13.6348C52.6475 13.5761 52.6417 13.5114 52.6593 13.4468C52.7004 13.2941 52.859 13.2118 53.0118 13.253L80.017 21.0367C80.0816 21.0544 80.1463 21.0896 80.1874 21.1542C80.2755 21.2835 80.2461 21.4597 80.1169 21.5478L61.8236 34.2427C61.806 34.2544 61.7824 34.2662 61.759 34.2779C61.618 34.3308 61.4476 34.2662 61.3889 34.1193Z" fill="#B2C3FB"/>
<path fill-rule="evenodd" clip-rule="evenodd" d="M9.86926 26.1301H26.9759V18.969H9.86926V26.1301Z" fill="#EEF5FF"/>
<path fill-rule="evenodd" clip-rule="evenodd" d="M1.9093 34.9418H19.0395V27.7983H1.9093V34.9418Z" fill="#EEF5FF"/>
</svg>
