<svg width="182" height="150" viewBox="0 0 182 150" fill="none" xmlns="http://www.w3.org/2000/svg">
<path d="M103.954 125.225C86.6079 126.134 70.2165 131.893 55.3916 127.84C40.5666 123.787 27.365 109.876 24.8632 94.4311C22.3591 79.0322 30.511 62.1063 41.0749 50.6529C51.5906 39.1974 64.538 33.2166 77.0539 28.6751C89.5698 24.1336 101.652 21.0096 117.292 20.2121C132.932 19.4147 152.097 20.9877 158.301 31.0017C164.505 41.0157 157.769 59.4028 155.532 77.6805C153.295 95.9581 155.576 114.058 147.555 121.15C139.535 128.241 121.303 124.318 103.954 125.225Z" fill="#F0F0F0"/>
<path d="M92.7726 90.1284C93.9249 90.2971 97.0293 90.8009 97.0293 90.8009L102.013 93.0224L108.64 80.9731L100.315 85.8827L96.1924 83.5495" fill="white"/>
<path d="M44.385 116.67H10.6318L0 61.4688H33.7532L44.385 116.67Z" fill="#EAF0FF"/>
<path fill-rule="evenodd" clip-rule="evenodd" d="M37.7318 94.6269C37.869 94.2737 38.0993 93.7834 38.4134 93.1798C38.8312 92.3771 39.3896 91.3883 40.0538 90.2826C41.3822 88.0712 43.1303 85.3975 45.0162 82.8161C46.9029 80.2335 48.923 77.7494 50.7952 75.9133C51.7315 74.995 52.6256 74.244 53.443 73.7239C54.2648 73.201 54.986 72.9264 55.582 72.9264C56.2682 72.9264 57.4698 73.098 59.0518 73.4028C60.6279 73.7064 62.5648 74.1388 64.7125 74.6533C64.8301 74.6815 64.9484 74.609 64.9765 74.4913C65.0047 74.3736 64.9322 74.2554 64.8145 74.2272C62.6639 73.712 60.7199 73.278 59.1347 72.9726C57.5554 72.6683 56.3154 72.4883 55.582 72.4883C54.8629 72.4883 54.0563 72.8144 53.2078 73.3542C52.355 73.8968 51.4365 74.6706 50.4884 75.6004C48.5918 77.4605 46.5556 79.9662 44.6624 82.5576C42.7683 85.1503 41.013 87.835 39.6782 90.057C39.0109 91.1679 38.4478 92.1647 38.0248 92.9776C37.6045 93.785 37.3145 94.4257 37.2032 94.8182C37.1834 94.8878 37.1993 94.9628 37.2457 95.0184C37.2922 95.074 37.3631 95.103 37.4352 95.096L90.982 89.8776C91.0615 89.8699 91.1304 89.8195 91.162 89.7462L90.9608 89.6596C91.162 89.7462 91.162 89.7462 91.162 89.7462L91.1624 89.7451L91.2694 89.4968C91.3383 89.337 91.4376 89.1069 91.5589 88.826C91.8015 88.2642 92.1326 87.4989 92.486 86.6852C93.1935 85.0565 93.9892 83.2377 94.3471 82.4651C94.3739 82.4072 94.3742 82.3404 94.3477 82.2823C94.3213 82.2242 94.2708 82.1805 94.2095 82.1627L94.1483 82.373C94.2095 82.1627 94.2096 82.1627 94.2095 82.1627L94.2075 82.1621L94.0833 82.126C94.0001 82.1019 93.8769 82.0662 93.7163 82.0198C93.3952 81.9269 92.9249 81.7912 92.3283 81.6199C91.135 81.2774 89.4361 80.7924 87.4136 80.2225C83.3688 79.0829 78.029 77.6037 72.8504 76.246C72.7334 76.2154 72.6136 76.2854 72.583 76.4024C72.5523 76.5194 72.6223 76.6392 72.7393 76.6699C77.9143 78.0266 83.2513 79.505 87.2948 80.6443C89.3165 81.2139 91.0146 81.6987 92.2074 82.0411C92.8037 82.2123 93.2737 82.3479 93.5946 82.4407C93.6912 82.4686 93.7743 82.4927 93.8433 82.5126C93.4476 83.3824 92.7279 85.0286 92.0841 86.5107C91.7305 87.3247 91.3994 88.0903 91.1566 88.6523C91.0353 88.9333 90.936 89.1635 90.8671 89.3233L90.8107 89.4541L37.7318 94.6269Z" fill="#1B3C87"/>
<path fill-rule="evenodd" clip-rule="evenodd" d="M99.3667 81.1697C99.4795 81.1261 99.6064 81.1822 99.65 81.295L102.608 88.9408C102.651 89.0536 102.595 89.1805 102.482 89.2242C102.369 89.2678 102.243 89.2117 102.199 89.0989L99.2414 81.4531C99.1977 81.3402 99.2538 81.2134 99.3667 81.1697Z" fill="#1B3C87"/>
<path fill-rule="evenodd" clip-rule="evenodd" d="M94.5819 81.3264C94.6928 81.3746 94.7437 81.5037 94.6955 81.6146L90.5572 91.1423C90.509 91.2533 90.3799 91.3042 90.2689 91.256C90.158 91.2078 90.1071 91.0787 90.1553 90.9677L94.2936 81.4401C94.3418 81.3291 94.4709 81.2782 94.5819 81.3264Z" fill="#1B3C87"/>
<path fill-rule="evenodd" clip-rule="evenodd" d="M95.9073 81.3264C96.0183 81.3746 96.0692 81.5037 96.021 81.6146L91.8826 91.1423C91.8344 91.2533 91.7054 91.3042 91.5944 91.256C91.4834 91.2078 91.4325 91.0787 91.4807 90.9677L95.6191 81.4401C95.6673 81.3291 95.7963 81.2782 95.9073 81.3264Z" fill="#1B3C87"/>
<path fill-rule="evenodd" clip-rule="evenodd" d="M100.409 80.4467C100.522 80.403 100.649 80.4591 100.693 80.572L103.65 88.2178C103.694 88.3306 103.638 88.4575 103.525 88.5011C103.412 88.5448 103.285 88.4887 103.242 88.3758L100.284 80.7301C100.24 80.6172 100.297 80.4903 100.409 80.4467Z" fill="#1B3C87"/>
<path fill-rule="evenodd" clip-rule="evenodd" d="M107.917 79.9396C107.987 80.0083 108.004 80.1159 107.956 80.2023L101.329 92.2516C101.274 92.3514 101.152 92.3925 101.048 92.3461L96.0897 90.1363L95.9822 90.1189C95.8951 90.1047 95.7694 90.0844 95.6149 90.0595C95.306 90.0096 94.882 89.9414 94.4221 89.8679C93.5017 89.7208 92.439 89.5529 91.8645 89.4688C91.7448 89.4512 91.6619 89.34 91.6795 89.2203C91.697 89.1006 91.8082 89.0177 91.928 89.0352C92.5058 89.1198 93.5714 89.2882 94.4913 89.4352C94.9515 89.5088 95.3756 89.577 95.6847 89.6269C95.8393 89.6519 95.9651 89.6722 96.0523 89.6863L96.1874 89.7082L96.1879 89.7083C96.1879 89.7083 96.188 89.7083 96.1529 89.9246L96.1879 89.7083C96.2065 89.7113 96.2248 89.7168 96.2421 89.7245L101.042 91.8639L107.187 80.6914L99.5503 85.195C99.4829 85.2348 99.3993 85.2355 99.3312 85.197L95.2081 82.8638C95.1028 82.8042 95.0658 82.6705 95.1254 82.5652C95.1849 82.4599 95.3186 82.4229 95.4239 82.4825L99.4368 84.7533L107.653 79.9081C107.738 79.8579 107.846 79.8708 107.917 79.9396Z" fill="#1B3C87"/>
<path d="M169.975 91.4165H61.1532V93.822H169.975V91.4165Z" fill="#D8DFFF"/>
<path fill-rule="evenodd" clip-rule="evenodd" d="M80.4229 93.6093C80.5404 93.6382 80.6122 93.7569 80.5833 93.8744L67.0334 148.957C67.0045 149.074 66.8858 149.146 66.7684 149.117C66.6509 149.088 66.5791 148.97 66.608 148.852L80.1579 93.7697C80.1868 93.6522 80.3054 93.5804 80.4229 93.6093Z" fill="#D8DFFF"/>
<path fill-rule="evenodd" clip-rule="evenodd" d="M93.802 93.721C93.9195 93.7499 93.9913 93.8686 93.9624 93.9861L80.2241 149.833C80.1952 149.951 80.0765 150.023 79.959 149.994C79.8415 149.965 79.7697 149.846 79.7986 149.729L93.537 93.8814C93.5659 93.7639 93.6845 93.6921 93.802 93.721Z" fill="#D8DFFF"/>
<path fill-rule="evenodd" clip-rule="evenodd" d="M93.8223 93.721C93.9398 93.6921 94.0585 93.7639 94.0874 93.8814L101.705 124.852C101.734 124.97 101.662 125.089 101.544 125.117C101.427 125.146 101.308 125.074 101.279 124.957L93.6619 93.9861C93.633 93.8686 93.7048 93.7499 93.8223 93.721Z" fill="#D8DFFF"/>
<path fill-rule="evenodd" clip-rule="evenodd" d="M103.755 134.103C103.873 134.075 103.991 134.146 104.02 134.264L107.826 149.728C107.855 149.846 107.783 149.965 107.665 149.994C107.548 150.022 107.429 149.951 107.4 149.833L103.595 134.369C103.566 134.251 103.638 134.132 103.755 134.103Z" fill="#D8DFFF"/>
<path fill-rule="evenodd" clip-rule="evenodd" d="M80.6316 93.721C80.7491 93.6921 80.8678 93.7639 80.8967 93.8814L94.635 149.729C94.6639 149.846 94.5921 149.965 94.4746 149.994C94.3571 150.023 94.2385 149.951 94.2096 149.833L80.4712 93.9861C80.4423 93.8686 80.5141 93.7499 80.6316 93.721Z" fill="#D8DFFF"/>
<path fill-rule="evenodd" clip-rule="evenodd" d="M140.818 93.6093C140.936 93.6382 141.008 93.7569 140.979 93.8744L127.429 148.957C127.4 149.074 127.281 149.146 127.164 149.117C127.046 149.088 126.974 148.97 127.003 148.852L140.553 93.7697C140.582 93.6522 140.701 93.5804 140.818 93.6093Z" fill="#D8DFFF"/>
<path fill-rule="evenodd" clip-rule="evenodd" d="M154.199 93.721C154.317 93.7499 154.389 93.8686 154.36 93.9861L150.18 110.969C150.151 111.086 150.032 111.158 149.915 111.129C149.797 111.1 149.725 110.982 149.754 110.864L153.934 93.8814C153.963 93.7639 154.082 93.6921 154.199 93.721Z" fill="#D8DFFF"/>
<path fill-rule="evenodd" clip-rule="evenodd" d="M145.662 128.421C145.78 128.449 145.851 128.568 145.822 128.686L140.619 149.833C140.59 149.951 140.472 150.022 140.354 149.994C140.237 149.965 140.165 149.846 140.194 149.728L145.397 128.581C145.426 128.463 145.545 128.392 145.662 128.421Z" fill="#D8DFFF"/>
<path fill-rule="evenodd" clip-rule="evenodd" d="M154.217 93.721C154.335 93.6921 154.454 93.7639 154.483 93.8814L168.221 149.729C168.25 149.846 168.178 149.965 168.06 149.994C167.943 150.023 167.824 149.951 167.795 149.833L154.057 93.9861C154.028 93.8686 154.1 93.7499 154.217 93.721Z" fill="#D8DFFF"/>
<path fill-rule="evenodd" clip-rule="evenodd" d="M141.027 93.721C141.144 93.6921 141.263 93.7639 141.292 93.8814L155.03 149.729C155.059 149.846 154.987 149.965 154.87 149.994C154.752 150.023 154.634 149.951 154.605 149.833L140.866 93.9861C140.837 93.8686 140.909 93.7499 141.027 93.721Z" fill="#D8DFFF"/>
<path fill-rule="evenodd" clip-rule="evenodd" d="M10.4127 116.67C10.4127 116.549 10.5108 116.45 10.6318 116.45H50.7711C50.8921 116.45 50.9902 116.549 50.9902 116.67C50.9902 116.791 50.8921 116.889 50.7711 116.889H10.6318C10.5108 116.889 10.4127 116.791 10.4127 116.67Z" fill="#1B3C87"/>
<path fill-rule="evenodd" clip-rule="evenodd" d="M30.7015 143.546C30.8225 143.546 30.9206 143.644 30.9206 143.765V147.424C30.9206 147.545 30.8225 147.643 30.7015 147.643C30.5805 147.643 30.4824 147.545 30.4824 147.424V143.765C30.4824 143.644 30.5805 143.546 30.7015 143.546Z" fill="#1B3C87"/>
<path fill-rule="evenodd" clip-rule="evenodd" d="M30.7015 133.598C30.8225 133.598 30.9206 133.696 30.9206 133.817V136.402C30.9206 136.523 30.8225 136.621 30.7015 136.621C30.5805 136.621 30.4824 136.523 30.4824 136.402V133.817C30.4824 133.696 30.5805 133.598 30.7015 133.598Z" fill="#1B3C87"/>
<path fill-rule="evenodd" clip-rule="evenodd" d="M30.7015 116.45C30.8225 116.45 30.9206 116.549 30.9206 116.67V131.216C30.9206 131.337 30.8225 131.435 30.7015 131.435C30.5805 131.435 30.4824 131.337 30.4824 131.216V116.67C30.4824 116.549 30.5805 116.45 30.7015 116.45Z" fill="#1B3C87"/>
<path fill-rule="evenodd" clip-rule="evenodd" d="M23.9561 147.424C23.9561 147.303 24.0541 147.204 24.1751 147.204H37.2277C37.3487 147.204 37.4468 147.303 37.4468 147.424C37.4468 147.545 37.3487 147.643 37.2277 147.643H24.1751C24.0541 147.643 23.9561 147.545 23.9561 147.424Z" fill="#1B3C87"/>
<path d="M157.716 10.8947H101.628V66.9828H157.716V10.8947Z" fill="#D8DFFF"/>
<path d="M137.015 21.0402H110.371C108.13 21.0402 106.314 22.8567 106.314 25.0975V26.0833C106.314 28.3241 108.13 30.1406 110.371 30.1406H137.015C139.256 30.1406 141.073 28.3241 141.073 26.0833V25.0975C141.073 22.8567 139.256 21.0402 137.015 21.0402Z" fill="white"/>
<path d="M148.48 30.1384C150.993 30.1384 153.03 28.1012 153.03 25.5882C153.03 23.0752 150.993 21.038 148.48 21.038C145.967 21.038 143.929 23.0752 143.929 25.5882C143.929 28.1012 145.967 30.1384 148.48 30.1384Z" fill="white"/>
<path fill-rule="evenodd" clip-rule="evenodd" d="M106.095 35.2517C106.095 35.1307 106.193 35.0326 106.314 35.0326H153.03C153.151 35.0326 153.249 35.1307 153.249 35.2517C153.249 35.3727 153.151 35.4707 153.03 35.4707H106.314C106.193 35.4707 106.095 35.3727 106.095 35.2517Z" fill="white"/>
<path fill-rule="evenodd" clip-rule="evenodd" d="M106.095 41.973C106.095 41.852 106.193 41.7539 106.314 41.7539H153.03C153.151 41.7539 153.249 41.852 153.249 41.973C153.249 42.094 153.151 42.1921 153.03 42.1921H106.314C106.193 42.1921 106.095 42.094 106.095 41.973Z" fill="white"/>
<path fill-rule="evenodd" clip-rule="evenodd" d="M106.095 48.6943C106.095 48.5733 106.193 48.4752 106.314 48.4752H129.983C130.104 48.4752 130.202 48.5733 130.202 48.6943C130.202 48.8153 130.104 48.9134 129.983 48.9134H106.314C106.193 48.9134 106.095 48.8153 106.095 48.6943Z" fill="white"/>
<path d="M90.0692 47.8334H81.6917C80.2398 47.8334 79.0627 49.0104 79.0627 50.4623V58.8398C79.0627 60.2917 80.2398 61.4687 81.6917 61.4687H90.0692C91.5211 61.4687 92.6981 60.2917 92.6981 58.8398V50.4623C92.6981 49.0104 91.5211 47.8334 90.0692 47.8334Z" fill="#D8DFFF"/>
<path d="M91.9598 51.2114C93.857 51.2114 95.3949 49.6735 95.3949 47.7763C95.3949 45.8791 93.857 44.3412 91.9598 44.3412C90.0626 44.3412 88.5247 45.8791 88.5247 47.7763C88.5247 49.6735 90.0626 51.2114 91.9598 51.2114Z" fill="#FA5D63"/>
<path d="M128.493 0H76.2585V18.2075H128.493V0Z" fill="#EAF0FF"/>
<path fill-rule="evenodd" clip-rule="evenodd" d="M85.0107 5.37838C85.0107 5.25739 85.1088 5.1593 85.2298 5.1593H119.522C119.643 5.1593 119.741 5.25739 119.741 5.37838C119.741 5.49937 119.643 5.59746 119.522 5.59746H85.2298C85.1088 5.59746 85.0107 5.49937 85.0107 5.37838Z" fill="#B2C3FB"/>
<path fill-rule="evenodd" clip-rule="evenodd" d="M85.0107 12.8292C85.0107 12.7082 85.1088 12.6101 85.2298 12.6101H101.227C101.348 12.6101 101.446 12.7082 101.446 12.8292C101.446 12.9502 101.348 13.0483 101.227 13.0483H85.2298C85.1088 13.0483 85.0107 12.9502 85.0107 12.8292Z" fill="#B2C3FB"/>
<path fill-rule="evenodd" clip-rule="evenodd" d="M56.0019 24.8842C56.0797 24.8753 56.1563 24.9086 56.2029 24.9715L63.4039 34.6964C63.4505 34.7593 63.46 34.8422 63.4288 34.914C63.3976 34.9858 63.3305 35.0355 63.2527 35.0444L51.232 36.418C51.1542 36.4269 51.0776 36.3936 51.0311 36.3307C50.9845 36.2678 50.975 36.1849 51.0062 36.1131L55.8259 25.0146C55.857 24.9428 55.9242 24.8931 56.0019 24.8842ZM56.0766 25.5373L51.5592 35.9396L62.826 34.6521L56.0766 25.5373Z" fill="#B6C6FC"/>
<path fill-rule="evenodd" clip-rule="evenodd" d="M166.147 22.3367C166.03 22.3082 165.957 22.1898 165.986 22.0722L167.197 17.064C167.226 16.9464 167.344 16.8741 167.462 16.9026L177.338 19.2918C177.455 19.3203 177.528 19.4387 177.499 19.5563L176.288 24.5645C176.259 24.6821 176.141 24.7544 176.023 24.7259L166.147 22.3367ZM166.463 21.9623L175.913 24.2485L177.022 19.6662L167.572 17.38L166.463 21.9623Z" fill="#B6C6FC"/>
<path d="M19.8418 104.024C19.9754 105.516 22.4707 117.546 30.3816 117.546C42.1417 117.546 61.2912 102.701 67.6751 97.715C71.7543 96.8847 102.508 88.0756 102.508 88.0756C101.941 86.3756 100.732 83.2406 100.732 83.2406C100.732 83.2406 72.5386 85.0261 67.5415 85.8586C62.5443 86.6911 39.1359 93.9644 38.0011 94.2909C36.8663 94.6173 19.8418 104.024 19.8418 104.024Z" fill="#3B3744"/>
<path d="M38.2903 95.7542C39.1272 92.8054 51.1983 73.5836 56.4584 73.5836C61.7184 73.5836 95.0159 83.2471 95.0159 83.2471C94.2974 84.7982 91.8284 90.5336 91.8284 90.5336L38.2903 95.7542Z" fill="#3B3744"/>
<path fill-rule="evenodd" clip-rule="evenodd" d="M70.6447 84.5274C70.6563 84.6478 70.5681 84.7549 70.4477 84.7665C68.77 84.9286 67.4576 85.0792 66.6963 85.2028C64.2153 85.6164 57.1311 87.6373 50.5053 89.6025C45.8284 90.9897 41.3848 92.3477 38.9838 93.0814C37.9905 93.385 37.3468 93.5817 37.1809 93.6294C37.129 93.6444 37.0112 93.6927 36.8217 93.7806C36.6376 93.866 36.3989 93.9826 36.1128 94.1263C35.5408 94.4136 34.7844 94.8068 33.9072 95.2701C32.1532 96.1967 29.9202 97.4019 27.722 98.5973C25.5239 99.7925 23.3612 100.978 21.748 101.864C20.9414 102.307 20.2722 102.676 19.8047 102.933C19.5709 103.062 19.3876 103.163 19.2627 103.232L19.1994 103.267C19.3218 104.211 19.9862 107.372 21.514 110.367C23.1334 113.541 25.6788 116.448 29.5052 116.448C32.2803 116.448 35.4889 115.609 38.8626 114.251C42.2338 112.895 45.7556 111.027 49.1531 108.983C49.2567 108.92 49.3913 108.954 49.4537 109.058C49.5161 109.161 49.4826 109.296 49.3789 109.358C45.9697 111.409 42.4262 113.289 39.0262 114.658C35.6288 116.025 32.3604 116.886 29.5052 116.886C25.4207 116.886 22.763 113.779 21.1237 110.566C19.4808 107.345 18.8164 103.937 18.7472 103.165C18.7395 103.079 18.7835 102.996 18.8595 102.954L18.9654 103.146C18.8595 102.954 18.8596 102.954 18.8597 102.954L18.8603 102.954L19.051 102.848C19.176 102.779 19.3594 102.678 19.5932 102.549C20.0609 102.292 20.7303 101.923 21.5371 101.48C23.1506 100.593 25.3139 99.408 27.5127 98.2123C29.7113 97.0167 31.9462 95.8106 33.7026 94.8827C34.5806 94.4189 35.3401 94.0241 35.9161 93.7348C36.204 93.5902 36.4473 93.4713 36.6372 93.3832C36.8217 93.2976 36.9699 93.2342 37.0598 93.2083C37.226 93.1605 37.868 92.9643 38.8591 92.6614C41.2556 91.929 45.6933 90.5728 50.3807 89.1825C56.9922 87.2215 64.1103 85.1896 66.6247 84.7705L66.6256 84.7703C67.4023 84.6442 68.7274 84.4925 70.4056 84.3304C70.526 84.3187 70.6331 84.4069 70.6447 84.5274Z" fill="#1B3C87"/>
<path fill-rule="evenodd" clip-rule="evenodd" d="M100.06 82.292L99.8553 82.3708L99.8415 82.1522C99.9369 82.1461 100.025 82.2027 100.06 82.292ZM101.632 87.2058L101.692 87.4165C101.75 87.4 101.798 87.3608 101.826 87.308C101.854 87.2551 101.859 87.1932 101.84 87.1365C101.555 86.2823 101.109 85.0703 100.736 84.074C100.549 83.5753 100.38 83.1299 100.258 82.8091C100.197 82.6488 100.147 82.5195 100.113 82.4303L100.06 82.2926L100.06 82.292C100.06 82.2919 100.06 82.292 99.8553 82.3708C99.8415 82.1522 99.8415 82.1522 99.8415 82.1522L99.7309 82.1592C99.6581 82.1639 99.5501 82.1707 99.4095 82.1798C99.1283 82.1978 98.7166 82.2243 98.1944 82.2582C97.1499 82.326 95.6636 82.4235 93.896 82.5419C90.3609 82.7788 85.7005 83.0998 81.1999 83.4361C81.0793 83.4452 80.9888 83.5503 80.9978 83.6709C81.0068 83.7916 81.1119 83.8821 81.2326 83.8731C85.7316 83.5369 90.3908 83.2159 93.9253 82.9791C95.6925 82.8607 97.1786 82.7632 98.2227 82.6954C98.7448 82.6615 99.1565 82.635 99.4376 82.617C99.5487 82.6099 99.6395 82.6041 99.7086 82.5997C99.7425 82.688 99.7902 82.8125 99.8485 82.9653C99.9706 83.2855 100.139 83.7301 100.326 84.2277C100.668 85.1415 101.069 86.2315 101.351 87.0584L101.225 87.0944C100.999 87.1591 100.667 87.2541 100.242 87.3753C99.3936 87.6178 98.1764 87.9651 96.703 88.3845C93.7562 89.2233 89.7847 90.3503 85.6858 91.5033C77.4813 93.8111 68.7844 96.2175 66.7551 96.6306C66.7219 96.6373 66.6907 96.6517 66.664 96.6725C64.5701 98.3065 61.1081 101 56.9835 103.882C56.8843 103.951 56.8601 104.088 56.9294 104.187C56.9987 104.286 57.1353 104.311 57.2345 104.241C61.3426 101.371 64.7943 98.6872 66.8932 97.0495C69.0324 96.6039 77.6779 94.2109 85.8044 91.9251C89.9039 90.772 93.8759 89.6448 96.823 88.806C98.2965 88.3865 99.5138 88.0391 100.363 87.7966C100.787 87.6754 101.12 87.5803 101.346 87.5156L101.692 87.4166C101.692 87.4165 101.692 87.4165 101.632 87.2058Z" fill="#1B3C87"/>
<path d="M34.864 71.4192C35.8038 72.6022 37.333 75.3494 37.6813 76.1841C39.4887 75.4524 56.0838 69.3927 57.5012 69.0904C58.9186 68.7881 64.803 67.5941 65.4296 71.9384C64.3517 72.8432 61.8827 72.0414 60.0403 72.4423C58.1979 72.8432 38.3385 84.3601 36.9452 84.669C35.5519 84.9779 27.5972 82.4782 27.5972 82.4782C27.5972 82.4782 31.3281 72.0063 34.864 71.4192Z" fill="white"/>
<path d="M25.7811 59.6876C29.9632 59.6876 35.3788 67.2217 36.3822 70.1727C35.8082 71.3754 33.6021 73.4106 32.9427 73.5815C32.2833 73.7524 20.9679 59.6876 25.7811 59.6876Z" fill="#3C50E0"/>
<path fill-rule="evenodd" clip-rule="evenodd" d="M32.0598 72.477C32.0362 72.4626 32.0034 72.4397 31.9605 72.4057C31.8529 72.3202 31.7071 72.1851 31.5278 72.0033C31.1707 71.6412 30.6977 71.1109 30.1606 70.4661C29.0868 69.177 27.7659 67.4414 26.616 65.7015C25.4626 63.9562 24.4946 62.2262 24.1102 60.9433C23.916 60.2949 23.8856 59.8073 24.0075 59.4949C24.0654 59.3467 24.1579 59.2363 24.2928 59.1597C24.4316 59.0809 24.6289 59.0303 24.9046 59.0303C26.1817 59.0303 27.6165 59.7805 29.0274 60.9409C30.4311 62.0954 31.7782 63.6286 32.8751 65.1336C32.9464 65.2314 33.0834 65.2529 33.1812 65.1816C33.2789 65.1103 33.3004 64.9733 33.2292 64.8755C32.1178 63.3506 30.7461 61.7872 29.3057 60.6025C27.8724 59.4237 26.3376 58.5922 24.9046 58.5922C24.5787 58.5922 24.3004 58.6515 24.0765 58.7786C23.8487 58.908 23.6915 59.0996 23.5993 59.3356C23.4214 59.7917 23.4905 60.4016 23.6905 61.0691C24.0947 62.418 25.0943 64.1935 26.2505 65.943C27.4103 67.698 28.741 69.4465 29.8239 70.7465C30.3651 71.3962 30.8467 71.9367 31.2158 72.311C31.3997 72.4974 31.5599 72.647 31.6881 72.7488C31.7515 72.7992 31.8136 72.8431 31.8712 72.8737C31.9 72.889 31.9337 72.9043 31.9704 72.9143C32.0049 72.9236 32.0597 72.9331 32.1212 72.9172C32.234 72.8879 32.3619 72.8248 32.4921 72.747C32.6257 72.6673 32.7751 72.5641 32.9334 72.4442C33.2504 72.2042 33.6125 71.8902 33.9701 71.5453C34.6789 70.8619 35.3986 70.0296 35.7035 69.3906C35.7287 69.3379 35.7317 69.2774 35.712 69.2224C35.5545 68.7823 35.3667 68.3536 35.15 67.9394C35.094 67.8322 34.9616 67.7908 34.8544 67.8468C34.7472 67.9029 34.7057 68.0353 34.7618 68.1425C34.9547 68.5113 35.1237 68.8921 35.2677 69.2825C34.9762 69.839 34.3358 70.5841 33.666 71.2299C33.3179 71.5656 32.9691 71.8676 32.6689 72.0949C32.5188 72.2086 32.3831 72.3018 32.2676 72.3708C32.1802 72.4229 32.111 72.4572 32.0598 72.477Z" fill="#1B3C87"/>
<path fill-rule="evenodd" clip-rule="evenodd" d="M33.9516 70.3267C34.0301 70.3136 34.1096 70.3442 34.1592 70.4065C34.6397 71.0114 35.2637 72.0058 35.8078 72.9462C36.2789 73.7604 36.6988 74.5492 36.9197 75.026C37.4926 74.8012 38.7144 74.346 40.2717 73.7724C40.3853 73.7305 40.5112 73.7887 40.553 73.9022C40.5949 74.0158 40.5367 74.1417 40.4232 74.1835C38.6488 74.8371 37.3216 75.3327 36.8881 75.5104C36.7766 75.5561 36.6492 75.5033 36.6028 75.3921C36.4345 74.9888 35.9714 74.1038 35.4285 73.1656C34.9177 72.2828 34.3466 71.3706 33.8982 70.7844C33.1356 70.9669 32.328 71.6531 31.5291 72.6568C30.695 73.7048 29.905 75.054 29.221 76.3938C28.5377 77.7319 27.964 79.0529 27.561 80.0399C27.3595 80.5332 27.2009 80.9426 27.0927 81.2284C27.0586 81.3186 27.0295 81.3965 27.0056 81.4608C27.0428 81.4723 27.0844 81.4851 27.1301 81.4991C27.35 81.5667 27.666 81.6629 28.0495 81.7773C28.8166 82.0064 29.8534 82.3084 30.9329 82.6008C32.0132 82.8933 33.1332 83.1754 34.0677 83.365C34.5352 83.4598 34.9528 83.5309 35.2939 83.5688C35.6428 83.6076 35.8868 83.6085 36.0214 83.5787M26.7209 81.6018C26.5145 81.5284 26.5145 81.5283 26.5145 81.5282L26.5173 81.5203L26.5256 81.4974C26.5329 81.4773 26.5437 81.4475 26.5579 81.4088C26.5862 81.3313 26.6283 81.2178 26.6829 81.0734C26.7923 80.7845 26.9523 80.3715 27.1553 79.8742C27.5613 78.8801 28.1401 77.5471 28.8307 76.1945C29.5206 74.8434 30.3259 73.4649 31.1863 72.3839C32.0381 71.3138 32.9795 70.489 33.9516 70.3267M26.7209 81.6018L26.6553 81.8109C26.5985 81.793 26.5514 81.7529 26.5248 81.6996C26.4982 81.6463 26.4946 81.5843 26.5145 81.5282L26.7209 81.6018ZM56.1552 72.9759C56.2113 73.0831 56.1699 73.2155 56.0628 73.2716C53.5176 74.6048 49.8655 76.6248 46.3772 78.5542C45.6476 78.9577 44.9251 79.3573 44.2215 79.7458C42.1885 80.8682 40.3124 81.8983 38.8758 82.663C38.1576 83.0452 37.5477 83.3621 37.0822 83.5913C36.8496 83.7058 36.6513 83.7993 36.4926 83.8685C36.3392 83.9354 36.2079 83.9861 36.1164 84.0065C35.9048 84.0533 35.597 84.0433 35.2455 84.0043C34.8861 83.9643 34.4544 83.8905 33.9806 83.7944C33.0325 83.602 31.9021 83.3172 30.8184 83.0237C29.734 82.73 28.6934 82.4269 27.9241 82.1972C27.5394 82.0823 27.2224 81.9858 27.0014 81.918C26.891 81.8841 26.8045 81.8573 26.7457 81.839L26.6785 81.8181L26.6553 81.8109C26.6552 81.8108 26.6553 81.8109 26.7209 81.6018M56.1552 72.9759C56.099 72.8687 55.9666 72.8273 55.8594 72.8835L56.1552 72.9759ZM55.8594 72.8835C53.3095 74.2192 49.6516 76.2424 46.1633 78.1717L55.8594 72.8835ZM46.1633 78.1717C45.4342 78.575 44.7124 78.9742 44.0097 79.3622L46.1633 78.1717ZM44.0097 79.3622C41.9766 80.4848 40.1032 81.5133 38.6699 82.2762L44.0097 79.3622ZM38.6699 82.2762C37.9531 82.6578 37.348 82.972 36.8887 83.1982L38.6699 82.2762ZM36.8887 83.1982C36.6589 83.3113 36.4674 83.4015 36.3176 83.4668L36.8887 83.1982ZM36.3176 83.4668C36.1627 83.5343 36.0668 83.5686 36.0214 83.5787L36.3176 83.4668Z" fill="#1B3C87"/>
<path fill-rule="evenodd" clip-rule="evenodd" d="M60.8628 68.1046C59.1773 67.9013 57.3837 68.2673 56.672 68.4237L56.6717 68.4237C56.3269 68.4989 55.0042 68.942 53.1673 69.5839C51.3402 70.2224 49.0248 71.0502 46.7117 71.8859C46.5979 71.927 46.4723 71.8681 46.4312 71.7543C46.3901 71.6405 46.449 71.5149 46.5628 71.4738C48.8766 70.6379 51.1936 69.8095 53.0228 69.1703C54.842 68.5345 56.1995 68.0783 56.5781 67.9957C56.5781 67.9957 56.5782 67.9957 56.5783 67.9956L56.625 68.2097L56.578 67.9957C56.578 67.9957 56.578 67.9957 56.5781 67.9957C57.2926 67.8387 59.1498 67.4567 60.9153 67.6696C61.7995 67.7762 62.679 68.0341 63.3821 68.5605C64.0916 69.0918 64.6056 69.8852 64.7702 71.0264C64.781 71.1014 64.7523 71.1767 64.6942 71.2255C64.3808 71.4886 63.9788 71.6174 63.5464 71.6787C63.1138 71.7399 62.6299 71.7362 62.1371 71.7175C61.9686 71.7111 61.7991 71.7031 61.6295 71.695C60.7896 71.6552 59.9478 71.6152 59.2106 71.7756C59.0924 71.8014 58.9757 71.7264 58.95 71.6081C58.9243 71.4899 58.9993 71.3732 59.1175 71.3475C59.9167 71.1736 60.8293 71.2175 61.6685 71.2579C61.8336 71.2659 61.9958 71.2737 62.1537 71.2797C62.6432 71.2982 63.0938 71.3002 63.4849 71.2448C63.8233 71.1969 64.1015 71.108 64.3164 70.9624C64.1498 70.0013 63.7069 69.3511 63.1195 68.9112C62.5001 68.4475 61.7041 68.2061 60.8628 68.1046Z" fill="#1B3C87"/>
<path d="M26.2893 60.9035C33.7379 66.2818 36.3011 82.0663 38.9958 94.0258C36.7327 96.5649 22.8476 105.418 19.8134 104.736C13.0592 88.3057 4.8044 59.0172 20.4903 59.0172C22.5759 59.0055 24.6097 59.667 26.2893 60.9035Z" fill="#3C50E0"/>
<path fill-rule="evenodd" clip-rule="evenodd" d="M10.9828 73.8211C11.6944 82.6798 15.1136 93.6312 18.4069 101.961C18.4514 102.074 18.3962 102.201 18.2837 102.246C18.1712 102.29 18.0439 102.235 17.9994 102.122C14.7007 93.7785 11.2628 82.7794 10.546 73.8562C10.1879 69.3982 10.506 65.4265 11.8874 62.5606C12.5801 61.1235 13.5422 59.9604 14.8227 59.1578C16.1031 58.3552 17.6879 57.9219 19.6118 57.9219C22.9033 57.9219 25.5401 59.3941 27.6909 61.8139C27.7712 61.9044 27.7631 62.0428 27.6726 62.1232C27.5822 62.2036 27.4437 62.1954 27.3634 62.105C25.2771 59.7577 22.7525 58.36 19.6118 58.36C17.7551 58.36 16.2543 58.7775 15.0554 59.5291C13.8565 60.2805 12.9454 61.3748 12.2821 62.7508C10.9516 65.511 10.6267 69.3882 10.9828 73.8211Z" fill="#1B3C87"/>
<path fill-rule="evenodd" clip-rule="evenodd" d="M30.9453 67.3106C31.0547 67.2589 31.1853 67.3057 31.237 67.4151C34.0784 73.4336 35.8064 81.4474 37.3743 88.7184C37.6972 90.2159 38.0133 91.682 38.331 93.0926C38.3465 93.1616 38.3278 93.2339 38.2807 93.2866C37.7233 93.9108 36.5074 94.8848 34.9568 95.9892C33.3999 97.098 31.4881 98.3503 29.5241 99.5327C29.4205 99.5951 29.2858 99.5616 29.2234 99.458C29.161 99.3543 29.1945 99.2197 29.2981 99.1573C31.2535 97.9802 33.1558 96.7339 34.7026 95.6323C36.1848 94.5767 37.3249 93.6647 37.8784 93.077C37.5669 91.6907 37.2573 90.2553 36.9418 88.7924C35.3733 81.5208 33.6584 73.5703 30.8408 67.6022C30.7891 67.4928 30.8359 67.3622 30.9453 67.3106Z" fill="#1B3C87"/>
<path d="M9.68105 80.6839C9.5737 82.2679 8.02702 104.955 8.60538 112.921C8.87704 116.67 10.0644 119.347 10.0885 120.628C10.1805 125.185 13.7822 127.499 15.1711 127.499C16.5601 127.499 16.72 127.023 16.72 126.467C16.72 125.91 13.8216 119.875 13.8216 117.644C13.8216 115.414 17.5262 83.0609 17.9512 81.155C18.3762 79.249 9.68105 80.6839 9.68105 80.6839Z" fill="white"/>
<path fill-rule="evenodd" clip-rule="evenodd" d="M17.2561 79.8742C17.3158 80.0158 17.3248 80.1694 17.2884 80.3277C17.2884 80.3277 17.2884 80.3277 17.2884 80.3278L17.0749 80.2787L17.2885 80.3275C17.2885 80.3276 17.2884 80.3276 17.2884 80.3277M17.2561 79.8742C17.1972 79.7346 17.0961 79.623 16.9745 79.5343L17.2561 79.8742ZM16.9745 79.5343C16.7372 79.3611 16.3928 79.2538 16.0057 79.1853L16.9745 79.5343ZM16.0057 79.1853C15.2245 79.0471 14.1557 79.0493 13.0917 79.1097L16.0057 79.1853ZM13.0917 79.1097C12.0233 79.1704 10.9428 79.2909 10.1305 79.396L13.0917 79.1097ZM10.1305 79.396C9.72401 79.4486 9.38409 79.4974 9.14563 79.5331L10.1305 79.396ZM9.14563 79.5331C9.02639 79.5509 8.93249 79.5655 8.86829 79.5756L9.14563 79.5331ZM8.86829 79.5756C8.83619 79.5807 8.81151 79.5847 8.7948 79.5873L8.86829 79.5756ZM8.7948 79.5873L8.77578 79.5904L8.7948 79.5873ZM8.77578 79.5904L8.77088 79.5912L8.77578 79.5904ZM8.77088 79.5912L8.7696 79.5914L8.77088 79.5912ZM8.7696 79.5914L8.76926 79.5915L8.7696 79.5914ZM8.76926 79.5915C8.76917 79.5915 8.76912 79.5915 8.80474 79.8077L8.76926 79.5915ZM9.01136 79.9967C8.92034 81.3304 8.50233 87.5842 8.18671 94.4302C8.18113 94.5511 8.07864 94.6445 7.95777 94.639C7.83691 94.6334 7.74344 94.5309 7.74902 94.41C8.08213 87.1846 8.52917 80.6192 8.58618 79.7926C8.59317 79.6913 8.66889 79.608 8.76912 79.5915L8.80474 79.8077" fill="#1B3C87"/>
<path fill-rule="evenodd" clip-rule="evenodd" d="M7.62525 104.552C7.74623 104.554 7.84275 104.654 7.84083 104.775C7.79485 107.676 7.81692 110.232 7.94763 112.029L7.94763 112.029C8.08208 113.884 8.44321 115.476 8.77571 116.769C8.84277 117.03 8.90922 117.28 8.97248 117.519C9.065 117.868 9.15069 118.191 9.22146 118.482C9.34058 118.973 9.42479 119.401 9.43132 119.748C9.47616 121.965 10.3738 123.632 11.4264 124.745C11.9535 125.303 12.5182 125.72 13.0317 125.997C13.5502 126.276 13.9986 126.403 14.2949 126.403C14.9766 126.403 15.2942 126.284 15.4452 126.151C15.5844 126.028 15.6247 125.855 15.6247 125.59C15.6247 125.591 15.6247 125.591 15.6247 125.591C15.6246 125.591 15.6242 125.585 15.6213 125.569C15.6179 125.551 15.6123 125.528 15.604 125.497C15.5874 125.436 15.5619 125.357 15.5279 125.26C15.4598 125.065 15.3614 124.81 15.2406 124.506C15.1391 124.251 15.0204 123.958 14.8916 123.641C14.7187 123.214 14.5279 122.744 14.3365 122.26C14.292 122.147 14.3471 122.02 14.4596 121.976C14.5722 121.931 14.6994 121.986 14.744 122.099C14.9371 122.587 15.124 123.048 15.2946 123.468C15.423 123.785 15.5422 124.079 15.6478 124.344C15.7688 124.649 15.8702 124.911 15.9414 125.115C15.977 125.217 16.0061 125.307 16.0266 125.381C16.0453 125.45 16.0628 125.526 16.0628 125.59C16.0628 125.882 16.0231 126.225 15.7351 126.479C15.4589 126.723 15.0021 126.841 14.2949 126.841C13.8966 126.841 13.374 126.679 12.8237 126.382C12.2684 126.083 11.6665 125.637 11.108 125.046C9.98968 123.864 9.04048 122.096 8.99325 119.756L8.99324 119.756C8.98771 119.462 8.91447 119.075 8.79569 118.586C8.72561 118.297 8.64224 117.983 8.55101 117.639C8.48765 117.4 8.4205 117.147 8.35137 116.878C8.01624 115.575 7.64784 113.954 7.51063 112.061M7.62525 104.552C7.50428 104.55 7.40465 104.647 7.40273 104.768L7.62525 104.552ZM7.40273 104.768C7.35671 107.672 7.37845 110.243 7.51063 112.061L7.40273 104.768Z" fill="#1B3C87"/>
<path d="M15.8918 63.0942C20.9065 63.3549 20.2492 81.1549 18.6281 81.81C17.0069 82.465 9.24498 81.6566 8.43439 80.5371C7.62381 79.4176 8.99961 62.7437 15.8918 63.0942Z" fill="#3C50E0"/>
<path d="M14.4438 53.652C15.0091 55.3608 15.6992 59.486 15.6838 60.7413C16.5777 61.1795 19.165 61.3372 20.1859 60.5683C19.7784 59.4553 19.3709 56.8045 19.4016 55.0804C19.4322 53.3562 14.4438 53.652 14.4438 53.652Z" fill="white"/>
<path fill-rule="evenodd" clip-rule="evenodd" d="M18.7443 54.2096C18.7534 55.7828 18.9389 57.35 19.2971 58.8819C19.3247 58.9997 19.2515 59.1175 19.1337 59.1451C19.0159 59.1726 18.8981 59.0995 18.8705 58.9817C18.5046 57.4171 18.3152 55.8165 18.3061 54.2097L18.3061 54.2046C18.3115 53.9044 18.1067 53.6576 17.6713 53.4557C17.2402 53.2558 16.6475 53.1344 16.0331 53.0646C15.4228 52.9952 14.8093 52.9786 14.3469 52.9796C14.1548 52.98 13.9893 52.9834 13.8618 52.9872C14.1254 53.8731 14.4034 55.193 14.6211 56.4576C14.8453 57.7605 15.0101 59.0316 15.0256 59.7261C15.2924 59.8312 15.6863 59.9197 16.1443 59.9707C16.6728 60.0296 17.2657 60.0363 17.8084 59.9696C17.9285 59.9549 18.0378 60.0403 18.0525 60.1604C18.0673 60.2805 17.9819 60.3898 17.8618 60.4045C17.2807 60.4759 16.6533 60.4683 16.0957 60.4062C15.5431 60.3446 15.0378 60.2271 14.7106 60.0659C14.6349 60.0286 14.5874 59.9512 14.5884 59.8667C14.5958 59.2618 14.4308 57.9352 14.1893 56.532C13.9483 55.1321 13.6367 53.687 13.3595 52.8489C13.3381 52.7843 13.348 52.7134 13.3861 52.6571C13.4243 52.6008 13.4865 52.5654 13.5544 52.5614L13.5675 52.7801C13.5544 52.5614 13.5543 52.5614 13.5544 52.5614L13.5556 52.5613L13.5586 52.5611L13.5699 52.5605C13.5798 52.56 13.5942 52.5592 13.6129 52.5583C13.6504 52.5565 13.7049 52.5541 13.7741 52.5517C13.9124 52.5469 14.1096 52.5419 14.346 52.5414C14.8179 52.5405 15.4496 52.5573 16.0826 52.6292C16.7114 52.7007 17.36 52.8285 17.8556 53.0582C18.3461 53.2856 18.7529 53.6482 18.7443 54.2096Z" fill="#1B3C87"/>
<path d="M18.5252 56.7563C21.7824 56.7563 24.4228 54.1159 24.4228 50.8587C24.4228 47.6016 21.7824 44.9612 18.5252 44.9612C15.2681 44.9612 12.6277 47.6016 12.6277 50.8587C12.6277 54.1159 15.2681 56.7563 18.5252 56.7563Z" fill="white"/>
<path fill-rule="evenodd" clip-rule="evenodd" d="M22.7877 52.8896C22.8905 52.9533 22.9222 53.0883 22.8585 53.1912C22.1418 54.3477 21.0609 55.2332 19.786 55.7082C18.511 56.1832 17.1143 56.2209 15.8156 55.8153C15.7001 55.7792 15.6357 55.6563 15.6718 55.5408C15.7078 55.4253 15.8307 55.361 15.9462 55.397C17.1521 55.7737 18.4491 55.7387 19.633 55.2976C20.8169 54.8565 21.8206 54.0343 22.4861 52.9604C22.5498 52.8576 22.6848 52.8258 22.7877 52.8896Z" fill="#1B3C87"/>
<path fill-rule="evenodd" clip-rule="evenodd" d="M18.3201 44.3462C17.4052 44.2377 16.4777 44.3534 15.6175 44.6833C14.7574 45.0132 13.9904 45.5475 13.3828 46.2399C12.7751 46.9324 12.3451 47.7623 12.1298 48.6581C11.9145 49.5539 11.9204 50.4885 12.1469 51.3815C12.3735 52.2745 12.8139 53.099 13.4302 53.7837C13.5111 53.8737 13.5038 54.0122 13.4139 54.0931C13.3239 54.1741 13.1854 54.1668 13.1045 54.0768C12.4407 53.3392 11.9663 52.4511 11.7222 51.4893C11.4782 50.5274 11.4719 49.5206 11.7038 48.5557C11.9357 47.5908 12.3989 46.6969 13.0534 45.951C13.7079 45.205 14.5341 44.6296 15.4606 44.2742C16.3872 43.9188 17.3862 43.7942 18.3717 43.9111C19.3571 44.028 20.2993 44.383 21.117 44.9453C21.9347 45.5076 22.6032 46.2604 23.065 47.1387C23.5268 48.0171 23.768 48.9946 23.7677 49.987L23.7677 49.9875C23.7669 50.2913 23.7441 50.5947 23.6996 50.8953C23.6819 51.015 23.5705 51.0977 23.4508 51.0799C23.3311 51.0622 23.2484 50.9508 23.2662 50.8311C23.3076 50.5515 23.3288 50.2693 23.3295 49.9866C23.3298 49.0654 23.1059 48.158 22.6772 47.3426C22.2485 46.5272 21.6278 45.8283 20.8687 45.3063C20.1096 44.7843 19.2349 44.4548 18.3201 44.3462Z" fill="#1B3C87"/>
<path d="M23.9407 46.3129C21.9121 49.1609 17.3991 49.4062 16.4921 49.4062C15.5851 49.4062 15.3704 51.9432 14.2027 51.9432C13.0351 51.9432 10.0403 51.1808 10.0403 47.6821C10.0403 45.0948 12.0689 43.7519 14.9345 42.8624C17.1866 42.1635 21.9844 40.6716 23.4544 40.6716C25.9146 40.6716 27.1787 43.1056 27.1787 45.4913C27.1787 47.5441 26.574 48.5168 24.2255 49.3624" fill="#ECC953"/>
<path fill-rule="evenodd" clip-rule="evenodd" d="M19.523 40.6219C18.1974 40.9658 16.7172 41.4029 15.4956 41.775C15.3799 41.8103 15.2575 41.745 15.2222 41.6293C15.187 41.5136 15.2522 41.3911 15.3679 41.3559C16.5913 40.9832 18.0784 40.544 19.413 40.1978C20.7363 39.8545 21.9412 39.5938 22.5825 39.5938C23.8959 39.5938 24.8901 40.2476 25.5477 41.2039C26.2013 42.1542 26.5258 43.4048 26.5258 44.6325C26.5258 45.6766 26.373 46.4893 25.8874 47.1504C25.4041 47.8085 24.6163 48.2818 23.4278 48.7097C23.314 48.7507 23.1885 48.6917 23.1475 48.5778C23.1065 48.464 23.1656 48.3385 23.2794 48.2975C24.4395 47.8798 25.1282 47.444 25.5343 46.8911C25.9382 46.3412 26.0877 45.6412 26.0877 44.6325C26.0877 43.4745 25.7802 42.3152 25.1867 41.4522C24.5972 40.595 23.7293 40.0319 22.5825 40.0319C22.0078 40.0319 20.8598 40.2751 19.523 40.6219Z" fill="#1B3C87"/>
<path fill-rule="evenodd" clip-rule="evenodd" d="M9.38372 45.4054C9.50012 45.4384 9.56772 45.5595 9.53472 45.6759C9.43128 46.0407 9.38022 46.4184 9.38309 46.7975L9.38311 46.7992H9.3831C9.3831 48.4744 10.0947 49.4739 10.9332 50.0624C11.7839 50.6595 12.7781 50.8412 13.3265 50.8412C13.5274 50.8412 13.703 50.7357 13.8787 50.5239C14.0571 50.309 14.21 50.0149 14.3664 49.6954C14.385 49.6574 14.4037 49.619 14.4226 49.5802C14.5562 49.3054 14.6957 49.0184 14.8516 48.7945C15.0261 48.5439 15.2667 48.305 15.6077 48.3042C16.335 48.2946 17.0601 48.2226 17.7751 48.0889C17.894 48.0667 18.0085 48.145 18.0307 48.264C18.053 48.3829 17.9746 48.4973 17.8556 48.5196C17.1156 48.658 16.365 48.7325 15.6121 48.7424L15.6093 48.7424V48.7424C15.4943 48.7424 15.3676 48.8202 15.2112 49.0449C15.0764 49.2385 14.9534 49.491 14.8171 49.7709C14.7983 49.8095 14.7793 49.8486 14.7599 49.8881C14.6058 50.2029 14.4323 50.543 14.2159 50.8037C13.9969 51.0677 13.7094 51.2793 13.3265 51.2793C12.7071 51.2793 11.6202 51.0798 10.6815 50.421C9.73087 49.7538 8.94518 48.623 8.94495 46.8" fill="#1B3C87"/>
<path fill-rule="evenodd" clip-rule="evenodd" d="M23.1964 45.2617C23.2929 45.3346 23.3121 45.472 23.2393 45.5686C22.4975 46.5516 21.5019 47.3139 20.3595 47.7737C20.2473 47.8188 20.1197 47.7645 20.0745 47.6522C20.0293 47.54 20.0837 47.4124 20.1959 47.3672C21.2645 46.9371 22.1957 46.2241 22.8895 45.3047C22.9624 45.2081 23.0998 45.1889 23.1964 45.2617Z" fill="#1B3C87"/>
<path d="M14.3605 52.8239C15.1942 52.8239 15.87 52.1481 15.87 51.3145C15.87 50.4809 15.1942 49.8051 14.3605 49.8051C13.5269 49.8051 12.8511 50.4809 12.8511 51.3145C12.8511 52.1481 13.5269 52.8239 14.3605 52.8239Z" fill="white"/>
<path fill-rule="evenodd" clip-rule="evenodd" d="M14.2944 49.6404C14.0914 49.5795 13.8765 49.5695 13.6687 49.6114C13.461 49.6533 13.2667 49.7457 13.1031 49.8805C12.9396 50.0153 12.8117 50.1883 12.7309 50.3842C12.65 50.5802 12.6187 50.793 12.6397 51.0039C12.6606 51.2148 12.7332 51.4173 12.851 51.5935C12.9688 51.7697 13.1282 51.9142 13.3151 52.0142C13.502 52.1141 13.7106 52.1665 13.9226 52.1667C14.0436 52.1668 14.1415 52.265 14.1414 52.386C14.1413 52.507 14.0432 52.605 13.9222 52.6049C13.6383 52.6046 13.3588 52.5344 13.1084 52.4005C12.8581 52.2666 12.6445 52.0731 12.4867 51.837C12.3289 51.601 12.2317 51.3297 12.2037 51.0472C12.1756 50.7647 12.2176 50.4796 12.3258 50.2171C12.4341 49.9547 12.6054 49.7229 12.8245 49.5424C13.0436 49.3618 13.3038 49.238 13.5822 49.1819C13.8605 49.1258 14.1483 49.1391 14.4203 49.2207C14.6922 49.3023 14.9399 49.4496 15.1414 49.6496C15.2273 49.7348 15.2278 49.8735 15.1426 49.9594C15.0573 50.0453 14.9186 50.0458 14.8327 49.9605C14.6823 49.8112 14.4974 49.7013 14.2944 49.6404Z" fill="#1B3C87"/>
<path fill-rule="evenodd" clip-rule="evenodd" d="M8.31472 70.7175C8.43238 70.7457 8.50489 70.864 8.47667 70.9816C7.9891 73.0146 7.7175 75.0516 7.61609 76.6451C7.56537 77.4422 7.55747 78.1244 7.58557 78.6375C7.59964 78.8943 7.62251 79.1044 7.65226 79.2633C7.68379 79.4316 7.71791 79.512 7.73568 79.5367C7.78952 79.6109 7.91461 79.7075 8.13524 79.8144C8.34949 79.9182 8.62943 80.0204 8.96297 80.1184C9.6294 80.3142 10.4879 80.4869 11.4137 80.6238C13.2677 80.898 15.3603 81.0245 16.6759 80.9168C16.7964 80.907 16.9022 80.9967 16.9121 81.1173C16.9219 81.2379 16.8322 81.3436 16.7116 81.3535C15.35 81.4649 13.221 81.334 11.3496 81.0572C10.4127 80.9187 9.53254 80.7424 8.83946 80.5388C8.49325 80.4371 8.18821 80.327 7.94416 80.2087C7.70662 80.0936 7.5001 79.9583 7.38082 79.7937L7.38062 79.7935C7.30142 79.6838 7.25428 79.5185 7.22159 79.3439C7.18706 79.1595 7.16272 78.9288 7.14807 78.6614C7.11873 78.1258 7.1274 77.4253 7.17882 76.6173C7.2817 75.0008 7.5567 72.9388 8.0506 70.8795C8.07881 70.7618 8.19707 70.6893 8.31472 70.7175Z" fill="#1B3C87"/>
<path fill-rule="evenodd" clip-rule="evenodd" d="M15.0036 62.4477C13.2368 62.351 11.8299 63.445 10.7227 65.1941C10.658 65.2963 10.5226 65.3268 10.4204 65.262C10.3182 65.1973 10.2878 65.062 10.3525 64.9598C11.4974 63.1511 13.0304 61.901 15.0274 62.0102C16.1671 62.0715 17.0043 62.9414 17.6058 64.175C18.2107 65.4154 18.6099 67.0843 18.851 68.8783C19.3333 72.4677 19.191 76.6287 18.736 79.0378C18.7136 79.1566 18.599 79.2348 18.4801 79.2124C18.3612 79.1899 18.283 79.0753 18.3055 78.9564C18.7509 76.5983 18.8935 72.4848 18.4167 68.9367C18.1783 67.1619 17.787 65.5463 17.212 64.367C16.6336 63.181 15.9014 62.496 15.0038 62.4477L15.0036 62.4477Z" fill="#1B3C87"/>
<path d="M103.773 87.5322L107.245 86.2441L111.289 85.8541L106.888 73.0359L105.326 81.2009L101.893 82.6731" fill="white"/>
<path fill-rule="evenodd" clip-rule="evenodd" d="M104.784 78.7972C104.903 78.82 104.981 78.9347 104.958 79.0536L104.665 80.5849C104.651 80.6564 104.603 80.7164 104.536 80.745L101.103 82.2172C100.992 82.2649 100.863 82.2134 100.815 82.1022C100.767 81.991 100.819 81.8622 100.93 81.8145L104.256 80.3882L104.528 78.9711C104.551 78.8523 104.665 78.7744 104.784 78.7972Z" fill="#1B3C87"/>
<path fill-rule="evenodd" clip-rule="evenodd" d="M105.996 72.1602C106.095 72.1532 106.186 72.2137 106.219 72.3076L109.067 80.6041C109.106 80.7185 109.045 80.8431 108.931 80.8824C108.816 80.9217 108.692 80.8608 108.652 80.7463L106.072 73.2291L105.315 77.1805C105.293 77.2993 105.178 77.3772 105.059 77.3545C104.94 77.3317 104.862 77.2169 104.885 77.0981L105.796 72.3376C105.815 72.24 105.897 72.1672 105.996 72.1602Z" fill="#1B3C87"/>
<path fill-rule="evenodd" clip-rule="evenodd" d="M110.631 85.1758C110.642 85.2963 110.554 85.4033 110.434 85.4149L106.418 85.8022L102.972 87.0804C102.859 87.1225 102.733 87.0646 102.691 86.9512C102.649 86.8378 102.707 86.7117 102.82 86.6696L106.292 85.3814C106.31 85.3748 106.329 85.3706 106.347 85.3688L110.392 84.9788C110.512 84.9672 110.619 85.0554 110.631 85.1758Z" fill="#1B3C87"/>
<path fill-rule="evenodd" clip-rule="evenodd" d="M20.3742 49.5859C20.4952 49.5859 20.5933 49.684 20.5933 49.805C20.5933 50.0577 20.6718 50.4336 20.8176 50.7962C20.965 51.1625 21.1648 51.4748 21.3802 51.633C21.4777 51.7046 21.4987 51.8417 21.4271 51.9393C21.3555 52.0368 21.2184 52.0578 21.1209 51.9861C20.8083 51.7566 20.57 51.3547 20.4111 50.9597C20.2508 50.561 20.1552 50.1285 20.1552 49.805C20.1552 49.684 20.2532 49.5859 20.3742 49.5859Z" fill="#1B3C87"/>
<path d="M22.0568 49.9825C22.2612 49.9825 22.427 49.6657 22.427 49.2749C22.427 48.8841 22.2612 48.5673 22.0568 48.5673C21.8523 48.5673 21.6865 48.8841 21.6865 49.2749C21.6865 49.6657 21.8523 49.9825 22.0568 49.9825Z" fill="#1B3C87"/>
<path fill-rule="evenodd" clip-rule="evenodd" d="M18.1027 52.469C18.1959 52.3918 18.334 52.4047 18.4112 52.4978C18.5248 52.635 18.7581 52.8171 19.0353 52.9661C19.314 53.116 19.5991 53.2116 19.8111 53.2116C19.9321 53.2116 20.0302 53.3097 20.0302 53.4307C20.0302 53.5517 19.9321 53.6498 19.8111 53.6498C19.4929 53.6498 19.1318 53.5155 18.8278 53.352C18.5221 53.1877 18.2362 52.9734 18.0739 52.7775C17.9966 52.6843 18.0096 52.5462 18.1027 52.469Z" fill="#1B3C87"/>
<path d="M181.407 45.4453H151.119V85.2757H181.407V45.4453Z" fill="#EAF0FF"/>
<path d="M181.407 45.4453H151.119V50.9617H181.407V45.4453Z" fill="#D8DFFF"/>
<path d="M154.48 49.529C155.234 49.529 155.845 48.918 155.845 48.1642C155.845 47.4104 155.234 46.7993 154.48 46.7993C153.726 46.7993 153.115 47.4104 153.115 48.1642C153.115 48.918 153.726 49.529 154.48 49.529Z" fill="#B2C3FB"/>
<path d="M158.636 49.529C159.39 49.529 160.001 48.918 160.001 48.1642C160.001 47.4104 159.39 46.7993 158.636 46.7993C157.882 46.7993 157.271 47.4104 157.271 48.1642C157.271 48.918 157.882 49.529 158.636 49.529Z" fill="#B2C3FB"/>
<path d="M162.794 49.529C163.548 49.529 164.159 48.918 164.159 48.1642C164.159 47.4104 163.548 46.7993 162.794 46.7993C162.04 46.7993 161.429 47.4104 161.429 48.1642C161.429 48.918 162.04 49.529 162.794 49.529Z" fill="#B2C3FB"/>
<path d="M163.16 55.4637H154.791V67.0748H163.16V55.4637Z" fill="#D8DFFF"/>
<path fill-rule="evenodd" clip-rule="evenodd" d="M165.844 55.4637C165.844 55.3427 165.942 55.2446 166.063 55.2446H177.411C177.532 55.2446 177.63 55.3427 177.63 55.4637C177.63 55.5847 177.532 55.6828 177.411 55.6828H166.063C165.942 55.6828 165.844 55.5847 165.844 55.4637Z" fill="#B2C3FB"/>
<path fill-rule="evenodd" clip-rule="evenodd" d="M154.572 73.4456C154.572 73.3246 154.67 73.2266 154.791 73.2266H177.411C177.532 73.2266 177.63 73.3246 177.63 73.4456C177.63 73.5666 177.532 73.6647 177.411 73.6647H154.791C154.67 73.6647 154.572 73.5666 154.572 73.4456Z" fill="#B2C3FB"/>
<path fill-rule="evenodd" clip-rule="evenodd" d="M154.572 79.4395C154.572 79.3185 154.67 79.2205 154.791 79.2205H177.411C177.532 79.2205 177.63 79.3185 177.63 79.4395C177.63 79.5605 177.532 79.6586 177.411 79.6586H154.791C154.67 79.6586 154.572 79.5605 154.572 79.4395Z" fill="#B2C3FB"/>
<path fill-rule="evenodd" clip-rule="evenodd" d="M165.844 61.4577C165.844 61.3367 165.942 61.2386 166.063 61.2386H177.411C177.532 61.2386 177.63 61.3367 177.63 61.4577C177.63 61.5787 177.532 61.6768 177.411 61.6768H166.063C165.942 61.6768 165.844 61.5787 165.844 61.4577Z" fill="#B2C3FB"/>
<path fill-rule="evenodd" clip-rule="evenodd" d="M165.844 67.4517C165.844 67.3308 165.942 67.2327 166.063 67.2327H177.411C177.532 67.2327 177.63 67.3308 177.63 67.4517C177.63 67.5727 177.532 67.6708 177.411 67.6708H166.063C165.942 67.6708 165.844 67.5727 165.844 67.4517Z" fill="#B2C3FB"/>
</svg>
