<svg width="169" height="150" viewBox="0 0 169 150" fill="none" xmlns="http://www.w3.org/2000/svg">
<path fill-rule="evenodd" clip-rule="evenodd" d="M121.991 19.1159C132.953 31.3328 138.666 46.7609 140.272 61.9737C141.851 77.1955 139.312 92.2378 133.159 107.433C127.032 122.592 117.3 137.903 102.984 145.106C88.6417 152.309 69.6885 151.376 55.5162 143.527C41.3798 135.688 31.9884 120.896 22.3369 105.594C12.6854 90.2824 2.74682 74.4507 6.12844 61.9468C9.51006 49.4429 26.1849 40.2847 40.5007 28.6509C54.8166 17.0439 66.7464 2.96132 80.7931 0.422867C94.8398 -2.08868 111.021 6.89907 121.991 19.1159Z" fill="#F0F0F0"/>
<path d="M19.0718 122.26L0.0378276 69.625C-0.0787799 69.3021 0.0826772 68.9523 0.40559 68.8357C0.513228 68.7998 0.620866 68.7908 0.719534 68.8088L55.8211 78.6397C56.1529 78.7025 56.3772 79.0164 56.3234 79.3483C56.2965 79.4739 56.2337 79.5905 56.153 79.6802L20.1212 122.448C19.906 122.708 19.5203 122.744 19.2601 122.52C19.1704 122.448 19.1076 122.359 19.0718 122.26ZM10.7119 95.5298L19.8701 120.843L54.5653 79.6712L1.5627 70.217L10.7119 95.5298Z" fill="#B7C7FB"/>
<path fill-rule="evenodd" clip-rule="evenodd" d="M10.5415 22.5066H99.6476V108.303H10.5415V22.5066Z" fill="#EAF0FF"/>
<path fill-rule="evenodd" clip-rule="evenodd" d="M36.3833 36.6069H86.0402V40.0334H36.3833V36.6069Z" fill="#B2C3FB"/>
<path fill-rule="evenodd" clip-rule="evenodd" d="M36.3833 51.8828H86.0402V55.3182H36.3833V51.8828Z" fill="#B2C3FB"/>
<path fill-rule="evenodd" clip-rule="evenodd" d="M36.3833 67.1672H86.0402V70.5937H36.3833V67.1672Z" fill="#B2C3FB"/>
<path d="M28.1315 34.5888C28.3827 34.3556 28.7684 34.3646 29.0016 34.6158C29.2348 34.8669 29.2258 35.2526 28.9747 35.4858L23.2161 40.9305C22.9739 41.1547 22.6061 41.1547 22.3729 40.9305L19.6192 38.3292C19.368 38.096 19.359 37.7103 19.5923 37.4592C19.8255 37.208 20.2112 37.1991 20.4623 37.4323L22.7945 39.6388L28.1315 34.5888Z" fill="#B2C3FB"/>
<path d="M28.1315 50.591C28.3827 50.3578 28.7684 50.3668 29.0016 50.6179C29.2348 50.8691 29.2258 51.2548 28.9747 51.488L23.2161 56.9327C22.9739 57.1569 22.6061 57.1569 22.3729 56.9327L19.6192 54.3314C19.368 54.0982 19.359 53.7125 19.5923 53.4614C19.8255 53.2102 20.2112 53.2013 20.4623 53.4345L22.7945 55.641L28.1315 50.591Z" fill="#B2C3FB"/>
<path d="M28.1315 66.5932C28.3827 66.36 28.7684 66.369 29.0016 66.6201C29.2348 66.8713 29.2258 67.257 28.9747 67.4902L23.2161 72.9349C22.9739 73.1591 22.6061 73.1591 22.3729 72.9349L19.6192 70.3336C19.368 70.1004 19.359 69.7147 19.5923 69.4636C19.8255 69.2124 20.2112 69.2035 20.4623 69.4367L22.7945 71.6432L28.1315 66.5932Z" fill="#B2C3FB"/>
<path fill-rule="evenodd" clip-rule="evenodd" d="M36.3833 82.4517H86.0402V85.8781H36.3833V82.4517Z" fill="#F4F7FF"/>
<path fill-rule="evenodd" clip-rule="evenodd" d="M36.3833 97.7273H86.0402V101.154H36.3833V97.7273Z" fill="#F4F7FF"/>
<path d="M124.099 91.565C124.099 85.5014 126.557 80.0119 130.53 76.0383C134.504 72.0647 139.994 69.6069 146.057 69.6069C152.121 69.6069 157.61 72.0647 161.584 76.0383C165.558 80.0119 168.015 85.5014 168.015 91.565C168.015 97.6286 165.558 103.118 161.584 107.092C157.61 111.065 152.121 113.523 146.057 113.523C139.994 113.523 134.504 111.065 130.53 107.092C126.557 103.118 124.099 97.6286 124.099 91.565ZM131.401 76.9084C127.651 80.6577 125.328 85.8423 125.328 91.565C125.328 97.2878 127.651 102.472 131.401 106.222C135.15 109.971 140.334 112.294 146.057 112.294C151.78 112.294 156.964 109.971 160.714 106.222C164.463 102.472 166.786 97.2878 166.786 91.565C166.786 85.8423 164.463 80.6577 160.714 76.9084C156.964 73.159 151.78 70.8358 146.057 70.8358C140.334 70.8448 135.15 73.159 131.401 76.9084Z" fill="#E9EFFF"/>
<path fill-rule="evenodd" clip-rule="evenodd" d="M93.2344 60.2334C87.7539 59.1391 80.9368 65.9472 81.4122 76.0023L88.023 77.3747C88.023 77.3747 93.7098 60.3321 93.2344 60.2334Z" fill="#46DBC9"/>
<path d="M80.3088 71.2845C80.3357 71.0871 80.5151 70.9436 80.7214 70.9705C80.9187 70.9974 81.0623 71.1768 81.0353 71.3831C80.9815 71.8137 80.9367 72.2532 80.9098 72.7017C80.8829 73.1323 80.8649 73.5628 80.8649 74.0113C80.8649 74.2086 80.8649 74.3701 80.8739 74.4957C80.8739 74.6482 80.8829 74.8186 80.8918 74.98C80.9008 75.1863 80.7393 75.3568 80.542 75.3657C80.3357 75.3747 80.1653 75.2132 80.1563 75.0159C80.1473 74.8545 80.1384 74.693 80.1384 74.5136C80.1294 74.3163 80.1294 74.1369 80.1294 74.0113C80.1294 73.5718 80.1473 73.1143 80.1742 72.6569C80.2012 72.1994 80.255 71.7419 80.3088 71.2845Z" fill="#1B3C87"/>
<path d="M92.4091 58.8702C92.6064 58.9061 92.7409 59.1034 92.6961 59.3007C92.6602 59.4981 92.4629 59.6326 92.2655 59.5878C90.6151 59.2559 88.8301 59.6954 87.1707 60.7449C85.5023 61.8033 83.9774 63.4807 82.8383 65.6424C82.7396 65.8218 82.5243 65.8935 82.3449 65.7949C82.1655 65.6962 82.0938 65.4809 82.1925 65.3015C83.3944 63.0232 85.0179 61.2472 86.785 60.126C88.5969 58.9778 90.5702 58.5024 92.4091 58.8702Z" fill="#1B3C87"/>
<path fill-rule="evenodd" clip-rule="evenodd" d="M105.944 56.1255C126.638 56.1255 130.647 80.0569 127.893 113.389C118.915 117.147 96.8758 119.085 87.1257 113.147C82.5511 100.32 79.887 56.1255 105.944 56.1255Z" fill="#46DBC9"/>
<path fill-rule="evenodd" clip-rule="evenodd" d="M91.0366 34.6515C91.0366 25.8701 96.3378 18.748 102.877 18.748C109.416 18.748 114.717 25.8701 114.717 34.6515C114.717 43.433 109.416 50.555 102.877 50.555C96.3378 50.555 91.0366 43.433 91.0366 34.6515Z" fill="white"/>
<path fill-rule="evenodd" clip-rule="evenodd" d="M100.661 34.6606C100.661 33.8892 100.984 33.2703 101.37 33.2703C101.755 33.2703 102.078 33.8892 102.078 34.6606C102.078 35.432 101.755 36.0509 101.37 36.0509C100.984 36.0509 100.661 35.432 100.661 34.6606Z" fill="#1B3C87"/>
<path d="M97.0285 37.2351C97.0375 37.0288 97.1989 36.8674 97.4052 36.8763C97.6115 36.8853 97.773 37.0468 97.764 37.2531C97.7461 37.7912 97.6474 38.6972 97.3066 39.6121C97.0644 40.249 96.7145 40.8858 96.1943 41.4061C96.0508 41.5496 95.8176 41.5496 95.674 41.4061C95.5305 41.2626 95.5305 41.0293 95.674 40.8858C96.1136 40.4463 96.4185 39.8992 96.6248 39.352C96.9208 38.5357 97.0105 37.7195 97.0285 37.2351Z" fill="#1B3C87"/>
<path d="M100.15 44.967C99.9524 44.9939 99.764 44.8504 99.7371 44.653C99.7102 44.4557 99.8537 44.2673 100.051 44.2404C100.518 44.1776 101.029 44.0521 101.522 43.8189C102.006 43.5856 102.455 43.2358 102.814 42.7066C102.93 42.5362 103.155 42.4913 103.325 42.6079C103.495 42.7245 103.54 42.9488 103.424 43.1192C102.984 43.765 102.428 44.1956 101.845 44.4826C101.271 44.7517 100.679 44.8952 100.15 44.967Z" fill="#1B3C87"/>
<path d="M122.009 81.7612C121.946 81.5729 122.045 81.3576 122.234 81.2948C122.422 81.232 122.637 81.3307 122.7 81.5191C123.373 83.4386 124.844 88.5334 124.853 88.5424C124.907 88.7398 124.799 88.9371 124.602 88.9999C124.503 89.0268 124.413 89.0178 124.332 88.973C124.306 88.955 113.874 83.609 108.967 81.1334C108.788 81.0437 108.716 80.8194 108.806 80.64C108.895 80.4606 109.12 80.3889 109.299 80.4786C113.425 82.5596 121.417 86.6588 123.902 87.9325C123.471 86.4166 122.512 83.1964 122.009 81.7612Z" fill="#1B3C87"/>
<path d="M96.5528 82.4696C96.6156 82.2722 96.8129 82.1646 97.0102 82.2274C97.2076 82.2902 97.3152 82.4875 97.2524 82.6848L96.0056 86.793C95.9428 86.9903 95.7455 87.098 95.5482 87.0352C95.3508 86.9724 95.2432 86.7751 95.306 86.5777L96.5528 82.4696Z" fill="#1B3C87"/>
<path d="M100.508 69.4276C100.571 69.2302 100.768 69.1226 100.966 69.1854C101.163 69.2482 101.271 69.4455 101.208 69.6428L99.5486 75.1144C99.4858 75.3118 99.2885 75.4194 99.0911 75.3566C98.8938 75.2938 98.7862 75.0965 98.8489 74.8991L100.508 69.4276Z" fill="#1B3C87"/>
<path d="M109.182 115.236C109.389 115.228 109.559 115.38 109.568 115.577C109.577 115.775 109.425 115.954 109.227 115.972C104.545 116.268 99.6834 116.169 95.333 115.497C91.4939 114.905 88.0495 113.873 85.4483 112.294C85.3765 112.25 85.3227 112.178 85.2958 112.106C83.2955 106.5 81.654 94.9647 82.5869 83.7076C83.2596 75.572 85.2689 67.5709 89.4578 62.0186C89.5834 61.8572 89.8076 61.8213 89.9691 61.9468C90.1305 62.0724 90.1664 62.2967 90.0408 62.4671C85.9506 67.8849 83.9772 75.7604 83.3224 83.7704C82.4075 94.8391 83.9952 106.168 85.9506 111.738C88.4442 113.227 91.763 114.205 95.4496 114.77C99.7461 115.425 104.554 115.532 109.182 115.236Z" fill="#1B3C87"/>
<path d="M95.8535 57.3544C95.6741 57.453 95.4498 57.3813 95.3511 57.2019C95.2525 57.0225 95.3242 56.7982 95.5036 56.6996C96.7953 55.9999 98.2035 55.4617 99.7284 55.1029C101.19 54.7531 102.769 54.5737 104.464 54.5737C115.004 54.5737 121.283 60.6553 124.584 70.9616C127.849 81.1602 128.163 95.5299 126.781 112.241C126.772 112.393 126.665 112.51 126.539 112.555C125.857 112.842 125.104 113.111 124.27 113.38C123.436 113.649 122.53 113.9 121.588 114.133C121.391 114.178 121.193 114.062 121.139 113.864C121.094 113.667 121.211 113.469 121.408 113.416C122.35 113.182 123.238 112.931 124.046 112.671C124.763 112.438 125.436 112.196 126.055 111.945C127.409 95.4133 127.086 81.223 123.875 71.1768C120.682 61.1934 114.618 55.3003 104.456 55.3003C102.823 55.3003 101.298 55.4797 99.8899 55.8116C98.4368 56.1793 97.0913 56.6906 95.8535 57.3544Z" fill="#1B3C87"/>
<path d="M125.624 111.774C125.624 111.568 125.786 111.406 125.992 111.406C126.198 111.406 126.36 111.568 126.36 111.774C126.36 113.9 126.019 147.214 126.01 147.303C126.01 147.51 125.84 147.671 125.642 147.671C125.445 147.671 125.274 147.501 125.274 147.303C125.274 147.205 125.624 114.097 125.624 111.774Z" fill="#1B3C87"/>
<path fill-rule="evenodd" clip-rule="evenodd" d="M100.518 76.5498C99.2707 76.5498 93.8709 77.2405 96.9296 82.2277C98.6787 85.0891 99.4053 84.2638 100.141 83.3579C100.715 83.6539 101.594 84.3625 102.159 84.8289C102.15 84.8379 102.15 84.8469 102.15 84.8558C103.693 86.0578 124.063 103.836 128.252 104.903C132.441 105.971 137.15 101.827 138.962 98.7142C140.962 95.2788 137.168 81.3397 136.504 79.7969C135.832 78.263 123.579 83.2054 123.579 83.2054C123.579 83.2054 125.561 89.1434 126.09 91.6011C124.933 90.9463 106.725 82.0483 104.348 79.3125C104.348 79.3215 104.339 79.3304 104.339 79.3394C103.442 78.4514 101.477 76.5498 100.518 76.5498Z" fill="white"/>
<path d="M84.9996 111.451C84.9996 111.245 85.161 111.083 85.3673 111.083C85.5736 111.083 85.7351 111.245 85.7351 111.451L85.7082 143.644C85.7082 143.85 85.5467 144.012 85.3404 144.012C85.1341 144.012 84.9727 143.85 84.9727 143.644L84.9996 111.451Z" fill="#1B3C87"/>
<path d="M100.437 131.965C100.392 131.768 100.518 131.571 100.715 131.526C100.912 131.481 101.11 131.606 101.154 131.804C101.693 134.118 102.294 136.683 102.921 139.374C103.522 141.976 104.132 144.613 104.733 147.223C104.778 147.42 104.653 147.618 104.455 147.662C104.258 147.707 104.061 147.582 104.016 147.384C103.415 144.783 102.805 142.137 102.204 139.536C101.621 137.033 101.029 134.495 100.437 131.965Z" fill="#1B3C87"/>
<path fill-rule="evenodd" clip-rule="evenodd" d="M113.022 41.2354C112.959 42.0426 111.201 55.6857 111.829 60.5384C110.322 61.8211 99.9076 62.0094 100.123 60.0899C100.482 56.8787 101.244 51.8915 100.598 49.3441L113.022 41.2354Z" fill="white"/>
<path d="M99.5667 58.7177C99.5488 58.924 99.3604 59.0675 99.1631 59.0406C98.9568 59.0137 98.8132 58.8343 98.8402 58.637C98.9029 58.1078 98.9568 57.6503 99.0106 57.1929C99.3425 54.4302 99.6743 51.5598 99.3783 49.1649C99.3514 48.9586 99.4949 48.7792 99.7013 48.7523C99.9076 48.7254 100.087 48.8689 100.114 49.0752C100.419 51.5598 100.078 54.466 99.7461 57.2736C99.6743 57.7849 99.6116 58.2961 99.5667 58.7177Z" fill="#1B3C87"/>
<path d="M111.595 41.7377C111.613 41.5314 111.793 41.3879 111.99 41.3969C112.196 41.4148 112.34 41.5942 112.331 41.7916C112.322 41.9082 112.286 42.2221 112.223 42.6975C111.864 45.6665 110.734 54.9234 111.272 59.0674C111.29 59.193 111.237 59.3186 111.147 59.3903C110.815 59.6773 110.151 59.9106 109.299 60.072C108.429 60.2424 107.335 60.3591 106.178 60.4129C105.971 60.4218 105.801 60.2604 105.792 60.0631C105.783 59.8657 105.944 59.6863 106.142 59.6773C107.245 59.6235 108.303 59.5159 109.147 59.3455C109.748 59.2289 110.223 59.0853 110.51 58.9239C110.026 54.5915 111.12 45.532 111.479 42.5988C111.55 42.1593 111.586 41.8454 111.595 41.7377Z" fill="#1B3C87"/>
<path d="M106.949 47.3889C107.12 47.2812 107.344 47.3261 107.461 47.4965C107.568 47.6669 107.523 47.8912 107.353 48.0078C106.528 48.546 105.658 48.9676 104.734 49.2546C103.837 49.5326 102.913 49.6762 101.953 49.6762C99.8541 49.6762 97.8718 48.9676 96.1406 47.7207C94.3646 46.4381 92.8487 44.5813 91.7454 42.3389C91.6557 42.1595 91.7275 41.9352 91.9158 41.8455C92.1042 41.7558 92.3195 41.8276 92.4092 42.016C93.4676 44.1508 94.8938 45.9088 96.5712 47.1198C98.1768 48.2769 100.007 48.9317 101.953 48.9317C102.832 48.9317 103.693 48.7971 104.518 48.546C105.362 48.2769 106.178 47.8912 106.949 47.3889Z" fill="#1B3C87"/>
<path d="M90.8305 37.2079C90.8663 37.4052 90.7318 37.6026 90.5345 37.6385C90.3371 37.6743 90.1398 37.5398 90.1039 37.3425C89.9873 36.6966 89.8976 36.0508 89.8348 35.387C89.772 34.7233 89.7451 34.0595 89.7451 33.4137V33.3957C89.7451 28.9288 91.0996 24.8744 93.2882 21.9323C95.5037 18.9633 98.5624 17.1245 101.962 17.1245C105.353 17.1245 108.42 18.9633 110.636 21.9323C112.824 24.8744 114.179 28.9198 114.179 33.3957C114.179 35.3512 113.919 37.2169 113.452 38.9481C112.959 40.751 112.241 42.4014 111.326 43.8456C111.219 44.016 110.995 44.0698 110.815 43.9622C110.645 43.8545 110.591 43.6303 110.699 43.4509C111.569 42.0696 112.259 40.4819 112.735 38.7507C113.192 37.0823 113.434 35.2704 113.434 33.3868C113.434 29.0723 112.134 25.1794 110.035 22.3629C107.963 19.5733 105.101 17.8511 101.953 17.8511C98.8046 17.8511 95.9522 19.5733 93.8712 22.3629C91.7723 25.1794 90.4806 29.0723 90.4806 33.3868V33.4047C90.4806 34.0505 90.5075 34.6874 90.5703 35.3063C90.6242 35.9521 90.7139 36.58 90.8305 37.2079Z" fill="#1B3C87"/>
<path fill-rule="evenodd" clip-rule="evenodd" d="M113.704 43.4061C115.031 43.6483 117.274 36.4724 117.731 32.14C118.547 24.426 110.456 14.622 104.42 14.012C103.236 13.8954 101.89 15.1153 102.617 17.1515C101.155 15.6176 97.3068 13.5815 93.9969 13.1599C88.9559 12.5141 86.5251 15.8598 86.5251 17.3578C86.5251 18.8557 87.431 23.52 89.2429 24.9642C87.7808 24.9462 86.4802 25.0808 86.3188 26.2648C85.8164 29.9155 87.8885 33.2074 91.3867 32.8755C91.6289 30.8215 92.0684 28.8302 92.7949 27.4847C93.378 32.7589 106.779 30.9919 106.752 31.8709C106.653 35.2615 110.672 35.2615 110.815 35.3422C113.91 37.208 111.587 43.0204 113.704 43.4061Z" fill="#EDCA55"/>
<path d="M85.0536 17.2951C85.0267 17.0978 85.1612 16.9094 85.3586 16.8735C85.5559 16.8466 85.7443 16.9812 85.7802 17.1785C85.9506 18.2997 86.3004 19.7439 86.8206 20.9907C87.2064 21.9146 87.6728 22.7129 88.2289 23.1524C88.3904 23.278 88.4173 23.5112 88.2917 23.6727C88.211 23.7713 88.0944 23.8162 87.9778 23.8072C87.2871 23.7982 86.6502 23.8251 86.1748 23.9866C85.7801 24.1212 85.5021 24.3633 85.4483 24.7849C85.242 26.3008 85.4931 27.7539 86.13 28.8751C86.7309 29.9336 87.6638 30.696 88.8568 30.9292C89.0541 30.9651 89.1887 31.1624 89.1438 31.3598C89.108 31.5571 88.9106 31.6917 88.7133 31.6558C87.296 31.3777 86.1928 30.4807 85.4931 29.2429C84.7845 27.9871 84.4975 26.3726 84.7217 24.6952C84.8293 23.9417 85.2868 23.5202 85.9416 23.2959C86.3004 23.1793 86.713 23.1165 87.1615 23.0896C86.7758 22.5873 86.4349 21.9594 86.1479 21.2777C85.5918 19.9771 85.233 18.4612 85.0536 17.2951Z" fill="#1B3C87"/>
<path d="M113.102 19.2234C113.219 19.3849 113.183 19.6181 113.021 19.7347C112.86 19.8513 112.627 19.8155 112.51 19.654C111.147 17.7703 109.523 16.1109 107.846 14.9C106.258 13.7608 104.635 13.0163 103.155 12.8728C102.966 12.8549 102.769 12.8818 102.581 12.9446C102.329 13.0343 102.096 13.1957 101.917 13.429C101.728 13.6622 101.603 13.9671 101.567 14.3259C101.531 14.6668 101.585 15.0704 101.737 15.5279C101.809 15.7163 101.701 15.9315 101.513 15.9943C101.37 16.0481 101.208 15.9943 101.118 15.8867C100.365 15.1063 98.9657 14.1824 97.3242 13.42C95.8711 12.7473 94.2386 12.2001 92.7227 12.0117C91.745 11.8861 90.866 11.922 90.0946 12.0566C89.2245 12.218 88.48 12.514 87.87 12.8908C87.6996 12.9984 87.4754 12.9446 87.3677 12.7652C87.2601 12.5948 87.3139 12.3615 87.4933 12.2629C88.175 11.8413 89.0002 11.5094 89.969 11.33C90.8121 11.1775 91.7629 11.1417 92.8214 11.2762C94.418 11.4825 96.1223 12.0476 97.6382 12.7473C98.876 13.3213 99.9972 13.9941 100.822 14.6399C100.813 14.5053 100.822 14.3708 100.831 14.2452C100.885 13.7339 101.065 13.3034 101.334 12.9625C101.603 12.6217 101.953 12.3795 102.338 12.2449C102.625 12.1463 102.93 12.1014 103.226 12.1373C104.841 12.2988 106.59 13.0881 108.276 14.299C110.008 15.5548 111.694 17.268 113.102 19.2234Z" fill="#1B3C87"/>
<path d="M111.075 39.872C111.057 39.6657 111.219 39.4953 111.416 39.4773C111.622 39.4594 111.793 39.6208 111.811 39.8182C111.846 40.3295 111.909 40.769 112.035 41.0829C112.134 41.3251 112.286 41.4866 112.528 41.5314H112.537C112.914 41.5583 113.524 40.3743 114.161 38.6969C114.842 36.8761 115.488 34.526 115.865 32.445C115.982 31.7902 116.071 31.1623 116.134 30.5882C116.197 29.9873 116.206 29.3683 116.161 28.7494C116.116 28.1036 116.017 27.4398 115.874 26.785C115.829 26.5877 115.955 26.3904 116.152 26.3455C116.349 26.3007 116.547 26.4262 116.592 26.6236C116.744 27.3232 116.852 28.0139 116.896 28.6956C116.941 29.3594 116.932 30.0142 116.87 30.66C116.807 31.252 116.708 31.8978 116.592 32.5706C116.206 34.6964 115.551 37.1003 114.851 38.9571C114.107 40.9215 113.255 42.3118 112.492 42.258H112.465L112.412 42.249C111.891 42.1503 111.577 41.8364 111.371 41.361C111.183 40.9663 111.111 40.4461 111.075 39.872Z" fill="#1B3C87"/>
<path d="M91.2968 27.5206C91.234 27.7179 91.0277 27.8255 90.8304 27.7628C90.633 27.7 90.5254 27.4937 90.5882 27.2963C90.6689 27.0452 90.7586 26.794 90.8663 26.5429C90.9649 26.3007 91.0815 26.0495 91.2161 25.8073C91.3148 25.6279 91.53 25.5562 91.7094 25.6549C91.826 25.7176 91.8888 25.8253 91.9068 25.9419C92.2835 29.3594 98.9481 29.5567 102.778 29.6644C104.608 29.7182 105.882 29.7541 105.864 30.373V30.3819C105.855 30.6241 105.873 30.8394 105.909 31.0457C105.945 31.243 105.998 31.4314 106.07 31.5929C106.151 31.7812 106.061 31.9965 105.873 32.0772C105.684 32.158 105.469 32.0683 105.388 31.8799C105.299 31.6646 105.227 31.4224 105.182 31.1713C105.137 30.9201 105.119 30.651 105.128 30.355V30.3461C105.128 30.2295 104.151 30.4268 102.751 30.3909C99.0647 30.2833 92.9024 30.1039 91.4583 27.0452C91.4045 27.1977 91.3506 27.3501 91.2968 27.5206Z" fill="#1B3C87"/>
<path fill-rule="evenodd" clip-rule="evenodd" d="M107.999 33.7638C108.501 33.414 109.102 33.2256 109.712 33.2256C111.371 33.2256 112.708 34.571 112.708 36.2215C112.708 37.8719 111.362 39.2174 109.712 39.2174C109.712 39.2174 109.712 39.2174 109.703 39.2174C109.694 39.2174 109.703 39.2174 109.703 39.2174C109.523 39.2174 109.344 39.1995 109.165 39.1726L107.999 33.7638Z" fill="white"/>
<path d="M107.936 33.4407C107.765 33.5573 107.541 33.5125 107.424 33.351C107.308 33.1806 107.353 32.9563 107.514 32.8397C107.801 32.6424 108.106 32.4899 108.429 32.3913C108.752 32.2926 109.093 32.2388 109.434 32.2388C110.366 32.2388 111.21 32.6155 111.82 33.2254C112.429 33.8354 112.806 34.6786 112.806 35.6114C112.806 36.5443 112.429 37.3874 111.82 37.9974C111.21 38.6073 110.366 38.9841 109.434 38.9841H109.425C109.335 38.9841 109.236 38.9751 109.12 38.9661H109.111C109.012 38.9572 108.913 38.9392 108.824 38.9302C108.626 38.8944 108.492 38.706 108.528 38.4997C108.564 38.3024 108.752 38.1678 108.958 38.2037C109.039 38.2216 109.111 38.2306 109.182 38.2306H109.191C109.263 38.2396 109.335 38.2396 109.425 38.2396H109.434C110.16 38.2396 110.815 37.9436 111.29 37.4682C111.766 36.9928 112.062 36.329 112.062 35.6024C112.062 34.8759 111.766 34.2211 111.29 33.7457C110.815 33.2703 110.151 32.9743 109.434 32.9743C109.164 32.9743 108.895 33.0102 108.644 33.0909C108.402 33.1716 108.16 33.2882 107.936 33.4407Z" fill="#1B3C87"/>
<path fill-rule="evenodd" clip-rule="evenodd" d="M72.3971 75.6167L94.1668 79.097L88.9016 112.061L67.1318 108.59L72.3971 75.6167Z" fill="#B2C3FB"/>
<path d="M66.4772 106.554C66.4503 106.751 66.2619 106.895 66.0556 106.859C65.8583 106.832 65.7148 106.643 65.7506 106.437L71.0159 73.4641C71.0428 73.2667 71.2312 73.1232 71.4375 73.1591L93.2162 76.6394C93.4135 76.6663 93.557 76.8546 93.5212 77.0609L91.8259 87.6902C91.799 87.8875 91.6106 88.031 91.4043 87.9951C91.2069 87.9682 91.0634 87.7799 91.0993 87.5736L92.7408 77.3121L71.6886 73.9484L66.4772 106.554Z" fill="#1B3C87"/>
<path d="M89.1619 99.7187C89.1978 99.5214 89.3862 99.3778 89.5835 99.4137C89.7809 99.4496 89.9244 99.629 89.8885 99.8353L88.256 110.034C88.2201 110.231 88.0317 110.375 87.8344 110.339L72.9804 107.971C72.7831 107.935 72.6396 107.747 72.6754 107.549C72.7113 107.352 72.8907 107.208 73.097 107.244L87.5833 109.559L89.1619 99.7187Z" fill="#1B3C87"/>
<path fill-rule="evenodd" clip-rule="evenodd" d="M66.1364 102.311C65.1407 94.8121 65.9032 89.9145 70.1728 88.5153C71.895 87.9502 70.1997 98.9023 69.509 100.705C68.8273 102.508 66.9526 100.454 66.1364 102.311Z" fill="white"/>
<path d="M65.8044 94.1305C65.8672 94.3278 65.7506 94.5251 65.5623 94.5879C65.3649 94.6507 65.1676 94.5341 65.1048 94.3457C64.7998 93.3411 64.7729 91.6727 65.9928 90.0582C66.818 88.9728 68.2084 87.9054 70.4598 87.1071C70.6481 87.0353 70.8634 87.143 70.9262 87.3314C70.998 87.5197 70.8903 87.735 70.702 87.7978C68.603 88.5423 67.3203 89.511 66.5758 90.4977C65.5264 91.879 65.5443 93.2963 65.8044 94.1305Z" fill="#1B3C87"/>
<path d="M65.4638 98.732C65.5266 98.9293 65.4099 99.1266 65.2216 99.1894C65.0242 99.2522 64.8269 99.1356 64.7641 98.9472C64.4591 97.9516 64.4322 96.2742 65.6611 94.6507C66.4863 93.5654 67.8766 92.4979 70.1281 91.6996C70.3164 91.6279 70.5317 91.7355 70.5945 91.9239C70.6662 92.1122 70.5586 92.3275 70.3702 92.3903C68.2713 93.1348 66.9886 94.1035 66.2441 95.0902C65.1947 96.4805 65.2036 97.8888 65.4638 98.732Z" fill="#1B3C87"/>
<path d="M65.7688 102.679C65.8316 102.876 65.715 103.073 65.5266 103.136C65.3293 103.199 65.1319 103.082 65.0692 102.894C64.7642 101.889 64.7373 100.221 65.9572 98.5975C66.7824 97.5121 68.1727 96.4447 70.4241 95.6464C70.6125 95.5747 70.8278 95.6823 70.8906 95.8707C70.9623 96.059 70.8547 96.2743 70.6663 96.3371C68.5674 97.0816 67.2847 98.0503 66.5402 99.037C65.4997 100.427 65.5087 101.845 65.7688 102.679Z" fill="#1B3C87"/>
<path d="M107.012 34.589C106.931 34.7773 106.716 34.867 106.527 34.7863C106.339 34.7056 106.249 34.4903 106.33 34.3019C106.456 34.0059 106.617 33.7368 106.823 33.4857C107.021 33.2345 107.254 33.0193 107.523 32.8399C107.693 32.7233 107.918 32.7681 108.034 32.9296C108.151 33.1 108.106 33.3242 107.945 33.4408C107.738 33.5844 107.559 33.7548 107.397 33.9521C107.236 34.1405 107.11 34.3558 107.012 34.589Z" fill="#1B3C87"/>
<path d="M138.182 95.0454C138.209 94.8481 138.397 94.7046 138.595 94.7315C138.792 94.7584 138.935 94.9468 138.908 95.1441C138.864 95.485 138.792 95.7989 138.711 96.0859C138.621 96.3819 138.514 96.6421 138.388 96.8663C137.348 98.6603 135.365 100.786 133.069 102.114C131.239 103.172 129.212 103.728 127.266 103.235C124.467 102.526 115.022 94.597 108.223 88.8922C104.572 85.8335 101.693 83.4116 101.11 83.1605C100.921 83.0797 100.841 82.8644 100.921 82.6761C101.002 82.4877 101.217 82.407 101.406 82.4877C102.087 82.7837 105.003 85.2325 108.689 88.3271C115.434 93.987 124.808 101.845 127.445 102.517C129.176 102.957 131.024 102.446 132.701 101.477C134.881 100.212 136.765 98.2028 137.751 96.4986C137.85 96.3281 137.94 96.1129 138.011 95.8796C138.083 95.6285 138.137 95.3504 138.182 95.0454Z" fill="#1B3C87"/>
<path d="M135.276 77.913C135.195 77.7246 135.285 77.5094 135.464 77.4286C135.644 77.3479 135.868 77.4286 135.949 77.617C136.155 78.0924 136.639 79.6621 137.16 81.7252C137.536 83.2231 137.94 84.9991 138.272 86.8111C138.308 87.0084 138.173 87.2057 137.976 87.2416C137.779 87.2775 137.581 87.1429 137.545 86.9456C137.213 85.1696 136.819 83.4115 136.442 81.9046C135.931 79.8864 135.464 78.3615 135.276 77.913Z" fill="#1B3C87"/>
<path d="M103.549 77.8142C103.621 78.0026 103.513 78.2179 103.325 78.2806C103.137 78.3524 102.921 78.2448 102.859 78.0564C102.607 77.3388 102.302 76.8006 101.953 76.406C101.549 75.9485 101.092 75.6884 100.598 75.5987C100.087 75.509 99.5218 75.5897 98.9298 75.796C97.8983 76.1638 96.777 76.9262 95.6558 77.8949C95.5033 78.0295 95.2701 78.0116 95.1356 77.8591C95.001 77.7066 95.019 77.4734 95.1714 77.3388C96.3555 76.3073 97.5574 75.491 98.6786 75.0964C99.3873 74.8452 100.078 74.7555 100.724 74.8631C101.379 74.9798 101.98 75.3116 102.5 75.9036C102.912 76.388 103.271 77.0069 103.549 77.8142Z" fill="#1B3C87"/>
<path d="M99.8 78.1016C100.006 78.1195 100.159 78.2899 100.141 78.4962C100.123 78.7025 99.9525 78.855 99.7462 78.8371C99.3515 78.8102 98.625 78.9985 97.8805 79.2945C97.1629 79.5816 96.4363 79.9673 95.9878 80.353C95.8354 80.4875 95.6021 80.4696 95.4676 80.3171C95.3331 80.1646 95.351 79.9314 95.5035 79.7968C96.0147 79.3573 96.8131 78.9268 97.6024 78.6128C98.4545 78.281 99.2977 78.0657 99.8 78.1016Z" fill="#1B3C87"/>
<path d="M100.41 80.7026C100.616 80.7116 100.778 80.873 100.769 81.0793C100.76 81.2856 100.598 81.4471 100.392 81.4381C99.5487 81.4202 98.0777 82.1378 96.9475 82.6939L96.9116 82.7118C96.7322 82.8015 96.508 82.7298 96.4183 82.5414C96.3286 82.362 96.4003 82.1378 96.5887 82.0481L96.6246 82.0301C97.8355 81.4381 99.3873 80.6757 100.41 80.7026Z" fill="#1B3C87"/>
<path fill-rule="evenodd" clip-rule="evenodd" d="M120.359 58.7267C130.082 55.4258 139.429 76.4241 138.971 78.6307C138.514 80.8373 123.211 85.2773 121.444 83.887C119.677 82.4967 114.726 60.6373 120.359 58.7267Z" fill="#46DBC9"/>
<path d="M124 82.1378C124.198 82.1019 124.386 82.2365 124.422 82.4428C124.458 82.6401 124.323 82.8285 124.117 82.8644C123.112 83.0348 122.224 83.1245 121.525 83.1245C120.816 83.1245 120.287 83.0169 119.982 82.7837C119.973 82.7747 119.955 82.7657 119.946 82.7567C119.497 82.3531 118.905 80.9628 118.34 79.0253C117.802 77.1775 117.255 74.8005 116.842 72.298C116.807 72.1006 116.95 71.9122 117.147 71.8764C117.345 71.8405 117.533 71.984 117.569 72.1813C117.982 74.657 118.52 76.9981 119.049 78.819C119.578 80.6399 120.09 81.9046 120.421 82.2006L120.439 82.2096C120.601 82.3352 120.986 82.398 121.525 82.398C122.179 82.398 123.032 82.2993 124 82.1378Z" fill="#1B3C87"/>
<path d="M122.153 57.4261C121.947 57.3992 121.812 57.2108 121.839 57.0135C121.866 56.8161 122.054 56.6726 122.251 56.6995C122.404 56.7175 122.556 56.7534 122.718 56.7803C126.979 57.6683 130.907 62.2339 133.733 66.8354C136.549 71.4369 138.272 76.1461 138.119 77.2583L138.11 77.3211C137.967 78.0118 136.809 78.8011 135.141 79.5636C133.329 80.3888 130.862 81.2409 128.45 81.8957C128.252 81.9496 128.055 81.8329 128.001 81.6356C127.947 81.4383 128.064 81.2409 128.261 81.1871C130.629 80.5413 133.06 79.7071 134.836 78.8998C136.298 78.2271 137.303 77.6082 137.393 77.1776V77.1597C137.536 76.164 135.85 71.6971 133.114 67.2301C130.378 62.7631 126.602 58.35 122.583 57.5068C122.44 57.4709 122.296 57.444 122.153 57.4261Z" fill="#1B3C87"/>
<path fill-rule="evenodd" clip-rule="evenodd" d="M126.682 147.304L126.709 113.685L86.4707 113.425L86.3271 147.304H126.682Z" fill="#3C3744"/>
</svg>
