<svg width="150" height="150" viewBox="0 0 150 150" fill="none" xmlns="http://www.w3.org/2000/svg">
<path fill-rule="evenodd" clip-rule="evenodd" d="M120.201 17.593C134.207 28.7986 143.94 45.6451 142.984 61.2943C142.028 76.9082 130.346 91.3246 121.504 107.966C112.662 124.607 106.578 143.537 94.9312 148.386C83.2494 153.24 65.9704 144.013 49.3719 136.464C32.7734 128.88 16.8614 122.934 8.08401 111.182C-0.699274 99.4603 -2.40665 81.8917 3.36087 68.5377C9.13425 55.1778 22.3532 45.9856 34.6157 34.4689C46.9135 22.9522 58.2491 9.15205 73.0756 5.01378C87.9022 0.875511 106.161 6.38734 120.201 17.593Z" fill="#F0F0F0"/>
<path d="M21.7019 0.805071C21.8368 0.699413 21.9014 0.529186 21.8662 0.358959C21.7958 0.0361153 21.4085 -0.110632 21.1504 0.0948142L20.9802 0.229823L20.8159 0.364829L20.6517 0.505706L20.4874 0.652454L20.3231 0.799201L20.1647 0.945948L20.0063 1.09857L19.8537 1.25118L19.7012 1.40967L19.5486 1.56816L19.3961 1.73251L19.2494 1.89687L19.1027 2.0671L18.956 2.23732L18.8152 2.41342L18.6744 2.58952L18.5336 2.77148L18.3986 2.95345L18.2637 3.13542L18.1287 3.32325L17.9997 3.51109L17.8706 3.7048L17.7415 3.8985L17.6183 4.09808C17.5361 4.23309 17.454 4.36809 17.3719 4.5031L17.2545 4.70855L17.1372 4.91399L17.0198 5.12531L16.9083 5.33663L16.7969 5.54794L16.6854 5.76513L16.5739 5.98231L16.4683 6.20537L16.3627 6.42842L16.2629 6.65148L16.1632 6.8804L16.0635 7.10933L15.9696 7.33826L15.8757 7.57305L15.7818 7.80785L15.688 8.04264L15.6058 8.29505L15.5178 8.53571L15.4298 8.77638L15.3477 9.02292C15.2948 9.18727 15.2362 9.35163 15.1834 9.51598L15.1071 9.76839L15.0308 10.0208L14.9545 10.2732L14.8841 10.5256L14.8137 10.7839L14.7433 11.0422L14.6788 11.3004L14.6142 11.5646L14.5497 11.8287L14.491 12.0929L14.4324 12.357L14.3737 12.627L14.3209 12.897L14.2681 13.1671L14.2153 13.4371L14.1625 13.713L14.1155 13.9888L14.0686 14.2647L13.9806 14.8224L13.9395 15.1041L13.8984 15.3859L13.8632 15.6676L13.828 15.9494L13.7928 16.237L13.7635 16.5246L13.7342 16.8123L13.7048 17.0999L13.6813 17.3875L13.6579 17.681L13.6344 17.9745L13.6168 18.268L13.5992 18.5615L13.5816 18.855L13.5699 19.1485L13.5581 19.442L13.5523 19.7413L13.5405 20.3401L13.5347 20.6394V20.9388V21.2382V21.5375L13.5405 21.8427L13.5464 22.148L13.5523 22.4532L13.564 22.7585L13.5757 23.0637L13.5875 23.3689L13.6051 23.6742L13.6227 23.9794L13.6403 24.2846L13.6637 24.5957L13.6872 24.9068C13.7107 25.2179 13.74 25.5232 13.7694 25.8343L13.7987 26.1454L13.8339 26.4565L13.8691 26.7676L13.9043 27.0787L13.9395 27.3898L13.9806 27.7009L14.0217 28.012L14.0686 28.3231L14.1155 28.6342L14.1625 28.9453L14.2153 29.2564L14.2681 29.5675L14.3209 29.8786L14.3737 30.1897L14.4324 30.5008L14.5556 31.123L14.6201 31.4341L14.6847 31.7452L14.7492 32.0564L14.8196 32.3675L14.89 32.6786L14.9604 32.9897L15.0367 33.3008L15.113 33.6119L15.1951 33.923L15.2772 34.2341L15.3594 34.5452L15.4415 34.8563L15.5295 35.1674L15.6175 35.4785L15.7056 35.7837C15.7701 35.9892 15.8288 36.1946 15.8933 36.4001L15.9872 36.7053L16.0869 37.0105L16.1867 37.3158L16.2923 37.621L16.3979 37.9262L16.5035 38.2315L16.615 38.5367L16.7265 38.8361L16.8379 39.1354L16.9553 39.4348L17.0726 39.7342L17.19 40.0335L17.3132 40.3329L17.4364 40.6323L17.5596 40.9316C17.6476 41.1312 17.7298 41.3249 17.8178 41.5245L17.9468 41.818L18.0818 42.1115L18.2167 42.405L18.3517 42.6926L18.4925 42.9802L18.6333 43.2678L18.7741 43.5555L18.9208 43.8431L19.0675 44.1248L19.2142 44.4066L19.3667 44.6884L19.5193 44.9701L19.6718 45.2519L19.8302 45.5277L19.9887 45.8036L20.1529 46.0795L20.3172 46.3554L20.4815 46.6313L20.6517 46.9013L20.8218 47.1713L20.992 47.4413L21.168 47.7113L21.344 47.9755L21.52 48.2396L21.7019 48.5038L21.8838 48.7621L22.0657 49.0203L22.2534 49.2786L22.4412 49.5369L22.6348 49.7893L22.8284 50.0417L23.022 50.2941L23.2215 50.5465L23.421 50.793L23.6205 51.0396L23.8258 51.2861L24.0312 51.5268L24.2365 51.7674L24.4478 52.0081L24.659 52.2429L24.8702 52.4777L25.0873 52.7066L25.3044 52.9355L25.5273 53.1645L25.7503 53.3875L25.9733 53.6106L26.2021 53.8336L26.4309 54.0508L26.6597 54.268C26.8123 54.4089 26.9707 54.5556 27.1291 54.6965L27.3638 54.9078L27.6044 55.1133L27.8449 55.3187L28.0855 55.5242L28.3319 55.7237L28.5783 55.9233L28.8306 56.117L29.0829 56.3107L29.3352 56.5044L29.5934 56.6923L29.8515 56.8801L30.1097 57.0621L30.3737 57.244L30.6377 57.4201L30.9017 57.5962C31.0836 57.7136 31.2597 57.8252 31.4415 57.9367L31.7173 58.101L31.9931 58.2654L32.2688 58.4298L32.5504 58.5882L32.8321 58.7467L33.1137 58.8993L33.4012 59.052L33.6887 59.1987L33.9821 59.3396L34.2754 59.4805L34.5688 59.6155L34.868 59.7505L35.1672 59.8855L35.4665 60.0146L35.7716 60.1379C35.9769 60.2201 36.1823 60.3023 36.3818 60.3786L36.6927 60.496L37.0037 60.6075L37.3147 60.719L37.6315 60.8247L37.9483 60.9303L38.271 61.0301L38.5937 61.124L38.9164 61.218L39.245 61.306L39.5736 61.3941L39.908 61.4762L40.2424 61.5525L40.5769 61.6288L40.9172 61.6993C41.1636 61.7463 41.4041 61.7991 41.6506 61.8402L42.0437 61.9106L42.4309 61.981L42.8181 62.0456L43.1995 62.1043L43.5809 62.163L43.9623 62.2158L44.3378 62.2628L44.7133 62.3098L45.0829 62.3508L45.4525 62.3919L45.8163 62.4272L46.1801 62.4624L46.538 62.4917L46.8959 62.5152L47.2479 62.5387L47.6 62.5563L47.952 62.5739L48.2982 62.5856L48.6443 62.5974L48.9846 62.6032H49.3249H49.6652L49.9997 62.5974L50.3341 62.5915L50.6627 62.5798L50.9912 62.568L51.3198 62.5504L51.6425 62.5328L51.9652 62.5093L52.282 62.4859L52.5989 62.4565L52.9157 62.4272L53.2267 62.3919L53.5376 62.3567L53.8486 62.3156L54.1537 62.2745L54.4588 62.2276L54.7639 62.1806L55.0631 62.1337L55.3623 62.0808L55.6557 62.028L55.9491 61.9693L56.2424 61.9106L56.5299 61.846L56.8174 61.7815L57.1049 61.711C57.2927 61.6641 57.4804 61.6171 57.6682 61.5701L57.9498 61.4938L58.2256 61.4175L58.5013 61.3354L58.7771 61.2532L59.047 61.171L59.3169 61.083L59.5868 60.9949L59.8508 60.901L60.1148 60.8071L60.3788 60.7131L60.637 60.6134L60.8952 60.5136L61.1533 60.4138L61.4115 60.3081L61.6638 60.2025L61.9161 60.0968L62.1684 59.9853L62.4207 59.8737C62.5849 59.7974 62.7492 59.7211 62.9135 59.6448L63.1599 59.5274L63.4063 59.41L63.6469 59.2868L63.8875 59.1635L64.128 59.0402L64.3627 58.9111L64.5974 58.7819L64.8321 58.6528L65.0668 58.5237L65.2956 58.3887L65.5244 58.2537L65.7533 58.1187L65.9821 57.9836L66.205 57.8428L66.428 57.7019L66.6509 57.561L66.8739 57.4201L67.0969 57.2793L67.5369 56.9858L67.754 56.839L67.9711 56.6923L68.1882 56.5397L68.4053 56.387L68.6165 56.2344L68.8277 56.0818L69.0389 55.9292L69.4555 55.6181C74.8827 51.5033 79.336 46.3202 84.7397 42.2406L85.1211 41.9589L85.3147 41.818L85.5083 41.6771L85.7019 41.5421L85.8956 41.4071L86.0892 41.2721L86.2828 41.1371L86.4764 41.0079L86.67 40.8788L86.8695 40.7497L87.069 40.6205L87.2685 40.4972L87.468 40.374L87.6675 40.2507L87.867 40.1333L88.2718 39.8985L88.4771 39.787L88.6825 39.6755L88.8879 39.5639L89.0932 39.4583L89.2986 39.3526L89.5098 39.247L89.721 39.1413L89.9322 39.0415L90.1434 38.9417L90.3547 38.8419L90.5718 38.748L90.7888 38.6541L91.0059 38.5602L91.223 38.4721L91.4401 38.3841L91.6631 38.3019L91.886 38.2197L92.109 38.1376L92.3319 38.0612L92.5549 37.9849C92.7074 37.938 92.8541 37.8852 93.0067 37.8382L93.2355 37.7677L93.4643 37.7032L93.6931 37.6386L93.9278 37.5799L94.1625 37.5212L94.3972 37.4625L94.6378 37.4097L94.8783 37.3569L95.1189 37.3099L95.3594 37.2629L95.6059 37.216L95.8523 37.1749L96.0987 37.1338L96.3451 37.0986L96.5974 37.0634L96.8497 37.034L97.102 37.0047L97.3543 36.9812L97.6125 36.9577L97.8706 36.9401L98.1288 36.9225L98.3928 36.9107L98.6568 36.899L98.9209 36.8931L99.1908 36.8873H99.4606H99.7305L100.006 36.8931L100.282 36.899L100.558 36.9107L100.839 36.9225L101.121 36.9401L101.403 36.9577L101.69 36.9812L101.978 37.0105L102.265 37.0399L102.559 37.0751L102.664 36.1829L102.928 36.2122L103.186 36.2475C103.357 36.2709 103.533 36.2944 103.703 36.3238L103.961 36.3648L104.213 36.4059L104.465 36.4529L104.718 36.4999L104.97 36.5468L105.222 36.5996L105.469 36.6525L105.715 36.7053L105.962 36.764L106.208 36.8227L106.449 36.8814L106.689 36.9401L106.93 37.0047L107.17 37.0692L107.405 37.1338L107.64 37.2042L107.874 37.2747L108.109 37.3451L108.338 37.4214L108.567 37.4977L108.795 37.574L109.024 37.6504L109.247 37.7325L109.47 37.8147L109.693 37.8969L109.916 37.9849L110.133 38.073L110.35 38.161L110.567 38.2491L110.784 38.343L110.996 38.4369L111.207 38.5308L111.418 38.6306L111.629 38.7304L111.835 38.8302L112.04 38.93L112.245 39.0356L112.445 39.1413L112.644 39.247L112.844 39.3526L113.043 39.4641L113.237 39.5757L113.431 39.6872C113.56 39.7635 113.689 39.8398 113.818 39.9161L114.011 40.0335L114.199 40.1509L114.387 40.2683L114.575 40.3916L114.762 40.5149L114.944 40.6381L115.126 40.7614L115.308 40.8905L115.484 41.0197L115.66 41.1488L115.836 41.2779L116.012 41.4129L116.182 41.548L116.352 41.683L116.523 41.818L116.687 41.953L116.851 42.0939L117.015 42.2347L117.18 42.3756L117.344 42.5165L117.502 42.6574L117.661 42.8041L117.819 42.9509L118.13 43.2444L118.283 43.397L118.435 43.5496L118.582 43.7022L118.729 43.8548L118.875 44.0074L119.016 44.1601L119.157 44.3185L119.298 44.477L119.439 44.6355L119.574 44.794L119.709 44.9525L119.843 45.1169L119.978 45.2812L120.108 45.4456L120.237 45.6099L120.366 45.7743L120.489 45.9386L120.612 46.1089L120.735 46.2791L120.859 46.4493L120.976 46.6195L121.093 46.7898L121.211 46.96L121.328 47.1302L121.551 47.4765L121.662 47.6526L121.768 47.8287L121.874 48.0048L121.979 48.1809L122.085 48.3629L122.185 48.5449L122.284 48.7268L122.384 48.9088L122.484 49.0908L122.578 49.2727L122.672 49.4547L122.765 49.6425L122.853 49.8304L122.941 50.0182L123.029 50.206L123.117 50.3939L123.2 50.5817L123.282 50.7696L123.364 50.9574L123.44 51.1511L123.516 51.3448L123.593 51.5385L123.669 51.7322L123.739 51.9259L123.81 52.1196L123.945 52.507L124.009 52.7007L124.074 52.8945L124.138 53.0882L124.197 53.2877L124.256 53.4873L124.314 53.6869L124.367 53.8865L124.42 54.086L124.473 54.2856L124.526 54.4852L124.573 54.6848L124.619 54.8843L124.666 55.0839L124.713 55.2835L124.754 55.4831L124.795 55.6885L124.837 55.894L124.872 56.0994L124.907 56.3049L124.942 56.5103L124.977 56.7158L125.007 56.9212L125.036 57.1266L125.059 57.3321L125.106 57.743L125.13 57.9484L125.147 58.1539L125.165 58.3593L125.183 58.5648L125.2 58.7702L125.212 58.9757L125.224 59.187L125.236 59.3983L125.241 59.6096L125.247 59.8209L125.253 60.0322L125.259 60.2436V60.4549V60.6662V60.8775L125.253 61.0888L125.247 61.3001L125.241 61.5115L125.23 61.7228L125.218 61.9341L125.206 62.1454L125.189 62.3567L125.171 62.568L125.153 62.7793C125.136 62.9907 125.112 63.202 125.089 63.4133L125.065 63.6246L125.036 63.8359L125.007 64.0472L124.977 64.2586L124.942 64.4699L124.907 64.6812L124.872 64.8925L124.837 65.1038L124.795 65.3151L124.754 65.5265L124.713 65.7378L124.666 65.9491L124.619 66.1604L124.573 66.3717L124.52 66.583L124.467 66.7943L124.414 67.0057L124.361 67.217L124.303 67.4283L124.244 67.6396L124.185 67.8509L124.121 68.0564L124.056 68.2618L123.921 68.6786L123.851 68.884L123.78 69.0895L123.704 69.2949L123.628 69.5004L123.552 69.7058L123.469 69.9113L123.387 70.1167L123.305 70.3222L123.223 70.5276L123.135 70.733L123.047 70.9385L122.959 71.1439L122.865 71.3435L122.771 71.5431L122.677 71.7427L122.578 71.9422L122.478 72.1418L122.378 72.3414L122.278 72.541L122.173 72.7405L122.067 72.9401L121.962 73.1397L121.85 73.3393L121.627 73.7326L121.51 73.9263L121.392 74.12L121.275 74.3137L121.152 74.5074L121.029 74.7011L120.905 74.8948L120.782 75.0885L120.653 75.2822L120.524 75.4759L120.389 75.6696L120.254 75.8575L120.119 76.0453L119.984 76.2331L119.843 76.421L119.703 76.6088L119.562 76.7966L119.415 76.9845L119.269 77.1723L119.122 77.3543L118.969 77.5362L118.817 77.7182L118.506 78.0821L118.347 78.2641L118.189 78.4461L118.025 78.628C117.966 78.6926 117.896 78.7337 117.813 78.7572C117.379 78.8687 117.062 78.3522 117.362 78.0234L117.52 77.8474L117.678 77.6713L117.831 77.4952L118.13 77.143L118.277 76.9669L118.424 76.7908L118.57 76.6088L118.711 76.4268L118.852 76.2449L118.993 76.0629L119.128 75.8809L119.263 75.699L119.398 75.517L119.527 75.335L119.656 75.1531L119.785 74.9652L119.914 74.7774L120.037 74.5896L120.16 74.4017L120.284 74.2139L120.401 74.0261L120.518 73.8382L120.636 73.6504L120.747 73.4625L120.859 73.2747C120.97 73.081 121.076 72.8932 121.181 72.6995L121.287 72.5058L121.392 72.312L121.492 72.1183L121.592 71.9246L121.692 71.7309L121.786 71.5372L121.879 71.3435L121.973 71.1498L122.061 70.9561L122.149 70.7624L122.237 70.5687L122.319 70.375L122.402 70.1754L122.484 69.9758L122.566 69.7763L122.642 69.5767L122.718 69.3771L122.795 69.1775L122.865 68.978L122.936 68.7784L123.006 68.5788L123.076 68.3792L123.141 68.1796L123.205 67.9801L123.27 67.7805L123.329 67.5809L123.387 67.3813L123.446 67.1818L123.499 66.9822L123.552 66.7826L123.604 66.583L123.657 66.3835L123.704 66.1839L123.751 65.9843L123.798 65.7847L123.839 65.5852L123.88 65.3797L123.921 65.1801L123.956 64.9747L123.992 64.7692L124.027 64.5697L124.062 64.3642L124.091 64.1588L124.121 63.9533L124.15 63.7479L124.174 63.5424L124.197 63.337C124.22 63.1315 124.244 62.932 124.262 62.7265L124.279 62.5211L124.297 62.3215L124.314 62.1161L124.326 61.9106L124.338 61.7052L124.344 61.5056L124.35 61.306L124.355 61.1064L124.361 60.9069L124.367 60.7073V60.5077V60.3081L124.361 60.1085L124.355 59.909L124.35 59.7094L124.344 59.5098L124.338 59.3102L124.326 59.1107L124.314 58.9111L124.297 58.7115L124.279 58.5119L124.262 58.3124L124.244 58.1128C124.22 57.9132 124.203 57.7136 124.179 57.5141L124.156 57.3145L124.127 57.1149L124.097 56.9153L124.068 56.7158L124.033 56.5162L123.998 56.3225L123.962 56.1288L123.927 55.9351L123.886 55.7414L123.845 55.5476L123.804 55.3539L123.757 55.1602L123.71 54.9665L123.663 54.7728L123.616 54.5791L123.563 54.3854L123.511 54.1917L123.458 53.998L123.405 53.8043L123.346 53.6106L123.288 53.4227L123.229 53.2349L123.17 53.0471L123.106 52.8592L122.977 52.4836L122.906 52.2957L122.836 52.1079L122.765 51.92L122.695 51.7381L122.619 51.5561L122.542 51.3742L122.466 51.1922L122.384 51.0102L122.302 50.8283L122.22 50.6463L122.138 50.4643L122.05 50.2824L121.962 50.1063L121.874 49.9302L121.786 49.7541L121.692 49.578L121.598 49.4019L121.504 49.2258L121.41 49.0497L121.31 48.8795L121.211 48.7092L121.111 48.539L121.005 48.3688L120.9 48.1985L120.794 48.0283L120.577 47.6937L120.465 47.5294L120.354 47.365L120.242 47.2007L120.125 47.0363L120.008 46.8719L119.89 46.7076L119.773 46.5432L119.65 46.3848L119.527 46.2263L119.403 46.0678L119.274 45.9093L119.145 45.7508L119.016 45.5923L118.887 45.4397L118.752 45.2871L118.617 45.1345L118.482 44.9818L118.347 44.8292L118.207 44.6825L118.066 44.5357L117.925 44.389L117.784 44.2422L117.637 44.0955L117.491 43.9546L117.191 43.6729L117.039 43.532L116.886 43.3911L116.734 43.2561L116.581 43.1211L116.423 42.9861L116.264 42.8511L116.106 42.7161L115.948 42.5811L115.783 42.4519L115.619 42.3228L115.455 42.1936L115.291 42.0645L115.12 41.9412L114.95 41.818L114.78 41.6947L114.61 41.5714L114.434 41.4482L114.258 41.3308L114.082 41.2134L113.9 41.096L113.718 40.9786L113.536 40.8671L113.354 40.7555L112.985 40.5325L112.797 40.4268L112.609 40.3212L112.416 40.2155L112.222 40.1098L112.028 40.0101L111.835 39.9103L111.635 39.8105L111.436 39.7107L111.236 39.6168L111.037 39.5229L110.831 39.4289L110.626 39.335L110.421 39.247L110.215 39.1589L110.004 39.0709L109.793 38.9828L109.582 38.9006L109.37 38.8185L109.153 38.7363L108.936 38.66L108.719 38.5837C108.496 38.5074 108.279 38.431 108.056 38.3606L107.833 38.2902L107.61 38.2197L107.381 38.1493L107.153 38.0847L106.924 38.0202L106.695 37.9556L106.46 37.8969L106.226 37.8382L105.991 37.7795L105.756 37.7208L105.516 37.668L105.275 37.6151L105.035 37.5623L104.794 37.5153L104.548 37.4684L104.301 37.4214L104.055 37.3803L103.808 37.3392L103.556 37.2982C103.386 37.2747 103.222 37.2512 103.051 37.2277L102.799 37.1925L102.547 37.1632L102.652 36.2709L102.347 36.2357L102.048 36.2064L101.749 36.177L101.456 36.1535L101.162 36.1301L100.869 36.1124L100.581 36.0948L100.294 36.0831L100.006 36.0772L99.7247 36.0714H99.443H99.1614L98.8798 36.0772L98.604 36.0831L98.3283 36.0948L98.0525 36.1066L97.7826 36.1242L97.5127 36.1418L97.2428 36.1653L96.9788 36.1888L96.7148 36.2181L96.4507 36.2475L96.1926 36.2827L95.9344 36.3179L95.6763 36.359L95.4181 36.4001L95.1658 36.447L94.9135 36.494L94.6612 36.5468L94.4089 36.5996L94.1625 36.6583L93.9161 36.717L93.6697 36.7757L93.4291 36.8403L93.1886 36.9049L92.948 36.9753L92.7074 37.0458C92.549 37.0927 92.3965 37.1455 92.2322 37.1984L91.9975 37.2747L91.7628 37.3569L91.534 37.439L91.3052 37.5271L91.0763 37.6151L90.8475 37.7032L90.6187 37.7971L90.3957 37.891L90.1728 37.9908L89.9498 38.0906L89.7269 38.1904L89.5039 38.296L89.2868 38.4017L89.0697 38.5074L88.8527 38.613L88.6356 38.7245L88.4185 38.8361L88.2073 38.9535L87.996 39.0709L87.7848 39.1883L87.3682 39.4289L87.1629 39.5522L86.9575 39.6755L86.7522 39.8046L86.5468 39.9337L86.3415 40.0629L86.1361 40.192L85.9366 40.327L85.7371 40.462L85.5377 40.597L85.3382 40.732L85.1387 40.8729L84.9392 41.0138L84.7397 41.1547L84.5461 41.2956L84.3525 41.4364L84.1588 41.5832C78.7492 45.6628 74.3018 50.8517 68.8746 54.9665L68.6693 55.1191L68.4639 55.2718L68.2586 55.4244L68.0532 55.577L67.842 55.7237L67.6308 55.8705L67.4196 56.0172L67.2083 56.164L66.9971 56.3049L66.5688 56.5866L66.3517 56.7275L66.1346 56.8684L65.9175 57.0034L65.7005 57.1384L65.4775 57.2734L65.2545 57.4084L65.0316 57.5434L64.8086 57.6725L64.5857 57.8017L64.3568 57.9308L64.128 58.06L63.8992 58.1832L63.6704 58.3065L63.4357 58.4298L63.201 58.5472L62.9663 58.6646L62.7316 58.7819L62.4911 58.8935C62.3326 58.9698 62.1742 59.0402 62.0099 59.1165L61.7694 59.2222L61.523 59.3279L61.2765 59.4335L61.0301 59.5392L60.7837 59.639L60.5314 59.7387L60.2791 59.8385L60.0268 59.9324L59.7745 60.0264L59.5164 60.1203L59.2582 60.2083L59 60.2964L58.736 60.3786L58.472 60.4607L58.208 60.5429L57.9381 60.6192L57.6682 60.6955L57.3983 60.766C57.2164 60.8129 57.0345 60.8599 56.8526 60.9069L56.5769 60.9714L56.2952 61.036L56.0136 61.0947L55.732 61.1534L55.4445 61.2062L55.157 61.259L54.8695 61.3119L54.5761 61.3588L54.2828 61.4058L53.9894 61.4469L53.6902 61.488L53.3909 61.5232L53.0917 61.5584L52.7866 61.5936L52.4815 61.623L52.1706 61.6465L51.8596 61.6699L51.5486 61.6934L51.2318 61.711L50.915 61.7286L50.5923 61.7404L50.2696 61.7521L49.9469 61.758L49.6183 61.7639H49.2897L48.9553 61.758L48.6209 61.7521L48.2806 61.7404L47.9403 61.7286L47.6 61.711L47.2538 61.6934L46.9076 61.6699L46.5556 61.6465L46.2036 61.6171L45.8515 61.5878L45.4936 61.5525L45.1298 61.5115L44.7661 61.4704L44.4023 61.4234L44.0327 61.3764L43.663 61.3236L43.2875 61.2708L42.912 61.2121L42.5307 61.1475L42.1493 61.083L41.762 61.0125C41.5215 60.9656 41.2809 60.9186 41.0462 60.8716L40.7177 60.8012L40.395 60.7249L40.0723 60.6486L39.7496 60.5664L39.4327 60.4842L39.1159 60.3962L38.7991 60.3081L38.4881 60.2142L38.1771 60.1144L37.8662 60.0146L37.5611 59.909L37.256 59.8033L36.9509 59.6918L36.6517 59.5803C36.4522 59.5039 36.2527 59.4276 36.0591 59.3455L35.7657 59.2222L35.4723 59.0989L35.1848 58.9698L34.8973 58.8406L34.6099 58.7056L34.3282 58.5706L34.0466 58.4298L33.765 58.2889L33.4892 58.1421L33.2134 57.9954L32.9377 57.8428L32.6678 57.6902L32.3979 57.5317L32.1339 57.3732L31.8698 57.2088C31.6938 57.0973 31.5178 56.9858 31.3477 56.8742L31.0895 56.704L30.8313 56.5338L30.5791 56.3577L30.3268 56.1816L30.0745 55.9996L29.828 55.8177L29.5816 55.6298L29.3352 55.442L29.0946 55.2542L28.8541 55.0604L28.6135 54.8667L28.3788 54.6672L28.1441 54.4676L27.9094 54.268L27.6806 54.0626C27.5281 53.9276 27.3755 53.7867 27.223 53.6458L27 53.4345L26.7771 53.2232L26.5541 53.006L26.337 52.7888L26.1199 52.5657L25.9087 52.3427L25.6975 52.1196L25.4863 51.8966L25.2809 51.6676L25.0756 51.4387L24.8702 51.2098L24.6707 50.975L24.4712 50.7402L24.2717 50.5054L24.0781 50.2647C23.949 50.1004 23.82 49.9419 23.6909 49.7775L23.5031 49.531L23.3154 49.2845L23.1276 49.0379L22.9457 48.7855L22.7639 48.5331L22.582 48.2807L22.406 48.0283L22.2299 47.77L22.0539 47.5118L21.8838 47.2535L21.7136 46.9893L21.5435 46.7252L21.3792 46.4611L21.2149 46.1969L21.0506 45.9269L20.8922 45.6569L20.7338 45.3869L20.5754 45.1169L20.4228 44.841L20.2703 44.5651L20.1177 44.2892L19.971 44.0133L19.8244 43.7374L19.6777 43.4557L19.5369 43.1739L19.3961 42.8922L19.2552 42.6104L19.1203 42.3287L18.9854 42.0469L18.8504 41.7593L18.7213 41.4716L18.5922 41.184C18.5101 40.9903 18.4221 40.7966 18.34 40.6029L18.2167 40.3153L18.0935 40.0218L17.9762 39.7283L17.8588 39.4348L17.7415 39.1413L17.63 38.8478L17.5185 38.5543L17.4071 38.2608L17.3014 37.9615L17.1958 37.6621L17.0902 37.3627L16.9905 37.0634L16.8907 36.764L16.791 36.4646L16.6971 36.1653C16.6326 35.9657 16.5739 35.7661 16.5152 35.5607L16.4272 35.2554L16.3392 34.9502L16.2512 34.645L16.1691 34.3397L16.0869 34.0345L16.0048 33.7293L15.9285 33.424L15.8522 33.1188L15.776 32.8136L15.7056 32.5083L15.6351 32.2031L15.5647 31.8979L15.5002 31.5926L15.4357 31.2874L15.3711 30.9822L15.2538 30.3658L15.1951 30.0606L15.1423 29.7554L15.0895 29.4501L15.0367 29.1449L14.9897 28.8397L14.9428 28.5344L14.8959 28.2292L14.8548 27.924L14.8137 27.6187L14.7727 27.3135L14.7375 27.0082L14.7023 26.703L14.667 26.3978L14.6377 26.0925L14.6084 25.7873C14.579 25.4821 14.5556 25.1827 14.5321 24.8775L14.5086 24.5722L14.4852 24.267L14.4676 23.9618L14.45 23.6624L14.4324 23.3631L14.4206 23.0637L14.4089 22.7643L14.403 22.465L14.3972 22.1656L14.3913 21.8662L14.3854 21.5669V21.2734V20.9799V20.6864L14.3913 20.3929L14.403 19.8059L14.4148 19.5124L14.4265 19.2189L14.4382 18.9313L14.4558 18.6437L14.4734 18.356L14.491 18.0684L14.5145 17.7808L14.538 17.499L14.5614 17.2173L14.5908 16.9355L14.6201 16.6538L14.6494 16.372L14.6788 16.0903L14.714 15.8144L14.7492 15.5385L14.7844 15.2626L14.8255 14.9867L14.9076 14.4408L14.9545 14.1708L15.0015 13.9008L15.0484 13.6366L15.1012 13.3725L15.154 13.1084L15.2068 12.8442L15.2655 12.5859L15.3242 12.3277L15.3829 12.0694L15.4415 11.8111L15.5061 11.5587L15.5706 11.3063L15.6351 11.0539L15.7056 10.8015L15.776 10.555L15.8464 10.3084L15.9226 10.0619L15.9989 9.82122C16.0517 9.66273 16.1045 9.50424 16.1573 9.33989L16.2395 9.10509L16.3216 8.8703L16.4038 8.6355L16.4918 8.40658L16.5798 8.17765L16.6678 7.94873L16.7617 7.72567L16.8555 7.50261L16.9494 7.27956L17.0433 7.06237L17.143 6.84519L17.2428 6.63387L17.3425 6.42255L17.4481 6.21124L17.5537 6.00579L17.6593 5.80035L17.7708 5.5949L17.8823 5.39532L17.9938 5.19575L18.1053 5.00204C18.1815 4.8729 18.2578 4.74377 18.34 4.6205L18.4573 4.43266L18.5805 4.24483L18.7037 4.06286L18.8269 3.88089L18.9501 3.7048L19.0792 3.5287L19.2083 3.3526L19.3374 3.18238L19.4723 3.01215L19.6073 2.84779L19.7422 2.68344L19.883 2.52495L20.0239 2.36646L20.1647 2.21384L20.3055 2.06123L20.4522 1.91448L20.5988 1.76773L20.7455 1.62686L20.8922 1.48598L21.0448 1.35097L21.1973 1.21596L21.3499 1.08683L21.5083 0.957688L21.7019 0.805071Z" fill="white"/>
<path fill-rule="evenodd" clip-rule="evenodd" d="M52.0181 76.2156C50.3752 75.5875 42.1728 68.9662 41.5333 67.9214C40.8938 66.8766 36.6517 60.2377 36.6517 60.2377L43.7981 54.7905C43.7981 54.7905 50.2344 60.5782 51.49 61.7463C52.7398 62.9144 57.5861 64.7751 58.1083 64.7693C58.6305 64.7634 52.0181 76.2156 52.0181 76.2156Z" fill="white"/>
<path d="M50.3342 73.9791C50.5278 74.0906 50.5923 74.3372 50.4809 74.5309C50.3694 74.7246 50.123 74.7892 49.9293 74.6776C49.4717 74.4135 47.6998 73.0047 45.7929 71.4374C43.3463 69.4358 40.6473 67.1524 40.2014 66.7063C39.8025 66.3072 38.8578 64.9277 37.9367 63.4779C36.9627 61.94 36.0005 60.3081 35.7306 59.6742C35.6426 59.4687 35.7423 59.234 35.9477 59.1459C36.153 59.0579 36.3877 59.1576 36.4757 59.3631C36.7221 59.9501 37.6609 61.5349 38.6173 63.0494C39.515 64.4582 40.4126 65.7906 40.7706 66.1428C41.1989 66.5713 43.8685 68.8253 46.3034 70.8211C48.1985 72.3649 49.9293 73.7502 50.3342 73.9791Z" fill="#1B3C87"/>
<path fill-rule="evenodd" clip-rule="evenodd" d="M104.096 120.328C102.412 121.073 72.2601 127.994 67.0265 128.058C68.2293 134.809 72.706 148.016 73.0228 149.354C75.6983 148.703 108.314 136.429 109.523 135.625C108.526 133.693 104.647 124.255 104.096 120.328Z" fill="#3B3744"/>
<path fill-rule="evenodd" clip-rule="evenodd" d="M12.0151 45.2636L68.8864 14.4995C74.742 11.3298 82.0584 13.5134 85.2267 19.3715C88.3951 25.2297 86.2124 32.5494 80.3569 35.7192L23.4856 66.4832C17.6301 69.653 10.3136 67.4694 7.14528 61.6112C3.97696 55.7472 6.15958 48.4275 12.0151 45.2636Z" fill="#EEF5FF"/>
<path d="M42.6069 46.1382C43.1174 46.3026 43.399 46.8543 43.2347 47.365C43.0704 47.8757 42.5189 48.1633 42.0085 47.9931L35.8772 46.0208C35.3667 45.8565 35.0851 45.3047 35.2494 44.794L37.2208 38.6541C37.3851 38.1434 37.9366 37.8617 38.447 38.026C38.9575 38.1904 39.2391 38.7422 39.0748 39.2528L37.4027 44.4594L42.6069 46.1382Z" fill="#FDB400"/>
<path d="M52.2234 32.4966C51.713 32.3322 51.4313 31.7805 51.5897 31.2698C51.754 30.7591 52.3056 30.4774 52.816 30.6417L58.9473 32.614C59.4577 32.7784 59.7394 33.3301 59.5751 33.8408L57.6154 39.9748C57.4511 40.4855 56.8996 40.7732 56.3892 40.6088C55.8787 40.4444 55.5971 39.8927 55.7614 39.382L57.4335 34.1754L52.2234 32.4966Z" fill="#FDB400"/>
<path d="M42.9178 31.2346C42.7888 30.7122 43.1115 30.1839 43.6337 30.0606C44.1558 29.9315 44.6839 30.2543 44.8071 30.7767L49.2193 49.0262C49.3484 49.5486 49.0257 50.0769 48.5035 50.2061C47.9813 50.3352 47.4532 50.0124 47.33 49.4899L42.9178 31.2346Z" fill="#FDB400"/>
<path fill-rule="evenodd" clip-rule="evenodd" d="M38.3826 31.6572C37.2384 29.1625 30.0804 31.7922 27.0294 34.3339C27.8802 37.1221 28.7368 39.5757 29.2296 40.1333C29.834 40.192 38.7581 35.6781 38.3826 31.6572Z" fill="white"/>
<path fill-rule="evenodd" clip-rule="evenodd" d="M70.846 69.5474C66.5864 66.1135 60.7191 63.8125 59.0235 63.1081C57.7914 63.6423 56.2014 66.4598 54.805 69.6589C52.3055 74.3548 51.5193 80.0603 51.5193 80.0603C55.3917 82.467 63.4181 84.0049 64.838 84.0049C66.2578 84.0049 70.846 69.5474 70.846 69.5474Z" fill="#3C50E0"/>
<path fill-rule="evenodd" clip-rule="evenodd" d="M78.714 65.9432C93.6931 62.3509 100.534 105.266 103.785 120.181C100.599 122.552 72.3421 129.673 66.7154 127.906C56.3539 100.587 52.7572 72.1712 78.714 65.9432Z" fill="#3C50E0"/>
<path d="M77.4291 64.0648C87.8904 61.5525 94.4089 80.6179 98.5453 97.8754C99.8596 103.346 100.933 108.635 101.813 112.979C102.236 115.062 102.617 116.929 102.981 118.602C103.016 118.772 102.94 118.942 102.799 119.025C100.892 120.398 91.135 123.251 81.9645 125.159C74.7888 126.655 67.9359 127.577 65.4071 126.785C65.2839 126.744 65.19 126.65 65.1489 126.532C59.9505 112.832 56.4478 98.8439 57.5039 87.4798C58.5717 76.0159 64.2512 67.2228 77.4291 64.0648ZM97.7767 98.0574C93.7283 81.1579 87.421 62.4741 77.611 64.8279C64.8321 67.892 59.3286 76.4268 58.2901 87.5503C57.2516 98.7265 60.6957 112.527 65.8237 126.074C68.3524 126.726 74.9062 125.816 81.8002 124.378C90.6187 122.541 99.9418 119.858 102.148 118.502C101.831 117.035 101.456 115.186 101.039 113.131C100.159 108.799 99.091 103.516 97.7767 98.0574Z" fill="#1B3C87"/>
<path fill-rule="evenodd" clip-rule="evenodd" d="M86.7815 92.7392C85.9953 93.878 78.8255 101.967 77.6873 102.536C76.549 103.105 72.043 103.029 71.1746 102.536C66.1053 99.6481 49.7533 74.2374 48.5739 71.8366C47.3946 69.4299 45.6872 66.0195 44.1618 64.7516C43.9153 62.885 45.2531 60.4431 42.8768 57.4847C43.311 55.4009 42.1024 46.1969 49.0022 49.9008C50.8211 50.8928 53.3147 54.7904 52.9685 57.9954C52.6223 61.2062 52.2058 64.8455 52.8981 66.3424C53.5904 67.8392 72.3305 87.7968 72.8116 88.0375C73.41 87.2568 75.7863 84.134 75.7863 84.134L86.7815 92.7392Z" fill="white"/>
<path fill-rule="evenodd" clip-rule="evenodd" d="M93.8105 71.3729C101.057 77.1195 92.244 90.4383 88.9818 94.0952C87.4915 94.1598 74.5131 86.5172 73.8501 83.3827C75.7276 80.5827 85.7313 64.9688 93.8105 71.3729Z" fill="#3C50E0"/>
<path d="M53.9131 79.5144C54.1185 79.5966 54.2241 79.8314 54.1419 80.0427C54.0598 80.254 53.8251 80.3538 53.6139 80.2716C53.0448 80.0486 52.4756 79.7903 51.9124 79.5144C51.355 79.2385 50.8035 78.9392 50.2695 78.6163C50.1757 78.5576 50.1111 78.4637 50.0818 78.3639C50.0231 78.135 50.0349 77.7887 50.1229 77.2956C50.205 76.8495 50.3517 76.2566 50.5746 75.4935C50.6333 75.2764 50.8621 75.1531 51.0734 75.2177C51.2904 75.2822 51.4137 75.5053 51.3491 75.7166C51.132 76.4562 50.9971 77.0197 50.9208 77.4365C50.8739 77.6948 50.8504 77.8826 50.8563 78.0176C51.3139 78.2876 51.7892 78.5459 52.2761 78.7866C52.8042 79.0507 53.3499 79.2972 53.9131 79.5144Z" fill="#1B3C87"/>
<path d="M54.2534 67.716C54.1654 67.9155 53.9307 68.0095 53.7313 67.9214C53.5318 67.8334 53.4379 67.6044 53.5259 67.399C54.2769 65.685 55.0397 64.1647 55.7848 63.0318C56.4713 61.9811 57.1577 61.2415 57.8149 60.9597C57.9146 60.9128 58.0261 60.9186 58.12 60.9538L58.6598 61.171C60.813 62.0398 65.8471 64.0708 69.7723 67.2346C69.9425 67.3696 69.9718 67.622 69.831 67.7923C69.6961 67.9625 69.4438 67.986 69.2736 67.851C65.4364 64.7634 60.4845 62.7618 58.3605 61.9048L57.985 61.7521C57.5156 62.0222 56.9993 62.6209 56.4419 63.4662C55.732 64.5638 54.9869 66.043 54.2534 67.716Z" fill="#1B3C87"/>
<path d="M63.9697 77.8826C64.1281 78.041 64.1222 78.2993 63.9638 78.4519C63.8054 78.6104 63.5473 78.6046 63.3947 78.4461C60.8424 75.8516 58.1142 73.0106 55.914 70.5452C53.6844 68.0446 51.9712 65.9021 51.4724 64.7105C51.1087 63.8946 51.0676 60.9186 51.3082 58.0599C51.5194 55.6063 51.9359 53.1997 52.5285 52.2722C52.6518 52.0844 52.8982 52.0316 53.0859 52.149C53.2737 52.2722 53.3265 52.5188 53.2091 52.7066C52.6928 53.5167 52.3115 55.7824 52.112 58.1245C51.8773 60.8834 51.889 63.7068 52.2058 64.3759L52.2176 64.3936C52.6811 65.4912 54.3415 67.5633 56.5124 70.0052C58.7244 72.4764 61.435 75.2998 63.9697 77.8826Z" fill="#1B3C87"/>
<path d="M73.5684 83.3005C73.721 83.1361 73.9791 83.1302 74.1434 83.2829C74.3077 83.4355 74.3136 83.6938 74.1552 83.8581C73.6388 84.3981 73.1577 85.0614 72.7118 85.666C72.5006 85.9537 72.3011 86.2296 72.0899 86.4996C71.9549 86.6757 71.6968 86.705 71.5208 86.57C71.4973 86.5524 71.4797 86.5348 71.4621 86.5172C71.3271 86.3646 70.6289 85.6719 69.5728 84.6212L68.8218 83.8757C68.6634 83.7172 68.6634 83.459 68.8218 83.3063C68.9802 83.1479 69.2384 83.1479 69.3968 83.3063L70.1478 84.0518C70.8519 84.7503 71.4034 85.2962 71.7378 85.6308C71.8435 85.4899 71.9491 85.3432 72.0605 85.1906C72.5182 84.5625 73.0169 83.8816 73.5684 83.3005Z" fill="#1B3C87"/>
<path d="M77.7284 99.2724C77.8868 99.1198 78.1449 99.1198 78.3033 99.2783C78.4618 99.4368 78.4559 99.6951 78.2975 99.8477C77.9631 100.176 77.6638 100.452 77.4233 100.658C77.1768 100.869 76.9715 101.016 76.8248 101.092C76.2146 101.397 74.8123 101.538 73.4335 101.538C71.9491 101.538 70.4412 101.374 69.9308 101.086C68.0063 99.9944 64.574 95.8327 60.9363 90.902C54.7404 82.4904 47.9168 71.7427 47.1658 70.2165C46.5791 69.0249 45.8633 67.5809 45.1005 66.2719C44.3554 64.9982 43.5751 63.8653 42.8534 63.2665C42.6832 63.1257 42.6598 62.8674 42.8006 62.6972C42.9414 62.5269 43.1996 62.5035 43.3697 62.6443C44.1794 63.3135 45.0125 64.5227 45.7987 65.8669C46.5615 67.1818 47.2949 68.6492 47.8875 69.8584C48.6268 71.367 55.4093 82.0326 61.5875 90.4265C65.1607 95.2809 68.5168 99.3605 70.3239 100.388C70.7111 100.611 72.0547 100.734 73.4218 100.734C74.7009 100.734 75.9682 100.623 76.4552 100.376C76.5373 100.335 76.6899 100.218 76.8893 100.047C77.124 99.8536 77.4057 99.5894 77.7284 99.2724Z" fill="#1B3C87"/>
<path d="M84.9451 91.3011C85.0742 91.1192 85.3206 91.0722 85.5084 91.1955C85.6961 91.3188 85.7372 91.5712 85.614 91.759C85.4849 91.941 85.215 92.2814 84.8336 92.7334C84.4464 93.1913 83.9594 93.7606 83.4196 94.3711C83.273 94.5355 83.0148 94.5531 82.8505 94.4063C82.6862 94.2596 82.6686 94.0013 82.8153 93.8369C83.3668 93.2147 83.8479 92.6571 84.2176 92.2168C84.5696 91.7883 84.8278 91.4714 84.9451 91.3011Z" fill="#1B3C87"/>
<path d="M50.3928 56.6218C50.4046 56.8449 50.2344 57.0386 50.0115 57.0503C49.7885 57.0621 49.5949 56.8918 49.5831 56.6688C49.5069 55.3598 49.061 53.2643 48.486 51.4035C47.9814 49.7599 47.3947 48.3159 46.9018 47.8111C46.7434 47.6526 46.7493 47.3944 46.9077 47.2417C47.0661 47.0891 47.3242 47.0891 47.4827 47.2476C48.0694 47.8522 48.7265 49.4136 49.2604 51.1687C49.853 53.0823 50.3107 55.2541 50.3928 56.6218Z" fill="#1B3C87"/>
<path d="M47.8053 56.5514C47.8581 56.7686 47.7232 56.9858 47.5061 57.0386C47.289 57.0914 47.0719 56.9564 47.0191 56.7392C46.7786 55.759 46.1038 53.5167 45.2472 51.3213C44.684 49.8715 44.0386 48.451 43.3932 47.4531C43.2758 47.2652 43.3286 47.0128 43.5164 46.8954C43.7041 46.7722 43.9564 46.8309 44.0738 47.0187C44.7485 48.0694 45.4174 49.5428 45.9982 51.0337C46.8724 53.2466 47.5648 55.5418 47.8053 56.5514Z" fill="#1B3C87"/>
<path d="M45.6109 57.8604C45.6285 58.0834 45.4643 58.2771 45.2413 58.2948C45.0183 58.3124 44.8247 58.148 44.8013 57.925C44.7602 57.4612 44.3143 56.1229 43.7569 54.8491C43.3286 53.8747 42.8475 52.9532 42.4485 52.5423C42.2959 52.3838 42.3018 52.1255 42.4602 51.9729C42.6186 51.8203 42.8768 51.8203 43.0293 51.9846C43.4987 52.4718 44.0326 53.4756 44.4962 54.5263C45.0946 55.8764 45.5699 57.3262 45.6109 57.8604Z" fill="#1B3C87"/>
<path d="M43.9154 59.6155C43.9564 59.8385 43.8156 60.0498 43.5985 60.0909C43.3815 60.1379 43.1644 59.9911 43.1233 59.774C43.0294 59.2985 42.6598 58.3769 42.2021 57.5023C41.8266 56.7862 41.4042 56.1111 41.0404 55.7589C40.882 55.6063 40.8761 55.3481 41.0287 55.1896C41.1812 55.0311 41.4394 55.0252 41.6037 55.1778C42.032 55.5946 42.5131 56.3459 42.9238 57.1325C43.4049 58.0717 43.8098 59.0813 43.9154 59.6155Z" fill="#1B3C87"/>
<path d="M108.385 133.817C108.479 134.016 108.391 134.251 108.191 134.339C107.992 134.433 107.757 134.345 107.669 134.145C107.211 133.159 105.574 128.998 104.196 125.112C103.292 122.564 102.494 120.128 102.212 118.766C102.165 118.555 102.306 118.344 102.518 118.297C102.729 118.25 102.94 118.391 102.987 118.602C103.263 119.923 104.049 122.324 104.947 124.848C106.314 128.716 107.933 132.842 108.385 133.817Z" fill="#1B3C87"/>
<path d="M87.8025 140.931C87.9726 141.066 87.9961 141.318 87.8612 141.489C87.7262 141.659 87.4739 141.682 87.3038 141.547C86.7699 141.113 85.614 139.763 84.3056 138.137C82.5513 135.959 80.5212 133.288 79.3771 131.721C79.248 131.545 79.2891 131.299 79.4651 131.169C79.6411 131.04 79.8876 131.081 80.0167 131.257C81.1549 132.825 83.1791 135.484 84.9217 137.644C86.2007 139.229 87.3214 140.538 87.8025 140.931Z" fill="#1B3C87"/>
<path d="M71.8846 147.546C71.9727 147.746 71.8846 147.981 71.6852 148.069C71.4857 148.157 71.251 148.069 71.163 147.869C70.7699 147 69.1094 141.553 67.625 136.282C66.4633 132.161 65.4072 128.141 65.1373 126.473C65.1021 126.256 65.2488 126.057 65.4659 126.022C65.683 125.986 65.8824 126.133 65.9176 126.35C66.1817 127.982 67.2319 131.974 68.3878 136.071C69.8604 141.313 71.5033 146.707 71.8846 147.546Z" fill="#1B3C87"/>
<path d="M56.2953 62.9026C56.5006 62.9907 56.5945 63.2313 56.5006 63.4368C56.4126 63.6422 56.172 63.7362 55.9667 63.6422C55.6264 63.4896 55.2274 63.3077 54.7991 63.1081C53.5729 62.5328 52.065 61.8343 51.4782 61.7169C51.2612 61.67 51.1203 61.4586 51.1614 61.2415C51.2084 61.0243 51.4196 60.8834 51.6367 60.9245C52.329 61.0654 53.8779 61.7874 55.1394 62.3743C55.5853 62.5798 55.996 62.7676 56.2953 62.9026Z" fill="#1B3C87"/>
<path fill-rule="evenodd" clip-rule="evenodd" d="M25.5685 65.3504L35.2495 73.2806L33.9176 60.8306L25.5685 65.3504Z" fill="#EEF5FF"/>
<path d="M36.8102 29.3269C36.9627 29.4912 36.9569 29.7436 36.7926 29.8962C36.6283 30.0489 36.376 30.043 36.2176 29.8786C36.0533 29.7025 35.4079 29.3679 34.7684 29.3093C34.5044 29.2858 34.2521 29.3151 34.0584 29.4384C33.8766 29.5558 33.7299 29.773 33.6653 30.131C33.5011 31.0467 33.8238 32.702 35.1087 35.5607C35.1967 35.7661 35.1087 36.0009 34.9033 36.0948C34.698 36.1829 34.4633 36.0948 34.3694 35.8894C33.0141 32.8605 32.6796 31.0409 32.8674 29.9843C32.9789 29.3679 33.2546 28.9805 33.6243 28.7516C33.9822 28.5286 34.4105 28.464 34.8329 28.5051C35.6837 28.5814 36.5638 29.0686 36.8102 29.3269Z" fill="#1B3C87"/>
<path d="M33.055 30.5889C33.2076 30.7474 33.2017 31.0056 33.0433 31.1583C32.8849 31.3109 32.6267 31.3109 32.4742 31.1465C32.304 30.9704 31.6586 30.63 31.0191 30.5771C30.7551 30.5537 30.5028 30.583 30.3092 30.7063C30.1273 30.8237 29.9865 31.0409 29.9219 31.4048C29.7635 32.3205 30.0862 33.9817 31.3653 36.8286C31.4533 37.034 31.3653 37.2688 31.1599 37.3627C30.9546 37.4566 30.7199 37.3627 30.626 37.1573C29.2707 34.1343 28.9362 32.3205 29.124 31.2639C29.2355 30.6476 29.5112 30.2543 29.8809 30.0195C30.2388 29.7906 30.6671 29.7319 31.0954 29.773C31.9285 29.8493 32.8145 30.3306 33.055 30.5889Z" fill="#1B3C87"/>
<path d="M28.6663 32.661C28.8306 32.8136 28.8424 33.066 28.6898 33.2303C28.5373 33.3947 28.2791 33.4064 28.1148 33.2538C27.974 33.1247 27.5105 32.9251 27.0587 32.9251C26.8768 32.9251 26.7125 32.9662 26.5952 33.0601C26.4779 33.1599 26.3957 33.3477 26.3781 33.6471C26.3312 34.5334 26.8534 36.1653 28.5197 39.0239C28.6311 39.2176 28.5666 39.4642 28.373 39.5757C28.1794 39.6872 27.9329 39.6226 27.8215 39.4289C26.0671 36.4118 25.5215 34.6274 25.5684 33.606C25.5978 33.0542 25.7855 32.6844 26.0613 32.4496C26.3429 32.209 26.6949 32.1151 27.0528 32.1151C27.7158 32.1209 28.4316 32.4496 28.6663 32.661Z" fill="#1B3C87"/>
<path fill-rule="evenodd" clip-rule="evenodd" d="M136.9 98.7442L148.311 94.107L115.666 82.5726L126.485 115.473L131.373 104.162L136.9 98.7442Z" fill="#EEF5FF"/>
<path fill-rule="evenodd" clip-rule="evenodd" d="M136.9 98.7441L149.614 111.74L144.081 117.158L131.373 104.162L136.9 98.7441Z" fill="#EEF5FF"/>
<path d="M79.3888 87.5268C79.5707 87.6501 79.6176 87.8966 79.4944 88.0786C79.3712 88.2605 79.1247 88.3075 78.9487 88.1842C77.2179 87.0161 75.5692 85.7717 74.3723 84.6447C73.3103 83.6468 72.5769 82.7194 72.4243 81.9739C72.3774 81.7626 72.5182 81.5512 72.7294 81.5043C72.9406 81.4573 73.1519 81.5982 73.1988 81.8095C73.322 82.3848 73.9616 83.1772 74.9179 84.0694C76.0738 85.1612 77.6873 86.3763 79.3888 87.5268Z" fill="#1B3C87"/>
<path d="M94.538 80.031C94.5967 79.8196 94.8138 79.6964 95.025 79.7551C95.2362 79.8138 95.3594 80.031 95.3008 80.2423C94.673 82.4493 93.6579 84.6564 92.5549 86.6287C91.0294 89.3465 89.3279 91.6357 88.2307 92.8625C88.1545 92.9447 88.0547 92.9917 87.955 92.9917C87.5853 93.0093 86.758 92.6982 85.6667 92.1581C84.5989 91.6299 83.2553 90.8903 81.8413 90.0332C81.6535 89.9217 81.5949 89.6752 81.7063 89.4932C81.8178 89.3054 82.0642 89.2467 82.2461 89.3582C83.6484 90.2093 84.9744 90.9431 86.0129 91.4538C86.8343 91.8588 87.4562 92.1229 87.7731 92.1875C88.8409 90.9666 90.4251 88.8006 91.8626 86.2413C92.9421 84.316 93.9337 82.1676 94.538 80.031Z" fill="#1B3C87"/>
<path d="M76.948 76.8201C76.813 76.9903 76.5607 77.0197 76.3906 76.8788C76.2204 76.7438 76.1969 76.4914 76.3319 76.3212C78.4089 73.7443 81.0902 70.9326 83.9711 69.3125C86.9282 67.6514 90.0848 67.2405 93.0184 69.565C93.1357 69.6589 93.2531 69.7528 93.3646 69.8526C93.476 69.9524 93.5875 70.0522 93.6873 70.1578C93.8398 70.3104 93.8398 70.5628 93.6873 70.7154C93.5347 70.8681 93.2824 70.8739 93.1299 70.7154C93.036 70.6215 92.9362 70.5276 92.8424 70.4454C92.7368 70.3515 92.637 70.2693 92.5314 70.1872C89.9087 68.1092 87.0514 68.4966 84.3583 70.0052C81.5831 71.5666 78.978 74.3078 76.948 76.8201Z" fill="#1B3C87"/>
<path d="M119.603 2.27841L105.891 16.0785L138.677 23.6683L119.603 2.27841ZM105.099 16.0374L119.392 1.65621C119.398 1.64447 119.409 1.6386 119.415 1.63273C119.538 1.52707 119.726 1.53294 119.832 1.65621L139.739 23.9677C139.798 24.0381 139.827 24.132 139.804 24.2318C139.769 24.3903 139.61 24.4901 139.452 24.4549L105.246 16.5364C105.193 16.5246 105.146 16.5012 105.105 16.4601C104.988 16.3427 104.988 16.1548 105.099 16.0374Z" fill="#B6C6FC"/>
<path d="M44.7485 139.293L46.9311 117.428L22.007 114.939L19.8302 136.805L44.7485 139.293ZM47.5471 117.193L45.3058 139.646C45.2882 139.81 45.1474 139.927 44.9831 139.91L19.4782 137.362C19.3139 137.345 19.1965 137.204 19.2141 137.039L21.4554 114.587C21.473 114.423 21.6139 114.305 21.7781 114.323L47.2831 116.87C47.4415 116.888 47.5647 117.029 47.5471 117.193Z" fill="#B6C6FC"/>
<path d="M29.6462 137.309C29.6462 133.969 28.2909 130.94 26.1024 128.751C23.9139 126.562 20.8864 125.206 17.5479 125.206C14.2095 125.206 11.182 126.562 8.99347 128.751C6.80499 130.94 5.44965 133.969 5.44965 137.309C5.44965 140.655 6.80499 143.678 8.99347 145.868C11.182 148.057 14.2095 149.413 17.5479 149.413C20.8864 149.413 23.9139 148.057 26.1024 145.868C28.2909 143.678 29.6462 140.649 29.6462 137.309ZM26.519 128.328C28.8131 130.624 30.2388 133.799 30.2388 137.303C30.2388 140.808 28.8189 143.983 26.519 146.278C24.2249 148.574 21.0507 150 17.5479 150C14.0452 150 10.871 148.579 8.5769 146.278C6.27693 143.983 4.85706 140.808 4.85706 137.303C4.85706 133.799 6.27693 130.624 8.5769 128.328C10.871 126.033 14.0452 124.607 17.5479 124.607C21.0507 124.607 24.219 126.033 26.519 128.328Z" fill="#B6C6FC"/>
<path d="M87.1864 26.1395C87.245 26.3567 87.1218 26.5797 86.9047 26.6384C86.6876 26.6971 86.4647 26.5739 86.406 26.3567C86.2593 25.8225 85.9953 25.4116 85.6609 25.171C85.4438 25.0125 85.1974 24.9362 84.9451 24.9479C84.6752 24.9655 84.3818 25.0829 84.0885 25.3295C83.4841 25.8343 82.8915 26.8204 82.4398 28.4464C82.3811 28.6635 82.1581 28.7868 81.941 28.7281C81.8002 28.687 81.7005 28.5814 81.6594 28.4522C81.3308 27.5072 80.8028 26.3391 80.1809 25.5114C79.7584 24.9538 79.3184 24.5664 78.9018 24.5664C78.5732 24.5664 78.1567 24.7601 77.7225 25.124C77.2824 25.4938 76.8365 26.0338 76.4434 26.7265C76.3319 26.9202 76.0855 26.9906 75.8919 26.8791C75.6983 26.7676 75.6279 26.521 75.7394 26.3273C76.1853 25.5466 76.6957 24.9362 77.2003 24.5077C77.787 24.0146 78.3855 23.7563 78.9018 23.7563C79.6059 23.7563 80.263 24.2729 80.8263 25.0242C81.2839 25.6288 81.6888 26.3978 82.0173 27.1432C82.4691 25.9634 83.0147 25.1768 83.578 24.7072C84.0122 24.3433 84.4698 24.1613 84.904 24.1379C85.3558 24.1085 85.7782 24.2435 86.142 24.5135C86.6114 24.8599 86.9869 25.4292 87.1864 26.1395Z" fill="#1B3C87"/>
<path fill-rule="evenodd" clip-rule="evenodd" d="M85.96 55.5946C85.3264 57.7137 83.2435 64.7282 83.179 69.5884C82.1698 70.1872 75.3814 70.4396 73.5449 69.0836C74.0495 66.9353 74.9003 60.8364 74.6832 58.7174C75.6337 58.5354 85.96 55.5946 85.96 55.5946Z" fill="white"/>
<path d="M74.0848 62.3391C74.0614 62.5563 73.8619 62.7089 73.6507 62.6854C73.4336 62.6619 73.281 62.4624 73.3045 62.251C73.4219 61.2356 73.5099 60.2377 73.5568 59.3865C73.5979 58.6411 73.5979 58.0071 73.5509 57.5669C73.5333 57.3614 73.6683 57.1795 73.8678 57.1384C74.8007 56.9505 85.0801 54.0273 85.1094 54.0156C85.3206 53.9569 85.5377 54.0802 85.5964 54.2856C85.6199 54.3619 85.614 54.4441 85.5905 54.5204C85.2737 55.5829 84.599 57.8545 83.9946 60.4549C83.3903 63.0611 82.8564 66.0019 82.8271 68.3968C82.8271 68.5377 82.7508 68.6668 82.6334 68.7314C82.2638 68.9486 81.3074 69.1247 80.1223 69.2127C79.0368 69.289 77.7343 69.3008 76.508 69.2127C76.2909 69.1951 76.1267 69.0073 76.1443 68.7901C76.1619 68.5729 76.3496 68.4086 76.5667 68.4203C77.7578 68.5083 79.0192 68.4966 80.0694 68.4203C80.9554 68.3557 81.6712 68.2559 82.0409 68.1327C82.1054 65.7143 82.6334 62.8322 83.2202 60.2788C83.7189 58.1128 84.2704 56.1875 84.6224 54.9783C82.4868 55.5829 76.0445 57.4084 74.3489 57.8369C74.3723 58.2771 74.3606 58.823 74.3313 59.4335C74.2961 60.3081 74.2022 61.3177 74.0848 62.3391Z" fill="#1B3C87"/>
<path d="M88.8018 50.0825C90.2315 43.4264 87.1708 37.1234 81.9656 36.0043C76.7604 34.8853 71.3817 39.3739 69.952 46.03C68.5223 52.686 71.583 58.989 76.7882 60.1081C81.9935 61.2272 87.3721 56.7385 88.8018 50.0825Z" fill="white"/>
<path d="M78.9252 58.6998C79.1423 58.6587 79.3594 58.7996 79.4005 59.0226C79.4416 59.2398 79.3007 59.457 79.0778 59.4981C78.8255 59.545 78.5615 59.5861 78.2916 59.6096C78.0217 59.6331 77.7576 59.6507 77.5054 59.6507C77.2237 59.6507 76.9421 59.6331 76.6487 59.6037C76.3612 59.5744 76.0796 59.5274 75.798 59.4687C74.4368 59.1752 73.2105 58.5472 72.1662 57.6549C71.0866 56.7334 70.2006 55.5418 69.5494 54.1682C69.4555 53.9686 69.5376 53.7221 69.743 53.6282C69.9425 53.5343 70.1889 53.6164 70.2828 53.8219C70.8871 55.1015 71.7026 56.1992 72.6883 57.0445C73.633 57.8486 74.736 58.418 75.9623 58.6822C76.2146 58.735 76.4727 58.7761 76.725 58.8054C76.9773 58.8289 77.2355 58.8465 77.4995 58.8465C77.7459 58.8465 77.9806 58.8348 78.2094 58.8113C78.45 58.7819 78.6847 58.7467 78.9252 58.6998Z" fill="#1B3C87"/>
<path d="M69.2619 50.3176C69.2913 50.5406 69.1387 50.7461 68.9157 50.7754C68.6928 50.8048 68.4874 50.6522 68.4581 50.435C68.4053 50.071 68.3701 49.7071 68.3408 49.3432C68.3173 48.9734 68.2997 48.6036 68.2997 48.2396C68.2997 47.6879 68.329 47.1302 68.3936 46.5667C68.4522 46.0032 68.5461 45.4514 68.6635 44.9055L68.6693 44.8879C69.4086 41.4716 71.157 38.613 73.3925 36.7464C75.6631 34.8504 78.4266 33.9758 81.1607 34.5569H81.1666C83.8949 35.1439 86.0599 37.081 87.3448 39.74C88.618 42.3639 89.0404 45.6921 88.307 49.1084L88.3012 49.1377C88.1486 49.848 87.9491 50.5465 87.7027 51.2274C87.4504 51.92 87.1512 52.5951 86.8109 53.2408C86.7053 53.4403 86.4647 53.5167 86.2652 53.411C86.0657 53.3053 85.9895 53.0647 86.0951 52.8651C86.4236 52.2488 86.7053 51.6089 86.9458 50.9515C87.1805 50.3058 87.3683 49.6425 87.5149 48.9734L87.5208 48.944C88.2132 45.7097 87.8201 42.5634 86.6231 40.0981C85.4379 37.6621 83.4724 35.8894 81.0023 35.3552H80.9964C78.5204 34.8269 75.9975 35.6311 73.9147 37.3686C71.8083 39.1296 70.1596 41.8297 69.4614 45.064V45.0816C69.3499 45.604 69.2619 46.1265 69.2032 46.6548C69.1446 47.1772 69.1211 47.7055 69.1211 48.2396C69.1211 48.5918 69.1328 48.944 69.1563 49.2845C69.1739 49.6367 69.2091 49.9771 69.2619 50.3176Z" fill="#1B3C87"/>
<path fill-rule="evenodd" clip-rule="evenodd" d="M89.0345 51.1041C89.2281 50.4585 91.1643 46.7898 90.9766 40.9434C90.8534 37.0986 87.8141 29.544 87.82 28.5403C87.8435 25.3529 84.5109 23.9089 82.9326 29.5323C82.3341 27.8066 81.0903 25.3588 79.7877 25.3588C78.4852 25.3588 76.373 27.5072 75.8273 31.1993C75.6454 30.0195 74.5893 28.6577 73.985 28.6577C73.3807 28.6577 71.9256 28.7457 71.9901 33.7704C71.509 33.1658 70.447 32.8018 69.9014 32.8018C68.7749 32.8018 67.2024 38.1963 71.6792 41.683C71.9315 41.2075 72.6355 40.2038 72.6766 40.2038C73.498 40.4268 81.4599 42.4108 86.2886 43.0741C86.1654 43.7961 84.5109 51.38 86.3473 53.6751C87.5618 53.2349 88.5417 52.2957 89.0345 51.1041Z" fill="#FB5D64"/>
<path d="M74.4897 46.737C74.5425 46.5198 74.7655 46.3848 74.9767 46.4376C75.1938 46.4904 75.3287 46.7076 75.2759 46.9248C75.1644 47.3826 74.7889 47.9579 74.3606 48.4627C73.8971 49.0086 73.3339 49.4841 72.9466 49.6367C72.7354 49.7188 72.5066 49.6132 72.4244 49.4077C72.3423 49.2023 72.4479 48.9675 72.6533 48.8853C72.9232 48.7797 73.3515 48.3981 73.7446 47.9403C74.1025 47.5176 74.4076 47.0657 74.4897 46.737Z" fill="#1B3C87"/>
<path d="M80.7374 46.5285C80.9343 45.993 80.8351 45.4636 80.5158 45.3461C80.1965 45.2285 79.778 45.5674 79.5811 46.1028C79.3841 46.6383 79.4833 47.1677 79.8027 47.2852C80.122 47.4028 80.5405 47.064 80.7374 46.5285Z" fill="#1B3C87"/>
<path d="M78.01 52.8945C78.1039 52.6891 78.3445 52.601 78.5439 52.6949C78.7493 52.7888 78.8373 53.0295 78.7434 53.2291C78.585 53.5695 78.0511 54.1272 77.4702 54.5674C76.9657 54.949 76.3965 55.2659 75.9682 55.3188C75.7453 55.3481 75.5458 55.1896 75.5164 54.9666C75.4871 54.7435 75.6455 54.5439 75.8685 54.5146C76.1442 54.4794 76.5725 54.227 76.9833 53.9217C77.4761 53.5519 77.9044 53.1234 78.01 52.8945Z" fill="#1B3C87"/>
<path d="M84.9979 41.8062C85.0448 41.589 85.256 41.4482 85.4731 41.4893C85.6902 41.5362 85.831 41.7475 85.79 41.9647C85.6257 42.7689 85.4849 43.5848 85.3616 44.4183C85.2384 45.246 85.1446 46.0678 85.0742 46.8661C85.0565 47.0891 84.8571 47.2535 84.64 47.2359C84.417 47.2183 84.2527 47.0187 84.2703 46.7956C84.3466 45.9504 84.4464 45.1168 84.5637 44.2951C84.6869 43.4733 84.8277 42.6398 84.9979 41.8062Z" fill="#1B3C87"/>
<path d="M75.3404 29.9432C75.3756 30.1662 75.2231 30.3717 75.0001 30.4069C74.7771 30.4421 74.5718 30.2895 74.5366 30.0665C74.4603 29.5617 74.1904 29.0099 73.8736 28.5696C73.5744 28.1587 73.2693 27.8711 73.0874 27.8711C72.8644 27.8711 72.4889 27.8887 72.1779 28.3642C71.7848 28.9571 71.468 30.1604 71.4973 32.5788C71.5032 32.8018 71.3213 32.9838 71.0984 32.9897C70.9634 32.9897 70.8402 32.9251 70.7698 32.8253C70.5938 32.614 70.318 32.432 70.0188 32.2911C69.6433 32.1151 69.2561 32.0211 69.0038 32.0211C68.9686 32.0211 68.904 32.0798 68.816 32.1914C68.6576 32.3968 68.505 32.7196 68.3877 33.1305C68.2704 33.559 68.1941 34.0756 68.1941 34.645C68.1941 36.2475 68.7925 38.2432 70.6701 39.8809C70.7581 39.7459 70.8519 39.5992 70.9458 39.4583C71.2509 39.0004 71.6323 38.6072 71.779 38.6072C71.82 38.6072 71.8611 38.613 71.8963 38.6248C72.3598 38.748 74.7302 39.3468 77.5348 39.969C79.1717 40.3329 80.9671 40.7144 82.6569 41.0255C82.874 41.0666 83.0206 41.2779 82.9796 41.4951C82.9385 41.7123 82.7273 41.8591 82.5102 41.818C80.8263 41.5069 79.0133 41.1253 77.3587 40.7555C74.6187 40.1451 72.3422 39.5757 71.7555 39.4231C71.7027 39.4642 71.779 39.6755 71.6206 39.9103C71.4328 40.1861 71.2451 40.4855 71.1394 40.6792C71.1277 40.6968 71.116 40.7203 71.0984 40.7379C70.9634 40.914 70.7053 40.9434 70.5292 40.8084C68.1295 38.9417 67.3844 36.5468 67.3844 34.645C67.3844 33.9993 67.4724 33.4123 67.6074 32.9134C67.7482 32.3968 67.9535 31.9742 68.1765 31.6924C68.417 31.3813 68.7045 31.2052 68.9979 31.2052C69.3499 31.2052 69.8721 31.3285 70.3532 31.5515C70.4706 31.6044 70.5821 31.6631 70.6935 31.7276C70.7463 29.6732 71.0866 28.5403 71.5032 27.9122C72.0489 27.0846 72.706 27.0552 73.0874 27.0552C73.5333 27.0552 74.0848 27.4837 74.5248 28.0942C74.918 28.6225 75.2407 29.3034 75.3404 29.9432Z" fill="#1B3C87"/>
<path d="M89.1695 48.3629C89.0932 48.5742 88.8644 48.6858 88.6532 48.6095C88.4419 48.5331 88.3305 48.3042 88.4067 48.0929C88.835 46.8896 89.1577 45.651 89.3748 44.3949C89.5919 43.1446 89.6975 41.8767 89.6975 40.6029C89.6975 40.4092 89.6975 40.2801 89.6917 40.1803C89.6858 40.0453 89.6858 39.9044 89.6799 39.7577C89.6447 38.7187 89.3866 37.3803 89.0345 35.9774C88.6766 34.5452 88.219 33.0601 87.8024 31.7394C87.732 31.5281 87.8493 31.2991 88.0664 31.2346C88.2777 31.17 88.5065 31.2874 88.571 31.4987C88.9993 32.8488 89.4628 34.3574 89.8207 35.7837C90.1845 37.2336 90.4544 38.6248 90.4896 39.7342C90.4955 39.8692 90.4955 40.0101 90.5013 40.1627C90.5072 40.3505 90.5072 40.509 90.5072 40.5971C90.5072 41.9119 90.3957 43.2268 90.1728 44.5299C89.9498 45.833 89.6095 47.1185 89.1695 48.3629Z" fill="#1B3C87"/>
<path d="M86.8812 54.9196C88.2422 54.9196 89.3455 53.8158 89.3455 52.4542C89.3455 51.0927 88.2422 49.9889 86.8812 49.9889C85.5203 49.9889 84.417 51.0927 84.417 52.4542C84.417 53.8158 85.5203 54.9196 86.8812 54.9196Z" fill="white"/>
<path d="M85.8311 49.7658C85.6199 49.8363 85.391 49.7189 85.3206 49.5075C85.2502 49.2962 85.3676 49.0673 85.5788 48.9969C85.7255 48.9499 85.878 48.9088 86.0247 48.8853H86.0423C86.1948 48.8619 86.3415 48.8501 86.4882 48.8501C87.2803 48.8501 87.9961 49.173 88.5183 49.6895C89.0346 50.2119 89.3573 50.9281 89.3573 51.7205C89.3573 52.5129 89.0346 53.229 88.5183 53.7515C88.002 54.2739 87.2803 54.5908 86.4882 54.5908C86.3004 54.5908 86.1127 54.5732 85.9191 54.5322C85.7313 54.4969 85.5494 54.4382 85.3734 54.3619C85.1681 54.2739 85.0742 54.0391 85.1563 53.8336C85.2443 53.6282 85.479 53.5284 85.6844 53.6165C85.8135 53.6693 85.9425 53.7104 86.0775 53.7397C86.2066 53.7632 86.3415 53.7808 86.4882 53.7808C87.0573 53.7808 87.5736 53.5519 87.9433 53.1762C88.3129 52.8064 88.5476 52.2899 88.5476 51.7205C88.5476 51.1511 88.3188 50.6346 87.9433 50.2648C87.5736 49.8949 87.0573 49.6602 86.4882 49.6602C86.3767 49.6602 86.2711 49.666 86.1714 49.6836H86.1596C86.0423 49.7071 85.9308 49.7306 85.8311 49.7658Z" fill="#1B3C87"/>
</svg>
