<svg id="Layer_1" data-name="Layer 1" xmlns="http://www.w3.org/2000/svg" viewBox="0 0 1143.13 937.27"><defs><style>.cls-1{fill:#fecd56;}.cls-1,.cls-11,.cls-12,.cls-3,.cls-4,.cls-5,.cls-6,.cls-7,.cls-8,.cls-9{fill-rule:evenodd;}.cls-2{fill:#e33c5a;}.cls-4{fill:#fecd57;}.cls-5{fill:#030303;}.cls-6{fill:#f676b2;}.cls-7{fill:#fecc5b;}.cls-8{fill:#020202;}.cls-9{fill:#060101;}.cls-10{fill:#79b0eb;}.cls-11{fill:#fffdeb;}.cls-12{fill:#f375b5;}.cls-13{font-size:60.5px;font-family:Montserrat-SemiBold, Montserrat;font-weight:600;}</style></defs><g id="Layer_1-2" data-name="Layer_1"><g id="_2561617457808" data-name=" 2561617457808"><path class="cls-1" d="M728.34,784.74c-5-18.16,22.52-28.3,26.91-7.64,2,9.56-3.3,16.43-11.22,17.2-5.24.51-8,.06-11.53-2.55C731,790.66,729,787.15,728.34,784.74Zm-3.62-498c4.75,7.44,13.75,18.32,13.44,24.5-6.74.79-6.34-1.57-13.18-12.08-3.48-5.36-8.8-9.89-8.33-16.45,4.84-1,6,.79,8.07,4ZM495.86,817.21c-.35,4.92.08,1.16-1.37,2.6l-142.93-.51c-1.53-3.84-12-138.44-11.12-148l117.26-.54C445.23,634.06,416.17,602,429,581.89c8.86-13.91.94-11.08,6.18-25,1.67-4.47,3.89-5.83,5.54-9.46,2.15-4.71,1.47-6.85,4.75-11.41,8-11.13,14.15-6.61,18.29-12.87,5.33-8.06,5.29-13.24,14.7-16.61,3.43-6.75,4.12-7.81,11.47-10.74l4.49-132.52c-5.85-2.32-6.56-4.05-10.33-9.24L467,356c-3.37,8.53-.51,23.5-.51,31.22-9.2,0-26.06,1.4-33.18,1.4-15.07-1.76-97.54-.69-100.46-.95-1.85-1.5-2-5.88-2.17-8.42-.16-3-.25-5.9-.47-8.85l-2.62-55.1c-.5-8-.76-24.91-4.28-72.52,2.53-1.16,135.45,3.72,143.27,6.1.06,12.15-.78,84.84.29,100.78l15.93-1.86c4-7.62,7.3-14.15,18.53-13.48,10.35,1.76,11.23,9.6,11.31,21,6.4,2.51,115.66,77.28,130.33,87,5.37,3.57,13.33,8.39,17.74,11.9,11.56-5.47,5.26-3.33,18.84-3a292.62,292.62,0,0,1,19.55-23.24c6.57-7.13,12.68-14.95,19.07-22.53l39-45.33c6.45-8.11,13.09-15,19.68-23.06,10.22-12.5,51.11-58.67,57.33-67.52,0-1.44-6.81-21.93,10.57-24.41,17-2.42,16.88,16,18.3,18.66l34.18,15.54c6.2-2.47,3.72-4.52,10.83-5,17.31-1.21,21.44,19.95,12.39,24.67l.61-.5c-2.24,3.34.83,1.11-3.8,3.75s-21.11,4.69-21.89-16.83l-35.48-16c-13.51,9.2-12.85,2-21.21,4.59C813.5,304.2,784.82,336,761,365.23c-24,29.47-52.13,59.7-77,90.39l1.38,5.61c11,2.51,43.51-1.58,50,1.38,4.64,4.18,3.42,19.9,3.78,27.68.64,14.19,6.39,85.76,3.52,88.76-5.48,3.91-33.21,1-42.32,1.48l43.75,184.61-5.92.11L693.53,580.58c-14.66-1.33-65.41,2.2-73.33-1-1.84-1.28-15.29-112-12.19-116.89,4.7-1.66,19.22-.72,25.08-.73,4.63,0,9.27-.05,13.9,0,4.21.06,10.42,1.35,10.09-2.93-5.13-2.37-13.62-8.66-18.69-12.1l-91.78-61.85c-11.88-8-24.41-16.94-37.13-24.66l-8.75,4L496.65,480,494,494.65c12.93,9.54,5.78,5.43,15.57,9.83,21.61,4.45,49.49,38.86,59.54,60.2,12.43,26.42,20.8,61.58,27.79,92.46,7.46,33,14.71,65.26,22.13,98.06,7.55,33.41,14.39,63.65,30.15,89.8,15.45,25.61,42.83,41,80.93,23a179,179,0,0,0,36.72-23.32c3.57-2.91,5.62-4.1,8.43-6.6,19.51-17.35,44.92-52.42,62.33-72.82l28.83-31.22c15-14.59,31.81-30.1,50.48-40.71-3.78-13-12.24-30.31-17.69-44.08-4.57-11.57-4.32-6.35-19.35-11.82-53-19.29-40.56-60.24-34.65-113.23-20.72-5.41-24.65-27.28,5.92-28.57,10.46-29.93,11.37-93.91,39.53-111.53,1.38-4.95,20-11.59,24.34-12.64,11.12-2.72,23.64-3.27,35.76-2.35,19.58,1.5,46.15,7.85,61.58,15.52,5.88-5,1.95-5.31,7.7-6.37,1.8,3.31,2.46,4.86,0,8.07,6.93,1.34,9.75,3.48,12.07,3.88.22,0,.6,0,.8.07l3.06-3.58c0-1.2-.8.92.24-1.54.94,3.77-.54,4.67,15.89,3.87,7.56-.37,14.53-.49,22.22-.49,12.85,0,29.36-.86,41.83.84a4.42,4.42,0,0,0,.91.1l-.92-3.16c-.06-.38-.12-.68-.17-1.11-2.39-19.72,3.27-120.55-1.22-142.12-9.27,0-33.84,2-40.43-1.64,0,14.86-3.92,15.39-1.77,25.37,1.46,7.88,5.15,63.57,3.66,69.46-9.37,2.35-50.49.77-63.11.77L952,335.23c-2.62-4.58-6-82.69-7-95.68l-666.13-2L298.37,891l218.14.28c-3.17-11.75-8.19-23.35-11.65-35.91-2.43-8.85-6.2-31.34-9-38.16Z" transform="translate(-228.43 -131.37)"/><circle class="cls-2" cx="264.82" cy="377.84" r="17.11"/><path class="cls-3" d="M271.43,184.13l3.48,136.64a2.56,2.56,0,0,0,1.77,2.35c1,.34,1.86,1.16.65,3.17,1.24-11.44,0-31.42,0-43.89,0-10.34-1.36-36.58.7-44.87,1.72-9.16-.39-32.16-.66-45.68a2.54,2.54,0,0,1,2.55-2.6l879.2,2.61a2.54,2.54,0,0,1,2.54,2.39c1.93,34.87.73,426.6.48,470.87a2.54,2.54,0,0,1-3.33,2.4l-37.41-12.2-.19-.05-2.14-.52a2.55,2.55,0,0,1-1.94-2.42c-1.13-45.46-11.2-64.73-7.25-117.08,1.75-23.16,4-63.77-18.17-77.29-8.85-5.38-13-4.5-23-5.75a2.55,2.55,0,0,1-2.21-2.29l-.26-2.68a2.31,2.31,0,0,0-.18-.72c-.89-2.17-3.35-12.25-4.88-15.8-2.21-5.13-5.7-9.58-6.78-13.73a2.75,2.75,0,0,0-.94-1.43c-2.43-1.92-6.56-6.63-8.71-8.83-3.87-3.93-4.8-5.1-9.76-8.74-5.72-4.18-15.13-10.24-22.62-13.32-15.42-7.67-42-14-61.57-15.52-12.13-.93-24.64-.37-35.76,2.34-4.12,1-21.39,7.14-24.07,12a2.5,2.5,0,0,0-.28,1.11c-.14,3.3-1.57,1.21,2,3.3a2.47,2.47,0,0,0,1.16.33h0a2.53,2.53,0,0,1,2.29,2.13c6.66,39.7,28.9,64.9,47.42,88.61,8.6,11,5.64,8.9,21.61,13,33.28,8.66,31.29,27.58,20,35.06-11,7.34-17.65,2-26.36,2.83a2.54,2.54,0,0,0-2.24,2.07c-1.36,7.48-.82,27,.18,33,4.78,29.08,23.79,47.84,57.23,45.1a2.55,2.55,0,0,1,2.74,2.59c-.37,18.14.87,27.13,3.17,43.81a2.55,2.55,0,0,1-2.25,2.89c-22.5,2.28-76.52,15.32-85.76,26.18a5.56,5.56,0,0,1,.67.53,1.94,1.94,0,0,0,.47.34l2.81,1.56a2.53,2.53,0,0,0,1.94.22c8.43-2.5,51.09-23.23,83.18-22.63a2.52,2.52,0,0,1,2.09,1.2c2.61,4.39,4,9.18,6.89,13.41a63.07,63.07,0,0,0,10.31,11.64c7.07,6.29,18.76,10.76,31.72,11.31,29.35,1.23,41.47-13.27,44.55-39.38a2.53,2.53,0,0,1,3.09-2.18c13.45,3.16,29.9,9.39,42.2,13.82,14.07,5,28,10.55,41.23,16.52,18.33,8.3,40.72,19.33,57.72,30.06,3,1.87,6.26,3.81,9.3,5.72l6.1,4.23a2,2,0,0,1,.23.18l.66.56a2.57,2.57,0,0,1,.75,2.75c-3.06,9.49-8,14.32-8.81,20.11a2.46,2.46,0,0,0,.25,1.43,4.27,4.27,0,0,0,1.19,1.67,2.54,2.54,0,0,0,3.8-.57c3.29-5.2,4.92-13.4,8.82-18.43a2.51,2.51,0,0,1,3.57-.38c4.39,3.59,9.42,7,13.5,10.37,14.66,12.21,30.13,28,41.21,44.27a133.85,133.85,0,0,1,18.31,38.3,114.88,114.88,0,0,1,4.58,24.21c.76,9.63-1.21,19.67-.73,27.3a2.54,2.54,0,0,0,.61,1.48l.18.21a2.55,2.55,0,0,0,3.09.61l.37-.19a2.52,2.52,0,0,0,1.26-1.46c8-24.28-4.87-64.64-15.58-82.89-26.71-45.52-66.62-72.76-112.26-98-29.56-16.33-44.48-19.74-71.24-31.88a2.54,2.54,0,0,1-1.49-2.12c-1.33-17.83-.1-40.93-.1-59.08L1167,202.63c0-2.93-.31-8.95-.41-13.67a2.53,2.53,0,0,0-2.53-2.48c-34.27-.16-404.6-2.16-445.44-2.15-41.9,0-441.86-.19-447.15-.19Z" transform="translate(-228.43 -131.37)"/><path class="cls-4" d="M249.37,944.44c2.66,2.84,68.38,1.15,71.85,1.15l147.86,0c24.13,0,49.33-2.13,72.82-1.12l-11.26-21.26-259,8.7c-.44-6.12.15-30.56,2.13-33.38,1.27-1.5.93-.94,8.08-.93,3.16,0,8.86-.46,12.07-.53l.06-21.59L275,322.83l-2.18-85.31c-.36,0-.47-.09-1.18-.09-9.72-.06-33.42.62-43.18.62" transform="translate(-228.43 -131.37)"/><path class="cls-5" d="M507.42,508.7c14.89,2.11,35.77,26.14,42.62,35.8,46.26,65.16,54.39,235.75,90.24,297.88,9.06,15.7,21.28,31,40.26,37.11,25.81,8.3,44.73-3.65,62.3-10.43,4.14,8.85.67,30.08,24.75,75.86,17.47,33.23,37.62,47.44,42.59,54.45l.8,1.51c-17.71,11.18-57.55,23.1-81.06,27.42-32.78,6-63.93,8.29-93.48-4.21-73.82-31.21-114.38-117.07-131-192.38C491.39,768,489.24,726.1,460.85,661.42c-5.7-13-11.05-24.48-17.34-37-6.5-12.92-15.2-23.84-9.48-39.83,2.46,2.21,2.81,4,4.07,7.14,1.6,4,5.78,14.8,9.43,15.89,9.92,3-2.74-15.51-4.95-21.56a52.68,52.68,0,0,1-3-13c-.47-5.07-.57-8.68,1.79-12.57,1.7,2.88,11,29.09,16.31,32.62,3.9,2.57,2,1.66,4.62,0,1.64-4.15-3.51-9.07-6.08-13.76-7.33-13.39-16.85-39.84,2.77-45.72-2.46,15.26-3.94,24.37,3.51,37.15,3.62,6.21,14.12,19.86,21.68,17.85,0-5.32-2.27-6.12-5.54-8.56-3.75-2.8-4.08-3.36-6.89-7-4.26-5.51-7.27-9.84-8.28-18.33-1.93-16.3,5.61-31.41,13.62-40.14,1.48-1.46,1.26-1.57,2.77-1.93,2.37-.54,2.05.33,2.9.68,1.85,3.55,1,6-.83,9.3-9.38,37.17,9.55,54.27,26.76,47.62,9.05-3.49,13.6-14.8,13.37-26.86C521.77,528.53,509,528.09,505,520.7l-3.45-4.89c-.59-6.47-.64-6.89,5.92-7.12ZM275,322.83l17.72,552.6c.42,6.28.87,15.84.87,21.49,2.57,2,145.7.81,168.6.68,17.71-.1,39.33-1.12,56.6.12,3.16,4.85,9.34,19.39,11.88,25.47l11.26,21.25a24.26,24.26,0,0,1,5.86,9.73c6.13,4,44.46,80.18,130.39,85.38,39.9,2.41,96.21-13.69,131.49-30.77,2.38-1.15,32.51-16.2,33.28-19.16.11-.42.43-.47.62-.71a14.44,14.44,0,0,0-1.4-1.8c-1.75-1.94-.78.7-1.24-1.23-.1-.4-.47-.38-.71-.57-8.14,3.16-14.08,9.14-22.25,11.79-25.81-18.63-67.75-79.9-68.22-132.68,7.89-3.83,19.86-13.57,26.74-19.39,19.14-16.18,46.95-51.83,63.18-72,19.25-23.88,43.92-49.73,69.42-66.89l27.68-17.7-3.87-2.14a10.14,10.14,0,0,0-.91-.75L923,689.24c-2.7-3.49-5.23-10.46-6.73-15.26l3.4-3.88-9.76.15c1.5-10-.24-11.59-.13-23.49-1.13,2.72-.17,2.11-3.34,3.34,0-3.47-1.89-5.36-3.81-7.79l-2.34-2.92,14.3-.83c-4.43-2.8-14.64-2.59-20.41-3.76-74.48-15.12-41-84.06-42.27-113.92-6.05-5-16.62-2.68-16.08-14,5.61-6.52,13.8-2.34,20.37-6,3.49-5.69,11.62-50.59,13.9-61.13,10.23-47.29,15.67-38.31,23.1-51.49-4.45-2.74-2.56,0-2.55-4.1-28.16,17.62-29.07,81.61-39.53,111.54-30.58,1.29-26.64,23.15-5.92,28.56-5.91,53-18.35,93.95,34.64,113.23,15,5.47,14.79.26,19.36,11.82,5.45,13.77,13.91,31.12,17.69,44.09-18.68,10.6-35.5,26.11-50.48,40.7l-28.83,31.22c-17.41,20.4-42.82,55.48-62.33,72.82-2.81,2.51-4.87,3.69-8.43,6.6A178.69,178.69,0,0,1,730.13,868c-38.1,18-65.48,2.59-80.92-23-15.77-26.15-22.61-56.38-30.16-89.8-7.41-32.8-14.67-65.09-22.13-98.06-7-30.88-15.35-66-27.79-92.46-10-21.34-36.82-57.41-58.42-61.85-19-1.82-19.51,11.57-10.63,22.17,5.43,3.42,15.16,9.94,15.7,18.37,1.77,27.42-24.25,27.56-29.13,7.76-2.83-11.46-1.22-16.5,1.48-26.76,3.82-9.86,1.29-18.61-9.7-17.88-9.41,3.37-9.36,8.55-14.7,16.61-4.14,6.26-10.3,1.74-18.29,12.87-3.28,4.56-2.6,6.7-4.75,11.41-1.65,3.63-3.86,5-5.54,9.46-5.24,14,2.68,11.13-6.18,25-12.81,20.11,16.25,52.17,28.72,88.89,8.8,19,17.25,47.5,22.79,69.28,5.41,21.25,14,55.25,15.37,77.15,2.81,6.82,6.57,29.3,9,38.16,3.45,12.56,8.48,24.16,11.65,35.91L298.36,891,278.7,222.42l-.68,15.1c-2.07,8.29-.7,34.53-.7,44.86,0,12.48,1.24,32.46,0,43.9,2.15-3.58-2.22-3.36-2.37-3.47Z" transform="translate(-228.43 -131.37)"/><path class="cls-6" d="M290.91,897c-3.21.08-6.67.39-9.83.39-7.15,0-2.22,0-7.34,0-2,2.82-2.55,28.42-2.1,34.54l259-8.69h0c-2.54-6.07-8.71-20.62-11.88-25.47-17.27-1.24-38.89-.22-56.6-.12-22.9.13-166,1.33-168.6-.68" transform="translate(-228.43 -131.37)"/><path class="cls-5" d="M404.8,359.78l.91,4.77,55.92-7.4,0,25.08H337.11l-8.66-133.84c16.22.35,124.84,4.52,133.2,6.7l0,95.41-57.21,7M330.18,370.4c.22,3,.32,5.9.48,8.86.13,2.54.47,6.1.47,8.42,4.56,0,87,.93,102.15.94,7.12,0,27.91-1.4,33.19-1.4,0-8,.49-21.12.49-31.21l17.12-2c3.77,5.18,4.48,6.92,10.34,9.24l-4.49,128.91h0l5.45.12L496.67,480l4.08-115.59,8.74-4c12.73,7.72,25.26,16.63,37.14,24.65l91.78,61.85c5.07,3.45,13.56,9.74,18.69,12.11l3.58-4.75c-4.41-3.51-12.37-8.33-17.74-11.9-14.67-9.76-123.93-84.52-130.32-87-.09-11.41-1-19.25-11.32-21-11.05-1.47-14.56,5.87-18.52,13.48l-15.95,1.87c-1.07-15.94-.28-88.12-.28-100.79-7.82-2.37-140.74-7.26-143.27-6.1" transform="translate(-228.43 -131.37)"/><path class="cls-7" d="M1072.59,266.85c-2.15-10,1.77-10.51,1.77-25.38,6.59,3.62,31.16,1.64,40.43,1.64,4.49,21.58-1.17,122.41,1.22,142.13,0,.42.11.73.17,1.11l.92,3.15a3.82,3.82,0,0,1-.91-.1c-12.47-1.7-29-.83-41.83-.83-7.69,0-14.66.12-22.22.49-16.43.8-15-.1-15.89-3.87-1,2.45-.24.33-.24,1.53l-3.06,3.59c-.2,0-.58,0-.8-.07-2.32-.4-5.14-2.54-12.07-3.88,2.45-3.22,1.8-4.76,0-8.08-5.75,1.07-1.82,1.34-7.7,6.38,7.48,3.09,16.89,9.14,22.61,13.32,5,3.64,5.9,4.81,9.76,8.74,2.4,2.45,7.22,8,9.46,9.37,2.55-1,2.85-2.73,3.8-5l2.5-6.21h17.32v37c7.31,0,5.48,5.31,3.53,6.89-3.49,2.83-10,.93-14.23-.13l1.46,1.32c0-6.73.51-1.2-2.38-3.07l.48,5.11c11.47,1.68,15.6.3,25,6,22.23,13.52,19.93,54.13,18.17,77.29-4,53.1,6.41,72.16,7.3,119l4.13,1-2.6-415.4-47.21-.24,1.09,27.2Z" transform="translate(-228.43 -131.37)"/><path class="cls-8" d="M1147.13,823.33c53.3,1.84,99,47,64.34,76.7-7,6-26.29,16.32-38.62,16.19Zm18.65,92.06c3.9,6.51,27.07,98.64,33.8,120.83,2,6.45,1.84,14.16,7.89,12.44.78-1.39.53.24.84-2.85.44-4.41.33,1.93,0-2a32.61,32.61,0,0,0-1-3.71,34.22,34.22,0,0,1-1.84-8.23c28.81-7.4,76.79-37,100.28-54.94,21.57-16.52,57.42-51.86,63-91.61l-3.08,1.57-2-2.36c-5.53,6.92-4.42,42.06-62.71,87.56-19.16,15-73.57,48.69-97.16,53.61L1174.9,923.54c4-2.48,19.93-6.22,27.12-9.87,54.73-27.78,11.82-70.86,11.73-71,.1-.18,51.6-57.44,58.08-81.6-1.24-3.45-1.28-1.17-2.87-4.74L1240.79,800A241.38,241.38,0,0,1,1225.06,820c-5.28,5.91-11.12,13.41-16.7,18-18.37-7.89-3.75-6.47-43.45-18.91-3.54-13-14-31.32-31.34-27-1.87,9,29,104.12,32.21,123.23Z" transform="translate(-228.43 -131.37)"/><path class="cls-5" d="M735.41,462.61l-49.35-.05.07,6.15c7.1-.85,39.93-1.37,45.58.4L737.49,574l-112.82-.54L613.19,468.32l43.49.32,0-6.41-48.61.42c-3.1,4.92,10.34,115.62,12.19,116.9,7.92,3.24,58.67-.3,73.32,1l44.69,184.67,5.92-.1L700.39,580.54c9.11-.48,36.84,2.42,42.31-1.48,2.88-3-2.87-74.57-3.52-88.76C738.83,482.52,740.05,466.79,735.41,462.61Z" transform="translate(-228.43 -131.37)"/><path class="cls-3" d="M840.18,985.31c.24.2.61.18.71.58.46,1.93-.51-.72,1.24,1.22a14.44,14.44,0,0,1,1.4,1.8c4.12-.53,4.73-2.44,8.88-4.28l17.35,66.06c1.08,3.94,1.9,7.15,2.85,11.18,1.39,5.84.52,7.21,6.13,6.65,2.55-4.82-1.41-13.56-3-19.2-2.74-9.57.11-10.94,3.34-18.52,10.09-23.62,20.25-48.28,25.24-74.32,1.12-5.9.9-17.46,3.52-21.66,3.31-5.3,8.31-7.46,10.07-15.17l-5.62-.92c-13.43,21.14-45.59,48.52-68.17,63.34l-3.92,3.24Z" transform="translate(-228.43 -131.37)"/><path class="cls-5" d="M951.5,233.19l113.14.27,5.88,97.12c-10.1,1.12-107.22,1.25-113.31-.33l-5.71-97.06Zm-6.5,6.37c1,13,4.37,91.1,7,95.67l61.15,1.85c12.62,0,53.74,1.58,63.11-.77,1.49-5.9-2.2-61.58-3.66-69.47l-1.1-27.2c-.25-4.45.14-8.52-2-11.31-3-2.93-86.76-1.24-102.54-1.24-25.59,0-23-2.51-21.93,12.47Z" transform="translate(-228.43 -131.37)"/><path class="cls-9" d="M679.51,451.29c.92,3.33,1,3,4.5,4.34,24.87-30.69,53-60.92,77-90.39,23.82-29.24,52.5-61,77.62-91.15-.31-4-.79-3.87-4.5-4.47-6.22,8.85-47.12,55-57.33,67.52-6.6,8.07-13.23,14.95-19.69,23.06l-39,45.33c-6.39,7.58-12.5,15.4-19.08,22.53a293,293,0,0,0-19.55,23.24Z" transform="translate(-228.43 -131.37)"/><path class="cls-4" d="M515.71,543.67c.09-8.45-10.26-15.75-15.69-18.75h-.11a3.84,3.84,0,0,1-.36.14c-3,1-6.85,1.74-10.05.78-.35,0-.71-.08-1.05-.15a5.43,5.43,0,0,1-.61-.18c-2.57,9.69-4,14.78-1.26,25.92C491.46,571.23,517.48,571.09,515.71,543.67Z" transform="translate(-228.43 -131.37)"/><path class="cls-5" d="M1012.94,285.05c1.87-4,17.69-21.16,21.08-24.52,8.93-8.84,3.32-14.42-5.66-3.33l-20.59,22.33c-4-3.31-7-6.51-11.36-10.44-2.86-2.6-7.7-8.43-12.81-7-1.05,5.58,4.94,8.51,8.71,12.22s8.31,5.92,10.87,10.36c-4.21,6.24-18.71,20.55-19.39,22.73-1.46,4.69,1.9,7,7.47.48l17.26-18.47c4.25,2.33,10.41,9.27,14.78,12.85a74.4,74.4,0,0,1,7.14,6.75c2.52,2.47,4.32,3.48,7.87,2.07.16-6.8-8.34-11-11.83-14.36-5.24-5-8.12-8-13.54-11.7Z" transform="translate(-228.43 -131.37)"/><path class="cls-4" d="M1054.2,416.09c.77,4.4,4.6,9.12,7,14.63,1.62,3.76,4.28,14.82,5,16.09,2.89,1.87,2.38-3.66,2.38,3.08l-1.46-1.32c4.19,1.06,10.74,3,14.23.12,2-1.58,3.78-6.84-3.53-6.89v-37H1060.5l-2.5,6.21c-1,2.31-1.25,4.08-3.8,5Z" transform="translate(-228.43 -131.37)"/><path class="cls-3" d="M919.71,670.1c7-1.66,17.8-20.42,13.73-30.66-4.38-2.18-26.74-3.68-31.93-2.7l-1.18,2.66,2.34,2.92c1.92,2.42,3.87,4.32,3.82,7.79,3.16-1.23,2.2-.62,3.34-3.34-.11,11.89,1.62,13.53.12,23.49l9.76-.15Z" transform="translate(-228.43 -131.37)"/><path class="cls-5" d="M671.22,540.77c-3.38-1.42-8.23-8.35-12.66-12.43l-.07-.07a3,3,0,0,0-4.68,3.78c3.78,6.13,11.91,13.58,16.15,16.72a3,3,0,0,0,4.31-.76c6.5-9.69,22.22-45.79,24.32-50.64a3.09,3.09,0,0,0,.25-1.31c-.12-4-3.54-6-8,3.5l-19.63,41.21Z" transform="translate(-228.43 -131.37)"/><path class="cls-5" d="M402.45,728.27l-.93,5c7.57,1.56,50.68,2,55.64-.7.89-7.57-8.15-4.92-25.05-4.92-6,0-25.3-.8-29.66.62Z" transform="translate(-228.43 -131.37)"/><path class="cls-3" d="M402.56,766.39c3.46,2.55,54.88,2.57,60,.46.6-4.14-.7-5-5-5H409c-4.49,0-6.64,0-6.45,4.49Z" transform="translate(-228.43 -131.37)"/><path class="cls-9" d="M859.83,269.49l35.49,16c1.65-2.42,2.1-2.75,1.85-6.08L863,263.87c-2.29,1.39-1-.07-2.32,2.32-.84,1.47-.58,1.66-.85,3.31Z" transform="translate(-228.43 -131.37)"/><circle cx="270.26" cy="217.71" r="17.11"/><circle class="cls-2" cx="162.53" cy="232.08" r="17.11"/><circle class="cls-2" cx="443.28" cy="333.95" r="17.11"/><circle class="cls-2" cx="619.47" cy="128.31" r="17.11"/><circle class="cls-10" cx="681.76" cy="157.77" r="17.11"/><circle class="cls-10" cx="514.96" cy="648.51" r="17.11"/><path class="cls-11" d="M738.16,311.22c.31-6.18-8.69-17.06-13.44-24.5-2.06-3.24-3.23-5.07-8.07-4-.46,6.56,4.84,11.09,8.33,16.46,6.84,10.51,6.44,12.86,13.18,12.07Z" transform="translate(-228.43 -131.37)"/><path class="cls-12" d="M589.63,151.65c.45.41,1.57,1.56,2.11,2.1,4.43-1.56,10.09-6.7,14.07-9.54,2.85-2,13.91-8.27,10.08-12.11-2.88-2.87-9,3.31-14.52,7.65-4.18,3.25-11.27,6.89-11.74,11.9Z" transform="translate(-228.43 -131.37)"/><path class="cls-3" d="M881.4,467.21c-1.53,1.68-3.18,9.27-2,12.38,1.49,4,7,4.31,9.6,2.11C896.67,475.14,889.61,458.24,881.4,467.21Z" transform="translate(-228.43 -131.37)"/><path class="cls-8" d="M898.4,541.43c-7.18-1.62-4.79,3.2-11,5.7-3.32,1.35-13.75-1.55-9.86,4.67,2.15,3.43,10,2.48,13.76.38,8.44-4.7,7.74-7.17,7.06-10.75Z" transform="translate(-228.43 -131.37)"/><path class="cls-5" d="M883.78,436.24c-3,3.85,12.48,11.43,14.91,8.89,4.39-4.55-11.56-10.39-11.56-10.39C881.57,434.66,885,434.66,883.78,436.24Z" transform="translate(-228.43 -131.37)"/></g><text class="cls-13" transform="translate(133.59 194.55)">&lt;/</text></g></svg>