<svg width="782" height="663" viewBox="0 0 782 663" fill="none" xmlns="http://www.w3.org/2000/svg">
<g clip-path="url(#clip0_689_15249)">
<path d="M459.228 170.206H436.043C434.861 170.204 433.728 169.734 432.892 168.899C432.056 168.064 431.586 166.931 431.585 165.75V142.581C431.586 141.399 432.056 140.267 432.892 139.432C433.728 138.596 434.861 138.126 436.043 138.125H459.228C460.41 138.126 461.543 138.596 462.379 139.432C463.215 140.267 463.685 141.399 463.686 142.581V165.75C463.685 166.931 463.215 168.064 462.379 168.899C461.543 169.734 460.41 170.204 459.228 170.206ZM436.043 139.907C435.334 139.908 434.654 140.19 434.153 140.691C433.651 141.192 433.369 141.872 433.368 142.581V165.75C433.369 166.459 433.651 167.138 434.153 167.64C434.654 168.141 435.334 168.423 436.043 168.423H459.228C459.937 168.423 460.617 168.141 461.119 167.64C461.62 167.138 461.902 166.459 461.903 165.75V142.581C461.902 141.872 461.62 141.192 461.119 140.691C460.617 140.19 459.937 139.908 459.228 139.907H436.043Z" fill="#E6E6E6"/>
<path d="M189.041 32.0806H165.857C164.675 32.0793 163.542 31.6094 162.706 30.7741C161.87 29.9388 161.4 28.8063 161.398 27.625V4.45565C161.4 3.27435 161.87 2.14182 162.706 1.30652C163.542 0.471218 164.675 0.00135144 165.857 0H189.041C190.223 0.00135144 191.357 0.471218 192.192 1.30652C193.028 2.14182 193.498 3.27435 193.5 4.45565V27.625C193.498 28.8063 193.028 29.9388 192.192 30.7741C191.357 31.6094 190.223 32.0793 189.041 32.0806ZM165.857 1.78226C165.148 1.78303 164.468 2.06494 163.966 2.56613C163.465 3.06732 163.183 3.74686 163.182 4.45565V27.625C163.183 28.3338 163.465 29.0133 163.966 29.5145C164.468 30.0157 165.148 30.2976 165.857 30.2984H189.041C189.751 30.2976 190.43 30.0157 190.932 29.5145C191.434 29.0133 191.716 28.3338 191.716 27.625V4.45565C191.716 3.74686 191.434 3.06732 190.932 2.56613C190.43 2.06494 189.751 1.78303 189.041 1.78226H165.857Z" fill="#E6E6E6"/>
<path d="M444.96 158.621H421.776C420.594 158.62 419.461 158.15 418.625 157.314C417.789 156.479 417.319 155.347 417.317 154.165V130.996C417.319 129.815 417.789 128.682 418.625 127.847C419.461 127.012 420.594 126.542 421.776 126.54H444.96C446.142 126.542 447.276 127.012 448.111 127.847C448.947 128.682 449.417 129.815 449.419 130.996V154.165C449.417 155.347 448.947 156.479 448.111 157.314C447.276 158.15 446.142 158.62 444.96 158.621ZM421.776 128.323C421.067 128.323 420.387 128.605 419.885 129.106C419.384 129.608 419.102 130.287 419.101 130.996V154.165C419.102 154.874 419.384 155.554 419.885 156.055C420.387 156.556 421.067 156.838 421.776 156.839H444.96C445.669 156.838 446.349 156.556 446.851 156.055C447.352 155.554 447.635 154.874 447.635 154.165V130.996C447.635 130.287 447.352 129.608 446.851 129.106C446.349 128.605 445.669 128.323 444.96 128.323H421.776Z" fill="#E6E6E6"/>
<path d="M41.9104 351.996H18.7261C17.544 351.995 16.4108 351.525 15.5749 350.689C14.7391 349.854 14.2689 348.722 14.2676 347.54V324.371C14.2689 323.19 14.7391 322.057 15.5749 321.222C16.4108 320.387 17.544 319.917 18.7261 319.915H41.9104C43.0925 319.917 44.2257 320.387 45.0616 321.222C45.8974 322.057 46.3676 323.19 46.3689 324.371V347.54C46.3676 348.722 45.8974 349.854 45.0616 350.689C44.2257 351.525 43.0925 351.995 41.9104 351.996ZM18.7261 321.698C18.0169 321.698 17.3369 321.98 16.8354 322.481C16.3339 322.983 16.0518 323.662 16.051 324.371V347.54C16.0518 348.249 16.3339 348.929 16.8354 349.43C17.3369 349.931 18.0169 350.213 18.7261 350.214H41.9104C42.6197 350.213 43.2996 349.931 43.8011 349.43C44.3027 348.929 44.5847 348.249 44.5855 347.54V324.371C44.5847 323.662 44.3027 322.983 43.8011 322.481C43.2996 321.98 42.6197 321.698 41.9104 321.698H18.7261Z" fill="#E6E6E6"/>
<path d="M27.6428 340.411H4.45852C3.27646 340.41 2.14321 339.94 1.30736 339.105C0.471522 338.269 0.00135232 337.137 0 335.956V312.786C0.00135232 311.605 0.471522 310.473 1.30736 309.637C2.14321 308.802 3.27646 308.332 4.45852 308.331H27.6428C28.8249 308.332 29.9581 308.802 30.794 309.637C31.6298 310.473 32.1 311.605 32.1014 312.786V335.956C32.1 337.137 31.6298 338.269 30.794 339.105C29.9581 339.94 28.8249 340.41 27.6428 340.411ZM4.45852 310.113C3.74927 310.114 3.0693 310.396 2.56779 310.897C2.06627 311.398 1.78418 312.078 1.78341 312.786V335.956C1.78418 336.664 2.06627 337.344 2.56779 337.845C3.0693 338.346 3.74927 338.628 4.45852 338.629H27.6428C28.3521 338.628 29.0321 338.346 29.5336 337.845C30.0351 337.344 30.3172 336.664 30.3179 335.956V312.786C30.3172 312.078 30.0351 311.398 29.5336 310.897C29.0321 310.396 28.3521 310.114 27.6428 310.113H4.45852Z" fill="#E6E6E6"/>
<path d="M82.4199 76.6715H296.978C307.331 76.6714 317.377 80.1917 325.463 86.6536C333.549 93.1155 339.195 102.135 341.472 112.228L449.884 592.785C451.066 598.026 451.087 603.463 449.945 608.714C448.802 613.964 446.525 618.901 443.271 623.179C440.018 627.457 435.867 630.972 431.111 633.477C426.354 635.982 421.107 637.417 415.737 637.682L195.17 648.542C183.359 649.124 171.74 645.391 162.481 638.041C153.222 630.69 146.955 620.224 144.851 608.595L83.3528 268.836L78.7777 270.143L67.0106 205.746L71.7201 204.569L54.5539 109.73C53.8187 105.668 53.9892 101.494 55.0533 97.505C56.1174 93.5162 58.049 89.8112 60.7102 86.6541C63.3715 83.4969 66.6969 80.9653 70.4495 79.2398C74.202 77.5143 78.2893 76.6374 82.4199 76.6715V76.6715Z" fill="#3F3D56"/>
<path d="M268.732 87.031H293.777C300.97 87.031 307.946 89.4893 313.548 93.9978C319.149 98.5062 323.04 104.794 324.573 111.816L428.633 588.452C429.233 591.197 429.232 594.038 428.632 596.782C428.032 599.526 426.846 602.108 425.155 604.352C423.465 606.596 421.31 608.449 418.837 609.784C416.365 611.12 413.633 611.906 410.828 612.09L190.975 626.49C184.773 626.896 178.638 625.006 173.741 621.18C168.844 617.354 165.528 611.86 164.427 605.746L75.6312 113.097C75.0564 109.908 75.189 106.632 76.0195 103.5C76.8499 100.369 78.358 97.457 80.4374 94.9712C82.5168 92.4855 85.1167 90.4861 88.0538 89.1141C90.9908 87.7421 94.1933 87.0311 97.4353 87.0311H121.195C123.494 87.0311 125.73 87.7886 127.555 89.1865C129.38 90.5844 130.693 92.5447 131.291 94.7638C131.819 96.7228 132.978 98.4533 134.59 99.6874C136.201 100.922 138.175 101.59 140.205 101.59H252.999C256.974 101.59 260.803 100.091 263.72 97.3915C266.637 94.6922 268.427 90.9921 268.732 87.031L268.732 87.031Z" fill="white"/>
<path d="M92.7373 168.072H331.247L356.656 282.488L115.03 286.944L92.7373 168.072Z" fill="#0231C8"/>
<path d="M319.23 384.749H375.382L377.165 395.491H321.014L319.23 384.749Z" fill="#0231C8"/>
<path d="M364.916 329.946L126.773 334.986L126.797 336.106L364.94 331.066L364.916 329.946Z" fill="#2F2E41"/>
<path d="M372.2 362.984L129.574 368.584L129.6 369.704L372.226 364.104L372.2 362.984Z" fill="#2F2E41"/>
<path d="M342.414 499.704H398.566L400.349 510.447H344.197L342.414 499.704Z" fill="#0231C8"/>
<path d="M388.101 444.902L149.958 449.941L149.982 451.061L388.124 446.022L388.101 444.902Z" fill="#2F2E41"/>
<path d="M395.384 477.94L152.759 483.54L152.785 484.66L395.41 479.06L395.384 477.94Z" fill="#2F2E41"/>
<path d="M548.898 651.6L538.273 651.599L533.219 610.645L548.899 610.646L548.898 651.6Z" fill="#A0616A"/>
<path d="M551.607 661.892L517.349 661.891V661.458C517.349 657.924 518.754 654.534 521.254 652.035C523.755 649.536 527.146 648.133 530.683 648.132H530.684L551.607 648.133L551.607 661.892Z" fill="#2F2E41"/>
<path d="M680.884 644.647L670.543 647.081L656.229 608.376L671.492 604.783L680.884 644.647Z" fill="#A0616A"/>
<path d="M685.882 654.045L652.536 661.892L652.437 661.47C651.627 658.03 652.217 654.41 654.077 651.404C655.938 648.399 658.917 646.255 662.359 645.445L662.36 645.445L682.727 640.652L685.882 654.045Z" fill="#2F2E41"/>
<path d="M546.727 478.863C546.747 476.728 547.379 426.361 561.195 407.317L561.399 407.036L609.544 413.674L608.467 424.245C610.585 426.304 627.242 443.698 632.052 484.89L683.154 622.048L659.397 624.206L589.072 474.481L551.857 637.232H528.306L546.727 478.863Z" fill="#2F2E41"/>
<path d="M555.554 409.175L560.26 384.484C559.339 383.299 555.257 377.607 556.165 370.935C556.758 366.582 559.358 362.766 563.894 359.588L576.093 331.143L576.257 331.046C577.079 330.563 596.501 319.339 607.09 329.928C607.354 330.133 633.425 350.815 622.956 378.714L610.032 417.465L555.554 409.175Z" fill="#CCCCCC"/>
<path d="M539.18 442.581C540.449 442.436 541.671 442.015 542.76 441.347C543.848 440.679 544.777 439.781 545.48 438.715C546.184 437.65 546.645 436.443 546.832 435.181C547.018 433.918 546.925 432.629 546.559 431.406L571.751 413.268L556.67 407.536L535.06 425.639C533.045 426.389 531.375 427.852 530.367 429.75C529.359 431.649 529.082 433.851 529.59 435.939C530.098 438.027 531.355 439.857 533.122 441.081C534.89 442.305 537.045 442.839 539.18 442.581Z" fill="#A0616A"/>
<path d="M543.811 413.239L582.27 382.957L570.836 343.919C570.297 342.07 570.145 340.13 570.389 338.221C570.632 336.311 571.267 334.471 572.253 332.817C573.166 331.258 574.395 329.906 575.86 328.849C577.326 327.791 578.997 327.052 580.766 326.677C587.349 325.284 593.326 328.969 598.526 337.629L598.565 337.707C599.426 339.808 619.461 389.304 604.163 399.889C589.198 410.242 554.495 425.315 554.147 425.467L553.74 425.642L543.811 413.239Z" fill="#CCCCCC"/>
<path d="M594.924 319.633C607.791 319.633 618.222 309.209 618.222 296.35C618.222 283.491 607.791 273.067 594.924 273.067C582.057 273.067 571.626 283.491 571.626 296.35C571.626 309.209 582.057 319.633 594.924 319.633Z" fill="#A0616A"/>
<path d="M631.45 288.039C642.833 288.039 652.061 278.817 652.061 267.441C652.061 256.065 642.833 246.843 631.45 246.843C620.067 246.843 610.839 256.065 610.839 267.441C610.839 278.817 620.067 288.039 631.45 288.039Z" fill="#2F2E41"/>
<path d="M649.229 284.497C646.561 286.424 643.47 287.684 640.215 288.173C636.96 288.661 633.635 288.364 630.519 287.305C627.402 286.246 624.585 284.456 622.303 282.086C620.02 279.716 618.339 276.834 617.399 273.681C617.755 276.507 618.693 279.228 620.154 281.672C621.614 284.117 623.567 286.233 625.887 287.885C628.207 289.538 630.845 290.692 633.634 291.275C636.423 291.857 639.303 291.855 642.091 291.27C644.88 290.684 647.516 289.527 649.834 287.871C652.153 286.216 654.102 284.098 655.56 281.651C657.018 279.205 657.953 276.483 658.305 273.657C658.657 270.831 658.419 267.964 657.606 265.234C658.068 268.901 657.534 272.624 656.06 276.013C654.586 279.403 652.226 282.333 649.229 284.497Z" fill="#2F2E41"/>
<path d="M567.888 284.52C571.486 278.082 572.863 275.393 577.502 271.478C581.605 268.016 586.651 267 590.721 270.28C595.537 268.201 600.894 267.729 605.999 268.936C611.104 270.142 615.683 272.962 619.056 276.976C622.429 280.99 624.417 285.985 624.724 291.218C625.031 296.451 623.64 301.643 620.759 306.023C617.878 310.404 613.66 313.738 608.731 315.532C603.802 317.326 598.426 317.483 593.401 315.98C588.376 314.477 583.97 311.394 580.837 307.19C577.705 302.985 576.013 297.883 576.014 292.641C576.017 291.72 576.073 290.8 576.18 289.886C572.642 289.39 571.426 285.016 567.888 284.52Z" fill="#2F2E41"/>
<path d="M781.109 663H441.369C441.133 663 440.906 662.906 440.739 662.739C440.571 662.572 440.478 662.345 440.478 662.109C440.478 661.873 440.571 661.646 440.739 661.479C440.906 661.312 441.133 661.218 441.369 661.218H781.109C781.345 661.218 781.572 661.312 781.739 661.479C781.906 661.646 782 661.873 782 662.109C782 662.345 781.906 662.572 781.739 662.739C781.572 662.906 781.345 663 781.109 663Z" fill="#3F3D56"/>
</g>
<defs>
<clipPath id="clip0_689_15249">
<rect width="782" height="663" fill="white"/>
</clipPath>
</defs>
</svg>
