<svg width="478" height="525" viewBox="0 0 478 525" fill="none" xmlns="http://www.w3.org/2000/svg">
<g clip-path="url(#clip0_689_15117)">
<path d="M201.727 243.569C179.318 243.569 157.412 236.931 138.779 224.494C120.147 212.058 105.625 194.381 97.0494 173.7C88.4739 153.018 86.2301 130.261 90.6019 108.306C94.9737 86.3507 105.765 66.1836 121.61 50.3548C137.456 34.526 157.644 23.7464 179.622 19.3793C201.601 15.0121 224.382 17.2535 245.085 25.82C265.788 34.3865 283.484 48.8933 295.933 67.506C308.383 86.1187 315.028 108.001 315.028 130.387C314.994 160.394 303.046 189.163 281.805 210.381C260.564 231.599 231.766 243.535 201.727 243.569V243.569ZM201.727 18.9869C179.67 18.9869 158.11 25.5204 139.771 37.7611C121.432 50.0019 107.138 67.4002 98.6979 87.7558C90.2574 108.111 88.049 130.51 92.3519 152.12C96.6548 173.729 107.276 193.579 122.872 209.158C138.468 224.738 158.338 235.348 179.971 239.646C201.603 243.944 224.025 241.738 244.402 233.307C264.78 224.875 282.196 210.597 294.45 192.277C306.704 173.957 313.244 152.419 313.244 130.387C313.21 100.852 301.451 72.5363 280.544 51.652C259.638 30.7677 231.292 19.0203 201.727 18.9869Z" fill="#F2F2F2"/>
<path d="M210.373 155.153H283.022C283.259 155.153 283.486 155.059 283.653 154.892C283.82 154.725 283.914 154.498 283.914 154.262C283.914 154.025 283.82 153.799 283.653 153.631C283.486 153.464 283.259 153.37 283.022 153.37H210.373C210.136 153.37 209.909 153.464 209.742 153.631C209.574 153.799 209.48 154.025 209.48 154.262C209.48 154.498 209.574 154.725 209.742 154.892C209.909 155.059 210.136 155.153 210.373 155.153Z" fill="#3F3D56"/>
<path d="M301.122 152.479C295.058 152.486 289.245 154.895 284.957 159.179C280.669 163.462 278.257 169.27 278.25 175.327V272.223C278.257 278.28 280.669 284.088 284.957 288.371C289.245 292.655 295.058 295.064 301.122 295.071H451.648C457.712 295.064 463.526 292.655 467.814 288.371C472.102 284.088 474.514 278.28 474.521 272.223V175.327C474.514 169.27 472.102 163.462 467.814 159.179C463.526 154.895 457.712 152.486 451.648 152.479H301.122Z" fill="white"/>
<path d="M451.649 295.962H301.123C294.822 295.955 288.782 293.452 284.327 289.001C279.872 284.551 277.366 278.517 277.358 272.223V175.327C277.366 169.034 279.872 162.999 284.327 158.549C288.782 154.099 294.822 151.595 301.123 151.588H451.649C457.949 151.595 463.99 154.099 468.445 158.549C472.9 162.999 475.406 169.034 475.413 175.327V272.223C475.406 278.517 472.9 284.551 468.445 289.001C463.99 293.452 457.949 295.955 451.649 295.962V295.962ZM301.123 153.37C295.295 153.377 289.708 155.692 285.588 159.809C281.467 163.925 279.149 169.506 279.143 175.327V272.223C279.149 278.044 281.467 283.625 285.588 287.741C289.708 291.858 295.295 294.173 301.123 294.18H451.649C457.476 294.173 463.063 291.858 467.184 287.741C471.305 283.625 473.622 278.044 473.629 272.223V175.327C473.622 169.506 471.305 163.925 467.184 159.809C463.063 155.692 457.476 153.377 451.649 153.37H301.123Z" fill="#3F3D56"/>
<path d="M207.792 146.81C205.541 147.201 203.532 148.453 202.192 150.301C200.852 152.148 200.286 154.445 200.616 156.703C200.69 157.161 200.802 157.612 200.951 158.051L156.07 197.563L172.694 209.195L212.358 163.04C214.134 162.283 215.61 160.96 216.554 159.277C217.499 157.595 217.859 155.647 217.579 153.738C217.409 152.654 217.027 151.613 216.455 150.676C215.882 149.739 215.131 148.924 214.243 148.277C213.355 147.63 212.349 147.164 211.281 146.906C210.212 146.648 209.104 146.602 208.018 146.772C207.943 146.783 207.867 146.796 207.792 146.81Z" fill="#A0616A"/>
<path d="M190.768 191.523C190.768 191.523 180.642 203.171 168.312 216.36C167.456 217.269 166.599 218.187 165.716 219.114C158.222 227.046 150.148 235.28 143.145 241.67C135.678 248.506 129.424 253.265 126.391 253.381C126.138 253.397 125.885 253.37 125.641 253.3C116.568 250.573 124.044 253.817 120.164 259.352C116.265 264.895 116.747 257.623 108.013 253.3C99.2965 248.978 103.936 253.274 100.456 260.1C99.3768 262.239 89.9023 261.802 77.4123 260.198C76.0028 248.301 73.9508 238.034 73.9508 238.034C73.9253 230.898 74.655 223.78 76.1277 216.797C97.8869 216.405 115.881 216.182 116.8 216.467C119.173 217.189 124.276 215.362 129.915 212.181C130.718 211.726 132.234 210.674 134.242 209.195C136.017 207.894 138.158 206.272 140.54 204.454C143.217 202.386 147.775 201.254 149.256 197.654C153.556 187.263 152.084 195.016 153.235 194.535C154.547 193.982 156.866 193.768 158.222 192.975C158.593 192.813 158.899 192.53 159.088 192.172C159.278 191.815 159.34 191.404 159.266 191.006C159.2 190.667 159.086 190.34 158.927 190.034C157.696 187.566 159.569 187.325 161.336 187.067C162.068 187.031 162.781 186.82 163.415 186.452C170.507 180.801 175.878 176.461 175.878 176.461L177.805 178.422L177.814 178.431L189.215 189.963L190.768 191.523Z" fill="#3F3D56"/>
<path d="M181.04 523.906H68.2938C63.4676 523.906 59.541 518.954 59.541 512.869V393.192C59.541 387.106 63.4677 382.155 68.2938 382.155H181.04C185.867 382.155 189.793 387.106 189.793 393.192V512.869C189.793 518.954 185.867 523.906 181.04 523.906Z" fill="#F2F2F2"/>
<path d="M0.999896 523.661C0.9664 523.979 1.05879 524.297 1.25726 524.547C1.45574 524.797 1.7445 524.96 2.0616 525H476.938C477.24 524.929 477.51 524.758 477.702 524.515C477.895 524.272 478 523.971 478 523.661C478 523.351 477.895 523.05 477.702 522.807C477.51 522.564 477.24 522.393 476.938 522.323H2.06154C1.74446 522.363 1.45573 522.525 1.25726 522.776C1.0588 523.026 0.966411 523.344 0.999896 523.661V523.661Z" fill="#CCCCCC"/>
<path d="M259.332 507.309L270.699 507.308L276.107 463.508L259.329 463.509L259.332 507.309Z" fill="#A0616A"/>
<path d="M258.931 519.156L293.888 519.154V518.713C293.888 515.108 292.454 511.651 289.903 509.102C287.351 506.553 283.891 505.121 280.282 505.121H280.281L273.896 500.282L261.982 505.122L258.931 505.122L258.931 519.156Z" fill="#2F2E41"/>
<path d="M188.726 502.088L199.668 505.164L216.757 464.467L200.607 459.925L188.726 502.088Z" fill="#A0616A"/>
<path d="M185.126 513.382L218.775 522.845L218.895 522.42C219.873 518.95 219.431 515.234 217.666 512.09C215.901 508.946 212.959 506.63 209.485 505.653L209.485 505.653L204.651 499.266L191.87 500.699L188.933 499.873L185.126 513.382Z" fill="#2F2E41"/>
<path d="M159.596 315.568C159.596 315.568 155.956 315.206 165.288 318.433C175.387 321.935 190.714 321.48 205.39 326.739C209.922 328.361 214.516 330.018 219.075 331.676C219.994 332.006 220.913 332.344 221.832 332.674C227.765 334.84 233.599 337.005 239.113 339.073C239.889 339.367 240.656 339.661 241.414 339.946C241.432 339.955 241.45 339.955 241.459 339.964C259.436 346.791 273.576 352.637 275.913 354.972C278.411 357.467 279.446 374.329 279.732 395.165C280.249 433.78 278.206 486.058 278.206 486.058L257.178 485.978C257.178 485.978 257.045 485.514 256.786 484.65C256.322 483.055 255.457 480.087 254.306 476.21C249.524 460.017 239.898 427.925 234.581 413.229C233.082 409.076 231.922 406.314 231.306 405.69C227.738 402.036 231.306 400.423 234.875 398.106C238.444 395.789 234.875 395.076 232.252 392.046C229.629 389.016 233.233 382.189 233.233 382.189C233.233 382.189 230.86 382.127 227.078 382.029C221.493 381.886 212.804 381.672 204.105 381.458C204.096 381.467 204.096 381.467 204.096 381.458C200.822 381.378 197.548 381.298 194.443 381.227C192.034 381.164 189.724 381.111 187.583 381.057C181.168 380.915 176.315 380.817 175.102 380.817C171.141 380.817 174.218 380.817 171.828 377.688C171.461 377.221 171.064 376.778 170.641 376.361C170.041 375.693 169.385 375.079 168.678 374.525C168.179 374.293 168.857 375.728 168.482 377.59C168.277 378.6 167.799 379.534 167.099 380.291C163.557 384.221 152.691 379.979 152.691 379.979C134.813 388.909 120.146 388.267 108.851 384.087C100.738 380.964 93.4611 376.004 87.5918 369.596C85.2686 367.156 83.1835 364.5 81.3646 361.665L79.8926 361.388C79.8926 361.388 77.9119 295.098 80.1958 290.615C83.7554 283.628 136.401 288.833 136.401 288.833L159.596 315.568Z" fill="#2F2E41"/>
<path d="M257.656 47.3178H330.305C330.542 47.3178 330.769 47.2239 330.936 47.0568C331.104 46.8897 331.198 46.663 331.198 46.4266C331.198 46.1903 331.104 45.9636 330.936 45.7965C330.769 45.6293 330.542 45.5354 330.305 45.5354H257.656C257.419 45.5354 257.192 45.6293 257.025 45.7965C256.858 45.9636 256.764 46.1903 256.764 46.4266C256.764 46.663 256.858 46.8897 257.025 47.0568C257.192 47.2239 257.419 47.3178 257.656 47.3178Z" fill="#3F3D56"/>
<path d="M356.015 118.192C341.285 98.6205 332.771 76.7343 332.492 51.7822C332.018 50.4375 332.096 48.9597 332.711 47.673C333.326 46.3862 334.427 45.3956 335.772 44.9185L385.979 27.1726C387.325 26.6985 388.804 26.7772 390.093 27.3913C391.381 28.0055 392.372 29.105 392.85 30.4486L416.372 96.8586C416.847 98.2033 416.768 99.6812 416.153 100.968C415.539 102.255 414.438 103.245 413.093 103.722L362.886 121.468C361.539 121.942 360.06 121.864 358.772 121.25C357.484 120.635 356.492 119.536 356.015 118.192V118.192Z" fill="#E6E6E6"/>
<path d="M352.761 96.7725C343.902 87.8245 340.11 71.8654 337.639 54.078C337.194 52.8187 337.268 51.4347 337.844 50.2296C338.42 49.0245 339.45 48.0968 340.71 47.65L383.859 32.3988C385.12 31.9548 386.505 32.0284 387.712 32.6036C388.918 33.1787 389.847 34.2085 390.294 35.4668L411.226 94.5628C411.67 95.8221 411.597 97.2062 411.021 98.4113C410.445 99.6164 409.414 100.544 408.154 100.991L381.425 110.439C375.809 112.416 369.638 112.088 364.264 109.526C358.89 106.964 354.754 102.378 352.761 96.7725V96.7725Z" fill="white"/>
<path d="M390.872 67.3021L357.261 79.2872C356.996 79.3816 356.715 79.423 356.434 79.409C356.153 79.395 355.878 79.3259 355.624 79.2056C355.37 79.0853 355.142 78.9162 354.953 78.7079C354.764 78.4996 354.619 78.2562 354.524 77.9917C354.429 77.7271 354.388 77.4465 354.402 77.166C354.416 76.8854 354.485 76.6104 354.606 76.3565C354.726 76.1027 354.895 75.875 355.104 75.6865C355.312 75.498 355.556 75.3524 355.821 75.258L389.433 63.2729C389.698 63.1785 389.978 63.1371 390.259 63.151C390.54 63.165 390.816 63.2342 391.07 63.3545C391.324 63.4748 391.552 63.6439 391.74 63.8522C391.929 64.0604 392.075 64.3038 392.169 64.5684C392.264 64.8329 392.305 65.1135 392.291 65.3941C392.277 65.6746 392.208 65.9497 392.088 66.2035C391.967 66.4574 391.798 66.685 391.589 66.8735C391.381 67.062 391.137 67.2076 390.872 67.3021V67.3021Z" fill="#0231C8"/>
<path d="M360.707 65.6023L353.312 68.239C352.778 68.429 352.189 68.3992 351.676 68.1562C351.164 67.9131 350.769 67.4767 350.578 66.9428C350.387 66.4088 350.416 65.8211 350.659 65.3086C350.902 64.7962 351.338 64.401 351.873 64.2098L359.267 61.5731C359.802 61.3824 360.391 61.4117 360.904 61.6547C361.417 61.8976 361.813 62.3343 362.004 62.8686C362.195 63.4029 362.165 63.9911 361.922 64.5037C361.679 65.0164 361.242 65.4115 360.707 65.6023V65.6023Z" fill="#0231C8"/>
<path d="M397.202 85.0153L363.59 97.0004C363.325 97.0949 363.044 97.1363 362.763 97.1223C362.482 97.1083 362.207 97.0391 361.953 96.9188C361.699 96.7985 361.471 96.6294 361.282 96.4212C361.093 96.2129 360.948 95.9695 360.853 95.7049C360.759 95.4404 360.717 95.1598 360.731 94.8793C360.745 94.5987 360.814 94.3236 360.935 94.0698C361.055 93.8159 361.225 93.5883 361.433 93.3998C361.642 93.2113 361.885 93.0657 362.15 92.9712L395.762 80.9862C396.027 80.8914 396.308 80.8497 396.589 80.8635C396.87 80.8773 397.145 80.9463 397.4 81.0665C397.654 81.1868 397.882 81.3559 398.071 81.5643C398.26 81.7727 398.406 82.0162 398.5 82.2809C398.595 82.5456 398.637 82.8264 398.622 83.1071C398.608 83.3879 398.539 83.6631 398.418 83.917C398.298 84.171 398.128 84.3987 397.919 84.5872C397.711 84.7756 397.467 84.9211 397.202 85.0153H397.202Z" fill="#0231C8"/>
<path d="M394.037 76.1587L360.425 88.1438C359.89 88.3345 359.301 88.3052 358.788 88.0622C358.275 87.8193 357.879 87.3826 357.688 86.8483C357.497 86.314 357.527 85.7258 357.77 85.2132C358.013 84.7005 358.45 84.3053 358.985 84.1146L392.597 72.1295C393.131 71.9395 393.72 71.9693 394.233 72.2123C394.745 72.4554 395.141 72.8918 395.331 73.4257C395.522 73.9597 395.493 74.5475 395.25 75.0599C395.007 75.5724 394.571 75.9676 394.037 76.1587V76.1587Z" fill="#0231C8"/>
<path d="M335.347 58.9034C340.274 58.9034 344.269 54.9134 344.269 49.9914C344.269 45.0695 340.274 41.0795 335.347 41.0795C330.42 41.0795 326.426 45.0695 326.426 49.9914C326.426 54.9134 330.42 58.9034 335.347 58.9034Z" fill="#0231C8"/>
<path d="M173.945 30.3851H101.295C101.059 30.3851 100.832 30.2912 100.665 30.124C100.497 29.9569 100.403 29.7302 100.403 29.4939C100.403 29.2575 100.497 29.0308 100.665 28.8637C100.832 28.6966 101.059 28.6027 101.295 28.6027H173.945C174.182 28.6027 174.409 28.6966 174.576 28.8637C174.743 29.0308 174.837 29.2575 174.837 29.4939C174.837 29.7302 174.743 29.9569 174.576 30.124C174.409 30.2912 174.182 30.3851 173.945 30.3851Z" fill="#3F3D56"/>
<path d="M7.34781 61.9972C13.6574 38.3362 25.6286 18.1291 45.0999 2.4974C45.8654 1.29399 47.0775 0.443044 48.4702 0.131227C49.863 -0.18059 51.3227 0.0721943 52.5291 0.834125L97.5121 29.3153C98.7167 30.08 99.5686 31.2908 99.8807 32.682C100.193 34.0733 99.9398 35.5315 99.1771 36.7366L61.4249 96.2364C60.6595 97.4398 59.4474 98.2907 58.0547 98.6026C56.6619 98.9144 55.2022 98.6616 53.9958 97.8997L9.01284 69.4185C7.80816 68.6538 6.95631 67.4431 6.64416 66.0518C6.33201 64.6605 6.58507 63.2023 7.34781 61.9972V61.9972Z" fill="#E6E6E6"/>
<path d="M22.2013 46.2104C23.7735 33.7237 33.995 20.8868 46.4718 7.95859C47.1887 6.83154 48.3238 6.03456 49.6282 5.74253C50.9326 5.4505 52.2996 5.68727 53.4294 6.40087L92.0885 30.878C93.2168 31.5942 94.0146 32.7281 94.307 34.0311C94.5994 35.3341 94.3624 36.6998 93.6481 37.8285L60.0538 90.7752C59.3369 91.9022 58.2017 92.6991 56.8973 92.9911C55.5929 93.2831 54.2259 93.0464 53.096 92.3327L29.1475 77.1696C24.122 73.9798 20.5683 68.9288 19.2661 63.1248C17.9639 57.3209 19.0195 51.2379 22.2013 46.2104Z" fill="white"/>
<path d="M68.9421 57.9464L38.7452 38.9441C38.2653 38.6415 37.9253 38.1609 37.8 37.6079C37.6746 37.055 37.7741 36.475 38.0766 35.9953C38.3791 35.5156 38.8598 35.1755 39.4132 35.0497C39.9666 34.9239 40.5474 35.0226 41.0279 35.3243L71.2248 54.3266C71.463 54.4762 71.6694 54.6712 71.8322 54.9005C71.9949 55.1298 72.1108 55.3889 72.1733 55.663C72.2357 55.9371 72.2434 56.2208 72.1961 56.4979C72.1487 56.7749 72.0471 57.04 71.8971 57.2778C71.7471 57.5157 71.5517 57.7216 71.322 57.884C71.0923 58.0463 70.8328 58.1618 70.5583 58.2239C70.2839 58.286 69.9999 58.2935 69.7226 58.2459C69.4452 58.1982 69.18 58.0965 68.9421 57.9464Z" fill="#0231C8"/>
<path d="M51.6481 33.199L45.0048 29.0185C44.7665 28.8689 44.5602 28.6739 44.3974 28.4446C44.2347 28.2153 44.1188 27.9562 44.0563 27.6821C43.9939 27.408 43.9861 27.1243 44.0335 26.8472C44.0809 26.5701 44.1825 26.3051 44.3324 26.0673C44.4824 25.8294 44.6779 25.6234 44.9076 25.4611C45.1373 25.2988 45.3968 25.1832 45.6713 25.1212C45.9457 25.0591 46.2297 25.0516 46.507 25.0992C46.7843 25.1468 47.0495 25.2486 47.2875 25.3987L53.9308 29.5792C54.169 29.7287 54.3754 29.9238 54.5382 30.1531C54.7009 30.3824 54.8168 30.6415 54.8793 30.9156C54.9417 31.1897 54.9495 31.4734 54.9021 31.7504C54.8547 32.0275 54.7531 32.2926 54.6031 32.5304C54.4531 32.7682 54.2577 32.9742 54.028 33.1365C53.7983 33.2989 53.5388 33.4144 53.2643 33.4765C52.9899 33.5386 52.7059 33.546 52.4286 33.4984C52.1512 33.4508 51.886 33.3491 51.6481 33.199V33.199Z" fill="#0231C8"/>
<path d="M58.9068 73.86L28.7099 54.8578C28.4717 54.7082 28.2653 54.5132 28.1025 54.2839C27.9398 54.0545 27.8238 53.7954 27.7614 53.5214C27.699 53.2473 27.6912 52.9636 27.7386 52.6865C27.786 52.4094 27.8876 52.1444 28.0375 51.9065C28.1875 51.6687 28.3829 51.4627 28.6127 51.3004C28.8424 51.1381 29.1019 51.0225 29.3763 50.9604C29.6508 50.8983 29.9348 50.8909 30.2121 50.9385C30.4894 50.9861 30.7546 51.0879 30.9926 51.2379L61.1895 70.2402C61.6694 70.5429 62.0093 71.0235 62.1347 71.5764C62.2601 72.1294 62.1606 72.7094 61.8581 73.1891C61.5556 73.6688 61.0748 74.0089 60.5214 74.1347C59.968 74.2605 59.3873 74.1617 58.9068 73.86V73.86Z" fill="#0231C8"/>
<path d="M63.9244 65.9032L33.7274 46.9009C33.4892 46.7514 33.2828 46.5563 33.1201 46.327C32.9573 46.0977 32.8414 45.8386 32.779 45.5645C32.7165 45.2904 32.7088 45.0068 32.7562 44.7297C32.8035 44.4526 32.9051 44.1875 33.0551 43.9497C33.2051 43.7119 33.4005 43.5059 33.6302 43.3436C33.86 43.1812 34.1195 43.0657 34.3939 43.0036C34.6683 42.9415 34.9523 42.9341 35.2297 42.9817C35.507 43.0293 35.7722 43.1311 36.0101 43.2811L66.2071 62.2834C66.6876 62.5858 67.0282 63.0665 67.1539 63.6197C67.2797 64.173 67.1803 64.7535 66.8776 65.2335C66.7277 65.4712 66.5324 65.677 66.3029 65.8393C66.0734 66.0016 65.8141 66.1171 65.5398 66.1793C64.986 66.3049 64.4049 66.2056 63.9244 65.9032L63.9244 65.9032Z" fill="#0231C8"/>
<path d="M96.2534 41.9706C101.181 41.9706 105.175 37.9806 105.175 33.0587C105.175 28.1367 101.181 24.1467 96.2534 24.1467C91.3263 24.1467 87.332 28.1367 87.332 33.0587C87.332 37.9806 91.3263 41.9706 96.2534 41.9706Z" fill="#0231C8"/>
<path d="M288.064 166.738C292.991 166.738 296.985 162.748 296.985 157.826C296.985 152.904 292.991 148.914 288.064 148.914C283.137 148.914 279.143 152.904 279.143 157.826C279.143 162.748 283.137 166.738 288.064 166.738Z" fill="#0231C8"/>
<path d="M246.301 380.521C242.581 400.769 226.817 448.226 217.289 476.004C212.944 488.695 212.587 483.918 212.587 483.918L207.636 482.359L199.286 479.721L196.234 478.758L192.541 477.591C192.541 477.591 190.73 445.311 190.15 421.098C189.954 413.291 189.615 407.712 189.053 406.607C186.733 402.062 190.614 401.58 194.709 400.431C198.813 399.281 195.61 397.552 194.013 393.863C192.933 391.403 195.057 388.132 196.565 386.261C196.98 385.735 197.424 385.232 197.894 384.755C197.894 384.755 187.456 381.208 175.653 377.206C175.644 377.215 175.644 377.206 175.644 377.206C174.457 376.805 173.262 376.404 172.066 375.994C176.224 374.497 178.989 373.338 179.614 372.723C183.272 369.159 184.886 372.723 187.206 376.288C189.526 379.853 190.239 376.288 193.273 373.668C196.306 371.048 203.14 374.648 203.14 374.648C203.14 374.648 203.202 372.278 203.3 368.499C203.443 362.92 203.657 354.24 203.871 345.551C203.862 345.542 203.862 345.542 203.871 345.542C203.951 342.271 204.032 339 204.103 335.899C210.393 340.711 216.495 345.435 222.026 349.802C222.035 349.811 222.053 349.82 222.053 349.837C235.355 360.336 245.338 368.766 246.738 371.44C247.372 372.652 247.158 375.869 246.301 380.521Z" fill="#2F2E41"/>
<path d="M160.488 304.874L157.204 307.004L148.801 312.458L137.399 319.846L76.6265 359.237C76.6265 359.237 69.1147 343.944 75.9931 330.648C76.8783 328.965 77.5984 327.201 78.1431 325.381C80.9266 315.845 75.5738 311.71 75.5738 311.71C75.5738 311.71 66.6524 303.038 75.208 295.044C76.9655 293.404 77.9468 290.045 78.3929 285.731C79.1423 278.637 78.4554 268.977 77.4116 260.198C76.002 248.301 73.9501 238.034 73.9501 238.034C73.9245 230.898 74.6542 223.78 76.1269 216.797C77.7595 209.275 80.3824 202.128 84.2632 196.192C85.6864 193.99 87.3273 191.936 89.161 190.061C91.7271 187.433 94.7307 185.271 98.0378 183.671C102.998 181.283 111.5 182.718 118.994 183.76C120.502 183.965 121.965 184.161 123.348 184.304C124.719 184.463 126.098 184.549 127.478 184.562L130.583 195.881L131.761 200.167L132.349 202.315L133.688 207.199L134.241 209.195L143.144 241.67L150.415 268.157L154.43 282.79L160.434 304.669L160.488 304.874Z" fill="#3F3D56"/>
<path d="M110.749 176.769C125.706 176.769 137.83 164.657 137.83 149.717C137.83 134.776 125.706 122.664 110.749 122.664C95.7926 122.664 83.668 134.776 83.668 149.717C83.668 164.657 95.7926 176.769 110.749 176.769Z" fill="#A0616A"/>
<path d="M105.677 172.078L103.471 179.124C98.5795 176.712 93.6225 174.256 89.5496 170.631C85.4768 167.006 82.3266 162.004 82.1338 156.558C82.0342 153.746 82.716 150.909 82.2482 148.134C81.7196 144.998 79.782 142.279 78.8951 139.225C78.0654 136.026 78.3778 132.639 79.7784 129.645C81.1789 126.651 83.5802 124.239 86.569 122.822C91.0581 120.852 96.1913 121.405 101.071 120.929C105.952 120.452 111.395 118.247 112.769 113.545C113.283 111.787 113.224 109.714 114.796 108.563C115.586 108.035 116.544 107.818 117.484 107.954C118.425 108.09 119.282 108.569 119.89 109.298C122.188 111.905 121.622 115.337 121.02 118.458C124.185 118.045 127.229 116.976 129.956 115.32C132.683 113.664 135.034 111.456 136.857 108.84C137.714 109.64 138.402 110.603 138.884 111.671C139.365 112.74 139.63 113.893 139.663 115.064C139.695 116.235 139.495 117.401 139.074 118.495C138.653 119.588 138.019 120.588 137.209 121.435C138.748 121.436 140.242 120.918 141.45 119.966C142.658 119.014 143.51 117.683 143.868 116.188C145.737 118.767 147.655 121.456 148.256 124.583C148.857 127.709 147.742 131.407 144.872 132.79C143.407 133.368 141.835 133.626 140.261 133.544L128.229 133.773C124.651 133.84 121.239 135.296 118.716 137.832C116.193 140.367 114.757 143.784 114.71 147.359C111.21 147.023 107.604 146.694 104.294 148.167C102.752 148.815 101.452 149.931 100.578 151.356C98.3907 155.11 100.561 159.012 102.485 162.426C104.129 165.345 105.688 168.86 104.323 171.919" fill="#2F2E41"/>
<path d="M229.3 446.756L179.093 429.01C177.748 428.533 176.647 427.542 176.032 426.255C175.418 424.968 175.339 423.491 175.813 422.146L199.336 355.736C199.814 354.392 200.805 353.293 202.093 352.679C203.381 352.065 204.861 351.986 206.207 352.46L256.414 370.206C257.759 370.683 258.86 371.674 259.475 372.96C260.089 374.247 260.168 375.725 259.694 377.07C259.415 402.022 250.901 423.908 236.171 443.48C235.694 444.823 234.702 445.923 233.414 446.537C232.126 447.151 230.646 447.23 229.3 446.756V446.756Z" fill="#E6E6E6"/>
<path d="M210.761 435.726L184.032 426.278C182.772 425.831 181.741 424.904 181.165 423.699C180.589 422.493 180.516 421.109 180.96 419.85L201.892 360.754C202.339 359.496 203.268 358.466 204.474 357.891C205.681 357.316 207.066 357.242 208.327 357.686L251.476 372.937C252.736 373.384 253.766 374.312 254.342 375.517C254.918 376.722 254.992 378.106 254.547 379.365C252.076 397.153 248.284 413.112 239.425 422.06C237.432 427.665 233.296 432.252 227.922 434.814C222.548 437.376 216.377 437.704 210.761 435.726V435.726Z" fill="white"/>
<path d="M200.017 389.856C200.209 389.322 200.605 388.886 201.118 388.643C201.631 388.4 202.219 388.37 202.754 388.56L236.366 400.545C236.631 400.64 236.875 400.785 237.084 400.973C237.293 401.162 237.462 401.39 237.583 401.644C237.703 401.898 237.773 402.173 237.787 402.453C237.801 402.734 237.759 403.015 237.665 403.28C237.57 403.544 237.424 403.788 237.235 403.996C237.047 404.205 236.818 404.374 236.564 404.494C236.31 404.614 236.034 404.683 235.753 404.697C235.472 404.711 235.191 404.669 234.926 404.574L201.314 392.589C200.78 392.398 200.343 392.003 200.1 391.49C199.857 390.978 199.827 390.39 200.017 389.856Z" fill="#0231C8"/>
<path d="M230.183 388.156C230.374 387.622 230.77 387.186 231.283 386.943C231.796 386.7 232.384 386.67 232.919 386.86L240.314 389.497C240.579 389.592 240.822 389.737 241.031 389.926C241.239 390.114 241.409 390.342 241.529 390.596C241.649 390.85 241.719 391.125 241.733 391.405C241.747 391.686 241.705 391.966 241.611 392.231C241.516 392.495 241.37 392.739 241.182 392.947C240.993 393.155 240.765 393.324 240.511 393.445C240.257 393.565 239.981 393.634 239.701 393.648C239.42 393.662 239.139 393.621 238.874 393.526L231.479 390.89C230.945 390.698 230.508 390.303 230.265 389.791C230.022 389.278 229.992 388.69 230.183 388.156V388.156Z" fill="#0231C8"/>
<path d="M193.687 407.569C193.879 407.035 194.275 406.599 194.788 406.356C195.301 406.113 195.889 406.083 196.424 406.273L230.036 418.259C230.301 418.353 230.545 418.498 230.754 418.687C230.962 418.875 231.132 419.103 231.253 419.357C231.373 419.611 231.443 419.886 231.457 420.167C231.471 420.447 231.429 420.728 231.335 420.993C231.24 421.258 231.094 421.501 230.905 421.71C230.717 421.918 230.488 422.087 230.234 422.207C229.98 422.328 229.704 422.397 229.423 422.41C229.142 422.424 228.861 422.382 228.596 422.288L194.984 410.303C194.45 410.111 194.013 409.716 193.77 409.204C193.527 408.691 193.497 408.103 193.687 407.569V407.569Z" fill="#0231C8"/>
<path d="M196.852 398.712C197.044 398.178 197.44 397.742 197.953 397.499C198.466 397.256 199.054 397.227 199.589 397.417L233.201 409.402C233.466 409.496 233.71 409.642 233.919 409.83C234.127 410.019 234.297 410.246 234.418 410.5C234.538 410.754 234.608 411.029 234.622 411.31C234.636 411.591 234.594 411.872 234.5 412.136C234.405 412.401 234.259 412.645 234.07 412.853C233.882 413.061 233.653 413.23 233.399 413.351C233.145 413.471 232.869 413.54 232.588 413.554C232.307 413.568 232.026 413.526 231.761 413.431L198.149 401.446C197.615 401.255 197.178 400.86 196.935 400.347C196.692 399.835 196.662 399.247 196.852 398.712V398.712Z" fill="#0231C8"/>
<path d="M214.08 353.426C213.437 351.237 211.965 349.385 209.975 348.263C207.986 347.142 205.637 346.841 203.429 347.423C202.982 347.549 202.546 347.711 202.126 347.908L157.748 307.833L148.06 325.649L198.455 359.795C199.408 361.472 200.891 362.787 202.672 363.534C204.452 364.281 206.43 364.418 208.297 363.924C209.356 363.633 210.348 363.136 211.215 362.462C212.083 361.788 212.808 360.95 213.351 359.995C213.894 359.041 214.244 357.989 214.38 356.9C214.516 355.811 214.436 354.705 214.145 353.647C214.124 353.573 214.103 353.499 214.08 353.426Z" fill="#A0616A"/>
<path d="M180.971 325.104L179.241 327.243L169.052 339.871L167.678 341.583C167.678 341.583 153.128 331.601 137.399 319.846C118.522 305.721 97.9489 289.029 98.8678 283.94C100.554 274.627 98.1719 282.407 92.2213 279.181C86.2797 275.946 93.5595 275.598 96.8694 266.446C100.188 257.302 96.4412 262.391 89.2594 259.717C84.4686 257.935 86.9755 217.047 89.1613 190.061C91.7273 187.433 94.7309 185.271 98.0381 183.671C103.989 180.802 115.06 183.448 123.348 184.304C128.041 218.856 134.812 269.396 134.509 270.991C134.045 273.424 136.454 278.281 140.254 283.521C142.038 285.999 151.236 295.418 160.434 304.669C170.694 314.989 180.971 325.104 180.971 325.104Z" fill="#3F3D56"/>
<path d="M399.706 197.905H305.249C304.981 197.906 304.716 197.854 304.468 197.752C304.221 197.65 303.996 197.5 303.806 197.311C303.617 197.122 303.466 196.897 303.363 196.65C303.261 196.403 303.208 196.138 303.208 195.871C303.208 195.603 303.261 195.338 303.363 195.091C303.466 194.844 303.617 194.619 303.806 194.43C303.996 194.241 304.221 194.091 304.468 193.989C304.716 193.887 304.981 193.835 305.249 193.836H399.706C400.245 193.837 400.762 194.052 401.144 194.433C401.525 194.815 401.739 195.332 401.739 195.871C401.739 196.41 401.525 196.926 401.144 197.308C400.762 197.689 400.245 197.904 399.706 197.905V197.905Z" fill="#0231C8"/>
<path d="M447.522 216.508H305.249C304.981 216.509 304.716 216.457 304.468 216.355C304.221 216.253 303.996 216.103 303.806 215.914C303.617 215.725 303.466 215.5 303.363 215.253C303.261 215.006 303.208 214.741 303.208 214.474C303.208 214.206 303.261 213.941 303.363 213.694C303.466 213.447 303.617 213.222 303.806 213.033C303.996 212.844 304.221 212.694 304.468 212.592C304.716 212.49 304.981 212.438 305.249 212.439H447.522C448.061 212.44 448.578 212.655 448.959 213.036C449.34 213.418 449.554 213.935 449.554 214.474C449.554 215.013 449.34 215.529 448.959 215.911C448.578 216.292 448.061 216.507 447.522 216.508Z" fill="#F2F2F2"/>
<path d="M447.525 231.039H305.247C304.706 231.039 304.187 231.253 303.805 231.635C303.423 232.017 303.208 232.535 303.208 233.075C303.208 233.615 303.423 234.133 303.805 234.515C304.187 234.897 304.706 235.111 305.247 235.111H447.525C448.066 235.111 448.584 234.897 448.966 234.515C449.349 234.133 449.563 233.615 449.563 233.075C449.563 232.535 449.349 232.017 448.966 231.635C448.584 231.253 448.066 231.039 447.525 231.039V231.039Z" fill="#F2F2F2"/>
<path d="M447.522 253.714H305.249C304.981 253.715 304.716 253.663 304.468 253.561C304.221 253.459 303.996 253.309 303.806 253.12C303.617 252.931 303.466 252.706 303.363 252.459C303.261 252.212 303.208 251.947 303.208 251.68C303.208 251.412 303.261 251.147 303.363 250.9C303.466 250.653 303.617 250.428 303.806 250.239C303.996 250.05 304.221 249.9 304.468 249.798C304.716 249.696 304.981 249.644 305.249 249.645H447.522C448.061 249.646 448.578 249.861 448.959 250.242C449.34 250.624 449.554 251.141 449.554 251.68C449.554 252.218 449.34 252.735 448.959 253.117C448.578 253.498 448.061 253.713 447.522 253.714Z" fill="#F2F2F2"/>
</g>
<defs>
<clipPath id="clip0_689_15117">
<rect width="478" height="525" fill="white"/>
</clipPath>
</defs>
</svg>
