<svg width="537" height="539" viewBox="0 0 537 539" fill="none" xmlns="http://www.w3.org/2000/svg">
<g clip-path="url(#clip0_689_15164)">
<path d="M534.476 32.5897L0.464776 96.7427C0.402748 96.7504 0.339841 96.7398 0.283742 96.7123C0.225373 96.6829 0.17476 96.6402 0.136002 96.5876C0.0912144 96.5277 0.0573901 96.4604 0.0360925 96.3888C0.0115726 96.3065 -0.000586964 96.221 2.17719e-05 96.1352C4.03837e-05 96.0464 0.0124024 95.9581 0.0367731 95.8727C0.0595986 95.7937 0.0939504 95.7186 0.138724 95.6496C0.177702 95.5877 0.227785 95.5334 0.286464 95.4896C0.339474 95.4498 0.401803 95.4243 0.467498 95.4155L534.476 30.3771C534.644 30.3556 534.814 30.3643 534.979 30.4028C535.127 30.4372 535.267 30.5008 535.39 30.5898C535.505 30.6733 535.6 30.7821 535.667 30.9078C535.735 31.036 535.77 31.1786 535.769 31.3234C535.768 31.4768 535.733 31.6282 535.667 31.7667C535.599 31.9107 535.505 32.0412 535.39 32.1519C535.269 32.269 535.13 32.3659 534.979 32.4387C534.821 32.5164 534.651 32.5675 534.476 32.5897V32.5897Z" fill="#CACACA"/>
<path d="M535.438 538.993L0.342462 484.591C0.280275 484.585 0.22123 484.561 0.172535 484.522C0.122042 484.481 0.0820627 484.428 0.0558018 484.368C0.0252586 484.3 0.00703894 484.227 0.00200882 484.152C-0.00383457 484.067 0.00308894 483.981 0.0225351 483.897C0.0420564 483.81 0.073542 483.727 0.116074 483.649C0.155682 483.577 0.205692 483.511 0.264522 483.454C0.316162 483.402 0.376936 483.36 0.443814 483.33C0.504262 483.303 0.570704 483.291 0.636744 483.297L535.924 536.834C536.092 536.85 536.256 536.896 536.409 536.969C536.546 537.035 536.668 537.128 536.769 537.242C536.863 537.349 536.932 537.476 536.97 537.613C537.007 537.753 537.01 537.9 536.978 538.041C536.943 538.19 536.876 538.33 536.781 538.451C536.683 538.576 536.562 538.683 536.426 538.766C536.282 538.854 536.125 538.918 535.961 538.956C535.79 538.997 535.613 539.009 535.438 538.993Z" fill="#CACACA"/>
<path d="M11.069 71.2572C11.7645 71.15 12.4761 71.2462 13.1179 71.5343C13.7781 71.8396 14.3548 72.2994 14.7992 72.8747C15.3095 73.5319 15.6951 74.2769 15.9368 75.0727C16.2194 75.9928 16.3598 76.9506 16.3529 77.9129C16.3538 78.9128 16.2137 79.9079 15.9368 80.8688C15.683 81.7594 15.2997 82.6081 14.7992 83.3876C14.3539 84.0898 13.7842 84.705 13.1179 85.2032C12.5168 85.6527 11.8123 85.9443 11.069 86.0511C10.3737 86.1457 9.66586 86.0377 9.03053 85.7401C8.37821 85.4248 7.81026 84.9592 7.37351 84.3816C6.8738 83.7256 6.49646 82.985 6.25957 82.1954C5.98344 81.2859 5.84596 80.3402 5.85174 79.3898C5.85159 78.4024 5.98884 77.4197 6.25957 76.47C6.50792 75.5869 6.88289 74.7444 7.37283 73.9685C7.81153 73.2659 8.37303 72.6476 9.03056 72.1432C9.62601 71.6837 10.3265 71.3792 11.069 71.2572V71.2572Z" fill="#3F3D56"/>
<path d="M29.6241 68.4765C30.3506 68.3644 31.0941 68.4605 31.7681 68.7536C32.4563 69.0601 33.0605 69.5275 33.5299 70.1162C34.0624 70.7842 34.466 71.5453 34.7201 72.3607C35.0156 73.3003 35.1624 74.2804 35.155 75.2653C35.1552 76.2894 35.0081 77.3082 34.718 78.2904C34.4517 79.2034 34.0513 80.0718 33.5299 80.8674C33.0614 81.5895 32.4654 82.2204 31.7709 82.7294C31.1395 83.1939 30.4031 83.4956 29.6269 83.6078C28.9007 83.7067 28.1613 83.5984 27.4941 83.2954C26.8144 82.9771 26.2202 82.5023 25.7601 81.9099C25.238 81.2432 24.8423 80.4868 24.5928 79.6779C24.3041 78.7495 24.1602 77.7822 24.1662 76.8101C24.1662 75.7992 24.3098 74.7935 24.5928 73.823C24.8535 72.9164 25.2459 72.0529 25.7573 71.2599C26.2188 70.538 26.8061 69.9045 27.4913 69.3895C28.1173 68.9163 28.8494 68.6029 29.6241 68.4765V68.4765Z" fill="#3F3D56"/>
<path d="M49.0475 65.5615C49.807 65.4433 50.5845 65.5381 51.2934 65.8352C52.0104 66.1454 52.6424 66.6229 53.1363 67.2275C53.6934 67.9067 54.117 68.6849 54.3848 69.5212C54.695 70.4801 54.8498 71.4825 54.8433 72.4902C54.8431 73.5397 54.6886 74.5835 54.3848 75.5881C54.1038 76.5273 53.6829 77.4189 53.1363 78.233C52.6429 78.9764 52.0185 79.6242 51.2934 80.1449C50.6289 80.6231 49.8583 80.9335 49.0475 81.0496C48.2882 81.1535 47.5149 81.0454 46.8134 80.7372C46.1048 80.4167 45.4823 79.9331 44.9968 79.3261C44.4528 78.6471 44.0398 77.8731 43.7789 77.0435C43.4771 76.0964 43.3264 75.1078 43.3322 74.1139C43.332 73.0771 43.4825 72.0458 43.7789 71.0521C44.0527 70.1216 44.4631 69.2369 44.9968 68.4266C45.4828 67.6824 46.0982 67.0312 46.8141 66.5036C47.4725 66.016 48.2384 65.6929 49.0475 65.5615Z" fill="#3F3D56"/>
<path d="M505.696 4.36162L473.135 9.06317C472.831 9.10927 472.52 9.09775 472.22 9.02923C471.95 8.96689 471.696 8.84893 471.474 8.68287C471.263 8.52497 471.091 8.32064 470.972 8.08573C470.849 7.84035 470.786 7.5696 470.787 7.29533C470.789 7.0032 470.852 6.71468 470.972 6.44812C471.095 6.1729 471.264 5.92114 471.474 5.70413C471.691 5.47803 471.943 5.28833 472.22 5.14232C472.506 4.99111 472.815 4.88944 473.135 4.84167L505.696 0.0313642C506.016 -0.0183052 506.342 -0.00891625 506.659 0.0590697C506.943 0.119368 507.211 0.237258 507.447 0.405428C507.674 0.567662 507.859 0.782332 507.985 1.03115C508.111 1.27997 508.176 1.55559 508.172 1.83454C508.17 2.13602 508.104 2.43358 507.978 2.70737C507.847 2.99251 507.668 3.25255 507.447 3.47561C506.975 3.95348 506.36 4.26518 505.696 4.36369L505.696 4.36162Z" fill="#3F3D56"/>
<path d="M505.696 12.4797L473.135 16.9824C472.83 17.0267 472.52 17.0133 472.22 16.9429C471.95 16.8802 471.696 16.7623 471.474 16.5966C471.263 16.4375 471.091 16.2323 470.972 15.9967C470.848 15.7481 470.784 15.4736 470.787 15.1959C470.789 14.9042 470.852 14.6161 470.972 14.35C471.095 14.0758 471.264 13.8252 471.474 13.6095C471.691 13.3858 471.943 13.1987 472.22 13.0554C472.506 12.9059 472.816 12.8061 473.135 12.7603L505.696 8.14944C506.016 8.10186 506.343 8.11336 506.659 8.18339C506.943 8.24618 507.211 8.36642 507.447 8.53669C507.669 8.69777 507.852 8.90807 507.979 9.15114C508.109 9.40382 508.175 9.68403 508.173 9.96787C508.17 10.2689 508.104 10.566 507.978 10.8393C507.847 11.1226 507.666 11.3806 507.446 11.6013C506.973 12.0767 506.358 12.3847 505.694 12.4783L505.696 12.4797Z" fill="#3F3D56"/>
<path d="M505.696 20.5978L473.135 24.8928C472.83 24.9351 472.52 24.9198 472.22 24.8477C471.95 24.7825 471.696 24.6623 471.474 24.4944C471.258 24.3312 471.084 24.1199 470.965 23.8774C470.846 23.6349 470.785 23.368 470.787 23.0979C470.789 22.8065 470.851 22.5186 470.971 22.2528C471.094 21.9793 471.264 21.7295 471.474 21.515C471.691 21.291 471.943 21.1038 472.22 20.9609C472.506 20.813 472.816 20.715 473.135 20.6713L505.696 16.2684C506.017 16.2229 506.343 16.2365 506.659 16.3085C506.943 16.3732 507.211 16.4951 507.447 16.6667C507.669 16.8292 507.851 17.0406 507.979 17.2846C508.108 17.5376 508.175 17.818 508.172 18.102C508.171 18.4026 508.104 18.6993 507.978 18.9721C507.847 19.2556 507.667 19.5136 507.446 19.7341C506.973 20.2067 506.357 20.5109 505.694 20.6L505.696 20.5978Z" fill="#3F3D56"/>
<path d="M350.889 95.5616L508.173 82.257V175.893L350.889 177.943V95.5616Z" fill="#F0F0F0"/>
<path d="M473.454 218.221L380.046 216.368C378.967 216.348 377.937 215.915 377.17 215.157C376.802 214.794 376.507 214.364 376.301 213.89C376.091 213.405 375.982 212.881 375.982 212.352C375.982 211.828 376.09 211.309 376.301 210.828C376.506 210.361 376.801 209.939 377.17 209.587C377.543 209.231 377.981 208.95 378.461 208.76C378.965 208.561 379.503 208.463 380.046 208.471L473.453 209.7C474.087 209.707 474.714 209.829 475.304 210.06C475.862 210.277 476.375 210.594 476.819 210.995C477.247 211.381 477.595 211.847 477.843 212.366C478.09 212.889 478.218 213.459 478.219 214.036C478.219 214.61 478.091 215.177 477.843 215.694C477.597 216.206 477.248 216.661 476.819 217.034C476.374 217.421 475.86 217.722 475.304 217.92C474.71 218.131 474.083 218.233 473.453 218.218L473.454 218.221Z" fill="#E4E4E4"/>
<path d="M457.407 203.501L394.17 202.97C393.613 202.966 393.062 202.855 392.547 202.643C392.056 202.441 391.607 202.147 391.225 201.778C390.848 201.415 390.546 200.983 390.335 200.505C390.12 200.017 390.009 199.489 390.009 198.955C390.009 198.421 390.12 197.893 390.335 197.405C390.546 196.929 390.848 196.5 391.225 196.141C391.607 195.776 392.056 195.487 392.547 195.29C393.063 195.082 393.614 194.977 394.17 194.979L457.407 195.087C458.024 195.087 458.635 195.2 459.21 195.421C459.755 195.629 460.256 195.937 460.688 196.328C461.107 196.706 461.446 197.163 461.687 197.674C461.928 198.188 462.053 198.749 462.053 199.317C462.053 199.885 461.928 200.446 461.687 200.96C461.447 201.467 461.107 201.92 460.689 202.294C460.256 202.681 459.755 202.983 459.211 203.186C458.635 203.402 458.023 203.509 457.408 203.502L457.407 203.501Z" fill="#E4E4E4"/>
<path d="M350.889 245.368L508.173 252.53V346.166L350.889 327.749V245.368Z" fill="#F0F0F0"/>
<path d="M473.454 383.976L380.046 369.967C379.489 369.882 378.952 369.697 378.461 369.42C377.976 369.147 377.54 368.796 377.17 368.381C376.804 367.974 376.51 367.508 376.301 367.002C376.093 366.502 375.985 365.965 375.983 365.424C375.979 364.911 376.087 364.404 376.301 363.938C376.503 363.503 376.8 363.118 377.17 362.813C377.548 362.503 377.988 362.278 378.461 362.154C378.978 362.019 379.517 361.991 380.046 362.071L473.453 375.454C474.1 375.548 474.726 375.751 475.304 376.055C475.867 376.348 476.379 376.731 476.819 377.187C477.246 377.626 477.592 378.136 477.843 378.694C478.087 379.235 478.215 379.82 478.219 380.414C478.223 380.972 478.094 381.524 477.843 382.023C477.6 382.498 477.249 382.911 476.819 383.229C476.368 383.562 475.852 383.796 475.304 383.918C474.696 384.053 474.068 384.072 473.453 383.976L473.454 383.976Z" fill="#E4E4E4"/>
<path d="M457.406 367.169L394.17 358.409C393.6 358.329 393.051 358.146 392.547 357.871C392.051 357.6 391.604 357.249 391.225 356.832C390.85 356.424 390.549 355.956 390.335 355.446C390.122 354.941 390.01 354.399 390.008 353.851C390.004 353.332 390.116 352.817 390.334 352.346C390.542 351.902 390.846 351.51 391.224 351.198C391.611 350.88 392.062 350.648 392.546 350.518C393.075 350.377 393.627 350.343 394.17 350.418L457.406 358.755C458.036 358.839 458.646 359.031 459.21 359.323C459.759 359.607 460.258 359.978 460.687 360.423C461.104 360.852 461.441 361.351 461.685 361.897C461.923 362.43 462.048 363.006 462.051 363.589C462.055 364.141 461.93 364.687 461.685 365.182C461.448 365.655 461.107 366.067 460.687 366.387C460.248 366.72 459.745 366.959 459.21 367.087C458.619 367.228 458.007 367.255 457.406 367.168V367.169Z" fill="#E4E4E4"/>
<path d="M259.52 328.457L12.2294 296.836C11.5564 296.74 10.9183 296.476 10.374 296.07C9.77574 295.624 9.26421 295.073 8.86476 294.444C8.41781 293.747 8.07591 292.988 7.85001 292.192C7.60282 291.331 7.47745 290.44 7.47755 289.544V133.571C7.47649 132.68 7.6019 131.794 7.85001 130.939C8.07452 130.157 8.41668 129.415 8.86476 128.736C9.2632 128.126 9.7753 127.597 10.3733 127.179C10.9223 126.795 11.5616 126.56 12.2287 126.498L259.52 106.275C260.58 106.184 261.646 106.326 262.644 106.692C263.643 107.057 264.549 107.636 265.299 108.388C266.06 109.15 266.66 110.056 267.063 111.054C267.498 112.131 267.719 113.282 267.715 114.443V320.664C267.721 321.815 267.499 322.956 267.063 324.022C266.663 324.998 266.062 325.878 265.299 326.607C264.557 327.313 263.667 327.845 262.694 328.166C261.671 328.498 260.587 328.597 259.52 328.457Z" fill="white"/>
<path d="M161.741 213.443C161.078 212.582 160.33 211.789 159.509 211.076C158.728 210.397 157.878 209.803 156.971 209.304C156.097 208.822 155.172 208.441 154.212 208.168C153.268 207.9 152.296 207.746 151.316 207.709C150.346 207.673 149.376 207.755 148.426 207.952C147.48 208.15 146.56 208.458 145.686 208.87C144.792 209.292 143.949 209.811 143.171 210.42C142.361 211.054 141.62 211.771 140.959 212.56L74.4198 291.979C73.6513 292.92 72.6667 293.662 71.5496 294.142C70.5263 294.569 69.41 294.725 68.3084 294.596C67.1577 294.453 66.0558 294.045 65.0894 293.405C63.981 292.668 63.0253 291.725 62.2748 290.627L53.4604 277.972C52.4466 276.472 51.1465 275.186 49.6345 274.188C48.3424 273.338 46.8648 272.81 45.3258 272.648C43.8648 272.508 42.3926 272.757 41.0588 273.369C39.5982 274.057 38.3241 275.085 37.3431 276.367L21.3965 296.561L244.318 324.67V320.721L161.741 213.443Z" fill="#0231C8"/>
<path d="M259.519 331.438L12.2293 299.124C11.3275 298.993 10.4731 298.638 9.74476 298.091C8.94436 297.492 8.26032 296.752 7.72638 295.908C7.12937 294.975 6.67274 293.959 6.37107 292.893C6.04093 291.741 5.8733 290.55 5.87305 289.352V133.689C5.87221 132.499 6.03988 131.314 6.37107 130.171C6.67048 129.124 7.12746 128.128 7.72638 127.218C8.25922 126.399 8.94409 125.69 9.74405 125.128C10.4787 124.612 11.3347 124.295 12.2285 124.209L259.519 103.288C260.94 103.162 262.371 103.35 263.712 103.836C265.053 104.323 266.27 105.098 267.279 106.106C268.304 107.127 269.112 108.344 269.654 109.684C270.239 111.13 270.537 112.676 270.531 114.236V321C270.539 322.547 270.241 324.081 269.654 325.513C269.115 326.822 268.306 328.004 267.279 328.98C266.28 329.926 265.084 330.638 263.776 331.064C262.403 331.505 260.948 331.633 259.519 331.439L259.519 331.438ZM12.2293 128.786C11.7891 128.826 11.367 128.98 11.0043 129.232C10.6091 129.508 10.2704 129.856 10.0069 130.259C9.71042 130.707 9.48402 131.198 9.33554 131.714C9.17128 132.279 9.08813 132.864 9.0886 133.452V289.732C9.0887 290.323 9.17184 290.912 9.33554 291.481C9.48497 292.007 9.7112 292.508 10.0069 292.968C10.2708 293.385 10.6094 293.751 11.0057 294.045C11.3653 294.313 11.7866 294.486 12.2306 294.548L259.521 325.469C260.224 325.56 260.938 325.493 261.612 325.273C262.253 325.06 262.838 324.708 263.326 324.242C263.828 323.761 264.223 323.181 264.486 322.538C264.772 321.836 264.917 321.085 264.913 320.328V114.65C264.916 113.886 264.771 113.129 264.486 112.42C264.221 111.762 263.826 111.165 263.326 110.662C262.833 110.165 262.236 109.782 261.579 109.54C260.922 109.298 260.219 109.202 259.521 109.26L12.2293 128.786Z" fill="#CBCBCB"/>
<path d="M46.913 493.747L54.3482 493.747L57.8852 465.104L46.9121 465.105L46.913 493.747Z" fill="#FFB6B6"/>
<path d="M45.0166 491.323L59.6592 491.322H59.6598C62.1345 491.322 64.5079 492.304 66.2578 494.052C68.0078 495.8 68.991 498.17 68.9912 500.642V500.944L45.0171 500.945L45.0166 491.323Z" fill="#2F2E41"/>
<path d="M115.443 503.548L122.879 503.547L126.415 474.904L115.442 474.905L115.443 503.548Z" fill="#FFB6B6"/>
<path d="M113.547 501.123L128.189 501.122H128.19C130.665 501.122 133.038 502.104 134.788 503.852C136.538 505.6 137.521 507.97 137.521 510.442V510.745L113.547 510.746L113.547 501.123Z" fill="#2F2E41"/>
<path d="M106.467 273.442L111.319 304.333L65.2266 304.938L71.2916 275.259L106.467 273.442Z" fill="#FFB6B6"/>
<path d="M109.981 296.79L124.661 335.829L126.48 497.613H114.047L84.3305 367.628L57.0395 484.42H44.9102L53.4007 351.88C53.4007 351.88 50.8969 323.311 63.7106 306.453L66.8296 297.453L109.981 296.79Z" fill="#2F2E41"/>
<path d="M47.0117 327.223C48.295 326.874 49.4861 326.248 50.501 325.389C51.5158 324.53 52.3298 323.46 52.8856 322.253C53.4414 321.046 53.7254 319.732 53.7178 318.403C53.7101 317.075 53.4109 315.764 52.8412 314.564L72.4492 250.718L58.0267 247.862L40.0933 310.445C38.1374 311.534 36.6497 313.302 35.912 315.414C35.1742 317.526 35.2378 319.835 36.0906 321.903C36.9434 323.971 38.5261 325.655 40.539 326.636C42.5518 327.616 44.8549 327.825 47.0117 327.223V327.223Z" fill="#FFB6B6"/>
<path d="M72.8727 290.503C72.6036 290.502 72.3352 290.476 72.0712 290.424V290.424C71.1838 290.246 70.3788 289.784 69.7793 289.106C69.1798 288.429 68.8187 287.575 68.7512 286.673C68.2953 280.439 66.0363 269.587 62.037 254.419C60.6868 249.263 60.9859 243.815 62.8921 238.838C64.7983 233.861 68.2162 229.604 72.6666 226.665C77.117 223.726 82.3768 222.251 87.7087 222.448C93.0405 222.644 98.1772 224.502 102.398 227.761C105.101 229.829 107.357 232.422 109.03 235.383C110.703 238.345 111.759 241.614 112.133 244.994C114.121 262.476 110.373 280.029 108.67 286.764C108.446 287.643 107.94 288.425 107.229 288.989C106.518 289.554 105.641 289.87 104.733 289.889L72.961 290.502C72.9315 290.502 72.9022 290.503 72.8727 290.503Z" fill="#3F3D56"/>
<path d="M161.638 234.42C161.447 234.847 161.29 235.289 161.169 235.741L121.399 249.238L113.715 242.534L102.067 252.794L114.517 265.984C115.522 267.05 116.847 267.761 118.292 268.01C119.736 268.26 121.223 268.035 122.529 267.369L165.085 245.659C166.624 246.601 168.414 247.054 170.217 246.956C172.019 246.858 173.749 246.214 175.177 245.11C176.604 244.006 177.661 242.494 178.208 240.776C178.754 239.057 178.763 237.213 178.234 235.489C177.705 233.765 176.664 232.243 175.247 231.124C173.831 230.006 172.107 229.345 170.306 229.229C168.504 229.113 166.71 229.547 165.161 230.475C163.613 231.402 162.384 232.778 161.638 234.42V234.42Z" fill="#FFB6B6"/>
<path d="M120.013 249.976L105.516 262.623C105.103 262.983 104.618 263.249 104.093 263.405C103.568 263.561 103.015 263.601 102.473 263.525C101.931 263.448 101.411 263.255 100.95 262.96C100.49 262.664 100.098 262.273 99.8017 261.813L89.4319 245.686C87.6009 243.567 86.6856 240.81 86.8867 238.019C87.0878 235.228 88.3888 232.63 90.5045 230.795C92.6203 228.961 95.3781 228.039 98.1734 228.231C100.969 228.424 103.573 229.716 105.417 231.824L119.978 244.212C120.395 244.567 120.731 245.008 120.962 245.503C121.193 245.999 121.314 246.539 121.317 247.086C121.321 247.633 121.206 248.175 120.981 248.673C120.756 249.172 120.426 249.616 120.013 249.976V249.976Z" fill="#3F3D56"/>
<path d="M70.1589 267.065L52.2428 260.035C51.7331 259.835 51.2725 259.528 50.8924 259.134C50.5123 258.74 50.2216 258.269 50.0403 257.753C49.8589 257.237 49.791 256.688 49.8413 256.143C49.8915 255.598 50.0587 255.071 50.3315 254.596L59.8905 237.977C60.9302 235.378 62.9591 233.297 65.5325 232.19C68.1059 231.083 71.0138 231.041 73.6187 232.071C76.2236 233.102 78.313 235.123 79.4288 237.69C80.5446 240.257 80.5957 243.161 79.571 245.765L75.2657 264.38C75.1422 264.913 74.9053 265.413 74.5709 265.846C74.2365 266.279 73.8125 266.635 73.3279 266.89C72.8432 267.145 72.3093 267.292 71.7624 267.323C71.2156 267.353 70.6687 267.265 70.1589 267.065V267.065Z" fill="#3F3D56"/>
<path d="M83.4394 218.512C94.2025 218.512 102.928 209.798 102.928 199.049C102.928 188.299 94.2025 179.585 83.4394 179.585C72.6764 179.585 63.9512 188.299 63.9512 199.049C63.9512 209.798 72.6764 218.512 83.4394 218.512Z" fill="#FFB6B6"/>
<path d="M109.53 192.487H78.585V179.016C85.377 176.321 92.0235 174.029 96.0412 179.016C99.6186 179.016 103.05 180.435 105.579 182.961C108.109 185.488 109.53 188.914 109.53 192.487V192.487Z" fill="#2F2E41"/>
<path d="M76.8012 219.215C89.1179 219.215 99.1024 209.243 99.1024 196.942C99.1024 184.641 89.1179 174.669 76.8012 174.669C64.4846 174.669 54.5 184.641 54.5 196.942C54.5 209.243 64.4846 219.215 76.8012 219.215Z" fill="#2F2E41"/>
<path d="M60.7435 194.269C68.6261 194.269 75.0163 187.887 75.0163 180.014C75.0163 172.142 68.6261 165.76 60.7435 165.76C52.8608 165.76 46.4707 172.142 46.4707 180.014C46.4707 187.887 52.8608 194.269 60.7435 194.269Z" fill="#2F2E41"/>
</g>
<defs>
<clipPath id="clip0_689_15164">
<rect width="537" height="539" fill="white"/>
</clipPath>
</defs>
</svg>
