<svg width="656" height="446" viewBox="0 0 656 446" fill="none" xmlns="http://www.w3.org/2000/svg">
<g clip-path="url(#clip0_689_15823)">
<path d="M257.3 250.043C256.181 250.043 255.108 250.488 254.317 251.278C253.526 252.069 253.081 253.141 253.081 254.259V295.038H172.151C171.032 295.038 169.959 295.483 169.168 296.273C168.377 297.064 167.932 298.136 167.932 299.254C167.932 300.372 168.377 301.444 169.168 302.235C169.959 303.025 171.032 303.469 172.151 303.469H253.081V444.495H261.52V254.259C261.52 253.141 261.075 252.069 260.284 251.278C259.493 250.488 258.419 250.043 257.3 250.043Z" fill="#E6E6E6"/>
<path d="M482.52 443.538L497.734 443.957C500.044 444.076 502.331 443.436 504.243 442.134C505.895 440.906 506.653 439.246 506.321 437.58L503.327 422.547C502.763 419.711 499.285 417.568 495.058 417.451L486.656 417.219C482.429 417.103 478.838 419.051 478.118 421.852L474.298 436.696C473.874 438.342 474.539 440.041 476.121 441.358C477.959 442.763 480.206 443.529 482.52 443.538Z" fill="#3F3D56"/>
<path d="M389.983 443.108L405.196 443.528C407.507 443.647 409.794 443.006 411.706 441.705C413.358 440.477 414.116 438.817 413.784 437.15L410.79 422.118C410.226 419.282 406.748 417.138 402.521 417.021L394.119 416.79C389.892 416.673 386.301 418.622 385.58 421.422L381.761 436.266C381.337 437.913 382.002 439.612 383.584 440.929C385.422 442.334 387.669 443.099 389.983 443.108Z" fill="#3F3D56"/>
<path d="M535.348 315.491C536.043 315.192 536.615 314.665 536.969 313.997C537.323 313.328 537.439 312.559 537.296 311.817C537.153 311.074 536.761 310.402 536.184 309.913C535.607 309.423 534.881 309.145 534.124 309.124L361.165 304.352C360.729 304.34 360.295 304.414 359.888 304.57C359.48 304.725 359.107 304.959 358.79 305.259C358.474 305.558 358.219 305.917 358.041 306.315C357.863 306.713 357.765 307.142 357.753 307.578V307.578C357.729 308.458 358.056 309.311 358.662 309.95C359.267 310.589 360.101 310.962 360.982 310.987L360.982 310.987L533.941 315.759C534.424 315.774 534.904 315.682 535.348 315.491Z" fill="#3F3D56"/>
<path d="M471.516 258.283L520.956 259.647L516.347 426.424L466.907 425.06L471.516 258.283Z" fill="#E6E6E6"/>
<path d="M470.263 255.287L479.767 281.154L479.758 399.002L468.178 402.32L470.263 255.287Z" fill="#CCCCCC"/>
<path d="M496.494 214.698C505.743 214.961 512.8 230.954 512.631 237.195L512.319 248.493L478.827 247.569L479.139 236.271C479.315 230.03 487.244 214.45 496.494 214.698Z" fill="#3F3D56"/>
<path d="M520.315 328.714C522.043 328.759 523.719 328.118 524.974 326.931C526.23 325.744 526.963 324.108 527.013 322.381L527.521 303.994C527.569 302.266 526.928 300.591 525.739 299.336C524.551 298.081 522.912 297.349 521.183 297.301C519.454 297.254 517.777 297.894 516.521 299.082C515.265 300.269 514.533 301.907 514.485 303.634L513.977 322.022C513.931 323.748 514.573 325.423 515.761 326.677C516.949 327.932 518.587 328.664 520.315 328.714Z" fill="#3F3D56"/>
<path d="M507.769 260.043L508.003 247.891L504.813 247.812L504.579 259.925L501.688 436.472L504.878 436.561" fill="#3F3D56"/>
<path d="M465.848 288.46L523.181 290.042C528.657 283.37 529.154 254.944 517.726 249.534L513.244 241.931L478.692 240.246L474.653 248.251C468.969 253.085 466.037 281.333 465.848 288.46Z" fill="#E6E6E6"/>
<path d="M487.427 274.827L501.926 275.227C504.723 275.304 507.102 271.678 507.227 267.144C507.353 262.61 505.178 258.858 502.38 258.781L487.882 258.381C485.084 258.303 482.705 261.93 482.58 266.464C482.455 270.998 484.629 274.75 487.427 274.827Z" fill="#0231C8"/>
<path d="M515.503 356.833L545.388 377.925L550.609 425.483L515.746 413.845L515.503 356.833Z" fill="#E6E6E6"/>
<path d="M376.08 256.241L425.52 257.605L420.91 424.382L371.47 423.018L376.08 256.241Z" fill="#E6E6E6"/>
<path d="M424.336 255.844L414.163 281.456L411.111 399.265L422.602 402.881L424.336 255.844Z" fill="#CCCCCC"/>
<path d="M351.356 209.938C347.777 209.938 344.876 206.051 344.876 201.256C344.876 196.461 347.777 192.574 351.356 192.574C354.935 192.574 357.836 196.461 357.836 201.256C357.836 206.051 354.935 209.938 351.356 209.938Z" fill="#E6E6E6"/>
<path d="M402.022 212.682C411.272 212.945 418.329 228.938 418.159 235.179L417.847 246.478L384.355 245.554L384.668 234.255C384.843 228.014 392.773 212.434 402.022 212.682Z" fill="#3F3D56"/>
<path d="M392.446 263.847L392.68 251.695L389.49 251.615L389.256 263.729L386.365 440.276L389.555 440.364" fill="#3F3D56"/>
<path d="M371.376 286.444L428.708 288.026C429.708 281.989 428.415 253.817 423.253 247.519L418.772 239.915L384.219 238.23L380.181 246.236C369.979 247.066 366.411 274.75 371.376 286.444Z" fill="#E6E6E6"/>
<path d="M392.884 275.349L407.383 275.749C410.181 275.826 412.575 271.63 412.72 266.397C412.864 261.164 410.705 256.842 407.908 256.765L393.409 256.365C390.611 256.288 388.217 260.483 388.072 265.717C387.928 270.95 390.087 275.271 392.884 275.349Z" fill="#0231C8"/>
<path d="M373.638 344.642L344.746 367.074L341.704 414.821L375.998 401.605L373.638 344.642Z" fill="#E6E6E6"/>
<path d="M381.706 123.49C412.707 123.49 448.335 89.1181 479.857 105.449C575.297 154.895 562.159 72.1549 589.578 41.3829L588.678 39.5789C567.92 118.69 549.139 244.751 479.442 103.351C461.983 67.9304 404.683 122.681 370.955 121.065L370.896 123.234C374.458 123.405 378.061 123.491 381.706 123.49Z" fill="#F2F2F2"/>
<path d="M307.298 128.354C332.011 147.055 381.183 141.147 396.442 173.181C442.644 270.171 482.17 196.288 522.623 188.298L522.995 186.317C482.499 189.673 439.062 184.466 397.38 171.259C359.711 159.324 326.104 141.57 300.193 119.936L298.836 121.629C301.572 123.915 304.392 126.156 307.298 128.354Z" fill="#F2F2F2"/>
<path d="M576.12 124.096C572.541 124.096 569.639 120.209 569.639 115.414C569.639 110.619 572.541 106.732 576.12 106.732C579.698 106.732 582.6 110.619 582.6 115.414C582.6 120.209 579.698 124.096 576.12 124.096Z" fill="#E6E6E6"/>
<path d="M375.136 53.583C371.557 53.583 368.656 49.696 368.656 44.9011C368.656 40.1063 371.557 36.2192 375.136 36.2192C378.715 36.2192 381.616 40.1063 381.616 44.9011C381.616 49.696 378.715 53.583 375.136 53.583Z" fill="#E6E6E6"/>
<path d="M516.792 159.137C519.754 161.109 522.787 156.415 519.767 154.53C516.805 152.558 513.772 157.252 516.792 159.137Z" fill="#E6E6E6"/>
<path d="M407.096 5.08091C410.058 7.05312 413.09 2.35908 410.071 0.474434C407.108 -1.49767 404.076 3.19638 407.096 5.08091Z" fill="#E6E6E6"/>
<path d="M342.444 96.4197L344.329 96.0066L343.916 94.1226L345.172 93.8475L345.586 95.7314L347.471 95.319L347.746 96.5745L345.861 96.9876L346.274 98.8708L345.017 99.1459L344.604 97.262L342.719 97.6751L342.444 96.4197Z" fill="#E6E6E6"/>
<path d="M515.208 33.294C510.674 33.294 506.998 29.6215 506.998 25.0912C506.998 20.561 510.674 16.8885 515.208 16.8885C519.742 16.8885 523.418 20.561 523.418 25.0912C523.418 29.6215 519.742 33.294 515.208 33.294Z" fill="#FF6584"/>
<path d="M455.158 14.7084C464.408 14.9709 471.465 30.9641 471.295 37.2051L470.983 48.5037L437.491 47.5797L437.804 36.281C437.979 30.0402 445.908 14.4605 455.158 14.7084Z" fill="#3F3D56"/>
<path d="M435.215 442.553L450.429 442.973C452.74 443.091 455.026 442.451 456.938 441.149C458.59 439.921 459.348 438.262 459.016 436.595L456.022 421.562C455.458 418.727 451.98 416.583 447.753 416.466L439.351 416.234C435.124 416.118 431.533 418.066 430.813 420.867L426.993 435.711C426.57 437.357 427.235 439.056 428.816 440.373C430.654 441.778 432.901 442.544 435.215 442.553Z" fill="#3F3D56"/>
<path d="M428.431 86.636L477.871 88L468.554 425.12L419.114 423.756L428.431 86.636Z" fill="#E6E6E6"/>
<path d="M448.214 249.822L448.448 237.67L445.259 237.591L445.025 249.704L442.133 426.252L445.324 426.34" fill="#3F3D56"/>
<path d="M418.697 117.49L485.686 119.338C486.854 112.284 485.343 79.3677 479.313 72.0081L477.66 63.2231L431.406 61.947L428.986 70.509C422.344 76.1562 418.919 109.162 418.697 117.49Z" fill="#E6E6E6"/>
<path d="M429.944 62.9836L477.676 64.3005C479.438 64.3491 480.893 63.4249 480.925 62.2362C480.93 62.0649 480.905 61.8942 480.851 61.7315L473.437 38.9104C473.12 37.9332 471.856 37.2155 470.381 37.1748L438.726 36.3016C437.251 36.2609 435.95 36.9078 435.579 37.866L426.916 60.2435C426.473 61.388 427.496 62.579 429.201 62.9037C429.446 62.9501 429.695 62.9769 429.944 62.9836Z" fill="#E6E6E6"/>
<path d="M472.968 248.272C473.399 248.088 473.806 247.852 474.18 247.571C474.717 247.194 475.161 246.7 475.477 246.126C475.794 245.552 475.974 244.913 476.005 244.259L477.74 181.504C477.811 178.906 475.265 176.721 472.065 176.632L429.334 175.453C426.133 175.364 423.471 177.407 423.399 180.005L421.665 242.76C421.66 243.415 421.805 244.063 422.089 244.653C422.373 245.244 422.789 245.762 423.304 246.167C424.446 247.096 425.868 247.612 427.34 247.631L470.07 248.809C471.064 248.843 472.052 248.659 472.968 248.272Z" fill="#3F3D56"/>
<path d="M445.618 58.9449L460.117 59.345C462.915 59.4221 465.28 56.2639 465.39 52.3058C465.499 48.3476 463.311 45.0637 460.514 44.9865L446.015 44.5865C443.217 44.5093 440.852 47.6676 440.742 51.6257C440.633 55.5839 442.821 58.8678 445.618 58.9449Z" fill="#0231C8"/>
<path d="M102.907 431.147H119.783V308.61C105.667 307.599 95.0574 303.28 95.0574 298.104C95.0574 292.178 108.967 287.374 126.125 287.374C143.284 287.374 157.193 292.178 157.193 298.104C157.193 303.33 146.377 307.68 132.057 308.637V431.147H148.934C150.561 431.147 152.122 431.793 153.273 432.943C154.424 434.093 155.071 435.653 155.071 437.279C155.071 438.905 154.424 440.465 153.273 441.615C152.122 442.765 150.561 443.411 148.934 443.411H102.907C101.279 443.411 99.7185 442.765 98.5676 441.615C97.4167 440.465 96.7701 438.905 96.7701 437.279C96.7701 435.653 97.4167 434.093 98.5676 432.943C99.7185 431.793 101.279 431.147 102.907 431.147Z" fill="#E6E6E6"/>
<path d="M136.784 368.939L142.328 374.974L168.267 356.483L160.085 347.575L136.784 368.939Z" fill="#A0616A"/>
<path d="M150.959 384.869C150.904 386.219 150.582 387.545 150.011 388.769C149.44 389.994 148.632 391.093 147.633 392.003L147.389 392.23L140.118 384.314L129.516 372.768L137.343 365.589L138.756 367.131L138.904 367.29L145.947 370.619L147.44 371.328L147.695 371.447L148.257 377.475V377.48C149.175 378.471 149.887 379.635 150.351 380.904C150.815 382.172 151.021 383.52 150.959 384.869Z" fill="#2F2E41"/>
<path d="M108.063 429.151L115.908 431.533L128.834 402.432L117.255 398.918L108.063 429.151Z" fill="#A0616A"/>
<path d="M129.148 443.498L129.051 443.821L103.755 436.143L106.842 425.987L108.84 426.594L109.05 426.656L118.455 425.794L118.733 425.772L122.291 430.677C124.902 431.469 127.091 433.265 128.377 435.669C129.662 438.073 129.94 440.89 129.148 443.498H129.148Z" fill="#2F2E41"/>
<path d="M172.753 276.785C172.753 276.785 222.841 325.103 191.177 340.059H181.39C179.262 333.15 175.992 326.646 171.715 320.816C170.791 319.607 167.327 319.852 166.365 318.674C160.491 311.48 154.123 305.301 149.725 305.546L150.777 338.931L152.48 350.84C153.374 356.996 128.142 410.746 128.142 410.746L112.282 404.519C112.282 404.519 128.806 360.247 128.999 353.865L115.758 283.688L172.753 276.785Z" fill="#2F2E41"/>
<path d="M176.93 279.168C176.675 279.532 176.341 279.834 175.954 280.053C175.316 280.413 174.624 280.67 173.905 280.813C162.628 283.37 125.787 288.672 116.224 286.143C115.049 285.837 114.283 285.406 114.033 284.839C113.233 283.047 113.335 275.477 113.806 266.335C113.891 264.623 115.781 262.769 115.895 260.977C115.974 259.633 114.277 258.368 114.368 257.001C114.992 247.758 115.798 238.339 116.338 232.385C116.678 228.557 116.911 226.164 116.911 226.164L111.093 189.515L111.366 189.067L111.672 188.914L130.43 179.637L131.452 177.028C131.748 176.277 132.262 175.632 132.929 175.176C133.596 174.72 134.384 174.474 135.192 174.471L147.548 174.42C148.189 174.416 148.821 174.566 149.393 174.856C149.964 175.146 150.458 175.568 150.834 176.087L154.182 180.72L176.317 194.896L176.232 195.157L165.846 226.737L165.795 229.198V229.204L165.409 248.994L166.481 251.677L165.272 256.077C165.272 256.077 165.829 261.22 168.808 265.042C171.51 268.513 174.949 272.131 176.504 275.068V275.074C177.367 276.696 177.657 278.102 176.93 279.168Z" fill="#0231C8"/>
<path d="M193.581 337.189L190.904 340.569C190.904 340.569 166.281 357.781 165.436 359.389L161.544 363.068L152.129 353.012L157.025 346.88C160.944 341.973 166.006 338.1 171.77 335.601L179.274 328.95L193.581 337.189Z" fill="#2F2E41"/>
<path d="M104.888 290.583L109.372 247.22L110.556 229.373L98.0055 227.105C98.0055 227.105 98.5027 239.867 96.8586 247.067C95.2361 254.171 96.6434 289.631 96.7436 290.58C95.822 291.403 95.1722 292.487 94.8803 293.687C94.5884 294.888 94.6682 296.148 95.1091 297.302C95.5499 298.457 96.331 299.45 97.3492 300.151C98.3673 300.852 99.5744 301.227 100.811 301.228C102.047 301.229 103.255 300.854 104.274 300.154C105.292 299.454 106.074 298.462 106.516 297.308C106.958 296.154 107.039 294.894 106.749 293.693C106.458 292.492 105.809 291.408 104.888 290.583V290.583Z" fill="#A0616A"/>
<path d="M119.834 224.911L116.338 232.385L115.118 234.988L111.831 252.181L110.191 253.922L108.778 259.542L108.114 259.406L96.1384 256.928L92.6479 256.208C91.8612 254.898 91.5513 253.357 91.7706 251.845C91.9898 250.334 92.7247 248.944 93.8511 247.911C94.0895 247.696 94.2882 247.486 94.2825 247.288C94.0838 235.328 94.816 213.49 101.428 204.503C103.528 201.65 104.788 198.809 106.621 196.824C106.627 196.819 106.627 196.813 106.633 196.813L111.094 189.515L111.366 189.067L111.672 188.914L119.834 224.911Z" fill="#0231C8"/>
<path d="M140.403 171.348C131.324 171.348 123.963 163.994 123.963 154.922C123.963 145.851 131.324 138.497 140.403 138.497C149.483 138.497 156.843 145.851 156.843 154.922C156.843 163.994 149.483 171.348 140.403 171.348Z" fill="#A0616A"/>
<path d="M120.883 151.388C120.401 148.628 120.026 145.05 121.405 141.869C122.571 139.192 125.486 136.682 128.727 137.02C128.574 136.416 128.591 135.781 128.776 135.186C128.962 134.591 129.31 134.058 129.78 133.649C130.836 132.821 132.065 132.243 133.377 131.959C136.423 131.065 139.578 130.137 142.836 130.12C146.493 130.1 149.733 131.352 151.719 133.559L151.768 133.63L152.364 135.051C152.443 135.241 152.563 135.412 152.716 135.552C152.868 135.692 153.048 135.797 153.245 135.861C153.442 135.926 153.651 135.946 153.857 135.921C154.063 135.896 154.261 135.826 154.437 135.715C154.629 135.597 154.85 135.531 155.076 135.523C155.302 135.516 155.526 135.568 155.726 135.673C155.926 135.779 156.095 135.935 156.216 136.126C156.337 136.317 156.406 136.536 156.416 136.762L156.448 137.368L157.301 137.028C157.515 136.942 157.748 136.914 157.976 136.948C158.205 136.982 158.42 137.076 158.6 137.22C158.779 137.365 158.917 137.555 158.999 137.77C159.081 137.986 159.103 138.219 159.064 138.447L158.951 139.168C159.134 139.135 159.323 139.139 159.504 139.18C159.686 139.221 159.858 139.298 160.009 139.406C160.226 139.566 160.387 139.789 160.468 140.046C160.549 140.302 160.547 140.577 160.461 140.832C159.8 142.719 158.669 144.406 157.175 145.737C156.505 146.342 155.754 146.852 154.944 147.252C154.776 147.337 154.601 147.418 154.419 147.494C147.867 150.3 140.858 151.887 133.735 152.175C134.409 153.459 134.844 154.854 135.02 156.292C135.117 157.109 134.989 157.936 134.649 158.685C134.309 159.433 133.77 160.075 133.091 160.539C132.796 160.708 132.487 160.849 132.167 160.962C131.862 161.075 131.566 161.212 131.282 161.372C130.866 161.623 130.524 161.98 130.29 162.406C130.056 162.832 129.939 163.312 129.951 163.797C129.962 164.283 130.102 164.757 130.356 165.171C130.609 165.585 130.968 165.925 131.396 166.157C131.396 166.157 130.172 167.649 129.976 167.624C129.197 167.447 128.493 167.031 127.963 166.433C124.402 162.979 122.02 157.921 120.883 151.388Z" fill="#2F2E41"/>
<path d="M48.9103 405.291L48.1958 389.239C40.7473 385.261 32.4394 383.16 23.9937 383.118C35.6175 392.613 34.1649 410.916 42.0456 423.685C44.5341 427.649 47.8834 431.002 51.8452 433.497C55.8071 435.991 60.2801 437.563 64.9326 438.095L74.6598 444.046C75.9946 436.611 75.7003 428.976 73.7973 421.666C71.8943 414.356 68.4277 407.545 63.6365 401.703C60.9162 398.452 57.7969 395.556 54.3524 393.084C52.0226 399.221 48.9103 405.291 48.9103 405.291Z" fill="#F2F2F2"/>
<path d="M-6.10352e-05 444.81C-0.000488281 444.966 0.0300293 445.121 0.0897827 445.266C0.149475 445.41 0.237183 445.542 0.3479 445.652C0.458679 445.763 0.590271 445.851 0.735046 445.91C0.879822 445.97 1.03491 446.001 1.19153 446H654.809C655.125 446 655.428 445.875 655.651 445.651C655.874 445.428 656 445.125 656 444.81C656 444.494 655.874 444.191 655.651 443.968C655.428 443.745 655.125 443.619 654.809 443.619H1.19153C1.03497 443.619 0.879822 443.649 0.735046 443.709C0.590271 443.768 0.458679 443.856 0.3479 443.967C0.237183 444.077 0.149475 444.209 0.0897827 444.353C0.0300293 444.498 -0.000488281 444.653 -6.10352e-05 444.81Z" fill="#CCCCCC"/>
<path d="M374.855 324.64C376.583 324.686 378.259 324.045 379.514 322.858C380.77 321.671 381.503 320.034 381.553 318.308L382.061 299.92C382.107 298.194 381.465 296.521 380.276 295.268C379.088 294.015 377.45 293.284 375.723 293.236C373.996 293.189 372.32 293.828 371.064 295.014C369.809 296.2 369.075 297.835 369.025 299.561L368.517 317.948C368.471 319.675 369.113 321.349 370.301 322.604C371.489 323.858 373.127 324.591 374.855 324.64Z" fill="#3F3D56"/>
<path d="M87.299 391.844C97.204 391.844 108.06 391.47 119.868 390.722C180.94 386.847 260.048 373.375 342.618 352.789C425.189 332.203 501.357 306.96 557.092 281.713C584.242 269.414 605.079 257.772 619.024 247.11C633.789 235.822 640.247 225.984 638.221 217.868C634.272 202.057 599.304 198.598 570.666 198.48L570.656 200.78C609.984 200.941 633.186 207.208 635.987 218.425C639.556 232.711 610.453 255.015 556.141 279.619C500.529 304.81 424.501 330.004 342.061 350.558C259.622 371.112 180.66 384.56 119.722 388.427C60.2104 392.204 24.03 386.176 20.4618 371.889C17.4994 360.027 37.03 342.553 75.4556 322.684L74.3978 320.642C46.4773 335.079 14.068 355.785 18.2286 372.445C20.2557 380.561 30.5833 386.215 48.9247 389.248C59.3799 390.977 72.2219 391.844 87.299 391.844Z" fill="#CCCCCC"/>
<path d="M612.997 376.781C620.857 376.781 625.967 374.83 628.229 370.95C632.689 363.301 625.219 349.878 606.028 331.056L604.416 332.697C622.242 350.181 629.993 363.355 626.24 369.793C623.866 373.865 616.798 375.324 605.798 374.012C594.878 372.709 580.406 368.827 562.785 362.473C526.507 349.392 480.993 327.326 434.627 300.341C388.263 273.357 346.601 244.685 317.316 219.608C311.691 214.79 306.586 210.156 302.143 205.834C296.31 200.299 290.93 194.307 286.052 187.916C279.483 179.005 277.266 172.142 279.641 168.07C283.607 161.268 300.267 161.907 326.554 169.873L327.222 167.673C299.018 159.127 282.34 158.871 277.652 166.912C274.739 171.909 276.942 179.434 284.199 189.28C289.151 195.772 294.615 201.859 300.537 207.481C305.015 211.837 310.156 216.504 315.818 221.354C345.206 246.519 386.988 275.276 433.469 302.328C479.951 329.381 525.599 351.509 562.003 364.636C579.789 371.049 594.432 374.972 605.525 376.294C608.004 376.603 610.499 376.766 612.997 376.781Z" fill="#CCCCCC"/>
<path d="M192.971 282.376C198.658 282.263 229.209 281.387 234.219 281.602C234.502 280.611 243.999 292.771 244.23 292.847C244.384 293.009 244.496 293.206 244.558 293.421C244.619 293.636 244.627 293.863 244.581 294.082C244.536 294.301 244.438 294.506 244.296 294.679C244.154 294.851 243.972 294.988 243.766 295.075C243.208 295.414 193.956 294.504 193.36 294.622C193.102 294.618 192.85 294.541 192.634 294.401C192.417 294.26 192.245 294.061 192.137 293.827L191.808 293.09C191.774 291.83 191.361 285.389 191.731 284.287C191.641 284.081 191.602 283.855 191.62 283.63C191.639 283.404 191.712 283.187 191.835 282.998C191.958 282.808 192.126 282.652 192.324 282.544C192.523 282.435 192.745 282.378 192.971 282.376Z" fill="#E6E6E6"/>
<path opacity="0.17" d="M191.808 293.089C192.097 293.783 192.466 294.655 193.359 294.623L243.246 295.182C243.482 295.179 243.713 295.116 243.917 294.998C244.122 294.881 244.293 294.712 244.413 294.51C244.534 294.307 244.6 294.077 244.606 293.841C244.612 293.606 244.557 293.372 244.447 293.164L191.808 293.089Z" fill="black"/>
<path d="M233.985 281.453C234.522 280.525 247.859 214.589 248.972 214.038L258.078 202.908L258.892 202.297C260.024 201.676 262.739 202.096 262.494 203.823C260.355 214.07 246.595 272.434 246.294 281.533L244.638 293.125C244.608 293.322 244.537 293.511 244.43 293.68C244.323 293.848 244.182 293.992 244.016 294.102C243.85 294.213 243.662 294.287 243.465 294.321C243.269 294.355 243.067 294.347 242.874 294.298C242.399 294.246 241.945 294.073 241.558 293.793C241.171 293.514 240.864 293.138 240.666 292.704C240.542 292.295 233.362 281.69 233.985 281.453Z" fill="#E6E6E6"/>
<path opacity="0.17" d="M258.081 202.909L240.665 292.706C241.247 294.179 243.973 295.211 244.608 293.279C244.619 293.276 262.474 203.878 262.493 203.825C262.683 201.673 259.125 201.605 258.081 202.909Z" fill="black"/>
<path d="M257.556 206.581L248.711 218.899L238.783 266.009L243.398 270.031L257.556 206.581Z" fill="#0231C8"/>
<path d="M198.68 288.728L196.233 288.828C196.194 288.112 196.076 287.402 195.88 286.712C195.512 284.965 195.182 282.888 196.708 282.895C197.744 282.796 198.097 284.106 198.281 285.532C198.328 286.606 198.462 287.675 198.68 288.728Z" fill="#2F2E41"/>
<path d="M212.718 285.44L211.069 285.501L210.271 285.532C210.286 284.658 209.879 282.857 210.869 282.412C211.026 282.345 211.196 282.311 211.368 282.313C212.296 282.259 212.572 282.964 212.656 283.777C212.71 284.267 212.687 284.788 212.703 285.195C212.703 285.279 212.71 285.363 212.718 285.44Z" fill="#2F2E41"/>
<path d="M217.604 285.241L215.948 285.31L215.157 285.34C215.173 284.336 214.643 282.144 216.254 282.114C217.743 282.029 217.551 283.922 217.589 284.995C217.589 285.08 217.597 285.164 217.604 285.241Z" fill="#2F2E41"/>
<path d="M222.491 285.049L220.842 285.11L220.044 285.141C220.059 284.145 219.53 281.953 221.141 281.922C222.629 281.83 222.438 283.723 222.476 284.804C222.476 284.888 222.484 284.972 222.491 285.049Z" fill="#2F2E41"/>
<path d="M227.378 284.85L225.721 284.919L224.931 284.949C224.946 283.945 224.417 281.761 226.028 281.723C227.516 281.638 227.324 283.532 227.363 284.605C227.363 284.689 227.37 284.773 227.378 284.85Z" fill="#2F2E41"/>
<path d="M232.265 284.658L230.615 284.72L229.818 284.75C229.833 283.83 229.388 281.907 230.569 281.577H230.577C230.687 281.545 230.8 281.529 230.915 281.531C231.054 281.519 231.194 281.532 231.329 281.569H231.336C232.364 281.838 232.219 283.447 232.249 284.413C232.249 284.497 232.257 284.582 232.265 284.658Z" fill="#2F2E41"/>
<path d="M203.612 284.137L201.165 284.237C201.165 284.145 201.165 284.045 201.158 283.93C201.097 283.347 201.087 282.76 201.127 282.175C201.211 281.531 201.487 281.025 202.262 281.01C203.052 280.964 203.367 281.47 203.49 282.121C203.518 282.232 203.539 282.345 203.551 282.458V282.466C203.612 283.064 203.574 283.708 203.612 284.137Z" fill="#2F2E41"/>
<path d="M208.499 283.938L206.052 284.037C206 283.38 205.985 282.719 206.006 282.06C206.075 281.385 206.343 280.834 207.149 280.818C207.962 280.765 208.277 281.316 208.399 281.999C208.514 282.658 208.453 283.447 208.499 283.938Z" fill="#2F2E41"/>
<path d="M213.386 283.746L212.657 283.777L210.939 283.846C210.946 283.478 210.877 282.941 210.87 282.413C210.863 282.254 210.868 282.095 210.885 281.937C210.946 281.225 211.2 280.634 212.036 280.619C212.887 280.573 213.186 281.163 213.294 281.884C213.401 282.527 213.34 283.271 213.386 283.746Z" fill="#2F2E41"/>
<path d="M203.566 288.536L201.119 288.628C201.127 287.632 200.605 285.44 202.216 285.409C203.827 285.31 203.474 287.532 203.566 288.536Z" fill="#2F2E41"/>
<path d="M208.453 288.337L206.006 288.437C206.014 287.433 205.492 285.241 207.103 285.21C208.714 285.118 208.361 287.341 208.453 288.337Z" fill="#2F2E41"/>
<path d="M213.34 288.146L210.893 288.237C210.9 287.525 210.632 286.206 211.069 285.501C211.165 285.345 211.301 285.218 211.463 285.133C211.625 285.048 211.807 285.008 211.99 285.018C212.241 284.992 212.493 285.054 212.703 285.195C213.486 285.708 213.263 287.333 213.34 288.146Z" fill="#2F2E41"/>
<path d="M218.227 287.946L215.779 288.046C215.787 287.333 215.526 286.022 215.948 285.31C216.044 285.151 216.18 285.022 216.344 284.935C216.508 284.849 216.692 284.809 216.876 284.819C217.128 284.792 217.381 284.854 217.59 284.995C218.372 285.524 218.15 287.141 218.227 287.946Z" fill="#2F2E41"/>
<path d="M223.112 287.755L220.665 287.847C220.673 287.134 220.404 285.816 220.842 285.11C220.937 284.954 221.073 284.827 221.235 284.742C221.397 284.657 221.579 284.617 221.762 284.628C222.013 284.601 222.266 284.663 222.476 284.804C223.258 285.317 223.036 286.942 223.112 287.755Z" fill="#2F2E41"/>
<path d="M227.999 287.555L225.552 287.655C225.56 286.942 225.299 285.632 225.721 284.919C225.815 284.76 225.952 284.63 226.116 284.543C226.28 284.456 226.464 284.417 226.649 284.428C226.9 284.401 227.153 284.463 227.362 284.605C228.145 285.133 227.922 286.751 227.999 287.555Z" fill="#2F2E41"/>
<path d="M232.886 287.364L230.439 287.456C230.446 286.743 230.186 285.432 230.615 284.72C230.71 284.563 230.846 284.435 231.008 284.35C231.17 284.265 231.353 284.225 231.536 284.237C231.787 284.21 232.039 284.273 232.249 284.413C233.032 284.934 232.809 286.551 232.886 287.364Z" fill="#2F2E41"/>
<path d="M205.25 280.279L186.599 240.868L179.547 224.428L190.63 218.122C190.63 218.122 194.405 230.324 198.351 236.569C202.244 242.731 212.71 276.643 212.93 277.571C214.074 278.042 215.047 278.848 215.721 279.883C216.396 280.919 216.74 282.134 216.708 283.369C216.676 284.604 216.27 285.8 215.542 286.799C214.815 287.799 213.802 288.554 212.636 288.965C211.47 289.376 210.206 289.423 209.013 289.101C207.819 288.78 206.751 288.103 205.951 287.162C205.15 286.22 204.654 285.058 204.529 283.829C204.404 282.6 204.655 281.362 205.25 280.279H205.25Z" fill="#A0616A"/>
<path d="M205.363 243.79L191.258 252.292L188.059 247.461L185.929 246.363L177.111 231.236L169.315 223.3L159.015 190.405L172.417 192.414L172.434 192.42C174.822 193.685 176.957 195.947 179.885 197.94C189.11 204.222 197.065 224.576 200.854 235.924C200.917 236.11 201.172 236.24 201.468 236.367C202.874 236.967 204.028 238.034 204.738 239.386C205.448 240.738 205.669 242.294 205.363 243.79L205.363 243.79Z" fill="#0231C8"/>
</g>
<defs>
<clipPath id="clip0_689_15823">
<rect width="656" height="446" fill="white" transform="matrix(-1 0 0 1 656 0)"/>
</clipPath>
</defs>
</svg>
