<svg width="950" height="483" viewBox="0 0 950 483" fill="none" xmlns="http://www.w3.org/2000/svg">
<g clip-path="url(#clip0_689_15352)">
<path d="M910.324 462.904C882.682 482.816 846.861 483.816 812.236 481.37C807.401 481.029 802.6 480.629 797.844 480.197C797.815 480.189 797.778 480.192 797.749 480.184C797.52 480.163 797.291 480.141 797.072 480.128C796.091 480.036 795.108 479.944 794.136 479.852L794.366 480.29L795.087 481.651C794.828 481.195 794.569 480.75 794.309 480.294C794.233 480.158 794.148 480.022 794.072 479.885C785.102 464.276 776.206 448.093 773.937 430.27C771.591 411.769 778.183 390.821 794.465 381.728C796.601 380.539 798.862 379.592 801.208 378.904C802.181 378.608 803.168 378.368 804.167 378.156C810.273 376.8 816.631 377.095 822.585 379.01C828.54 380.926 833.877 384.393 838.048 389.055C842.219 393.717 845.072 399.406 846.316 405.536C847.559 411.667 847.147 418.018 845.122 423.936C858.926 409.781 856.351 386.818 851.589 367.626C846.818 348.435 841.042 327.079 850.746 309.842C856.141 300.247 865.627 294.294 876.273 291.896C876.599 291.826 876.925 291.755 877.253 291.695C889.937 289.125 903.123 291.436 914.178 298.165C934.534 310.992 944.989 335.313 948.382 359.137C953.849 397.475 941.75 440.262 910.324 462.904Z" fill="#F2F2F2"/>
<path d="M901.399 401.446C900.596 409.903 898.565 418.197 895.369 426.067C892.423 433.032 888.453 439.517 883.589 445.308C873.655 457.258 860.518 466.243 846.252 472.23C835.343 476.698 823.914 479.769 812.235 481.37C807.4 481.029 802.6 480.629 797.843 480.197C797.815 480.189 797.777 480.192 797.748 480.184C797.519 480.163 797.29 480.141 797.071 480.128C796.09 480.036 795.108 479.944 794.135 479.852L794.365 480.29L795.086 481.65C794.827 481.195 794.568 480.749 794.309 480.294C794.233 480.158 794.147 480.021 794.071 479.885C802.827 471.161 809.364 460.467 813.135 448.697C816.906 436.927 817.8 424.424 815.744 412.237C813.593 400.136 808.611 388.714 801.207 378.904C802.181 378.608 803.168 378.368 804.166 378.156C806.98 382.003 809.448 386.091 811.542 390.373C819.056 405.644 821.453 422.927 818.378 439.666C815.52 454.813 808.4 468.831 797.854 480.073C798.777 480.008 799.71 479.932 800.622 479.849C817.906 478.385 835.155 474.669 850.831 467.058C864.231 460.711 875.865 451.165 884.707 439.263C894.201 426.169 898.385 410.419 899.104 394.411C899.866 377.273 897.642 359.834 893.731 343.168C889.737 326.082 883.668 309.549 875.658 293.937C875.479 293.583 875.443 293.174 875.557 292.794C875.671 292.414 875.927 292.093 876.272 291.896C876.559 291.702 876.911 291.63 877.252 291.694C877.418 291.738 877.573 291.82 877.704 291.932C877.835 292.044 877.939 292.184 878.008 292.342C878.996 294.27 879.966 296.2 880.899 298.152C888.668 314.406 894.388 331.562 897.927 349.227C901.363 366.267 903.197 384.093 901.399 401.446Z" fill="white"/>
<path d="M540.481 471.702C554.601 481.874 572.899 482.385 590.586 481.135C593.056 480.961 595.508 480.757 597.938 480.536C597.953 480.532 597.972 480.534 597.987 480.53C598.104 480.519 598.221 480.508 598.332 480.501C598.834 480.454 599.335 480.407 599.832 480.36L599.715 480.584L599.347 481.279C599.479 481.046 599.611 480.818 599.744 480.586C599.782 480.516 599.826 480.447 599.865 480.377C604.447 472.403 608.991 464.137 610.15 455.032C611.349 445.582 607.981 434.881 599.664 430.236C598.573 429.629 597.418 429.145 596.22 428.794C595.722 428.643 595.218 428.52 594.708 428.411C591.589 427.719 588.341 427.869 585.3 428.848C582.258 429.826 579.532 431.597 577.401 433.979C575.271 436.36 573.813 439.266 573.178 442.398C572.543 445.53 572.753 448.774 573.788 451.797C566.736 444.566 568.051 432.836 570.484 423.032C572.921 413.229 575.871 402.321 570.914 393.515C569.511 391.154 567.624 389.116 565.376 387.536C563.129 385.956 560.572 384.87 557.875 384.348C557.708 384.312 557.542 384.276 557.375 384.245C550.895 382.933 544.159 384.113 538.512 387.55C528.114 394.103 522.773 406.526 521.04 418.696C518.247 438.28 524.428 460.136 540.481 471.702Z" fill="#F2F2F2"/>
<path d="M545.04 440.309C545.45 444.628 546.488 448.865 548.12 452.886C549.625 456.443 551.653 459.756 554.137 462.714C559.302 468.759 565.843 473.475 573.21 476.466C578.782 478.748 584.621 480.317 590.586 481.135C593.056 480.961 595.508 480.756 597.938 480.536C597.953 480.532 597.972 480.533 597.987 480.53C598.104 480.519 598.221 480.507 598.332 480.501C598.834 480.454 599.336 480.407 599.832 480.36L599.715 480.584L599.347 481.279C599.479 481.046 599.611 480.818 599.744 480.586C599.783 480.516 599.826 480.446 599.865 480.377C595.392 475.921 592.053 470.457 590.127 464.445C588.201 458.433 587.744 452.046 588.794 445.821C589.893 439.639 592.437 433.805 596.22 428.794C595.722 428.642 595.218 428.52 594.708 428.411C593.271 430.376 592.01 432.465 590.94 434.652C587.102 442.453 585.878 451.282 587.448 459.832C588.908 467.57 592.545 474.73 597.933 480.473C597.461 480.439 596.985 480.401 596.519 480.358C587.641 479.771 578.947 477.556 570.871 473.825C564.026 470.582 558.083 465.706 553.566 459.626C548.717 452.937 546.579 444.892 546.212 436.715C545.93 427.905 546.853 419.098 548.957 410.539C550.997 401.811 554.097 393.366 558.189 385.391C558.28 385.21 558.299 385.001 558.24 384.807C558.182 384.613 558.051 384.449 557.875 384.348C557.728 384.249 557.549 384.212 557.375 384.245C557.29 384.268 557.211 384.309 557.144 384.366C557.077 384.424 557.024 384.495 556.988 384.576C556.484 385.561 555.988 386.547 555.512 387.544C551.543 395.847 548.621 404.61 546.813 413.634C544.889 422.386 544.292 431.378 545.04 440.309Z" fill="white"/>
<path d="M164 13.2231H17C12.4933 13.2295 8.17296 15.0226 4.98622 18.2094C1.79948 21.3961 0.00637539 25.7164 0 30.2231V261.223C0.00637803 265.73 1.79948 270.05 4.98622 273.237C8.17296 276.424 12.4933 278.217 17 278.223H164C168.507 278.217 172.827 276.424 176.014 273.237C179.201 270.05 180.994 265.73 181 261.223V30.2231C180.994 25.7164 179.201 21.3961 176.014 18.2094C172.827 15.0226 168.507 13.2295 164 13.2231ZM179 261.223C178.995 265.2 177.413 269.012 174.601 271.824C171.789 274.636 167.977 276.218 164 276.223H17C13.0232 276.218 9.21074 274.636 6.39874 271.824C3.58675 269.012 2.00484 265.2 2 261.223V30.2231C2.00484 26.2464 3.58675 22.4339 6.39874 19.6219C9.21074 16.8099 13.0232 15.228 17 15.2231H164C167.977 15.228 171.789 16.8099 174.601 19.6219C177.413 22.4339 178.995 26.2464 179 30.2231V261.223Z" fill="#3F3D56"/>
<path d="M479 278.223H332C327.493 278.218 323.172 276.425 319.985 273.238C316.798 270.051 315.005 265.73 315 261.223V30.2231C315.005 25.716 316.798 21.395 319.985 18.2079C323.172 15.0209 327.493 13.2282 332 13.2231H479C483.507 13.2282 487.828 15.0209 491.015 18.2079C494.202 21.395 495.995 25.716 496 30.2231V261.223C495.995 265.73 494.202 270.051 491.015 273.238C487.828 276.425 483.507 278.218 479 278.223ZM332 15.2231C328.023 15.2276 324.21 16.8094 321.398 19.6215C318.586 22.4336 317.004 26.2463 317 30.2231V261.223C317.004 265.2 318.586 269.013 321.398 271.825C324.21 274.637 328.023 276.219 332 276.223H479C482.977 276.219 486.79 274.637 489.602 271.825C492.414 269.013 493.996 265.2 494 261.223V30.2231C493.996 26.2463 492.414 22.4336 489.602 19.6215C486.79 16.8094 482.977 15.2276 479 15.2231H332Z" fill="#3F3D56"/>
<path d="M268 147.223H207C206.735 147.223 206.48 147.118 206.293 146.93C206.105 146.743 206 146.488 206 146.223C206 145.958 206.105 145.704 206.293 145.516C206.48 145.328 206.735 145.223 207 145.223H268C268.265 145.223 268.52 145.328 268.707 145.516C268.895 145.704 269 145.958 269 146.223C269 146.488 268.895 146.743 268.707 146.93C268.52 147.118 268.265 147.223 268 147.223Z" fill="#3F3D56"/>
<path d="M255.001 174.649C254.791 174.649 254.587 174.583 254.417 174.461C254.247 174.34 254.12 174.167 254.053 173.969C253.986 173.771 253.983 173.556 254.044 173.356C254.105 173.156 254.227 172.98 254.394 172.853L286.217 148.609C286.585 148.329 286.883 147.968 287.088 147.555C287.293 147.141 287.399 146.685 287.399 146.223C287.399 145.761 287.293 145.306 287.088 144.892C286.883 144.478 286.585 144.117 286.217 143.837L254.394 119.593C254.183 119.432 254.045 119.194 254.01 118.931C253.975 118.669 254.045 118.403 254.205 118.192C254.366 117.981 254.604 117.843 254.866 117.807C255.129 117.772 255.395 117.842 255.606 118.002L287.429 142.246C288.042 142.713 288.538 143.314 288.88 144.004C289.222 144.694 289.399 145.453 289.399 146.223C289.399 146.993 289.222 147.752 288.88 148.442C288.538 149.132 288.042 149.734 287.429 150.2L255.606 174.444C255.432 174.577 255.219 174.649 255.001 174.649V174.649Z" fill="#3F3D56"/>
<path d="M582 147.223H521C520.735 147.223 520.48 147.118 520.293 146.93C520.105 146.743 520 146.488 520 146.223C520 145.958 520.105 145.704 520.293 145.516C520.48 145.328 520.735 145.223 521 145.223H582C582.265 145.223 582.52 145.328 582.707 145.516C582.895 145.704 583 145.958 583 146.223C583 146.488 582.895 146.743 582.707 146.93C582.52 147.118 582.265 147.223 582 147.223Z" fill="#3F3D56"/>
<path d="M569.001 174.649C568.791 174.649 568.587 174.583 568.417 174.461C568.247 174.34 568.12 174.167 568.053 173.969C567.986 173.771 567.983 173.556 568.044 173.356C568.105 173.156 568.227 172.98 568.394 172.853L600.217 148.609C600.585 148.329 600.883 147.968 601.088 147.555C601.293 147.141 601.399 146.685 601.399 146.223C601.399 145.761 601.293 145.306 601.088 144.892C600.883 144.478 600.585 144.117 600.217 143.837L568.394 119.593C568.183 119.432 568.045 119.194 568.01 118.931C567.975 118.669 568.045 118.403 568.205 118.192C568.366 117.981 568.604 117.843 568.866 117.807C569.129 117.772 569.395 117.842 569.606 118.002L601.429 142.246C602.042 142.713 602.538 143.314 602.88 144.004C603.222 144.694 603.399 145.453 603.399 146.223C603.399 146.993 603.222 147.752 602.88 148.442C602.538 149.132 602.042 149.734 601.429 150.2L569.606 174.444C569.432 174.577 569.219 174.649 569.001 174.649V174.649Z" fill="#3F3D56"/>
<path d="M423.5 106.723H388.5C386.246 106.72 384.086 105.824 382.492 104.231C380.899 102.637 380.003 100.476 380 98.2229V64.2229C380.003 61.9693 380.899 59.8088 382.492 58.2153C384.086 56.6218 386.246 55.7254 388.5 55.7229H423.5C425.754 55.7254 427.914 56.6218 429.508 58.2153C431.101 59.8088 431.997 61.9693 432 64.2229V98.2229C431.997 100.476 431.101 102.637 429.508 104.231C427.914 105.824 425.754 106.72 423.5 106.723V106.723Z" fill="#0231C8"/>
<path d="M430 106.223C429.869 106.223 429.738 106.197 429.617 106.147C429.496 106.097 429.386 106.023 429.293 105.93L381.293 57.9301C381.2 57.8372 381.126 57.727 381.076 57.6057C381.026 57.4844 381 57.3543 381 57.223C381 57.0917 381.026 56.9617 381.076 56.8404C381.126 56.7191 381.2 56.6088 381.293 56.516C381.386 56.4231 381.496 56.3495 381.617 56.2993C381.739 56.249 381.869 56.2231 382 56.2231C382.131 56.2231 382.261 56.249 382.383 56.2993C382.504 56.3495 382.614 56.4232 382.707 56.516L430.707 104.516C430.847 104.656 430.942 104.834 430.981 105.028C431.019 105.222 430.999 105.423 430.924 105.606C430.848 105.788 430.72 105.945 430.555 106.054C430.391 106.164 430.198 106.223 430 106.223L430 106.223Z" fill="white"/>
<path d="M382 106.223C381.802 106.223 381.609 106.164 381.444 106.054C381.28 105.945 381.152 105.788 381.076 105.606C381 105.423 380.981 105.222 381.019 105.028C381.058 104.834 381.153 104.656 381.293 104.516L429.293 56.516C429.386 56.4232 429.496 56.3495 429.617 56.2993C429.738 56.249 429.868 56.2231 430 56.2231C430.131 56.2231 430.261 56.249 430.382 56.2993C430.504 56.3495 430.614 56.4231 430.707 56.516C430.8 56.6088 430.873 56.7191 430.924 56.8404C430.974 56.9617 431 57.0917 431 57.223C431 57.3543 430.974 57.4844 430.924 57.6057C430.873 57.727 430.8 57.8372 430.707 57.9301L382.707 105.93C382.614 106.023 382.504 106.097 382.383 106.147C382.261 106.197 382.131 106.223 382 106.223V106.223Z" fill="white"/>
<path d="M438 159.223H373C369.685 159.223 366.505 157.906 364.161 155.562C361.817 153.218 360.5 150.038 360.5 146.723C360.5 143.408 361.817 140.229 364.161 137.884C366.505 135.54 369.685 134.223 373 134.223H438C441.315 134.223 444.495 135.54 446.839 137.884C449.183 140.229 450.5 143.408 450.5 146.723C450.5 150.038 449.183 153.218 446.839 155.562C444.495 157.906 441.315 159.223 438 159.223ZM373 136.223C370.215 136.223 367.545 137.329 365.575 139.299C363.606 141.268 362.5 143.938 362.5 146.723C362.5 149.508 363.606 152.179 365.575 154.148C367.545 156.117 370.215 157.223 373 157.223H438C440.785 157.223 443.456 156.117 445.425 154.148C447.394 152.179 448.5 149.508 448.5 146.723C448.5 143.938 447.394 141.268 445.425 139.299C443.456 137.329 440.785 136.223 438 136.223H373Z" fill="#3F3D56"/>
<path d="M438 197.223H373C369.685 197.223 366.505 195.906 364.161 193.562C361.817 191.218 360.5 188.038 360.5 184.723C360.5 181.408 361.817 178.229 364.161 175.884C366.505 173.54 369.685 172.223 373 172.223H438C441.315 172.223 444.495 173.54 446.839 175.884C449.183 178.229 450.5 181.408 450.5 184.723C450.5 188.038 449.183 191.218 446.839 193.562C444.495 195.906 441.315 197.223 438 197.223V197.223ZM373 174.223C370.215 174.223 367.545 175.329 365.575 177.299C363.606 179.268 362.5 181.938 362.5 184.723C362.5 187.508 363.606 190.179 365.575 192.148C367.545 194.117 370.215 195.223 373 195.223H438C440.785 195.223 443.456 194.117 445.425 192.148C447.394 190.179 448.5 187.508 448.5 184.723C448.5 181.938 447.394 179.268 445.425 177.299C443.456 175.329 440.785 174.223 438 174.223H373Z" fill="#3F3D56"/>
<path d="M438 235.223H373C369.685 235.223 366.505 233.906 364.161 231.562C361.817 229.218 360.5 226.038 360.5 222.723C360.5 219.408 361.817 216.229 364.161 213.884C366.505 211.54 369.685 210.223 373 210.223H438C441.315 210.223 444.495 211.54 446.839 213.884C449.183 216.229 450.5 219.408 450.5 222.723C450.5 226.038 449.183 229.218 446.839 231.562C444.495 233.906 441.315 235.223 438 235.223ZM373 212.223C370.215 212.223 367.545 213.329 365.575 215.299C363.606 217.268 362.5 219.938 362.5 222.723C362.5 225.508 363.606 228.179 365.575 230.148C367.545 232.117 370.215 233.223 373 233.223H438C440.785 233.223 443.456 232.117 445.425 230.148C447.394 228.179 448.5 225.508 448.5 222.723C448.5 219.938 447.394 217.268 445.425 215.299C443.456 213.329 440.785 212.223 438 212.223H373Z" fill="#3F3D56"/>
<path d="M780.831 0.230752L635.815 24.2985C631.37 25.0427 627.401 27.519 624.779 31.1845C622.157 34.85 621.096 39.4056 621.827 43.8525L659.648 271.735C660.392 276.18 662.869 280.149 666.534 282.771C670.2 285.393 674.755 286.454 679.202 285.723L824.219 261.655C828.663 260.911 832.632 258.434 835.254 254.769C837.876 251.103 838.937 246.548 838.206 242.101L800.385 14.218C799.641 9.77315 797.165 5.80471 793.499 3.18273C789.834 0.560751 785.278 -0.500824 780.831 0.230752V0.230752ZM836.233 242.428C836.879 246.352 835.943 250.372 833.629 253.607C831.315 256.841 827.813 259.026 823.891 259.682L678.875 283.75C674.951 284.396 670.931 283.46 667.696 281.146C664.462 278.832 662.277 275.33 661.621 271.408L623.8 43.525C623.154 39.6011 624.09 35.5811 626.404 32.3466C628.718 29.1122 632.22 26.9274 636.142 26.2716L781.158 2.20377C785.082 1.55744 789.102 2.4938 792.337 4.80746C795.571 7.12111 797.756 10.6232 798.412 14.5455L836.233 242.428Z" fill="#3F3D56"/>
<path d="M755.286 93.6741L691.163 104.316C687.892 104.859 684.54 104.081 681.844 102.152C679.147 100.223 677.328 97.3021 676.785 94.0316C676.242 90.7611 677.021 87.409 678.95 84.7126C680.878 82.0162 683.799 80.1965 687.07 79.6537L751.193 69.0115C754.462 68.4709 757.812 69.2507 760.507 71.1795C763.202 73.1084 765.02 76.0283 765.563 79.2975C766.106 82.5666 765.328 85.9175 763.401 88.6134C761.473 91.3093 758.555 93.1296 755.286 93.6741V93.6741ZM687.397 81.6267C684.65 82.0832 682.198 83.612 680.578 85.8768C678.958 88.1416 678.305 90.957 678.76 93.7037C679.216 96.4505 680.744 98.9038 683.009 100.524C685.273 102.144 688.089 102.799 690.835 102.343L754.958 91.7011C757.705 91.2446 760.158 89.7158 761.777 87.451C763.397 85.1862 764.051 82.3708 763.595 79.6241C763.139 76.8773 761.611 74.4241 759.347 72.8039C757.082 71.1837 754.267 70.5293 751.52 70.9845L687.397 81.6267Z" fill="#CCCCCC"/>
<path d="M762.818 139.054L698.695 149.696C697.075 149.966 695.418 149.914 693.818 149.543C692.218 149.172 690.707 148.49 689.371 147.535C688.035 146.58 686.901 145.371 686.032 143.977C685.164 142.583 684.578 141.032 684.309 139.412C684.04 137.792 684.093 136.135 684.465 134.536C684.837 132.936 685.52 131.426 686.476 130.09C687.432 128.755 688.641 127.621 690.036 126.753C691.43 125.886 692.981 125.301 694.601 125.033L758.724 114.391C761.995 113.848 765.347 114.627 768.043 116.556C770.74 118.484 772.559 121.405 773.102 124.676C773.645 127.946 772.866 131.298 770.938 133.995C769.009 136.691 766.088 138.511 762.818 139.054V139.054ZM694.929 127.006C692.183 127.463 689.731 128.992 688.111 131.257C686.492 133.521 685.839 136.336 686.294 139.083C686.75 141.829 688.278 144.282 690.542 145.902C692.806 147.522 695.621 148.177 698.367 147.723L762.49 137.081C765.236 136.624 767.689 135.095 769.308 132.83C770.927 130.565 771.58 127.75 771.124 125.004C770.669 122.258 769.141 119.805 766.877 118.184C764.613 116.564 761.798 115.909 759.052 116.364L694.929 127.006Z" fill="#CCCCCC"/>
<path d="M770.349 184.433L706.226 195.075C704.606 195.345 702.949 195.293 701.349 194.922C699.749 194.551 698.238 193.869 696.903 192.914C695.567 191.959 694.432 190.75 693.563 189.356C692.695 187.963 692.109 186.411 691.841 184.791C691.572 183.171 691.625 181.514 691.996 179.915C692.368 178.315 693.052 176.805 694.007 175.469C694.963 174.134 696.173 173 697.567 172.132C698.961 171.265 700.513 170.68 702.133 170.412L766.256 159.77C769.525 159.229 772.876 160.009 775.57 161.938C778.265 163.867 780.084 166.787 780.626 170.056C781.169 173.325 780.391 176.676 778.464 179.372C776.536 182.068 773.618 183.888 770.349 184.433ZM702.46 172.385C701.1 172.611 699.797 173.102 698.626 173.831C697.456 174.56 696.44 175.513 695.638 176.634C694.835 177.756 694.261 179.024 693.949 180.368C693.637 181.711 693.593 183.103 693.819 184.463C694.044 185.824 694.536 187.126 695.265 188.297C695.995 189.467 696.947 190.483 698.069 191.285C699.191 192.087 700.46 192.66 701.803 192.972C703.146 193.284 704.538 193.328 705.898 193.102L770.021 182.46C771.382 182.234 772.685 181.743 773.856 181.014C775.027 180.285 776.043 179.333 776.846 178.211C777.648 177.09 778.222 175.821 778.534 174.477C778.847 173.134 778.891 171.742 778.665 170.381C778.439 169.021 777.948 167.718 777.218 166.547C776.489 165.377 775.536 164.361 774.414 163.559C773.292 162.757 772.023 162.184 770.679 161.872C769.335 161.56 767.944 161.517 766.583 161.743L702.46 172.385Z" fill="#CCCCCC"/>
<path d="M777.88 229.812L713.758 240.454C712.138 240.723 710.482 240.67 708.883 240.299C707.284 239.927 705.774 239.245 704.438 238.29C703.103 237.335 701.969 236.126 701.101 234.733C700.233 233.339 699.648 231.789 699.38 230.17C699.111 228.55 699.164 226.894 699.535 225.295C699.907 223.696 700.589 222.186 701.544 220.851C702.499 219.515 703.708 218.381 705.101 217.513C706.494 216.645 708.045 216.06 709.664 215.792L773.787 205.149C777.057 204.609 780.407 205.389 783.102 207.317C785.797 209.246 787.615 212.166 788.158 215.435C788.7 218.705 787.922 222.055 785.995 224.751C784.068 227.447 781.149 229.268 777.88 229.812V229.812ZM709.992 217.765C708.632 217.99 707.329 218.482 706.159 219.211C704.988 219.94 703.973 220.893 703.171 222.014C701.551 224.279 700.897 227.095 701.353 229.842C701.809 232.589 703.337 235.043 705.602 236.663C707.867 238.283 710.683 238.937 713.43 238.481L777.553 227.839C780.3 227.383 782.753 225.854 784.372 223.589C785.992 221.324 786.646 218.509 786.19 215.762C785.734 213.015 784.206 210.562 781.941 208.942C779.677 207.322 776.862 206.667 774.115 207.122L709.992 217.765Z" fill="#CCCCCC"/>
<path d="M801.592 27.5945L625.007 56.9015C624.877 56.9235 624.744 56.9196 624.616 56.8902C624.488 56.8608 624.367 56.8063 624.259 56.7299C624.152 56.6535 624.061 56.5567 623.992 56.4451C623.922 56.3334 623.875 56.2091 623.853 56.0793C623.832 55.9494 623.836 55.8166 623.866 55.6884C623.896 55.5603 623.951 55.4393 624.028 55.3324C624.104 55.2255 624.201 55.1347 624.313 55.0654C624.425 54.9961 624.55 54.9496 624.68 54.9285L801.264 25.6215C801.394 25.5995 801.527 25.6033 801.655 25.6328C801.783 25.6622 801.904 25.7167 802.012 25.7931C802.119 25.8695 802.21 25.9663 802.279 26.0779C802.349 26.1896 802.396 26.3139 802.418 26.4437C802.439 26.5735 802.435 26.7063 802.405 26.8345C802.375 26.9627 802.32 27.0837 802.244 27.1906C802.167 27.2975 802.07 27.3882 801.958 27.4575C801.846 27.5269 801.721 27.5734 801.592 27.5945V27.5945Z" fill="#3F3D56"/>
<path d="M644.19 45.1138C648.056 45.1138 651.19 41.9798 651.19 38.1138C651.19 34.2478 648.056 31.1138 644.19 31.1138C640.324 31.1138 637.19 34.2478 637.19 38.1138C637.19 41.9798 640.324 45.1138 644.19 45.1138Z" fill="#0231C8"/>
<path d="M783.619 10.9186L763.889 14.1931C763.628 14.2356 763.36 14.1727 763.145 14.0184C762.93 13.8641 762.785 13.6308 762.742 13.3698C762.699 13.1087 762.761 12.8412 762.914 12.6257C763.068 12.4102 763.301 12.2644 763.561 12.2201L783.292 8.9456C783.553 8.9031 783.82 8.9659 784.035 9.12022C784.25 9.27454 784.395 9.50779 784.439 9.76888C784.482 10.03 784.42 10.2976 784.266 10.5131C784.113 10.7286 783.88 10.8744 783.619 10.9186V10.9186Z" fill="#3F3D56"/>
<path d="M784.601 16.8378L764.871 20.1123C764.61 20.1547 764.343 20.0919 764.128 19.9375C763.913 19.7832 763.768 19.55 763.724 19.2889C763.681 19.0279 763.743 18.7603 763.897 18.5448C764.05 18.3293 764.283 18.1835 764.544 18.1393L784.274 14.8647C784.535 14.8223 784.803 14.8852 785.017 15.0395C785.232 15.1938 785.377 15.427 785.421 15.6881C785.464 15.9491 785.402 16.2167 785.249 16.4322C785.095 16.6477 784.862 16.7935 784.601 16.8377V16.8378Z" fill="#3F3D56"/>
<path d="M785.583 22.7566L765.853 26.0311C765.724 26.0531 765.591 26.0492 765.463 26.0198C765.334 25.9903 765.213 25.9358 765.106 25.8594C764.999 25.783 764.908 25.6862 764.838 25.5746C764.769 25.463 764.722 25.3387 764.7 25.2089C764.678 25.0791 764.683 24.9463 764.713 24.8181C764.743 24.69 764.797 24.569 764.874 24.4621C764.951 24.3552 765.048 24.2644 765.16 24.1951C765.272 24.1258 765.396 24.0792 765.526 24.0581L785.256 20.7836C785.386 20.7616 785.519 20.7654 785.647 20.7949C785.775 20.8243 785.896 20.8788 786.004 20.9552C786.111 21.0316 786.202 21.1284 786.271 21.24C786.341 21.3517 786.388 21.476 786.41 21.6058C786.431 21.7356 786.427 21.8684 786.397 21.9966C786.367 22.1248 786.312 22.2458 786.236 22.3527C786.159 22.4596 786.062 22.5503 785.95 22.6197C785.838 22.689 785.713 22.7355 785.583 22.7566Z" fill="#3F3D56"/>
<path d="M128 163.723H53C50.7464 163.72 48.5859 162.824 46.9924 161.231C45.3989 159.637 44.5025 157.476 44.5 155.223V79.2229C44.5025 76.9693 45.3989 74.8088 46.9924 73.2153C48.5859 71.6218 50.7464 70.7254 53 70.7229H128C130.254 70.7254 132.414 71.6218 134.008 73.2153C135.601 74.8088 136.497 76.9693 136.5 79.2229V155.223C136.497 157.476 135.601 159.637 134.008 161.231C132.414 162.824 130.254 163.72 128 163.723V163.723Z" fill="#0231C8"/>
<path d="M122.5 220.223H57.5C54.1848 220.223 51.0054 218.906 48.6612 216.562C46.317 214.218 45 211.038 45 207.723C45 204.408 46.317 201.229 48.6612 198.884C51.0054 196.54 54.1848 195.223 57.5 195.223H122.5C125.815 195.223 128.995 196.54 131.339 198.884C133.683 201.229 135 204.408 135 207.723C135 211.038 133.683 214.218 131.339 216.562C128.995 218.906 125.815 220.223 122.5 220.223ZM57.5 197.223C54.7152 197.223 52.0445 198.329 50.0754 200.299C48.1062 202.268 47 204.938 47 207.723C47 210.508 48.1062 213.179 50.0754 215.148C52.0445 217.117 54.7152 218.223 57.5 218.223H122.5C125.285 218.223 127.955 217.117 129.925 215.148C131.894 213.179 133 210.508 133 207.723C133 204.938 131.894 202.268 129.925 200.299C127.955 198.329 125.285 197.223 122.5 197.223H57.5Z" fill="#3F3D56"/>
<path d="M134.5 162.223C134.368 162.223 134.238 162.197 134.117 162.147C133.995 162.097 133.885 162.023 133.792 161.93L45.7925 73.9301C45.6986 73.8374 45.6241 73.7271 45.573 73.6055C45.522 73.484 45.4955 73.3535 45.4951 73.2216C45.4947 73.0898 45.5204 72.9591 45.5707 72.8372C45.6209 72.7153 45.6948 72.6046 45.7881 72.5114C45.8813 72.4181 45.9921 72.3443 46.114 72.294C46.2359 72.2438 46.3665 72.2181 46.4984 72.2185C46.6302 72.2189 46.7607 72.2455 46.8823 72.2965C47.0039 72.3476 47.1141 72.4222 47.2068 72.516L135.207 160.516C135.347 160.656 135.442 160.834 135.48 161.028C135.519 161.222 135.499 161.423 135.423 161.606C135.348 161.788 135.22 161.945 135.055 162.054C134.891 162.164 134.697 162.223 134.5 162.223V162.223Z" fill="white"/>
<path d="M46.5 162.223C46.3022 162.223 46.1089 162.164 45.9444 162.054C45.78 161.945 45.6518 161.788 45.5761 161.606C45.5005 161.423 45.4806 161.222 45.5192 161.028C45.5578 160.834 45.653 160.656 45.7928 160.516L133.793 72.516C133.885 72.4222 133.996 72.3476 134.117 72.2965C134.239 72.2455 134.369 72.2189 134.501 72.2185C134.633 72.2181 134.764 72.2438 134.886 72.294C135.007 72.3443 135.118 72.4181 135.211 72.5114C135.305 72.6046 135.379 72.7153 135.429 72.8372C135.479 72.9591 135.505 73.0897 135.504 73.2216C135.504 73.3534 135.478 73.4839 135.427 73.6055C135.375 73.7271 135.301 73.8374 135.207 73.93L47.2071 161.93C47.1144 162.023 47.0041 162.097 46.8828 162.147C46.7614 162.197 46.6313 162.223 46.5 162.223V162.223Z" fill="white"/>
<path d="M819.054 264.413C819.517 262.912 819.645 261.328 819.43 259.772C819.214 258.217 818.66 256.727 817.807 255.409C816.954 254.09 815.822 252.975 814.491 252.141C813.16 251.308 811.662 250.776 810.104 250.584L758.771 190.6L746.798 203.171L797.929 260.685C797.779 263.325 798.603 265.928 800.245 268.001C801.886 270.073 804.231 271.472 806.835 271.932C809.439 272.391 812.121 271.88 814.373 270.494C816.625 269.108 818.29 266.944 819.054 264.413V264.413Z" fill="#A0616A"/>
<path d="M773.641 203.237L755.292 216.647C754.77 217.029 754.172 217.293 753.538 217.423C752.904 217.552 752.25 217.544 751.62 217.398C750.991 217.252 750.399 216.972 749.887 216.577C749.375 216.182 748.955 215.681 748.654 215.109L738.109 195.053C736.172 192.371 735.378 189.03 735.9 185.763C736.422 182.496 738.219 179.569 740.896 177.624C743.573 175.68 746.912 174.877 750.18 175.39C753.449 175.904 756.38 177.692 758.332 180.364L774.191 196.445C774.645 196.905 774.994 197.458 775.215 198.066C775.436 198.674 775.523 199.322 775.471 199.967C775.419 200.611 775.229 201.237 774.913 201.801C774.597 202.366 774.163 202.855 773.641 203.237V203.237Z" fill="#0231C8"/>
<path d="M738.233 163.162C751.798 163.162 762.794 152.166 762.794 138.601C762.794 125.036 751.798 114.04 738.233 114.04C724.668 114.04 713.672 125.036 713.672 138.601C713.672 152.166 724.668 163.162 738.233 163.162Z" fill="#A0616A"/>
<path d="M748.902 249.409C748.647 249.409 748.393 249.388 748.142 249.346L705.047 242.092C704.009 241.919 703.064 241.387 702.378 240.589C701.692 239.791 701.309 238.777 701.294 237.725C701.163 227.865 701.9 202.977 711.56 184.849C714.58 179.182 719.557 174.806 725.562 172.534C731.568 170.262 738.195 170.249 744.21 172.497C750.225 174.744 755.218 179.101 758.262 184.755C761.306 190.409 762.192 196.976 760.756 203.235C757.523 217.159 755.052 231.25 753.354 245.444C753.224 246.535 752.699 247.54 751.879 248.271C751.059 249.001 750 249.406 748.902 249.409L748.902 249.409Z" fill="#2F2E41"/>
<path d="M658.548 168.538C658.671 169.078 658.751 169.626 658.787 170.178L701.745 194.96L712.186 188.949L723.317 203.521L705.867 215.959C704.457 216.964 702.759 217.484 701.029 217.442C699.298 217.4 697.628 216.797 696.269 215.725L651.972 180.779C649.973 181.519 647.796 181.633 645.731 181.106C643.665 180.578 641.81 179.435 640.41 177.827C639.011 176.219 638.134 174.223 637.896 172.104C637.659 169.986 638.072 167.846 639.081 165.968C640.09 164.09 641.646 162.564 643.543 161.592C645.441 160.62 647.589 160.249 649.702 160.528C651.816 160.807 653.794 161.723 655.374 163.154C656.954 164.585 658.061 166.463 658.548 168.538V168.538Z" fill="#A0616A"/>
<path d="M702.335 192.483C702.464 191.85 702.729 191.251 703.11 190.729C703.492 190.207 703.982 189.774 704.546 189.458L724.259 178.435C726.878 176.414 730.192 175.514 733.474 175.932C736.756 176.35 739.738 178.053 741.766 180.666C743.795 183.279 744.705 186.59 744.296 189.873C743.887 193.156 742.193 196.143 739.586 198.179L723.868 214.501C723.42 214.966 722.876 215.33 722.274 215.567C721.673 215.803 721.027 215.908 720.381 215.872C719.735 215.837 719.105 215.663 718.533 215.362C717.96 215.061 717.46 214.64 717.065 214.128L703.181 196.134C702.785 195.622 702.505 195.031 702.359 194.401C702.213 193.771 702.205 193.117 702.335 192.483Z" fill="#0231C8"/>
<path d="M681.537 469.689H669.277L666.391 422.554L681.539 422.401L681.537 469.689Z" fill="#A0616A"/>
<path d="M684.663 481.573L645.133 481.572V481.072C645.133 479.051 645.531 477.05 646.304 475.184C647.077 473.317 648.211 471.621 649.639 470.192C651.068 468.763 652.764 467.63 654.631 466.857C656.498 466.083 658.499 465.685 660.519 465.686H660.52L684.664 465.687L684.663 481.573Z" fill="#2F2E41"/>
<path d="M798.537 469.689H786.277L780.445 422.401H798.539L798.537 469.689Z" fill="#A0616A"/>
<path d="M801.663 481.573L762.133 481.572V481.072C762.133 479.051 762.531 477.05 763.304 475.184C764.077 473.317 765.211 471.621 766.639 470.192C768.068 468.763 769.764 467.63 771.631 466.857C773.498 466.083 775.499 465.685 777.519 465.686H777.52L801.664 465.687L801.663 481.573Z" fill="#2F2E41"/>
<path d="M784.599 445.167C783.666 445.165 782.756 444.874 781.995 444.334C781.233 443.795 780.658 443.033 780.346 442.153L741.277 330.526C741.127 330.099 740.864 329.72 740.515 329.43C740.167 329.141 739.746 328.951 739.299 328.882C738.851 328.813 738.393 328.866 737.973 329.037C737.554 329.208 737.189 329.49 736.917 329.853L698.806 380.666C698.51 381.063 698.3 381.518 698.191 382.001L686.047 436.181C685.83 437.144 685.302 438.008 684.546 438.643C683.79 439.277 682.846 439.645 681.861 439.691L667.316 440.353C666.688 440.384 666.062 440.283 665.476 440.055C664.891 439.827 664.361 439.478 663.92 439.03C663.478 438.585 663.134 438.053 662.909 437.467C662.685 436.881 662.585 436.255 662.617 435.628L665.153 386.176C665.953 370.178 670.075 354.522 677.257 340.204C693.221 308.369 702.458 273.587 704.392 238.026L704.422 237.473L749.174 244.593L755.893 253.895C758.89 258.091 762.138 262.104 765.617 265.91C774.173 275.187 776.741 287.593 777.389 296.366C778.227 307.149 779.753 317.867 781.96 328.455L804.154 437.517C804.32 438.136 804.352 438.783 804.247 439.416C804.143 440.049 803.905 440.652 803.549 441.185C803.192 441.718 802.726 442.168 802.181 442.506C801.637 442.845 801.026 443.063 800.39 443.146L785.175 445.13C784.984 445.155 784.792 445.167 784.599 445.167Z" fill="#2F2E41"/>
<path d="M765.39 121.554C763.439 115.64 761.999 109.569 761.086 103.408C760.799 99.8219 761.717 95.9628 764.329 93.4882C769.217 88.8571 777.522 91.0629 782.634 95.4458C790.022 101.78 793.706 111.514 795.099 121.146C796.491 130.777 795.878 140.571 796.214 150.297C796.549 160.023 797.94 170.023 802.898 178.396C807.856 186.77 817.058 193.197 826.763 192.485C830.68 192.273 834.4 190.697 837.277 188.029C838.689 186.686 839.758 185.023 840.395 183.182C841.032 181.34 841.218 179.372 840.938 177.443C845.899 186.326 843.384 198.364 835.985 205.347C828.586 212.33 817.205 214.303 807.478 211.322C797.751 208.341 789.745 200.865 784.963 191.886C780.181 182.906 778.429 172.532 778.683 162.362C778.878 154.552 780.205 146.678 778.886 138.977C777.566 131.277 772.747 123.458 765.147 121.645L765.39 121.554Z" fill="#2F2E41"/>
<path d="M731.264 131.678C729.968 136.006 725.012 138.675 720.554 137.943C716.096 137.211 712.43 133.539 711.075 129.229C709.851 124.827 710.352 120.124 712.477 116.079C713.648 113.654 715.286 111.484 717.296 109.693C719.307 107.903 721.651 106.526 724.195 105.642C726.752 104.794 729.476 104.574 732.137 104.999C734.798 105.424 737.317 106.482 739.483 108.085C739.714 107.113 740.2 106.219 740.89 105.497C741.581 104.775 742.452 104.25 743.413 103.976C745.348 103.454 747.39 103.484 749.309 104.063C754.839 105.638 759.63 109.124 762.832 113.9C765.992 118.661 768.083 124.051 768.96 129.698C770.469 138.166 769.912 147.42 765.156 154.588C760.4 161.755 750.669 165.987 742.775 162.57C742.283 160.054 743.449 157.52 744.798 155.339C746.147 153.159 747.746 151.035 748.264 148.523C748.783 146.012 747.789 142.941 745.36 142.119C743.288 141.419 741.078 142.554 738.895 142.691C737.655 142.769 736.417 142.519 735.304 141.967C734.191 141.415 733.243 140.58 732.554 139.546C731.866 138.512 731.462 137.315 731.382 136.076C731.302 134.836 731.55 133.597 732.1 132.483L731.264 131.678Z" fill="#2F2E41"/>
<path d="M911.814 482.223H530.814C530.549 482.223 530.295 482.118 530.107 481.93C529.92 481.743 529.814 481.488 529.814 481.223C529.814 480.958 529.92 480.704 530.107 480.516C530.295 480.329 530.549 480.223 530.814 480.223H911.814C912.08 480.223 912.334 480.329 912.522 480.516C912.709 480.704 912.814 480.958 912.814 481.223C912.814 481.488 912.709 481.743 912.522 481.93C912.334 482.118 912.08 482.223 911.814 482.223Z" fill="#CCCCCC"/>
</g>
<defs>
<clipPath id="clip0_689_15352">
<rect width="949.651" height="482.323" fill="white"/>
</clipPath>
</defs>
</svg>
