<svg width="133" height="40" viewBox="0 0 133 40" fill="none" xmlns="http://www.w3.org/2000/svg">
<path d="M36.2168 25.2229C34.0631 25.2229 32.0449 24.3019 30.2113 22.8025L30.6578 20.6859L30.6772 20.6075C31.0748 18.3539 32.3361 14.5712 36.2168 14.5712C39.1272 14.5712 41.4945 16.9623 41.4945 19.9019C41.4847 22.8318 39.1176 25.2229 36.2168 25.2229ZM36.2168 9.17194C31.2591 9.17194 27.4174 12.4253 25.8556 17.7756C23.4688 14.1597 21.6642 9.81874 20.6069 6.16357H15.2709V20.1861C15.2709 22.9495 13.0395 25.203 10.3036 25.203C7.56769 25.203 5.33651 22.9495 5.33651 20.1861V6.16357H6.08532e-05V20.1861C-0.0193519 25.9285 4.6084 30.6417 10.2935 30.6417C15.9789 30.6417 20.6066 25.9285 20.6066 20.1861V17.8344C21.6446 20.0195 22.9155 22.2242 24.4581 24.1842L21.1885 39.7058H26.6507L29.0178 28.4467C31.0939 29.7892 33.4807 30.6321 36.2166 30.6321C42.0666 30.6321 46.8302 25.7913 46.8302 19.8823C46.8302 13.9832 42.0666 9.17194 36.2166 9.17194H36.2168Z" fill="#6FDA44"/>
<path d="M63.1197 9.77961L66.5638 23.8021L70.3573 9.77961H74.8782L69.0476 30.0442H64.5265L60.9468 15.9333L57.3764 30.0342H52.8555L47.0244 9.76993H51.5455L55.3388 23.7924L58.7829 9.76993H63.1194V9.77987L63.1197 9.77961ZM85.6955 9.17203C79.8261 9.17203 75.0723 13.9833 75.0723 19.902C75.0723 25.8306 79.8357 30.6322 85.6955 30.6322C91.5651 30.6322 96.3285 25.8306 96.3285 19.902C96.3285 13.9736 91.5651 9.17203 85.6955 9.17203ZM85.6955 26.2225C82.2418 26.2225 79.4477 23.4003 79.4477 19.9119C79.4477 16.4233 82.2514 13.6013 85.6955 13.6013C89.1494 13.6013 91.9433 16.4233 91.9433 19.9119C91.9433 23.3906 89.1494 26.2225 85.6955 26.2225ZM109.241 14.3166C106.205 14.3166 103.75 16.8055 103.75 19.8627V30.0342H99.2001V9.77961H103.75V12.8957C103.75 12.8957 105.691 9.76967 109.678 9.76967H111.075V14.3166H109.241ZM124.512 19.1182C127.742 17.2758 129.935 13.7775 129.935 9.76967H125.385C125.385 13.1503 122.669 15.8941 119.322 15.8941H118.71V0H114.16V30.034H118.71V20.4899H119.254C119.7 20.4899 120.282 20.7841 120.544 21.1464L127.005 30.0342H132.458L124.512 19.1182Z" fill="black"/>
</svg>
