<svg width="77" height="65" viewBox="0 0 77 65" fill="none" xmlns="http://www.w3.org/2000/svg">
<path fill-rule="evenodd" clip-rule="evenodd" d="M0 65H29.1544C58.9613 61.6483 61.8547 28.3255 43.6434 14.9266C32.1313 6.72201 0.55157 6.11403 0 34.1248V65Z" fill="#FF5670"/>
<path d="M61.6579 0H21.3211C17.5018 0.00457494 13.8402 1.52382 11.1395 4.22448C8.43886 6.92514 6.91961 10.5867 6.91504 14.406L6.91504 48.9805C6.91961 52.7998 8.43886 56.4614 11.1395 59.162C13.8402 61.8627 17.5018 63.3819 21.3211 63.3865H61.6579C65.4773 63.3819 69.1388 61.8627 71.8395 59.162C74.5402 56.4614 76.0594 52.7998 76.064 48.9805V14.406C76.0594 10.5867 74.5402 6.92514 71.8395 4.22448C69.1388 1.52382 65.4773 0.00457494 61.6579 0V0ZM21.3211 5.76241H61.6579C63.9504 5.76241 66.1489 6.67308 67.7699 8.29407C69.3909 9.91506 70.3016 12.1136 70.3016 14.406V17.2872H12.6775V14.406C12.6775 12.1136 13.5881 9.91506 15.2091 8.29407C16.8301 6.67308 19.0286 5.76241 21.3211 5.76241V5.76241ZM61.6579 57.6241H21.3211C19.0286 57.6241 16.8301 56.7134 15.2091 55.0925C13.5881 53.4715 12.6775 51.2729 12.6775 48.9805V23.0496H70.3016V48.9805C70.3016 51.2729 69.3909 53.4715 67.7699 55.0925C66.1489 56.7134 63.9504 57.6241 61.6579 57.6241ZM61.6579 34.5745C61.6579 35.3386 61.3544 36.0715 60.8141 36.6118C60.2737 37.1521 59.5409 37.4557 58.7767 37.4557H24.2023C23.4381 37.4557 22.7053 37.1521 22.165 36.6118C21.6246 36.0715 21.3211 35.3386 21.3211 34.5745C21.3211 33.8103 21.6246 33.0775 22.165 32.5371C22.7053 31.9968 23.4381 31.6933 24.2023 31.6933H58.7767C59.5409 31.6933 60.2737 31.9968 60.8141 32.5371C61.3544 33.0775 61.6579 33.8103 61.6579 34.5745ZM50.1331 46.0993C50.1331 46.8634 49.8296 47.5963 49.2892 48.1366C48.7489 48.6769 48.0161 48.9805 47.2519 48.9805H24.2023C23.4381 48.9805 22.7053 48.6769 22.165 48.1366C21.6246 47.5963 21.3211 46.8634 21.3211 46.0993C21.3211 45.3351 21.6246 44.6023 22.165 44.062C22.7053 43.5216 23.4381 43.2181 24.2023 43.2181H47.2519C48.0161 43.2181 48.7489 43.5216 49.2892 44.062C49.8296 44.6023 50.1331 45.3351 50.1331 46.0993ZM15.5587 11.5248C15.5587 10.955 15.7276 10.3979 16.0442 9.92411C16.3608 9.4503 16.8108 9.08101 17.3373 8.86294C17.8637 8.64486 18.4431 8.58781 19.002 8.69898C19.5609 8.81015 20.0742 9.08456 20.4772 9.4875C20.8801 9.89045 21.1545 10.4038 21.2657 10.9627C21.3769 11.5216 21.3198 12.1009 21.1017 12.6274C20.8837 13.1539 20.5144 13.6039 20.0406 13.9205C19.5668 14.237 19.0097 14.406 18.4399 14.406C17.6757 14.406 16.9429 14.1025 16.4025 13.5621C15.8622 13.0218 15.5587 12.289 15.5587 11.5248ZM24.2023 11.5248C24.2023 10.955 24.3713 10.3979 24.6878 9.92411C25.0044 9.4503 25.4544 9.08101 25.9809 8.86294C26.5074 8.64486 27.0867 8.58781 27.6456 8.69898C28.2045 8.81015 28.7179 9.08456 29.1208 9.4875C29.5237 9.89045 29.7982 10.4038 29.9093 10.9627C30.0205 11.5216 29.9634 12.1009 29.7454 12.6274C29.5273 13.1539 29.158 13.6039 28.6842 13.9205C28.2104 14.237 27.6533 14.406 27.0835 14.406C26.3193 14.406 25.5865 14.1025 25.0462 13.5621C24.5058 13.0218 24.2023 12.289 24.2023 11.5248ZM32.8459 11.5248C32.8459 10.955 33.0149 10.3979 33.3315 9.92411C33.6481 9.4503 34.098 9.08101 34.6245 8.86294C35.151 8.64486 35.7303 8.58781 36.2892 8.69898C36.8481 8.81015 37.3615 9.08456 37.7644 9.4875C38.1674 9.89045 38.4418 10.4038 38.5529 10.9627C38.6641 11.5216 38.6071 12.1009 38.389 12.6274C38.1709 13.1539 37.8016 13.6039 37.3278 13.9205C36.854 14.237 36.2969 14.406 35.7271 14.406C34.963 14.406 34.2301 14.1025 33.6898 13.5621C33.1494 13.0218 32.8459 12.289 32.8459 11.5248Z" fill="#00005C"/>
</svg>
