<svg width="46" height="46" viewBox="0 0 46 46" fill="none" xmlns="http://www.w3.org/2000/svg">
<g clip-path="url(#clip0_724_1031)">
<path fill-rule="evenodd" clip-rule="evenodd" d="M46 43.5L46 63C34.9581 63 26 54.2658 26 43.5C26 32.7342 34.9581 24 46 24L46 43.5Z" fill="#3C50E0"/>
<path d="M5.47656 14.238H40.5242M9.85751 5.47607H36.1432C37.3051 5.47607 38.4194 5.93764 39.241 6.75923C40.0626 7.58081 40.5242 8.69513 40.5242 9.85703V36.1427C40.5242 37.3046 40.0626 38.419 39.241 39.2405C38.4194 40.0621 37.3051 40.5237 36.1432 40.5237H9.85751C8.69561 40.5237 7.5813 40.0621 6.75971 39.2405C5.93813 38.419 5.47656 37.3046 5.47656 36.1427V9.85703C5.47656 8.69513 5.93813 7.58081 6.75971 6.75923C7.5813 5.93764 8.69561 5.47607 9.85751 5.47607V5.47607Z" stroke="#0A1158" stroke-width="3" stroke-linecap="round" stroke-linejoin="round"/>
<path d="M22.7725 24.9601C23.9823 24.9601 24.963 23.9793 24.963 22.7696C24.963 21.5598 23.9823 20.5791 22.7725 20.5791C21.5627 20.5791 20.582 21.5598 20.582 22.7696C20.582 23.9793 21.5627 24.9601 22.7725 24.9601Z" fill="#0A1158"/>
<path d="M14.2979 24.9601C15.5077 24.9601 16.4884 23.9793 16.4884 22.7696C16.4884 21.5598 15.5077 20.5791 14.2979 20.5791C13.0881 20.5791 12.1074 21.5598 12.1074 22.7696C12.1074 23.9793 13.0881 24.9601 14.2979 24.9601Z" fill="#0A1158"/>
<path d="M14.2979 33.4337C15.5077 33.4337 16.4884 32.453 16.4884 31.2432C16.4884 30.0334 15.5077 29.0527 14.2979 29.0527C13.0881 29.0527 12.1074 30.0334 12.1074 31.2432C12.1074 32.453 13.0881 33.4337 14.2979 33.4337Z" fill="#0A1158"/>
<path d="M31.2432 24.9596C32.453 24.9596 33.4337 23.9789 33.4337 22.7691C33.4337 21.5593 32.453 20.5786 31.2432 20.5786C30.0334 20.5786 29.0527 21.5593 29.0527 22.7691C29.0527 23.9789 30.0334 24.9596 31.2432 24.9596Z" fill="#0A1158"/>
<path d="M22.7686 33.4337C23.9784 33.4337 24.9591 32.453 24.9591 31.2432C24.9591 30.0334 23.9784 29.0527 22.7686 29.0527C21.5588 29.0527 20.5781 30.0334 20.5781 31.2432C20.5781 32.453 21.5588 33.4337 22.7686 33.4337Z" fill="#0A1158"/>
</g>
<defs>
<clipPath id="clip0_724_1031">
<rect width="46" height="46" fill="white"/>
</clipPath>
</defs>
</svg>
