<svg width="80" height="76" viewBox="0 0 80 76" fill="none" xmlns="http://www.w3.org/2000/svg">
<g clip-path="url(#clip0_724_1051)">
<path d="M2.26446 26.0002L3.49765 52.2481C3.69388 56.1766 5.51778 59.9332 8.57085 62.697C11.6239 65.4608 15.658 67.0072 19.7917 66.9983L47.4061 66.8649" fill="#FDB400"/>
<path d="M12.7514 60.4547L38.0737 51.6085C41.9393 50.2665 43.0597 45.4188 40.1465 42.5705L27.4574 30.1638C24.5442 27.3155 19.6142 28.411 18.2136 32.1905L9.16597 56.9491C8.38165 59.1401 10.5105 61.2216 12.7514 60.4547ZM43.76 35.0114L57.9338 21.1532C58.259 20.8344 58.6454 20.5814 59.0708 20.4089C59.4962 20.2363 59.9522 20.1474 60.4128 20.1474C60.8733 20.1474 61.3294 20.2363 61.7547 20.4089C62.1801 20.5814 62.5665 20.8344 62.8918 21.1532L63.0598 21.3175C63.8722 22.1118 65.2167 22.1118 66.029 21.3175C66.8414 20.5233 66.8414 19.2087 66.029 18.4144L65.861 18.2501C64.4134 16.8422 62.4546 16.0519 60.4128 16.0519C58.371 16.0519 56.4122 16.8422 54.9646 18.2501L40.7908 32.1083C39.9785 32.9026 39.9785 34.2172 40.7908 35.0114C41.6031 35.8057 42.9477 35.8057 43.76 35.0114ZM29.7543 20.9889L29.5863 21.1532C28.7739 21.9475 28.7739 23.2621 29.5863 24.0563C30.3986 24.8506 31.7431 24.8506 32.5555 24.0563L32.7235 23.892C34.1635 22.4766 34.9718 20.5614 34.9718 18.5651C34.9718 16.5687 34.1635 14.6535 32.7235 13.2381L32.5835 13.1012C31.7431 12.2796 30.3986 12.2796 29.5863 13.1012C28.7739 13.8954 28.7739 15.2101 29.5863 16.0043L29.7543 16.1686C31.0989 17.4832 31.0989 19.6743 29.7543 20.9889ZM49.3623 34.6828L46.3931 37.5859C45.5808 38.3802 45.5808 39.6948 46.3931 40.489C47.2054 41.2833 48.55 41.2833 49.3623 40.489L52.3315 37.5859C52.6567 37.2671 53.0431 37.0141 53.4685 36.8416C53.8939 36.669 54.3499 36.5801 54.8105 36.5801C55.2711 36.5801 55.7271 36.669 56.1525 36.8416C56.5779 37.0141 56.9642 37.2671 57.2895 37.5859L60.3147 40.5438C61.1271 41.338 62.4716 41.338 63.2839 40.5438C64.0963 39.7495 64.0963 38.4349 63.2839 37.6407L60.2587 34.6828C58.8111 33.2749 56.8523 32.4846 54.8105 32.4846C52.7687 32.4846 50.8099 33.2749 49.3623 34.6828ZM43.76 18.2501L35.1885 26.6308C34.3762 27.425 34.3762 28.7396 35.1885 29.5339C36.0009 30.3281 37.3454 30.3281 38.1577 29.5339L46.7292 21.1532C48.1691 19.7378 48.9774 17.8226 48.9774 15.8263C48.9774 13.8299 48.1691 11.9147 46.7292 10.4993L43.76 7.59624C43.3647 7.21423 42.8312 7 42.2754 7C41.7196 7 41.1862 7.21423 40.7908 7.59624C39.9785 8.39048 39.9785 9.7051 40.7908 10.4993L43.76 13.4025C45.1046 14.7445 45.1046 16.9355 43.76 18.2501Z" fill="#0A1158"/>
</g>
<defs>
<clipPath id="clip0_724_1051">
<rect width="80" height="76" fill="white"/>
</clipPath>
</defs>
</svg>
