<svg width="49" height="49" viewBox="0 0 49 49" fill="none" xmlns="http://www.w3.org/2000/svg">
<path d="M46.9997 19L47 49L13 48.3083L46.9997 19Z" fill="#FF5670"/>
<path d="M2 23.5417C2 19.2842 3.06439 15.3397 5.17229 11.7291C7.2802 8.11856 10.1394 5.25933 13.75 3.15142C17.3606 1.04352 21.2842 0 25.5209 0C28.6932 0 31.7402 0.62611 34.6412 1.85746C37.5422 3.08881 40.0258 4.77931 42.1337 6.86634C44.2416 8.95338 45.9112 11.4578 47.1425 14.3797C48.3739 17.3015 49 20.3277 49 23.5417C49 26.714 48.3739 29.7611 47.1425 32.6621C45.9112 35.5631 44.2207 38.0675 42.1337 40.1545C40.0466 42.2416 37.5422 43.9112 34.6412 45.1425C31.7402 46.3739 28.714 47 25.5209 47C22.3277 47 19.2598 46.3739 16.3588 45.1425C13.4578 43.9112 10.9534 42.2207 8.84547 40.1337C6.73757 38.0466 5.08881 35.5422 3.83659 32.6621C2.58437 29.782 2 26.7349 2 23.5417V23.5417ZM7.17584 23.5417C7.17584 28.488 8.97069 32.7873 12.5813 36.4396C16.1918 40.0502 20.4911 41.845 25.5209 41.845C28.8184 41.845 31.8863 41.0311 34.6829 39.3823C37.4796 37.7336 39.7336 35.5213 41.3823 32.7038C43.0311 29.8863 43.8659 26.8393 43.8659 23.5417C43.8659 20.2442 43.0311 17.1763 41.3823 14.3588C39.7336 11.5413 37.5004 9.30817 34.6829 7.65941C31.8655 6.01066 28.8184 5.19671 25.5209 5.19671C22.2234 5.19671 19.1554 6.01066 16.3588 7.65941C13.5622 9.30817 11.3082 11.5413 9.63854 14.3588C7.96892 17.1763 7.17584 20.2442 7.17584 23.5417ZM15.4196 27.9036C15.5448 27.4445 15.8162 27.0897 16.2127 26.8393L23.7052 22.4774V9.6421C23.7052 9.16208 23.8721 8.74467 24.206 8.41075C24.54 8.07682 24.9574 7.90986 25.4374 7.90986C25.9174 7.90986 26.3348 8.07682 26.6687 8.41075C27.0027 8.74467 27.1696 9.16208 27.1696 9.6421V23.5626C27.1696 23.9591 27.0444 24.2931 26.8148 24.6061C26.5853 24.9192 26.2931 25.107 25.9383 25.2114L17.9241 29.8655C17.6736 30.0324 17.4023 30.1159 17.0684 30.1159C16.4005 30.1159 15.8996 29.8237 15.5657 29.2393C15.3526 28.8278 15.3006 28.3516 15.4196 27.9036V27.9036Z" fill="#0A1158"/>
</svg>
