<svg width="51" height="58" viewBox="0 0 51 58" fill="none" xmlns="http://www.w3.org/2000/svg">
<path fill-rule="evenodd" clip-rule="evenodd" d="M2 58H23.2032C44.8809 55.5624 46.9852 31.3276 33.7406 21.583C25.3682 15.616 2.40114 15.1738 2 35.5453V58Z" fill="#FF5670"/>
<path d="M39.8438 15.9375H11.1562C9.88857 15.9388 8.67318 16.4429 7.77679 17.3393C6.88041 18.2357 6.37627 19.4511 6.375 20.7188V30.2813C6.37584 31.1264 6.71194 31.9366 7.30953 32.5342C7.90712 33.1318 8.71738 33.4679 9.5625 33.4688V44.625C9.56334 45.4701 9.89944 46.2804 10.497 46.878C11.0946 47.4756 11.9049 47.8117 12.75 47.8125H19.125C19.9701 47.8117 20.7804 47.4756 21.378 46.878C21.9756 46.2804 22.3117 45.4701 22.3125 44.625V25.5H19.125V44.625H12.75V30.2813H9.5625V20.7188C9.5625 20.2961 9.73041 19.8907 10.0293 19.5918C10.3282 19.2929 10.7336 19.125 11.1562 19.125H39.8438C40.2664 19.125 40.6718 19.2929 40.9707 19.5918C41.2696 19.8907 41.4375 20.2961 41.4375 20.7188V30.2813H38.25V44.625H31.875V25.5H28.6875V44.625C28.6883 45.4701 29.0244 46.2804 29.622 46.878C30.2196 47.4756 31.0299 47.8117 31.875 47.8125H38.25C39.0951 47.8117 39.9054 47.4756 40.503 46.878C41.1006 46.2804 41.4367 45.4701 41.4375 44.625V33.4688C42.2826 33.4679 43.0929 33.1318 43.6905 32.5342C44.2881 31.9366 44.6242 31.1264 44.625 30.2813V20.7188C44.6237 19.4511 44.1196 18.2357 43.2232 17.3393C42.3268 16.4429 41.1114 15.9388 39.8438 15.9375V15.9375ZM15.9375 14.3438C14.6766 14.3438 13.4441 13.9699 12.3957 13.2694C11.3474 12.5689 10.5303 11.5732 10.0478 10.4084C9.56526 9.24348 9.43901 7.96168 9.68499 6.72505C9.93097 5.48842 10.5381 4.35251 11.4297 3.46095C12.3213 2.56939 13.4572 1.96223 14.6938 1.71625C15.9304 1.47027 17.2122 1.59651 18.3771 2.07902C19.542 2.56153 20.5376 3.37863 21.2381 4.42699C21.9386 5.47536 22.3125 6.7079 22.3125 7.96875C22.3108 9.65899 21.6386 11.2795 20.4434 12.4747C19.2483 13.6699 17.6277 14.3421 15.9375 14.3438ZM15.9375 4.78125C15.3071 4.78125 14.6908 4.9682 14.1666 5.31844C13.6424 5.66869 13.2339 6.16651 12.9926 6.74895C12.7514 7.33139 12.6883 7.97229 12.8112 8.5906C12.9342 9.20892 13.2378 9.77688 13.6836 10.2227C14.1294 10.6684 14.6973 10.972 15.3156 11.095C15.934 11.218 16.5749 11.1549 17.1573 10.9136C17.7397 10.6724 18.2376 10.2638 18.5878 9.73963C18.9381 9.21545 19.125 8.59918 19.125 7.96875C19.1242 7.12363 18.7881 6.31337 18.1905 5.71578C17.5929 5.11819 16.7826 4.7821 15.9375 4.78125V4.78125ZM35.0625 14.3438C33.8016 14.3438 32.5691 13.9699 31.5207 13.2694C30.4724 12.5689 29.6553 11.5732 29.1728 10.4084C28.6903 9.24348 28.564 7.96168 28.81 6.72505C29.056 5.48842 29.6631 4.35251 30.5547 3.46095C31.4463 2.56939 32.5822 1.96223 33.8188 1.71625C35.0554 1.47027 36.3372 1.59651 37.5021 2.07902C38.667 2.56153 39.6626 3.37863 40.3631 4.42699C41.0636 5.47536 41.4375 6.7079 41.4375 7.96875C41.4358 9.65899 40.7636 11.2795 39.5684 12.4747C38.3733 13.6699 36.7527 14.3421 35.0625 14.3438ZM35.0625 4.78125C34.4321 4.78125 33.8158 4.9682 33.2916 5.31844C32.7674 5.66869 32.3589 6.16651 32.1176 6.74895C31.8764 7.33139 31.8133 7.97229 31.9362 8.5906C32.0592 9.20892 32.3628 9.77688 32.8086 10.2227C33.2544 10.6684 33.8223 10.972 34.4406 11.095C35.059 11.218 35.6999 11.1549 36.2823 10.9136C36.8647 10.6724 37.3626 10.2638 37.7128 9.73963C38.0631 9.21545 38.25 8.59918 38.25 7.96875C38.2492 7.12363 37.9131 6.31337 37.3155 5.71578C36.7179 5.11819 35.9076 4.7821 35.0625 4.78125V4.78125Z" fill="#0A1158"/>
</svg>
