<svg width="47" height="58" viewBox="0 0 47 58" fill="none" xmlns="http://www.w3.org/2000/svg">
<path d="M19.3598 8.55811L3.66198 24.3559C1.31904 26.7271 0.00390625 29.9351 0.00390625 33.279C0.00390625 36.6229 1.31904 39.8309 3.66198 42.2021L19.3598 57.9999" fill="#FDB400"/>
<path d="M40.0053 34.7036H19.3594" stroke="#0A1158" stroke-width="2" stroke-linecap="round" stroke-linejoin="round"/>
<path d="M18.2949 41.2133C18.2949 28.1818 28.0037 27.9935 28.0037 22.3783V20.177L22.2252 21.7897L21.4414 22.9669C20.8622 23.8262 19.9679 24.4192 18.9547 24.6156C17.9415 24.8121 16.8923 24.5959 16.0373 24.0146L15.9554 23.944C15.1394 23.3481 14.5847 22.4571 14.408 21.4582C14.2313 20.4593 14.4464 19.4304 15.0079 18.5878L20.2132 10.8536C20.7719 10.0287 21.5219 9.35325 22.3983 8.8856C23.2747 8.41794 24.2511 8.17221 25.2431 8.16966H28.0037V2.06006C47.9711 9.71177 35.7824 37.6817 42.0522 41.2133" stroke="#0A1158" stroke-width="3.5" stroke-linecap="round" stroke-linejoin="round"/>
<path d="M41.9347 41.2251H17.7445C16.0778 41.2251 14.7266 42.5849 14.7266 44.2622V46.8756C14.7266 48.553 16.0778 49.9127 17.7445 49.9127H41.9347C43.6014 49.9127 44.9526 48.553 44.9526 46.8756V44.2622C44.9526 42.5849 43.6014 41.2251 41.9347 41.2251Z" stroke="#0A1158" stroke-width="3.5" stroke-linecap="round" stroke-linejoin="round"/>
</svg>
