<svg width="47" height="58" viewBox="0 0 47 58" fill="none" xmlns="http://www.w3.org/2000/svg">
<path d="M19.3598 8.55811L3.66198 24.3559C1.31904 26.7271 0.00390625 29.9351 0.00390625 33.279C0.00390625 36.6229 1.31904 39.8309 3.66198 42.2021L19.3598 57.9999" fill="#FDB400"/>
<path d="M22.745 1.07659C22.6588 1.07659 22.544 1.1436 22.4961 1H22.7546C22.7546 1 22.7641 1.07659 22.745 1.07659Z" fill="#00005C" stroke="#00005C" stroke-width="1.7" stroke-miterlimit="10"/>
<path d="M22.7461 1.07659C22.7508 1.05127 22.7508 1.02531 22.7461 1H23.0046C23.0046 1 23.0046 1 23.0046 1.05744L22.7461 1.07659Z" fill="#00005C" stroke="#00005C" stroke-width="1.7" stroke-miterlimit="10"/>
<path d="M23.0039 1.07659C23.0086 1.05127 23.0086 1.02531 23.0039 1H23.1762C23.1601 1.03016 23.1345 1.05408 23.1033 1.06795C23.0721 1.08183 23.0371 1.08487 23.0039 1.07659Z" fill="#00005C" stroke="#00005C" stroke-width="1.7" stroke-miterlimit="10"/>
<path d="M24.8989 1.07659C24.8657 1.08676 24.8301 1.08462 24.7984 1.07054C24.7667 1.05647 24.7412 1.03141 24.7266 1H24.8989C24.8989 1 24.9085 1.07659 24.8989 1.07659Z" fill="#00005C" stroke="#00005C" stroke-width="1.7" stroke-miterlimit="10"/>
<path d="M24.9004 1.07659V1H25.0727L24.9004 1.07659Z" fill="#00005C" stroke="#00005C" stroke-width="1.7" stroke-miterlimit="10"/>
<path d="M25.0723 1.07659V1H25.2446L25.0723 1.07659Z" fill="#00005C" stroke="#00005C" stroke-width="1.7" stroke-miterlimit="10"/>
<path d="M25.2441 1.07659V1H25.4165C25.3686 1.10531 25.3686 1.08616 25.2441 1.07659Z" fill="#00005C" stroke="#00005C" stroke-width="1.7" stroke-miterlimit="10"/>
<path d="M2.00977 21.4966C2.1055 21.4966 2.08635 21.5923 2.07678 21.6593C2.06721 21.7263 2.02891 21.7072 2.00977 21.6593V21.4966Z" fill="#00005C" stroke="#00005C" stroke-width="1.7" stroke-miterlimit="10"/>
<path d="M2.00977 21.6689H2.07678V21.8413C2.07678 21.8413 2.02891 21.8413 2.00977 21.8413V21.6689Z" fill="#00005C" stroke="#00005C" stroke-width="1.7" stroke-miterlimit="10"/>
<path d="M2.00957 21.8413H2.07659V22.0136C2.07659 22.0136 2.07659 22.0136 2 22.0136L2.00957 21.8413Z" fill="#00005C" stroke="#00005C" stroke-width="1.7" stroke-miterlimit="10"/>
<path d="M2.00977 22.0039H2.08635C2.09464 22.0371 2.0916 22.0721 2.07772 22.1033C2.06384 22.1345 2.03992 22.1602 2.00977 22.1762V22.0039Z" fill="#00005C" stroke="#00005C" stroke-width="1.7" stroke-miterlimit="10"/>
<path d="M2.00977 23.7275C2.03992 23.7436 2.06384 23.7693 2.07772 23.8005C2.0916 23.8317 2.09464 23.8667 2.08635 23.8999C2.08635 23.8999 2.02891 23.8999 2.00977 23.8999V23.7275Z" fill="#00005C" stroke="#00005C" stroke-width="1.7" stroke-miterlimit="10"/>
<path d="M2.00977 23.8994H2.08635V24.0717C2.08635 24.0717 2.03848 24.0717 2.01934 24.0717L2.00977 23.8994Z" fill="#00005C" stroke="#00005C" stroke-width="1.7" stroke-miterlimit="10"/>
<path d="M2.00977 24.062H2.07678V24.2343C2.07678 24.2343 2.02891 24.2343 2.00977 24.2343V24.062Z" fill="#00005C" stroke="#00005C" stroke-width="1.7" stroke-miterlimit="10"/>
<path d="M2.00977 24.2349H2.07678C2.07678 24.3019 2.07678 24.3785 2.00977 24.3976V24.2349Z" fill="#00005C" stroke="#00005C" stroke-width="1.7" stroke-miterlimit="10"/>
<path d="M45.8847 20.6351C45.6209 17.4927 44.6383 14.453 43.0127 11.7509C41.7076 9.54489 40.0297 7.58197 38.0537 5.94945C35.3426 3.68957 32.1229 2.12243 28.6717 1.38294C27.6946 1.19361 26.7066 1.06572 25.7136 1H25.4551C25.3976 1.05744 25.3306 1 25.2636 1H24.9573C24.8902 1 24.8232 1 24.7658 1H23.1862C23.1287 1.06701 23.0521 1 22.9851 1H22.7649C22.6692 1 22.5735 1 22.4969 1H22.1522C21.7214 1.09573 21.2811 1.05744 20.8503 1.11488C18.517 1.42674 16.2522 2.12561 14.1489 3.18274C11.4466 4.53437 9.05141 6.4277 7.1124 8.74489C4.92123 11.302 3.35462 14.3337 2.5363 17.6003C2.25608 18.7339 2.07984 19.8906 2.00977 21.0563V21.4871C2.06721 21.535 2.00977 21.6116 2.00977 21.6786V21.9849C2.00977 22.0424 2.00977 22.1189 2.00977 22.1668V23.7273C2.06721 23.7751 2.00977 23.8517 2.00977 23.9092V24.2155C2.00977 24.2825 2.00977 24.3591 2.00977 24.407V24.7516C2.08635 25.1537 2.05763 25.5749 2.1055 25.977C2.43064 28.4915 3.20567 30.9268 4.39355 33.1667C5.5306 35.3332 7.02233 37.2941 8.80689 38.9681C10.739 40.7995 12.9824 42.2714 15.4317 43.3145C18.8603 44.7197 22.5823 45.2589 26.2688 44.8845C28.8254 44.6607 31.3167 43.9559 33.6116 42.8071C35.9999 41.6331 38.1566 40.0374 39.9779 38.097C41.8061 36.1624 43.2775 33.9195 44.3243 31.4722C45.7394 28.0463 46.2758 24.321 45.8847 20.6351ZM23.9329 42.2805C20.1108 42.2767 16.3757 41.14 13.1997 39.0138C10.0236 36.8876 7.54914 33.8675 6.08912 30.3353C4.62912 26.8031 4.24908 22.9174 4.99704 19.1693C5.745 15.4211 7.58739 11.9789 10.2913 9.27761C12.9953 6.57635 16.4393 4.73737 20.1883 3.99312C23.9371 3.24887 27.8225 3.63276 31.3532 5.09626C34.8839 6.55977 37.9016 9.03719 40.0246 12.2153C42.1477 15.3935 43.2808 19.1297 43.2808 22.9518C43.2795 25.4914 42.7781 28.0058 41.805 30.3515C40.8321 32.6973 39.4065 34.8284 37.6099 36.6232C35.8133 38.4181 33.6807 39.8415 31.334 40.8122C28.9874 41.7828 26.4724 42.2818 23.9329 42.2805Z" fill="#00005C" stroke="#00005C" stroke-width="1.7" stroke-miterlimit="10"/>
<path d="M15.2973 15.3312C15.2973 14.8526 15.2973 14.3739 15.2973 13.9144C15.2941 13.5758 15.42 13.2486 15.6494 12.9996C15.8788 12.7506 16.1946 12.5984 16.5323 12.5741C16.7016 12.5611 16.8719 12.5818 17.0331 12.6351C17.1944 12.6883 17.3434 12.773 17.4716 12.8844C17.5999 12.9957 17.7047 13.1314 17.7802 13.2835C17.8555 13.4357 17.8999 13.6013 17.9109 13.7708C17.9109 14.7951 17.9109 15.8291 17.9109 16.8534C17.9049 17.0215 17.8651 17.1868 17.7939 17.3392C17.7227 17.4916 17.6215 17.6282 17.4965 17.7407C17.3715 17.8533 17.2251 17.9395 17.066 17.9943C16.9069 18.0491 16.7385 18.0713 16.5706 18.0597C16.2311 18.0472 15.9097 17.9036 15.674 17.659C15.4383 17.4143 15.3067 17.0878 15.3069 16.7481C15.2877 16.2981 15.2973 15.8099 15.2973 15.3312Z" fill="#00005C" stroke="#00005C" stroke-width="1.7" stroke-miterlimit="10"/>
<path d="M32.6155 15.3504C32.6155 15.8195 32.6155 16.3077 32.6155 16.7673C32.6208 17.1062 32.4937 17.4338 32.2614 17.6805C32.0289 17.9272 31.7095 18.0735 31.371 18.0884C31.199 18.1014 31.0262 18.0794 30.8631 18.0237C30.7 17.968 30.5498 17.8797 30.4218 17.7642C30.2938 17.6488 30.1906 17.5084 30.1185 17.3519C30.0463 17.1954 30.0066 17.0257 30.002 16.8534C30.002 15.8386 30.002 14.8239 30.002 13.8186C30.008 13.6463 30.0485 13.4771 30.121 13.3206C30.1935 13.1642 30.2966 13.0239 30.4241 12.9079C30.5518 12.7919 30.7012 12.7027 30.8638 12.6453C31.0264 12.588 31.1988 12.5638 31.371 12.5741C31.7096 12.5937 32.0276 12.7429 32.2593 12.9906C32.4909 13.2383 32.6185 13.5656 32.6155 13.9048C32.6251 14.3835 32.6155 14.8717 32.6155 15.3504Z" fill="#00005C" stroke="#00005C" stroke-width="1.7" stroke-miterlimit="10"/>
<path d="M36.7702 21.6404C32.5196 21.6404 28.2594 21.6404 23.9993 21.6404H11.056C10.8523 21.6159 10.6457 21.6388 10.4523 21.7074C10.2589 21.776 10.084 21.8883 9.94126 22.0358C9.79851 22.1831 9.69177 22.3615 9.62939 22.557C9.56701 22.7524 9.55068 22.9597 9.58167 23.1626C9.61505 24.7216 9.89287 26.2657 10.405 27.7386C11.5067 30.9351 13.701 33.6404 16.6012 35.3779C19.5016 37.1155 22.922 37.7741 26.2601 37.2375C29.5983 36.701 32.6401 35.0038 34.8499 32.4448C37.0596 29.886 38.2956 26.6294 38.3402 23.2487C38.3636 23.0351 38.3394 22.819 38.2693 22.6158C38.1992 22.4127 38.0851 22.2275 37.935 22.0738C37.7849 21.92 37.6026 21.8014 37.4012 21.7264C37.1998 21.6515 36.9843 21.6221 36.7702 21.6404ZM16.5703 32.0754C18.654 30.3822 21.257 29.458 23.9418 29.458C26.6266 29.458 29.2296 30.3822 31.3133 32.0754C29.2366 33.7839 26.6309 34.7179 23.9418 34.7179C21.2527 34.7179 18.647 33.7839 16.5703 32.0754ZM35.6022 24.6656C35.308 26.5297 34.5837 28.2997 33.4865 29.8352C33.295 30.1128 33.1897 30.1799 32.8834 29.9405C30.3411 27.9157 27.1871 26.8132 23.937 26.8132C20.687 26.8132 17.5329 27.9157 14.9907 29.9405C14.7609 30.1224 14.6556 30.132 14.4737 29.8831C13.3461 28.3274 12.6045 26.526 12.3101 24.6273C12.2623 24.3305 12.3101 24.2156 12.6643 24.2156C16.4363 24.2156 20.2082 24.2156 23.9801 24.2156H35.2097C35.5352 24.2443 35.6597 24.3018 35.6022 24.6656Z" fill="#00005C" stroke="#00005C" stroke-width="1.7" stroke-miterlimit="10"/>
</svg>
