<svg width="56" height="52" viewBox="0 0 56 52" fill="none" xmlns="http://www.w3.org/2000/svg">
<path fill-rule="evenodd" clip-rule="evenodd" d="M57 52L57 33.9773C54.928 15.5512 34.3285 13.7626 26.0455 25.0204C20.9736 32.137 20.5978 51.659 37.9135 52L57 52Z" fill="#3C50E0"/>
<path d="M25.5007 0.0834961C11.5215 0.0834961 0.0839844 11.521 0.0839844 25.5002C0.0839844 39.4793 11.5215 50.9168 25.5007 50.9168C39.4798 50.9168 50.9173 39.4793 50.9173 25.5002C50.9173 11.521 39.4798 0.0834961 25.5007 0.0834961ZM25.5007 45.8335C14.3427 45.8335 5.16732 36.6581 5.16732 25.5002C5.16732 14.3422 14.3427 5.16683 25.5007 5.16683C36.6586 5.16683 45.834 14.3422 45.834 25.5002C45.834 36.6581 36.6586 45.8335 25.5007 45.8335ZM28.0423 21.1031L35.2352 16.9347L37.7769 21.3572L30.584 25.5002L37.7769 29.6431L35.2352 34.0656L28.0423 29.8972V38.2085H22.959V29.8972L15.7661 34.0656L13.2244 29.6431L20.4173 25.5002L13.2244 21.3572L15.7661 16.9347L22.959 21.1031V12.7918H28.0423V21.1031Z" fill="#0A1158"/>
</svg>
