<svg width="53" height="49" viewBox="0 0 53 49" fill="none" xmlns="http://www.w3.org/2000/svg">
<path d="M26.2491 21.4201H52.4891C52.5573 24.9097 51.9288 28.3779 50.6404 31.6218C49.3521 34.8656 47.4298 37.8199 44.986 40.3119C42.5421 42.8039 39.6259 44.7835 36.4078 46.1349C33.1897 47.4863 29.7345 48.1824 26.2441 48.1824C22.7538 48.1824 19.2986 47.4863 16.0805 46.1349C12.8624 44.7835 9.94615 42.8039 7.50233 40.3119C5.05851 37.8199 3.13619 34.8656 1.84785 31.6218C0.559515 28.3779 -0.0689797 24.9097 -0.000859017 21.4201V21.0801L26.2491 21.4201Z" fill="#FDB400"/>
<path d="M25.5 15V27.4444M22 27.4444H29H22ZM22 16.7111L25.5 15L22 16.7111Z" stroke="#0A1158" stroke-width="3" stroke-linecap="round" stroke-linejoin="round"/>
<path d="M33 10C34.1046 10 35 9.10457 35 8C35 6.89543 34.1046 6 33 6C31.8954 6 31 6.89543 31 8C31 9.10457 31.8954 10 33 10Z" stroke="#0A1158" stroke-width="1.79" stroke-linecap="round" stroke-linejoin="round"/>
<path d="M18 10C19.1046 10 20 9.10457 20 8C20 6.89543 19.1046 6 18 6C16.8954 6 16 6.89543 16 8C16 9.10457 16.8954 10 18 10Z" stroke="#0A1158" stroke-width="1.79" stroke-linecap="round" stroke-linejoin="round"/>
<path d="M10.7838 2C10.3107 2 9.85698 2.18793 9.52246 2.52246C9.18793 2.85698 9 3.31069 9 3.78378V33.2162C9 33.6893 9.18793 34.143 9.52246 34.4775C9.85698 34.8121 10.3107 35 10.7838 35H40.2162C40.6893 35 41.143 34.8121 41.4775 34.4775C41.8121 34.143 42 33.6893 42 33.2162V3.78378C42 3.31069 41.8121 2.85698 41.4775 2.52246C41.143 2.18793 40.6893 2 40.2162 2H10.7838Z" stroke="#0A1158" stroke-width="4" stroke-linecap="round" stroke-linejoin="round"/>
</svg>
