<svg width="58" height="50" viewBox="0 0 58 50" fill="none" xmlns="http://www.w3.org/2000/svg">
<path d="M13 57H57V13" fill="#3C50E0"/>
<path d="M22.818 35.2829L23.375 34.6701V31.6484L14.249 12.3828H10.001L0.875 31.6484V34.8174L1.37117 35.3559C2.73394 36.8315 4.38705 38.0094 6.22672 38.8157C8.06639 39.622 10.0529 40.0393 12.0615 40.0413H12.1107C14.1276 40.0323 16.1206 39.6048 17.9637 38.7857C19.8068 37.9666 21.4598 36.7739 22.818 35.2829V35.2829ZM19.625 33.1963C17.6244 35.1833 14.9177 36.2964 12.0979 36.2915H12.0593C9.28912 36.3054 6.62253 35.2396 4.625 33.3204V32.4922L12.125 16.6588L19.625 32.4922V33.1963ZM47.999 12.3828H43.751L34.625 31.6484V34.8174L35.1212 35.3559C36.4839 36.8315 38.137 38.0094 39.9767 38.8157C41.8164 39.622 43.8029 40.0393 45.8115 40.0413H45.8607C47.8776 40.0323 49.8707 39.6047 51.7137 38.7856C53.5568 37.9665 55.2098 36.7737 56.568 35.2827L57.125 34.6701V31.6484L47.999 12.3828ZM53.375 33.1963C51.3744 35.1833 48.6677 36.2964 45.8479 36.2915H45.8093C43.0391 36.3054 40.3725 35.2396 38.375 33.3204V32.4922L45.875 16.6588L53.375 32.4922V33.1963Z" fill="#0A1158"/>
<path d="M30.875 13.046C31.9181 12.7325 32.8671 12.1653 33.6373 11.3951C34.4074 10.625 34.9746 9.6759 35.2882 8.63284H47.75V4.88284H35.2882C34.8846 3.52855 34.0545 2.34073 32.9215 1.49614C31.7885 0.651549 30.4132 0.195313 29 0.195312C27.5868 0.195313 26.2115 0.651549 25.0785 1.49614C23.9455 2.34073 23.1154 3.52855 22.7118 4.88284H10.25V8.63284H22.7118C23.0254 9.6759 23.5926 10.625 24.3627 11.3951C25.1329 12.1653 26.0819 12.7325 27.125 13.046V44.2578H14.9375V48.0078H43.0625V44.2578H30.875V13.046ZM26.1875 6.75784C26.1875 6.20158 26.3524 5.65782 26.6615 5.1953C26.9705 4.73279 27.4098 4.3723 27.9237 4.15943C28.4376 3.94656 29.0031 3.89086 29.5487 3.99938C30.0943 4.10791 30.5954 4.37577 30.9887 4.76911C31.3821 5.16244 31.6499 5.66358 31.7585 6.20915C31.867 6.75472 31.8113 7.32022 31.5984 7.83414C31.3855 8.34806 31.0251 8.78731 30.5625 9.09635C30.1 9.40539 29.5563 9.57034 29 9.57034C28.2541 9.57034 27.5387 9.27403 27.0113 8.74658C26.4838 8.21914 26.1875 7.50376 26.1875 6.75784Z" fill="#0A1158"/>
</svg>
