<svg width="667" height="549" viewBox="0 0 667 549" fill="none" xmlns="http://www.w3.org/2000/svg">
<path fill-rule="evenodd" clip-rule="evenodd" d="M314.149 33.1872C432.597 28.6045 542.845 108.627 573.737 222.987C601.047 324.088 517.335 408.585 431.959 469.309C350.062 527.558 245.046 573.205 163.061 515.08C79.0669 455.531 79.0481 339.14 109.839 240.935C141.955 138.502 206.811 37.3401 314.149 33.1872Z" fill="#EAEFFD"/>
<path d="M433.675 410.265C342.265 410.265 267.898 335.839 267.898 244.357C267.898 152.876 342.265 78.45 433.675 78.45C443.339 78.4488 452.985 79.2853 462.504 80.9501C462.623 80.9706 462.737 81.0144 462.838 81.0788C462.94 81.1433 463.028 81.2272 463.098 81.3258C463.167 81.4244 463.216 81.5357 463.242 81.6534C463.269 81.7711 463.271 81.8927 463.251 82.0115C463.23 82.1302 463.186 82.2437 463.121 82.3454C463.056 82.4471 462.972 82.535 462.874 82.6042C462.775 82.6733 462.664 82.7223 462.546 82.7482C462.428 82.7742 462.307 82.7767 462.188 82.7556C452.773 81.1094 443.233 80.2822 433.675 80.2832C343.275 80.2832 269.73 153.886 269.73 244.357C269.73 334.828 343.275 408.431 433.675 408.431C524.074 408.431 597.619 334.828 597.619 244.357C597.66 203.465 582.403 164.04 554.852 133.842C554.69 133.662 554.605 133.425 554.617 133.184C554.629 132.942 554.736 132.714 554.915 132.551C555.094 132.388 555.33 132.302 555.572 132.312C555.814 132.323 556.041 132.429 556.205 132.607C584.064 163.142 599.492 203.008 599.451 244.357C599.451 335.839 525.084 410.265 433.675 410.265Z" fill="#1833DC"/>
<path d="M506.77 135.35C524.884 135.35 539.569 120.654 539.569 102.525C539.569 84.3968 524.884 69.7006 506.77 69.7006C488.655 69.7006 473.971 84.3968 473.971 102.525C473.971 120.654 488.655 135.35 506.77 135.35Z" fill="#0231C8"/>
<path d="M502.295 119.609C501.728 119.609 501.17 119.477 500.663 119.224C500.157 118.97 499.716 118.602 499.376 118.149L490.428 106.208C490.141 105.825 489.932 105.388 489.813 104.924C489.694 104.459 489.668 103.976 489.735 103.501C489.803 103.026 489.964 102.57 490.208 102.157C490.452 101.745 490.775 101.384 491.158 101.096C491.541 100.809 491.978 100.599 492.442 100.48C492.906 100.361 493.389 100.335 493.863 100.403C494.337 100.471 494.794 100.631 495.206 100.876C495.618 101.12 495.978 101.443 496.266 101.827L502.12 109.638L517.156 87.067C517.694 86.2646 518.528 85.7084 519.475 85.5203C520.422 85.3323 521.405 85.5277 522.209 86.0638C523.012 86.5999 523.571 87.4329 523.762 88.3802C523.952 89.3276 523.76 90.3121 523.227 91.1179L505.331 117.983C505.007 118.469 504.572 118.87 504.061 119.153C503.551 119.436 502.98 119.592 502.396 119.608C502.363 119.609 502.329 119.609 502.295 119.609Z" fill="white"/>
<path d="M429.409 218.611L378.83 77.7902L380.113 77.3288L370.811 51.4282L369.528 51.89L353.998 8.65382C353.418 7.03899 352.526 5.5543 351.373 4.28451C350.22 3.01473 348.828 1.98473 347.277 1.2533C345.726 0.521881 344.046 0.103362 342.333 0.021657C340.621 -0.0600483 338.909 0.196655 337.295 0.777107L245.859 33.6701C244.246 34.2505 242.762 35.1433 241.493 36.2975C240.224 37.4517 239.195 38.8447 238.464 40.397C237.734 41.9492 237.315 43.6304 237.234 45.3444C237.152 47.0585 237.408 48.7718 237.988 50.3867L248.816 80.5335L246.79 81.3146L253.702 99.2776L255.324 98.6523L256.759 102.648L255.033 103.313L261.945 121.276L263.267 120.767L313.399 260.344C313.976 261.96 314.867 263.447 316.02 264.719C317.173 265.99 318.565 267.022 320.117 267.753C321.669 268.485 323.35 268.903 325.063 268.983C326.777 269.064 328.49 268.804 330.103 268.221L421.538 235.328C424.795 234.152 427.452 231.732 428.927 228.598C430.403 225.464 430.576 221.872 429.409 218.611Z" fill="#0A1158"/>
<path d="M325.294 263.579C324.007 263.577 322.751 263.177 321.699 262.435C320.646 261.693 319.847 260.645 319.41 259.432L243.204 47.2596C242.643 45.6969 242.725 43.9751 243.432 42.4729C244.14 40.9708 245.414 39.8113 246.975 39.2495L266.43 32.2509L266.401 32.9321C266.351 34.1146 266.592 35.2912 267.104 36.3584C267.615 37.4255 268.381 38.3503 269.334 39.0515C270.287 39.7526 271.397 40.2084 272.568 40.3788C273.738 40.5492 274.932 40.429 276.045 40.0287L319.221 24.4969C320.263 24.019 321.178 23.3023 321.892 22.4048C322.606 21.5073 323.099 20.4541 323.331 19.3306C323.561 18.2258 323.526 17.0823 323.23 15.9935C322.934 14.9047 322.384 13.9014 321.627 13.0655L321.171 12.5584L341.267 5.32892C342.828 4.76952 344.548 4.85275 346.048 5.56037C347.549 6.26798 348.708 7.54223 349.271 9.10368L421.979 211.534C423.462 215.681 423.242 220.248 421.366 224.232C419.49 228.217 416.111 231.294 411.971 232.789L327.415 263.207C326.735 263.453 326.017 263.579 325.294 263.579Z" fill="white"/>
<path d="M317.845 113.089C331.502 113.089 342.574 102.009 342.574 88.3408C342.574 74.6726 331.502 63.5922 317.845 63.5922C304.187 63.5922 293.116 74.6726 293.116 88.3408C293.116 102.009 304.187 113.089 317.845 113.089Z" fill="#FF8888"/>
<path d="M379.123 124.331L293.485 155.139C293.218 155.236 292.934 155.279 292.65 155.266C292.366 155.253 292.087 155.184 291.829 155.062C291.572 154.941 291.341 154.771 291.149 154.56C290.958 154.35 290.81 154.103 290.713 153.835C290.617 153.567 290.575 153.283 290.588 152.999C290.602 152.714 290.672 152.436 290.793 152.178C290.915 151.921 291.086 151.69 291.297 151.499C291.508 151.308 291.754 151.16 292.022 151.064L377.66 120.257C378.199 120.064 378.793 120.094 379.311 120.339C379.829 120.584 380.228 121.024 380.422 121.564C380.616 122.103 380.588 122.697 380.344 123.216C380.101 123.735 379.662 124.136 379.123 124.331Z" fill="#E6E6E6"/>
<path d="M353.692 143.864L325.523 153.998C325.255 154.095 324.972 154.138 324.687 154.125C324.403 154.111 324.125 154.042 323.867 153.921C323.61 153.8 323.379 153.63 323.187 153.419C322.996 153.208 322.848 152.962 322.752 152.694C322.655 152.426 322.613 152.142 322.627 151.858C322.64 151.574 322.71 151.295 322.831 151.037C322.953 150.78 323.124 150.549 323.335 150.358C323.545 150.167 323.792 150.019 324.059 149.923L352.228 139.79C352.768 139.596 353.363 139.624 353.882 139.869C354.401 140.113 354.801 140.555 354.996 141.095C355.19 141.635 355.161 142.231 354.917 142.75C354.672 143.269 354.232 143.67 353.692 143.864Z" fill="#E6E6E6"/>
<path d="M360.391 162.518L332.223 172.652C331.955 172.748 331.672 172.79 331.388 172.777C331.104 172.763 330.826 172.694 330.569 172.573C330.312 172.452 330.081 172.281 329.89 172.071C329.699 171.86 329.551 171.614 329.455 171.347C329.359 171.079 329.317 170.795 329.33 170.511C329.344 170.227 329.413 169.949 329.534 169.692C329.655 169.434 329.826 169.204 330.036 169.012C330.246 168.821 330.492 168.673 330.759 168.577L358.928 158.444C359.468 158.249 360.063 158.278 360.582 158.523C361.101 158.767 361.501 159.208 361.695 159.749C361.889 160.289 361.861 160.884 361.616 161.404C361.372 161.923 360.931 162.324 360.391 162.518V162.518Z" fill="#E6E6E6"/>
<path d="M363.823 172.073L335.654 182.206C335.387 182.303 335.103 182.346 334.819 182.333C334.534 182.32 334.256 182.251 333.998 182.13C333.74 182.009 333.509 181.838 333.318 181.628C333.126 181.417 332.978 181.171 332.882 180.903C332.786 180.635 332.743 180.351 332.757 180.066C332.771 179.782 332.84 179.503 332.962 179.245C333.084 178.988 333.255 178.757 333.466 178.566C333.676 178.375 333.923 178.227 334.191 178.132L362.36 167.998C362.627 167.901 362.911 167.858 363.195 167.871C363.48 167.884 363.758 167.953 364.016 168.074C364.273 168.195 364.504 168.366 364.696 168.577C364.887 168.787 365.035 169.034 365.132 169.301C365.228 169.569 365.27 169.854 365.257 170.138C365.243 170.422 365.173 170.701 365.052 170.959C364.93 171.216 364.759 171.447 364.548 171.638C364.337 171.829 364.091 171.977 363.823 172.073L363.823 172.073Z" fill="#E6E6E6"/>
<path d="M372.792 147.377L313.028 168.877C312.76 168.974 312.476 169.017 312.192 169.004C311.908 168.991 311.629 168.922 311.372 168.801C311.114 168.68 310.883 168.509 310.692 168.299C310.5 168.088 310.352 167.842 310.256 167.574C310.16 167.306 310.117 167.022 310.131 166.737C310.145 166.453 310.214 166.174 310.336 165.917C310.457 165.659 310.628 165.428 310.839 165.237C311.05 165.046 311.297 164.898 311.564 164.803L371.329 143.303C371.597 143.206 371.88 143.163 372.165 143.176C372.449 143.189 372.728 143.258 372.985 143.379C373.243 143.5 373.474 143.671 373.665 143.881C373.857 144.092 374.005 144.338 374.101 144.606C374.197 144.874 374.24 145.158 374.226 145.443C374.212 145.727 374.143 146.006 374.021 146.263C373.9 146.521 373.728 146.752 373.518 146.943C373.307 147.134 373.06 147.282 372.792 147.377Z" fill="#E6E6E6"/>
<path d="M360.755 195.266L350.527 198.945C349.609 199.275 348.598 199.226 347.716 198.81C346.834 198.394 346.153 197.644 345.823 196.726C345.493 195.807 345.541 194.795 345.957 193.912C346.372 193.03 347.121 192.348 348.038 192.017L358.266 188.338C359.184 188.008 360.195 188.057 361.077 188.473C361.959 188.889 362.639 189.639 362.969 190.557C363.299 191.476 363.251 192.488 362.836 193.371C362.42 194.254 361.672 194.935 360.755 195.266Z" fill="#0231C8"/>
<path d="M280.155 32.937C280.941 32.937 281.578 32.2997 281.578 31.5136C281.578 30.7274 280.941 30.0901 280.155 30.0901C279.37 30.0901 278.733 30.7274 278.733 31.5136C278.733 32.2997 279.37 32.937 280.155 32.937Z" fill="white"/>
<path d="M137.951 171.015C143.399 175.499 150.336 177.764 157.378 177.357C158.076 177.316 158.102 178.402 157.405 178.443C150.076 178.852 142.862 176.481 137.203 171.802C136.664 171.355 137.415 170.571 137.951 171.015H137.951Z" fill="white"/>
<path d="M595.009 472.528C612.391 476.793 632.663 472.738 644.096 458.958C624.636 458.689 605.897 451.539 591.197 438.774C585.545 433.831 579.774 427.743 572.272 427.504C567.604 427.354 563.12 429.635 559.663 432.777C556.206 435.92 553.618 439.885 551.07 443.802L550.056 444.377C562.766 456.987 577.626 468.263 595.009 472.528Z" fill="#F0F0F0"/>
<path d="M643.842 458.681C630.002 463.966 614.849 464.752 600.537 460.927C597.441 460.159 594.486 458.907 591.78 457.217C589.197 455.486 587.124 453.094 585.777 450.29C584.469 447.701 583.43 444.901 581.515 442.675C580.519 441.55 579.295 440.649 577.926 440.031C576.557 439.412 575.072 439.091 573.57 439.087C569.827 438.979 566.269 440.224 562.831 441.562C559.015 443.048 555.074 444.652 550.895 444.309C550.389 444.267 550.354 445.056 550.86 445.097C558.13 445.695 564.271 440.754 571.322 439.97C574.613 439.604 578.033 440.229 580.432 442.663C582.53 444.792 583.604 447.679 584.906 450.312C586.18 453.066 588.109 455.467 590.523 457.304C593.135 459.126 596.037 460.49 599.105 461.337C605.984 463.356 613.136 464.279 620.301 464.074C628.48 463.885 636.566 462.298 644.209 459.38C644.682 459.2 644.312 458.502 643.842 458.681H643.842Z" fill="white"/>
<path d="M605.073 462.43C604.758 464.921 605.338 467.442 606.708 469.544C608.079 471.646 610.152 473.192 612.557 473.906C613.044 474.049 613.288 473.298 612.801 473.155C610.56 472.494 608.63 471.054 607.357 469.094C606.084 467.134 605.554 464.783 605.861 462.466C605.927 461.962 605.139 461.929 605.073 462.43V462.43Z" fill="white"/>
<path d="M586.267 451.69C590.291 448.51 595.365 446.965 600.477 447.363C600.984 447.403 601.019 446.614 600.513 446.574C595.193 446.17 589.916 447.789 585.735 451.107C585.337 451.424 585.871 452.005 586.267 451.69H586.267Z" fill="white"/>
<path d="M628.042 462.935C627.963 461.946 628.131 460.953 628.531 460.045C628.93 459.137 629.549 458.342 630.331 457.733C630.733 457.421 630.199 456.841 629.799 457.15C628.938 457.827 628.256 458.705 627.812 459.708C627.369 460.71 627.177 461.805 627.254 462.899C627.253 463.003 627.291 463.103 627.361 463.179C627.43 463.256 627.527 463.303 627.63 463.311C627.734 463.315 627.836 463.278 627.913 463.208C627.99 463.137 628.037 463.039 628.042 462.935Z" fill="white"/>
<path d="M632.843 399.369C632.587 399.556 632.33 399.744 632.067 399.929C628.605 402.428 624.945 404.643 621.124 406.549C620.831 406.701 620.532 406.851 620.235 406.994C610.981 411.49 600.974 414.226 590.722 415.066C586.642 415.396 582.543 415.415 578.461 415.123C572.822 414.719 566.741 413.832 561.454 415.273C560.901 415.418 560.357 415.596 559.826 415.807L549.433 443.094C549.441 443.168 549.442 443.24 549.449 443.314L548.984 444.385C549.194 444.414 549.412 444.441 549.621 444.471C549.743 444.488 549.867 444.5 549.988 444.518C550.07 444.528 550.152 444.537 550.225 444.551C550.252 444.554 550.279 444.558 550.3 444.559C550.373 444.572 550.443 444.577 550.51 444.588C551.728 444.739 552.949 444.882 554.173 445.016C554.179 445.018 554.179 445.018 554.187 445.015C563.506 446.127 572.923 446.129 582.241 445.021C582.519 444.984 582.803 444.95 583.085 444.901C587.242 444.327 591.344 443.415 595.352 442.172C597.545 441.485 599.701 440.687 601.813 439.781C607.265 437.431 612.314 434.237 616.775 430.316C625.665 422.499 631.959 411.923 632.788 400.261C632.809 399.962 632.828 399.67 632.843 399.369Z" fill="#F0F0F0"/>
<path d="M632.474 399.298C624.602 411.858 612.976 421.615 599.248 427.185C596.314 428.437 593.201 429.218 590.023 429.499C586.92 429.673 583.826 429.013 581.064 427.585C578.461 426.306 575.948 424.697 573.08 424.073C571.607 423.776 570.089 423.793 568.623 424.124C567.158 424.456 565.779 425.093 564.577 425.995C561.524 428.165 559.432 431.303 557.492 434.442C555.339 437.929 553.157 441.584 549.614 443.828C549.185 444.099 549.632 444.75 550.06 444.479C556.225 440.575 558.155 432.929 563.314 428.055C565.721 425.78 568.828 424.218 572.208 424.716C575.164 425.152 577.758 426.81 580.381 428.128C583.056 429.559 586.04 430.314 589.072 430.326C592.254 430.207 595.391 429.547 598.352 428.375C605.058 425.842 611.324 422.27 616.922 417.789C623.338 412.71 628.839 406.571 633.187 399.635C633.456 399.206 632.741 398.872 632.474 399.298H632.474Z" fill="white"/>
<path d="M603.775 425.652C605.021 427.83 607.001 429.494 609.36 430.347C611.719 431.199 614.304 431.184 616.653 430.305C617.128 430.126 616.872 429.379 616.396 429.559C614.21 430.381 611.802 430.395 609.607 429.597C607.412 428.798 605.574 427.241 604.425 425.206C604.175 424.764 603.526 425.213 603.775 425.652Z" fill="white"/>
<path d="M582.298 428.408C583.598 423.444 586.72 419.153 591.041 416.391C591.469 416.117 591.023 415.466 590.595 415.739C586.104 418.623 582.864 423.095 581.523 428.263C581.395 428.756 582.171 428.898 582.298 428.408Z" fill="white"/>
<path d="M622.417 412.215C621.76 411.473 621.296 410.578 621.069 409.613C620.842 408.647 620.858 407.64 621.116 406.682C621.25 406.191 620.473 406.049 620.34 406.537C620.061 407.597 620.044 408.709 620.293 409.777C620.541 410.844 621.047 411.834 621.767 412.661C621.828 412.745 621.919 412.802 622.021 412.821C622.122 412.84 622.228 412.819 622.315 412.764C622.401 412.704 622.46 412.613 622.479 412.51C622.498 412.407 622.476 412.301 622.417 412.215Z" fill="white"/>
<path d="M664.659 305.326L638.154 349.965L639.161 350.497L630.185 367.527L628.317 366.537L622.419 376.464L623.884 377.308L614.267 393.972L612.6 393.009L526.113 538.678C523.844 542.49 520.158 545.246 515.861 546.34C511.565 547.435 507.01 546.779 503.197 544.517L342.412 448.904C338.603 446.635 335.849 442.945 334.755 438.645C333.661 434.346 334.317 429.787 336.578 425.971L475.125 192.619C477.393 188.807 481.08 186.051 485.376 184.956C489.672 183.862 494.227 184.517 498.04 186.78L658.825 282.392C662.633 284.663 665.386 288.353 666.479 292.652C667.573 296.951 666.919 301.509 664.659 305.326Z" fill="#0A1158"/>
<path d="M508.927 535.509L347.576 439.561C346.402 438.861 345.553 437.724 345.216 436.398C344.879 435.073 345.081 433.668 345.778 432.492L485.244 197.587C485.943 196.412 487.08 195.563 488.404 195.226C489.728 194.888 491.132 195.09 492.308 195.788L653.659 291.736C654.833 292.436 655.681 293.573 656.019 294.898C656.356 296.224 656.154 297.629 655.457 298.805L515.991 533.709C515.291 534.884 514.155 535.734 512.831 536.071C511.506 536.408 510.103 536.206 508.927 535.509Z" fill="white"/>
<path d="M575.206 240.049C575.991 240.049 576.628 239.412 576.628 238.625C576.628 237.839 575.991 237.202 575.206 237.202C574.42 237.202 573.783 237.839 573.783 238.625C573.783 239.412 574.42 240.049 575.206 240.049Z" fill="white"/>
<path d="M566.403 408.32L431.715 328.227C431.293 327.978 430.923 327.648 430.629 327.256C430.334 326.864 430.12 326.418 429.998 325.942C429.876 325.467 429.849 324.972 429.919 324.487C429.988 324.001 430.153 323.534 430.403 323.112C430.654 322.69 430.985 322.322 431.378 322.029C431.771 321.735 432.218 321.522 432.693 321.402C433.169 321.282 433.663 321.257 434.148 321.329C434.633 321.4 435.099 321.567 435.52 321.819L570.207 401.912C570.63 402.161 570.999 402.491 571.294 402.883C571.588 403.275 571.803 403.722 571.925 404.197C572.047 404.672 572.074 405.167 572.004 405.652C571.934 406.138 571.77 406.605 571.519 407.027C571.269 407.449 570.937 407.817 570.545 408.11C570.152 408.404 569.705 408.617 569.229 408.737C568.754 408.857 568.26 408.882 567.775 408.81C567.29 408.739 566.823 408.572 566.403 408.32H566.403Z" fill="#E6E6E6"/>
<path d="M512.623 395.909L468.32 369.565C467.899 369.315 467.532 368.984 467.239 368.592C466.946 368.2 466.733 367.754 466.613 367.28C466.492 366.806 466.466 366.312 466.536 365.828C466.606 365.343 466.77 364.877 467.02 364.456C467.27 364.035 467.6 363.668 467.992 363.375C468.384 363.082 468.829 362.869 469.303 362.748C469.777 362.627 470.271 362.601 470.755 362.671C471.239 362.741 471.704 362.906 472.125 363.156L516.427 389.501C516.848 389.751 517.215 390.082 517.508 390.474C517.801 390.866 518.013 391.311 518.134 391.786C518.255 392.26 518.281 392.754 518.211 393.238C518.141 393.722 517.976 394.188 517.727 394.609C517.477 395.03 517.147 395.397 516.755 395.69C516.363 395.983 515.918 396.196 515.444 396.317C514.97 396.438 514.477 396.464 513.993 396.394C513.509 396.324 513.043 396.159 512.623 395.909Z" fill="#E6E6E6"/>
<path d="M495.204 425.248L450.902 398.903C450.053 398.398 449.439 397.576 449.196 396.618C448.952 395.66 449.099 394.645 449.603 393.795C450.108 392.945 450.929 392.331 451.886 392.087C452.843 391.843 453.857 391.99 454.706 392.494L499.009 418.839C499.429 419.089 499.797 419.42 500.089 419.812C500.382 420.204 500.595 420.65 500.716 421.124C500.836 421.598 500.863 422.092 500.793 422.576C500.723 423.061 500.558 423.526 500.308 423.947C500.058 424.368 499.728 424.735 499.337 425.028C498.945 425.322 498.499 425.535 498.025 425.655C497.551 425.776 497.058 425.802 496.574 425.732C496.09 425.662 495.625 425.498 495.204 425.248Z" fill="#E6E6E6"/>
<path d="M486.283 440.274L441.981 413.929C441.559 413.68 441.191 413.35 440.897 412.958C440.603 412.566 440.389 412.119 440.268 411.645C440.146 411.17 440.12 410.676 440.189 410.19C440.259 409.705 440.424 409.238 440.674 408.817C440.924 408.396 441.255 408.028 441.647 407.735C442.04 407.441 442.486 407.228 442.961 407.108C443.436 406.988 443.93 406.962 444.414 407.033C444.899 407.104 445.365 407.27 445.785 407.521L490.088 433.866C490.51 434.115 490.88 434.445 491.174 434.837C491.469 435.229 491.684 435.676 491.806 436.151C491.927 436.626 491.954 437.121 491.885 437.607C491.815 438.093 491.65 438.56 491.4 438.982C491.15 439.403 490.818 439.772 490.425 440.065C490.032 440.358 489.585 440.571 489.11 440.691C488.635 440.811 488.14 440.836 487.655 440.765C487.17 440.693 486.704 440.526 486.283 440.274V440.274Z" fill="#E6E6E6"/>
<path d="M528.882 425.147L434.887 369.253C434.042 368.746 433.432 367.925 433.191 366.969C432.95 366.013 433.097 365 433.601 364.153C434.104 363.305 434.922 362.692 435.876 362.447C436.83 362.201 437.843 362.345 438.692 362.845L532.687 418.739C533.109 418.988 533.479 419.318 533.773 419.711C534.068 420.103 534.283 420.549 534.404 421.024C534.526 421.5 534.553 421.994 534.484 422.48C534.414 422.966 534.249 423.433 533.999 423.855C533.748 424.277 533.417 424.645 533.024 424.938C532.631 425.232 532.184 425.445 531.709 425.565C531.233 425.685 530.739 425.71 530.254 425.638C529.769 425.567 529.303 425.4 528.882 425.147Z" fill="#E6E6E6"/>
<path d="M510.967 496.581L494.881 487.015C493.439 486.156 492.397 484.758 491.984 483.131C491.571 481.503 491.82 479.777 492.678 478.333C493.535 476.889 494.93 475.845 496.556 475.43C498.182 475.015 499.907 475.262 501.35 476.119L517.436 485.684C518.88 486.543 519.924 487.94 520.338 489.569C520.753 491.198 520.504 492.925 519.646 494.37C518.788 495.815 517.391 496.86 515.764 497.274C514.136 497.689 512.411 497.44 510.967 496.581Z" fill="#0231C8"/>
<path d="M540.979 341.269C559.189 341.269 573.951 326.495 573.951 308.271C573.951 290.047 559.189 275.273 540.979 275.273C522.769 275.273 508.007 290.047 508.007 308.271C508.007 326.495 522.769 341.269 540.979 341.269Z" fill="#FFC261"/>
<path d="M0.388184 442.364H446.593V183.834C446.591 181.897 445.821 180.04 444.452 178.67C443.084 177.301 441.228 176.53 439.292 176.528H7.68875C5.75322 176.53 3.89759 177.301 2.52895 178.67C1.1603 180.04 0.390419 181.897 0.388184 183.834V442.364Z" fill="#838DA8"/>
<path d="M432.807 186.633H14.1743V424.486H432.807V186.633Z" fill="white"/>
<path d="M6.00254e-10 435.368V467.271C-1.44327e-05 468.593 0.260265 469.903 0.765978 471.125C1.27169 472.347 2.01293 473.457 2.94738 474.392C3.88183 475.327 4.9912 476.069 6.21212 476.575C7.43304 477.081 8.74162 477.342 10.0631 477.342H174.754V540.303H172.566C172.394 540.303 172.224 540.337 172.066 540.403C171.907 540.468 171.763 540.565 171.642 540.686C171.52 540.808 171.424 540.952 171.358 541.111C171.293 541.269 171.259 541.439 171.259 541.611V545.99C171.259 546.162 171.293 546.332 171.358 546.491C171.424 546.65 171.52 546.794 171.642 546.916C171.763 547.037 171.907 547.133 172.066 547.199C172.224 547.265 172.394 547.299 172.566 547.299H274.804C274.976 547.299 275.146 547.265 275.304 547.199C275.463 547.133 275.607 547.037 275.728 546.916C275.85 546.794 275.946 546.65 276.012 546.491C276.077 546.332 276.111 546.162 276.111 545.99V541.611C276.111 541.439 276.077 541.269 276.012 541.111C275.946 540.952 275.85 540.808 275.728 540.686C275.607 540.565 275.463 540.468 275.304 540.403C275.146 540.337 274.976 540.303 274.804 540.303H272.616V477.342H437.307C438.628 477.342 439.937 477.081 441.158 476.575C442.379 476.069 443.488 475.327 444.423 474.392C445.357 473.457 446.098 472.347 446.604 471.125C447.11 469.903 447.37 468.593 447.37 467.271V435.368L6.00254e-10 435.368Z" fill="#0A1158"/>
<path d="M372.23 266.18H173.982C172.732 266.18 171.533 265.683 170.65 264.799C169.766 263.914 169.27 262.715 169.27 261.464C169.27 260.213 169.766 259.014 170.65 258.129C171.533 257.245 172.732 256.748 173.982 256.748H372.23C373.48 256.748 374.678 257.245 375.562 258.129C376.446 259.014 376.942 260.213 376.942 261.464C376.942 262.715 376.446 263.914 375.562 264.799C374.678 265.683 373.48 266.18 372.23 266.18Z" fill="#E6E6E6"/>
<path d="M305.711 287.469H240.502C239.252 287.469 238.053 286.972 237.169 286.087C236.286 285.203 235.789 284.003 235.789 282.753C235.789 281.502 236.286 280.302 237.169 279.418C238.053 278.533 239.252 278.036 240.502 278.036H305.711C306.961 278.036 308.159 278.533 309.043 279.418C309.927 280.302 310.424 281.502 310.424 282.753C310.424 284.003 309.927 285.203 309.043 286.087C308.159 286.972 306.961 287.469 305.711 287.469Z" fill="#E6E6E6"/>
<path d="M305.711 330.652H240.502C239.252 330.652 238.053 330.155 237.169 329.27C236.286 328.386 235.789 327.186 235.789 325.935C235.789 324.685 236.286 323.485 237.169 322.601C238.053 321.716 239.252 321.219 240.502 321.219H305.711C306.961 321.219 308.159 321.716 309.043 322.601C309.927 323.485 310.424 324.685 310.424 325.935C310.424 327.186 309.927 328.386 309.043 329.27C308.159 330.155 306.961 330.652 305.711 330.652Z" fill="#E6E6E6"/>
<path d="M305.711 352.77H240.501C239.882 352.77 239.27 352.648 238.698 352.411C238.126 352.174 237.607 351.826 237.169 351.388C236.732 350.95 236.385 350.43 236.148 349.858C235.911 349.286 235.789 348.673 235.789 348.054C235.789 347.434 235.911 346.821 236.148 346.249C236.385 345.677 236.732 345.157 237.169 344.719C237.607 344.281 238.126 343.934 238.698 343.697C239.27 343.46 239.882 343.338 240.501 343.338H305.711C306.33 343.338 306.942 343.46 307.514 343.697C308.086 343.934 308.605 344.281 309.043 344.719C309.48 345.157 309.827 345.677 310.064 346.249C310.301 346.821 310.423 347.434 310.423 348.054C310.423 348.673 310.301 349.286 310.064 349.858C309.827 350.43 309.48 350.95 309.043 351.388C308.605 351.826 308.086 352.174 307.514 352.411C306.942 352.648 306.33 352.77 305.711 352.77Z" fill="#E6E6E6"/>
<path d="M342.283 308.757H203.931C202.681 308.757 201.482 308.26 200.598 307.376C199.715 306.492 199.218 305.292 199.218 304.041C199.218 302.791 199.715 301.591 200.598 300.707C201.482 299.822 202.681 299.325 203.931 299.325H342.283C343.533 299.325 344.731 299.822 345.615 300.707C346.499 301.591 346.995 302.791 346.995 304.041C346.995 305.292 346.499 306.492 345.615 307.376C344.731 308.26 343.533 308.757 342.283 308.757Z" fill="#E6E6E6"/>
<path d="M284.69 394.055H261.013C258.888 394.055 256.85 393.21 255.347 391.706C253.844 390.202 253 388.162 253 386.035C253 383.908 253.844 381.869 255.347 380.365C256.85 378.861 258.888 378.016 261.013 378.016H284.69C286.816 378.016 288.854 378.861 290.357 380.365C291.859 381.869 292.704 383.908 292.704 386.035C292.704 388.162 291.859 390.202 290.357 391.706C288.854 393.21 286.816 394.055 284.69 394.055Z" fill="#0231C8"/>
<path d="M111.215 339.495C133.978 339.495 152.43 321.028 152.43 298.248C152.43 275.467 133.978 257 111.215 257C88.4526 257 70 275.467 70 298.248C70 321.028 88.4526 339.495 111.215 339.495Z" fill="#0A1158"/>
<path d="M593.942 549H1.0908C0.80212 548.999 0.525555 548.884 0.321722 548.679C0.117888 548.475 0.00341797 548.198 0.00341797 547.909C0.00341797 547.62 0.117888 547.343 0.321722 547.138C0.525555 546.933 0.80212 546.818 1.0908 546.817H593.942C594.231 546.818 594.507 546.933 594.711 547.138C594.915 547.343 595.029 547.62 595.029 547.909C595.029 548.198 594.915 548.475 594.711 548.679C594.507 548.884 594.231 548.999 593.942 549Z" fill="#838DA8"/>
<path d="M223.297 183.58C224.154 183.58 224.85 182.884 224.85 182.026C224.85 181.167 224.154 180.471 223.297 180.471C222.439 180.471 221.743 181.167 221.743 182.026C221.743 182.884 222.439 183.58 223.297 183.58Z" fill="white"/>
<path fill-rule="evenodd" clip-rule="evenodd" d="M103.655 322.07C105.363 318.494 106.315 314.489 106.304 310.261C106.277 299.924 100.504 290.924 92.0033 286.259C100.379 283.382 124.438 285.463 130.273 292.227C130.91 292.965 130.977 293.998 130.629 294.905C127.667 302.607 117.296 315.828 103.655 322.07Z" fill="white"/>
<path fill-rule="evenodd" clip-rule="evenodd" d="M317.813 103.322C318.259 100.928 318.187 98.4002 317.508 95.8923C315.848 89.7607 310.99 85.3368 305.202 83.9198C309.716 80.8801 324.327 78.2891 328.867 81.3756C329.362 81.7126 329.566 82.3152 329.504 82.909C328.97 87.9516 324.918 97.4478 317.813 103.322Z" fill="white"/>
<path fill-rule="evenodd" clip-rule="evenodd" d="M526.902 319.013C529.391 317.381 531.562 315.179 533.201 312.459C537.209 305.808 537.004 297.778 533.36 291.471C539.861 292.885 554.505 303.589 555.62 310.206C555.742 310.928 555.383 311.618 554.806 312.065C549.904 315.859 538.095 320.314 526.902 319.013Z" fill="white"/>
</svg>
